<svg xmlns="http://www.w3.org/2000/svg" viewBox="0 0 1346.15 1533.32"><path d="M200.48 646.92c-6.64-13.13-27.67-10.6-37.87 5.24-8.52 13.25-6.81 25.17-9.1 42.93-2.58 17.72-4.61 28.14-3.62 40 1.1 13.07 13.13 17.64 22 15.38 16.52-4.2 11.14-24.28 16.55-47.2 4.27-18.06 23.19-34.27 12.04-56.35z"/><path d="M200.77 644.82c-6.65-13.13-27.67-10.6-37.87 5.25-8.53 13.24-6.81 25.16-9.11 42.92-2.57 17.72-4.6 28.14-3.61 40 1.09 13.07 13.12 17.64 22 15.38 16.52-4.2 11.13-24.28 16.55-47.19 4.27-18.07 23.19-34.33 12.04-56.36z" fill="#2d2d2d"/><path d="M152.57 691c-.49 4-1 9.67-.43 13.2 1.15 7.13 2.6 13.57 5.3 13.19s2.94-3.56 1.08-9.3c-1.52-4.89-5.62-11.29-5.95-17.09z"/><path d="M152.8 687.81a11.73 11.73 0 0 0-.23 3.14c.5-4.09.98-6.47.23-3.14z" fill="#21b3b8"/><path d="M180 711c-3.33 5-3.95 8.14-1.46 9.24s5.63-4.72 8.66-11.27c1.51-3.25 2.53-8.83 3.14-12.83-1.85 5.55-7.48 10.62-10.34 14.86z"/><path d="M191 693.06c.18-3.41 0-1-.62 3.08a11 11 0 0 0 .62-3.08z" fill="#21b3b8"/><path d="M183.56 656.32c-10.37-1.42-38.07 15.57-31.42 47.83-1.17-22.26 25.19-42.26 30.37-41.55 3.48.48 10 19.15 4.81 45.82 10.59-20.42 10.68-50.11-3.76-52.1z" fill="#4d4c4d"/><path d="M228.38 653.37c-19.69 14.9-9.83 37.82-13.93 55.91-5.2 23-18.85 38.64-5.87 49.67 7 5.93 19.8 7.11 26.53-4.16 6.1-10.2 8.85-20.46 14.32-37.51 5.74-17 12.51-26.91 10.67-42.56-2.2-18.72-19.98-30.22-31.72-21.35z"/><path d="M229 651.36c-19.69 14.9-9.83 37.82-13.93 55.91-5.2 23-18.85 38.64-5.86 49.67 7 5.93 19.8 7.11 26.52-4.16 6.1-10.21 8.85-20.46 14.32-37.51 5.74-17 12.51-26.91 10.67-42.56-2.16-18.71-19.94-30.22-31.72-21.35z" fill="#2d2d2d"/><path d="M236.12 735.54c2.25 1.53 6.38-3.62 10.56-9.52 2.06-2.92 4.08-8.23 5.4-12-2.86 5.11-9.32 9.08-12.85 12.74-4.23 4.29-5.36 7.24-3.11 8.78z"/><path d="M252.08 714a11.51 11.51 0 0 0 1.17-2.93c.8-3.34.18-.99-1.17 2.93zm-35.45-15a11.16 11.16 0 0 0-.79 3c1.23-3.9 2.16-6.15.79-3z" fill="#2d2d2d"/><path d="M215.84 702c-1.21 3.86-2.75 9.33-2.82 12.9-.15 7.23.11 13.82 2.83 13.93s3.54-3 2.75-8.94c-.67-5.02-3.5-12.05-2.76-17.89z"/><path d="M239.45 669.26c-13.86-4.57-26.79 22.11-26.26 45.14 7-26.25 21.12-40.14 24.45-39 5 1.63 19.86 31.18 9 50.66 20.18-26.06 2.76-53.53-7.19-56.8zM35.2 300.69c-15.09 1-27.09 5.24-25.94 22.46s12.1 22.47 27.57 20.07S64.35 326.39 63.59 315s-13.3-15.31-28.39-14.31z" fill="#4d4c4d"/><path d="M55.44 301.69c-5.11-2.27-12.15-3.19-20.35-2.64-13.48.9-28.79 4.46-27.48 24.21.54 8 3.15 13.92 7.77 17.64 4.25 3.43 10.13 4.91 17.47 4.43 1.36-.1 2.78-.25 4.23-.48a35.09 35.09 0 0 0 20.43-11.26c5.31-5.83 8.13-12.65 7.73-18.7s-3.79-10.52-9.8-13.2zm-.36 29.68a32.31 32.31 0 0 1-18.5 10.22c-1.36.21-2.69.36-3.95.44-6.49.44-11.6-.81-15.18-3.7-3.88-3.12-6.08-8.26-6.55-15.29-.49-7.39 1.54-12.58 6.19-15.85 3.9-2.74 9.69-4.28 18.22-4.85 7.67-.51 14.16.31 18.79 2.36 4.89 2.18 7.53 5.68 7.85 10.41.33 5.08-2.23 11.16-6.87 16.26z"/><path d="M102.82 296.19c-15.09 1-27 6.55-26.24 17.94s14.62 24.1 30.27 24.42 25.81-6.34 24.66-23.56-13.6-19.81-28.69-18.8z" fill="#4d4c4d"/><path d="M102.71 294.54c-8.2.55-15 2.39-19.82 5.32-5.6 3.45-8.35 8.42-8 14.38s4.1 12.44 10.14 17.52a35.23 35.23 0 0 0 21.75 8.44c1.47 0 2.9 0 4.25-.09 7.35-.49 13-2.75 16.74-6.71 4.08-4.3 5.88-10.53 5.35-18.52-1.28-19.74-16.93-21.24-30.41-20.34zm22.7 36.59c-3.17 3.34-8.06 5.26-14.56 5.69-1.26.08-2.59.11-4 .08a32.28 32.28 0 0 1-19.69-7.67c-5.27-4.44-8.63-10.12-9-15.21-.31-4.72 1.84-8.55 6.4-11.35 4.31-2.66 10.64-4.33 18.31-4.84 8.53-.57 14.48.19 18.7 2.39 5.05 2.63 7.74 7.5 8.24 14.88.53 7.03-.97 12.43-4.4 16.03z"/><path d="M34.3 323.87c-18.45 10-24.28-6.45-23.89-.69.46 7 3.15 20.62 21.28 19.41 21.53-1.44 30.14-18.65 29.86-22.82-.49-7.47-10.03-5.23-27.25 4.1zm72.49-4.87c-18.31-7-28.06-7.92-27.56-.45.28 4.17 11.11 20.09 32.63 18.65 18.13-1.21 19-15.06 18.52-22.06-.38-5.72-3.98 11.36-23.59 3.86z" fill="#2d2d2d"/><path d="M69.54 306.42a8.17 8.17 0 0 0-7.54 8.69l3.29-.22a4.86 4.86 0 1 1 9.69-.65l3.29-.22a8.17 8.17 0 0 0-8.73-7.6z" fill="#4d4c4d"/><path fill="#2d2d2d" d="M35.063 299.05l67.62-4.503.22 3.293-67.62 4.503zM0 320.26a2 2 0 0 0 2.13 1.85l7.18-.47-.27-4-7.18.48A2 2 0 0 0 0 320.26zM138.18 309l-7.18.48.26 4 7.18-.47a2 2 0 0 0-.26-4zM51.65 592.9a51.54 51.54 0 0 0 66.28-30.31l-96.59-36a51.53 51.53 0 0 0 30.31 66.31z"/><path d="M51.65 592.9l18-48.29-48.29-18a51.53 51.53 0 0 0 30.29 66.29z"/><path d="M52.5 590.6a49.08 49.08 0 0 0 63.13-28.86l-92-34.26A49.08 49.08 0 0 0 52.5 590.6z" fill="#6d6e6e"/><path d="M52.5 590.6l17.13-46-46-17.13A49.08 49.08 0 0 0 52.5 590.6z" fill="#4d4c4d"/><path d="M53.58 587.7a46 46 0 0 0 59.15-27l-86.19-32.1a46 46 0 0 0 27.04 59.1z" fill="#2d2d2d"/><path d="M53.58 587.7l16-43.09-43.04-16.05a46 46 0 0 0 27.04 59.14z"/><path d="M65.85 554.77c-.32-.12-3.4 2.29-3.86 3.52a2.39 2.39 0 0 0 4.47 1.71c.46-1.28-.3-5.11-.61-5.23zm-6.2 16.65c-.32-.12-3.4 2.28-3.86 3.52a2.38 2.38 0 1 0 4.47 1.66c.46-1.23-.26-5.07-.61-5.18zm.96-28.03c-.32-.12-3.4 2.29-3.86 3.52a2.39 2.39 0 1 0 4.47 1.67c.46-1.24-.3-5.07-.61-5.19zM54.41 560c-.32-.12-3.4 2.28-3.86 3.52a2.38 2.38 0 1 0 4.45 1.7c.48-1.22-.28-5.06-.59-5.22zm-5.21-11.43c-.32-.12-3.4 2.29-3.86 3.52a2.38 2.38 0 1 0 4.47 1.66c.46-1.23-.3-5.06-.61-5.18zm-16.65-6.2c-.32-.12-3.4 2.28-3.86 3.52a2.38 2.38 0 1 0 4.47 1.66c.46-1.23-.3-5.06-.61-5.18zm66.6 24.8c-.31-.12-3.4 2.29-3.86 3.52a2.39 2.39 0 0 0 4.48 1.67c.46-1.24-.3-5.07-.62-5.19zM43 565.22c-.32-.12-3.4 2.28-3.86 3.52a2.38 2.38 0 1 0 4.47 1.66c.46-1.23-.3-5.07-.61-5.18zm1-28.03c-.31-.12-3.39 2.29-3.85 3.52a2.39 2.39 0 1 0 4.47 1.67c.38-1.24-.35-5.07-.62-5.19zm-6.24 16.65c-.32-.12-3.4 2.28-3.86 3.52a2.38 2.38 0 1 0 4.47 1.64c.46-1.21-.3-5-.61-5.16zm39.5-4.25c-.32-.12-3.4 2.29-3.86 3.52a2.39 2.39 0 1 0 4.47 1.67c.46-1.24-.3-5.07-.61-5.19zm-6.2 16.65c-.32-.12-3.4 2.29-3.86 3.52a2.38 2.38 0 1 0 4.47 1.66c.46-1.23-.3-5.06-.61-5.18zM82.5 561c-.32-.12-3.4 2.29-3.86 3.52a2.39 2.39 0 0 0 4.47 1.67c.46-1.27-.29-5.1-.61-5.19zm-6.2 16.62c-.31-.12-3.4 2.28-3.86 3.52a2.39 2.39 0 1 0 4.48 1.66c.46-1.23-.3-5.06-.62-5.18zm17.61-21.83c-.32-.12-3.4 2.29-3.86 3.52a2.39 2.39 0 0 0 4.47 1.69c.48-1.26-.3-5.09-.61-5.21zm-6.2 16.65c-.32-.12-3.4 2.29-3.86 3.52a2.39 2.39 0 0 0 4.47 1.67c.46-1.24-.32-5.07-.61-5.19zm1161.08-98.35l-.59 2.75c30.74 2 36.66 34.63 41.45 33.8s-.63-33.6 27.65-45.79l-1.48-2.39a88.6 88.6 0 0 1-67.03 11.63zm31.902-29.763l6.802-1.168.374 2.178-6.802 1.168zM1269 385.5a24.86 24.86 0 0 0-20.23 28.71l.28 1.63 3.25-.56-.28-1.63a21.54 21.54 0 1 1 42.44-7.36l.28 1.62 3.25-.56-.28-1.63A24.86 24.86 0 0 0 1269 385.5z" fill="#4d4c4d"/><path d="M1267.73 377.75a5.27 5.27 0 1 0-7.74 7.15c1.56 1.68 7.12 3.34 8.79 3.81l2.59.73-.53-2.64c-.33-1.7-1.56-7.38-3.11-9.05zm-5.32 4.91a2 2 0 0 1 .11-2.78 2 2 0 0 1 1-.5 2 2 0 0 1 1.79.61 17 17 0 0 1 1.67 4.71 17.16 17.16 0 0 1-4.57-2.04z" fill="#4d4c4d"/><path d="M1274.4 375a5.26 5.26 0 0 0-6.92 2.78c-.9 2.1-.14 7.86.12 9.58l.4 2.64 2.19-1.55c1.41-1 6.1-4.44 7-6.55a5.25 5.25 0 0 0-2.77-6.91zm-.26 5.62a17.39 17.39 0 0 1-3.62 3.46 17.4 17.4 0 0 1 0-5 2 2 0 0 1 2.59-1 2 2 0 0 1 1 2.59z" fill="#4d4c4d"/><path d="M1269 385.5c-3.75.65-5.73 6.06-4.6 12.59a1.65 1.65 0 0 0 3.25-.56c-.87-5 .55-8.55 1.91-8.78s3.88 2.61 4.75 7.62a1.65 1.65 0 0 0 3.25-.56c-1.18-6.53-4.87-10.96-8.56-10.31zm-18.65 28.43s-15.53 16.95-11.81 31a26.34 26.34 0 0 0 37.25.1c3.8-14.03-25.44-31.1-25.44-31.1zM1296 406s-21.79 25.92-13.48 37.86a26.33 26.33 0 0 0 35-12.65C1316.36 416.73 1296 406 1296 406z" fill="#4d4c4d"/><path d="M1238.54 444.94a26.22 26.22 0 0 0 18.53 7.76l-6.72-38.77s-15.53 16.95-11.81 31.01zm44.02-1.07a26.27 26.27 0 0 0 20.2.91L1296 406s-21.75 25.93-13.44 37.87zm-34.36 32.97c30.74 2 36.66 34.63 41.45 33.8l-6.19-35.64a88.68 88.68 0 0 1-34.67-.87z"/><path d="M1243.91 665.89c-6.14-1.82-15.44.07-17 5.33s6.87 6.38 13 8.19 13.81 5.45 15.36.19-5.27-11.9-11.36-13.71z" fill="#4d4c4d"/><path d="M1276.06 639.11l-44.6-13.17a24.71 24.71 0 0 0-14 47.4c9.62 2.84 18.36-9.79 26.43-7.4s8.55 17.73 18.17 20.57a24.71 24.71 0 1 0 14-47.4z"/><path d="M1274.59 643.22l-44.13-13c-11-3.26-22.62 2.85-25.8 13.61s3.22 22.18 14.27 25.44c3.51 1 7.34-1.08 11.4-3.33 4.61-2.56 9.37-5.2 14.65-3.64s7.84 6.36 10.32 11c2.18 4.09 4.25 8 7.76 9 11 3.26 22.62-2.85 25.8-13.61s-3.22-22.21-14.27-25.47z" fill="#2d2d2d"/><path d="M1274.59 643.22l-44.13-13c-11-3.26-22.62 2.85-25.8 13.61-.79 2.67 7.56 7.49 18.61 10.75a39.22 39.22 0 0 0 10 1.31 45.72 45.72 0 0 1 25 7.37 39.1 39.1 0 0 0 9.13 4.36c11 3.26 20.67 3.74 21.46 1.08 3.14-10.81-3.22-22.22-14.27-25.48zm-33.84 42.13l-4.77-1.41a7.5 7.5 0 0 0-4.25 14.39l4.77 1.41a7.5 7.5 0 1 0 4.25-14.39z" fill="#4d4c4d"/><path d="M1317.75 619.33a5.5 5.5 0 0 0-6.83 3.71l-24.68 83.57a23.32 23.32 0 0 1-44.73-13.21 5.49 5.49 0 1 0-10.54-3.11 34.31 34.31 0 0 0 65.82 19.43l24.67-83.57a5.49 5.49 0 0 0-3.71-6.82z"/><path d="M1155.48 500.3l-38.61 91.45a49.63 49.63 0 1 0 38.61-91.45zm-65.03 26.42a49.63 49.63 0 0 0 26.42 65l38.61-91.45a49.63 49.63 0 0 0-65.03 26.45z" fill="#4d4c4d"/><ellipse cx="1136.17" cy="546.02" rx="49.63" ry="38.19" transform="rotate(-67.11 1136.121 546.03)" fill="#fff"/><path d="M1101 531.17c-10.67 25.25-3.56 52.37 15.88 60.58l38.61-91.45c-19.44-8.21-43.84 5.61-54.49 30.87z" fill="#eeefef"/><path d="M1155.48 500.3c-7.62-3.22-22.43 14.65-33.1 39.9s-13.13 48.33-5.51 51.55 22.43-14.65 33.09-39.9 13.14-48.33 5.52-51.55z" fill="#2d2d2d"/><path d="M1122.38 540.2c-10.66 25.25-13.13 48.33-5.51 51.55l38.61-91.45c-7.62-3.22-22.43 14.7-33.1 39.9z"/><path d="M1146 497.36c1.15 1.47 4.42 3.55 8.51 5.28s7.87 2.62 9.72 2.42a50 50 0 0 0-18.23-7.7zM1108.13 587a50.18 50.18 0 0 0 18.24 7.7c-1.15-1.47-4.42-3.55-8.52-5.28s-7.85-2.63-9.72-2.42z"/><path d="M88.29 116c7.59 8 12.63 5.57 11.22-5.35l-8.82-68L41.05 66.3z" fill="#161616"/><path d="M88.29 116c3.79 4 6.95 5.38 9 4.41L65.87 54.48 41.05 66.3z"/><path d="M85.45 51.42l2.68-7.55-6.45 3.07-1 2.79-2.79-1-10.13 4.85-1 2.79-2.79-1-10.13 4.84-1 2.79-2.79-1-6.45 3.08 7.56 2.68-2 5.52-2.29-.82 7.69 8.09 3.19 1.13-.57 1.62 3.9 4.11 1.43-4 5.52 2-2 5.51-2.6-.92 7.77 8 3.5 1.24-.63 1.76 3.9 4.11 1.49-4.2 5.52 2-2 5.51-2.91-1 7.69 8.09 3.81 1.35-.57 1.64a9 9 0 0 0 4.58 2.18l.77-2.17 2.18.77a9 9 0 0 0 1.19-4.94l-1.68-.59 1.35-3.82L98 98.86l-1 2.92-5.52-2 2-5.51 4.19 1.49-.73-5.62-1.78-.63L96.32 86l-1.44-11-.88 2.58-5.52-2 2-5.51 4 1.43-.73-5.62-1.62-.57 1.13-3.2-1.48-11.03-.78 2.3zm-12 1.12l5.51 2-2 5.51-5.52-1.95zm-3.61 10.28l5.52 1.95-2 5.52-5.51-2zM82 78.7l-2 5.51-5.51-1.95 2-5.52zM59.56 59.17l5.52 2-2 5.51-5.51-2zM54 75l2-5.52 5.52 2-2 5.51zm10.28 3.64l2-5.52 5.51 2-1.95 5.52zm6.63 13.92l2-5.51 5.52 2-2 5.52zm24.39 14l-2 5.52-5.52-2 2-5.52zm-8.59-8.41l-5.52-1.95 2-5.52 5.51 2zm5.6-15.79l-2 5.52-5.51-2 2-5.52zm-8.59-8.41l-5.52-2 2-5.52 5.52 2zm3.64-10.27l-5.51-2 2-5.52 5.52 2z" fill="#4d4c4d"/><path d="M53.84 60.21l-1 2.79-2.79-1-6.45 3.08 7.56 2.68-2 5.52-2.29-.82 7.69 8.09 3.19 1.13-.57 1.62 3.9 4.11 1.43-4 5.52 2-2 5.51-2.6-.92 7.77 8 3.5 1.24-.63 1.76 3.9 4.11 1.49-4.2 5.52 2-2 5.51-2.91-1 7.69 8.09 3.81 1.35-.57 1.64a9 9 0 0 0 4.58 2.18l.77-2.17-3.07-6.45-5.52-2 2-5.52-3.07-6.45-5.52-1.95 2-5.52L80 84.21l-5.51-1.95 2-5.52-3.09-6.45-5.51-2 2-5.51-3.07-6.45-2.79-1zM54 75l2-5.52 5.52 2-2 5.51zm24.35 14l-2 5.52-5.52-2 2-5.51zm-6.64-13.95l-1.95 5.52-5.52-2 2-5.52zm-8.59-8.41l-5.51-2 2-5.52 5.52 2z" fill="#2d2d2d"/><path d="M83.8 28.2a29.75 29.75 0 1 0-49.64 23.65 8.27 8.27 0 0 1 2.19 8.87A8.3 8.3 0 1 0 52 66.26a8.29 8.29 0 0 1 10.59-5 8.29 8.29 0 0 0 10.59-5 8.3 8.3 0 0 1 10.6-5 8.3 8.3 0 1 0 5.54-15.64 8.32 8.32 0 0 1-5.52-7.42z" fill="#232323"/><path d="M27.23 42.55a29.87 29.87 0 0 0 6.93 9.3 8.27 8.27 0 0 1 2.19 8.87A8.3 8.3 0 1 0 52 66.26a8.29 8.29 0 0 1 10.59-5 8.31 8.31 0 0 0 6.34-.33L41.3 2.9a29.75 29.75 0 0 0-14.07 39.65z"/><rect x="1125.64" y="26.29" width="73.12" height="95.03" rx="5.86" ry="5.86" transform="rotate(-71.79 1162.178 73.813)" fill="#4d4c4d"/><rect x="1139.18" y="23.94" width="43.73" height="106.75" rx="5.86" ry="5.86" transform="rotate(-71.79 1161.025 77.327)"/><circle cx="1161.05" cy="77.32" r="26.02" transform="rotate(-65.45 1161.017 77.33)" fill="#c5c7c9"/><path d="M1167.43 57.92a20.42 20.42 0 1 0 13 25.78 20.42 20.42 0 0 0-13-25.78z" fill="#232323"/><path d="M1167.43 57.92l-12.76 38.79a20.42 20.42 0 0 0 12.76-38.79z"/><path fill="#232323" d="M1190.275 59.97l2.744-8.34 18.305 6.021-2.744 8.34z"/><path d="M1192.283 45.207l2.071-6.298 20.88 6.87-2.072 6.297z"/><path fill="#c5c7c9" d="M1142.175 28.72l.7-2.127 12.51 4.115-.7 2.128z"/><path fill="#4d4c4d" d="M1140.658 26.095l1.372-4.17 15.94 5.243-1.372 4.17z"/><path d="M223.3 145.78l-67.15 58.29 4.74.33 64.61-56.08c4.92-4.27 8.42-8.3 7.81-9s-5.09 2.19-10.01 6.46z"/><path d="M224.49 147.15A54.27 54.27 0 0 0 166.1 131l65.69 75.68a54.28 54.28 0 0 0-7.3-59.51z" fill="#232323"/><path d="M224.4 147a23.68 23.68 0 0 0-11.87-7.35c-10.05-2.84-22.43-.62-34.31 5.25l41.45 47.76c8.08-11.8 11.32-23.64 10-33.23A24 24 0 0 0 224.4 147z" fill="#eeefef"/><path d="M166.1 131l12.12 14c11.88-5.87 24.26-8.09 34.31-5.25a23.66 23.66 0 0 1 11.71 7.17A54.27 54.27 0 0 0 166.1 131z" fill="#dbdcdd"/><path fill="#f1716c" d="M224.4 147.05l.01.01-.01-.01zm-.16-.19c0 .07.11.13.16.19z"/><path d="M212.53 139.69c-10.05-2.84-22.43-.62-34.31 5.25L199.11 169l25.29-22c-.05-.06-.11-.12-.16-.19a23.66 23.66 0 0 0-11.71-7.12z"/><path fill="#167389" d="M180.69 194.07l-36.02 31.07 102.21 7.23-31.29-35.83-34.9-2.47z"/><path fill="#eeefef" d="M181.44 193.42l-36.77 31.72 102.21 7.23-31.95-36.58-33.49-2.37z"/><path d="M171.36 202.12l-7 6.04 65.41 4.62-6.08-6.96-52.33-3.7zm10.08-8.7l-4.48 3.87 41.87 2.96-3.9-4.46-33.49-2.37zm-25.83 22.29l-10.94 9.43 102.21 7.23-9.5-10.88-81.77-5.78z"/><path fill="#4d4c4d" d="M142.32 401.47l12.92 100.91 48.06-13.86-4.02-41.71 18.81 37.44 48.06-13.86-42.8-92.29-81.03 23.37z"/><path fill="#232323" d="M151 469.32l49.09-14.15-.42-4.32-49.21 14.19.54 4.28zm2.08 16.22l48.58-14-.83-8.65-48.84 14.08 1.09 8.57zm2.16 16.84l48.06-13.86-1.52-15.75-48.54 14 2 15.61zm55.75-32.26l7.1 14.13 48.06-13.86-6.62-14.27-48.54 14zm-4.46-8.88l3.9 7.77L259.01 455l-3.64-7.84-48.84 14.08zm-61.24-36.56l.07.53 88.06-25.39-.23-.49-87.9 25.35zm1.77 13.81l.13 1.07 92.32-26.62-.46-.98-91.99 26.53zm54.04 11.94l1.95 3.88 49.08-14.15-1.82-3.92-49.21 14.19zm-52.31 1.6l.28 2.14 96.63-27.86-.91-1.96-96 27.68z"/><path d="M195.48 433.63c-7.32 2.11-12.65 10.65-11.85 19l3.9 40.46 15.77-4.55-4-41.71 18.81 37.44 15.77-4.54-18.25-36.32c-3.77-7.5-12.83-11.89-20.15-9.78zm-53.16-32.16l1.2 9.39 83.82-24.17-3.99-8.59-81.03 23.37z"/><path d="M184.2 392.22a1.65 1.65 0 0 0-1.56.72c-.19.29-4.72 7.12-5.25 11.71a14.69 14.69 0 0 0 .54 6.29c.75 2.16 2.07 3.46 3.71 3.64a3.29 3.29 0 0 0 1.39-.12c2.48-.71 4.49-4.17 5-8.6.53-4.58-2.34-12.26-2.47-12.58a1.65 1.65 0 0 0-1.36-1.06zm.55 13.27c-.39 3.36-1.8 5.57-2.64 5.81H182c-.16 0-.61-.4-1-1.45a11.51 11.51 0 0 1-.38-4.84c.23-2 1.62-4.93 2.89-7.23.78 2.54 1.49 5.69 1.24 7.71z" fill="#2d2d2d"/><path d="M184.68 392.35a1.65 1.65 0 0 0-2.29 1.84c.07.34 1.73 8.36 4.62 12s6.32 5.33 8.8 4.62a3.66 3.66 0 0 0 1.24-.64c1.29-1 1.72-2.83 1.2-5.06a14.62 14.62 0 0 0-2.89-5.61c-2.89-3.63-10.36-7-10.68-7.15zM195 405.82c.25 1.09.07 1.65 0 1.75h-.09c-.83.24-3.21-.87-5.32-3.51-1.27-1.59-2.36-4.62-3.09-7.15 2.3 1.27 5 3 6.29 4.58a11.54 11.54 0 0 1 2.21 4.33z" fill="#2d2d2d"/><path d="M185.74 393.92l-.15-.52a1.64 1.64 0 1 0-3.16.91c0 .18.1.35.14.52 3.21 11.18 3.53 16.39 3.81 21a50.64 50.64 0 0 0 2 12.59 1.65 1.65 0 1 0 3.17-.91 47.4 47.4 0 0 1-1.91-11.88c0-.89-.11-1.81-.19-2.78.46.87.9 1.67 1.33 2.45a48 48 0 0 1 4.71 11.07 1.65 1.65 0 1 0 3.17-.91 51.16 51.16 0 0 0-5-11.74c-2.17-4.05-4.66-8.63-7.92-19.8z" fill="#2d2d2d"/><path d="M1280.48 1408.92c-6.64-13.13-27.67-10.6-37.87 5.24-8.52 13.25-6.81 25.17-9.1 42.93-2.58 17.72-4.61 28.14-3.62 40 1.1 13.07 13.13 17.64 22 15.38 16.52-4.2 11.14-24.28 16.55-47.2 4.27-18.06 23.19-34.27 12.04-56.35z"/><path d="M1280.77 1406.82c-6.65-13.13-27.67-10.6-37.87 5.25-8.53 13.24-6.81 25.16-9.11 42.92-2.57 17.72-4.6 28.14-3.61 40 1.09 13.07 13.12 17.64 22 15.38 16.52-4.2 11.13-24.28 16.55-47.19 4.27-18.07 23.19-34.33 12.04-56.36z" fill="#2d2d2d"/><path d="M1232.57 1453c-.49 4-1 9.67-.43 13.2 1.15 7.13 2.6 13.57 5.3 13.19s2.94-3.56 1.08-9.3c-1.52-4.89-5.62-11.29-5.95-17.09z"/><path d="M1232.8 1449.81a11.73 11.73 0 0 0-.23 3.14c.5-4.09.98-6.47.23-3.14z" fill="#21b3b8"/><path d="M1260 1473c-3.33 5-4 8.14-1.46 9.24s5.63-4.72 8.66-11.27c1.51-3.25 2.53-8.83 3.14-12.83-1.85 5.55-7.48 10.62-10.34 14.86z"/><path d="M1271 1455.06c.18-3.41 0-1-.62 3.08a11 11 0 0 0 .62-3.08z" fill="#21b3b8"/><path d="M1263.56 1418.32c-10.37-1.42-38.07 15.57-31.42 47.83-1.17-22.26 25.19-42.26 30.37-41.55 3.48.48 10 19.15 4.81 45.82 10.59-20.42 10.68-50.11-3.76-52.1z" fill="#4d4c4d"/><path d="M1308.38 1415.37c-19.69 14.9-9.83 37.82-13.93 55.91-5.2 23-18.85 38.64-5.87 49.67 7 5.93 19.8 7.11 26.53-4.16 6.1-10.2 8.85-20.46 14.32-37.51 5.74-17 12.51-26.91 10.67-42.56-2.2-18.72-19.98-30.22-31.72-21.35z"/><path d="M1309 1413.36c-19.69 14.9-9.83 37.82-13.93 55.91-5.2 23-18.85 38.64-5.86 49.67 7 5.93 19.8 7.11 26.52-4.16 6.1-10.21 8.85-20.46 14.32-37.51 5.74-17 12.51-26.91 10.67-42.56-2.16-18.71-19.94-30.22-31.72-21.35z" fill="#2d2d2d"/><path d="M1316.12 1497.54c2.25 1.53 6.38-3.62 10.56-9.52 2.06-2.92 4.08-8.23 5.4-12-2.86 5.11-9.32 9.08-12.85 12.74-4.23 4.29-5.36 7.24-3.11 8.78z"/><path d="M1332.08 1476a11.51 11.51 0 0 0 1.17-2.93c.8-3.34.18-.99-1.17 2.93zm-35.45-15a11.16 11.16 0 0 0-.79 3c1.23-3.9 2.16-6.15.79-3z" fill="#2d2d2d"/><path d="M1295.84 1464c-1.21 3.86-2.75 9.33-2.82 12.9-.15 7.23.11 13.82 2.83 13.93s3.54-3 2.75-8.94c-.67-5.02-3.5-12.05-2.76-17.89z"/><path d="M1319.45 1431.26c-13.86-4.57-26.79 22.11-26.26 45.14 7-26.25 21.12-40.14 24.45-39 5 1.63 19.86 31.18 9 50.66 20.18-26.06 2.76-53.53-7.19-56.8zm-204.25-368.57c-15.09 1-27.09 5.24-25.94 22.46s12.1 22.47 27.57 20.07 27.52-16.83 26.76-28.22-13.3-15.31-28.39-14.31z" fill="#4d4c4d"/><path d="M1135.44 1063.69c-5.11-2.27-12.15-3.19-20.35-2.64-13.48.9-28.79 4.46-27.48 24.21.54 8 3.15 13.92 7.77 17.64 4.25 3.43 10.13 4.91 17.47 4.43 1.36-.1 2.78-.25 4.23-.48a35.09 35.09 0 0 0 20.43-11.26c5.31-5.83 8.13-12.65 7.73-18.7s-3.79-10.52-9.8-13.2zm-.36 29.68a32.31 32.31 0 0 1-18.5 10.22c-1.36.21-2.69.36-3.95.44-6.49.44-11.6-.81-15.18-3.7-3.88-3.12-6.08-8.26-6.55-15.29-.49-7.39 1.54-12.58 6.19-15.85 3.9-2.74 9.69-4.28 18.22-4.85 7.67-.51 14.16.31 18.79 2.36 4.89 2.18 7.53 5.68 7.85 10.41.33 5.08-2.23 11.16-6.87 16.26z"/><path d="M1182.82 1058.19c-15.09 1-27 6.55-26.24 17.94s14.62 24.1 30.27 24.42 25.81-6.34 24.66-23.56-13.6-19.81-28.69-18.8z" fill="#4d4c4d"/><path d="M1182.71 1056.54c-8.2.55-15 2.39-19.82 5.32-5.6 3.45-8.35 8.42-8 14.38s4.1 12.44 10.14 17.52a35.23 35.23 0 0 0 21.75 8.44c1.47 0 2.9 0 4.25-.09 7.35-.49 13-2.75 16.74-6.71 4.08-4.3 5.88-10.53 5.35-18.52-1.28-19.74-16.93-21.24-30.41-20.34zm22.7 36.59c-3.17 3.34-8.06 5.26-14.56 5.69-1.26.08-2.59.11-4 .08a32.28 32.28 0 0 1-19.69-7.67c-5.27-4.44-8.63-10.12-9-15.21-.31-4.72 1.84-8.55 6.4-11.35 4.31-2.66 10.64-4.33 18.31-4.84 8.53-.57 14.48.19 18.7 2.39 5 2.63 7.74 7.5 8.24 14.88.53 7.03-.97 12.43-4.4 16.03z"/><path d="M1114.3 1085.87c-18.45 10-24.28-6.45-23.89-.69.46 7 3.15 20.62 21.28 19.41 21.53-1.44 30.14-18.65 29.86-22.82-.49-7.47-10.03-5.23-27.25 4.1zm72.49-4.87c-18.31-7-28.06-7.92-27.56-.45.28 4.17 11.11 20.09 32.63 18.65 18.13-1.21 19-15.06 18.52-22.06-.38-5.72-3.98 11.36-23.59 3.86z" fill="#2d2d2d"/><path d="M1149.54 1068.42a8.17 8.17 0 0 0-7.59 8.69l3.29-.22a4.86 4.86 0 1 1 9.69-.65l3.29-.22a8.17 8.17 0 0 0-8.68-7.6z" fill="#4d4c4d"/><path fill="#2d2d2d" d="M1115.01 1061.142l67.62-4.503.22 3.293-67.62 4.503zM1080 1082.26a2 2 0 0 0 2.13 1.85l7.18-.47-.27-4-7.18.48a2 2 0 0 0-1.86 2.14zm138.18-11.26l-7.18.48.26 4 7.18-.47a2 2 0 0 0-.26-4zm-86.53 283.9a51.54 51.54 0 0 0 66.28-30.31l-96.59-36a51.53 51.53 0 0 0 30.31 66.31z"/><path d="M1131.65 1354.9l18-48.29-48.29-18a51.53 51.53 0 0 0 30.29 66.29z"/><path d="M1132.5 1352.6a49.08 49.08 0 0 0 63.13-28.86l-92-34.26a49.08 49.08 0 0 0 28.87 63.12z" fill="#6d6e6e"/><path d="M1132.5 1352.6l17.13-46-46-17.13a49.08 49.08 0 0 0 28.87 63.13z" fill="#4d4c4d"/><path d="M1133.58 1349.7a46 46 0 0 0 59.15-27l-86.19-32.1a46 46 0 0 0 27.04 59.1z" fill="#2d2d2d"/><path d="M1133.58 1349.7l16.05-43.09-43.09-16a46 46 0 0 0 27.04 59.09z"/><path d="M1145.85 1316.77c-.32-.12-3.4 2.29-3.86 3.52a2.39 2.39 0 0 0 4.47 1.67c.46-1.24-.3-5.07-.61-5.19zm-6.2 16.65c-.32-.12-3.4 2.28-3.86 3.52a2.38 2.38 0 1 0 4.47 1.66c.46-1.23-.26-5.07-.61-5.18zm.96-28.03c-.32-.12-3.4 2.29-3.86 3.52a2.39 2.39 0 1 0 4.47 1.67c.46-1.24-.3-5.07-.61-5.19zm-6.2 16.61c-.32-.12-3.4 2.28-3.86 3.52a2.38 2.38 0 1 0 4.47 1.66c.46-1.18-.3-5.02-.61-5.18zm-5.21-11.43c-.32-.12-3.4 2.29-3.86 3.52a2.38 2.38 0 1 0 4.47 1.66c.46-1.23-.3-5.06-.61-5.18zm-16.65-6.2c-.32-.12-3.4 2.28-3.86 3.52a2.38 2.38 0 1 0 4.47 1.66c.46-1.23-.3-5.06-.61-5.18zm66.6 24.8c-.31-.12-3.4 2.29-3.86 3.52a2.39 2.39 0 0 0 4.48 1.67c.46-1.24-.3-5.07-.62-5.19zm-56.15-1.95c-.32-.12-3.4 2.28-3.86 3.52a2.38 2.38 0 1 0 4.47 1.66c.46-1.23-.3-5.07-.61-5.18zm1-28.03c-.31-.12-3.39 2.29-3.85 3.52a2.39 2.39 0 0 0 4.47 1.67c.38-1.24-.35-5.07-.62-5.19zm-6.24 16.65c-.32-.12-3.4 2.28-3.86 3.52a2.38 2.38 0 1 0 4.47 1.66c.46-1.23-.3-5.02-.61-5.18zm39.5-4.25c-.32-.12-3.4 2.29-3.86 3.52a2.39 2.39 0 1 0 4.47 1.67c.46-1.24-.3-5.07-.61-5.19zm-6.2 16.65c-.32-.12-3.4 2.29-3.86 3.52a2.38 2.38 0 1 0 4.47 1.66c.46-1.23-.3-5.06-.61-5.18zm11.44-5.24c-.32-.12-3.4 2.29-3.86 3.52a2.39 2.39 0 0 0 4.47 1.67c.46-1.27-.29-5.1-.61-5.19zm-6.2 16.62c-.31-.12-3.4 2.28-3.86 3.52a2.39 2.39 0 1 0 4.48 1.66c.46-1.23-.3-5.06-.62-5.18zm17.61-21.83c-.32-.12-3.4 2.29-3.86 3.52a2.39 2.39 0 0 0 4.47 1.67c.48-1.24-.3-5.07-.61-5.19zm-6.2 16.65c-.32-.12-3.4 2.29-3.86 3.52a2.39 2.39 0 0 0 4.47 1.67c.46-1.24-.32-5.07-.61-5.19z" fill="#4d4c4d"/><path d="M1168.29 878c7.59 8 12.63 5.57 11.22-5.35l-8.82-68-49.64 23.65z" fill="#161616"/><path d="M1168.29 878c3.79 4 7 5.38 9 4.41l-31.4-65.92-24.82 11.82z"/><path d="M1165.45 813.42l2.68-7.55-6.45 3.07-1 2.79-2.79-1-10.14 4.84-1 2.79-2.79-1-10.14 4.83-1 2.79-2.79-1-6.46 3.07 7.56 2.68-2 5.52-2.29-.82 7.69 8.09 3.19 1.13-.57 1.62 3.9 4.11 1.43-4 5.52 2-2 5.51-2.6-.92 7.69 8.09 3.5 1.24-.63 1.78 3.9 4.11 1.49-4.2 5.52 2-2 5.51-2.91-1 7.69 8.09 3.81 1.35-.59 1.68a9 9 0 0 0 4.58 2.18l.77-2.17 2.18.77a9 9 0 0 0 1.19-4.94l-1.68-.59 1.35-3.82-1.26-11.19-1 2.92-5.52-2 2-5.51 4.19 1.49-.73-5.62-1.78-.63 1.25-3.51-1.53-11-.92 2.61-5.52-2 2-5.51 4 1.43-.73-5.62-1.62-.57 1.13-3.2-1.44-11.07-.81 2.3zm-12 1.12l5.51 2-2 5.51-5.52-2zm-3.65 10.28l5.52 1.95-2 5.52-5.51-2zm12.2 15.88l-2 5.51-5.51-2 2-5.52zm-22.43-19.53l5.52 2-2 5.51-5.51-1.95zM1134 837l2-5.52 5.52 2-2 5.51zm10.28 3.64l2-5.52 5.51 2-2 5.52zm6.63 13.92l2-5.51 5.52 2-2 5.52zm24.39 14l-2 5.52-5.52-2 2-5.52zm-8.59-8.41l-5.52-2 2-5.52 5.51 2zm5.6-15.79l-2 5.52-5.51-2 2-5.52zm-8.59-8.41l-5.52-1.95 2-5.52 5.52 2zm3.64-10.27l-5.51-2 2-5.52 5.52 2z" fill="#4d4c4d"/><path d="M1133.84 822.21l-1 2.79-2.79-1-6.46 3.07 7.56 2.68-2 5.52-2.29-.82 7.69 8.09 3.19 1.13-.57 1.62 3.9 4.11 1.43-4 5.52 2-2 5.51-2.6-.92 7.69 8.09 3.5 1.24-.63 1.78 3.9 4.11 1.49-4.2 5.52 2-2 5.51-2.91-1 7.69 8.09 3.81 1.35-.59 1.68a9 9 0 0 0 4.58 2.18l.77-2.17-3.07-6.45-5.52-2 2-5.52-3.07-6.45-5.52-2 2-5.52-3.08-6.45-5.51-2 2-5.52-3.07-6.45-5.51-2 1.95-5.51-3.07-6.45-2.79-1zM1134 837l2-5.52 5.52 2-2 5.51zm24.39 14l-2 5.52-5.52-2 2-5.51zm-6.64-13.92l-2 5.52-5.52-2 2-5.52zm-8.59-8.41l-5.51-1.95 2-5.52 5.52 2z" fill="#2d2d2d"/><path d="M1163.8 790.2a29.75 29.75 0 1 0-49.64 23.65 8.27 8.27 0 0 1 2.19 8.87 8.3 8.3 0 1 0 15.64 5.54 8.29 8.29 0 0 1 10.59-5 8.29 8.29 0 0 0 10.59-5.05 8.3 8.3 0 0 1 10.6-5 8.3 8.3 0 0 0 5.54-15.64 8.32 8.32 0 0 1-5.51-7.37z" fill="#232323"/><path d="M1107.23 804.55a29.87 29.87 0 0 0 6.93 9.3 8.27 8.27 0 0 1 2.19 8.87 8.3 8.3 0 1 0 15.64 5.54 8.29 8.29 0 0 1 10.59-5 8.31 8.31 0 0 0 6.34-.33l-27.62-58a29.75 29.75 0 0 0-14.07 39.62zm196.07 103.23l-67.15 58.29 4.74.33 64.61-56.08c4.92-4.27 8.42-8.3 7.81-9s-5.09 2.19-10.01 6.46z"/><path d="M1304.49 909.15A54.27 54.27 0 0 0 1246.1 893l65.69 75.68a54.28 54.28 0 0 0-7.3-59.51z" fill="#232323"/><path d="M1304.4 909a23.68 23.68 0 0 0-11.87-7.35c-10-2.84-22.43-.62-34.31 5.25l41.45 47.76c8.08-11.8 11.32-23.64 10-33.23a24 24 0 0 0-5.27-12.43z" fill="#eeefef"/><path d="M1246.1 893l12.12 14c11.88-5.87 24.26-8.09 34.31-5.25a23.66 23.66 0 0 1 11.71 7.17A54.27 54.27 0 0 0 1246.1 893z" fill="#dbdcdd"/><path fill="#f1716c" d="M1304.4 909.05l.01.01-.01-.01zm-.16-.19c0 .07.11.13.16.19z"/><path d="M1292.53 901.69c-10-2.84-22.43-.62-34.31 5.25l20.89 24.06 25.29-22c-.05-.06-.11-.12-.16-.19a23.66 23.66 0 0 0-11.71-7.12z"/><path fill="#167389" d="M1260.69 956.07l-36.02 31.07 102.21 7.23-31.29-35.83-34.9-2.47z"/><path fill="#eeefef" d="M1261.44 955.42l-36.77 31.72 102.21 7.23-31.95-36.58-33.49-2.37z"/><path d="M1251.36 964.12l-7 6.04 65.41 4.62-6.08-6.96-52.33-3.7zm10.08-8.7l-4.48 3.87 41.87 2.96-3.9-4.46-33.49-2.37zm-25.83 22.29l-10.94 9.43 102.21 7.23-9.5-10.88-81.77-5.78z"/><path fill="#4d4c4d" d="M1222.32 1163.47l12.92 100.91 48.06-13.86-4.02-41.71 18.81 37.44 48.06-13.86-42.8-92.29-81.03 23.37z"/><path fill="#232323" d="M1231.01 1231.32l49.08-14.15-.42-4.32-49.21 14.19.55 4.28zm2.07 16.22l48.58-14-.83-8.65-48.85 14.08 1.1 8.57zm2.16 16.84l48.06-13.86-1.52-15.75-48.54 14 2 15.61zm55.74-32.26l7.11 14.13 48.06-13.86-6.62-14.27-48.55 14zm-4.45-8.88l3.9 7.77 48.58-14.01-3.64-7.84-48.84 14.08zm-61.24-36.57l.07.54 88.06-25.39-.23-.49-87.9 25.34zm1.77 13.82l.13 1.07 92.32-26.62-.46-.98-91.99 26.53zm54.04 11.94l1.95 3.88 49.08-14.15-1.82-3.92-49.21 14.19zm-52.31 1.6l.28 2.14 96.63-27.86-.9-1.96-96.01 27.68z"/><path d="M1275.48 1195.63c-7.32 2.11-12.65 10.65-11.85 19l3.9 40.46 15.77-4.55-4-41.71 18.81 37.44 15.77-4.54-18.25-36.32c-3.77-7.5-12.83-11.89-20.15-9.78zm-53.16-32.16l1.2 9.39 83.82-24.17-3.99-8.59-81.03 23.37z"/><path d="M1264.2 1154.22a1.65 1.65 0 0 0-1.56.72c-.19.29-4.72 7.12-5.25 11.71a14.69 14.69 0 0 0 .54 6.29c.75 2.16 2.07 3.46 3.71 3.64a3.29 3.29 0 0 0 1.39-.12c2.48-.71 4.49-4.17 5-8.6s-2.34-12.26-2.47-12.58a1.65 1.65 0 0 0-1.36-1.06zm.55 13.27c-.39 3.36-1.8 5.57-2.64 5.81h-.11c-.16 0-.61-.4-1-1.45a11.51 11.51 0 0 1-.38-4.84c.23-2 1.62-4.93 2.89-7.23.78 2.54 1.49 5.69 1.24 7.71z" fill="#2d2d2d"/><path d="M1264.68 1154.35a1.65 1.65 0 0 0-2.29 1.84c.07.34 1.73 8.36 4.62 12s6.32 5.33 8.8 4.62a3.66 3.66 0 0 0 1.24-.64c1.29-1 1.72-2.83 1.2-5.06a14.62 14.62 0 0 0-2.89-5.61c-2.89-3.63-10.36-7-10.68-7.15zm10.36 13.47c.25 1.09.07 1.65 0 1.75h-.09c-.83.24-3.21-.87-5.32-3.51-1.27-1.59-2.36-4.62-3.09-7.15 2.3 1.27 5 3 6.29 4.58a11.54 11.54 0 0 1 2.17 4.33z" fill="#2d2d2d"/><path d="M1265.74 1155.92l-.15-.52a1.64 1.64 0 1 0-3.16.91c0 .18.1.35.14.52 3.21 11.18 3.53 16.39 3.81 21a50.64 50.64 0 0 0 2 12.59 1.65 1.65 0 1 0 3.17-.91 47.4 47.4 0 0 1-1.91-11.88c-.05-.89-.11-1.81-.19-2.78.46.87.9 1.67 1.33 2.45a48 48 0 0 1 4.71 11.07 1.65 1.65 0 0 0 3.17-.91 51.16 51.16 0 0 0-5-11.74c-2.17-4.05-4.66-8.63-7.92-19.8z" fill="#2d2d2d"/><circle cx="1144.24" cy="305.08" r="30.74" transform="rotate(-67.5 1144.239 305.08)"/><path d="M1180.28 295.43l10.14-17-19.8.27.28-19.79-17 10.14-9.66-17.28-9.65 17.28-17-10.14.28 19.79-19.79-.27 10.14 17-17.28 9.65 17.28 9.66-10.14 17 19.79-.28-.28 19.8 17-10.14 9.65 17.28 9.66-17.28 17 10.14-.28-19.8 19.8.28-10.14-17 17.28-9.66zm-36 45.27a35.62 35.62 0 1 1 35.62-35.62 35.62 35.62 0 0 1-35.66 35.62z" fill="#232323"/><path d="M1292.47 174a7.34 7.34 0 0 0-6.9 7.74l4.3 74.71a7.33 7.33 0 0 0 14.64-.84l-4.3-74.71a7.34 7.34 0 0 0-7.74-6.9z"/><path d="M1290.34 136.83a27.06 27.06 0 0 0-25.46 28.56l3.69 64.13a5.3 5.3 0 0 0 5.59 5l43.44-2.5a5.29 5.29 0 0 0 5-5.59l-3.69-64.13a27 27 0 0 0-28.57-25.47z" fill="#4d4c4d"/><path d="M1302.65 155.13a5.59 5.59 0 0 0-5.26 5.9l3.27 56.92a5.59 5.59 0 0 0 11.16-.64l-3.28-56.93a5.57 5.57 0 0 0-5.89-5.25zm-22.45 1.29a5.58 5.58 0 0 0-5.25 5.9l3.27 56.92a5.58 5.58 0 0 0 11.15-.64l-3.27-56.93a5.59 5.59 0 0 0-5.9-5.25z"/><path d="M179.79 1273.09l-.59 2.75c30.74 2 36.66 34.63 41.45 33.8s-.63-33.6 27.65-45.79l-1.48-2.39a88.6 88.6 0 0 1-67.03 11.63zm26.103-27.003l6.8-1.168.375 2.178-6.801 1.168zM200 1184.5a24.86 24.86 0 0 0-20.23 28.71l.28 1.63 3.25-.56-.28-1.63a21.54 21.54 0 1 1 42.44-7.36l.28 1.62 3.25-.56-.28-1.63A24.86 24.86 0 0 0 200 1184.5z" fill="#4d4c4d"/><path d="M198.73 1176.75a5.27 5.27 0 1 0-7.74 7.15c1.56 1.68 7.12 3.34 8.79 3.81l2.59.73-.53-2.64c-.33-1.7-1.56-7.38-3.11-9.05zm-5.32 4.91a2 2 0 0 1 .11-2.78 2 2 0 0 1 1-.5 2 2 0 0 1 1.79.61 17 17 0 0 1 1.67 4.71 17.16 17.16 0 0 1-4.57-2.04z" fill="#4d4c4d"/><path d="M205.4 1174a5.26 5.26 0 0 0-6.92 2.78c-.9 2.1-.14 7.86.12 9.58l.4 2.64 2.19-1.55c1.41-1 6.1-4.44 7-6.55a5.25 5.25 0 0 0-2.77-6.91zm-.26 5.62a17.39 17.39 0 0 1-3.62 3.46 17.4 17.4 0 0 1 0-5 2 2 0 0 1 2.59-1 2 2 0 0 1 1 2.59z" fill="#4d4c4d"/><path d="M200 1184.5c-3.75.65-5.73 6.06-4.6 12.59a1.65 1.65 0 0 0 3.25-.56c-.87-5 .55-8.55 1.91-8.78s3.88 2.61 4.75 7.62a1.65 1.65 0 0 0 3.25-.56c-1.18-6.53-4.87-10.96-8.56-10.31zm-18.65 28.43s-15.53 17-11.81 31a26.34 26.34 0 0 0 37.25.1c3.8-14.03-25.44-31.1-25.44-31.1zM227 1205s-21.79 25.92-13.48 37.86a26.33 26.33 0 0 0 35-12.65C247.36 1215.73 227 1205 227 1205z" fill="#4d4c4d"/><path d="M169.54 1243.94a26.22 26.22 0 0 0 18.53 7.76l-6.72-38.77s-15.53 16.95-11.81 31.01zm44.02-1.07a26.27 26.27 0 0 0 20.2.91L227 1205s-21.75 25.93-13.44 37.87zm-34.36 32.97c30.74 2 36.66 34.63 41.45 33.8l-6.19-35.64a88.68 88.68 0 0 1-34.67-.87z"/><path d="M174.91 1464.89c-6.14-1.82-15.44.07-17 5.33s6.87 6.38 13 8.19 13.81 5.45 15.36.19-5.27-11.9-11.36-13.71z" fill="#4d4c4d"/><path d="M207.06 1438.11l-44.6-13.17a24.71 24.71 0 0 0-14 47.4c9.62 2.84 18.36-9.79 26.43-7.4s8.55 17.73 18.17 20.57a24.71 24.71 0 1 0 14-47.4z"/><path d="M205.59 1442.22l-44.13-13c-11.05-3.26-22.62 2.85-25.8 13.61s3.22 22.18 14.27 25.44c3.51 1 7.34-1.08 11.4-3.33 4.61-2.56 9.37-5.2 14.65-3.64s7.84 6.36 10.32 11c2.18 4.09 4.25 8 7.76 9 11 3.26 22.62-2.85 25.8-13.61s-3.22-22.21-14.27-25.47z" fill="#2d2d2d"/><path d="M205.59 1442.22l-44.13-13c-11.05-3.26-22.62 2.85-25.8 13.61-.79 2.67 7.56 7.49 18.61 10.75a39.22 39.22 0 0 0 10 1.31 45.72 45.72 0 0 1 25 7.37 39.1 39.1 0 0 0 9.13 4.36c11 3.26 20.67 3.74 21.46 1.08 3.14-10.81-3.22-22.22-14.27-25.48zm-33.84 42.13l-4.77-1.41a7.5 7.5 0 0 0-4.25 14.39l4.77 1.41a7.5 7.5 0 1 0 4.25-14.39z" fill="#4d4c4d"/><path d="M248.75 1418.33a5.5 5.5 0 0 0-6.83 3.71l-24.68 83.57a23.32 23.32 0 0 1-44.73-13.21 5.49 5.49 0 1 0-10.54-3.11 34.31 34.31 0 0 0 65.82 19.43l24.67-83.57a5.49 5.49 0 0 0-3.71-6.82z"/><path d="M86.48 1299.3l-38.61 91.45a49.63 49.63 0 0 0 38.61-91.45zm-65.03 26.42a49.63 49.63 0 0 0 26.42 65l38.61-91.45a49.63 49.63 0 0 0-65.03 26.45z" fill="#4d4c4d"/><ellipse cx="67.17" cy="1345.02" rx="49.63" ry="38.19" transform="rotate(-67.11 67.145 1344.98)" fill="#fff"/><path d="M32 1330.17c-10.67 25.25-3.56 52.37 15.88 60.58l38.61-91.45c-19.44-8.21-43.84 5.61-54.49 30.87z" fill="#eeefef"/><path d="M86.48 1299.3c-7.62-3.22-22.43 14.65-33.1 39.9s-13.13 48.33-5.51 51.55 22.43-14.65 33.13-39.9 13.1-48.33 5.48-51.55z" fill="#2d2d2d"/><path d="M53.38 1339.2c-10.66 25.25-13.13 48.33-5.51 51.55l38.61-91.45c-7.62-3.22-22.43 14.7-33.1 39.9z"/><path d="M77 1296.36c1.15 1.47 4.42 3.55 8.51 5.28s7.87 2.62 9.72 2.42a50 50 0 0 0-18.23-7.7zM39.13 1386a50.18 50.18 0 0 0 18.24 7.7c-1.15-1.47-4.42-3.55-8.52-5.28s-7.85-2.63-9.72-2.42z"/><rect x="56.64" y="825.29" width="73.12" height="95.03" rx="5.86" ry="5.86" transform="rotate(-71.79 93.192 872.78)" fill="#4d4c4d"/><rect x="70.18" y="822.94" width="43.73" height="106.75" rx="5.86" ry="5.86" transform="rotate(-71.79 92.033 876.3)"/><circle cx="92.05" cy="876.32" r="26.02" transform="rotate(-65.45 92.035 876.294)" fill="#c5c7c9"/><path d="M98.43 856.92a20.42 20.42 0 1 0 13 25.78 20.42 20.42 0 0 0-13-25.78z" fill="#232323"/><path d="M98.43 856.92l-12.76 38.79a20.42 20.42 0 0 0 12.76-38.79z"/><path fill="#232323" d="M121.316 858.96l2.744-8.34 18.305 6.021-2.744 8.34z"/><path d="M123.323 844.187l2.072-6.298 20.88 6.87-2.072 6.297z"/><path fill="#c5c7c9" d="M73.216 827.71l.7-2.127 12.51 4.115-.7 2.128z"/><path fill="#4d4c4d" d="M71.689 825.085l1.372-4.17L89 826.158l-1.372 4.17z"/><circle cx="75.24" cy="1104.08" r="30.74" transform="rotate(-67.5 75.24 1104.08)"/><path d="M111.28 1094.43l10.14-17-19.8.27.28-19.79-17 10.14-9.66-17.28-9.65 17.28-17-10.14.28 19.79-19.79-.27 10.14 17-17.28 9.65 17.28 9.66-10.14 17 19.79-.28-.28 19.8 17-10.14 9.65 17.28 9.66-17.28 17 10.14-.28-19.8 19.8.28-10.14-17 17.28-9.66zm-36 45.27a35.62 35.62 0 1 1 35.62-35.62 35.62 35.62 0 0 1-35.66 35.62z" fill="#232323"/><path d="M223.47 973a7.34 7.34 0 0 0-6.9 7.74l4.3 74.71a7.33 7.33 0 0 0 14.64-.84l-4.3-74.71a7.34 7.34 0 0 0-7.74-6.9z"/><path d="M221.34 935.83a27.06 27.06 0 0 0-25.46 28.56l3.69 64.13a5.3 5.3 0 0 0 5.59 5l43.44-2.5a5.29 5.29 0 0 0 5-5.59l-3.69-64.13a27 27 0 0 0-28.57-25.47z" fill="#4d4c4d"/><path d="M233.65 954.13a5.59 5.59 0 0 0-5.26 5.9l3.27 56.92a5.59 5.59 0 0 0 11.16-.64l-3.28-56.93a5.57 5.57 0 0 0-5.89-5.25zm-22.45 1.29a5.58 5.58 0 0 0-5.25 5.9l3.27 56.92a5.58 5.58 0 0 0 11.15-.64l-3.27-56.93a5.59 5.59 0 0 0-5.9-5.25z"/></svg>