<svg xmlns="http://www.w3.org/2000/svg" viewBox="0 0 328.12 846.75"><defs><clipPath id="a"><path d="M212.69 102.73A20 20 0 0 1 212 107l-.11.23-.17.2a16.27 16.27 0 0 1-5.39 2.07c-18.87 4.48-62 4.4-81.19.64-5.66-1.2-6.17-2-7.17-2.45l-.29-.44a22.05 22.05 0 0 1-.7-4.3c3.76 7.05 91.8 7.1 95.71-.22z" fill="#d22c20"/></clipPath><clipPath id="b"><path d="M209.63 109.14C209.2 111.51 197 183 196.77 184c-5.28 15.58-59.28 16.26-62.87-.27-.19-1.06-13.71-74.3-13.71-74.3 13.81 5.96 75.38 5.9 89.44-.29z" fill="#d22c20"/></clipPath></defs><path d="M211.62 100.94a.89.89 0 0 1 0 .36c-.41 1.34-4.09 2.46-9.79 3.29-23.4 3.41-80.64 2.42-83.77-2.91v-.36l.06-.18-.09-.07.27-.33c5.94-3.71 29.05-4.71 36-4.79-2.15.13-31.94 1-32.68 4.78v.16a1.6 1.6 0 0 0 .83.81l.39.08.29.24c13.17 5.07 74.18 4.08 83-.07a2.29 2.29 0 0 1 .84-.28c.67-.34 1-.53 1.17-1v-.32c-.47-1-2.88-1.62-4.89-2.06-1.75-.38-4-.6-6.23-.89 1.66.11 3.82.34 3.9.35 2.33.19 9.75 1.48 10.7 3.19z" fill="#ff433e"/><path d="M211.62 100.94a2.79 2.79 0 0 0-1-.82l.61.32a2.23 2.23 0 0 1 1.43 2.29c-3.91 7.32-91.95 7.3-95.67.24a2 2 0 0 1 .82-1.88l.46-.35-.18.4-.06.18v.36c3.89 6.61 91.45 6.55 93.56-.38a.89.89 0 0 0 .03-.36z" fill="#f23b36"/><path d="M211.76 107.45a3.91 3.91 0 0 0 .24-.45 2.05 2.05 0 0 1-.25.6c-2.79 4-24.9 8.8-46.87 8.92s-43.87-4.43-46.92-8.65a2.91 2.91 0 0 1-.32-.74c.24.43.33.56.33.56 1 .49 1.61 1.36 8.14 2.64 20.09 3.63 63 3.53 81-1a15.46 15.46 0 0 0 4.65-1.88z" fill="#a81a16"/><path d="M211.76 107.45a3.91 3.91 0 0 0 .24-.45 2.05 2.05 0 0 1-.25.6c-5.58 8.06-87.68 8.71-93.79.27a2.91 2.91 0 0 1-.32-.74c.24.43.33.56.33.56 1 .49 1.61 1.36 8.14 2.64 20.09 3.63 63 3.53 81-1a15.46 15.46 0 0 0 4.65-1.88z" fill="#d22c20"/><path d="M134.44 185.52v-.14a11.07 11.07 0 0 0 2.07 2.79c9.71 9 32.46 9.1 45.56 5.66 9.21-2.64 11.81-5.65 13.15-7a12 12 0 0 0 1.26-2 7.82 7.82 0 0 1-1 2.05c-9.46 13-48.93 13.71-59.59 1a12.94 12.94 0 0 1-1.45-2.36zm77.33-77.95l.19-.3a8.77 8.77 0 0 0 .45-1.89c0 .23-.23 5.65-.33 5.86h-2.84c.36-2.12.34-1.88.39-2.14a4.19 4.19 0 0 0 2.14-1.53zm-91.58 1.89l.41 2.09h-2.83c-.11-.39 0 .19-.38-5.6a6.88 6.88 0 0 0 .43 1.61l.19.17v.18a7.16 7.16 0 0 0 2.18 1.55z" fill="#a81a16"/><path d="M212.69 102.73A20 20 0 0 1 212 107l-.11.23-.17.2a16.27 16.27 0 0 1-5.39 2.07c-18.87 4.48-62 4.4-81.19.64-5.66-1.2-6.17-2-7.17-2.45l-.29-.44a22.05 22.05 0 0 1-.7-4.3c3.76 7.05 91.8 7.1 95.71-.22z" fill="#d22c20"/><g clip-path="url(#a)"><path fill="#a81a16" d="M191.68 105.93l-1.17 8.67 26.51-6.6-1.49-11.16-23.85 9.09z"/></g><path d="M209.63 109.14C209.2 111.51 197 183 196.77 184c-5.28 15.58-59.28 16.26-62.87-.27-.19-1.06-13.71-74.3-13.71-74.3 13.81 5.96 75.38 5.9 89.44-.29z" fill="#d22c20"/><g clip-path="url(#b)"><path d="M187 110.48s0 .59-.12 1.65c-20.27 1.51-46.36.82-60.75-1.78-6.53-1.28-7.12-2.15-8.14-2.64 0 0-.09-.13-.33-.56 0 .27.32 1.52.32 1.52 3 4.22 24.92 8 46.92 7.87a199.5 199.5 0 0 0 21.75-1.32c-1.2 16.25-5.08 68.94-5.08 71.29 0 2.77-5.82 9.3-24.05 10.5s48.48 5.91 48.48 5.91l14.35-104.1z" fill="#a81a16"/></g></svg>