<svg xmlns="http://www.w3.org/2000/svg" xmlns:xlink="http://www.w3.org/1999/xlink" viewBox="0 0 332.11 848.17"><defs><clipPath id="e"><path d="M210.87 101.44v.06c-.1.36-1.77.89-2.14 1a38.89 38.89 0 0 1-5.63 1.11c-28.22 4.14-71.94 1.48-76.12-1.62l-.16-.18c.87-4.83 52.68-6.34 74.28-3.51 5.61.7 9.27 1.7 9.77 3.14z" fill="#a81a16"/></clipPath><linearGradient id="b" x1="-182.75" y1="288.95" x2="-148.36" y2="288.95" gradientTransform="matrix(1 0 0 -1 460.49 577.9)" gradientUnits="userSpaceOnUse"><stop offset=".01" stop-color="#d22c20"/><stop offset=".31" stop-color="#e7342e"/><stop offset=".51" stop-color="#ef3733"/><stop offset=".72" stop-color="#e6332d"/><stop offset="1" stop-color="#d22c20"/></linearGradient><linearGradient id="a" x1="311.62" y1="329.93" x2="278.86" y2="329.93" gradientUnits="userSpaceOnUse"><stop offset=".05" stop-color="#d3d2d2"/><stop offset=".37" stop-color="#9a9a9c"/><stop offset=".64" stop-color="#9a9a9c"/><stop offset="1" stop-color="#d1d6d5"/></linearGradient><linearGradient id="f" x1="307.23" y1="337.17" x2="283.44" y2="337.17" xlink:href="#a"/><linearGradient id="g" x1="307.23" y1="344.42" x2="283.44" y2="344.42" xlink:href="#a"/><linearGradient id="h" x1="307.23" y1="351.66" x2="283.44" y2="351.66" xlink:href="#a"/><linearGradient id="i" x1="307.23" y1="358.9" x2="283.44" y2="358.9" xlink:href="#a"/><linearGradient id="j" x1="311.62" y1="366.15" x2="278.86" y2="366.15" xlink:href="#a"/><linearGradient id="k" x1="307.38" y1="373.39" x2="283.59" y2="373.39" xlink:href="#a"/><linearGradient id="l" x1="307.38" y1="380.63" x2="283.59" y2="380.63" xlink:href="#a"/><linearGradient id="m" x1="307.38" y1="387.88" x2="283.59" y2="387.88" xlink:href="#a"/><linearGradient id="n" x1="307.38" y1="395.12" x2="283.59" y2="395.12" xlink:href="#a"/><linearGradient id="o" x1="311.78" y1="402.37" x2="279.01" y2="402.37" xlink:href="#a"/><linearGradient id="p" x1="307.23" y1="409.61" x2="283.44" y2="409.61" xlink:href="#a"/><linearGradient id="q" x1="307.23" y1="416.85" x2="283.44" y2="416.85" xlink:href="#a"/><linearGradient id="r" x1="307.23" y1="424.1" x2="283.44" y2="424.1" xlink:href="#a"/><linearGradient id="s" x1="307.23" y1="431.34" x2="283.44" y2="431.34" xlink:href="#a"/><linearGradient id="t" x1="311.62" y1="438.58" x2="278.86" y2="438.58" xlink:href="#a"/><linearGradient id="u" x1="307.23" y1="445.83" x2="283.44" y2="445.83" xlink:href="#a"/><linearGradient id="v" x1="307.23" y1="453.07" x2="283.44" y2="453.07" xlink:href="#a"/><linearGradient id="w" x1="307.23" y1="460.31" x2="283.44" y2="460.31" xlink:href="#a"/><linearGradient id="x" x1="307.23" y1="467.56" x2="283.44" y2="467.56" xlink:href="#a"/><linearGradient id="y" x1="311.62" y1="474.8" x2="278.86" y2="474.8" xlink:href="#a"/><linearGradient id="z" x1="311.62" y1="221.51" x2="278.86" y2="221.51" xlink:href="#a"/><linearGradient id="A" x1="307.23" y1="228.75" x2="283.44" y2="228.75" xlink:href="#a"/><linearGradient id="B" x1="307.23" y1="235.99" x2="283.44" y2="235.99" xlink:href="#a"/><linearGradient id="C" x1="307.23" y1="243.24" x2="283.44" y2="243.24" xlink:href="#a"/><linearGradient id="D" x1="307.23" y1="250.48" x2="283.44" y2="250.48" xlink:href="#a"/><linearGradient id="E" x1="311.62" y1="257.73" x2="278.86" y2="257.73" xlink:href="#a"/><linearGradient id="F" x1="307.38" y1="264.97" x2="283.59" y2="264.97" xlink:href="#a"/><linearGradient id="G" x1="307.38" y1="272.21" x2="283.59" y2="272.21" xlink:href="#a"/><linearGradient id="H" x1="307.38" y1="279.46" x2="283.59" y2="279.46" xlink:href="#a"/><linearGradient id="I" x1="307.38" y1="286.7" x2="283.59" y2="286.7" xlink:href="#a"/><linearGradient id="J" x1="311.78" y1="293.94" x2="279.01" y2="293.94" xlink:href="#a"/><linearGradient id="K" x1="307.23" y1="301.19" x2="283.44" y2="301.19" xlink:href="#a"/><linearGradient id="L" x1="307.23" y1="308.43" x2="283.44" y2="308.43" xlink:href="#a"/><linearGradient id="M" x1="307.23" y1="315.67" x2="283.44" y2="315.67" xlink:href="#a"/><linearGradient id="N" x1="307.23" y1="322.92" x2="283.44" y2="322.92" xlink:href="#a"/><linearGradient id="O" x1="311.62" y1="330.16" x2="278.86" y2="330.16" xlink:href="#a"/><linearGradient id="P" x1="307.23" y1="337.4" x2="283.44" y2="337.4" xlink:href="#a"/><linearGradient id="Q" x1="307.23" y1="344.65" x2="283.44" y2="344.65" xlink:href="#a"/><linearGradient id="R" x1="307.23" y1="351.89" x2="283.44" y2="351.89" xlink:href="#a"/><linearGradient id="S" x1="307.23" y1="359.13" x2="283.44" y2="359.13" xlink:href="#a"/><linearGradient id="T" x1="311.62" y1="366.38" x2="278.86" y2="366.38" xlink:href="#a"/><linearGradient id="U" x1="311.62" y1="113.09" x2="278.86" y2="113.09" xlink:href="#a"/><linearGradient id="V" x1="307.23" y1="120.33" x2="283.44" y2="120.33" xlink:href="#a"/><linearGradient id="W" x1="307.23" y1="127.57" x2="283.44" y2="127.57" xlink:href="#a"/><linearGradient id="X" x1="307.23" y1="134.82" x2="283.44" y2="134.82" xlink:href="#a"/><linearGradient id="Y" x1="307.23" y1="142.06" x2="283.44" y2="142.06" xlink:href="#a"/><linearGradient id="Z" x1="311.62" y1="149.3" x2="278.86" y2="149.3" xlink:href="#a"/><linearGradient id="aa" x1="307.38" y1="156.55" x2="283.59" y2="156.55" xlink:href="#a"/><linearGradient id="ab" x1="307.38" y1="163.79" x2="283.59" y2="163.79" xlink:href="#a"/><linearGradient id="ac" x1="307.38" y1="171.03" x2="283.59" y2="171.03" xlink:href="#a"/><linearGradient id="ad" x1="307.38" y1="178.28" x2="283.59" y2="178.28" xlink:href="#a"/><linearGradient id="ae" x1="311.78" y1="185.52" x2="279.01" y2="185.52" xlink:href="#a"/><linearGradient id="af" x1="307.23" y1="192.76" x2="283.44" y2="192.76" xlink:href="#a"/><linearGradient id="ag" x1="307.23" y1="200.01" x2="283.44" y2="200.01" xlink:href="#a"/><linearGradient id="ah" x1="307.23" y1="207.25" x2="283.44" y2="207.25" xlink:href="#a"/><linearGradient id="ai" x1="307.23" y1="214.49" x2="283.44" y2="214.49" xlink:href="#a"/><linearGradient id="aj" x1="311.62" y1="221.74" x2="278.86" y2="221.74" xlink:href="#a"/><linearGradient id="ak" x1="307.23" y1="228.98" x2="283.44" y2="228.98" xlink:href="#a"/><linearGradient id="al" x1="307.23" y1="236.23" x2="283.44" y2="236.23" xlink:href="#a"/><linearGradient id="am" x1="307.23" y1="243.47" x2="283.44" y2="243.47" xlink:href="#a"/><linearGradient id="an" x1="307.23" y1="250.71" x2="283.44" y2="250.71" xlink:href="#a"/><linearGradient id="ao" x1="311.62" y1="257.96" x2="278.86" y2="257.96" xlink:href="#a"/><clipPath id="ap"><path fill="none" d="M286.53 112.37h17.37v371.86h-17.37z"/></clipPath><linearGradient id="c" x1="275.18" y1="486.08" x2="315.97" y2="486.08" gradientUnits="userSpaceOnUse"><stop offset=".01" stop-color="#d22c20"/><stop offset=".26" stop-color="#e2322b"/><stop offset=".51" stop-color="#ef3733"/><stop offset="1" stop-color="#d22c20"/></linearGradient><linearGradient id="aq" x1="-368.75" y1="288.95" x2="-334.36" y2="288.95" gradientTransform="translate(392.71)" xlink:href="#b"/><linearGradient id="ar" x1="497.62" y1="329.93" x2="464.86" y2="329.93" gradientTransform="matrix(-1 0 0 1 522.09 0)" xlink:href="#a"/><linearGradient id="as" x1="493.23" y1="337.17" x2="469.44" y2="337.17" gradientTransform="matrix(-1 0 0 1 522.09 0)" xlink:href="#a"/><linearGradient id="at" x1="493.23" y1="344.42" x2="469.44" y2="344.42" gradientTransform="matrix(-1 0 0 1 522.09 0)" xlink:href="#a"/><linearGradient id="au" x1="493.23" y1="351.66" x2="469.44" y2="351.66" gradientTransform="matrix(-1 0 0 1 522.09 0)" xlink:href="#a"/><linearGradient id="av" x1="493.23" y1="358.9" x2="469.44" y2="358.9" gradientTransform="matrix(-1 0 0 1 522.09 0)" xlink:href="#a"/><linearGradient id="aw" x1="497.62" y1="366.15" x2="464.86" y2="366.15" gradientTransform="matrix(-1 0 0 1 522.09 0)" xlink:href="#a"/><linearGradient id="ax" x1="493.38" y1="373.39" x2="469.59" y2="373.39" gradientTransform="matrix(-1 0 0 1 522.09 0)" xlink:href="#a"/><linearGradient id="ay" x1="493.38" y1="380.63" x2="469.59" y2="380.63" gradientTransform="matrix(-1 0 0 1 522.09 0)" xlink:href="#a"/><linearGradient id="az" x1="493.38" y1="387.88" x2="469.59" y2="387.88" gradientTransform="matrix(-1 0 0 1 522.09 0)" xlink:href="#a"/><linearGradient id="aA" x1="493.38" y1="395.12" x2="469.59" y2="395.12" gradientTransform="matrix(-1 0 0 1 522.09 0)" xlink:href="#a"/><linearGradient id="aB" x1="497.78" y1="402.37" x2="465.01" y2="402.37" gradientTransform="matrix(-1 0 0 1 522.09 0)" xlink:href="#a"/><linearGradient id="aC" x1="493.23" y1="409.61" x2="469.44" y2="409.61" gradientTransform="matrix(-1 0 0 1 522.09 0)" xlink:href="#a"/><linearGradient id="aD" x1="493.23" y1="416.85" x2="469.44" y2="416.85" gradientTransform="matrix(-1 0 0 1 522.09 0)" xlink:href="#a"/><linearGradient id="aE" x1="493.23" y1="424.1" x2="469.44" y2="424.1" gradientTransform="matrix(-1 0 0 1 522.09 0)" xlink:href="#a"/><linearGradient id="aF" x1="493.23" y1="431.34" x2="469.44" y2="431.34" gradientTransform="matrix(-1 0 0 1 522.09 0)" xlink:href="#a"/><linearGradient id="aG" x1="497.62" y1="438.58" x2="464.86" y2="438.58" gradientTransform="matrix(-1 0 0 1 522.09 0)" xlink:href="#a"/><linearGradient id="aH" x1="493.23" y1="445.83" x2="469.44" y2="445.83" gradientTransform="matrix(-1 0 0 1 522.09 0)" xlink:href="#a"/><linearGradient id="aI" x1="493.23" y1="453.07" x2="469.44" y2="453.07" gradientTransform="matrix(-1 0 0 1 522.09 0)" xlink:href="#a"/><linearGradient id="aJ" x1="493.23" y1="460.31" x2="469.44" y2="460.31" gradientTransform="matrix(-1 0 0 1 522.09 0)" xlink:href="#a"/><linearGradient id="aK" x1="493.23" y1="467.56" x2="469.44" y2="467.56" gradientTransform="matrix(-1 0 0 1 522.09 0)" xlink:href="#a"/><linearGradient id="aL" x1="497.62" y1="474.8" x2="464.86" y2="474.8" gradientTransform="matrix(-1 0 0 1 522.09 0)" xlink:href="#a"/><linearGradient id="aM" x1="497.62" y1="221.51" x2="464.86" y2="221.51" gradientTransform="matrix(-1 0 0 1 522.09 0)" xlink:href="#a"/><linearGradient id="aN" x1="493.23" y1="228.75" x2="469.44" y2="228.75" gradientTransform="matrix(-1 0 0 1 522.09 0)" xlink:href="#a"/><linearGradient id="aO" x1="493.23" y1="235.99" x2="469.44" y2="235.99" gradientTransform="matrix(-1 0 0 1 522.09 0)" xlink:href="#a"/><linearGradient id="aP" x1="493.23" y1="243.24" x2="469.44" y2="243.24" gradientTransform="matrix(-1 0 0 1 522.09 0)" xlink:href="#a"/><linearGradient id="aQ" x1="493.23" y1="250.48" x2="469.44" y2="250.48" gradientTransform="matrix(-1 0 0 1 522.09 0)" xlink:href="#a"/><linearGradient id="aR" x1="497.62" y1="257.73" x2="464.86" y2="257.73" gradientTransform="matrix(-1 0 0 1 522.09 0)" xlink:href="#a"/><linearGradient id="aS" x1="493.38" y1="264.97" x2="469.59" y2="264.97" gradientTransform="matrix(-1 0 0 1 522.09 0)" xlink:href="#a"/><linearGradient id="aT" x1="493.38" y1="272.21" x2="469.59" y2="272.21" gradientTransform="matrix(-1 0 0 1 522.09 0)" xlink:href="#a"/><linearGradient id="aU" x1="493.38" y1="279.46" x2="469.59" y2="279.46" gradientTransform="matrix(-1 0 0 1 522.09 0)" xlink:href="#a"/><linearGradient id="aV" x1="493.38" y1="286.7" x2="469.59" y2="286.7" gradientTransform="matrix(-1 0 0 1 522.09 0)" xlink:href="#a"/><linearGradient id="aW" x1="497.78" y1="293.94" x2="465.01" y2="293.94" gradientTransform="matrix(-1 0 0 1 522.09 0)" xlink:href="#a"/><linearGradient id="aX" x1="493.23" y1="301.19" x2="469.44" y2="301.19" gradientTransform="matrix(-1 0 0 1 522.09 0)" xlink:href="#a"/><linearGradient id="aY" x1="493.23" y1="308.43" x2="469.44" y2="308.43" gradientTransform="matrix(-1 0 0 1 522.09 0)" xlink:href="#a"/><linearGradient id="aZ" x1="493.23" y1="315.67" x2="469.44" y2="315.67" gradientTransform="matrix(-1 0 0 1 522.09 0)" xlink:href="#a"/><linearGradient id="ba" x1="493.23" y1="322.92" x2="469.44" y2="322.92" gradientTransform="matrix(-1 0 0 1 522.09 0)" xlink:href="#a"/><linearGradient id="bb" x1="497.62" y1="330.16" x2="464.86" y2="330.16" gradientTransform="matrix(-1 0 0 1 522.09 0)" xlink:href="#a"/><linearGradient id="bc" x1="493.23" y1="337.4" x2="469.44" y2="337.4" gradientTransform="matrix(-1 0 0 1 522.09 0)" xlink:href="#a"/><linearGradient id="bd" x1="493.23" y1="344.65" x2="469.44" y2="344.65" gradientTransform="matrix(-1 0 0 1 522.09 0)" xlink:href="#a"/><linearGradient id="be" x1="493.23" y1="351.89" x2="469.44" y2="351.89" gradientTransform="matrix(-1 0 0 1 522.09 0)" xlink:href="#a"/><linearGradient id="bf" x1="493.23" y1="359.13" x2="469.44" y2="359.13" gradientTransform="matrix(-1 0 0 1 522.09 0)" xlink:href="#a"/><linearGradient id="bg" x1="497.62" y1="366.38" x2="464.86" y2="366.38" gradientTransform="matrix(-1 0 0 1 522.09 0)" xlink:href="#a"/><linearGradient id="bh" x1="497.62" y1="113.09" x2="464.86" y2="113.09" gradientTransform="matrix(-1 0 0 1 522.09 0)" xlink:href="#a"/><linearGradient id="bi" x1="493.23" y1="120.33" x2="469.44" y2="120.33" gradientTransform="matrix(-1 0 0 1 522.09 0)" xlink:href="#a"/><linearGradient id="bj" x1="493.23" y1="127.57" x2="469.44" y2="127.57" gradientTransform="matrix(-1 0 0 1 522.09 0)" xlink:href="#a"/><linearGradient id="bk" x1="493.23" y1="134.82" x2="469.44" y2="134.82" gradientTransform="matrix(-1 0 0 1 522.09 0)" xlink:href="#a"/><linearGradient id="bl" x1="493.23" y1="142.06" x2="469.44" y2="142.06" gradientTransform="matrix(-1 0 0 1 522.09 0)" xlink:href="#a"/><linearGradient id="bm" x1="497.62" y1="149.3" x2="464.86" y2="149.3" gradientTransform="matrix(-1 0 0 1 522.09 0)" xlink:href="#a"/><linearGradient id="bn" x1="493.38" y1="156.55" x2="469.59" y2="156.55" gradientTransform="matrix(-1 0 0 1 522.09 0)" xlink:href="#a"/><linearGradient id="bo" x1="493.38" y1="163.79" x2="469.59" y2="163.79" gradientTransform="matrix(-1 0 0 1 522.09 0)" xlink:href="#a"/><linearGradient id="bp" x1="493.38" y1="171.03" x2="469.59" y2="171.03" gradientTransform="matrix(-1 0 0 1 522.09 0)" xlink:href="#a"/><linearGradient id="bq" x1="493.38" y1="178.28" x2="469.59" y2="178.28" gradientTransform="matrix(-1 0 0 1 522.09 0)" xlink:href="#a"/><linearGradient id="br" x1="497.78" y1="185.52" x2="465.01" y2="185.52" gradientTransform="matrix(-1 0 0 1 522.09 0)" xlink:href="#a"/><linearGradient id="bs" x1="493.23" y1="192.76" x2="469.44" y2="192.76" gradientTransform="matrix(-1 0 0 1 522.09 0)" xlink:href="#a"/><linearGradient id="bt" x1="493.23" y1="200.01" x2="469.44" y2="200.01" gradientTransform="matrix(-1 0 0 1 522.09 0)" xlink:href="#a"/><linearGradient id="bu" x1="493.23" y1="207.25" x2="469.44" y2="207.25" gradientTransform="matrix(-1 0 0 1 522.09 0)" xlink:href="#a"/><linearGradient id="bv" x1="493.23" y1="214.49" x2="469.44" y2="214.49" gradientTransform="matrix(-1 0 0 1 522.09 0)" xlink:href="#a"/><linearGradient id="bw" x1="497.62" y1="221.74" x2="464.86" y2="221.74" gradientTransform="matrix(-1 0 0 1 522.09 0)" xlink:href="#a"/><linearGradient id="bx" x1="493.23" y1="228.98" x2="469.44" y2="228.98" gradientTransform="matrix(-1 0 0 1 522.09 0)" xlink:href="#a"/><linearGradient id="by" x1="493.23" y1="236.23" x2="469.44" y2="236.23" gradientTransform="matrix(-1 0 0 1 522.09 0)" xlink:href="#a"/><linearGradient id="bz" x1="493.23" y1="243.47" x2="469.44" y2="243.47" gradientTransform="matrix(-1 0 0 1 522.09 0)" xlink:href="#a"/><linearGradient id="bA" x1="493.23" y1="250.71" x2="469.44" y2="250.71" gradientTransform="matrix(-1 0 0 1 522.09 0)" xlink:href="#a"/><linearGradient id="bB" x1="497.62" y1="257.96" x2="464.86" y2="257.96" gradientTransform="matrix(-1 0 0 1 522.09 0)" xlink:href="#a"/><clipPath id="bC"><path transform="rotate(-180 40.885 298.3)" fill="none" d="M32.2 112.37h17.37v371.86H32.2z"/></clipPath><linearGradient id="bD" x1="461.18" y1="486.08" x2="501.97" y2="486.08" gradientTransform="matrix(1 0 0 -1 -441.06 972.17)" xlink:href="#c"/><linearGradient id="d" x1="135.27" y1="376.49" x2="158.55" y2="376.49" gradientUnits="userSpaceOnUse"><stop offset="0" stop-color="#5b413f"/><stop offset=".25" stop-color="#543734"/><stop offset=".51" stop-color="#523430"/><stop offset=".87" stop-color="#4d312d"/><stop offset="1" stop-color="#4a2f2b"/></linearGradient><linearGradient id="bE" x1="176.06" y1="376.49" x2="199.34" y2="376.49" xlink:href="#d"/><clipPath id="bF"><path d="M133.72 408.31l-.2-.84a3.27 3.27 0 0 1 0-.45v-5.33l.06-1c.16-2.69.46-5.42.85-8.16s.85-5.47 1.37-8.2 1.1-5.45 1.74-8.16 1.3-5.42 2-8.1 1.5-5.36 2.32-8 1.68-5.28 2.59-7.88 1.88-5.17 2.89-7.71l-15.55-5.07q-1.2 4.31-2.2 8.64c-.67 2.88-1.27 5.77-1.84 8.66s-1 5.79-1.51 8.69-.85 5.81-1.2 8.72-.65 5.84-.88 8.78-.41 5.88-.5 8.85-.1 6 .05 9l.06 1.15c0 .38.06.77.09 1.16s0 .77.1 1.17l.13 1.18v.6l.09.61c.06.4.12.8.2 1.22l.12.63.06.31v.32l.33 1.32z" fill="none"/></clipPath><clipPath id="bG"><path d="M200.27 406.83l.18-.82v-5.78l-.06-1c-.16-2.7-.47-5.43-.85-8.16s-.85-5.47-1.38-8.2-1.1-5.46-1.73-8.17-1.31-5.41-2-8.1-1.5-5.36-2.31-8-1.69-5.28-2.6-7.88-1.88-5.17-2.89-7.71l15.56-5.07q1.19 4.32 2.2 8.64t1.83 8.66c.56 2.89 1 5.79 1.51 8.69s.85 5.81 1.21 8.73.64 5.83.88 8.77.41 5.88.5 8.85.1 6-.05 9l-.06 1.15c0 .38-.06.78-.09 1.16s-.06.77-.1 1.17l-.13 1.19v.59l-.09.61c-.06.4-.11.8-.2 1.23l-.12.62-.06.32v.32L209 409z" fill="none"/></clipPath></defs><g style="isolation:isolate"><path fill="#a2a2a2" d="M98.24 519.65H85.33l-2.66-55.58h18.23l-2.66 55.58z"/><path fill="#bdbdbd" d="M82.67 448.64h18.24v7.71H82.67z"/><path fill="#696969" d="M82.67 456.36h18.24v7.71H82.67z"/><path fill="#a2a2a2" d="M250.9 519.65H238l-2.68-55.58h18.24l-2.66 55.58z"/><path fill="#bdbdbd" d="M235.32 448.64h18.24v7.71h-18.24z"/><path fill="#696969" d="M235.32 456.36h18.24v7.71h-18.24z"/><path fill="#9e6741" d="M71 439.51h194v12.99H71z"/><rect x="14.65" y="125.24" width="308.13" height="9.26" rx="2.8" ry="2.8" fill="#8e8e8e"/><path d="M322.73 129.32h-308v-2.06a2.37 2.37 0 0 1 2.59-2h303a2.28 2.28 0 0 1 2.51 2s-.16 2.02-.1 2.06z" fill="#a8a8a8"/><path d="M212.15 100.37v.32a2.14 2.14 0 0 1-1.17 1l-.38.08v-.09l.24-.16v-.06c-2.55-6.55-71.5-5-82.21-1.06-1.67.69-1.61 1-1.84 1.39l-.39-.08a1.66 1.66 0 0 1-.84-.81v-.16c.24-1.22 3.23-1.89 4.37-2.17 21.58-4.7 66.51-2.21 76.11-.48 1.89.34 5.52 1.04 6.11 2.28z" fill="#e26d6d"/><path d="M210.87 101.44v.06c-.1.36-1.77.89-2.14 1a38.89 38.89 0 0 1-5.63 1.11c-28.22 4.14-71.94 1.48-76.12-1.62l-.16-.18c.87-4.83 52.68-6.34 74.28-3.51 5.61.7 9.27 1.7 9.77 3.14z" fill="#a81a16"/><g clip-path="url(#e)" fill="#a81a16"><path d="M183.44 95.2v19.59l35.5-12.55S192 91.71 183.44 95.2zm-35.88 14.36l-1-16.3S123.7 95 123.5 100.63s24.06 8.93 24.06 8.93z" style="mix-blend-mode:multiply" opacity=".3"/></g><path d="M258.24 0h-24.17a42.15 42.15 0 0 0-42 42v.08h10.38a31.78 31.78 0 0 1 31.67-30.92h24.13a31.78 31.78 0 0 1 31.69 31.69v32.01h10.37V42a42.15 42.15 0 0 0-42.07-42z" fill="#d22c20"/><path fill="#d22c20" d="M192.47 42.43l-.76 5.6 2.54 2.4 6.56-.83 1.19-5.09-.61-3.77.16-.78h-8.56l-.52 2.47z"/><path d="M203.21 40h-3.08c0 .34-.06.67-.07 1h-5.72v-1h-3.08v1H190v6.88a3.72 3.72 0 0 0 3.73 3.73h6.5a3.71 3.71 0 0 0 3.77-3.77V41h-.82c-.03-.37.01-.7.03-1zm-2.32 4.56v3.33a.66.66 0 0 1-.66.66h-6.5a.69.69 0 0 1-.47-.19.66.66 0 0 1-.19-.46v-3.85h7.82z" fill="#d22c20"/><path fill="#a81a16" d="M203.15 40.99h-11.84v-.97h11.84zm97.34 28.38h-10.64v-.89h10.64z"/><path fill="#d22c20" d="M315.98 492.83h-40.83V92.76h40.83z"/><ellipse cx="295.56" cy="94.09" rx="20.46" ry="21.68" fill="#d22c20"/><path fill="#a81a16" d="M275.39 90.96l40.35-.13-.39-1.69h-39.61l-.35 1.82z"/><path transform="rotate(-180 294.94 288.95)" fill="url(#b)" d="M277.75 90.95h34.39v395.99h-34.39z"/><path fill="url(#a)" d="M278.61 329.14h33.91v1.59h-33.91z"/><path fill="url(#f)" d="M283.26 336.38h24.62v1.59h-24.62z"/><path fill="url(#g)" d="M283.26 343.62h24.62v1.59h-24.62z"/><path fill="url(#h)" d="M283.26 350.87h24.62v1.59h-24.62z"/><path fill="url(#i)" d="M283.26 358.11h24.62v1.59h-24.62z"/><path fill="url(#j)" d="M278.61 365.35h33.91v1.59h-33.91z"/><path fill="url(#k)" d="M283.41 372.6h24.62v1.59h-24.62z"/><path fill="url(#l)" d="M283.41 379.84h24.62v1.59h-24.62z"/><path fill="url(#m)" d="M283.41 387.08h24.62v1.59h-24.62z"/><path fill="url(#n)" d="M283.41 394.33h24.62v1.59h-24.62z"/><path fill="url(#o)" d="M278.77 401.57h33.91v1.59h-33.91z"/><path fill="url(#p)" d="M283.26 408.81h24.62v1.59h-24.62z"/><path fill="url(#q)" d="M283.26 416.06h24.62v1.59h-24.62z"/><path fill="url(#r)" d="M283.26 423.3h24.62v1.59h-24.62z"/><path fill="url(#s)" d="M283.26 430.54h24.62v1.59h-24.62z"/><path fill="url(#t)" d="M278.61 437.79h33.91v1.59h-33.91z"/><path fill="url(#u)" d="M283.26 445.03h24.62v1.59h-24.62z"/><path fill="url(#v)" d="M283.26 452.28h24.62v1.59h-24.62z"/><path fill="url(#w)" d="M283.26 459.52h24.62v1.59h-24.62z"/><path fill="url(#x)" d="M283.26 466.76h24.62v1.59h-24.62z"/><path fill="url(#y)" d="M278.61 474.01h33.91v1.59h-33.91z"/><path fill="url(#z)" d="M278.61 220.71h33.91v1.59h-33.91z"/><path fill="url(#A)" d="M283.26 227.96h24.62v1.59h-24.62z"/><path fill="url(#B)" d="M283.26 235.2h24.62v1.59h-24.62z"/><path fill="url(#C)" d="M283.26 242.44h24.62v1.59h-24.62z"/><path fill="url(#D)" d="M283.26 249.69h24.62v1.59h-24.62z"/><path fill="url(#E)" d="M278.61 256.93h33.91v1.59h-33.91z"/><path fill="url(#F)" d="M283.41 264.17h24.62v1.59h-24.62z"/><path fill="url(#G)" d="M283.41 271.42h24.62v1.59h-24.62z"/><path fill="url(#H)" d="M283.41 278.66h24.62v1.59h-24.62z"/><path fill="url(#I)" d="M283.41 285.9h24.62v1.59h-24.62z"/><path fill="url(#J)" d="M278.77 293.15h33.91v1.59h-33.91z"/><path fill="url(#K)" d="M283.26 300.39h24.62v1.59h-24.62z"/><path fill="url(#L)" d="M283.26 307.64h24.62v1.59h-24.62z"/><path fill="url(#M)" d="M283.26 314.88h24.62v1.59h-24.62z"/><path fill="url(#N)" d="M283.26 322.12h24.62v1.59h-24.62z"/><path fill="url(#O)" d="M278.61 329.37h33.91v1.59h-33.91z"/><path fill="url(#P)" d="M283.26 336.61h24.62v1.59h-24.62z"/><path fill="url(#Q)" d="M283.26 343.85h24.62v1.59h-24.62z"/><path fill="url(#R)" d="M283.26 351.1h24.62v1.59h-24.62z"/><path fill="url(#S)" d="M283.26 358.34h24.62v1.59h-24.62z"/><path fill="url(#T)" d="M278.61 365.58h33.91v1.59h-33.91z"/><path fill="url(#U)" d="M278.61 112.29h33.91v1.59h-33.91z"/><path fill="url(#V)" d="M283.26 119.53h24.62v1.59h-24.62z"/><path fill="url(#W)" d="M283.26 126.78h24.62v1.59h-24.62z"/><path fill="url(#X)" d="M283.26 134.02h24.62v1.59h-24.62z"/><path fill="url(#Y)" d="M283.26 141.26h24.62v1.59h-24.62z"/><path fill="url(#Z)" d="M278.61 148.51h33.91v1.59h-33.91z"/><path fill="url(#aa)" d="M283.41 155.75h24.62v1.59h-24.62z"/><path fill="url(#ab)" d="M283.41 163h24.62v1.59h-24.62z"/><path fill="url(#ac)" d="M283.41 170.24h24.62v1.59h-24.62z"/><path fill="url(#ad)" d="M283.41 177.48h24.62v1.59h-24.62z"/><path fill="url(#ae)" d="M278.77 184.73h33.91v1.59h-33.91z"/><path fill="url(#af)" d="M283.26 191.97h24.62v1.59h-24.62z"/><path fill="url(#ag)" d="M283.26 199.21h24.62v1.59h-24.62z"/><path fill="url(#ah)" d="M283.26 206.46h24.62v1.59h-24.62z"/><path fill="url(#ai)" d="M283.26 213.7h24.62v1.59h-24.62z"/><path fill="url(#aj)" d="M278.61 220.94h33.91v1.59h-33.91z"/><path fill="url(#ak)" d="M283.26 228.19h24.62v1.59h-24.62z"/><path fill="url(#al)" d="M283.26 235.43h24.62v1.59h-24.62z"/><path fill="url(#am)" d="M283.26 242.67h24.62v1.59h-24.62z"/><path fill="url(#an)" d="M283.26 249.92h24.62v1.59h-24.62z"/><path fill="url(#ao)" d="M278.61 257.16h33.91v1.59h-33.91z"/><path d="M303.89 484.22V107.58c0-5.46-3.79-9.92-8.42-9.92h-.56c-4.63 0-8.41 4.46-8.41 9.92v376.64z" fill="#9be0ff"/><g clip-path="url(#ap)"><path fill="#fff" d="M286.45 366.99h17.57V737.4h-17.57z"/><path d="M291.89 740.75V369.38h6.22v371.37h-6.24.02z" fill="#8e8e8e"/><path d="M294.63 369.38v371.26h-1.39c-.76 0-1.38-1.4-1.38-3.12V369.38zm-8.12-2.88h17.39v2.07h-17.39z" fill="#a8a8a8"/><path fill="#8e8e8e" d="M286.5 368.54h17.38v2.07H286.5z"/></g><path fill="#d22c20" d="M319.29 498.85h-47.36v-11.37h47.36z"/><path d="M259.3 519.5c.71-15.38 16.73-27.67 36.4-27.67s35.69 12.29 36.41 27.67z" fill="#d22c20"/><path fill="#a81a16" d="M318.76 498.66h-46.57v-3.19h46.57z"/><path fill="url(#c)" d="M275.18 484.33h40.79v3.5h-40.79z"/><path d="M77.85 0H102a42.15 42.15 0 0 1 42 42v.08h-10.32A31.79 31.79 0 0 0 102 11.19H77.87a31.79 31.79 0 0 0-31.69 31.69v31.98H35.83V42A42.15 42.15 0 0 1 77.85 0z" fill="#d22c20"/><path fill="#d22c20" d="M143.62 42.43l.76 5.6-2.53 2.4-6.57-.83-1.18-5.09.6-3.77-.16-.78h8.57l.51 2.47z"/><path d="M133 41h-.82v6.87a3.72 3.72 0 0 0 2.82 3.61 3.63 3.63 0 0 0 .87.1h6.5a3.74 3.74 0 0 0 3.74-3.73V41h-1.28c0-.34 0-.68-.05-1h-3.08c0 .34 0 .68.05 1H136c0-.34 0-.67-.07-1h-3.09c.07.3.16.63.16 1zm2.25 3.08H143v3.81a.66.66 0 0 1-.19.46.67.67 0 0 1-.47.19h-6.5a.65.65 0 0 1-.65-.66v-3.8z" fill="#d22c20"/><path fill="#a81a16" d="M132.95 40.02h11.84v.97h-11.84zM35.61 68.47h10.64v.89H35.61z"/><path fill="#d22c20" d="M20.11 92.76h40.83v400.07H20.11z"/><ellipse cx="40.53" cy="94.09" rx="20.46" ry="21.68" fill="#d22c20"/><path fill="#a81a16" d="M60.71 90.96l-40.36-.13.4-1.69h39.6l.36 1.82z"/><path fill="url(#aq)" d="M23.96 90.95h34.39v395.99H23.96z"/><path fill="url(#ar)" d="M23.58 329.14h33.91v1.59H23.58z"/><path fill="url(#as)" d="M28.22 336.38h24.62v1.59H28.22z"/><path fill="url(#at)" d="M28.22 343.62h24.62v1.59H28.22z"/><path fill="url(#au)" d="M28.22 350.87h24.62v1.59H28.22z"/><path fill="url(#av)" d="M28.22 358.11h24.62v1.59H28.22z"/><path fill="url(#aw)" d="M23.58 365.35h33.91v1.59H23.58z"/><path fill="url(#ax)" d="M28.07 372.6h24.62v1.59H28.07z"/><path fill="url(#ay)" d="M28.07 379.84h24.62v1.59H28.07z"/><path fill="url(#az)" d="M28.07 387.08h24.62v1.59H28.07z"/><path fill="url(#aA)" d="M28.07 394.33h24.62v1.59H28.07z"/><path fill="url(#aB)" d="M23.42 401.57h33.91v1.59H23.42z"/><path fill="url(#aC)" d="M28.22 408.81h24.62v1.59H28.22z"/><path fill="url(#aD)" d="M28.22 416.06h24.62v1.59H28.22z"/><path fill="url(#aE)" d="M28.22 423.3h24.62v1.59H28.22z"/><path fill="url(#aF)" d="M28.22 430.54h24.62v1.59H28.22z"/><path fill="url(#aG)" d="M23.58 437.79h33.91v1.59H23.58z"/><path fill="url(#aH)" d="M28.22 445.03h24.62v1.59H28.22z"/><path fill="url(#aI)" d="M28.22 452.28h24.62v1.59H28.22z"/><path fill="url(#aJ)" d="M28.22 459.52h24.62v1.59H28.22z"/><path fill="url(#aK)" d="M28.22 466.76h24.62v1.59H28.22z"/><path fill="url(#aL)" d="M23.58 474.01h33.91v1.59H23.58z"/><path fill="url(#aM)" d="M23.58 220.71h33.91v1.59H23.58z"/><path fill="url(#aN)" d="M28.22 227.96h24.62v1.59H28.22z"/><path fill="url(#aO)" d="M28.22 235.2h24.62v1.59H28.22z"/><path fill="url(#aP)" d="M28.22 242.44h24.62v1.59H28.22z"/><path fill="url(#aQ)" d="M28.22 249.69h24.62v1.59H28.22z"/><path fill="url(#aR)" d="M23.58 256.93h33.91v1.59H23.58z"/><path fill="url(#aS)" d="M28.07 264.17h24.62v1.59H28.07z"/><path fill="url(#aT)" d="M28.07 271.42h24.62v1.59H28.07z"/><path fill="url(#aU)" d="M28.07 278.66h24.62v1.59H28.07z"/><path fill="url(#aV)" d="M28.07 285.9h24.62v1.59H28.07z"/><path fill="url(#aW)" d="M23.42 293.15h33.91v1.59H23.42z"/><path fill="url(#aX)" d="M28.22 300.39h24.62v1.59H28.22z"/><path fill="url(#aY)" d="M28.22 307.64h24.62v1.59H28.22z"/><path fill="url(#aZ)" d="M28.22 314.88h24.62v1.59H28.22z"/><path fill="url(#ba)" d="M28.22 322.12h24.62v1.59H28.22z"/><path fill="url(#bb)" d="M23.58 329.37h33.91v1.59H23.58z"/><path fill="url(#bc)" d="M28.22 336.61h24.62v1.59H28.22z"/><path fill="url(#bd)" d="M28.22 343.85h24.62v1.59H28.22z"/><path fill="url(#be)" d="M28.22 351.1h24.62v1.59H28.22z"/><path fill="url(#bf)" d="M28.22 358.34h24.62v1.59H28.22z"/><path fill="url(#bg)" d="M23.58 365.58h33.91v1.59H23.58z"/><path fill="url(#bh)" d="M23.58 112.29h33.91v1.59H23.58z"/><path fill="url(#bi)" d="M28.22 119.53h24.62v1.59H28.22z"/><path fill="url(#bj)" d="M28.22 126.78h24.62v1.59H28.22z"/><path fill="url(#bk)" d="M28.22 134.02h24.62v1.59H28.22z"/><path fill="url(#bl)" d="M28.22 141.26h24.62v1.59H28.22z"/><path fill="url(#bm)" d="M23.58 148.51h33.91v1.59H23.58z"/><path fill="url(#bn)" d="M28.07 155.75h24.62v1.59H28.07z"/><path fill="url(#bo)" d="M28.07 163h24.62v1.59H28.07z"/><path fill="url(#bp)" d="M28.07 170.24h24.62v1.59H28.07z"/><path fill="url(#bq)" d="M28.07 177.48h24.62v1.59H28.07z"/><path fill="url(#br)" d="M23.42 184.73h33.91v1.59H23.42z"/><path fill="url(#bs)" d="M28.22 191.97h24.62v1.59H28.22z"/><path fill="url(#bt)" d="M28.22 199.21h24.62v1.59H28.22z"/><path fill="url(#bu)" d="M28.22 206.46h24.62v1.59H28.22z"/><path fill="url(#bv)" d="M28.22 213.7h24.62v1.59H28.22z"/><path fill="url(#bw)" d="M23.58 220.94h33.91v1.59H23.58z"/><path fill="url(#bx)" d="M28.22 228.19h24.62v1.59H28.22z"/><path fill="url(#by)" d="M28.22 235.43h24.62v1.59H28.22z"/><path fill="url(#bz)" d="M28.22 242.67h24.62v1.59H28.22z"/><path fill="url(#bA)" d="M28.22 249.92h24.62v1.59H28.22z"/><path fill="url(#bB)" d="M23.58 257.16h33.91v1.59H23.58z"/><path d="M32.2 484.22V107.58c0-5.46 3.79-9.92 8.42-9.92h.56c4.63 0 8.42 4.46 8.42 9.92v376.64z" fill="#9be0ff"/><g clip-path="url(#bC)"><path fill="#fff" d="M49.64 736.4H32.07V365.99h17.57z"/><path d="M37.97 739.75V368.37h6.22v371.38h-6.24z" fill="#8e8e8e"/><path d="M41.46 368.38v371.26h1.39c.77 0 1.39-1.4 1.39-3.12V368.38zm8.13-.81H32.2v-2.07h17.39z" fill="#a8a8a8"/><path fill="#8e8e8e" d="M49.59 369.62H32.21v-2.07h17.38z"/></g><path fill="#d22c20" d="M16.8 487.48h47.36v11.37H16.8z"/><path d="M76.79 519.5c-.71-15.38-16.73-27.67-36.4-27.67S4.7 504.12 4 519.5z" fill="#d22c20"/><path fill="#a81a16" d="M17.33 495.46H63.9v3.19H17.33z"/><path transform="rotate(-180 40.52 486.085)" fill="url(#bD)" d="M20.12 484.33h40.79v3.5H20.12z"/><path fill="none" d="M0 474.17h112.67v374H0z"/><path d="M190 340.84s-9.19 4.35-25.73 3.83-23.19-4.53-23.19-4.53c1.81-2.05 12.65-6.53 16.29-8l1.17-.46c.52-.17 1.84-12.71 1.84-12.71h12.17l1.32 12.86 1.17.47a77.9 77.9 0 0 1 14.96 8.54z" fill="#925930"/><path d="M173 323.06c-4 1.71-9.71 3.45-13.71 5.23.54-3.77 1.13-9.3 1.13-9.3h12.16z" fill="#7c4825"/><path d="M145.91 287.26c-.84 5.58.89 21.38 6.23 27.32s10.91 8 14.62 8.14 12.21-4.8 16.41-11.81c5.06-8.46 4.61-24.54 3.57-30.78s-11.58-12-21.68-10.39-17.06 3.56-19.15 17.52z" fill="#925930"/><path d="M169 304c-1-.53-3.41-.48-5.27-.18a1.8 1.8 0 0 0-.69.22c-.19.13-.12.38 0 .58a7.18 7.18 0 0 0 2.13 1.5 2.49 2.49 0 0 0 1 .29 2.42 2.42 0 0 0 1.37-.59c.64-.47 1.91-1.19 1.46-1.82z" fill="#7c4825"/><path d="M185.28 298.51a3.44 3.44 0 0 1 1.81-1.35 2.55 2.55 0 0 1 2.2.32 3 3 0 0 1 1.08 2.6 8.25 8.25 0 0 1-.81 2.8 8.48 8.48 0 0 1-2.38 3.56 3.14 3.14 0 0 1-4 0zm-38.07 0a3.46 3.46 0 0 0-1.8-1.35 2.55 2.55 0 0 0-2.2.32 3 3 0 0 0-1.08 2.6 8 8 0 0 0 .81 2.8 8.39 8.39 0 0 0 2.38 3.56 3.12 3.12 0 0 0 4 0z" fill="#925930"/><path d="M157.69 293.37a3.94 3.94 0 0 1 3.08 2.57c.29.87 0 3.9-1.3 5.08a3.85 3.85 0 0 1-2 1c-1.31.16-3.31.25-4.39-.64a5 5 0 0 1-1.63-3.15 4.59 4.59 0 0 1 .21-2.8c.78-1.45 2.55-2 4.14-2.39z" fill="#fff"/><path d="M154.17 299.61a3.4 3.4 0 0 1-.2-3.93 3 3 0 0 1 1.19-1.08 2.33 2.33 0 0 1 1.68-.13 2.53 2.53 0 0 1 1.51 1.94 3.46 3.46 0 0 1-1.06 3.62 2.28 2.28 0 0 1-1.71.49 2.31 2.31 0 0 1-1.41-.91z" fill="#2e1c10"/><path d="M174.63 293.37a3.94 3.94 0 0 0-3.08 2.57c-.3.87 0 3.9 1.3 5.08a3.82 3.82 0 0 0 2 1c1.32.16 3.32.25 4.4-.64a5 5 0 0 0 1.63-3.15 4.52 4.52 0 0 0-.22-2.8c-.77-1.45-2.54-2-4.13-2.39z" fill="#fff"/><path d="M178.15 299.61a3.42 3.42 0 0 0 .2-3.93 3 3 0 0 0-1.19-1.08 2.33 2.33 0 0 0-1.68-.13 2.51 2.51 0 0 0-1.51 1.94A3.46 3.46 0 0 0 175 300a2.27 2.27 0 0 0 1.71.49 2.31 2.31 0 0 0 1.44-.88z" fill="#2e1c10"/><path d="M151 297.29a5.09 5.09 0 0 1 3.32-3.55 5.66 5.66 0 0 1 4.11 0 4.43 4.43 0 0 1 2.22 2.54c.16.41.6.35.66.1a5 5 0 0 0-3.94-4.27 6.16 6.16 0 0 0-6.37 2.69 3.85 3.85 0 0 0-.63 1.91c-.02.71.53.96.63.58zm30.08 0a5.05 5.05 0 0 0-3.31-3.55 5.66 5.66 0 0 0-4.11 0 4.39 4.39 0 0 0-2.22 2.54c-.16.41-.61.35-.66.1a5 5 0 0 1 3.94-4.27 6.14 6.14 0 0 1 6.37 2.72 3.88 3.88 0 0 1 .64 1.91c0 .68-.55.93-.65.55z" fill="#7c4825"/><path d="M148.11 269.39s13.57-9.39 28.89-8.87 14.46 8.55 14.38 9.74c-.39 5.4-3.83 23.24-5 30.67l-2.58-21.65s-22 2-32.73-2.64c0 0 1.6 5.85 1.16 5.85a21.22 21.22 0 0 1-3.26-1.95l-2.21 20.39s-5.07-22.9-4.28-27.21 3.52-5.53 5.63-4.33z" fill="#3d2718"/><path d="M158.82 283.62a22.54 22.54 0 0 0-9.28 1.4 26.39 26.39 0 0 1 1.6 4.24 29 29 0 0 1 9-1.36l.07-4.07-.91.67zm14.42 0a22.59 22.59 0 0 1 9.28 1.4 24.63 24.63 0 0 0-1.6 4.24 29.11 29.11 0 0 0-9-1.36c0-1.36 0-2.72-.07-4.07l.91.67c.17-.3.32-.59.48-.88z" fill="#2e1c10"/><path d="M145.09 293l2.43 26s7.34 6.43 9.73 6.52 18.65.83 21.23 0 7.25-5.6 7.25-6.06 2.27-27.95 2.27-27.95l-3-1.78s.9 15.94-1.22 16.37-34.81 2-35.27-.4-.86-13.32-.86-13.32z" fill="#3d2718"/><path d="M168.55 314.79a13.77 13.77 0 0 1-4.62 0 3 3 0 0 0 2.27.76 4.3 4.3 0 0 0 2.35-.76zm-9.36-4.57h-.25l-.27 1.08a.66.66 0 0 0 0 .24.21.21 0 0 0 .14.19c.19.06.35-.19.51-.24a1.16 1.16 0 0 1 .58.07 42.73 42.73 0 0 0 4.94.84 14.4 14.4 0 0 0 6.4-.89 4.82 4.82 0 0 1 1.77-.42c.32 0 .48.6.63.45 0-.79-.11-1.86-.36-1.64s-.09.07-.16.37a18.78 18.78 0 0 1-13.27.53c-.3-.05-.71-.21-.66-.58z" fill="#0c0704"/><path fill="#473c35" d="M141.98 495.68l-.07 7.83h8.71l.28-8.35-8.92.52z"/><path d="M151.34 503.51c0-2.13-.19-4-.51-2.72s-1.5 1.32-2.11 1.25a17.38 17.38 0 0 0-3.43-.31c-.49 0-2.2.77-2.81.57s-1.36-1.1-1.65-.9c-1.09.73-8.76 10.08-8.76 10.08l-.2.24.53 2.95.49 2.71a7.55 7.55 0 0 0 1 .18l4.67-.7 2.71-1.47 10.07-5.48v-6.4z" fill="#6b391d"/><path d="M131.69 515.57v.33a.73.73 0 0 1 0-.31z" fill="#e2e2de"/><path d="M141.47 501.52s.41-.62.82-.57l3.66.42a.59.59 0 0 1 .3 1l-7.88 8.34a13.54 13.54 0 0 1-4.26 0z" fill="#7c4124"/><path d="M141.62 514.64a1.18 1.18 0 0 1-.35.75c-.76.84-2.51 1.62-3.14 2.26h-3.24c-.36 0-.7 0-1-.09a7.55 7.55 0 0 1-1-.18 3.72 3.72 0 0 1-1.3-.56c-.06-.09-.11-.18-.16-.27a4 4 0 0 1-.48-1.88 5.06 5.06 0 0 1 .16-1.31 4.68 4.68 0 0 1 .76-1.61l.2-.24a4.79 4.79 0 0 1 3-1.57 6.53 6.53 0 0 1 3.55.43 4.75 4.75 0 0 1 3 3.8c-.01.14 0 .3 0 .47z" fill="#512915"/><path d="M146.56 511.66a14.5 14.5 0 0 1-8.85 3h-2c-3.13 0-4.22-.74-4.59-1.34a5.06 5.06 0 0 0-.16 1.31v1.22a1.28 1.28 0 0 0 .35.67 1.45 1.45 0 0 0 .29.25 3.72 3.72 0 0 0 1.3.56 7.55 7.55 0 0 0 1 .18c.35 0 .76.07 1.16.09 1.09.05 2.2.06 2.2.06a15.81 15.81 0 0 0 9.67-3.3l3.5-2.71a2.35 2.35 0 0 0 .92-1.79v-2z" fill="#7c4124"/><path fill="#473c35" d="M190.75 496.66l-.25 7.83-8.7-.36.07-8.36 8.88.89z"/><path d="M181 504.31c0-2.13.19-4 .51-2.72s1.5 1.33 2.11 1.26a17.33 17.33 0 0 1 3.43-.32c.49 0 2.2.77 2.81.58s1.36-1.11 1.65-.91c1.09.74 8.76 10.09 8.76 10.09l.2.23-.53 2.94-.49 2.72a9.63 9.63 0 0 1-1 .18l-4.67-.7-2.71-1.48L181 510.7v-6.39z" fill="#6b391d"/><path d="M200.68 516.36v.33a.74.74 0 0 0 0-.31z" fill="#e2e2de"/><path d="M190.9 502.32s-.41-.62-.82-.58l-3.66.42a.59.59 0 0 0-.3 1l7.88 8.35a13.54 13.54 0 0 0 4.26 0z" fill="#7c4124"/><path d="M190.75 515.43a1.13 1.13 0 0 0 .35.75c.76.85 2.51 1.62 3.14 2.26h3.24c.36 0 .7 0 1-.08a9.63 9.63 0 0 0 1-.18 3.92 3.92 0 0 0 1.3-.56 2.54 2.54 0 0 0 .16-.28 3.92 3.92 0 0 0 .48-1.88 5.17 5.17 0 0 0-.16-1.31 4.55 4.55 0 0 0-.76-1.6l-.2-.24a4.77 4.77 0 0 0-3-1.58 6.36 6.36 0 0 0-1-.07 6.55 6.55 0 0 0-2.55.5 4.77 4.77 0 0 0-3 3.81c.01.13 0 .29 0 .46z" fill="#512915"/><path d="M185.81 512.45a14.4 14.4 0 0 0 5 2.49 14.89 14.89 0 0 0 3.89.52h2c3.13 0 4.22-.74 4.59-1.34a5.17 5.17 0 0 1 .16 1.31v1.22a1.3 1.3 0 0 1-.35.68 1.87 1.87 0 0 1-.29.25 3.92 3.92 0 0 1-1.3.56 9.63 9.63 0 0 1-1 .18l-1.16.08c-1.09 0-2.2.06-2.2.06a15.8 15.8 0 0 1-9.67-3.29l-3.5-2.72a2.35 2.35 0 0 1-.92-1.79v-2z" fill="#7c4124"/><path d="M166.38 415.29l.31 20.23c0 .07-.14 5.76-.2 5.76-6.26.16-17.71 0-26.35-1.76a84.66 84.66 0 0 0 1.49 13.61c1.36 6.12 10.27 44.78 10.27 44.78h-.05c0 .41-.59.54-1.47.81a8.32 8.32 0 0 1-1.09.33 15 15 0 0 1-2.56.07c-.83 0-1.78.05-2.48 0a24.15 24.15 0 0 1-3.28-.33s-28.49-64.05-22.55-72.67c4-5.76 12.32-6.55 19.27-5.36.58.1-.48-5.49-.48-5.49h29.17z" fill="#ab7348"/><path d="M166.56 432.37l-.14 9a147 147 0 0 1-26.35-1.89s-.1 7.74 1.39 13.11 10.44 45.34 10.44 45.34h-.05c0 .41-.62.54-1.49.81-3.41-13.63-17.64-56.3-17.24-61.05.58-5.56 33.44-5.32 33.44-5.32z" fill="#9e6946"/><path d="M166.4 415.29v20.29s-.06 5.67 0 5.67c1.89-.15 6.26.39 25.72-1.79a16.61 16.61 0 0 1-.2 10.79c-2.12 5.83-11 47.66-11 47.66h.05c0 .41.54.79 1.41 1.07.31.09.67.18 1 .25a15.21 15.21 0 0 0 2.65.23 14.81 14.81 0 0 0 2.31-.17c1.67-.26 3.26-.45 3.25-.47l.43-1.26s28.27-62.79 22.32-71.41c-4-5.76-12.31-6.55-19.26-5.36-.58.1.48-5.49.48-5.49H166.4z" fill="#ab7348"/><path d="M166.51 432.29l-.27 9.06c8.64-.1 4.22-.5 26.46-1.89 0 0 .1 7.74-1.39 13.11s-10.43 45.34-10.43 45.34h.05c0 .41.54.79 1.41 1.07 3.41-13.64 17.72-56.56 17.32-61.31-.58-5.54-33.15-5.38-33.15-5.38z" fill="#9e6946"/><path d="M178.64 330.09v3.24a15.08 15.08 0 0 1-.23 1.82 14.73 14.73 0 0 1-.63 2.26c-.05.14-.1.28-.16.42v.1c0 .1-.08.2-.13.3a.38.38 0 0 1-.06.13c0 .09-.08.18-.12.27l-.06.12-.18.37-.17.31a1.73 1.73 0 0 1-.15.27l-.13.23-.1.17-.13.2v.05l-.15.22a4.8 4.8 0 0 1-.36.52c0 .07-.09.13-.13.19l-.12.17-.29.37-.12.15c-.35.43-.71.84-1.09 1.23-.07.07-.14.15-.22.22l-.17.18c-.29.28-.58.55-.88.8l-.24.21a24.26 24.26 0 0 1-2 1.51l-.24.16c-.63.42-1.24.79-1.78 1.09l-.3.17-.29.15-.18.09c-.5.26-.91.45-1.22.58l-.38.16-.14.05h-.13l-.44-.19-.22-.1h-.07c-.46-.21-1.07-.51-1.78-.91l-.33-.19c-.37-.21-.77-.46-1.18-.72a22.26 22.26 0 0 1-2.35-1.75l-.22-.18c-.38-.33-.76-.68-1.13-1.05l-.32-.33-.15-.16c-.37-.39-.72-.81-1.07-1.24l-.2-.27-.14-.19-.29-.4-.15-.23-.13-.2-.16-.26-.15-.24-.1-.17-.22-.4-.12-.23a1.24 1.24 0 0 1-.1-.2.76.76 0 0 1-.09-.18c0-.09-.09-.18-.13-.27l-.12-.27a.61.61 0 0 1 0-.12l-.12-.3c-.05-.12-.1-.24-.14-.36a13.79 13.79 0 0 1-.63-2.27 13.31 13.31 0 0 1-.23-1.82v-3.27h25.4z" fill="#925930"/><path d="M177.75 337.41c-2.89 7.9-11.81 11.22-11.81 11.22s-8.91-3.32-11.8-11.21a50.3 50.3 0 0 0 23.61 0z" fill="#925930"/><path fill="#ededed" d="M196.27 418.9l-56.41-1.19 12.32-87.79 15.55 3.31 16.36-3.31 12.18 88.98z"/><path d="M166.57 332.63s-3.58 43.54-3.47 44.12 2.67 3.92 3.74 4.06c.66.09 4.52-3.08 4.94-4 .78-1.72-3.77-44.19-3.77-44.19z" fill="#473c35"/><path d="M162.53 332.87s6.64-.62 9.25 0c0 0-3 6-4.62 6.6 0 0-4.54-3.76-4.63-6.6z" fill="#473c35"/><path d="M158.77 327.47s.84 3.38 8.88 5.17a84.79 84.79 0 0 1-7.27 8s-4.75-7.72-4.72-11.4zm8.88 5.17a83 83 0 0 0 6.61 8.41s2.82-7.38 3.88-11.64c0 0-2.84-1.82-3.81-2.27a12.13 12.13 0 0 1-6.68 5.5z" fill="#dbdbdb"/><path d="M149.42 331s9.15 17.47 18 25.43c0 0 15.83-11.66 19.16-21.74l2.5.57s1.82 76.94 1.94 85c0 0-20.35 4.48-41.56 0 0 0-3.21-84.17-3.41-87.82z" fill="#b53116"/><path d="M155.23 329.9h-8a9 9 0 0 0-8.89 8.58l-3.09 84.23a.33.33 0 0 0 .34.35h2.28c6.37 0 20.65 0 20.66-20.25z" fill="url(#d)"/><path d="M179.18 329.9h8.18a9 9 0 0 1 8.89 8.58l3.09 84.23a.34.34 0 0 1-.34.35h-2.29c-6.36 0-20.64 0-20.65-20.25z" fill="url(#bE)"/><path d="M140 358.89c-.1 1.69.11 11.56 1.72 14.32s9.42 1.85 10-2.38-.28-12.22-.28-12.22-7.77.02-11.44.28z" fill="#442b28"/><path fill="#69423d" d="M147.15 329.91l9.75-1.33 1.55 69.37-6.75-47.78 3.09-5.9-4.24 1.03-3.4-15.39zm40.26 0l-10.1-1.05-1.19 69.09 6.75-47.78-3.09-5.9 4.23 1.03 3.4-15.39z"/><path fill="#925930" d="M126.24 420.59l-1.01-3.6 3.01-5.5 5.87-1.65 2.71 9.69-10.58 1.06z"/><path d="M130.7 420.1a4.41 4.41 0 1 1 3.06-5.44 4.42 4.42 0 0 1-3.06 5.44z" fill="#925930"/><path d="M131.69 423.65a4.42 4.42 0 1 1 3.06-5.44 4.42 4.42 0 0 1-3.06 5.44z" fill="#925930"/><path d="M133.49 419.32a4.41 4.41 0 1 1 3.06-5.44 4.4 4.4 0 0 1-3.06 5.44z" fill="#925930"/><path fill="#925930" d="M124.747 409.214l8.5-2.392 2.408 8.557-8.5 2.393z"/><path d="M136.42 417.91c-1.85-2.17-2.89-4.35-2.31-4.85s2.59.86 4.44 3 2.9 4.35 2.31 4.85-2.58-.83-4.44-3z" fill="#925930"/><path d="M135.4 421.78c-1.14-4.08-1.5-7.58-.8-7.77s2.22 3 3.37 7.05 1.5 7.57.79 7.77-2.22-2.98-3.36-7.05z" fill="#925930"/><path d="M133.13 423.56c-1.19-4.24-1.58-7.87-.88-8.07s2.26 3.11 3.45 7.35l.15.55c1.19 4.24 1.58 7.86.88 8.06s-2.26-3.1-3.44-7.34zm-2.65.44c-1.14-4.07-1.5-7.57-.79-7.77s2.22 3 3.36 7.05 1.5 7.58.79 7.77-2.21-2.99-3.36-7.05z" fill="#925930"/><path d="M127.31 422.52c-1-3.6-1.26-6.7-.56-6.9s2.11 2.58 3.12 6.18 1.26 6.71.55 6.91-2.1-2.59-3.11-6.19z" fill="#925930"/><path d="M133.1 405.81c-.76.31.25 1.48.58 2.49s.66 2.28.66 2.28l-8.64 2.08-.93-3.3z" fill="#ededed"/><path d="M133.72 408.31l-.2-.84a3.27 3.27 0 0 1 0-.45v-5.33l.06-1c.16-2.69.46-5.42.85-8.16s.85-5.47 1.37-8.2 1.1-5.45 1.74-8.16 1.3-5.42 2-8.1 1.5-5.36 2.32-8 1.68-5.28 2.59-7.88 1.88-5.17 2.89-7.71l-15.55-5.07q-1.2 4.31-2.2 8.64c-.67 2.88-1.27 5.77-1.84 8.66s-1 5.79-1.51 8.69-.85 5.81-1.2 8.72-.65 5.84-.88 8.78-.41 5.88-.5 8.85-.1 6 .05 9l.06 1.15c0 .38.06.77.09 1.16s0 .77.1 1.17l.13 1.18v.6l.09.61c.06.4.12.8.2 1.22l.12.63.06.31v.32l.33 1.32z" fill="#69423d"/><path d="M142.22 334.27a7.82 7.82 0 0 0-6.26.25 8.26 8.26 0 0 0-2.55 2 8.42 8.42 0 0 0-2 6.27 8.17 8.17 0 0 0 .9 3.06 8 8 0 0 0 4.89 3.92 8.45 8.45 0 0 0 6.2-.67 8 8 0 0 0 2.4-1.88 7.65 7.65 0 0 0 1.52-2.7 7.54 7.54 0 0 0 .36-3.07 8.13 8.13 0 0 0-.82-2.92 8.55 8.55 0 0 0-4.64-4.26z" fill="#69423d"/><g clip-path="url(#bF)"><ellipse cx="124.23" cy="383.71" rx="7.81" ry="3.97" transform="rotate(-87.1 124.686 383.541)" fill="#ab7348"/></g><path fill="#925930" d="M207.72 419.13l1.01-3.6-3-5.5-5.87-1.65-2.72 9.7 10.58 1.05z"/><path d="M203.27 418.65a4.42 4.42 0 1 0-3.06-5.45 4.4 4.4 0 0 0 3.06 5.45z" fill="#925930"/><path d="M202.27 422.19a4.41 4.41 0 1 0-3.05-5.44 4.42 4.42 0 0 0 3.05 5.44z" fill="#925930"/><path d="M200.47 417.86a4.41 4.41 0 1 0-3.06-5.44 4.42 4.42 0 0 0 3.06 5.44z" fill="#925930"/><path fill="#925930" d="M198.3 413.909l2.408-8.558 8.5 2.393-2.41 8.557z"/><path d="M197.54 416.45c1.86-2.16 2.9-4.35 2.31-4.85s-2.58.86-4.44 3-2.89 4.35-2.31 4.86 2.59-.84 4.44-3.01z" fill="#925930"/><path d="M198.57 420.32c1.14-4.08 1.5-7.57.79-7.77s-2.22 3-3.36 7.05-1.5 7.57-.8 7.77 2.22-2.97 3.37-7.05z" fill="#925930"/><path d="M200.83 422.1c1.19-4.24 1.59-7.87.88-8.06s-2.25 3.1-3.44 7.34l-.16.55c-1.19 4.24-1.58 7.87-.87 8.07s2.25-3.11 3.44-7.35zm2.65.43c1.15-4.08 1.5-7.58.8-7.77s-2.22 3-3.36 7.05-1.5 7.57-.8 7.77 2.22-2.98 3.36-7.05z" fill="#925930"/><path d="M206.66 421.07c1-3.6 1.26-6.71.55-6.91s-2.11 2.59-3.12 6.19-1.26 6.71-.55 6.9 2.11-2.58 3.12-6.18z" fill="#925930"/><path d="M200.88 404.2c.77.31-.26 1.67-.59 2.69s-.65 2.08-.65 2.08l8.64 2.09.93-3.31z" fill="#ededed"/><path d="M200.27 406.83l.18-.82v-5.78l-.06-1c-.16-2.7-.47-5.43-.85-8.16s-.85-5.47-1.38-8.2-1.1-5.46-1.73-8.17-1.31-5.41-2-8.1-1.5-5.36-2.31-8-1.69-5.28-2.6-7.88-1.88-5.17-2.89-7.71l15.56-5.07q1.19 4.32 2.2 8.64t1.83 8.66c.56 2.89 1 5.79 1.51 8.69s.85 5.81 1.21 8.73.64 5.83.88 8.77.41 5.88.5 8.85.1 6-.05 9l-.06 1.15c0 .38-.06.78-.09 1.16s-.06.77-.1 1.17l-.13 1.19v.59l-.09.61c-.06.4-.11.8-.2 1.23l-.12.62-.06.32v.32L209 409z" fill="#69423d"/><path d="M191.74 332.81a7.86 7.86 0 0 1 6.26.25 8.3 8.3 0 0 1 2.55 1.95 8.41 8.41 0 0 1 2 6.27 8.18 8.18 0 0 1-.91 3.06 7.92 7.92 0 0 1-4.89 3.92 8.45 8.45 0 0 1-6.2-.66 8.34 8.34 0 0 1-2.4-1.89 7.86 7.86 0 0 1-1.88-5.76 8.09 8.09 0 0 1 .83-2.92 8.54 8.54 0 0 1 4.64-4.22z" fill="#69423d"/><g clip-path="url(#bG)"><ellipse cx="210.04" cy="382.12" rx="3.97" ry="7.81" transform="rotate(-2.73 210.288 382.508)" fill="#ab7348"/></g><path d="M169.67 296h-.18l-2-.62a5.08 5.08 0 0 0-2.89 0l-2 .62a.61.61 0 0 1-.77-.46.67.67 0 0 1 .43-.83l2-.61a6.1 6.1 0 0 1 3.59 0l2 .61a.69.69 0 0 1 .43.83.64.64 0 0 1-.61.46zm-21.24 2.25h-2.52a.67.67 0 0 1 0-1.34h2.35a5.33 5.33 0 0 0 .17 1.34zm35.75-1.61h2.38a.67.67 0 1 1 0 1.34h-2.43z" fill="#372b36"/><circle cx="155.61" cy="296.67" r="6.85" fill="none" stroke="#372b36" stroke-miterlimit="10"/><circle cx="176.7" cy="296.67" r="6.85" fill="none" stroke="#372b36" stroke-miterlimit="10"/></g></svg>