<svg xmlns="http://www.w3.org/2000/svg" viewBox="0 0 683 131"><path fill="#fff" d="M0 0h683v131H0z"/><path d="M497.35 60.6q8.29.54 11.65 3.82t3.48 10.24q.13 6.82.2 12.72t-.07 12.72q-.27 10.32-4.15 15.4t-13.52 5.09h-25.58V15.21h26.78q7.64 0 11.52 3.75t3.88 10.71q0 3.61.07 7.9t-.07 7.9a22.85 22.85 0 0 1-1.14 7 11.52 11.52 0 0 1-2.74 4.42 10.05 10.05 0 0 1-4.35 2.41 30.68 30.68 0 0 1-6 1zM486 54.44h4.42a4.26 4.26 0 0 0 3-1.2 6.39 6.39 0 0 0 1.54-4.13 25.62 25.62 0 0 0 .27-3.93v-9.45a21.69 21.69 0 0 0-.27-3.8 3.44 3.44 0 0 0-1.63-2.93 7.18 7.18 0 0 0-3.21-.67H486zm0 53.43h4.42a5.45 5.45 0 0 0 3.28-1.14c1-.76 1.62-2.16 1.8-4.22a51.79 51.79 0 0 0 .27-6.42V77a39.61 39.61 0 0 0-.27-5.82 4.23 4.23 0 0 0-1.77-3.18 5.79 5.79 0 0 0-3.34-1H486zm-329.13 12.72V16.66h16.77V107h19.94v13.6zM555.93 15.21l10.72 105.38h-17.28l-.67-12.86h-11.91l-.94 12.86h-17.14l13-105.38zm-8.83 80.34l-3.22-64.94h-.13l-5.22 64.94zM243 84.9v13.81a26.2 26.2 0 0 1-1.43 8.94 19.47 19.47 0 0 1-4.17 6.89 18.45 18.45 0 0 1-6.64 4.47 23.13 23.13 0 0 1-8.73 1.58 34 34 0 0 1-8.72-1 15.88 15.88 0 0 1-6.65-3.52 15.52 15.52 0 0 1-4.16-6.64 32.8 32.8 0 0 1-1.5-10.59V37.1q0-9.9 5.6-15.83t15.4-5.92a36.05 36.05 0 0 1 8.73 1 15.26 15.26 0 0 1 6.64 3.46 15.52 15.52 0 0 1 4.17 6.7A33.5 33.5 0 0 1 243 37.1v13.55h-15.79V34.89q0-6.78-5-6.78c-3.3 0-4.95 2.26-4.95 6.76v66.19q0 6.76 4.95 6.76c3.3 0 5-2.25 5-6.77V84.9zm372.85-.46v14a26.56 26.56 0 0 1-1.45 9 19.73 19.73 0 0 1-4.22 7 19 19 0 0 1-6.73 4.53 23.32 23.32 0 0 1-8.84 1.6 34 34 0 0 1-8.83-1.06 16 16 0 0 1-6.73-3.56 15.63 15.63 0 0 1-4.22-6.73 33.22 33.22 0 0 1-1.45-10.68V36q0-10 5.67-16t15.56-6a36.44 36.44 0 0 1 8.84 1 15.44 15.44 0 0 1 6.73 3.5 15.71 15.71 0 0 1 4.22 6.79A33.9 33.9 0 0 1 615.85 36v13.75h-16v-16q0-6.85-5-6.86t-5 6.85v67q0 6.85 5 6.85c3.34 0 5-2.28 5-6.86V84.44zm26.9-18.53v54.68h-16.83V14.6h16.83v46.47h.25l11.47-46.47h17.1l-13.19 46.06 12.79 59.93h-17.64L643 65.91zM111.3 17.28h36.89v13.65h-20.35V62.3h20.35v13.12h-20.35v32h20.35v13.13H111.3zM380 15.81h37.41v13.85H396.8v31.81h20.63v13.31H396.8v32.5h20.63v13.31H380zm-89.6 4.72q-3.94-5.14-13.57-5.15h-8.67q-9.63 0-13.57 5.15t-3.94 15.3v64.31q0 10.29 3.94 15.37t13.57 5.08h8.67q9.63 0 13.57-5.08t4-15.37V35.83q-.05-10.16-4-15.3zm-12.9 82c0 2-.56 3.46-1.67 4.21a5.79 5.79 0 0 1-3.27 1.14h-.12a5.84 5.84 0 0 1-3.28-1.14c-1.11-.75-1.67-2.16-1.67-4.21V32.36a3.42 3.42 0 0 1 1.61-3.14 6.2 6.2 0 0 1 3.34-1h.12a6.23 6.23 0 0 1 3.34 1 3.42 3.42 0 0 1 1.6 3.14zM16.81 17.48l10.48 103.11h26.39l4.25-38.43 3.99-49.61h.13l2.39 48.16 2.33 27.3.01.16 1.06 12.42h26.99l10.48-103.11H88.54l.09.01-.81 11.38-.07 1.19h-.02l-3.11 43.46-1.58 32h-.11v1.31l-9.08-89.35H50.13l-10.94 88.76v-.72h-.11l-1.58-32-3.11-43.46h-.02l-.07-1.19-.81-11.38.09-.01H16.81zm356.44 103.11l-10.72-104.5h-8.78v-.05l-8.65.03-4.11 38.89-3.81 50.21h-.13l-2.56-48.72-2.42-27.61h-.01v-.16l-1.11-12.56-14.79.05v.12h-2.37l-13.2 103.84 17.31-.08 3.4-38.3 4.02 38.7 23.69-.08 4.59-38.85 2.34 38.92 17.31.15z" fill="#d22c20"/></svg>