<svg xmlns="http://www.w3.org/2000/svg" xmlns:xlink="http://www.w3.org/1999/xlink" viewBox="0 0 332.11 848.17"><defs><clipPath id="d"><path d="M210.87 101.44v.06c-.1.36-1.77.89-2.14 1a38.89 38.89 0 0 1-5.63 1.11c-28.22 4.14-71.94 1.48-76.12-1.62l-.16-.18c.87-4.83 52.68-6.34 74.28-3.51 5.61.7 9.27 1.7 9.77 3.14z" fill="#a81a16"/></clipPath><linearGradient id="b" x1="-182.75" y1="288.95" x2="-148.36" y2="288.95" gradientTransform="matrix(1 0 0 -1 460.49 577.9)" gradientUnits="userSpaceOnUse"><stop offset=".01" stop-color="#d22c20"/><stop offset=".31" stop-color="#e7342e"/><stop offset=".51" stop-color="#ef3733"/><stop offset=".72" stop-color="#e6332d"/><stop offset="1" stop-color="#d22c20"/></linearGradient><linearGradient id="a" x1="311.62" y1="329.93" x2="278.86" y2="329.93" gradientUnits="userSpaceOnUse"><stop offset=".05" stop-color="#d3d2d2"/><stop offset=".37" stop-color="#9a9a9c"/><stop offset=".64" stop-color="#9a9a9c"/><stop offset="1" stop-color="#d1d6d5"/></linearGradient><linearGradient id="e" x1="307.23" y1="337.17" x2="283.44" y2="337.17" xlink:href="#a"/><linearGradient id="f" x1="307.23" y1="344.42" x2="283.44" y2="344.42" xlink:href="#a"/><linearGradient id="g" x1="307.23" y1="351.66" x2="283.44" y2="351.66" xlink:href="#a"/><linearGradient id="h" x1="307.23" y1="358.9" x2="283.44" y2="358.9" xlink:href="#a"/><linearGradient id="i" x1="311.62" y1="366.15" x2="278.86" y2="366.15" xlink:href="#a"/><linearGradient id="j" x1="307.38" y1="373.39" x2="283.59" y2="373.39" xlink:href="#a"/><linearGradient id="k" x1="307.38" y1="380.63" x2="283.59" y2="380.63" xlink:href="#a"/><linearGradient id="l" x1="307.38" y1="387.88" x2="283.59" y2="387.88" xlink:href="#a"/><linearGradient id="m" x1="307.38" y1="395.12" x2="283.59" y2="395.12" xlink:href="#a"/><linearGradient id="n" x1="311.78" y1="402.37" x2="279.01" y2="402.37" xlink:href="#a"/><linearGradient id="o" x1="307.23" y1="409.61" x2="283.44" y2="409.61" xlink:href="#a"/><linearGradient id="p" x1="307.23" y1="416.85" x2="283.44" y2="416.85" xlink:href="#a"/><linearGradient id="q" x1="307.23" y1="424.1" x2="283.44" y2="424.1" xlink:href="#a"/><linearGradient id="r" x1="307.23" y1="431.34" x2="283.44" y2="431.34" xlink:href="#a"/><linearGradient id="s" x1="311.62" y1="438.58" x2="278.86" y2="438.58" xlink:href="#a"/><linearGradient id="t" x1="307.23" y1="445.83" x2="283.44" y2="445.83" xlink:href="#a"/><linearGradient id="u" x1="307.23" y1="453.07" x2="283.44" y2="453.07" xlink:href="#a"/><linearGradient id="v" x1="307.23" y1="460.31" x2="283.44" y2="460.31" xlink:href="#a"/><linearGradient id="w" x1="307.23" y1="467.56" x2="283.44" y2="467.56" xlink:href="#a"/><linearGradient id="x" x1="311.62" y1="474.8" x2="278.86" y2="474.8" xlink:href="#a"/><linearGradient id="y" x1="311.62" y1="221.51" x2="278.86" y2="221.51" xlink:href="#a"/><linearGradient id="z" x1="307.23" y1="228.75" x2="283.44" y2="228.75" xlink:href="#a"/><linearGradient id="A" x1="307.23" y1="235.99" x2="283.44" y2="235.99" xlink:href="#a"/><linearGradient id="B" x1="307.23" y1="243.24" x2="283.44" y2="243.24" xlink:href="#a"/><linearGradient id="C" x1="307.23" y1="250.48" x2="283.44" y2="250.48" xlink:href="#a"/><linearGradient id="D" x1="311.62" y1="257.73" x2="278.86" y2="257.73" xlink:href="#a"/><linearGradient id="E" x1="307.38" y1="264.97" x2="283.59" y2="264.97" xlink:href="#a"/><linearGradient id="F" x1="307.38" y1="272.21" x2="283.59" y2="272.21" xlink:href="#a"/><linearGradient id="G" x1="307.38" y1="279.46" x2="283.59" y2="279.46" xlink:href="#a"/><linearGradient id="H" x1="307.38" y1="286.7" x2="283.59" y2="286.7" xlink:href="#a"/><linearGradient id="I" x1="311.78" y1="293.94" x2="279.01" y2="293.94" xlink:href="#a"/><linearGradient id="J" x1="307.23" y1="301.19" x2="283.44" y2="301.19" xlink:href="#a"/><linearGradient id="K" x1="307.23" y1="308.43" x2="283.44" y2="308.43" xlink:href="#a"/><linearGradient id="L" x1="307.23" y1="315.67" x2="283.44" y2="315.67" xlink:href="#a"/><linearGradient id="M" x1="307.23" y1="322.92" x2="283.44" y2="322.92" xlink:href="#a"/><linearGradient id="N" x1="311.62" y1="330.16" x2="278.86" y2="330.16" xlink:href="#a"/><linearGradient id="O" x1="307.23" y1="337.4" x2="283.44" y2="337.4" xlink:href="#a"/><linearGradient id="P" x1="307.23" y1="344.65" x2="283.44" y2="344.65" xlink:href="#a"/><linearGradient id="Q" x1="307.23" y1="351.89" x2="283.44" y2="351.89" xlink:href="#a"/><linearGradient id="R" x1="307.23" y1="359.13" x2="283.44" y2="359.13" xlink:href="#a"/><linearGradient id="S" x1="311.62" y1="366.38" x2="278.86" y2="366.38" xlink:href="#a"/><linearGradient id="T" x1="311.62" y1="113.09" x2="278.86" y2="113.09" xlink:href="#a"/><linearGradient id="U" x1="307.23" y1="120.33" x2="283.44" y2="120.33" xlink:href="#a"/><linearGradient id="V" x1="307.23" y1="127.57" x2="283.44" y2="127.57" xlink:href="#a"/><linearGradient id="W" x1="307.23" y1="134.82" x2="283.44" y2="134.82" xlink:href="#a"/><linearGradient id="X" x1="307.23" y1="142.06" x2="283.44" y2="142.06" xlink:href="#a"/><linearGradient id="Y" x1="311.62" y1="149.3" x2="278.86" y2="149.3" xlink:href="#a"/><linearGradient id="Z" x1="307.38" y1="156.55" x2="283.59" y2="156.55" xlink:href="#a"/><linearGradient id="aa" x1="307.38" y1="163.79" x2="283.59" y2="163.79" xlink:href="#a"/><linearGradient id="ab" x1="307.38" y1="171.03" x2="283.59" y2="171.03" xlink:href="#a"/><linearGradient id="ac" x1="307.38" y1="178.28" x2="283.59" y2="178.28" xlink:href="#a"/><linearGradient id="ad" x1="311.78" y1="185.52" x2="279.01" y2="185.52" xlink:href="#a"/><linearGradient id="ae" x1="307.23" y1="192.76" x2="283.44" y2="192.76" xlink:href="#a"/><linearGradient id="af" x1="307.23" y1="200.01" x2="283.44" y2="200.01" xlink:href="#a"/><linearGradient id="ag" x1="307.23" y1="207.25" x2="283.44" y2="207.25" xlink:href="#a"/><linearGradient id="ah" x1="307.23" y1="214.49" x2="283.44" y2="214.49" xlink:href="#a"/><linearGradient id="ai" x1="311.62" y1="221.74" x2="278.86" y2="221.74" xlink:href="#a"/><linearGradient id="aj" x1="307.23" y1="228.98" x2="283.44" y2="228.98" xlink:href="#a"/><linearGradient id="ak" x1="307.23" y1="236.23" x2="283.44" y2="236.23" xlink:href="#a"/><linearGradient id="al" x1="307.23" y1="243.47" x2="283.44" y2="243.47" xlink:href="#a"/><linearGradient id="am" x1="307.23" y1="250.71" x2="283.44" y2="250.71" xlink:href="#a"/><linearGradient id="an" x1="311.62" y1="257.96" x2="278.86" y2="257.96" xlink:href="#a"/><clipPath id="ao"><path fill="none" d="M286.53 112.37h17.37v371.86h-17.37z"/></clipPath><linearGradient id="c" x1="275.18" y1="486.08" x2="315.97" y2="486.08" gradientUnits="userSpaceOnUse"><stop offset=".01" stop-color="#d22c20"/><stop offset=".26" stop-color="#e2322b"/><stop offset=".51" stop-color="#ef3733"/><stop offset="1" stop-color="#d22c20"/></linearGradient><linearGradient id="ap" x1="-368.75" y1="288.95" x2="-334.36" y2="288.95" gradientTransform="translate(392.71)" xlink:href="#b"/><linearGradient id="aq" x1="497.62" y1="329.93" x2="464.86" y2="329.93" gradientTransform="matrix(-1 0 0 1 522.09 0)" xlink:href="#a"/><linearGradient id="ar" x1="493.23" y1="337.17" x2="469.44" y2="337.17" gradientTransform="matrix(-1 0 0 1 522.09 0)" xlink:href="#a"/><linearGradient id="as" x1="493.23" y1="344.42" x2="469.44" y2="344.42" gradientTransform="matrix(-1 0 0 1 522.09 0)" xlink:href="#a"/><linearGradient id="at" x1="493.23" y1="351.66" x2="469.44" y2="351.66" gradientTransform="matrix(-1 0 0 1 522.09 0)" xlink:href="#a"/><linearGradient id="au" x1="493.23" y1="358.9" x2="469.44" y2="358.9" gradientTransform="matrix(-1 0 0 1 522.09 0)" xlink:href="#a"/><linearGradient id="av" x1="497.62" y1="366.15" x2="464.86" y2="366.15" gradientTransform="matrix(-1 0 0 1 522.09 0)" xlink:href="#a"/><linearGradient id="aw" x1="493.38" y1="373.39" x2="469.59" y2="373.39" gradientTransform="matrix(-1 0 0 1 522.09 0)" xlink:href="#a"/><linearGradient id="ax" x1="493.38" y1="380.63" x2="469.59" y2="380.63" gradientTransform="matrix(-1 0 0 1 522.09 0)" xlink:href="#a"/><linearGradient id="ay" x1="493.38" y1="387.88" x2="469.59" y2="387.88" gradientTransform="matrix(-1 0 0 1 522.09 0)" xlink:href="#a"/><linearGradient id="az" x1="493.38" y1="395.12" x2="469.59" y2="395.12" gradientTransform="matrix(-1 0 0 1 522.09 0)" xlink:href="#a"/><linearGradient id="aA" x1="497.78" y1="402.37" x2="465.01" y2="402.37" gradientTransform="matrix(-1 0 0 1 522.09 0)" xlink:href="#a"/><linearGradient id="aB" x1="493.23" y1="409.61" x2="469.44" y2="409.61" gradientTransform="matrix(-1 0 0 1 522.09 0)" xlink:href="#a"/><linearGradient id="aC" x1="493.23" y1="416.85" x2="469.44" y2="416.85" gradientTransform="matrix(-1 0 0 1 522.09 0)" xlink:href="#a"/><linearGradient id="aD" x1="493.23" y1="424.1" x2="469.44" y2="424.1" gradientTransform="matrix(-1 0 0 1 522.09 0)" xlink:href="#a"/><linearGradient id="aE" x1="493.23" y1="431.34" x2="469.44" y2="431.34" gradientTransform="matrix(-1 0 0 1 522.09 0)" xlink:href="#a"/><linearGradient id="aF" x1="497.62" y1="438.58" x2="464.86" y2="438.58" gradientTransform="matrix(-1 0 0 1 522.09 0)" xlink:href="#a"/><linearGradient id="aG" x1="493.23" y1="445.83" x2="469.44" y2="445.83" gradientTransform="matrix(-1 0 0 1 522.09 0)" xlink:href="#a"/><linearGradient id="aH" x1="493.23" y1="453.07" x2="469.44" y2="453.07" gradientTransform="matrix(-1 0 0 1 522.09 0)" xlink:href="#a"/><linearGradient id="aI" x1="493.23" y1="460.31" x2="469.44" y2="460.31" gradientTransform="matrix(-1 0 0 1 522.09 0)" xlink:href="#a"/><linearGradient id="aJ" x1="493.23" y1="467.56" x2="469.44" y2="467.56" gradientTransform="matrix(-1 0 0 1 522.09 0)" xlink:href="#a"/><linearGradient id="aK" x1="497.62" y1="474.8" x2="464.86" y2="474.8" gradientTransform="matrix(-1 0 0 1 522.09 0)" xlink:href="#a"/><linearGradient id="aL" x1="497.62" y1="221.51" x2="464.86" y2="221.51" gradientTransform="matrix(-1 0 0 1 522.09 0)" xlink:href="#a"/><linearGradient id="aM" x1="493.23" y1="228.75" x2="469.44" y2="228.75" gradientTransform="matrix(-1 0 0 1 522.09 0)" xlink:href="#a"/><linearGradient id="aN" x1="493.23" y1="235.99" x2="469.44" y2="235.99" gradientTransform="matrix(-1 0 0 1 522.09 0)" xlink:href="#a"/><linearGradient id="aO" x1="493.23" y1="243.24" x2="469.44" y2="243.24" gradientTransform="matrix(-1 0 0 1 522.09 0)" xlink:href="#a"/><linearGradient id="aP" x1="493.23" y1="250.48" x2="469.44" y2="250.48" gradientTransform="matrix(-1 0 0 1 522.09 0)" xlink:href="#a"/><linearGradient id="aQ" x1="497.62" y1="257.73" x2="464.86" y2="257.73" gradientTransform="matrix(-1 0 0 1 522.09 0)" xlink:href="#a"/><linearGradient id="aR" x1="493.38" y1="264.97" x2="469.59" y2="264.97" gradientTransform="matrix(-1 0 0 1 522.09 0)" xlink:href="#a"/><linearGradient id="aS" x1="493.38" y1="272.21" x2="469.59" y2="272.21" gradientTransform="matrix(-1 0 0 1 522.09 0)" xlink:href="#a"/><linearGradient id="aT" x1="493.38" y1="279.46" x2="469.59" y2="279.46" gradientTransform="matrix(-1 0 0 1 522.09 0)" xlink:href="#a"/><linearGradient id="aU" x1="493.38" y1="286.7" x2="469.59" y2="286.7" gradientTransform="matrix(-1 0 0 1 522.09 0)" xlink:href="#a"/><linearGradient id="aV" x1="497.78" y1="293.94" x2="465.01" y2="293.94" gradientTransform="matrix(-1 0 0 1 522.09 0)" xlink:href="#a"/><linearGradient id="aW" x1="493.23" y1="301.19" x2="469.44" y2="301.19" gradientTransform="matrix(-1 0 0 1 522.09 0)" xlink:href="#a"/><linearGradient id="aX" x1="493.23" y1="308.43" x2="469.44" y2="308.43" gradientTransform="matrix(-1 0 0 1 522.09 0)" xlink:href="#a"/><linearGradient id="aY" x1="493.23" y1="315.67" x2="469.44" y2="315.67" gradientTransform="matrix(-1 0 0 1 522.09 0)" xlink:href="#a"/><linearGradient id="aZ" x1="493.23" y1="322.92" x2="469.44" y2="322.92" gradientTransform="matrix(-1 0 0 1 522.09 0)" xlink:href="#a"/><linearGradient id="ba" x1="497.62" y1="330.16" x2="464.86" y2="330.16" gradientTransform="matrix(-1 0 0 1 522.09 0)" xlink:href="#a"/><linearGradient id="bb" x1="493.23" y1="337.4" x2="469.44" y2="337.4" gradientTransform="matrix(-1 0 0 1 522.09 0)" xlink:href="#a"/><linearGradient id="bc" x1="493.23" y1="344.65" x2="469.44" y2="344.65" gradientTransform="matrix(-1 0 0 1 522.09 0)" xlink:href="#a"/><linearGradient id="bd" x1="493.23" y1="351.89" x2="469.44" y2="351.89" gradientTransform="matrix(-1 0 0 1 522.09 0)" xlink:href="#a"/><linearGradient id="be" x1="493.23" y1="359.13" x2="469.44" y2="359.13" gradientTransform="matrix(-1 0 0 1 522.09 0)" xlink:href="#a"/><linearGradient id="bf" x1="497.62" y1="366.38" x2="464.86" y2="366.38" gradientTransform="matrix(-1 0 0 1 522.09 0)" xlink:href="#a"/><linearGradient id="bg" x1="497.62" y1="113.09" x2="464.86" y2="113.09" gradientTransform="matrix(-1 0 0 1 522.09 0)" xlink:href="#a"/><linearGradient id="bh" x1="493.23" y1="120.33" x2="469.44" y2="120.33" gradientTransform="matrix(-1 0 0 1 522.09 0)" xlink:href="#a"/><linearGradient id="bi" x1="493.23" y1="127.57" x2="469.44" y2="127.57" gradientTransform="matrix(-1 0 0 1 522.09 0)" xlink:href="#a"/><linearGradient id="bj" x1="493.23" y1="134.82" x2="469.44" y2="134.82" gradientTransform="matrix(-1 0 0 1 522.09 0)" xlink:href="#a"/><linearGradient id="bk" x1="493.23" y1="142.06" x2="469.44" y2="142.06" gradientTransform="matrix(-1 0 0 1 522.09 0)" xlink:href="#a"/><linearGradient id="bl" x1="497.62" y1="149.3" x2="464.86" y2="149.3" gradientTransform="matrix(-1 0 0 1 522.09 0)" xlink:href="#a"/><linearGradient id="bm" x1="493.38" y1="156.55" x2="469.59" y2="156.55" gradientTransform="matrix(-1 0 0 1 522.09 0)" xlink:href="#a"/><linearGradient id="bn" x1="493.38" y1="163.79" x2="469.59" y2="163.79" gradientTransform="matrix(-1 0 0 1 522.09 0)" xlink:href="#a"/><linearGradient id="bo" x1="493.38" y1="171.03" x2="469.59" y2="171.03" gradientTransform="matrix(-1 0 0 1 522.09 0)" xlink:href="#a"/><linearGradient id="bp" x1="493.38" y1="178.28" x2="469.59" y2="178.28" gradientTransform="matrix(-1 0 0 1 522.09 0)" xlink:href="#a"/><linearGradient id="bq" x1="497.78" y1="185.52" x2="465.01" y2="185.52" gradientTransform="matrix(-1 0 0 1 522.09 0)" xlink:href="#a"/><linearGradient id="br" x1="493.23" y1="192.76" x2="469.44" y2="192.76" gradientTransform="matrix(-1 0 0 1 522.09 0)" xlink:href="#a"/><linearGradient id="bs" x1="493.23" y1="200.01" x2="469.44" y2="200.01" gradientTransform="matrix(-1 0 0 1 522.09 0)" xlink:href="#a"/><linearGradient id="bt" x1="493.23" y1="207.25" x2="469.44" y2="207.25" gradientTransform="matrix(-1 0 0 1 522.09 0)" xlink:href="#a"/><linearGradient id="bu" x1="493.23" y1="214.49" x2="469.44" y2="214.49" gradientTransform="matrix(-1 0 0 1 522.09 0)" xlink:href="#a"/><linearGradient id="bv" x1="497.62" y1="221.74" x2="464.86" y2="221.74" gradientTransform="matrix(-1 0 0 1 522.09 0)" xlink:href="#a"/><linearGradient id="bw" x1="493.23" y1="228.98" x2="469.44" y2="228.98" gradientTransform="matrix(-1 0 0 1 522.09 0)" xlink:href="#a"/><linearGradient id="bx" x1="493.23" y1="236.23" x2="469.44" y2="236.23" gradientTransform="matrix(-1 0 0 1 522.09 0)" xlink:href="#a"/><linearGradient id="by" x1="493.23" y1="243.47" x2="469.44" y2="243.47" gradientTransform="matrix(-1 0 0 1 522.09 0)" xlink:href="#a"/><linearGradient id="bz" x1="493.23" y1="250.71" x2="469.44" y2="250.71" gradientTransform="matrix(-1 0 0 1 522.09 0)" xlink:href="#a"/><linearGradient id="bA" x1="497.62" y1="257.96" x2="464.86" y2="257.96" gradientTransform="matrix(-1 0 0 1 522.09 0)" xlink:href="#a"/><clipPath id="bB"><path transform="rotate(-180 40.885 298.3)" fill="none" d="M32.2 112.37h17.37v371.86H32.2z"/></clipPath><linearGradient id="bC" x1="461.18" y1="486.08" x2="501.97" y2="486.08" gradientTransform="matrix(1 0 0 -1 -441.06 972.17)" xlink:href="#c"/></defs><g style="isolation:isolate"><path fill="#a2a2a2" d="M98.24 519.65H85.33l-2.66-55.58h18.23l-2.66 55.58z"/><path fill="#bdbdbd" d="M82.67 448.64h18.24v7.71H82.67z"/><path fill="#696969" d="M82.67 456.36h18.24v7.71H82.67z"/><path fill="#a2a2a2" d="M250.9 519.65H238l-2.68-55.58h18.24l-2.66 55.58z"/><path fill="#bdbdbd" d="M235.32 448.64h18.24v7.71h-18.24z"/><path fill="#696969" d="M235.32 456.36h18.24v7.71h-18.24z"/><path fill="#9e6741" d="M71 439.51h194v12.99H71z"/><rect x="14.65" y="125.24" width="308.13" height="9.26" rx="2.8" ry="2.8" fill="#8e8e8e"/><path d="M322.73 129.32h-308v-2.06a2.37 2.37 0 0 1 2.59-2h303a2.28 2.28 0 0 1 2.51 2s-.16 2.02-.1 2.06z" fill="#a8a8a8"/><path d="M212.15 100.37v.32a2.14 2.14 0 0 1-1.17 1l-.38.08v-.09l.24-.16v-.06c-2.55-6.55-71.5-5-82.21-1.06-1.67.69-1.61 1-1.84 1.39l-.39-.08a1.66 1.66 0 0 1-.84-.81v-.16c.24-1.22 3.23-1.89 4.37-2.17 21.58-4.7 66.51-2.21 76.11-.48 1.89.34 5.52 1.04 6.11 2.28z" fill="#e26d6d"/><path d="M210.87 101.44v.06c-.1.36-1.77.89-2.14 1a38.89 38.89 0 0 1-5.63 1.11c-28.22 4.14-71.94 1.48-76.12-1.62l-.16-.18c.87-4.83 52.68-6.34 74.28-3.51 5.61.7 9.27 1.7 9.77 3.14z" fill="#a81a16"/><g clip-path="url(#d)" fill="#a81a16"><path d="M183.44 95.2v19.59l35.5-12.55S192 91.71 183.44 95.2zm-35.88 14.36l-1-16.3S123.7 95 123.5 100.63s24.06 8.93 24.06 8.93z" style="mix-blend-mode:multiply" opacity=".3"/></g><path d="M258.24 0h-24.17a42.15 42.15 0 0 0-42 42v.08h10.38a31.78 31.78 0 0 1 31.67-30.92h24.13a31.78 31.78 0 0 1 31.69 31.69v32.01h10.37V42a42.15 42.15 0 0 0-42.07-42z" fill="#d22c20"/><path fill="#d22c20" d="M192.47 42.43l-.76 5.6 2.54 2.4 6.56-.83 1.19-5.09-.61-3.77.16-.78h-8.56l-.52 2.47z"/><path d="M203.21 40h-3.08c0 .34-.06.67-.07 1h-5.72v-1h-3.08v1H190v6.88a3.72 3.72 0 0 0 3.73 3.73h6.5a3.71 3.71 0 0 0 3.77-3.77V41h-.82c-.03-.37.01-.7.03-1zm-2.32 4.56v3.33a.66.66 0 0 1-.66.66h-6.5a.69.69 0 0 1-.47-.19.66.66 0 0 1-.19-.46v-3.85h7.82z" fill="#d22c20"/><path fill="#a81a16" d="M203.15 40.99h-11.84v-.97h11.84zm97.34 28.38h-10.64v-.89h10.64z"/><path fill="#d22c20" d="M315.98 492.83h-40.83V92.76h40.83z"/><ellipse cx="295.56" cy="94.09" rx="20.46" ry="21.68" fill="#d22c20"/><path fill="#a81a16" d="M275.39 90.96l40.35-.13-.39-1.69h-39.61l-.35 1.82z"/><path transform="rotate(-180 294.94 288.95)" fill="url(#b)" d="M277.75 90.95h34.39v395.99h-34.39z"/><path fill="url(#a)" d="M278.61 329.14h33.91v1.59h-33.91z"/><path fill="url(#e)" d="M283.26 336.38h24.62v1.59h-24.62z"/><path fill="url(#f)" d="M283.26 343.62h24.62v1.59h-24.62z"/><path fill="url(#g)" d="M283.26 350.87h24.62v1.59h-24.62z"/><path fill="url(#h)" d="M283.26 358.11h24.62v1.59h-24.62z"/><path fill="url(#i)" d="M278.61 365.35h33.91v1.59h-33.91z"/><path fill="url(#j)" d="M283.41 372.6h24.62v1.59h-24.62z"/><path fill="url(#k)" d="M283.41 379.84h24.62v1.59h-24.62z"/><path fill="url(#l)" d="M283.41 387.08h24.62v1.59h-24.62z"/><path fill="url(#m)" d="M283.41 394.33h24.62v1.59h-24.62z"/><path fill="url(#n)" d="M278.77 401.57h33.91v1.59h-33.91z"/><path fill="url(#o)" d="M283.26 408.81h24.62v1.59h-24.62z"/><path fill="url(#p)" d="M283.26 416.06h24.62v1.59h-24.62z"/><path fill="url(#q)" d="M283.26 423.3h24.62v1.59h-24.62z"/><path fill="url(#r)" d="M283.26 430.54h24.62v1.59h-24.62z"/><path fill="url(#s)" d="M278.61 437.79h33.91v1.59h-33.91z"/><path fill="url(#t)" d="M283.26 445.03h24.62v1.59h-24.62z"/><path fill="url(#u)" d="M283.26 452.28h24.62v1.59h-24.62z"/><path fill="url(#v)" d="M283.26 459.52h24.62v1.59h-24.62z"/><path fill="url(#w)" d="M283.26 466.76h24.62v1.59h-24.62z"/><path fill="url(#x)" d="M278.61 474.01h33.91v1.59h-33.91z"/><path fill="url(#y)" d="M278.61 220.71h33.91v1.59h-33.91z"/><path fill="url(#z)" d="M283.26 227.96h24.62v1.59h-24.62z"/><path fill="url(#A)" d="M283.26 235.2h24.62v1.59h-24.62z"/><path fill="url(#B)" d="M283.26 242.44h24.62v1.59h-24.62z"/><path fill="url(#C)" d="M283.26 249.69h24.62v1.59h-24.62z"/><path fill="url(#D)" d="M278.61 256.93h33.91v1.59h-33.91z"/><path fill="url(#E)" d="M283.41 264.17h24.62v1.59h-24.62z"/><path fill="url(#F)" d="M283.41 271.42h24.62v1.59h-24.62z"/><path fill="url(#G)" d="M283.41 278.66h24.62v1.59h-24.62z"/><path fill="url(#H)" d="M283.41 285.9h24.62v1.59h-24.62z"/><path fill="url(#I)" d="M278.77 293.15h33.91v1.59h-33.91z"/><path fill="url(#J)" d="M283.26 300.39h24.62v1.59h-24.62z"/><path fill="url(#K)" d="M283.26 307.64h24.62v1.59h-24.62z"/><path fill="url(#L)" d="M283.26 314.88h24.62v1.59h-24.62z"/><path fill="url(#M)" d="M283.26 322.12h24.62v1.59h-24.62z"/><path fill="url(#N)" d="M278.61 329.37h33.91v1.59h-33.91z"/><path fill="url(#O)" d="M283.26 336.61h24.62v1.59h-24.62z"/><path fill="url(#P)" d="M283.26 343.85h24.62v1.59h-24.62z"/><path fill="url(#Q)" d="M283.26 351.1h24.62v1.59h-24.62z"/><path fill="url(#R)" d="M283.26 358.34h24.62v1.59h-24.62z"/><path fill="url(#S)" d="M278.61 365.58h33.91v1.59h-33.91z"/><path fill="url(#T)" d="M278.61 112.29h33.91v1.59h-33.91z"/><path fill="url(#U)" d="M283.26 119.53h24.62v1.59h-24.62z"/><path fill="url(#V)" d="M283.26 126.78h24.62v1.59h-24.62z"/><path fill="url(#W)" d="M283.26 134.02h24.62v1.59h-24.62z"/><path fill="url(#X)" d="M283.26 141.26h24.62v1.59h-24.62z"/><path fill="url(#Y)" d="M278.61 148.51h33.91v1.59h-33.91z"/><path fill="url(#Z)" d="M283.41 155.75h24.62v1.59h-24.62z"/><path fill="url(#aa)" d="M283.41 163h24.62v1.59h-24.62z"/><path fill="url(#ab)" d="M283.41 170.24h24.62v1.59h-24.62z"/><path fill="url(#ac)" d="M283.41 177.48h24.62v1.59h-24.62z"/><path fill="url(#ad)" d="M278.77 184.73h33.91v1.59h-33.91z"/><path fill="url(#ae)" d="M283.26 191.97h24.62v1.59h-24.62z"/><path fill="url(#af)" d="M283.26 199.21h24.62v1.59h-24.62z"/><path fill="url(#ag)" d="M283.26 206.46h24.62v1.59h-24.62z"/><path fill="url(#ah)" d="M283.26 213.7h24.62v1.59h-24.62z"/><path fill="url(#ai)" d="M278.61 220.94h33.91v1.59h-33.91z"/><path fill="url(#aj)" d="M283.26 228.19h24.62v1.59h-24.62z"/><path fill="url(#ak)" d="M283.26 235.43h24.62v1.59h-24.62z"/><path fill="url(#al)" d="M283.26 242.67h24.62v1.59h-24.62z"/><path fill="url(#am)" d="M283.26 249.92h24.62v1.59h-24.62z"/><path fill="url(#an)" d="M278.61 257.16h33.91v1.59h-33.91z"/><path d="M303.89 484.22V107.58c0-5.46-3.79-9.92-8.42-9.92h-.56c-4.63 0-8.41 4.46-8.41 9.92v376.64z" fill="#9be0ff"/><g clip-path="url(#ao)"><path fill="#fff" d="M286.45 366.99h17.57V737.4h-17.57z"/><path d="M291.89 740.75V369.38h6.22v371.37h-6.24.02z" fill="#8e8e8e"/><path d="M294.63 369.38v371.26h-1.39c-.76 0-1.38-1.4-1.38-3.12V369.38zm-8.12-2.88h17.39v2.07h-17.39z" fill="#a8a8a8"/><path fill="#8e8e8e" d="M286.5 368.54h17.38v2.07H286.5z"/></g><path fill="#d22c20" d="M319.29 498.85h-47.36v-11.37h47.36z"/><path d="M259.3 519.5c.71-15.38 16.73-27.67 36.4-27.67s35.69 12.29 36.41 27.67z" fill="#d22c20"/><path fill="#a81a16" d="M318.76 498.66h-46.57v-3.19h46.57z"/><path fill="url(#c)" d="M275.18 484.33h40.79v3.5h-40.79z"/><path d="M77.85 0H102a42.15 42.15 0 0 1 42 42v.08h-10.32A31.79 31.79 0 0 0 102 11.19H77.87a31.79 31.79 0 0 0-31.69 31.69v31.98H35.83V42A42.15 42.15 0 0 1 77.85 0z" fill="#d22c20"/><path fill="#d22c20" d="M143.62 42.43l.76 5.6-2.53 2.4-6.57-.83-1.18-5.09.6-3.77-.16-.78h8.57l.51 2.47z"/><path d="M133 41h-.82v6.87a3.72 3.72 0 0 0 2.82 3.61 3.63 3.63 0 0 0 .87.1h6.5a3.74 3.74 0 0 0 3.74-3.73V41h-1.28c0-.34 0-.68-.05-1h-3.08c0 .34 0 .68.05 1H136c0-.34 0-.67-.07-1h-3.09c.07.3.16.63.16 1zm2.25 3.08H143v3.81a.66.66 0 0 1-.19.46.67.67 0 0 1-.47.19h-6.5a.65.65 0 0 1-.65-.66v-3.8z" fill="#d22c20"/><path fill="#a81a16" d="M132.95 40.02h11.84v.97h-11.84zM35.61 68.47h10.64v.89H35.61z"/><path fill="#d22c20" d="M20.11 92.76h40.83v400.07H20.11z"/><ellipse cx="40.53" cy="94.09" rx="20.46" ry="21.68" fill="#d22c20"/><path fill="#a81a16" d="M60.71 90.96l-40.36-.13.4-1.69h39.6l.36 1.82z"/><path fill="url(#ap)" d="M23.96 90.95h34.39v395.99H23.96z"/><path fill="url(#aq)" d="M23.58 329.14h33.91v1.59H23.58z"/><path fill="url(#ar)" d="M28.22 336.38h24.62v1.59H28.22z"/><path fill="url(#as)" d="M28.22 343.62h24.62v1.59H28.22z"/><path fill="url(#at)" d="M28.22 350.87h24.62v1.59H28.22z"/><path fill="url(#au)" d="M28.22 358.11h24.62v1.59H28.22z"/><path fill="url(#av)" d="M23.58 365.35h33.91v1.59H23.58z"/><path fill="url(#aw)" d="M28.07 372.6h24.62v1.59H28.07z"/><path fill="url(#ax)" d="M28.07 379.84h24.62v1.59H28.07z"/><path fill="url(#ay)" d="M28.07 387.08h24.62v1.59H28.07z"/><path fill="url(#az)" d="M28.07 394.33h24.62v1.59H28.07z"/><path fill="url(#aA)" d="M23.42 401.57h33.91v1.59H23.42z"/><path fill="url(#aB)" d="M28.22 408.81h24.62v1.59H28.22z"/><path fill="url(#aC)" d="M28.22 416.06h24.62v1.59H28.22z"/><path fill="url(#aD)" d="M28.22 423.3h24.62v1.59H28.22z"/><path fill="url(#aE)" d="M28.22 430.54h24.62v1.59H28.22z"/><path fill="url(#aF)" d="M23.58 437.79h33.91v1.59H23.58z"/><path fill="url(#aG)" d="M28.22 445.03h24.62v1.59H28.22z"/><path fill="url(#aH)" d="M28.22 452.28h24.62v1.59H28.22z"/><path fill="url(#aI)" d="M28.22 459.52h24.62v1.59H28.22z"/><path fill="url(#aJ)" d="M28.22 466.76h24.62v1.59H28.22z"/><path fill="url(#aK)" d="M23.58 474.01h33.91v1.59H23.58z"/><path fill="url(#aL)" d="M23.58 220.71h33.91v1.59H23.58z"/><path fill="url(#aM)" d="M28.22 227.96h24.62v1.59H28.22z"/><path fill="url(#aN)" d="M28.22 235.2h24.62v1.59H28.22z"/><path fill="url(#aO)" d="M28.22 242.44h24.62v1.59H28.22z"/><path fill="url(#aP)" d="M28.22 249.69h24.62v1.59H28.22z"/><path fill="url(#aQ)" d="M23.58 256.93h33.91v1.59H23.58z"/><path fill="url(#aR)" d="M28.07 264.17h24.62v1.59H28.07z"/><path fill="url(#aS)" d="M28.07 271.42h24.62v1.59H28.07z"/><path fill="url(#aT)" d="M28.07 278.66h24.62v1.59H28.07z"/><path fill="url(#aU)" d="M28.07 285.9h24.62v1.59H28.07z"/><path fill="url(#aV)" d="M23.42 293.15h33.91v1.59H23.42z"/><path fill="url(#aW)" d="M28.22 300.39h24.62v1.59H28.22z"/><path fill="url(#aX)" d="M28.22 307.64h24.62v1.59H28.22z"/><path fill="url(#aY)" d="M28.22 314.88h24.62v1.59H28.22z"/><path fill="url(#aZ)" d="M28.22 322.12h24.62v1.59H28.22z"/><path fill="url(#ba)" d="M23.58 329.37h33.91v1.59H23.58z"/><path fill="url(#bb)" d="M28.22 336.61h24.62v1.59H28.22z"/><path fill="url(#bc)" d="M28.22 343.85h24.62v1.59H28.22z"/><path fill="url(#bd)" d="M28.22 351.1h24.62v1.59H28.22z"/><path fill="url(#be)" d="M28.22 358.34h24.62v1.59H28.22z"/><path fill="url(#bf)" d="M23.58 365.58h33.91v1.59H23.58z"/><path fill="url(#bg)" d="M23.58 112.29h33.91v1.59H23.58z"/><path fill="url(#bh)" d="M28.22 119.53h24.62v1.59H28.22z"/><path fill="url(#bi)" d="M28.22 126.78h24.62v1.59H28.22z"/><path fill="url(#bj)" d="M28.22 134.02h24.62v1.59H28.22z"/><path fill="url(#bk)" d="M28.22 141.26h24.62v1.59H28.22z"/><path fill="url(#bl)" d="M23.58 148.51h33.91v1.59H23.58z"/><path fill="url(#bm)" d="M28.07 155.75h24.62v1.59H28.07z"/><path fill="url(#bn)" d="M28.07 163h24.62v1.59H28.07z"/><path fill="url(#bo)" d="M28.07 170.24h24.62v1.59H28.07z"/><path fill="url(#bp)" d="M28.07 177.48h24.62v1.59H28.07z"/><path fill="url(#bq)" d="M23.42 184.73h33.91v1.59H23.42z"/><path fill="url(#br)" d="M28.22 191.97h24.62v1.59H28.22z"/><path fill="url(#bs)" d="M28.22 199.21h24.62v1.59H28.22z"/><path fill="url(#bt)" d="M28.22 206.46h24.62v1.59H28.22z"/><path fill="url(#bu)" d="M28.22 213.7h24.62v1.59H28.22z"/><path fill="url(#bv)" d="M23.58 220.94h33.91v1.59H23.58z"/><path fill="url(#bw)" d="M28.22 228.19h24.62v1.59H28.22z"/><path fill="url(#bx)" d="M28.22 235.43h24.62v1.59H28.22z"/><path fill="url(#by)" d="M28.22 242.67h24.62v1.59H28.22z"/><path fill="url(#bz)" d="M28.22 249.92h24.62v1.59H28.22z"/><path fill="url(#bA)" d="M23.58 257.16h33.91v1.59H23.58z"/><path d="M32.2 484.22V107.58c0-5.46 3.79-9.92 8.42-9.92h.56c4.63 0 8.42 4.46 8.42 9.92v376.64z" fill="#9be0ff"/><g clip-path="url(#bB)"><path fill="#fff" d="M49.64 736.4H32.07V365.99h17.57z"/><path d="M37.97 739.75V368.37h6.22v371.38h-6.24z" fill="#8e8e8e"/><path d="M41.46 368.38v371.26h1.39c.77 0 1.39-1.4 1.39-3.12V368.38zm8.13-.81H32.2v-2.07h17.39z" fill="#a8a8a8"/><path fill="#8e8e8e" d="M49.59 369.62H32.21v-2.07h17.38z"/></g><path fill="#d22c20" d="M16.8 487.48h47.36v11.37H16.8z"/><path d="M76.79 519.5c-.71-15.38-16.73-27.67-36.4-27.67S4.7 504.12 4 519.5z" fill="#d22c20"/><path fill="#a81a16" d="M17.33 495.46H63.9v3.19H17.33z"/><path transform="rotate(-180 40.52 486.085)" fill="url(#bC)" d="M20.12 484.33h40.79v3.5H20.12z"/><path fill="none" d="M0 474.17h112.67v374H0z"/><path d="M164 370.65c-2.84-4.62-8.77-16-8.77-30.23 0-7.8 10.23-6.87 10.23-6.87s10.23-.93 10.23 6.87c0 14.23-5.93 25.61-8.76 30.23-.88 1.45-1.46 2.25-1.46 2.25s-.65-.8-1.47-2.25z" fill="#fff"/><path d="M184.81 343.58a23.12 23.12 0 0 1-4 1.57 46.84 46.84 0 0 1-15.47 1.85 49.68 49.68 0 0 1-12.34-1.86 19 19 0 0 1-5.18-2.18c.79-1 4-2.81 7.1-4.36 1.8-.9 3.59-1.72 4.87-2.3 1.06-.49 1.78-.8 1.87-.83a13.74 13.74 0 0 0 .53-3c.41-3.34.86-8.25.86-8.25h8l.32 3.61.68 7.81c.84.37 1.68.78 2.51 1.22 1.66.87 3.27 1.85 4.72 2.78 3.16 2.07 5.53 3.94 5.53 3.94z" fill="#ffceaa"/><path d="M171.3 327.8q-4.59 2.26-9.14 4.64c.41-3.34.86-8.25.86-8.25h8z" fill="#eda672"/><path d="M148.89 296c-.73 5 .8 19 5.54 24.26s9.68 7.08 13 7.21S178.25 323.24 182 317c4.49-7.51 4.1-21.79 3.17-27.32s-10.31-10.68-19.27-9.21-15.16 3.16-17.01 15.53z" fill="#ffceaa"/><path d="M169.43 310.9c-.91-.47-3-.43-4.68-.16a1.63 1.63 0 0 0-.61.2c-.17.11-.11.33 0 .51a6.54 6.54 0 0 0 1.89 1.33 2.14 2.14 0 0 0 .86.25 2 2 0 0 0 1.21-.52c.57-.43 1.69-1.07 1.33-1.61z" fill="#eda672"/><path d="M133.19 299.16a3.24 3.24 0 0 0 1.6-1.39 4.17 4.17 0 0 1 .66-.9 1.62 1.62 0 0 0 .37-.68 4.63 4.63 0 0 1 3.78-3.45 1 1 0 0 0 .87-1 4.67 4.67 0 0 1 4.67-4.63h.05a1.44 1.44 0 0 0 1.22-.66 6.85 6.85 0 0 1 4.13-2.65c1.59 0 3.37-1.67 3.87-2.56 1.11-2 2.32-1.94 9.3-4a4.11 4.11 0 0 1 2.81.4 1.44 1.44 0 0 0 1 .12 5.14 5.14 0 0 1 3.88.58 1.4 1.4 0 0 0 1.15.14 5.09 5.09 0 0 1 3.94.4 4.93 4.93 0 0 0 2.55.58 4.51 4.51 0 0 1 3.81 1.86 4.75 4.75 0 0 0 1.52 1.37 5.69 5.69 0 0 1 1.14.86 4.92 4.92 0 0 0 2.22 1.25 5.46 5.46 0 0 1 3.88 3.79 5 5 0 0 0 2.59 3.09 5.48 5.48 0 0 1 2.75 3.08 5 5 0 0 0 1.28 1.94 4.57 4.57 0 0 1 1.46 3.48 4.81 4.81 0 0 0 .49 2.29 6.38 6.38 0 0 1-1.52 7.51 5 5 0 0 0-1.65 3.28 8.55 8.55 0 0 1-6.15 7.46 5.13 5.13 0 0 0-2 1.11 11.23 11.23 0 0 1-9.16 2.91 5 5 0 0 0-2.91.5 21.09 21.09 0 0 1-5.57 1.85l-.05-.53c9.68-4.82 13.77-12.42 14.1-22.74v-.27a4.47 4.47 0 0 1-3.39-4.32 4.9 4.9 0 0 1 .08-.77 5 5 0 0 1-4.39-5 6 6 0 0 1 .07-.86 5 5 0 0 1-2.8.86 5.06 5.06 0 0 1-5-4.18 5 5 0 0 1-3.31 1.25 5 5 0 0 1-5-4.62 4.19 4.19 0 0 1-4.31 1.64 5 5 0 0 1 .18 1.22 4.68 4.68 0 0 1-3 4.36 4.65 4.65 0 0 1-3.6 4.12 4.67 4.67 0 0 1-1.77 3.34 19.26 19.26 0 0 0-.08 3.23c.95 8.83 4.61 18.15 13.79 22.6v.54a21.89 21.89 0 0 1-4.26-1.7 5 5 0 0 0-2.81-.5 11.14 11.14 0 0 1-7.18-1.58 3.24 3.24 0 0 0-1.72-.46 8.53 8.53 0 0 1-6.86-3.29 3.16 3.16 0 0 0-1.36-1 6.35 6.35 0 0 1-4-5 3.22 3.22 0 0 0-1-1.87 4.64 4.64 0 0 1-1.43-3 3.13 3.13 0 0 0-.78-1.91 4.67 4.67 0 0 1 1.78-7.4z" fill="#d5532c"/><path d="M158.93 301.81a3.49 3.49 0 0 1 2.73 2.28c.26.77 0 3.46-1.15 4.51a3.47 3.47 0 0 1-1.79.9c-1.17.13-2.95.22-3.9-.57a4.38 4.38 0 0 1-1.45-2.8 4.14 4.14 0 0 1 .19-2.49c.69-1.28 2.26-1.76 3.67-2.11z" fill="#fff"/><path d="M155.8 307.34a3 3 0 0 1-.18-3.48 2.74 2.74 0 0 1 1.06-1 2.08 2.08 0 0 1 1.49-.12 2.21 2.21 0 0 1 1.34 1.72 3.08 3.08 0 0 1-.94 3.22 2.05 2.05 0 0 1-1.52.44 2.07 2.07 0 0 1-1.25-.78z" fill="#4c0c0a"/><path d="M153 305.32a4.51 4.51 0 0 1 3-3.15 5 5 0 0 1 3.64 0 3.94 3.94 0 0 1 2 2.26c.14.36.53.31.58.08a4.4 4.4 0 0 0-3.5-3.79 5.48 5.48 0 0 0-5.66 2.42 3.52 3.52 0 0 0-.56 1.7c-.09.59.4.82.5.48z" fill="#eda672"/><path d="M153.08 304.49l-2.2.13a4 4 0 0 0 2 .83c.03-.45-.05-.63.2-.96z" fill="#eda672"/><path d="M173.75 301.81a3.49 3.49 0 0 0-2.73 2.28c-.27.77 0 3.46 1.15 4.51a3.44 3.44 0 0 0 1.79.9c1.16.13 2.94.22 3.9-.57a4.37 4.37 0 0 0 1.44-2.8 4.06 4.06 0 0 0-.18-2.49c-.69-1.28-2.26-1.76-3.68-2.11z" fill="#fff"/><path d="M176.88 307.34a3 3 0 0 0 .17-3.48 2.64 2.64 0 0 0-1.05-1 2.08 2.08 0 0 0-1.49-.12 2.25 2.25 0 0 0-1.35 1.72 3.1 3.1 0 0 0 .94 3.22 2 2 0 0 0 1.52.44 2.1 2.1 0 0 0 1.26-.78z" fill="#4c0c0a"/><path d="M179.69 305.32a4.5 4.5 0 0 0-2.94-3.15 5.05 5.05 0 0 0-3.65 0 3.92 3.92 0 0 0-2 2.26c-.14.36-.53.31-.58.08a4.4 4.4 0 0 1 3.49-3.79 5.47 5.47 0 0 1 5.66 2.42 3.45 3.45 0 0 1 .57 1.7c.02.59-.47.82-.55.48z" fill="#eda672"/><path d="M179.59 304.49l2.21.13a4 4 0 0 1-2 .83c-.04-.45.05-.63-.21-.96z" fill="#eda672"/><path d="M179 297a35.49 35.49 0 0 0-7.81-1.14A5.92 5.92 0 0 1 179 297zm-25.73 0a35.49 35.49 0 0 1 7.81-1.14 5.93 5.93 0 0 0-7.81 1.14z" fill="#d5532c"/><path d="M173.35 317.8l-.29-.89c-.25-.46-.25.62-.52.82a3.52 3.52 0 0 1-.89.44l-2.65 1c-1.17.91 2.72-.68 3.62-1.24.17-.1.45-.13.54 0 .3.6.38.25.19-.13zm-8.93 1.38l-2.61-1.12a3.34 3.34 0 0 1-.87-.48c-.26-.21-.22-1.29-.49-.84l-.33.88c-.2.37-.13.72.19.18.09-.15.38-.11.54 0 .88.6 4.7 2.34 3.57 1.38z" fill="#aa4c3f"/><path d="M164.93 320.8a4.21 4.21 0 0 0 3.53.23 7.26 7.26 0 0 0 3.59-2.95l-4.23-.48a16.47 16.47 0 0 0-2.22-.07c-.88 0-4 .56-4 .56a9.33 9.33 0 0 0 3.33 2.71z" fill="#aa4c3f"/><path d="M161.39 318a10.64 10.64 0 0 1 2.53-1.26 8.79 8.79 0 0 1 3-.45 8.67 8.67 0 0 1 2.71.48 15 15 0 0 1 2.6 1.21c.32.33-2.51.73-5.14.75-2.93.01-6.09-.39-5.7-.73z" fill="#aa4c3f"/><path d="M185.15 303.09h-1.46v-1.43l-.64-.28c-.37-.16-.67-.26-1-.37l-1-.28c-.65-.16-1.31-.29-2-.39s-1.32-.15-2-.19a19 19 0 0 0-2 0 9.32 9.32 0 0 0-1 .1c-.34 0-.68.12-1 .18a9.14 9.14 0 0 0-1.95.72 8 8 0 0 0-1.72 1.16 6.59 6.59 0 0 0-1.28 1.69l-.08.14h-2.33l-.08-.14a6.56 6.56 0 0 0-1.35-1.63 8.25 8.25 0 0 0-1.72-1.16 9.14 9.14 0 0 0-1.95-.72c-.34-.06-.68-.15-1-.18a8.85 8.85 0 0 0-1-.1 18.75 18.75 0 0 0-2 0c-.67 0-1.34.09-2 .19s-1.32.23-2 .39l-1 .28c-.33.11-.63.21-1 .37l-.64.28v1.43h-1.62a.56.56 0 0 0-.56.56v.54a.56.56 0 0 0 .56.56H150a.59.59 0 0 0 .26-.07q.08.35.18.69a9.26 9.26 0 0 0 .57 1.43 8 8 0 0 0 .83 1.33 6.77 6.77 0 0 0 1.14 1.13 3 3 0 0 0 .67.44 4.37 4.37 0 0 0 .71.37 6.27 6.27 0 0 0 1.5.44 7.11 7.11 0 0 0 1.52.14h.75l.69-.05c.44 0 1-.14 1.44-.2a14.11 14.11 0 0 0 1.42-.37 8.05 8.05 0 0 0 1.39-.59 5.27 5.27 0 0 0 2.23-2.16 3.45 3.45 0 0 0 .31-.77 4.16 4.16 0 0 0 .08-.43v-.67H168v.67a2.5 2.5 0 0 0 .09.43 3.42 3.42 0 0 0 .3.77 5.24 5.24 0 0 0 2.24 2.16 8.3 8.3 0 0 0 1.37.5 14.29 14.29 0 0 0 1.43.37c.47.06 1 .17 1.44.2l.68.05h.76a7 7 0 0 0 1.51-.14 6.35 6.35 0 0 0 1.51-.44 4.37 4.37 0 0 0 .71-.37 3.16 3.16 0 0 0 .66-.44 6.83 6.83 0 0 0 1.15-1.13 8 8 0 0 0 .83-1.33 8.32 8.32 0 0 0 .56-1.43c.07-.21.13-.43.18-.64h1.73a.56.56 0 0 0 .56-.56v-.54a.56.56 0 0 0-.56-.51zm-20.71 2.56a1.73 1.73 0 0 1-.3 1 3.88 3.88 0 0 1-1.72 1.49 7.28 7.28 0 0 1-1.16.43 9.72 9.72 0 0 1-1.24.26c-.43 0-.8.11-1.27.12h-1.29a5.11 5.11 0 0 1-1.2-.17 5.17 5.17 0 0 1-1.11-.37 2.74 2.74 0 0 1-.49-.29 1.8 1.8 0 0 1-.45-.33 5 5 0 0 1-.77-.82 7.17 7.17 0 0 1-.56-1 6.29 6.29 0 0 1-.39-1.13 7 7 0 0 1-.22-1.2c0-.16 0-.33-.05-.5l.13-.05q.41-.17.84-.3a16.3 16.3 0 0 1 1.73-.47 16.18 16.18 0 0 1 3.59-.38 8.34 8.34 0 0 1 .88 0 6.26 6.26 0 0 1 .87.1 8 8 0 0 1 1.65.48 6.85 6.85 0 0 1 1.48.87 5.3 5.3 0 0 1 1.07 1.1zm17-2a8.17 8.17 0 0 1-.22 1.2 7 7 0 0 1-.95 2.15 5 5 0 0 1-.78.82 1.63 1.63 0 0 1-.45.33 2.18 2.18 0 0 1-.49.29 4.91 4.91 0 0 1-1.1.37 5.26 5.26 0 0 1-1.2.17h-1.29c-.47 0-.85-.08-1.28-.12a10.5 10.5 0 0 1-1.24-.26 7.54 7.54 0 0 1-1.15-.43 4 4 0 0 1-1.73-1.49 1.72 1.72 0 0 1-.29-1v-1.17a5.35 5.35 0 0 1 1.08-1.1 6.85 6.85 0 0 1 1.48-.87 7.81 7.81 0 0 1 1.65-.48 6.3 6.3 0 0 1 .86-.1 8.63 8.63 0 0 1 .89 0 17.64 17.64 0 0 1 1.8.09 17.38 17.38 0 0 1 1.78.29 17.16 17.16 0 0 1 1.74.47q.42.13.84.3l.12.05c-.03.11-.04.28-.06.44z" fill="#b53116"/><path d="M137.06 384.12a2.32 2.32 0 0 0-.27.26 1.12 1.12 0 0 1 .27-.26z" style="mix-blend-mode:multiply" fill="#754559" opacity=".4"/><path d="M171 506.68a8.7 8.7 0 0 0 .77-1.85h7.19l3.08 6.1 3.23 5.85 1.91 2.2-1.49.73-9.21-.86z" fill="#ffceaa"/><path d="M171.26 512.16l2.21 14.09h2.12l.41-7.59s-1-4.7-1.65-5.38-3.09-1.12-3.09-1.12z" fill="#59150c"/><path d="M171.46 506.68s2.1.91 3.34 4.58 2.25 7.59 5.3 7.59h6.68a6 6 0 0 1-2-2.38c-.58-1.44-2.77-5.54-2.77-5.54s3.39 5.82 4.29 6.63 3.63 1.57 4 2.91 1.67 5.78-3 5.78H178a3.23 3.23 0 0 1-1.86-2.49c-.43-2-1.57-7.15-2.58-9s-2.1-1.44-2.76-3.68-.26-5.08.66-4.4z" fill="#b53116"/><path d="M164.61 506.42a8.92 8.92 0 0 1-.77-1.85h-7.19l-3.08 6.09-3.23 5.86-1.91 2.2 1.49.72 9.21-.86z" fill="#ffceaa"/><path d="M164.32 511.89L162.11 526H160l-.41-7.59s1-4.71 1.66-5.39 3.07-1.13 3.07-1.13z" fill="#59150c"/><path d="M164.12 506.42s-2.1.9-3.34 4.58-2.24 7.58-5.3 7.58h-6.68a5.85 5.85 0 0 0 2-2.38c.57-1.43 2.76-5.54 2.76-5.54s-3.38 5.82-4.29 6.64-3.63 1.57-4 2.91-1.67 5.78 3 5.78h9.35a3.25 3.25 0 0 0 1.86-2.49c.43-2 1.58-7.16 2.58-9s2.1-1.43 2.77-3.67.17-5.06-.71-4.41z" fill="#b53116"/><path d="M188.89 451.66c0 1.9-10 2.32-22.13 2.32s-21.47.83-21.47-1.07 9.64-3.67 21.74-3.67 21.86.53 21.86 2.42z" fill="#2c222d"/><path d="M171.79 504.93l-.9-31 .65-52.69A6.35 6.35 0 0 1 178 415c3.5 0 10.59 4.26 10.71 10.09a150.14 150.14 0 0 1-1.9 23c-1.19 7.37-8.12 50.33-7.85 57.11a12.77 12.77 0 0 1-7.17-.27zm-8.1 0l.47-31-.66-52.69a6.44 6.44 0 0 0-6.37-6.43c-3.51 0-10.63 1.8-12.59 5 0 0 .35 4.64 1.07 14.64.57 8 8.19 52.94 8.21 53 .65 6.25 3.27 10.65 2.62 17.32 0 .04 2.56 1.23 7.25.16z" fill="#ffceaa"/><path d="M187.79 450.73l-.42 3c-2.67-.75-12.61-1.19-16.12-.89l-.18-3.45zm-41.29 2.07l.24 1.95c2.67-.75 13.56-2 17.07-1.72v-3.14z" fill="#7f5d41"/><path d="M138.47 413c-1.91 5.35-2.2 14.07-2.2 14.07.17 3.76 2.2 8.42 8.5 12.7l.48 13.33c5.35-1.67 18.55-2.33 22.61-2.38 4.66-.07 15.23 0 20.94 1.07l.95-12.14a12.67 12.67 0 0 0 9.05-12.43s-.24-8.75-3.1-14.58c-1.12-2.3-.59-1.57-3.68-9-6.06-3.73-12.92-6.27-24.88-6.27s-18.79 3-24.87 7.35c-2.86 6.98-1.9 2.87-3.8 8.28z" fill="#3b2d3c"/><path fill="#d8e2ef" d="M167.11 337.13v26.59l-11.69-26.89 11.69.3z"/><path fill="#fff" d="M167.11 334.05v3.08l-4.08 6.65-7.78-5.57 5.13-4.16h6.73z"/><path fill="#d8e2ef" d="M167.11 337.13v26.59l11.88-26.89-11.88.3z"/><path fill="#fff" d="M167.11 334.05v3.08l4.08 6.65 7.78-5.57-5.14-4.16h-6.72z"/><path d="M167.11 363.72V407s.77 8.76-.08 8.76-28.56-3-28.56-3 10-22.05 9.46-28.87l-1-11.51s-3.75-3-4.25-11.07c-.43-7-2.86-15.26.82-19.1a8.83 8.83 0 0 1 7.83-2.91z" fill="#d9a155"/><path d="M147.82 371.06s3.28 2.07 8.82 1.47 8.34-2.42 7.79-2.76-5.66.9-10.41.34-9.73-1.81-6.2.95z" fill="#ba823a"/><path d="M167.11 363.72V407s.12 8.67.36 8.67c.85 0 28.28-2.9 28.28-2.9s-8.41-21.94-8.29-28.78c.09-5 .18-11.51.18-11.51s4.73-6.79 4.73-14.91 1.08-9.49-.62-13.38-8.88-4.88-8.88-4.88z" fill="#d9a155"/><path d="M186.4 371.06a14.59 14.59 0 0 1-8.82 1.47c-5.54-.6-8.34-2.42-7.79-2.76s5.66.9 10.4.34 9.74-1.81 6.21.95z" fill="#ba823a"/><path fill="#b0772b" d="M167.11 363.8v51.59l-.31.47V363.3l.31.5zm0 0v51.59l.31.47V363.3l-.31.5z"/><path fill="#ffceaa" d="M133.26 417.55l-.87-3.11 2.6-4.76 5.07-1.42 2.35 8.38-9.15.91z"/><path d="M137.11 417.13a3.82 3.82 0 1 1 2.65-4.71 3.82 3.82 0 0 1-2.65 4.71z" fill="#ffceaa"/><path d="M138 420.2a3.82 3.82 0 1 1 2.65-4.71 3.82 3.82 0 0 1-2.65 4.71z" fill="#ffceaa"/><path d="M139.53 416.46a3.82 3.82 0 1 1 2.65-4.71 3.82 3.82 0 0 1-2.65 4.71z" fill="#ffceaa"/><path fill="#ffceaa" d="M131.967 407.725l7.344-2.067 2.084 7.402-7.345 2.067z"/><path d="M142.06 415.24c-1.6-1.88-2.5-3.77-2-4.2s2.23.74 3.84 2.62 2.5 3.76 2 4.2-2.23-.75-3.84-2.62z" fill="#ffceaa"/><path d="M141.18 418.58c-1-3.53-1.3-6.55-.69-6.72s1.92 2.57 2.91 6.1 1.3 6.54.69 6.71-1.92-2.57-2.91-6.09zm-1.89 1.78c-1.07-3.8-1.44-7-.83-7.21s2 2.79 3 6.58 1.44 7 .83 7.22-1.94-2.8-3-6.59z" fill="#ffceaa"/><path d="M136.93 420.49c-1-3.53-1.3-6.55-.69-6.72s1.92 2.57 2.91 6.09 1.29 6.55.68 6.72-1.91-2.58-2.9-6.09z" fill="#ffceaa"/><path d="M134.18 419.23c-.87-3.12-1.09-5.8-.48-6s1.83 2.24 2.7 5.35 1.09 5.8.48 6-1.83-2.24-2.7-5.35z" fill="#ffceaa"/><path d="M139.19 404.77c-.66.27.22 1.29.5 2.16s.58 2 .58 2l-7.47 1.8-.81-2.86z" fill="#ededed"/><path d="M139.73 406.94l-.18-.73v-4.99l.05-.87c.14-2.33.4-4.69.73-7.06s.74-4.73 1.19-7.09 1-4.71 1.5-7.06 1.13-4.68 1.76-7 1.3-4.63 2-6.93 1.46-4.56 2.25-6.81 1.62-4.47 2.5-6.66L138 347.35q-1 3.73-1.9 7.47t-1.58 7.49c-.48 2.5-.91 5-1.31 7.51s-.73 5-1 7.55-.56 5-.76 7.58-.36 5.09-.44 7.66-.08 5.15.05 7.8v1c0 .33.05.67.08 1s0 .67.08 1l.12 1v.52l.08.52c0 .35.1.69.17 1.06l.11.54v.55l.28 1.13z" fill="#d9a155"/><path d="M147.08 342.92a6.77 6.77 0 0 0-5.41.21 7.08 7.08 0 0 0-2.21 1.69 7.42 7.42 0 0 0-1.44 2.53 7.61 7.61 0 0 0-.33 2.89 7.09 7.09 0 0 0 .79 2.65 6.82 6.82 0 0 0 4.22 3.38 7.27 7.27 0 0 0 5.37-.57 7.12 7.12 0 0 0 2.07-1.63 6.74 6.74 0 0 0 1.32-2.34 6.5 6.5 0 0 0 .3-2.65 7 7 0 0 0-.71-2.52 7.37 7.37 0 0 0-3.97-3.64z" fill="#d9a155"/><path fill="#ffceaa" d="M200.62 418.18l.87-3.11-2.59-4.76-5.08-1.43-2.35 8.39 9.15.91z"/><path d="M196.77 417.76a3.82 3.82 0 1 0-2.65-4.71 3.82 3.82 0 0 0 2.65 4.71z" fill="#ffceaa"/><path d="M195.91 420.83a3.82 3.82 0 1 0-2.65-4.71 3.82 3.82 0 0 0 2.65 4.71z" fill="#ffceaa"/><path d="M194.35 417.08a3.82 3.82 0 1 0-2.64-4.7 3.82 3.82 0 0 0 2.64 4.7z" fill="#ffceaa"/><path fill="#ffceaa" d="M191.237 413.785l2.076-7.382 7.325 2.06-2.076 7.382z"/><path d="M191.82 415.86c1.6-1.87 2.5-3.76 2-4.19s-2.23.74-3.84 2.62-2.5 3.76-2 4.2 2.23-.75 3.84-2.63z" fill="#ffceaa"/><path d="M192.7 419.21c1-3.53 1.3-6.55.69-6.72s-1.92 2.57-2.91 6.09-1.3 6.55-.69 6.72 1.92-2.57 2.91-6.09zm1.9 1.79c1.06-3.79 1.43-7 .82-7.21s-2 2.8-3 6.59-1.44 7-.83 7.21 1.94-2.81 3.01-6.59zm2.4.11c1-3.52 1.3-6.54.69-6.71s-1.92 2.57-2.91 6.09-1.29 6.55-.68 6.72 1.9-2.57 2.9-6.1z" fill="#ffceaa"/><path d="M199.7 419.85c.87-3.11 1.09-5.8.48-6s-1.83 2.24-2.7 5.35-1.09 5.8-.48 6 1.83-2.2 2.7-5.35z" fill="#ffceaa"/><path d="M194.71 405.27c.66.27-.23 1.45-.52 2.32s-.56 1.8-.56 1.8l7.47 1.81.81-2.86z" fill="#ededed"/><path d="M194.17 407.54l.16-.71v-5.85c-.15-2.33-.41-4.69-.74-7.06s-.74-4.73-1.19-7.09-1-4.71-1.5-7.06-1.13-4.68-1.76-7-1.29-4.64-2-6.93-1.46-4.56-2.25-6.81-1.62-4.47-2.5-6.67l13.49-4.36c.69 2.49 1.31 5 1.9 7.47s1.1 5 1.58 7.49.91 5 1.31 7.51.74 5 1 7.54.56 5.05.76 7.59.36 5.09.44 7.66.08 5.15 0 7.79l-.05 1c0 .33-.05.67-.08 1s0 .67-.08 1l-.12 1v.51l-.08.53c0 .35-.1.69-.17 1.06l-.11.54-.05.27v.28l-.28 1.13z" fill="#d9a155"/><path d="M186.8 343.54a6.77 6.77 0 0 1 5.41.22 6.94 6.94 0 0 1 2.21 1.69 7.26 7.26 0 0 1 1.77 5.42 7 7 0 0 1-.79 2.64 6.84 6.84 0 0 1-4.22 3.39 7.26 7.26 0 0 1-7.44-2.21 6.6 6.6 0 0 1-1.32-2.33 6.52 6.52 0 0 1-.3-2.65 7 7 0 0 1 .71-2.52 7.35 7.35 0 0 1 3.97-3.65z" fill="#d9a155"/><path d="M149.81 352.2c3.58 1.19 4.77 1.52 4.77 1.52s-1.14 1.76-2.11 3.3 6.65 2.88 14.53 6.46c0 0-7.39-14.28-10.07-26.8-.65-3.06-7.48 2.14-8.34 5.28-1.01 3.67-.72 9.59 1.22 10.24zm34.52.42c-3.56 1.12-4.74 1.42-4.74 1.42s1.1 1.76 2 3.3-6.61 2.72-14.45 6.12c0 0 7.54-14 10.4-26.28.69-3 7.35 2.25 8.14 5.36.96 3.64.57 9.46-1.35 10.08z" fill="#b0772b"/><path d="M189.92 439.39l3.17-4.91a40.64 40.64 0 0 0 5.59-5.23s-1 4.4-3.09 6.66a16.47 16.47 0 0 1-5.67 3.48zm-44.55.36l-3.1-4.55a54.18 54.18 0 0 1-5.66-5.59s.95 4.4 3.09 6.66a16.38 16.38 0 0 0 5.67 3.48z" fill="#2c222d"/></g></svg>