<svg xmlns="http://www.w3.org/2000/svg" xmlns:xlink="http://www.w3.org/1999/xlink" viewBox="0 0 332.11 848.17"><defs><clipPath id="d"><path d="M210.87 101.44v.06c-.1.36-1.77.89-2.14 1a38.89 38.89 0 0 1-5.63 1.11c-28.22 4.14-71.94 1.48-76.12-1.62l-.16-.18c.87-4.83 52.68-6.34 74.28-3.51 5.61.7 9.27 1.7 9.77 3.14z" fill="#a81a16"/></clipPath><linearGradient id="b" x1="-182.75" y1="288.95" x2="-148.36" y2="288.95" gradientTransform="matrix(1 0 0 -1 460.49 577.9)" gradientUnits="userSpaceOnUse"><stop offset=".01" stop-color="#d22c20"/><stop offset=".31" stop-color="#e7342e"/><stop offset=".51" stop-color="#ef3733"/><stop offset=".72" stop-color="#e6332d"/><stop offset="1" stop-color="#d22c20"/></linearGradient><linearGradient id="a" x1="311.62" y1="329.93" x2="278.86" y2="329.93" gradientUnits="userSpaceOnUse"><stop offset=".05" stop-color="#d3d2d2"/><stop offset=".37" stop-color="#9a9a9c"/><stop offset=".64" stop-color="#9a9a9c"/><stop offset="1" stop-color="#d1d6d5"/></linearGradient><linearGradient id="e" x1="307.23" y1="337.17" x2="283.44" y2="337.17" xlink:href="#a"/><linearGradient id="f" x1="307.23" y1="344.42" x2="283.44" y2="344.42" xlink:href="#a"/><linearGradient id="g" x1="307.23" y1="351.66" x2="283.44" y2="351.66" xlink:href="#a"/><linearGradient id="h" x1="307.23" y1="358.9" x2="283.44" y2="358.9" xlink:href="#a"/><linearGradient id="i" x1="311.62" y1="366.15" x2="278.86" y2="366.15" xlink:href="#a"/><linearGradient id="j" x1="307.38" y1="373.39" x2="283.59" y2="373.39" xlink:href="#a"/><linearGradient id="k" x1="307.38" y1="380.63" x2="283.59" y2="380.63" xlink:href="#a"/><linearGradient id="l" x1="307.38" y1="387.88" x2="283.59" y2="387.88" xlink:href="#a"/><linearGradient id="m" x1="307.38" y1="395.12" x2="283.59" y2="395.12" xlink:href="#a"/><linearGradient id="n" x1="311.78" y1="402.37" x2="279.01" y2="402.37" xlink:href="#a"/><linearGradient id="o" x1="307.23" y1="409.61" x2="283.44" y2="409.61" xlink:href="#a"/><linearGradient id="p" x1="307.23" y1="416.85" x2="283.44" y2="416.85" xlink:href="#a"/><linearGradient id="q" x1="307.23" y1="424.1" x2="283.44" y2="424.1" xlink:href="#a"/><linearGradient id="r" x1="307.23" y1="431.34" x2="283.44" y2="431.34" xlink:href="#a"/><linearGradient id="s" x1="311.62" y1="438.58" x2="278.86" y2="438.58" xlink:href="#a"/><linearGradient id="t" x1="307.23" y1="445.83" x2="283.44" y2="445.83" xlink:href="#a"/><linearGradient id="u" x1="307.23" y1="453.07" x2="283.44" y2="453.07" xlink:href="#a"/><linearGradient id="v" x1="307.23" y1="460.31" x2="283.44" y2="460.31" xlink:href="#a"/><linearGradient id="w" x1="307.23" y1="467.56" x2="283.44" y2="467.56" xlink:href="#a"/><linearGradient id="x" x1="311.62" y1="474.8" x2="278.86" y2="474.8" xlink:href="#a"/><linearGradient id="y" x1="311.62" y1="221.51" x2="278.86" y2="221.51" xlink:href="#a"/><linearGradient id="z" x1="307.23" y1="228.75" x2="283.44" y2="228.75" xlink:href="#a"/><linearGradient id="A" x1="307.23" y1="235.99" x2="283.44" y2="235.99" xlink:href="#a"/><linearGradient id="B" x1="307.23" y1="243.24" x2="283.44" y2="243.24" xlink:href="#a"/><linearGradient id="C" x1="307.23" y1="250.48" x2="283.44" y2="250.48" xlink:href="#a"/><linearGradient id="D" x1="311.62" y1="257.73" x2="278.86" y2="257.73" xlink:href="#a"/><linearGradient id="E" x1="307.38" y1="264.97" x2="283.59" y2="264.97" xlink:href="#a"/><linearGradient id="F" x1="307.38" y1="272.21" x2="283.59" y2="272.21" xlink:href="#a"/><linearGradient id="G" x1="307.38" y1="279.46" x2="283.59" y2="279.46" xlink:href="#a"/><linearGradient id="H" x1="307.38" y1="286.7" x2="283.59" y2="286.7" xlink:href="#a"/><linearGradient id="I" x1="311.78" y1="293.94" x2="279.01" y2="293.94" xlink:href="#a"/><linearGradient id="J" x1="307.23" y1="301.19" x2="283.44" y2="301.19" xlink:href="#a"/><linearGradient id="K" x1="307.23" y1="308.43" x2="283.44" y2="308.43" xlink:href="#a"/><linearGradient id="L" x1="307.23" y1="315.67" x2="283.44" y2="315.67" xlink:href="#a"/><linearGradient id="M" x1="307.23" y1="322.92" x2="283.44" y2="322.92" xlink:href="#a"/><linearGradient id="N" x1="311.62" y1="330.16" x2="278.86" y2="330.16" xlink:href="#a"/><linearGradient id="O" x1="307.23" y1="337.4" x2="283.44" y2="337.4" xlink:href="#a"/><linearGradient id="P" x1="307.23" y1="344.65" x2="283.44" y2="344.65" xlink:href="#a"/><linearGradient id="Q" x1="307.23" y1="351.89" x2="283.44" y2="351.89" xlink:href="#a"/><linearGradient id="R" x1="307.23" y1="359.13" x2="283.44" y2="359.13" xlink:href="#a"/><linearGradient id="S" x1="311.62" y1="366.38" x2="278.86" y2="366.38" xlink:href="#a"/><linearGradient id="T" x1="311.62" y1="113.09" x2="278.86" y2="113.09" xlink:href="#a"/><linearGradient id="U" x1="307.23" y1="120.33" x2="283.44" y2="120.33" xlink:href="#a"/><linearGradient id="V" x1="307.23" y1="127.57" x2="283.44" y2="127.57" xlink:href="#a"/><linearGradient id="W" x1="307.23" y1="134.82" x2="283.44" y2="134.82" xlink:href="#a"/><linearGradient id="X" x1="307.23" y1="142.06" x2="283.44" y2="142.06" xlink:href="#a"/><linearGradient id="Y" x1="311.62" y1="149.3" x2="278.86" y2="149.3" xlink:href="#a"/><linearGradient id="Z" x1="307.38" y1="156.55" x2="283.59" y2="156.55" xlink:href="#a"/><linearGradient id="aa" x1="307.38" y1="163.79" x2="283.59" y2="163.79" xlink:href="#a"/><linearGradient id="ab" x1="307.38" y1="171.03" x2="283.59" y2="171.03" xlink:href="#a"/><linearGradient id="ac" x1="307.38" y1="178.28" x2="283.59" y2="178.28" xlink:href="#a"/><linearGradient id="ad" x1="311.78" y1="185.52" x2="279.01" y2="185.52" xlink:href="#a"/><linearGradient id="ae" x1="307.23" y1="192.76" x2="283.44" y2="192.76" xlink:href="#a"/><linearGradient id="af" x1="307.23" y1="200.01" x2="283.44" y2="200.01" xlink:href="#a"/><linearGradient id="ag" x1="307.23" y1="207.25" x2="283.44" y2="207.25" xlink:href="#a"/><linearGradient id="ah" x1="307.23" y1="214.49" x2="283.44" y2="214.49" xlink:href="#a"/><linearGradient id="ai" x1="311.62" y1="221.74" x2="278.86" y2="221.74" xlink:href="#a"/><linearGradient id="aj" x1="307.23" y1="228.98" x2="283.44" y2="228.98" xlink:href="#a"/><linearGradient id="ak" x1="307.23" y1="236.23" x2="283.44" y2="236.23" xlink:href="#a"/><linearGradient id="al" x1="307.23" y1="243.47" x2="283.44" y2="243.47" xlink:href="#a"/><linearGradient id="am" x1="307.23" y1="250.71" x2="283.44" y2="250.71" xlink:href="#a"/><linearGradient id="an" x1="311.62" y1="257.96" x2="278.86" y2="257.96" xlink:href="#a"/><clipPath id="ao"><path fill="none" d="M286.53 112.37h17.37v371.86h-17.37z"/></clipPath><linearGradient id="c" x1="275.18" y1="486.08" x2="315.97" y2="486.08" gradientUnits="userSpaceOnUse"><stop offset=".01" stop-color="#d22c20"/><stop offset=".26" stop-color="#e2322b"/><stop offset=".51" stop-color="#ef3733"/><stop offset="1" stop-color="#d22c20"/></linearGradient><linearGradient id="ap" x1="-368.75" y1="288.95" x2="-334.36" y2="288.95" gradientTransform="translate(392.71)" xlink:href="#b"/><linearGradient id="aq" x1="497.62" y1="329.93" x2="464.86" y2="329.93" gradientTransform="matrix(-1 0 0 1 522.09 0)" xlink:href="#a"/><linearGradient id="ar" x1="493.23" y1="337.17" x2="469.44" y2="337.17" gradientTransform="matrix(-1 0 0 1 522.09 0)" xlink:href="#a"/><linearGradient id="as" x1="493.23" y1="344.42" x2="469.44" y2="344.42" gradientTransform="matrix(-1 0 0 1 522.09 0)" xlink:href="#a"/><linearGradient id="at" x1="493.23" y1="351.66" x2="469.44" y2="351.66" gradientTransform="matrix(-1 0 0 1 522.09 0)" xlink:href="#a"/><linearGradient id="au" x1="493.23" y1="358.9" x2="469.44" y2="358.9" gradientTransform="matrix(-1 0 0 1 522.09 0)" xlink:href="#a"/><linearGradient id="av" x1="497.62" y1="366.15" x2="464.86" y2="366.15" gradientTransform="matrix(-1 0 0 1 522.09 0)" xlink:href="#a"/><linearGradient id="aw" x1="493.38" y1="373.39" x2="469.59" y2="373.39" gradientTransform="matrix(-1 0 0 1 522.09 0)" xlink:href="#a"/><linearGradient id="ax" x1="493.38" y1="380.63" x2="469.59" y2="380.63" gradientTransform="matrix(-1 0 0 1 522.09 0)" xlink:href="#a"/><linearGradient id="ay" x1="493.38" y1="387.88" x2="469.59" y2="387.88" gradientTransform="matrix(-1 0 0 1 522.09 0)" xlink:href="#a"/><linearGradient id="az" x1="493.38" y1="395.12" x2="469.59" y2="395.12" gradientTransform="matrix(-1 0 0 1 522.09 0)" xlink:href="#a"/><linearGradient id="aA" x1="497.78" y1="402.37" x2="465.01" y2="402.37" gradientTransform="matrix(-1 0 0 1 522.09 0)" xlink:href="#a"/><linearGradient id="aB" x1="493.23" y1="409.61" x2="469.44" y2="409.61" gradientTransform="matrix(-1 0 0 1 522.09 0)" xlink:href="#a"/><linearGradient id="aC" x1="493.23" y1="416.85" x2="469.44" y2="416.85" gradientTransform="matrix(-1 0 0 1 522.09 0)" xlink:href="#a"/><linearGradient id="aD" x1="493.23" y1="424.1" x2="469.44" y2="424.1" gradientTransform="matrix(-1 0 0 1 522.09 0)" xlink:href="#a"/><linearGradient id="aE" x1="493.23" y1="431.34" x2="469.44" y2="431.34" gradientTransform="matrix(-1 0 0 1 522.09 0)" xlink:href="#a"/><linearGradient id="aF" x1="497.62" y1="438.58" x2="464.86" y2="438.58" gradientTransform="matrix(-1 0 0 1 522.09 0)" xlink:href="#a"/><linearGradient id="aG" x1="493.23" y1="445.83" x2="469.44" y2="445.83" gradientTransform="matrix(-1 0 0 1 522.09 0)" xlink:href="#a"/><linearGradient id="aH" x1="493.23" y1="453.07" x2="469.44" y2="453.07" gradientTransform="matrix(-1 0 0 1 522.09 0)" xlink:href="#a"/><linearGradient id="aI" x1="493.23" y1="460.31" x2="469.44" y2="460.31" gradientTransform="matrix(-1 0 0 1 522.09 0)" xlink:href="#a"/><linearGradient id="aJ" x1="493.23" y1="467.56" x2="469.44" y2="467.56" gradientTransform="matrix(-1 0 0 1 522.09 0)" xlink:href="#a"/><linearGradient id="aK" x1="497.62" y1="474.8" x2="464.86" y2="474.8" gradientTransform="matrix(-1 0 0 1 522.09 0)" xlink:href="#a"/><linearGradient id="aL" x1="497.62" y1="221.51" x2="464.86" y2="221.51" gradientTransform="matrix(-1 0 0 1 522.09 0)" xlink:href="#a"/><linearGradient id="aM" x1="493.23" y1="228.75" x2="469.44" y2="228.75" gradientTransform="matrix(-1 0 0 1 522.09 0)" xlink:href="#a"/><linearGradient id="aN" x1="493.23" y1="235.99" x2="469.44" y2="235.99" gradientTransform="matrix(-1 0 0 1 522.09 0)" xlink:href="#a"/><linearGradient id="aO" x1="493.23" y1="243.24" x2="469.44" y2="243.24" gradientTransform="matrix(-1 0 0 1 522.09 0)" xlink:href="#a"/><linearGradient id="aP" x1="493.23" y1="250.48" x2="469.44" y2="250.48" gradientTransform="matrix(-1 0 0 1 522.09 0)" xlink:href="#a"/><linearGradient id="aQ" x1="497.62" y1="257.73" x2="464.86" y2="257.73" gradientTransform="matrix(-1 0 0 1 522.09 0)" xlink:href="#a"/><linearGradient id="aR" x1="493.38" y1="264.97" x2="469.59" y2="264.97" gradientTransform="matrix(-1 0 0 1 522.09 0)" xlink:href="#a"/><linearGradient id="aS" x1="493.38" y1="272.21" x2="469.59" y2="272.21" gradientTransform="matrix(-1 0 0 1 522.09 0)" xlink:href="#a"/><linearGradient id="aT" x1="493.38" y1="279.46" x2="469.59" y2="279.46" gradientTransform="matrix(-1 0 0 1 522.09 0)" xlink:href="#a"/><linearGradient id="aU" x1="493.38" y1="286.7" x2="469.59" y2="286.7" gradientTransform="matrix(-1 0 0 1 522.09 0)" xlink:href="#a"/><linearGradient id="aV" x1="497.78" y1="293.94" x2="465.01" y2="293.94" gradientTransform="matrix(-1 0 0 1 522.09 0)" xlink:href="#a"/><linearGradient id="aW" x1="493.23" y1="301.19" x2="469.44" y2="301.19" gradientTransform="matrix(-1 0 0 1 522.09 0)" xlink:href="#a"/><linearGradient id="aX" x1="493.23" y1="308.43" x2="469.44" y2="308.43" gradientTransform="matrix(-1 0 0 1 522.09 0)" xlink:href="#a"/><linearGradient id="aY" x1="493.23" y1="315.67" x2="469.44" y2="315.67" gradientTransform="matrix(-1 0 0 1 522.09 0)" xlink:href="#a"/><linearGradient id="aZ" x1="493.23" y1="322.92" x2="469.44" y2="322.92" gradientTransform="matrix(-1 0 0 1 522.09 0)" xlink:href="#a"/><linearGradient id="ba" x1="497.62" y1="330.16" x2="464.86" y2="330.16" gradientTransform="matrix(-1 0 0 1 522.09 0)" xlink:href="#a"/><linearGradient id="bb" x1="493.23" y1="337.4" x2="469.44" y2="337.4" gradientTransform="matrix(-1 0 0 1 522.09 0)" xlink:href="#a"/><linearGradient id="bc" x1="493.23" y1="344.65" x2="469.44" y2="344.65" gradientTransform="matrix(-1 0 0 1 522.09 0)" xlink:href="#a"/><linearGradient id="bd" x1="493.23" y1="351.89" x2="469.44" y2="351.89" gradientTransform="matrix(-1 0 0 1 522.09 0)" xlink:href="#a"/><linearGradient id="be" x1="493.23" y1="359.13" x2="469.44" y2="359.13" gradientTransform="matrix(-1 0 0 1 522.09 0)" xlink:href="#a"/><linearGradient id="bf" x1="497.62" y1="366.38" x2="464.86" y2="366.38" gradientTransform="matrix(-1 0 0 1 522.09 0)" xlink:href="#a"/><linearGradient id="bg" x1="497.62" y1="113.09" x2="464.86" y2="113.09" gradientTransform="matrix(-1 0 0 1 522.09 0)" xlink:href="#a"/><linearGradient id="bh" x1="493.23" y1="120.33" x2="469.44" y2="120.33" gradientTransform="matrix(-1 0 0 1 522.09 0)" xlink:href="#a"/><linearGradient id="bi" x1="493.23" y1="127.57" x2="469.44" y2="127.57" gradientTransform="matrix(-1 0 0 1 522.09 0)" xlink:href="#a"/><linearGradient id="bj" x1="493.23" y1="134.82" x2="469.44" y2="134.82" gradientTransform="matrix(-1 0 0 1 522.09 0)" xlink:href="#a"/><linearGradient id="bk" x1="493.23" y1="142.06" x2="469.44" y2="142.06" gradientTransform="matrix(-1 0 0 1 522.09 0)" xlink:href="#a"/><linearGradient id="bl" x1="497.62" y1="149.3" x2="464.86" y2="149.3" gradientTransform="matrix(-1 0 0 1 522.09 0)" xlink:href="#a"/><linearGradient id="bm" x1="493.38" y1="156.55" x2="469.59" y2="156.55" gradientTransform="matrix(-1 0 0 1 522.09 0)" xlink:href="#a"/><linearGradient id="bn" x1="493.38" y1="163.79" x2="469.59" y2="163.79" gradientTransform="matrix(-1 0 0 1 522.09 0)" xlink:href="#a"/><linearGradient id="bo" x1="493.38" y1="171.03" x2="469.59" y2="171.03" gradientTransform="matrix(-1 0 0 1 522.09 0)" xlink:href="#a"/><linearGradient id="bp" x1="493.38" y1="178.28" x2="469.59" y2="178.28" gradientTransform="matrix(-1 0 0 1 522.09 0)" xlink:href="#a"/><linearGradient id="bq" x1="497.78" y1="185.52" x2="465.01" y2="185.52" gradientTransform="matrix(-1 0 0 1 522.09 0)" xlink:href="#a"/><linearGradient id="br" x1="493.23" y1="192.76" x2="469.44" y2="192.76" gradientTransform="matrix(-1 0 0 1 522.09 0)" xlink:href="#a"/><linearGradient id="bs" x1="493.23" y1="200.01" x2="469.44" y2="200.01" gradientTransform="matrix(-1 0 0 1 522.09 0)" xlink:href="#a"/><linearGradient id="bt" x1="493.23" y1="207.25" x2="469.44" y2="207.25" gradientTransform="matrix(-1 0 0 1 522.09 0)" xlink:href="#a"/><linearGradient id="bu" x1="493.23" y1="214.49" x2="469.44" y2="214.49" gradientTransform="matrix(-1 0 0 1 522.09 0)" xlink:href="#a"/><linearGradient id="bv" x1="497.62" y1="221.74" x2="464.86" y2="221.74" gradientTransform="matrix(-1 0 0 1 522.09 0)" xlink:href="#a"/><linearGradient id="bw" x1="493.23" y1="228.98" x2="469.44" y2="228.98" gradientTransform="matrix(-1 0 0 1 522.09 0)" xlink:href="#a"/><linearGradient id="bx" x1="493.23" y1="236.23" x2="469.44" y2="236.23" gradientTransform="matrix(-1 0 0 1 522.09 0)" xlink:href="#a"/><linearGradient id="by" x1="493.23" y1="243.47" x2="469.44" y2="243.47" gradientTransform="matrix(-1 0 0 1 522.09 0)" xlink:href="#a"/><linearGradient id="bz" x1="493.23" y1="250.71" x2="469.44" y2="250.71" gradientTransform="matrix(-1 0 0 1 522.09 0)" xlink:href="#a"/><linearGradient id="bA" x1="497.62" y1="257.96" x2="464.86" y2="257.96" gradientTransform="matrix(-1 0 0 1 522.09 0)" xlink:href="#a"/><clipPath id="bB"><path transform="rotate(-180 40.885 298.3)" fill="none" d="M32.2 112.37h17.37v371.86H32.2z"/></clipPath><linearGradient id="bC" x1="461.18" y1="486.08" x2="501.97" y2="486.08" gradientTransform="matrix(1 0 0 -1 -441.06 972.17)" xlink:href="#c"/></defs><g style="isolation:isolate"><path fill="#a2a2a2" d="M98.24 519.65H85.33l-2.66-55.58h18.23l-2.66 55.58z"/><path fill="#bdbdbd" d="M82.67 448.64h18.24v7.71H82.67z"/><path fill="#696969" d="M82.67 456.36h18.24v7.71H82.67z"/><path fill="#a2a2a2" d="M250.9 519.65H238l-2.68-55.58h18.24l-2.66 55.58z"/><path fill="#bdbdbd" d="M235.32 448.64h18.24v7.71h-18.24z"/><path fill="#696969" d="M235.32 456.36h18.24v7.71h-18.24z"/><path fill="#9e6741" d="M71 439.51h194v12.99H71z"/><rect x="14.65" y="125.24" width="308.13" height="9.26" rx="2.8" ry="2.8" fill="#8e8e8e"/><path d="M322.73 129.32h-308v-2.06a2.37 2.37 0 0 1 2.59-2h303a2.28 2.28 0 0 1 2.51 2s-.16 2.02-.1 2.06z" fill="#a8a8a8"/><path d="M212.15 100.37v.32a2.14 2.14 0 0 1-1.17 1l-.38.08v-.09l.24-.16v-.06c-2.55-6.55-71.5-5-82.21-1.06-1.67.69-1.61 1-1.84 1.39l-.39-.08a1.66 1.66 0 0 1-.84-.81v-.16c.24-1.22 3.23-1.89 4.37-2.17 21.58-4.7 66.51-2.21 76.11-.48 1.89.34 5.52 1.04 6.11 2.28z" fill="#e26d6d"/><path d="M210.87 101.44v.06c-.1.36-1.77.89-2.14 1a38.89 38.89 0 0 1-5.63 1.11c-28.22 4.14-71.94 1.48-76.12-1.62l-.16-.18c.87-4.83 52.68-6.34 74.28-3.51 5.61.7 9.27 1.7 9.77 3.14z" fill="#a81a16"/><g clip-path="url(#d)" fill="#a81a16"><path d="M183.44 95.2v19.59l35.5-12.55S192 91.71 183.44 95.2zm-35.88 14.36l-1-16.3S123.7 95 123.5 100.63s24.06 8.93 24.06 8.93z" style="mix-blend-mode:multiply" opacity=".3"/></g><path d="M258.24 0h-24.17a42.15 42.15 0 0 0-42 42v.08h10.38a31.78 31.78 0 0 1 31.67-30.92h24.13a31.78 31.78 0 0 1 31.69 31.69v32.01h10.37V42a42.15 42.15 0 0 0-42.07-42z" fill="#d22c20"/><path fill="#d22c20" d="M192.47 42.43l-.76 5.6 2.54 2.4 6.56-.83 1.19-5.09-.61-3.77.16-.78h-8.56l-.52 2.47z"/><path d="M203.21 40h-3.08c0 .34-.06.67-.07 1h-5.72v-1h-3.08v1H190v6.88a3.72 3.72 0 0 0 3.73 3.73h6.5a3.71 3.71 0 0 0 3.77-3.77V41h-.82c-.03-.37.01-.7.03-1zm-2.32 4.56v3.33a.66.66 0 0 1-.66.66h-6.5a.69.69 0 0 1-.47-.19.66.66 0 0 1-.19-.46v-3.85h7.82z" fill="#d22c20"/><path fill="#a81a16" d="M203.15 40.99h-11.84v-.97h11.84zm97.34 28.38h-10.64v-.89h10.64z"/><path fill="#d22c20" d="M315.98 492.83h-40.83V92.76h40.83z"/><ellipse cx="295.56" cy="94.09" rx="20.46" ry="21.68" fill="#d22c20"/><path fill="#a81a16" d="M275.39 90.96l40.35-.13-.39-1.69h-39.61l-.35 1.82z"/><path transform="rotate(-180 294.94 288.95)" fill="url(#b)" d="M277.75 90.95h34.39v395.99h-34.39z"/><path fill="url(#a)" d="M278.61 329.14h33.91v1.59h-33.91z"/><path fill="url(#e)" d="M283.26 336.38h24.62v1.59h-24.62z"/><path fill="url(#f)" d="M283.26 343.62h24.62v1.59h-24.62z"/><path fill="url(#g)" d="M283.26 350.87h24.62v1.59h-24.62z"/><path fill="url(#h)" d="M283.26 358.11h24.62v1.59h-24.62z"/><path fill="url(#i)" d="M278.61 365.35h33.91v1.59h-33.91z"/><path fill="url(#j)" d="M283.41 372.6h24.62v1.59h-24.62z"/><path fill="url(#k)" d="M283.41 379.84h24.62v1.59h-24.62z"/><path fill="url(#l)" d="M283.41 387.08h24.62v1.59h-24.62z"/><path fill="url(#m)" d="M283.41 394.33h24.62v1.59h-24.62z"/><path fill="url(#n)" d="M278.77 401.57h33.91v1.59h-33.91z"/><path fill="url(#o)" d="M283.26 408.81h24.62v1.59h-24.62z"/><path fill="url(#p)" d="M283.26 416.06h24.62v1.59h-24.62z"/><path fill="url(#q)" d="M283.26 423.3h24.62v1.59h-24.62z"/><path fill="url(#r)" d="M283.26 430.54h24.62v1.59h-24.62z"/><path fill="url(#s)" d="M278.61 437.79h33.91v1.59h-33.91z"/><path fill="url(#t)" d="M283.26 445.03h24.62v1.59h-24.62z"/><path fill="url(#u)" d="M283.26 452.28h24.62v1.59h-24.62z"/><path fill="url(#v)" d="M283.26 459.52h24.62v1.59h-24.62z"/><path fill="url(#w)" d="M283.26 466.76h24.62v1.59h-24.62z"/><path fill="url(#x)" d="M278.61 474.01h33.91v1.59h-33.91z"/><path fill="url(#y)" d="M278.61 220.71h33.91v1.59h-33.91z"/><path fill="url(#z)" d="M283.26 227.96h24.62v1.59h-24.62z"/><path fill="url(#A)" d="M283.26 235.2h24.62v1.59h-24.62z"/><path fill="url(#B)" d="M283.26 242.44h24.62v1.59h-24.62z"/><path fill="url(#C)" d="M283.26 249.69h24.62v1.59h-24.62z"/><path fill="url(#D)" d="M278.61 256.93h33.91v1.59h-33.91z"/><path fill="url(#E)" d="M283.41 264.17h24.62v1.59h-24.62z"/><path fill="url(#F)" d="M283.41 271.42h24.62v1.59h-24.62z"/><path fill="url(#G)" d="M283.41 278.66h24.62v1.59h-24.62z"/><path fill="url(#H)" d="M283.41 285.9h24.62v1.59h-24.62z"/><path fill="url(#I)" d="M278.77 293.15h33.91v1.59h-33.91z"/><path fill="url(#J)" d="M283.26 300.39h24.62v1.59h-24.62z"/><path fill="url(#K)" d="M283.26 307.64h24.62v1.59h-24.62z"/><path fill="url(#L)" d="M283.26 314.88h24.62v1.59h-24.62z"/><path fill="url(#M)" d="M283.26 322.12h24.62v1.59h-24.62z"/><path fill="url(#N)" d="M278.61 329.37h33.91v1.59h-33.91z"/><path fill="url(#O)" d="M283.26 336.61h24.62v1.59h-24.62z"/><path fill="url(#P)" d="M283.26 343.85h24.62v1.59h-24.62z"/><path fill="url(#Q)" d="M283.26 351.1h24.62v1.59h-24.62z"/><path fill="url(#R)" d="M283.26 358.34h24.62v1.59h-24.62z"/><path fill="url(#S)" d="M278.61 365.58h33.91v1.59h-33.91z"/><path fill="url(#T)" d="M278.61 112.29h33.91v1.59h-33.91z"/><path fill="url(#U)" d="M283.26 119.53h24.62v1.59h-24.62z"/><path fill="url(#V)" d="M283.26 126.78h24.62v1.59h-24.62z"/><path fill="url(#W)" d="M283.26 134.02h24.62v1.59h-24.62z"/><path fill="url(#X)" d="M283.26 141.26h24.62v1.59h-24.62z"/><path fill="url(#Y)" d="M278.61 148.51h33.91v1.59h-33.91z"/><path fill="url(#Z)" d="M283.41 155.75h24.62v1.59h-24.62z"/><path fill="url(#aa)" d="M283.41 163h24.62v1.59h-24.62z"/><path fill="url(#ab)" d="M283.41 170.24h24.62v1.59h-24.62z"/><path fill="url(#ac)" d="M283.41 177.48h24.62v1.59h-24.62z"/><path fill="url(#ad)" d="M278.77 184.73h33.91v1.59h-33.91z"/><path fill="url(#ae)" d="M283.26 191.97h24.62v1.59h-24.62z"/><path fill="url(#af)" d="M283.26 199.21h24.62v1.59h-24.62z"/><path fill="url(#ag)" d="M283.26 206.46h24.62v1.59h-24.62z"/><path fill="url(#ah)" d="M283.26 213.7h24.62v1.59h-24.62z"/><path fill="url(#ai)" d="M278.61 220.94h33.91v1.59h-33.91z"/><path fill="url(#aj)" d="M283.26 228.19h24.62v1.59h-24.62z"/><path fill="url(#ak)" d="M283.26 235.43h24.62v1.59h-24.62z"/><path fill="url(#al)" d="M283.26 242.67h24.62v1.59h-24.62z"/><path fill="url(#am)" d="M283.26 249.92h24.62v1.59h-24.62z"/><path fill="url(#an)" d="M278.61 257.16h33.91v1.59h-33.91z"/><path d="M303.89 484.22V107.58c0-5.46-3.79-9.92-8.42-9.92h-.56c-4.63 0-8.41 4.46-8.41 9.92v376.64z" fill="#9be0ff"/><g clip-path="url(#ao)"><path fill="#fff" d="M286.45 185.99h17.57V556.4h-17.57z"/><path d="M291.89 559.75V188.38h6.22v371.37h-6.24.02z" fill="#8e8e8e"/><path d="M294.63 188.38v371.26h-1.39c-.76 0-1.38-1.4-1.38-3.12V188.38zm-8.12-2.88h17.39v2.07h-17.39z" fill="#a8a8a8"/><path fill="#8e8e8e" d="M286.5 187.54h17.38v2.07H286.5z"/></g><path fill="#d22c20" d="M319.29 498.85h-47.36v-11.37h47.36z"/><path d="M259.3 519.5c.71-15.38 16.73-27.67 36.4-27.67s35.69 12.29 36.41 27.67z" fill="#d22c20"/><path fill="#a81a16" d="M318.76 498.66h-46.57v-3.19h46.57z"/><path fill="url(#c)" d="M275.18 484.33h40.79v3.5h-40.79z"/><path d="M77.85 0H102a42.15 42.15 0 0 1 42 42v.08h-10.32A31.79 31.79 0 0 0 102 11.19H77.87a31.79 31.79 0 0 0-31.69 31.69v31.98H35.83V42A42.15 42.15 0 0 1 77.85 0z" fill="#d22c20"/><path fill="#d22c20" d="M143.62 42.43l.76 5.6-2.53 2.4-6.57-.83-1.18-5.09.6-3.77-.16-.78h8.57l.51 2.47z"/><path d="M133 41h-.82v6.87a3.72 3.72 0 0 0 2.82 3.61 3.63 3.63 0 0 0 .87.1h6.5a3.74 3.74 0 0 0 3.74-3.73V41h-1.28c0-.34 0-.68-.05-1h-3.08c0 .34 0 .68.05 1H136c0-.34 0-.67-.07-1h-3.09c.07.3.16.63.16 1zm2.25 3.08H143v3.81a.66.66 0 0 1-.19.46.67.67 0 0 1-.47.19h-6.5a.65.65 0 0 1-.65-.66v-3.8z" fill="#d22c20"/><path fill="#a81a16" d="M132.95 40.02h11.84v.97h-11.84zM35.61 68.47h10.64v.89H35.61z"/><path fill="#d22c20" d="M20.11 92.76h40.83v400.07H20.11z"/><ellipse cx="40.53" cy="94.09" rx="20.46" ry="21.68" fill="#d22c20"/><path fill="#a81a16" d="M60.71 90.96l-40.36-.13.4-1.69h39.6l.36 1.82z"/><path fill="url(#ap)" d="M23.96 90.95h34.39v395.99H23.96z"/><path fill="url(#aq)" d="M23.58 329.14h33.91v1.59H23.58z"/><path fill="url(#ar)" d="M28.22 336.38h24.62v1.59H28.22z"/><path fill="url(#as)" d="M28.22 343.62h24.62v1.59H28.22z"/><path fill="url(#at)" d="M28.22 350.87h24.62v1.59H28.22z"/><path fill="url(#au)" d="M28.22 358.11h24.62v1.59H28.22z"/><path fill="url(#av)" d="M23.58 365.35h33.91v1.59H23.58z"/><path fill="url(#aw)" d="M28.07 372.6h24.62v1.59H28.07z"/><path fill="url(#ax)" d="M28.07 379.84h24.62v1.59H28.07z"/><path fill="url(#ay)" d="M28.07 387.08h24.62v1.59H28.07z"/><path fill="url(#az)" d="M28.07 394.33h24.62v1.59H28.07z"/><path fill="url(#aA)" d="M23.42 401.57h33.91v1.59H23.42z"/><path fill="url(#aB)" d="M28.22 408.81h24.62v1.59H28.22z"/><path fill="url(#aC)" d="M28.22 416.06h24.62v1.59H28.22z"/><path fill="url(#aD)" d="M28.22 423.3h24.62v1.59H28.22z"/><path fill="url(#aE)" d="M28.22 430.54h24.62v1.59H28.22z"/><path fill="url(#aF)" d="M23.58 437.79h33.91v1.59H23.58z"/><path fill="url(#aG)" d="M28.22 445.03h24.62v1.59H28.22z"/><path fill="url(#aH)" d="M28.22 452.28h24.62v1.59H28.22z"/><path fill="url(#aI)" d="M28.22 459.52h24.62v1.59H28.22z"/><path fill="url(#aJ)" d="M28.22 466.76h24.62v1.59H28.22z"/><path fill="url(#aK)" d="M23.58 474.01h33.91v1.59H23.58z"/><path fill="url(#aL)" d="M23.58 220.71h33.91v1.59H23.58z"/><path fill="url(#aM)" d="M28.22 227.96h24.62v1.59H28.22z"/><path fill="url(#aN)" d="M28.22 235.2h24.62v1.59H28.22z"/><path fill="url(#aO)" d="M28.22 242.44h24.62v1.59H28.22z"/><path fill="url(#aP)" d="M28.22 249.69h24.62v1.59H28.22z"/><path fill="url(#aQ)" d="M23.58 256.93h33.91v1.59H23.58z"/><path fill="url(#aR)" d="M28.07 264.17h24.62v1.59H28.07z"/><path fill="url(#aS)" d="M28.07 271.42h24.62v1.59H28.07z"/><path fill="url(#aT)" d="M28.07 278.66h24.62v1.59H28.07z"/><path fill="url(#aU)" d="M28.07 285.9h24.62v1.59H28.07z"/><path fill="url(#aV)" d="M23.42 293.15h33.91v1.59H23.42z"/><path fill="url(#aW)" d="M28.22 300.39h24.62v1.59H28.22z"/><path fill="url(#aX)" d="M28.22 307.64h24.62v1.59H28.22z"/><path fill="url(#aY)" d="M28.22 314.88h24.62v1.59H28.22z"/><path fill="url(#aZ)" d="M28.22 322.12h24.62v1.59H28.22z"/><path fill="url(#ba)" d="M23.58 329.37h33.91v1.59H23.58z"/><path fill="url(#bb)" d="M28.22 336.61h24.62v1.59H28.22z"/><path fill="url(#bc)" d="M28.22 343.85h24.62v1.59H28.22z"/><path fill="url(#bd)" d="M28.22 351.1h24.62v1.59H28.22z"/><path fill="url(#be)" d="M28.22 358.34h24.62v1.59H28.22z"/><path fill="url(#bf)" d="M23.58 365.58h33.91v1.59H23.58z"/><path fill="url(#bg)" d="M23.58 112.29h33.91v1.59H23.58z"/><path fill="url(#bh)" d="M28.22 119.53h24.62v1.59H28.22z"/><path fill="url(#bi)" d="M28.22 126.78h24.62v1.59H28.22z"/><path fill="url(#bj)" d="M28.22 134.02h24.62v1.59H28.22z"/><path fill="url(#bk)" d="M28.22 141.26h24.62v1.59H28.22z"/><path fill="url(#bl)" d="M23.58 148.51h33.91v1.59H23.58z"/><path fill="url(#bm)" d="M28.07 155.75h24.62v1.59H28.07z"/><path fill="url(#bn)" d="M28.07 163h24.62v1.59H28.07z"/><path fill="url(#bo)" d="M28.07 170.24h24.62v1.59H28.07z"/><path fill="url(#bp)" d="M28.07 177.48h24.62v1.59H28.07z"/><path fill="url(#bq)" d="M23.42 184.73h33.91v1.59H23.42z"/><path fill="url(#br)" d="M28.22 191.97h24.62v1.59H28.22z"/><path fill="url(#bs)" d="M28.22 199.21h24.62v1.59H28.22z"/><path fill="url(#bt)" d="M28.22 206.46h24.62v1.59H28.22z"/><path fill="url(#bu)" d="M28.22 213.7h24.62v1.59H28.22z"/><path fill="url(#bv)" d="M23.58 220.94h33.91v1.59H23.58z"/><path fill="url(#bw)" d="M28.22 228.19h24.62v1.59H28.22z"/><path fill="url(#bx)" d="M28.22 235.43h24.62v1.59H28.22z"/><path fill="url(#by)" d="M28.22 242.67h24.62v1.59H28.22z"/><path fill="url(#bz)" d="M28.22 249.92h24.62v1.59H28.22z"/><path fill="url(#bA)" d="M23.58 257.16h33.91v1.59H23.58z"/><path d="M32.2 484.22V107.58c0-5.46 3.79-9.92 8.42-9.92h.56c4.63 0 8.42 4.46 8.42 9.92v376.64z" fill="#9be0ff"/><g clip-path="url(#bB)"><path fill="#fff" d="M49.64 555.4H32.07V184.99h17.57z"/><path d="M37.97 558.75V187.37h6.22v371.38h-6.24.02z" fill="#8e8e8e"/><path d="M41.46 187.38v371.26h1.39c.77 0 1.39-1.4 1.39-3.12V187.38zm8.13-.81H32.2v-2.07h17.39z" fill="#a8a8a8"/><path fill="#8e8e8e" d="M49.59 188.62H32.21v-2.07h17.38z"/></g><path fill="#d22c20" d="M16.8 487.48h47.36v11.37H16.8z"/><path d="M76.79 519.5c-.71-15.38-16.73-27.67-36.4-27.67S4.7 504.12 4 519.5z" fill="#d22c20"/><path fill="#a81a16" d="M17.33 495.46H63.9v3.19H17.33z"/><path transform="rotate(-180 40.52 486.085)" fill="url(#bC)" d="M20.12 484.33h40.79v3.5H20.12z"/><path fill="none" d="M0 474.17h112.67v374H0z"/><path d="M163.94 370.55c-2.83-4.62-8.74-16-8.74-30.15 0-7.78 10.2-6.85 10.2-6.85s10.2-.93 10.2 6.85c0 14.19-5.91 25.53-8.74 30.15-.87 1.44-1.45 2.24-1.45 2.24s-.6-.79-1.47-2.24z" fill="#fff"/><path d="M184.74 343.55a22.39 22.39 0 0 1-4 1.56 46.6 46.6 0 0 1-15.45 1.83 50 50 0 0 1-12.29-1.83 19 19 0 0 1-5.16-2.18c.79-1 4-2.8 7.08-4.34 1.8-.9 3.58-1.73 4.85-2.3l1.87-.83a13.73 13.73 0 0 0 .53-3c.41-3.33.85-8.23.85-8.23h8l.31 3.6.68 7.79c.84.37 1.67.78 2.5 1.22 1.66.87 3.27 1.84 4.71 2.77 3.17 2.07 5.52 3.94 5.52 3.94z" fill="#ffceaa"/><path d="M171.27 327.81q-4.58 2.26-9.11 4.63c.41-3.33.85-8.23.85-8.23h8z" fill="#eda672"/><path d="M149.19 296.36c-.74 4.94.79 18.93 5.52 24.19s9.65 7.06 12.94 7.19 10.81-4.24 14.52-10.44c4.48-7.49 4.08-21.73 3.16-27.25s-10.25-10.64-19.19-9.2S151 284 149.19 296.36z" fill="#ffceaa"/><path d="M169.41 311c-.91-.47-3-.43-4.66-.16a1.52 1.52 0 0 0-.61.2c-.18.12-.12.33 0 .51a6.35 6.35 0 0 0 1.88 1.33 2.14 2.14 0 0 0 .85.25 2.09 2.09 0 0 0 1.22-.52c.56-.47 1.68-1.11 1.32-1.61z" fill="#eda672"/><path d="M133.27 299.25a3.07 3.07 0 0 0 1.59-1.38 4.58 4.58 0 0 1 .67-.9 1.56 1.56 0 0 0 .36-.67 4.62 4.62 0 0 1 3.78-3.44 1 1 0 0 0 .86-1 4.66 4.66 0 0 1 4.66-4.62h.05a1.47 1.47 0 0 0 1.22-.66 6.84 6.84 0 0 1 4.11-2.64c1.59 0 3.36-1.66 3.86-2.55 1.11-2 2.31-1.93 9.27-4a4.11 4.11 0 0 1 2.81.4 1.42 1.42 0 0 0 1 .12 5.11 5.11 0 0 1 3.87.58 1.41 1.41 0 0 0 1.15.14 5.11 5.11 0 0 1 3.93.39 4.79 4.79 0 0 0 2.54.59 4.49 4.49 0 0 1 3.8 1.85 5.08 5.08 0 0 0 1.51 1.37 5 5 0 0 1 1.14.86 5 5 0 0 0 2.21 1.24 5.48 5.48 0 0 1 3.88 3.78 4.9 4.9 0 0 0 2.58 3.08 5.41 5.41 0 0 1 2.74 3.07 5 5 0 0 0 1.27 1.94 4.54 4.54 0 0 1 1.46 3.46 4.74 4.74 0 0 0 .49 2.28 6.36 6.36 0 0 1-1.52 7.5 5 5 0 0 0-1.64 3.27 8.54 8.54 0 0 1-6.13 7.44 5 5 0 0 0-2 1.1 11.2 11.2 0 0 1-9.14 2.9 5 5 0 0 0-2.9.5 20.84 20.84 0 0 1-5.55 1.85l-.05-.53c9.66-4.81 13.74-12.39 14.06-22.68v-.27a4.44 4.44 0 0 1-3.38-4.3 4.9 4.9 0 0 1 .08-.77 5 5 0 0 1-4.38-5 4.8 4.8 0 0 1 .08-.85 5 5 0 0 1-2.8.85 5 5 0 0 1-4.95-4.16 5 5 0 0 1-8.32-3.37 4.25 4.25 0 0 1-4.3 1.65 4.85 4.85 0 0 1 .18 1.21 4.67 4.67 0 0 1-3 4.35 4.64 4.64 0 0 1-3.59 4.1 4.63 4.63 0 0 1-1.77 3.33 21.52 21.52 0 0 0-.08 3.22c.95 8.81 4.61 18.1 13.75 22.54v.54a22.81 22.81 0 0 1-4.25-1.69 4.78 4.78 0 0 0-2.8-.5 11.14 11.14 0 0 1-7.16-1.58 3.23 3.23 0 0 0-1.71-.46 8.48 8.48 0 0 1-6.85-3.29 3.13 3.13 0 0 0-1.35-1 6.32 6.32 0 0 1-4-5 3.2 3.2 0 0 0-1-1.87 4.56 4.56 0 0 1-1.42-3 3.19 3.19 0 0 0-.78-1.91 4.65 4.65 0 0 1 1.77-7.38z" fill="#d5532c"/><path d="M158.9 302.08c1.87.42 2.8 1.27 2.5 4.3a2.94 2.94 0 0 1-.5 1.61 5.33 5.33 0 0 1-1.41.86c-1.22.63-2.94 1.36-4.21.62a4.13 4.13 0 0 1-1.9-3.09 4.06 4.06 0 0 1 .19-2.47c.68-1.28 2.24-1.75 3.65-2.11z" fill="#fff"/><path d="M156.53 307a1.84 1.84 0 0 1-.09-2 1.35 1.35 0 0 1 .56-.55 1 1 0 0 1 .78-.07 1.27 1.27 0 0 1 .72 1 1.88 1.88 0 0 1-.5 1.85 1 1 0 0 1-.81.24 1.1 1.1 0 0 1-.66-.47z" fill="#4c0c0a"/><path d="M153 305.57a4.48 4.48 0 0 1 2.92-3.13 5 5 0 0 1 3.62 0 3.91 3.91 0 0 1 2 2.23c.14.36.53.31.58.09a4.36 4.36 0 0 0-3.47-3.76 5.4 5.4 0 0 0-5.62 2.4 3.29 3.29 0 0 0-.56 1.68c-.04.6.45.83.53.49z" fill="#eda672"/><path d="M153.1 304.75l-2.2.13a4.11 4.11 0 0 0 2 .83c.03-.42-.06-.63.2-.96z" fill="#eda672"/><path d="M173.62 302.08c-1.87.42-2.8 1.27-2.5 4.3a2.94 2.94 0 0 0 .5 1.61 5.33 5.33 0 0 0 1.41.86c1.22.63 2.94 1.36 4.21.62a4.09 4.09 0 0 0 1.89-3.09 4 4 0 0 0-.18-2.47c-.68-1.28-2.24-1.75-3.65-2.11z" fill="#fff"/><path d="M176 307a1.84 1.84 0 0 0 .09-2 1.53 1.53 0 0 0-.55-.55 1 1 0 0 0-.78-.06 1.21 1.21 0 0 0-.7 1 1.85 1.85 0 0 0 .49 1.83 1 1 0 0 0 .79.25 1.12 1.12 0 0 0 .66-.47z" fill="#4c0c0a"/><path d="M179.52 305.57a4.48 4.48 0 0 0-2.92-3.13 5 5 0 0 0-3.62 0 3.87 3.87 0 0 0-2 2.23c-.14.36-.53.31-.58.09a4.36 4.36 0 0 1 3.47-3.76 5.4 5.4 0 0 1 5.62 2.4 3.39 3.39 0 0 1 .56 1.68c.04.6-.45.83-.53.49z" fill="#eda672"/><path d="M179.42 304.75l2.2.13a4.15 4.15 0 0 1-2 .83c-.03-.42.05-.63-.2-.96z" fill="#eda672"/><path d="M177.81 298.79a36.33 36.33 0 0 0-6.23-4.81 5.92 5.92 0 0 1 6.23 4.81zm-23.6.13a35.78 35.78 0 0 1 6.23-4.8 6 6 0 0 0-4 1.21 6 6 0 0 0-2.23 3.59z" fill="#d5532c"/><path d="M185.08 303.17h-1.46v-1.42l-.63-.28c-.37-.16-.66-.26-1-.37s-.65-.19-1-.27a16.18 16.18 0 0 0-2-.39 18.89 18.89 0 0 0-4-.17 8.91 8.91 0 0 0-1 .1 8.56 8.56 0 0 0-1 .19 9.11 9.11 0 0 0-1.95.71 8.18 8.18 0 0 0-1.71 1.16 6.54 6.54 0 0 0-1.36 1.62l-.07.14h-2.33l-.08-.14a6.51 6.51 0 0 0-1.35-1.62 8 8 0 0 0-1.72-1.16 8.84 8.84 0 0 0-1.94-.71 8.56 8.56 0 0 0-1-.19 9.32 9.32 0 0 0-1-.1 18.83 18.83 0 0 0-4 .17 16.73 16.73 0 0 0-2 .39l-1 .27a10.24 10.24 0 0 0-1 .37l-.64.28v1.42h-1.61a.56.56 0 0 0-.56.56v.54a.56.56 0 0 0 .56.56h1.61a.59.59 0 0 0 .26-.07 5.91 5.91 0 0 0 .19.69 8.68 8.68 0 0 0 1.39 2.76 6.65 6.65 0 0 0 1.14 1.11 3.66 3.66 0 0 0 .66.45 5.34 5.34 0 0 0 .71.37 7.35 7.35 0 0 0 1.5.44 6.47 6.47 0 0 0 1.51.13h.97l.68-.05c.45 0 1-.13 1.45-.2a10.1 10.1 0 0 0 1.41-.37 7.21 7.21 0 0 0 1.38-.58 5.25 5.25 0 0 0 2.23-2.15 3.45 3.45 0 0 0 .31-.77c0-.14.06-.28.08-.44v-.66H168v.66a2.85 2.85 0 0 0 .09.44 4 4 0 0 0 .3.77 5.3 5.3 0 0 0 2.23 2.15 7.49 7.49 0 0 0 1.38.58 10.61 10.61 0 0 0 1.42.37c.48.07 1 .18 1.44.2l.68.05h.76a6.47 6.47 0 0 0 1.51-.13 7.54 7.54 0 0 0 1.5-.44 4.68 4.68 0 0 0 .7-.37 3.41 3.41 0 0 0 .67-.45 6.65 6.65 0 0 0 1.14-1.11 8.68 8.68 0 0 0 1.39-2.76c.07-.21.12-.43.17-.64h1.73a.56.56 0 0 0 .56-.56v-.54a.56.56 0 0 0-.59-.54zm-20.65 2.55a1.75 1.75 0 0 1-.29 1 3.91 3.91 0 0 1-1.72 1.48 6.43 6.43 0 0 1-1.16.43 9.94 9.94 0 0 1-1.23.26c-.43 0-.8.11-1.27.12h-1.29a5.26 5.26 0 0 1-1.2-.17 5.08 5.08 0 0 1-1.1-.37 3.43 3.43 0 0 1-.49-.28 2.13 2.13 0 0 1-.45-.34 5.45 5.45 0 0 1-.77-.82 7.05 7.05 0 0 1-.56-1 6.26 6.26 0 0 1-.38-1.13 8 8 0 0 1-.23-1.2v-.5l.13-.05.83-.3c.57-.18 1.15-.33 1.73-.46a17.84 17.84 0 0 1 1.78-.29 17.64 17.64 0 0 1 1.8-.09 8.34 8.34 0 0 1 .88 0 6.3 6.3 0 0 1 .86.1 7.81 7.81 0 0 1 1.65.48 7.32 7.32 0 0 1 1.48.86 5.5 5.5 0 0 1 1.06 1.1zm17-2a6.86 6.86 0 0 1-.22 1.2 6.29 6.29 0 0 1-.39 1.13 6.2 6.2 0 0 1-.56 1 5 5 0 0 1-.77.82 1.9 1.9 0 0 1-.45.34 2.87 2.87 0 0 1-.48.28 6.47 6.47 0 0 1-2.3.54h-1.29c-.47 0-.84-.09-1.27-.12a10.5 10.5 0 0 1-1.24-.26 6.62 6.62 0 0 1-1.15-.43 3.91 3.91 0 0 1-1.72-1.48 1.75 1.75 0 0 1-.29-1v-1.16a5.85 5.85 0 0 1 1.07-1.1 6.81 6.81 0 0 1 1.48-.86 7.64 7.64 0 0 1 1.65-.48 6.12 6.12 0 0 1 .86-.1 8.34 8.34 0 0 1 .88 0 17.64 17.64 0 0 1 1.8.09 17.84 17.84 0 0 1 1.78.29c.58.13 1.16.28 1.73.46l.83.3.13.05c-.09.12-.1.29-.12.45z" fill="#b53116"/><path d="M169.44 310.93c-.89-.46-2.95-.41-4.55-.15a1.46 1.46 0 0 0-.59.19c-.17.11-.11.32 0 .5a5.9 5.9 0 0 0 1.84 1.29 1.87 1.87 0 0 0 .83.25 2 2 0 0 0 1.18-.51c.55-.42 1.65-1.04 1.29-1.57z" fill="#eda672"/><path d="M172.5 318.24a5 5 0 0 1-4.68 4.07c-5.75.4-7-4.44-7-4.44zm0-1.33s-1.09-1.6-5.83-1.6a9.31 9.31 0 0 0-5.44 1.48z" fill="#aa4c3f"/><path d="M161.23 316.79a2.78 2.78 0 0 0-.5 1.27.66.66 0 0 0 .35.69 12.53 12.53 0 0 0 6.08 1.82 9.79 9.79 0 0 0 5-1.57c.68-.4.3-.28.57-.7s-.22-1.56-.47-1.51z" fill="#4c0c0a"/><path d="M161.43 318.92c.92.86 2.61 1.65 5.73 1.65 2.62 0 4.14-.67 5-1.57.14-.58.06-1-.33-1.15.45-.2.51-.55.36-1.06h-10.76c0 .49-.1.82.5 1-.59.14-.51 1-.5 1.13z" fill="#fff"/><path d="M161.08 318.76a3 3 0 0 0-.67 0 .59.59 0 0 0-.48.25c0 .08 0 .16-.07.24a.24.24 0 0 1-.16.18.21.21 0 0 1-.2-.11.6.6 0 0 1-.06-.23l-.05-.34a.65.65 0 0 1 0-.28c0-.09.15-.16.23-.12s.13.22.24.24.13 0 .18-.07a2.44 2.44 0 0 0 .63-.83c.07-.16.17-.31.26-.47l.14-.26c0-.06.15-.11.15-.18-.03.68-.1 1.3-.14 1.98zm11.48-.01a4.7 4.7 0 0 1 .68.06.63.63 0 0 1 .47.26 1 1 0 0 1 .07.24c0 .08.08.16.16.17a.21.21 0 0 0 .2-.11.6.6 0 0 0 .06-.23l.05-.34a.53.53 0 0 0 0-.28.18.18 0 0 0-.23-.11c-.1 0-.12.22-.24.24a.21.21 0 0 1-.17-.08 2.41 2.41 0 0 1-.64-.82c-.07-.17-.17-.32-.25-.48a2.15 2.15 0 0 1-.14-.26c0-.06-.12-.08-.12-.15.03.67.06 1.21.1 1.89z" fill="#4c0c0a"/><path d="M137.14 384l-.28.26a1.18 1.18 0 0 1 .28-.26z" style="mix-blend-mode:multiply" fill="#754559" opacity=".4"/><path d="M171 506.78a9.41 9.41 0 0 0 .76-1.85h7.17L182 511l3.22 5.84 1.91 2.19-1.49.73-9.18-.86z" fill="#ffceaa"/><path d="M171.23 512.24l2.21 14h2.11l.41-7.56s-1-4.7-1.65-5.38-3.08-1.06-3.08-1.06z" fill="#59150c"/><path d="M171.44 506.78s2.09.9 3.33 4.56 2.23 7.57 5.28 7.57h6.66a5.87 5.87 0 0 1-2-2.38C184.14 515.1 182 511 182 511s3.38 5.81 4.28 6.61 3.62 1.57 4 2.91 1.66 5.76-2.95 5.76H178a3.22 3.22 0 0 1-1.85-2.48c-.43-2-1.57-7.14-2.57-9s-2.09-1.43-2.76-3.67-.3-5 .62-4.35z" fill="#b53116"/><path d="M164.6 506.51a9.11 9.11 0 0 1-.76-1.84h-7.17l-3.07 6.08-3.22 5.84-1.91 2.19 1.49.72 9.18-.86z" fill="#ffceaa"/><path d="M164.32 512l-2.21 14H160l-.41-7.57s1-4.69 1.65-5.37 3.08-1.06 3.08-1.06z" fill="#59150c"/><path d="M164.11 506.51s-2.09.91-3.33 4.57-2.23 7.56-5.28 7.56h-6.66a5.88 5.88 0 0 0 2-2.37c.57-1.43 2.76-5.52 2.76-5.52s-3.38 5.8-4.28 6.61-3.62 1.57-4 2.9-1.66 5.77 3 5.77h9.32a3.25 3.25 0 0 0 1.86-2.49c.43-2 1.57-7.13 2.57-9s2.09-1.42 2.76-3.66.17-5.01-.72-4.37z" fill="#b53116"/><path d="M188.81 451.32c0 1.89-10 2.32-22.07 2.32s-21.4.82-21.4-1.07S155 448.9 167 448.9s21.81.53 21.81 2.42z" fill="#2c222d"/><path d="M171.76 505l-.9-30.89.66-52.54a6.32 6.32 0 0 1 6.4-6.25c3.49 0 10.57 4.25 10.69 10.06a151.84 151.84 0 0 1-1.9 22.9c-1.19 7.36-8.1 50.19-7.83 56.95a12.81 12.81 0 0 1-7.12-.23zm-8.07 0l.46-30.89-.65-52.54a6.43 6.43 0 0 0-6.36-6.41c-3.49 0-10.6 1.79-12.55 5 0 0 .35 4.63 1.06 14.59.57 8 8.17 52.8 8.19 52.86.65 6.23 3.26 10.62 2.61 17.27 0 .03 2.55 1.21 7.24.12z" fill="#ffceaa"/><path d="M187.72 450.39l-.42 3c-2.67-.74-12.58-1.18-16.08-.89l-.17-3.44zm-41.18 2.07l.24 1.93c2.67-.74 13.53-2 17-1.71v-3.13z" fill="#7f5d41"/><path d="M138.53 412.71c-1.89 5.34-2.19 14-2.19 14 .18 3.74 2.19 8.39 8.48 12.66l.48 13.29c5.34-1.66 18.49-2.32 22.54-2.37 4.64-.07 15.19 0 20.88 1.07l.95-12.11a12.63 12.63 0 0 0 9-12.4s-.24-8.72-3.08-14.53c-1.13-2.3-.6-1.57-3.68-9-6-3.72-12.88-6.26-24.8-6.26s-18.74 3-24.8 7.33c-2.84 7.08-1.88 2.99-3.78 8.32z" fill="#3b2d3c"/><path fill="#d8e2ef" d="M167.09 337.11v26.52l-11.65-26.82 11.65.3z"/><path fill="#fff" d="M167.09 334.05v3.06l-4.06 6.63-7.76-5.55 5.12-4.14h6.7z"/><path fill="#d8e2ef" d="M167.09 337.12v26.51l11.85-26.82-11.85.31z"/><path fill="#fff" d="M167.09 334.05v3.06l4.07 6.63 7.76-5.55-5.12-4.14h-6.71z"/><path d="M167.09 363.63v43.14s.77 8.73-.08 8.73-28.47-3-28.47-3 10-22 9.43-28.79l-1-11.48s-3.73-2.95-4.23-11c-.43-6.94-2.85-15.22.82-19.05a8.79 8.79 0 0 1 7.8-2.9z" fill="#d9a155"/><path d="M147.86 371s3.27 2.07 8.8 1.47 8.31-2.42 7.76-2.76-5.64.9-10.37.34-9.71-1.85-6.19.95z" fill="#ba823a"/><path d="M167.09 363.63v43.14s.13 8.64.37 8.64c.85 0 28.19-2.89 28.19-2.89s-8.38-21.87-8.26-28.7c.09-5 .18-11.48.18-11.48s4.71-6.77 4.71-14.86 1.08-9.46-.62-13.35-8.85-4.86-8.85-4.86z" fill="#d9a155"/><path d="M186.33 371a14.53 14.53 0 0 1-8.8 1.47c-5.52-.61-8.31-2.42-7.77-2.76s5.65.9 10.38.34 9.71-1.85 6.19.95z" fill="#ba823a"/><path fill="#b0772b" d="M167.09 363.71v51.44l-.3.47v-52.4l.3.49zm0 0v51.44l.31.47v-52.4l-.31.49z"/><path fill="#ffceaa" d="M133.35 417.31l-.88-3.11 2.59-4.74 5.07-1.42 2.34 8.36-9.12.91z"/><path d="M137.18 416.89a3.81 3.81 0 1 1 2.64-4.69 3.8 3.8 0 0 1-2.64 4.69z" fill="#ffceaa"/><path d="M138 420a3.81 3.81 0 1 1 2.64-4.7A3.8 3.8 0 0 1 138 420z" fill="#ffceaa"/><path d="M139.59 416.21a3.81 3.81 0 1 1 2.64-4.69 3.8 3.8 0 0 1-2.64 4.69z" fill="#ffceaa"/><path fill="#ffceaa" d="M132.054 407.499l7.325-2.062 2.076 7.373-7.326 2.062z"/><path d="M142.12 415c-1.6-1.87-2.5-3.76-2-4.19s2.23.75 3.83 2.62 2.49 3.75 2 4.18-2.23-.74-3.83-2.61z" fill="#ffceaa"/><path d="M141.24 418.33c-1-3.51-1.29-6.53-.69-6.7s1.92 2.57 2.9 6.08 1.3 6.53.69 6.7-1.92-2.56-2.9-6.08z" fill="#ffceaa"/><path d="M139.35 420.1c-1.06-3.78-1.43-7-.82-7.19s2 2.79 3 6.57 1.43 7 .83 7.19-1.95-2.78-3.01-6.57zm-2.35.13c-1-3.51-1.29-6.53-.69-6.7s1.92 2.57 2.9 6.08 1.3 6.53.69 6.7-1.9-2.56-2.9-6.08z" fill="#ffceaa"/><path d="M134.26 419c-.87-3.11-1.08-5.79-.47-6s1.81 2.23 2.68 5.34 1.09 5.78.48 5.95-1.82-2.21-2.69-5.29z" fill="#ffceaa"/><path d="M139.26 404.57c-.66.26.21 1.27.5 2.15s.57 2 .57 2l-7.45 1.8-.8-2.85z" fill="#ededed"/><path d="M139.79 406.72l-.17-.73v-4.97l.05-.87c.14-2.32.4-4.67.73-7s.74-4.72 1.19-7.07 1-4.7 1.49-7 1.13-4.67 1.76-7 1.29-4.61 2-6.9 1.45-4.55 2.23-6.79 1.62-4.46 2.5-6.65l-13.42-4.37q-1 3.72-1.89 7.45c-.58 2.48-1.1 5-1.58 7.46s-.91 5-1.31 7.49-.73 5-1 7.53-.56 5-.76 7.56-.36 5.08-.44 7.64-.08 5.14.05 7.77v1c0 .33.05.67.08 1s0 .67.08 1l.12 1v.52l.08.52c0 .35.1.69.17 1.06l.1.54.06.27v.27l.28 1.14z" fill="#d9a155"/><path d="M147.12 342.89a6.73 6.73 0 0 0-5.39.21 7 7 0 0 0-2.2 1.68 7.35 7.35 0 0 0-1.44 2.53 7.53 7.53 0 0 0-.33 2.88 7 7 0 0 0 .79 2.64 6.82 6.82 0 0 0 4.21 3.37 7.23 7.23 0 0 0 5.35-.57 7 7 0 0 0 2.06-1.63 6.63 6.63 0 0 0 1.62-5 7.18 7.18 0 0 0-.7-2.52 7.39 7.39 0 0 0-3.97-3.59z" fill="#d9a155"/><path fill="#ffceaa" d="M200.5 417.94l.88-3.11-2.59-4.75-5.06-1.41-2.35 8.35 9.12.92z"/><path d="M196.67 417.52a3.81 3.81 0 1 0-2.64-4.7 3.82 3.82 0 0 0 2.64 4.7z" fill="#ffceaa"/><path d="M195.81 420.57a3.81 3.81 0 1 0-2.64-4.69 3.81 3.81 0 0 0 2.64 4.69z" fill="#ffceaa"/><path d="M194.26 416.84a3.81 3.81 0 1 0-2.64-4.69 3.8 3.8 0 0 0 2.64 4.69z" fill="#ffceaa"/><path fill="#ffceaa" d="M192.389 413.424l2.075-7.373 7.326 2.062-2.076 7.373z"/><path d="M191.73 415.62c1.6-1.87 2.5-3.75 2-4.18s-2.23.74-3.83 2.61-2.49 3.76-2 4.19 2.23-.74 3.83-2.62z" fill="#ffceaa"/><path d="M192.61 419c1-3.52 1.3-6.53.69-6.7s-1.91 2.56-2.9 6.08-1.29 6.53-.69 6.7 1.92-2.61 2.9-6.08z" fill="#ffceaa"/><path d="M194.5 420.73c1.06-3.78 1.43-7 .82-7.19s-2 2.79-3 6.57-1.43 7-.82 7.19 1.94-2.79 3-6.57zm2.35.13c1-3.51 1.3-6.53.69-6.7s-1.92 2.57-2.9 6.08-1.29 6.53-.69 6.7 1.92-2.57 2.9-6.08z" fill="#ffceaa"/><path d="M199.59 419.6c.87-3.1 1.08-5.78.48-6s-1.82 2.23-2.69 5.33-1.09 5.79-.48 6 1.82-2.22 2.69-5.33z" fill="#ffceaa"/><path d="M194.61 405.06c.66.27-.23 1.44-.51 2.31s-.56 1.8-.56 1.8L201 411l.8-2.85z" fill="#ededed"/><path d="M194.08 407.33l.16-.71v-4.97l-.05-.87c-.14-2.32-.4-4.68-.73-7s-.74-4.72-1.19-7.07-.94-4.71-1.49-7.05-1.13-4.66-1.76-7-1.29-4.62-2-6.9-1.46-4.55-2.24-6.8-1.62-4.46-2.49-6.64l13.41-4.38c.69 2.48 1.31 5 1.89 7.45s1.1 5 1.59 7.47.9 5 1.3 7.49.73 5 1 7.52.55 5 .76 7.57.35 5.07.43 7.63.08 5.14 0 7.78l-.05 1c0 .33-.05.67-.07 1s-.05.66-.09 1l-.11 1v.51l-.08.53c-.05.34-.09.69-.17 1.05l-.1.54-.06.27v.28l-.28 1.13z" fill="#d9a155"/><path d="M186.73 343.51a6.79 6.79 0 0 1 5.4.22 7.09 7.09 0 0 1 2.19 1.68 7.26 7.26 0 0 1 1.44 2.53 7.09 7.09 0 0 1-.45 5.52 6.84 6.84 0 0 1-4.22 3.37 7.24 7.24 0 0 1-5.34-.57 6.86 6.86 0 0 1-2.07-1.63 6.41 6.41 0 0 1-1.31-2.32 6.54 6.54 0 0 1-.31-2.65 7 7 0 0 1 .71-2.52 7.37 7.37 0 0 1 3.96-3.63z" fill="#d9a155"/><path d="M149.84 352.14c3.57 1.19 4.76 1.52 4.76 1.52s-1.14 1.75-2.11 3.29 6.63 2.87 14.49 6.45c0 0-7.37-14.24-10-26.73-.65-3.05-7.46 2.14-8.32 5.26-1.04 3.66-.75 9.57 1.18 10.21zm34.42.43c-3.54 1.11-4.72 1.41-4.72 1.41s1.09 1.75 2 3.29-6.59 2.71-14.41 6.1c0 0 7.52-13.92 10.37-26.2.7-3 7.33 2.24 8.12 5.35.95 3.62.56 9.48-1.36 10.05z" fill="#b0772b"/><path d="M189.84 439.09l3.16-4.9a41.32 41.32 0 0 0 5.57-5.22s-.95 4.39-3.08 6.64a16.38 16.38 0 0 1-5.65 3.48zm-44.42.35l-3.09-4.54a54.55 54.55 0 0 1-5.65-5.57s.95 4.39 3.08 6.64a16.27 16.27 0 0 0 5.66 3.47z" fill="#2c222d"/></g></svg>