<svg xmlns="http://www.w3.org/2000/svg" viewBox="0 0 1346.15 1533.32"><title>bg</title><path d="M200.48,646.92c-6.64-13.13-27.67-10.6-37.87,5.24-8.52,13.25-6.81,25.17-9.1,42.93-2.58,17.72-4.61,28.14-3.62,40,1.1,13.07,13.13,17.64,22,15.38,16.52-4.2,11.14-24.28,16.55-47.2C192.71,685.21,211.63,669,200.48,646.92Z"/><path d="M200.77,644.82c-6.65-13.13-27.67-10.6-37.87,5.25-8.53,13.24-6.81,25.16-9.11,42.92-2.57,17.72-4.6,28.14-3.61,40,1.09,13.07,13.12,17.64,22,15.38,16.52-4.2,11.13-24.28,16.55-47.19C193,683.11,211.92,666.85,200.77,644.82Z" style="fill:#2d2d2d"/><path d="M152.57,691c-.49,4-1,9.67-.43,13.2,1.15,7.13,2.6,13.57,5.3,13.19s2.94-3.56,1.08-9.3C157,703.2,152.9,696.8,152.57,691Z"/><path d="M152.8,687.81a11.73,11.73,0,0,0-.23,3.14C153.07,686.86,153.55,684.48,152.8,687.81Z" style="fill:#21b3b8"/><path d="M180,711c-3.33,5-3.95,8.14-1.46,9.24s5.63-4.72,8.66-11.27c1.51-3.25,2.53-8.83,3.14-12.83C188.49,701.69,182.86,706.76,180,711Z"/><path d="M191,693.06c.18-3.41,0-1-.62,3.08A11,11,0,0,0,191,693.06Z" style="fill:#21b3b8"/><path d="M183.56,656.32c-10.37-1.42-38.07,15.57-31.42,47.83-1.17-22.26,25.19-42.26,30.37-41.55,3.48.48,10,19.15,4.81,45.82C197.91,688,198,658.31,183.56,656.32Z" style="fill:#4d4c4d"/><path d="M228.38,653.37c-19.69,14.9-9.83,37.82-13.93,55.91-5.2,23-18.85,38.64-5.87,49.67,7,5.93,19.8,7.11,26.53-4.16,6.1-10.2,8.85-20.46,14.32-37.51,5.74-17,12.51-26.91,10.67-42.56C257.9,656,240.12,644.5,228.38,653.37Z"/><path d="M229,651.36c-19.69,14.9-9.83,37.82-13.93,55.91-5.2,23-18.85,38.64-5.86,49.67,7,5.93,19.8,7.11,26.52-4.16,6.1-10.21,8.85-20.46,14.32-37.51,5.74-17,12.51-26.91,10.67-42.56C258.56,654,240.78,642.49,229,651.36Z" style="fill:#2d2d2d"/><path d="M236.12,735.54c2.25,1.53,6.38-3.62,10.56-9.52,2.06-2.92,4.08-8.23,5.4-12-2.86,5.11-9.32,9.08-12.85,12.74C235,731.05,233.87,734,236.12,735.54Z"/><path d="M252.08,714a11.51,11.51,0,0,0,1.17-2.93C254.05,707.73,253.43,710.08,252.08,714Z" style="fill:#2d2d2d"/><path d="M216.63,699a11.16,11.16,0,0,0-.79,3C217.07,698.1,218,695.85,216.63,699Z" style="fill:#2d2d2d"/><path d="M215.84,702c-1.21,3.86-2.75,9.33-2.82,12.9-.15,7.23.11,13.82,2.83,13.93s3.54-3,2.75-8.94C217.93,714.87,215.1,707.84,215.84,702Z"/><path d="M239.45,669.26c-13.86-4.57-26.79,22.11-26.26,45.14,7-26.25,21.12-40.14,24.45-39,5,1.63,19.86,31.18,9,50.66C266.82,700,249.4,672.53,239.45,669.26Z" style="fill:#4d4c4d"/><path d="M35.2,300.69c-15.09,1-27.09,5.24-25.94,22.46s12.1,22.47,27.57,20.07S64.35,326.39,63.59,315,50.29,299.69,35.2,300.69Z" style="fill:#4d4c4d"/><path d="M55.44,301.69c-5.11-2.27-12.15-3.19-20.35-2.64-13.48.9-28.79,4.46-27.48,24.21.54,8,3.15,13.92,7.77,17.64,4.25,3.43,10.13,4.91,17.47,4.43,1.36-.1,2.78-.25,4.23-.48a35.09,35.09,0,0,0,20.43-11.26c5.31-5.83,8.13-12.65,7.73-18.7S61.45,304.37,55.44,301.69Zm-.36,29.68a32.31,32.31,0,0,1-18.5,10.22c-1.36.21-2.69.36-3.95.44-6.49.44-11.6-.81-15.18-3.7-3.88-3.12-6.08-8.26-6.55-15.29-.49-7.39,1.54-12.58,6.19-15.85,3.9-2.74,9.69-4.28,18.22-4.85,7.67-.51,14.16.31,18.79,2.36,4.89,2.18,7.53,5.68,7.85,10.41C62.28,320.19,59.72,326.27,55.08,331.37Z"/><path d="M102.82,296.19c-15.09,1-27,6.55-26.24,17.94s14.62,24.1,30.27,24.42,25.81-6.34,24.66-23.56S117.91,295.18,102.82,296.19Z" style="fill:#4d4c4d"/><path d="M102.71,294.54c-8.2.55-15,2.39-19.82,5.32-5.6,3.45-8.35,8.42-8,14.38s4.1,12.44,10.14,17.52a35.23,35.23,0,0,0,21.75,8.44c1.47,0,2.9,0,4.25-.09h0c7.35-.49,13-2.75,16.74-6.71,4.08-4.3,5.88-10.53,5.35-18.52C131.84,295.14,116.19,293.64,102.71,294.54Zm22.7,36.59c-3.17,3.34-8.06,5.26-14.56,5.69h0c-1.26.08-2.59.11-4,.08a32.28,32.28,0,0,1-19.69-7.67c-5.27-4.44-8.63-10.12-9-15.21-.31-4.72,1.84-8.55,6.4-11.35,4.31-2.66,10.64-4.33,18.31-4.84,8.53-.57,14.48.19,18.7,2.39,5.05,2.63,7.74,7.5,8.24,14.88C130.34,322.13,128.84,327.53,125.41,331.13Z"/><path d="M34.3,323.87c-18.45,10-24.28-6.45-23.89-.69.46,7,3.15,20.62,21.28,19.41,21.53-1.44,30.14-18.65,29.86-22.82C61.06,312.3,51.52,314.54,34.3,323.87Z" style="fill:#2d2d2d"/><path d="M106.79,319c-18.31-7-28.06-7.92-27.56-.45.28,4.17,11.11,20.09,32.63,18.65,18.13-1.21,19-15.06,18.52-22.06C130,309.42,126.4,326.5,106.79,319Z" style="fill:#2d2d2d"/><path d="M69.54,306.42A8.17,8.17,0,0,0,62,315.11l3.29-.22a4.86,4.86,0,1,1,9.69-.65l3.29-.22A8.17,8.17,0,0,0,69.54,306.42Z" style="fill:#4d4c4d"/><rect x="35.12" y="296.79" width="67.77" height="3.3" transform="translate(-19.7 5.25) rotate(-3.81)" style="fill:#2d2d2d"/><path d="M0,320.26a2,2,0,0,0,2.13,1.85l7.18-.47-.27-4-7.18.48A2,2,0,0,0,0,320.26Z" style="fill:#2d2d2d"/><path d="M138.18,309l-7.18.48.26,4,7.18-.47a2,2,0,0,0-.26-4Z" style="fill:#2d2d2d"/><path d="M51.65,592.9a51.54,51.54,0,0,0,66.28-30.31l-96.59-36A51.53,51.53,0,0,0,51.65,592.9Z" style="fill:#2d2d2d"/><path d="M51.65,592.9l18-48.29-48.29-18A51.53,51.53,0,0,0,51.65,592.9Z"/><path d="M52.5,590.6a49.08,49.08,0,0,0,63.13-28.86l-92-34.26A49.08,49.08,0,0,0,52.5,590.6Z" style="fill:#6d6e6e"/><path d="M52.5,590.6l17.13-46-46-17.13A49.08,49.08,0,0,0,52.5,590.6Z" style="fill:#4d4c4d"/><path d="M53.58,587.7a46,46,0,0,0,59.15-27l-86.19-32.1A46,46,0,0,0,53.58,587.7Z" style="fill:#2d2d2d"/><path d="M53.58,587.7l16-43.09L26.54,528.56A46,46,0,0,0,53.58,587.7Z"/><path d="M65.85,554.77c-.32-.12-3.4,2.29-3.86,3.52A2.39,2.39,0,0,0,66.46,560C66.92,558.72,66.16,554.89,65.85,554.77Z" style="fill:#4d4c4d"/><path d="M59.65,571.42c-.32-.12-3.4,2.28-3.86,3.52a2.38,2.38,0,1,0,4.47,1.66C60.72,575.37,60,571.53,59.65,571.42Z" style="fill:#4d4c4d"/><path d="M60.61,543.39c-.32-.12-3.4,2.29-3.86,3.52a2.39,2.39,0,1,0,4.47,1.67C61.68,547.34,60.92,543.51,60.61,543.39Z" style="fill:#4d4c4d"/><path d="M54.41,560c-.32-.12-3.4,2.28-3.86,3.52A2.38,2.38,0,1,0,55,565.22C55.48,564,54.72,560.16,54.41,560Z" style="fill:#4d4c4d"/><path d="M49.2,548.57c-.32-.12-3.4,2.29-3.86,3.52a2.38,2.38,0,1,0,4.47,1.66C50.27,552.52,49.51,548.69,49.2,548.57Z" style="fill:#4d4c4d"/><path d="M32.55,542.37c-.32-.12-3.4,2.28-3.86,3.52a2.38,2.38,0,1,0,4.47,1.66C33.62,546.32,32.86,542.49,32.55,542.37Z" style="fill:#4d4c4d"/><path d="M99.15,567.17c-.31-.12-3.4,2.29-3.86,3.52a2.39,2.39,0,0,0,4.48,1.67C100.23,571.12,99.47,567.29,99.15,567.17Z" style="fill:#4d4c4d"/><path d="M43,565.22c-.32-.12-3.4,2.28-3.86,3.52a2.38,2.38,0,1,0,4.47,1.66C44.07,569.17,43.31,565.33,43,565.22Z" style="fill:#4d4c4d"/><path d="M44,537.19c-.31-.12-3.39,2.29-3.85,3.52a2.39,2.39,0,1,0,4.47,1.67C45,541.14,44.27,537.31,44,537.19Z" style="fill:#4d4c4d"/><path d="M37.76,553.84c-.32-.12-3.4,2.28-3.86,3.52A2.38,2.38,0,1,0,38.37,559C38.83,557.79,38.07,554,37.76,553.84Z" style="fill:#4d4c4d"/><path d="M77.26,549.59c-.32-.12-3.4,2.29-3.86,3.52a2.39,2.39,0,1,0,4.47,1.67C78.33,553.54,77.57,549.71,77.26,549.59Z" style="fill:#4d4c4d"/><path d="M71.06,566.24c-.32-.12-3.4,2.29-3.86,3.52a2.38,2.38,0,1,0,4.47,1.66C72.13,570.19,71.37,566.36,71.06,566.24Z" style="fill:#4d4c4d"/><path d="M82.5,561c-.32-.12-3.4,2.29-3.86,3.52a2.39,2.39,0,0,0,4.47,1.67C83.57,564.92,82.82,561.09,82.5,561Z" style="fill:#4d4c4d"/><path d="M76.3,577.62c-.31-.12-3.4,2.28-3.86,3.52a2.39,2.39,0,1,0,4.48,1.66C77.38,581.57,76.62,577.74,76.3,577.62Z" style="fill:#4d4c4d"/><path d="M93.91,555.79c-.32-.12-3.4,2.29-3.86,3.52A2.39,2.39,0,0,0,94.52,561C95,559.74,94.22,555.91,93.91,555.79Z" style="fill:#4d4c4d"/><path d="M87.71,572.44c-.32-.12-3.4,2.29-3.86,3.52a2.39,2.39,0,0,0,4.47,1.67C88.78,576.39,88,572.56,87.71,572.44Z" style="fill:#4d4c4d"/><path d="M1248.79,474.09l-.59,2.75c30.74,2,36.66,34.63,41.45,33.8s-.63-33.6,27.65-45.79l-1.48-2.39A88.6,88.6,0,0,1,1248.79,474.09Z" style="fill:#4d4c4d"/><rect x="1275.23" y="440.44" width="6.87" height="2.2" transform="matrix(0.99, -0.17, 0.17, 0.99, -56.66, 225.08)" style="fill:#4d4c4d"/><path d="M1269,385.5a24.86,24.86,0,0,0-20.23,28.71l.28,1.63,3.25-.56-.28-1.63a21.54,21.54,0,1,1,42.44-7.36l.28,1.62,3.25-.56-.28-1.63A24.86,24.86,0,0,0,1269,385.5Z" style="fill:#4d4c4d"/><path d="M1267.73,377.75a5.27,5.27,0,1,0-7.74,7.15c1.56,1.68,7.12,3.34,8.79,3.81l2.59.73-.53-2.64C1270.51,385.1,1269.28,379.42,1267.73,377.75Zm-5.32,4.91a2,2,0,0,1,.11-2.78,2,2,0,0,1,1-.5,2,2,0,0,1,1.79.61,17,17,0,0,1,1.67,4.71A17.16,17.16,0,0,1,1262.41,382.66Z" style="fill:#4d4c4d"/><path d="M1274.4,375a5.26,5.26,0,0,0-6.92,2.78c-.9,2.1-.14,7.86.12,9.58L1268,390l2.19-1.55c1.41-1,6.1-4.44,7-6.55a5.25,5.25,0,0,0-2.77-6.91Zm-.26,5.62a17.39,17.39,0,0,1-3.62,3.46,17.4,17.4,0,0,1,0-5,2,2,0,0,1,2.59-1,2,2,0,0,1,1,2.59Z" style="fill:#4d4c4d"/><path d="M1269,385.5c-3.75.65-5.73,6.06-4.6,12.59a1.65,1.65,0,0,0,3.25-.56c-.87-5,.55-8.55,1.91-8.78s3.88,2.61,4.75,7.62a1.65,1.65,0,0,0,3.25-.56C1276.38,389.28,1272.69,384.85,1269,385.5Z" style="fill:#4d4c4d"/><path d="M1250.35,413.93s-15.53,16.95-11.81,31a26.34,26.34,0,0,0,37.25.1C1279.59,431,1250.35,413.93,1250.35,413.93Z" style="fill:#4d4c4d"/><path d="M1296,406s-21.79,25.92-13.48,37.86a26.33,26.33,0,0,0,35-12.65C1316.36,416.73,1296,406,1296,406Z" style="fill:#4d4c4d"/><path d="M1238.54,444.94a26.22,26.22,0,0,0,18.53,7.76l-6.72-38.77S1234.82,430.88,1238.54,444.94Z"/><path d="M1282.56,443.87a26.27,26.27,0,0,0,20.2.91L1296,406S1274.25,431.93,1282.56,443.87Z"/><path d="M1248.2,476.84c30.74,2,36.66,34.63,41.45,33.8L1283.46,475a88.68,88.68,0,0,1-34.67-.87Z"/><path d="M1243.91,665.89c-6.14-1.82-15.44.07-17,5.33s6.87,6.38,13,8.19,13.81,5.45,15.36.19S1250,667.7,1243.91,665.89Z" style="fill:#4d4c4d"/><path d="M1276.06,639.11l-44.6-13.17a24.71,24.71,0,0,0-14,47.4c9.62,2.84,18.36-9.79,26.43-7.4s8.55,17.73,18.17,20.57a24.71,24.71,0,1,0,14-47.4Z"/><path d="M1274.59,643.22l-44.13-13c-11-3.26-22.62,2.85-25.8,13.61s3.22,22.18,14.27,25.44c3.51,1,7.34-1.08,11.4-3.33,4.61-2.56,9.37-5.2,14.65-3.64s7.84,6.36,10.32,11c2.18,4.09,4.25,8,7.76,9,11,3.26,22.62-2.85,25.8-13.61S1285.64,646.48,1274.59,643.22Z" style="fill:#2d2d2d"/><path d="M1274.59,643.22l-44.13-13c-11-3.26-22.62,2.85-25.8,13.61-.79,2.67,7.56,7.49,18.61,10.75a39.22,39.22,0,0,0,10,1.31,45.72,45.72,0,0,1,25,7.37,39.1,39.1,0,0,0,9.13,4.36c11,3.26,20.67,3.74,21.46,1.08C1292,657.89,1285.64,646.48,1274.59,643.22Z" style="fill:#4d4c4d"/><path d="M1240.75,685.35l-4.77-1.41a7.5,7.5,0,0,0-4.25,14.39l4.77,1.41a7.5,7.5,0,1,0,4.25-14.39Z" style="fill:#4d4c4d"/><path d="M1317.75,619.33a5.5,5.5,0,0,0-6.83,3.71l-24.68,83.57a23.32,23.32,0,0,1-44.73-13.21,5.49,5.49,0,1,0-10.54-3.11,34.31,34.31,0,0,0,65.82,19.43l24.67-83.57A5.49,5.49,0,0,0,1317.75,619.33Z"/><path d="M1155.48,500.3l-38.61,91.45a49.63,49.63,0,1,0,38.61-91.45Z" style="fill:#4d4c4d"/><path d="M1090.45,526.72a49.63,49.63,0,0,0,26.42,65l38.61-91.45A49.63,49.63,0,0,0,1090.45,526.72Z" style="fill:#4d4c4d"/><ellipse cx="1136.17" cy="546.02" rx="49.63" ry="38.19" transform="translate(191.18 1380.3) rotate(-67.11)" style="fill:#fff"/><path d="M1101,531.17c-10.67,25.25-3.56,52.37,15.88,60.58l38.61-91.45C1136.05,492.09,1111.65,505.91,1101,531.17Z" style="fill:#eeefef"/><path d="M1155.48,500.3c-7.62-3.22-22.43,14.65-33.1,39.9s-13.13,48.33-5.51,51.55,22.43-14.65,33.09-39.9S1163.1,503.52,1155.48,500.3Z" style="fill:#2d2d2d"/><path d="M1122.38,540.2c-10.66,25.25-13.13,48.33-5.51,51.55l38.61-91.45C1147.86,497.08,1133.05,515,1122.38,540.2Z"/><path d="M1146,497.36c1.15,1.47,4.42,3.55,8.51,5.28s7.87,2.62,9.72,2.42a50,50,0,0,0-18.23-7.7Z"/><path d="M1108.13,587a50.18,50.18,0,0,0,18.24,7.7c-1.15-1.47-4.42-3.55-8.52-5.28S1110,586.79,1108.13,587Z"/><path d="M88.29,116c7.59,8,12.63,5.57,11.22-5.35l-8.82-68L41.05,66.3Z" style="fill:#161616"/><path d="M88.29,116c3.79,4,6.95,5.38,9,4.41L65.87,54.48,41.05,66.3Z"/><path d="M85.45,51.42l2.68-7.55-6.45,3.07-1,2.79-2.79-1L67.76,53.58l-1,2.79-2.79-1L53.84,60.21l-1,2.79-2.79-1L43.6,65.08l7.56,2.68-2,5.52-2.29-.82,7.69,8.09,3.19,1.13-.57,1.62,3.9,4.11,1.43-4,5.52,2-2,5.51-2.6-.92L71.2,98l3.5,1.24L74.07,101l3.9,4.11,1.49-4.2,5.52,2-2,5.51-2.91-1,7.69,8.09,3.81,1.35L91,118.5a9,9,0,0,0,4.58,2.18l.77-2.17,2.18.77a9,9,0,0,0,1.19-4.94l-1.68-.59,1.35-3.82L98,98.86l-1,2.92-5.52-2,2-5.51,4.19,1.49-.73-5.62-1.78-.63L96.32,86,94.88,75,94,77.58l-5.52-2,2-5.51,4,1.43-.73-5.62-1.62-.57,1.13-3.2L91.78,51.08,91,53.38Zm-12,1.12,5.51,2-2,5.51-5.52-1.95ZM69.84,62.82l5.52,1.95-2,5.52-5.51-2ZM82,78.7l-2,5.51-5.51-1.95,2-5.52ZM59.56,59.17l5.52,2-2,5.51-5.51-2ZM54,75l2-5.52,5.52,2-2,5.51Zm10.28,3.64,2-5.52,5.51,2-1.95,5.52Zm6.63,13.92,2-5.51,5.52,2-2,5.52Zm24.39,14-2,5.52-5.52-2,2-5.52Zm-8.59-8.41-5.52-1.95,2-5.52,5.51,2Zm5.6-15.79-2,5.52-5.51-2,2-5.52Zm-8.59-8.41-5.52-2,2-5.52,5.52,2Zm3.64-10.27-5.51-2,2-5.52,5.52,2Z" style="fill:#4d4c4d"/><path d="M53.84,60.21l-1,2.79-2.79-1L43.6,65.08l7.56,2.68-2,5.52-2.29-.82,7.69,8.09,3.19,1.13-.57,1.62,3.9,4.11,1.43-4,5.52,2-2,5.51-2.6-.92L71.2,98l3.5,1.24L74.07,101l3.9,4.11,1.49-4.2,5.52,2-2,5.51-2.91-1,7.69,8.09,3.81,1.35L91,118.5a9,9,0,0,0,4.58,2.18l.77-2.17-3.07-6.45-5.52-2,2-5.52-3.07-6.45-5.52-1.95,2-5.52L80,84.21l-5.51-1.95,2-5.52L73.4,70.29l-5.51-2,2-5.51-3.07-6.45-2.79-1ZM54,75l2-5.52,5.52,2-2,5.51ZM78.35,89l-2,5.52-5.52-2,2-5.51ZM71.71,75.05l-1.95,5.52-5.52-2,2-5.52Zm-8.59-8.41-5.51-2,2-5.52,5.52,2Z" style="fill:#2d2d2d"/><path d="M83.8,28.2A29.75,29.75,0,1,0,34.16,51.85a8.27,8.27,0,0,1,2.19,8.87A8.3,8.3,0,1,0,52,66.26h0a8.29,8.29,0,0,1,10.59-5,8.29,8.29,0,0,0,10.59-5,8.3,8.3,0,0,1,10.6-5,8.3,8.3,0,1,0,5.54-15.64A8.32,8.32,0,0,1,83.8,28.2Z" style="fill:#232323"/><path d="M27.23,42.55a29.87,29.87,0,0,0,6.93,9.3,8.27,8.27,0,0,1,2.19,8.87A8.3,8.3,0,1,0,52,66.26h0a8.29,8.29,0,0,1,10.59-5,8.31,8.31,0,0,0,6.34-.33L41.3,2.9A29.75,29.75,0,0,0,27.23,42.55Z"/><rect x="1125.64" y="26.29" width="73.12" height="95.03" rx="5.86" ry="5.86" transform="translate(728.88 1154.72) rotate(-71.79)" style="fill:#4d4c4d"/><rect x="1139.18" y="23.94" width="43.73" height="106.75" rx="5.86" ry="5.86" transform="translate(724.75 1156.04) rotate(-71.79)"/><circle cx="1161.05" cy="77.32" r="26.02" transform="translate(608.29 1101.26) rotate(-65.45)" style="fill:#c5c7c9"/><path d="M1167.43,57.92a20.42,20.42,0,1,0,13,25.78A20.42,20.42,0,0,0,1167.43,57.92Z" style="fill:#232323"/><path d="M1167.43,57.92l-12.76,38.79a20.42,20.42,0,0,0,12.76-38.79Z"/><rect x="1196.44" y="49.18" width="8.78" height="19.27" transform="translate(769.67 1181.12) rotate(-71.79)" style="fill:#232323"/><rect x="1200.48" y="34.51" width="6.63" height="21.98" transform="translate(784.35 1174.78) rotate(-71.79)"/><rect x="1147.69" y="23.14" width="2.24" height="13.17" transform="translate(761.54 1111.7) rotate(-71.79)" style="fill:#c5c7c9"/><rect x="1147.14" y="18.25" width="4.39" height="16.78" transform="translate(764.84 1110.08) rotate(-71.79)" style="fill:#4d4c4d"/><path d="M223.3,145.78l-67.15,58.29,4.74.33,64.61-56.08c4.92-4.27,8.42-8.3,7.81-9S228.22,141.51,223.3,145.78Z"/><path d="M224.49,147.15A54.27,54.27,0,0,0,166.1,131l65.69,75.68a54.28,54.28,0,0,0-7.3-59.51Z" style="fill:#232323"/><path d="M224.4,147a23.68,23.68,0,0,0-11.87-7.35c-10.05-2.84-22.43-.62-34.31,5.25l41.45,47.76c8.08-11.8,11.32-23.64,10-33.23A24,24,0,0,0,224.4,147Z" style="fill:#eeefef"/><path d="M166.1,131l12.12,14c11.88-5.87,24.26-8.09,34.31-5.25a23.66,23.66,0,0,1,11.71,7.17A54.27,54.27,0,0,0,166.1,131Z" style="fill:#dbdcdd"/><polygon points="224.4 147.05 224.41 147.06 224.4 147.05 224.4 147.05" style="fill:#f1716c"/><path d="M224.24,146.86c0,.07.11.13.16.19h0Z" style="fill:#f1716c"/><path d="M212.53,139.69c-10.05-2.84-22.43-.62-34.31,5.25L199.11,169l25.29-22c-.05-.06-.11-.12-.16-.19A23.66,23.66,0,0,0,212.53,139.69Z"/><polygon points="180.69 194.07 144.67 225.14 246.88 232.37 215.59 196.54 180.69 194.07" style="fill:#167389"/><polygon points="181.44 193.42 144.67 225.14 246.88 232.37 214.93 195.79 181.44 193.42" style="fill:#eeefef"/><polygon points="171.36 202.12 164.36 208.16 229.77 212.78 223.69 205.82 171.36 202.12"/><polygon points="181.44 193.42 176.96 197.29 218.83 200.25 214.93 195.79 181.44 193.42"/><polygon points="155.61 215.71 144.67 225.14 246.88 232.37 237.38 221.49 155.61 215.71"/><polygon points="142.32 401.47 155.24 502.38 203.3 488.52 199.28 446.81 218.09 484.25 266.15 470.39 223.35 378.1 142.32 401.47" style="fill:#4d4c4d"/><polygon points="151 469.32 200.09 455.17 199.67 450.85 150.46 465.04 151 469.32" style="fill:#232323"/><polygon points="153.08 485.54 201.66 471.54 200.83 462.89 151.99 476.97 153.08 485.54" style="fill:#232323"/><polygon points="155.24 502.38 203.3 488.52 201.78 472.77 153.24 486.77 155.24 502.38" style="fill:#232323"/><polygon points="210.99 470.12 218.09 484.25 266.15 470.39 259.53 456.12 210.99 470.12" style="fill:#232323"/><polygon points="206.53 461.24 210.43 469.01 259.01 455 255.37 447.16 206.53 461.24" style="fill:#232323"/><polygon points="145.29 424.68 145.36 425.21 233.42 399.82 233.19 399.33 145.29 424.68" style="fill:#232323"/><polygon points="147.06 438.49 147.19 439.56 239.51 412.94 239.05 411.96 147.06 438.49" style="fill:#232323"/><polygon points="201.1 450.43 203.05 454.31 252.13 440.16 250.31 436.24 201.1 450.43" style="fill:#232323"/><polygon points="148.79 452.03 149.07 454.17 245.7 426.31 244.79 424.35 148.79 452.03" style="fill:#232323"/><path d="M195.48,433.63c-7.32,2.11-12.65,10.65-11.85,19l3.9,40.46,15.77-4.55-4-41.71,18.81,37.44,15.77-4.54-18.25-36.32C211.86,435.91,202.8,431.52,195.48,433.63Z"/><polygon points="142.32 401.47 143.52 410.86 227.34 386.69 223.35 378.1 142.32 401.47"/><path d="M184.2,392.22a1.65,1.65,0,0,0-1.56.72c-.19.29-4.72,7.12-5.25,11.71a14.69,14.69,0,0,0,.54,6.29c.75,2.16,2.07,3.46,3.71,3.64a3.29,3.29,0,0,0,1.39-.12c2.48-.71,4.49-4.17,5-8.6.53-4.58-2.34-12.26-2.47-12.58A1.65,1.65,0,0,0,184.2,392.22Zm.55,13.27c-.39,3.36-1.8,5.57-2.64,5.81H182c-.16,0-.61-.4-1-1.45a11.51,11.51,0,0,1-.38-4.84c.23-2,1.62-4.93,2.89-7.23C184.29,400.32,185,403.47,184.75,405.49Z" style="fill:#2d2d2d"/><path d="M184.68,392.35a1.65,1.65,0,0,0-2.29,1.84c.07.34,1.73,8.36,4.62,12s6.32,5.33,8.8,4.62h0a3.66,3.66,0,0,0,1.24-.64c1.29-1,1.72-2.83,1.2-5.06a14.62,14.62,0,0,0-2.89-5.61C192.47,395.87,185,392.5,184.68,392.35ZM195,405.82c.25,1.09.07,1.65,0,1.75l-.09,0c-.83.24-3.21-.87-5.32-3.51-1.27-1.59-2.36-4.62-3.09-7.15,2.3,1.27,5,3,6.29,4.58A11.54,11.54,0,0,1,195,405.82Z" style="fill:#2d2d2d"/><path d="M185.74,393.92l-.15-.52a1.64,1.64,0,1,0-3.16.91c0,.18.1.35.14.52,3.21,11.18,3.53,16.39,3.81,21a50.64,50.64,0,0,0,2,12.59,1.65,1.65,0,1,0,3.17-.91,47.4,47.4,0,0,1-1.91-11.88c0-.89-.11-1.81-.19-2.78.46.87.9,1.67,1.33,2.45a48,48,0,0,1,4.71,11.07,1.65,1.65,0,1,0,3.17-.91,51.16,51.16,0,0,0-5-11.74C191.49,409.67,189,405.09,185.74,393.92Z" style="fill:#2d2d2d"/><path d="M1280.48,1408.92c-6.64-13.13-27.67-10.6-37.87,5.24-8.52,13.25-6.81,25.17-9.1,42.93-2.58,17.72-4.61,28.14-3.62,40,1.1,13.07,13.13,17.64,22,15.38,16.52-4.2,11.14-24.28,16.55-47.2C1272.71,1447.21,1291.63,1431,1280.48,1408.92Z"/><path d="M1280.77,1406.82c-6.65-13.13-27.67-10.6-37.87,5.25-8.53,13.24-6.81,25.16-9.11,42.92-2.57,17.72-4.6,28.14-3.61,40,1.09,13.07,13.12,17.64,22,15.38,16.52-4.2,11.13-24.28,16.55-47.19C1273,1445.11,1291.92,1428.85,1280.77,1406.82Z" style="fill:#2d2d2d"/><path d="M1232.57,1453c-.49,4-1,9.67-.43,13.2,1.15,7.13,2.6,13.57,5.3,13.19s2.94-3.56,1.08-9.3C1237,1465.2,1232.9,1458.8,1232.57,1453Z"/><path d="M1232.8,1449.81a11.73,11.73,0,0,0-.23,3.14C1233.07,1448.86,1233.55,1446.48,1232.8,1449.81Z" style="fill:#21b3b8"/><path d="M1260,1473c-3.33,5-4,8.14-1.46,9.24s5.63-4.72,8.66-11.27c1.51-3.25,2.53-8.83,3.14-12.83C1268.49,1463.69,1262.86,1468.76,1260,1473Z"/><path d="M1271,1455.06c.18-3.41,0-1-.62,3.08A11,11,0,0,0,1271,1455.06Z" style="fill:#21b3b8"/><path d="M1263.56,1418.32c-10.37-1.42-38.07,15.57-31.42,47.83-1.17-22.26,25.19-42.26,30.37-41.55,3.48.48,10,19.15,4.81,45.82C1277.91,1450,1278,1420.31,1263.56,1418.32Z" style="fill:#4d4c4d"/><path d="M1308.38,1415.37c-19.69,14.9-9.83,37.82-13.93,55.91-5.2,23-18.85,38.64-5.87,49.67,7,5.93,19.8,7.11,26.53-4.16,6.1-10.2,8.85-20.46,14.32-37.51,5.74-17,12.51-26.91,10.67-42.56C1337.9,1418,1320.12,1406.5,1308.38,1415.37Z"/><path d="M1309,1413.36c-19.69,14.9-9.83,37.82-13.93,55.91-5.2,23-18.85,38.64-5.86,49.67,7,5.93,19.8,7.11,26.52-4.16,6.1-10.21,8.85-20.46,14.32-37.51,5.74-17,12.51-26.91,10.67-42.56C1338.56,1416,1320.78,1404.49,1309,1413.36Z" style="fill:#2d2d2d"/><path d="M1316.12,1497.54c2.25,1.53,6.38-3.62,10.56-9.52,2.06-2.92,4.08-8.23,5.4-12-2.86,5.11-9.32,9.08-12.85,12.74C1315,1493.05,1313.87,1496,1316.12,1497.54Z"/><path d="M1332.08,1476a11.51,11.51,0,0,0,1.17-2.93C1334.05,1469.73,1333.43,1472.08,1332.08,1476Z" style="fill:#2d2d2d"/><path d="M1296.63,1461a11.16,11.16,0,0,0-.79,3C1297.07,1460.1,1298,1457.85,1296.63,1461Z" style="fill:#2d2d2d"/><path d="M1295.84,1464c-1.21,3.86-2.75,9.33-2.82,12.9-.15,7.23.11,13.82,2.83,13.93s3.54-3,2.75-8.94C1297.93,1476.87,1295.1,1469.84,1295.84,1464Z"/><path d="M1319.45,1431.26c-13.86-4.57-26.79,22.11-26.26,45.14,7-26.25,21.12-40.14,24.45-39,5,1.63,19.86,31.18,9,50.66C1346.82,1462,1329.4,1434.53,1319.45,1431.26Z" style="fill:#4d4c4d"/><path d="M1115.2,1062.69c-15.09,1-27.09,5.24-25.94,22.46s12.1,22.47,27.57,20.07,27.52-16.83,26.76-28.22S1130.29,1061.69,1115.2,1062.69Z" style="fill:#4d4c4d"/><path d="M1135.44,1063.69c-5.11-2.27-12.15-3.19-20.35-2.64-13.48.9-28.79,4.46-27.48,24.21.54,8,3.15,13.92,7.77,17.64,4.25,3.43,10.13,4.91,17.47,4.43,1.36-.1,2.78-.25,4.23-.48a35.09,35.09,0,0,0,20.43-11.26c5.31-5.83,8.13-12.65,7.73-18.7S1141.45,1066.37,1135.44,1063.69Zm-.36,29.68a32.31,32.31,0,0,1-18.5,10.22c-1.36.21-2.69.36-3.95.44-6.49.44-11.6-.81-15.18-3.7-3.88-3.12-6.08-8.26-6.55-15.29-.49-7.39,1.54-12.58,6.19-15.85,3.9-2.74,9.69-4.28,18.22-4.85,7.67-.51,14.16.31,18.79,2.36,4.89,2.18,7.53,5.68,7.85,10.41C1142.28,1082.19,1139.72,1088.27,1135.08,1093.37Z"/><path d="M1182.82,1058.19c-15.09,1-27,6.55-26.24,17.94s14.62,24.1,30.27,24.42,25.81-6.34,24.66-23.56S1197.91,1057.18,1182.82,1058.19Z" style="fill:#4d4c4d"/><path d="M1182.71,1056.54c-8.2.55-15,2.39-19.82,5.32-5.6,3.45-8.35,8.42-8,14.38s4.1,12.44,10.14,17.52a35.23,35.23,0,0,0,21.75,8.44c1.47,0,2.9,0,4.25-.09h0c7.35-.49,13-2.75,16.74-6.71,4.08-4.3,5.88-10.53,5.35-18.52C1211.84,1057.14,1196.19,1055.64,1182.71,1056.54Zm22.7,36.59c-3.17,3.34-8.06,5.26-14.56,5.69h0c-1.26.08-2.59.11-4,.08a32.28,32.28,0,0,1-19.69-7.67c-5.27-4.44-8.63-10.12-9-15.21-.31-4.72,1.84-8.55,6.4-11.35,4.31-2.66,10.64-4.33,18.31-4.84,8.53-.57,14.48.19,18.7,2.39,5,2.63,7.74,7.5,8.24,14.88C1210.34,1084.13,1208.84,1089.53,1205.41,1093.13Z"/><path d="M1114.3,1085.87c-18.45,10-24.28-6.45-23.89-.69.46,7,3.15,20.62,21.28,19.41,21.53-1.44,30.14-18.65,29.86-22.82C1141.06,1074.3,1131.52,1076.54,1114.3,1085.87Z" style="fill:#2d2d2d"/><path d="M1186.79,1081c-18.31-7-28.06-7.92-27.56-.45.28,4.17,11.11,20.09,32.63,18.65,18.13-1.21,19-15.06,18.52-22.06C1210,1071.42,1206.4,1088.5,1186.79,1081Z" style="fill:#2d2d2d"/><path d="M1149.54,1068.42a8.17,8.17,0,0,0-7.59,8.69l3.29-.22a4.86,4.86,0,1,1,9.69-.65l3.29-.22A8.17,8.17,0,0,0,1149.54,1068.42Z" style="fill:#4d4c4d"/><rect x="1115.12" y="1058.79" width="67.77" height="3.3" transform="translate(-68 78.79) rotate(-3.81)" style="fill:#2d2d2d"/><path d="M1080,1082.26a2,2,0,0,0,2.13,1.85l7.18-.47-.27-4-7.18.48A2,2,0,0,0,1080,1082.26Z" style="fill:#2d2d2d"/><path d="M1218.18,1071l-7.18.48.26,4,7.18-.47a2,2,0,0,0-.26-4Z" style="fill:#2d2d2d"/><path d="M1131.65,1354.9a51.54,51.54,0,0,0,66.28-30.31l-96.59-36A51.53,51.53,0,0,0,1131.65,1354.9Z" style="fill:#2d2d2d"/><path d="M1131.65,1354.9l18-48.29-48.29-18A51.53,51.53,0,0,0,1131.65,1354.9Z"/><path d="M1132.5,1352.6a49.08,49.08,0,0,0,63.13-28.86l-92-34.26A49.08,49.08,0,0,0,1132.5,1352.6Z" style="fill:#6d6e6e"/><path d="M1132.5,1352.6l17.13-46-46-17.13A49.08,49.08,0,0,0,1132.5,1352.6Z" style="fill:#4d4c4d"/><path d="M1133.58,1349.7a46,46,0,0,0,59.15-27l-86.19-32.1A46,46,0,0,0,1133.58,1349.7Z" style="fill:#2d2d2d"/><path d="M1133.58,1349.7l16.05-43.09-43.09-16A46,46,0,0,0,1133.58,1349.7Z"/><path d="M1145.85,1316.77c-.32-.12-3.4,2.29-3.86,3.52a2.39,2.39,0,0,0,4.47,1.67C1146.92,1320.72,1146.16,1316.89,1145.85,1316.77Z" style="fill:#4d4c4d"/><path d="M1139.65,1333.42c-.32-.12-3.4,2.28-3.86,3.52a2.38,2.38,0,1,0,4.47,1.66C1140.72,1337.37,1140,1333.53,1139.65,1333.42Z" style="fill:#4d4c4d"/><path d="M1140.61,1305.39c-.32-.12-3.4,2.29-3.86,3.52a2.39,2.39,0,1,0,4.47,1.67C1141.68,1309.34,1140.92,1305.51,1140.61,1305.39Z" style="fill:#4d4c4d"/><path d="M1134.41,1322c-.32-.12-3.4,2.28-3.86,3.52a2.38,2.38,0,1,0,4.47,1.66C1135.48,1326,1134.72,1322.16,1134.41,1322Z" style="fill:#4d4c4d"/><path d="M1129.2,1310.57c-.32-.12-3.4,2.29-3.86,3.52a2.38,2.38,0,1,0,4.47,1.66C1130.27,1314.52,1129.51,1310.69,1129.2,1310.57Z" style="fill:#4d4c4d"/><path d="M1112.55,1304.37c-.32-.12-3.4,2.28-3.86,3.52a2.38,2.38,0,1,0,4.47,1.66C1113.62,1308.32,1112.86,1304.49,1112.55,1304.37Z" style="fill:#4d4c4d"/><path d="M1179.15,1329.17c-.31-.12-3.4,2.29-3.86,3.52a2.39,2.39,0,0,0,4.48,1.67C1180.23,1333.12,1179.47,1329.29,1179.15,1329.17Z" style="fill:#4d4c4d"/><path d="M1123,1327.22c-.32-.12-3.4,2.28-3.86,3.52a2.38,2.38,0,1,0,4.47,1.66C1124.07,1331.17,1123.31,1327.33,1123,1327.22Z" style="fill:#4d4c4d"/><path d="M1124,1299.19c-.31-.12-3.39,2.29-3.85,3.52a2.39,2.39,0,0,0,4.47,1.67C1125,1303.14,1124.27,1299.31,1124,1299.19Z" style="fill:#4d4c4d"/><path d="M1117.76,1315.84c-.32-.12-3.4,2.28-3.86,3.52a2.38,2.38,0,1,0,4.47,1.66C1118.83,1319.79,1118.07,1316,1117.76,1315.84Z" style="fill:#4d4c4d"/><path d="M1157.26,1311.59c-.32-.12-3.4,2.29-3.86,3.52a2.39,2.39,0,1,0,4.47,1.67C1158.33,1315.54,1157.57,1311.71,1157.26,1311.59Z" style="fill:#4d4c4d"/><path d="M1151.06,1328.24c-.32-.12-3.4,2.29-3.86,3.52a2.38,2.38,0,1,0,4.47,1.66C1152.13,1332.19,1151.37,1328.36,1151.06,1328.24Z" style="fill:#4d4c4d"/><path d="M1162.5,1323c-.32-.12-3.4,2.29-3.86,3.52a2.39,2.39,0,0,0,4.47,1.67C1163.57,1326.92,1162.82,1323.09,1162.5,1323Z" style="fill:#4d4c4d"/><path d="M1156.3,1339.62c-.31-.12-3.4,2.28-3.86,3.52a2.39,2.39,0,1,0,4.48,1.66C1157.38,1343.57,1156.62,1339.74,1156.3,1339.62Z" style="fill:#4d4c4d"/><path d="M1173.91,1317.79c-.32-.12-3.4,2.29-3.86,3.52a2.39,2.39,0,0,0,4.47,1.67C1175,1321.74,1174.22,1317.91,1173.91,1317.79Z" style="fill:#4d4c4d"/><path d="M1167.71,1334.44c-.32-.12-3.4,2.29-3.86,3.52a2.39,2.39,0,0,0,4.47,1.67C1168.78,1338.39,1168,1334.56,1167.71,1334.44Z" style="fill:#4d4c4d"/><path d="M1168.29,878c7.59,8,12.63,5.57,11.22-5.35l-8.82-68-49.64,23.65Z" style="fill:#161616"/><path d="M1168.29,878c3.79,4,7,5.38,9,4.41l-31.4-65.92-24.82,11.82Z"/><path d="M1165.45,813.42l2.68-7.55-6.45,3.07-1,2.79-2.79-1-10.14,4.84-1,2.79-2.79-1-10.14,4.83-1,2.79-2.79-1-6.46,3.07,7.56,2.68-2,5.52-2.29-.82,7.69,8.09,3.19,1.13-.57,1.62,3.9,4.11,1.43-4,5.52,2-2,5.51-2.6-.92,7.69,8.09,3.5,1.24-.63,1.78,3.9,4.11,1.49-4.2,5.52,2-2,5.51-2.91-1,7.69,8.09,3.81,1.35-.59,1.68a9,9,0,0,0,4.58,2.18l.77-2.17,2.18.77a9,9,0,0,0,1.19-4.94l-1.68-.59,1.35-3.82L1178,860.86l-1,2.92-5.52-2,2-5.51,4.19,1.49-.73-5.62-1.78-.63,1.25-3.51L1174.88,837l-.92,2.61-5.52-2,2-5.51,4,1.43-.73-5.62-1.62-.57,1.13-3.2-1.44-11.07-.81,2.3Zm-12,1.12,5.51,2-2,5.51-5.52-2Zm-3.65,10.28,5.52,1.95-2,5.52-5.51-2ZM1162,840.7l-2,5.51-5.51-2,2-5.52Zm-22.43-19.53,5.52,2-2,5.51-5.51-1.95ZM1134,837l2-5.52,5.52,2-2,5.51Zm10.28,3.64,2-5.52,5.51,2-2,5.52Zm6.63,13.92,2-5.51,5.52,2-2,5.52Zm24.39,14-2,5.52-5.52-2,2-5.52Zm-8.59-8.41-5.52-2,2-5.52,5.51,2Zm5.6-15.79-2,5.52-5.51-2,2-5.52Zm-8.59-8.41-5.52-1.95,2-5.52,5.52,2Zm3.64-10.27-5.51-2,2-5.52,5.52,2Z" style="fill:#4d4c4d"/><path d="M1133.84,822.21l-1,2.79-2.79-1-6.46,3.07,7.56,2.68-2,5.52-2.29-.82,7.69,8.09,3.19,1.13-.57,1.62,3.9,4.11,1.43-4,5.52,2-2,5.51-2.6-.92,7.69,8.09,3.5,1.24-.63,1.78,3.9,4.11,1.49-4.2,5.52,2-2,5.51-2.91-1,7.69,8.09,3.81,1.35-.59,1.68a9,9,0,0,0,4.58,2.18l.77-2.17-3.07-6.45-5.52-2,2-5.52-3.07-6.45-5.52-2,2-5.52-3.08-6.45-5.51-2,2-5.52-3.07-6.45-5.51-2,1.95-5.51-3.07-6.45-2.79-1ZM1134,837l2-5.52,5.52,2-2,5.51Zm24.39,14-2,5.52-5.52-2,2-5.51Zm-6.64-13.92-2,5.52-5.52-2,2-5.52Zm-8.59-8.41-5.51-1.95,2-5.52,5.52,2Z" style="fill:#2d2d2d"/><path d="M1163.8,790.2a29.75,29.75,0,1,0-49.64,23.65,8.27,8.27,0,0,1,2.19,8.87,8.3,8.3,0,1,0,15.64,5.54h0a8.29,8.29,0,0,1,10.59-5,8.29,8.29,0,0,0,10.59-5.05,8.3,8.3,0,0,1,10.6-5,8.3,8.3,0,0,0,5.54-15.64A8.32,8.32,0,0,1,1163.8,790.2Z" style="fill:#232323"/><path d="M1107.23,804.55a29.87,29.87,0,0,0,6.93,9.3,8.27,8.27,0,0,1,2.19,8.87,8.3,8.3,0,1,0,15.64,5.54h0a8.29,8.29,0,0,1,10.59-5,8.31,8.31,0,0,0,6.34-.33l-27.62-58A29.75,29.75,0,0,0,1107.23,804.55Z"/><path d="M1303.3,907.78l-67.15,58.29,4.74.33,64.61-56.08c4.92-4.27,8.42-8.3,7.81-9S1308.22,903.51,1303.3,907.78Z"/><path d="M1304.49,909.15A54.27,54.27,0,0,0,1246.1,893l65.69,75.68a54.28,54.28,0,0,0-7.3-59.51Z" style="fill:#232323"/><path d="M1304.4,909a23.68,23.68,0,0,0-11.87-7.35c-10-2.84-22.43-.62-34.31,5.25l41.45,47.76c8.08-11.8,11.32-23.64,10-33.23A24,24,0,0,0,1304.4,909Z" style="fill:#eeefef"/><path d="M1246.1,893l12.12,14c11.88-5.87,24.26-8.09,34.31-5.25a23.66,23.66,0,0,1,11.71,7.17A54.27,54.27,0,0,0,1246.1,893Z" style="fill:#dbdcdd"/><polygon points="1304.4 909.05 1304.41 909.06 1304.4 909.05 1304.4 909.05" style="fill:#f1716c"/><path d="M1304.24,908.86c0,.07.11.13.16.19h0Z" style="fill:#f1716c"/><path d="M1292.53,901.69c-10-2.84-22.43-.62-34.31,5.25L1279.11,931l25.29-22c-.05-.06-.11-.12-.16-.19A23.66,23.66,0,0,0,1292.53,901.69Z"/><polygon points="1260.69 956.07 1224.67 987.14 1326.88 994.37 1295.59 958.54 1260.69 956.07" style="fill:#167389"/><polygon points="1261.44 955.42 1224.67 987.14 1326.88 994.37 1294.93 957.79 1261.44 955.42" style="fill:#eeefef"/><polygon points="1251.36 964.12 1244.36 970.16 1309.77 974.78 1303.69 967.82 1251.36 964.12"/><polygon points="1261.44 955.42 1256.96 959.29 1298.83 962.25 1294.93 957.79 1261.44 955.42"/><polygon points="1235.61 977.71 1224.67 987.14 1326.88 994.37 1317.38 983.49 1235.61 977.71"/><polygon points="1222.32 1163.47 1235.24 1264.38 1283.3 1250.52 1279.28 1208.81 1298.09 1246.25 1346.15 1232.39 1303.35 1140.1 1222.32 1163.47" style="fill:#4d4c4d"/><polygon points="1231.01 1231.32 1280.09 1217.17 1279.67 1212.85 1230.46 1227.04 1231.01 1231.32" style="fill:#232323"/><polygon points="1233.08 1247.54 1281.66 1233.54 1280.83 1224.89 1231.98 1238.97 1233.08 1247.54" style="fill:#232323"/><polygon points="1235.24 1264.38 1283.3 1250.52 1281.78 1234.77 1233.24 1248.77 1235.24 1264.38" style="fill:#232323"/><polygon points="1290.98 1232.12 1298.09 1246.25 1346.15 1232.39 1339.53 1218.12 1290.98 1232.12" style="fill:#232323"/><polygon points="1286.53 1223.24 1290.43 1231.01 1339.01 1217 1335.37 1209.16 1286.53 1223.24" style="fill:#232323"/><polygon points="1225.29 1186.67 1225.36 1187.21 1313.42 1161.82 1313.19 1161.33 1225.29 1186.67" style="fill:#232323"/><polygon points="1227.06 1200.49 1227.19 1201.56 1319.51 1174.94 1319.05 1173.96 1227.06 1200.49" style="fill:#232323"/><polygon points="1281.1 1212.43 1283.05 1216.31 1332.13 1202.16 1330.31 1198.24 1281.1 1212.43" style="fill:#232323"/><polygon points="1228.79 1214.03 1229.07 1216.17 1325.7 1188.31 1324.8 1186.35 1228.79 1214.03" style="fill:#232323"/><path d="M1275.48,1195.63c-7.32,2.11-12.65,10.65-11.85,19l3.9,40.46,15.77-4.55-4-41.71,18.81,37.44,15.77-4.54-18.25-36.32C1291.86,1197.91,1282.8,1193.52,1275.48,1195.63Z"/><polygon points="1222.32 1163.47 1223.52 1172.86 1307.34 1148.69 1303.35 1140.1 1222.32 1163.47"/><path d="M1264.2,1154.22a1.65,1.65,0,0,0-1.56.72c-.19.29-4.72,7.12-5.25,11.71a14.69,14.69,0,0,0,.54,6.29c.75,2.16,2.07,3.46,3.71,3.64a3.29,3.29,0,0,0,1.39-.12c2.48-.71,4.49-4.17,5-8.6s-2.34-12.26-2.47-12.58A1.65,1.65,0,0,0,1264.2,1154.22Zm.55,13.27c-.39,3.36-1.8,5.57-2.64,5.81H1262c-.16,0-.61-.4-1-1.45a11.51,11.51,0,0,1-.38-4.84c.23-2,1.62-4.93,2.89-7.23C1264.29,1162.32,1265,1165.47,1264.75,1167.49Z" style="fill:#2d2d2d"/><path d="M1264.68,1154.35a1.65,1.65,0,0,0-2.29,1.84c.07.34,1.73,8.36,4.62,12s6.32,5.33,8.8,4.62h0a3.66,3.66,0,0,0,1.24-.64c1.29-1,1.72-2.83,1.2-5.06a14.62,14.62,0,0,0-2.89-5.61C1272.47,1157.87,1265,1154.5,1264.68,1154.35Zm10.36,13.47c.25,1.09.07,1.65,0,1.75l-.09,0c-.83.24-3.21-.87-5.32-3.51-1.27-1.59-2.36-4.62-3.09-7.15,2.3,1.27,5,3,6.29,4.58A11.54,11.54,0,0,1,1275,1167.82Z" style="fill:#2d2d2d"/><path d="M1265.74,1155.92l-.15-.52a1.64,1.64,0,1,0-3.16.91c0,.18.1.35.14.52,3.21,11.18,3.53,16.39,3.81,21a50.64,50.64,0,0,0,2,12.59,1.65,1.65,0,1,0,3.17-.91,47.4,47.4,0,0,1-1.91-11.88c-.05-.89-.11-1.81-.19-2.78.46.87.9,1.67,1.33,2.45a48,48,0,0,1,4.71,11.07,1.65,1.65,0,0,0,3.17-.91,51.16,51.16,0,0,0-5-11.74C1271.49,1171.67,1269,1167.09,1265.74,1155.92Z" style="fill:#2d2d2d"/><circle cx="1144.24" cy="305.08" r="30.74" transform="translate(424.5 1245.47) rotate(-67.5)"/><path d="M1180.28,295.43l10.14-17-19.8.27.28-19.79-17,10.14-9.66-17.28-9.65,17.28-17-10.14.28,19.79-19.79-.27,10.14,17-17.28,9.65,17.28,9.66-10.14,17,19.79-.28-.28,19.8,17-10.14,9.65,17.28,9.66-17.28,17,10.14-.28-19.8,19.8.28-10.14-17,17.28-9.66Zm-36,45.27a35.62,35.62,0,1,1,35.62-35.62A35.62,35.62,0,0,1,1144.24,340.7Z" style="fill:#232323"/><path d="M1292.47,174a7.34,7.34,0,0,0-6.9,7.74l4.3,74.71a7.33,7.33,0,0,0,14.64-.84l-4.3-74.71A7.34,7.34,0,0,0,1292.47,174Z"/><path d="M1290.34,136.83a27.06,27.06,0,0,0-25.46,28.56l3.69,64.13a5.3,5.3,0,0,0,5.59,5l43.44-2.5a5.29,5.29,0,0,0,5-5.59l-3.69-64.13A27,27,0,0,0,1290.34,136.83Z" style="fill:#4d4c4d"/><path d="M1302.65,155.13a5.59,5.59,0,0,0-5.26,5.9l3.27,56.92a5.59,5.59,0,0,0,11.16-.64l-3.28-56.93A5.57,5.57,0,0,0,1302.65,155.13Z"/><path d="M1280.2,156.42a5.58,5.58,0,0,0-5.25,5.9l3.27,56.92a5.58,5.58,0,0,0,11.15-.64l-3.27-56.93A5.59,5.59,0,0,0,1280.2,156.42Z"/><path d="M179.79,1273.09l-.59,2.75c30.74,2,36.66,34.63,41.45,33.8s-.63-33.6,27.65-45.79l-1.48-2.39A88.6,88.6,0,0,1,179.79,1273.09Z" style="fill:#4d4c4d"/><rect x="206.23" y="1239.44" width="6.87" height="2.2" transform="matrix(0.99, -0.17, 0.17, 0.99, -208.98, 54.1)" style="fill:#4d4c4d"/><path d="M200,1184.5a24.86,24.86,0,0,0-20.23,28.71l.28,1.63,3.25-.56-.28-1.63a21.54,21.54,0,1,1,42.44-7.36l.28,1.62,3.25-.56-.28-1.63A24.86,24.86,0,0,0,200,1184.5Z" style="fill:#4d4c4d"/><path d="M198.73,1176.75a5.27,5.27,0,1,0-7.74,7.15c1.56,1.68,7.12,3.34,8.79,3.81l2.59.73-.53-2.64C201.51,1184.1,200.28,1178.42,198.73,1176.75Zm-5.32,4.91a2,2,0,0,1,.11-2.78,2,2,0,0,1,1-.5,2,2,0,0,1,1.79.61,17,17,0,0,1,1.67,4.71A17.16,17.16,0,0,1,193.41,1181.66Z" style="fill:#4d4c4d"/><path d="M205.4,1174a5.26,5.26,0,0,0-6.92,2.78c-.9,2.1-.14,7.86.12,9.58L199,1189l2.19-1.55c1.41-1,6.1-4.44,7-6.55a5.25,5.25,0,0,0-2.77-6.91Zm-.26,5.62a17.39,17.39,0,0,1-3.62,3.46,17.4,17.4,0,0,1,0-5,2,2,0,0,1,2.59-1,2,2,0,0,1,1,2.59Z" style="fill:#4d4c4d"/><path d="M200,1184.5c-3.75.65-5.73,6.06-4.6,12.59a1.65,1.65,0,0,0,3.25-.56c-.87-5,.55-8.55,1.91-8.78s3.88,2.61,4.75,7.62a1.65,1.65,0,0,0,3.25-.56C207.38,1188.28,203.69,1183.85,200,1184.5Z" style="fill:#4d4c4d"/><path d="M181.35,1212.93s-15.53,17-11.81,31a26.34,26.34,0,0,0,37.25.1C210.59,1230,181.35,1212.93,181.35,1212.93Z" style="fill:#4d4c4d"/><path d="M227,1205s-21.79,25.92-13.48,37.86a26.33,26.33,0,0,0,35-12.65C247.36,1215.73,227,1205,227,1205Z" style="fill:#4d4c4d"/><path d="M169.54,1243.94a26.22,26.22,0,0,0,18.53,7.76l-6.72-38.77S165.82,1229.88,169.54,1243.94Z"/><path d="M213.56,1242.87a26.27,26.27,0,0,0,20.2.91L227,1205S205.25,1230.93,213.56,1242.87Z"/><path d="M179.2,1275.84c30.74,2,36.66,34.63,41.45,33.8L214.46,1274a88.68,88.68,0,0,1-34.67-.87Z"/><path d="M174.91,1464.89c-6.14-1.82-15.44.07-17,5.33s6.87,6.38,13,8.19,13.81,5.45,15.36.19S181,1466.7,174.91,1464.89Z" style="fill:#4d4c4d"/><path d="M207.06,1438.11l-44.6-13.17a24.71,24.71,0,0,0-14,47.4c9.62,2.84,18.36-9.79,26.43-7.4s8.55,17.73,18.17,20.57a24.71,24.71,0,1,0,14-47.4Z"/><path d="M205.59,1442.22l-44.13-13c-11.05-3.26-22.62,2.85-25.8,13.61s3.22,22.18,14.27,25.44c3.51,1,7.34-1.08,11.4-3.33,4.61-2.56,9.37-5.2,14.65-3.64s7.84,6.36,10.32,11c2.18,4.09,4.25,8,7.76,9,11,3.26,22.62-2.85,25.8-13.61S216.64,1445.48,205.59,1442.22Z" style="fill:#2d2d2d"/><path d="M205.59,1442.22l-44.13-13c-11.05-3.26-22.62,2.85-25.8,13.61-.79,2.67,7.56,7.49,18.61,10.75a39.22,39.22,0,0,0,10,1.31,45.72,45.72,0,0,1,25,7.37,39.1,39.1,0,0,0,9.13,4.36c11,3.26,20.67,3.74,21.46,1.08C223,1456.89,216.64,1445.48,205.59,1442.22Z" style="fill:#4d4c4d"/><path d="M171.75,1484.35l-4.77-1.41a7.5,7.5,0,0,0-4.25,14.39l4.77,1.41a7.5,7.5,0,1,0,4.25-14.39Z" style="fill:#4d4c4d"/><path d="M248.75,1418.33a5.5,5.5,0,0,0-6.83,3.71l-24.68,83.57a23.32,23.32,0,0,1-44.73-13.21,5.49,5.49,0,1,0-10.54-3.11,34.31,34.31,0,0,0,65.82,19.43l24.67-83.57A5.49,5.49,0,0,0,248.75,1418.33Z"/><path d="M86.48,1299.3l-38.61,91.45a49.63,49.63,0,0,0,38.61-91.45Z" style="fill:#4d4c4d"/><path d="M21.45,1325.72a49.63,49.63,0,0,0,26.42,65l38.61-91.45A49.63,49.63,0,0,0,21.45,1325.72Z" style="fill:#4d4c4d"/><ellipse cx="67.17" cy="1345.02" rx="49.63" ry="38.19" transform="translate(-1198.04 883.69) rotate(-67.11)" style="fill:#fff"/><path d="M32,1330.17c-10.67,25.25-3.56,52.37,15.88,60.58l38.61-91.45C67.05,1291.09,42.65,1304.91,32,1330.17Z" style="fill:#eeefef"/><path d="M86.48,1299.3c-7.62-3.22-22.43,14.65-33.1,39.9s-13.13,48.33-5.51,51.55S70.3,1376.1,81,1350.85,94.1,1302.52,86.48,1299.3Z" style="fill:#2d2d2d"/><path d="M53.38,1339.2c-10.66,25.25-13.13,48.33-5.51,51.55l38.61-91.45C78.86,1296.08,64.05,1314,53.38,1339.2Z"/><path d="M77,1296.36c1.15,1.47,4.42,3.55,8.51,5.28s7.87,2.62,9.72,2.42a50,50,0,0,0-18.23-7.7Z"/><path d="M39.13,1386a50.18,50.18,0,0,0,18.24,7.7c-1.15-1.47-4.42-3.55-8.52-5.28S41,1385.79,39.13,1386Z"/><rect x="56.64" y="825.29" width="73.12" height="95.03" rx="5.86" ry="5.86" transform="translate(-765 688.56) rotate(-71.79)" style="fill:#4d4c4d"/><rect x="70.18" y="822.94" width="43.73" height="106.75" rx="5.86" ry="5.86" transform="translate(-769.14 689.88) rotate(-71.79)"/><circle cx="92.05" cy="876.32" r="26.02" transform="translate(-743.28 595.92) rotate(-65.45)" style="fill:#c5c7c9"/><path d="M98.43,856.92a20.42,20.42,0,1,0,13,25.78A20.42,20.42,0,0,0,98.43,856.92Z" style="fill:#232323"/><path d="M98.43,856.92,85.67,895.71a20.42,20.42,0,0,0,12.76-38.79Z"/><rect x="127.44" y="848.18" width="8.78" height="19.27" transform="translate(-724.21 714.96) rotate(-71.79)" style="fill:#232323"/><rect x="131.48" y="833.51" width="6.63" height="21.98" transform="translate(-709.53 708.61) rotate(-71.79)"/><rect x="78.69" y="822.14" width="2.24" height="13.17" transform="translate(-732.34 645.54) rotate(-71.79)" style="fill:#c5c7c9"/><rect x="78.14" y="817.25" width="4.39" height="16.78" transform="translate(-729.05 643.92) rotate(-71.79)" style="fill:#4d4c4d"/><circle cx="75.24" cy="1104.08" r="30.74" transform="translate(-973.59 751.08) rotate(-67.5)"/><path d="M111.28,1094.43l10.14-17-19.8.27.28-19.79-17,10.14-9.66-17.28-9.65,17.28-17-10.14.28,19.79-19.79-.27,10.14,17-17.28,9.65,17.28,9.66-10.14,17,19.79-.28-.28,19.8,17-10.14,9.65,17.28,9.66-17.28,17,10.14-.28-19.8,19.8.28-10.14-17,17.28-9.66Zm-36,45.27a35.62,35.62,0,1,1,35.62-35.62A35.62,35.62,0,0,1,75.24,1139.7Z" style="fill:#232323"/><path d="M223.47,973a7.34,7.34,0,0,0-6.9,7.74l4.3,74.71a7.33,7.33,0,0,0,14.64-.84l-4.3-74.71A7.34,7.34,0,0,0,223.47,973Z"/><path d="M221.34,935.83a27.06,27.06,0,0,0-25.46,28.56l3.69,64.13a5.3,5.3,0,0,0,5.59,5l43.44-2.5a5.29,5.29,0,0,0,5-5.59l-3.69-64.13A27,27,0,0,0,221.34,935.83Z" style="fill:#4d4c4d"/><path d="M233.65,954.13a5.59,5.59,0,0,0-5.26,5.9l3.27,56.92a5.59,5.59,0,0,0,11.16-.64l-3.28-56.93A5.57,5.57,0,0,0,233.65,954.13Z"/><path d="M211.2,955.42a5.58,5.58,0,0,0-5.25,5.9l3.27,56.92a5.58,5.58,0,0,0,11.15-.64l-3.27-56.93A5.59,5.59,0,0,0,211.2,955.42Z"/></svg>