<svg xmlns="http://www.w3.org/2000/svg" xmlns:xlink="http://www.w3.org/1999/xlink" viewBox="0 0 328.12 846.75"><defs><clipPath id="a"><path d="M212.69,102.73A20,20,0,0,1,212,107l-.11.23-.17.2a16.27,16.27,0,0,1-5.39,2.07c-18.87,4.48-62,4.4-81.19.64-5.66-1.2-6.17-2-7.17-2.45l-.29-.44a22.05,22.05,0,0,1-.7-4.3C120.74,110,208.78,110.05,212.69,102.73Z" style="fill:#d22c20"/></clipPath><clipPath id="b"><path d="M209.63,109.14C209.2,111.51,197,183,196.77,184c-5.28,15.58-59.28,16.26-62.87-.27-.19-1.06-13.71-74.3-13.71-74.3C134,115.39,195.57,115.33,209.63,109.14Z" style="fill:#d22c20"/></clipPath><linearGradient id="c" x1="-186.74" y1="288.95" x2="-152.35" y2="288.95" gradientTransform="matrix(1, 0, 0, -1, 460.49, 577.9)" gradientUnits="userSpaceOnUse"><stop offset="0.01" stop-color="#d22c20"/><stop offset="0.31" stop-color="#e7342e"/><stop offset="0.51" stop-color="#ef3733"/><stop offset="0.72" stop-color="#e6332d"/><stop offset="1" stop-color="#d22c20"/></linearGradient><linearGradient id="d" x1="307.64" y1="329.93" x2="274.87" y2="329.93" gradientUnits="userSpaceOnUse"><stop offset="0.05" stop-color="#d3d2d2"/><stop offset="0.37" stop-color="#9a9a9c"/><stop offset="0.64" stop-color="#9a9a9c"/><stop offset="1" stop-color="#d1d6d5"/></linearGradient><linearGradient id="e" x1="303.24" y1="337.17" x2="279.45" y2="337.17" xlink:href="#d"/><linearGradient id="f" x1="303.24" y1="344.42" x2="279.45" y2="344.42" xlink:href="#d"/><linearGradient id="g" x1="303.24" y1="351.66" x2="279.45" y2="351.66" xlink:href="#d"/><linearGradient id="h" x1="303.24" y1="358.9" x2="279.45" y2="358.9" xlink:href="#d"/><linearGradient id="i" x1="307.64" y1="366.15" x2="274.87" y2="366.15" xlink:href="#d"/><linearGradient id="j" x1="303.39" y1="373.39" x2="279.6" y2="373.39" xlink:href="#d"/><linearGradient id="k" x1="303.39" y1="380.63" x2="279.6" y2="380.63" xlink:href="#d"/><linearGradient id="l" x1="303.39" y1="387.88" x2="279.6" y2="387.88" xlink:href="#d"/><linearGradient id="m" x1="303.39" y1="395.12" x2="279.6" y2="395.12" xlink:href="#d"/><linearGradient id="n" x1="307.79" y1="402.37" x2="275.03" y2="402.37" xlink:href="#d"/><linearGradient id="o" x1="303.24" y1="409.61" x2="279.45" y2="409.61" xlink:href="#d"/><linearGradient id="p" x1="303.24" y1="416.85" x2="279.45" y2="416.85" xlink:href="#d"/><linearGradient id="q" x1="303.24" y1="424.1" x2="279.45" y2="424.1" xlink:href="#d"/><linearGradient id="r" x1="303.24" y1="431.34" x2="279.45" y2="431.34" xlink:href="#d"/><linearGradient id="s" x1="307.64" y1="438.58" x2="274.87" y2="438.58" xlink:href="#d"/><linearGradient id="t" x1="303.24" y1="445.83" x2="279.45" y2="445.83" xlink:href="#d"/><linearGradient id="u" x1="303.24" y1="453.07" x2="279.45" y2="453.07" xlink:href="#d"/><linearGradient id="v" x1="303.24" y1="460.31" x2="279.45" y2="460.31" xlink:href="#d"/><linearGradient id="w" x1="303.24" y1="467.56" x2="279.45" y2="467.56" xlink:href="#d"/><linearGradient id="x" x1="307.64" y1="474.8" x2="274.87" y2="474.8" xlink:href="#d"/><linearGradient id="y" x1="307.64" y1="221.51" x2="274.87" y2="221.51" xlink:href="#d"/><linearGradient id="z" x1="303.24" y1="228.75" x2="279.45" y2="228.75" xlink:href="#d"/><linearGradient id="aa" x1="303.24" y1="235.99" x2="279.45" y2="235.99" xlink:href="#d"/><linearGradient id="ab" x1="303.24" y1="243.24" x2="279.45" y2="243.24" xlink:href="#d"/><linearGradient id="ac" x1="303.24" y1="250.48" x2="279.45" y2="250.48" xlink:href="#d"/><linearGradient id="ad" x1="307.64" y1="257.73" x2="274.87" y2="257.73" xlink:href="#d"/><linearGradient id="ae" x1="303.39" y1="264.97" x2="279.6" y2="264.97" xlink:href="#d"/><linearGradient id="af" x1="303.39" y1="272.21" x2="279.6" y2="272.21" xlink:href="#d"/><linearGradient id="ag" x1="303.39" y1="279.46" x2="279.6" y2="279.46" xlink:href="#d"/><linearGradient id="ah" x1="303.39" y1="286.7" x2="279.6" y2="286.7" xlink:href="#d"/><linearGradient id="ai" x1="307.79" y1="293.94" x2="275.03" y2="293.94" xlink:href="#d"/><linearGradient id="aj" x1="303.24" y1="301.19" x2="279.45" y2="301.19" xlink:href="#d"/><linearGradient id="ak" x1="303.24" y1="308.43" x2="279.45" y2="308.43" xlink:href="#d"/><linearGradient id="al" x1="303.24" y1="315.67" x2="279.45" y2="315.67" xlink:href="#d"/><linearGradient id="am" x1="303.24" y1="322.92" x2="279.45" y2="322.92" xlink:href="#d"/><linearGradient id="an" x1="307.64" y1="330.16" x2="274.87" y2="330.16" xlink:href="#d"/><linearGradient id="ao" x1="303.24" y1="337.4" x2="279.45" y2="337.4" xlink:href="#d"/><linearGradient id="ap" x1="303.24" y1="344.65" x2="279.45" y2="344.65" xlink:href="#d"/><linearGradient id="aq" x1="303.24" y1="351.89" x2="279.45" y2="351.89" xlink:href="#d"/><linearGradient id="ar" x1="303.24" y1="359.13" x2="279.45" y2="359.13" xlink:href="#d"/><linearGradient id="as" x1="307.64" y1="366.38" x2="274.87" y2="366.38" xlink:href="#d"/><linearGradient id="at" x1="307.64" y1="113.09" x2="274.87" y2="113.09" xlink:href="#d"/><linearGradient id="au" x1="303.24" y1="120.33" x2="279.45" y2="120.33" xlink:href="#d"/><linearGradient id="av" x1="303.24" y1="127.57" x2="279.45" y2="127.57" xlink:href="#d"/><linearGradient id="aw" x1="303.24" y1="134.82" x2="279.45" y2="134.82" xlink:href="#d"/><linearGradient id="ax" x1="303.24" y1="142.06" x2="279.45" y2="142.06" xlink:href="#d"/><linearGradient id="ay" x1="307.64" y1="149.3" x2="274.87" y2="149.3" xlink:href="#d"/><linearGradient id="az" x1="303.39" y1="156.55" x2="279.6" y2="156.55" xlink:href="#d"/><linearGradient id="ba" x1="303.39" y1="163.79" x2="279.6" y2="163.79" xlink:href="#d"/><linearGradient id="bb" x1="303.39" y1="171.03" x2="279.6" y2="171.03" xlink:href="#d"/><linearGradient id="bc" x1="303.39" y1="178.28" x2="279.6" y2="178.28" xlink:href="#d"/><linearGradient id="bd" x1="307.79" y1="185.52" x2="275.03" y2="185.52" xlink:href="#d"/><linearGradient id="be" x1="303.24" y1="192.76" x2="279.45" y2="192.76" xlink:href="#d"/><linearGradient id="bf" x1="303.24" y1="200.01" x2="279.45" y2="200.01" xlink:href="#d"/><linearGradient id="bg" x1="303.24" y1="207.25" x2="279.45" y2="207.25" xlink:href="#d"/><linearGradient id="bh" x1="303.24" y1="214.49" x2="279.45" y2="214.49" xlink:href="#d"/><linearGradient id="bi" x1="307.64" y1="221.74" x2="274.87" y2="221.74" xlink:href="#d"/><linearGradient id="bj" x1="303.24" y1="228.98" x2="279.45" y2="228.98" xlink:href="#d"/><linearGradient id="bk" x1="303.24" y1="236.23" x2="279.45" y2="236.23" xlink:href="#d"/><linearGradient id="bl" x1="303.24" y1="243.47" x2="279.45" y2="243.47" xlink:href="#d"/><linearGradient id="bm" x1="303.24" y1="250.71" x2="279.45" y2="250.71" xlink:href="#d"/><linearGradient id="bn" x1="307.64" y1="257.96" x2="274.87" y2="257.96" xlink:href="#d"/><clipPath id="bo"><rect x="282.54" y="112.37" width="17.37" height="371.86" style="fill:none"/></clipPath><linearGradient id="bp" x1="271.19" y1="486.08" x2="311.98" y2="486.08" gradientUnits="userSpaceOnUse"><stop offset="0.01" stop-color="#d22c20"/><stop offset="0.26" stop-color="#e2322b"/><stop offset="0.51" stop-color="#ef3733"/><stop offset="1" stop-color="#d22c20"/></linearGradient><linearGradient id="bq" x1="-372.74" y1="288.95" x2="-338.35" y2="288.95" gradientTransform="translate(392.71)" xlink:href="#c"/><linearGradient id="br" x1="493.64" y1="329.93" x2="460.87" y2="329.93" gradientTransform="matrix(-1, 0, 0, 1, 514.12, 0)" xlink:href="#d"/><linearGradient id="bs" x1="489.24" y1="337.17" x2="465.45" y2="337.17" gradientTransform="matrix(-1, 0, 0, 1, 514.12, 0)" xlink:href="#d"/><linearGradient id="bt" x1="489.24" y1="344.42" x2="465.45" y2="344.42" gradientTransform="matrix(-1, 0, 0, 1, 514.12, 0)" xlink:href="#d"/><linearGradient id="bu" x1="489.24" y1="351.66" x2="465.45" y2="351.66" gradientTransform="matrix(-1, 0, 0, 1, 514.12, 0)" xlink:href="#d"/><linearGradient id="bv" x1="489.24" y1="358.9" x2="465.45" y2="358.9" gradientTransform="matrix(-1, 0, 0, 1, 514.12, 0)" xlink:href="#d"/><linearGradient id="bw" x1="493.64" y1="366.15" x2="460.87" y2="366.15" gradientTransform="matrix(-1, 0, 0, 1, 514.12, 0)" xlink:href="#d"/><linearGradient id="bx" x1="489.39" y1="373.39" x2="465.6" y2="373.39" gradientTransform="matrix(-1, 0, 0, 1, 514.12, 0)" xlink:href="#d"/><linearGradient id="by" x1="489.39" y1="380.63" x2="465.6" y2="380.63" gradientTransform="matrix(-1, 0, 0, 1, 514.12, 0)" xlink:href="#d"/><linearGradient id="bz" x1="489.39" y1="387.88" x2="465.6" y2="387.88" gradientTransform="matrix(-1, 0, 0, 1, 514.12, 0)" xlink:href="#d"/><linearGradient id="ca" x1="489.39" y1="395.12" x2="465.6" y2="395.12" gradientTransform="matrix(-1, 0, 0, 1, 514.12, 0)" xlink:href="#d"/><linearGradient id="cb" x1="493.79" y1="402.37" x2="461.03" y2="402.37" gradientTransform="matrix(-1, 0, 0, 1, 514.12, 0)" xlink:href="#d"/><linearGradient id="cc" x1="489.24" y1="409.61" x2="465.45" y2="409.61" gradientTransform="matrix(-1, 0, 0, 1, 514.12, 0)" xlink:href="#d"/><linearGradient id="cd" x1="489.24" y1="416.85" x2="465.45" y2="416.85" gradientTransform="matrix(-1, 0, 0, 1, 514.12, 0)" xlink:href="#d"/><linearGradient id="ce" x1="489.24" y1="424.1" x2="465.45" y2="424.1" gradientTransform="matrix(-1, 0, 0, 1, 514.12, 0)" xlink:href="#d"/><linearGradient id="cf" x1="489.24" y1="431.34" x2="465.45" y2="431.34" gradientTransform="matrix(-1, 0, 0, 1, 514.12, 0)" xlink:href="#d"/><linearGradient id="cg" x1="493.64" y1="438.58" x2="460.87" y2="438.58" gradientTransform="matrix(-1, 0, 0, 1, 514.12, 0)" xlink:href="#d"/><linearGradient id="ch" x1="489.24" y1="445.83" x2="465.45" y2="445.83" gradientTransform="matrix(-1, 0, 0, 1, 514.12, 0)" xlink:href="#d"/><linearGradient id="ci" x1="489.24" y1="453.07" x2="465.45" y2="453.07" gradientTransform="matrix(-1, 0, 0, 1, 514.12, 0)" xlink:href="#d"/><linearGradient id="cj" x1="489.24" y1="460.31" x2="465.45" y2="460.31" gradientTransform="matrix(-1, 0, 0, 1, 514.12, 0)" xlink:href="#d"/><linearGradient id="ck" x1="489.24" y1="467.56" x2="465.45" y2="467.56" gradientTransform="matrix(-1, 0, 0, 1, 514.12, 0)" xlink:href="#d"/><linearGradient id="cl" x1="493.64" y1="474.8" x2="460.87" y2="474.8" gradientTransform="matrix(-1, 0, 0, 1, 514.12, 0)" xlink:href="#d"/><linearGradient id="cm" x1="493.64" y1="221.51" x2="460.87" y2="221.51" gradientTransform="matrix(-1, 0, 0, 1, 514.12, 0)" xlink:href="#d"/><linearGradient id="cn" x1="489.24" y1="228.75" x2="465.45" y2="228.75" gradientTransform="matrix(-1, 0, 0, 1, 514.12, 0)" xlink:href="#d"/><linearGradient id="co" x1="489.24" y1="235.99" x2="465.45" y2="235.99" gradientTransform="matrix(-1, 0, 0, 1, 514.12, 0)" xlink:href="#d"/><linearGradient id="cp" x1="489.24" y1="243.24" x2="465.45" y2="243.24" gradientTransform="matrix(-1, 0, 0, 1, 514.12, 0)" xlink:href="#d"/><linearGradient id="cq" x1="489.24" y1="250.48" x2="465.45" y2="250.48" gradientTransform="matrix(-1, 0, 0, 1, 514.12, 0)" xlink:href="#d"/><linearGradient id="cr" x1="493.64" y1="257.73" x2="460.87" y2="257.73" gradientTransform="matrix(-1, 0, 0, 1, 514.12, 0)" xlink:href="#d"/><linearGradient id="cs" x1="489.39" y1="264.97" x2="465.6" y2="264.97" gradientTransform="matrix(-1, 0, 0, 1, 514.12, 0)" xlink:href="#d"/><linearGradient id="ct" x1="489.39" y1="272.21" x2="465.6" y2="272.21" gradientTransform="matrix(-1, 0, 0, 1, 514.12, 0)" xlink:href="#d"/><linearGradient id="cu" x1="489.39" y1="279.46" x2="465.6" y2="279.46" gradientTransform="matrix(-1, 0, 0, 1, 514.12, 0)" xlink:href="#d"/><linearGradient id="cv" x1="489.39" y1="286.7" x2="465.6" y2="286.7" gradientTransform="matrix(-1, 0, 0, 1, 514.12, 0)" xlink:href="#d"/><linearGradient id="cw" x1="493.79" y1="293.94" x2="461.03" y2="293.94" gradientTransform="matrix(-1, 0, 0, 1, 514.12, 0)" xlink:href="#d"/><linearGradient id="cx" x1="489.24" y1="301.19" x2="465.45" y2="301.19" gradientTransform="matrix(-1, 0, 0, 1, 514.12, 0)" xlink:href="#d"/><linearGradient id="cy" x1="489.24" y1="308.43" x2="465.45" y2="308.43" gradientTransform="matrix(-1, 0, 0, 1, 514.12, 0)" xlink:href="#d"/><linearGradient id="cz" x1="489.24" y1="315.67" x2="465.45" y2="315.67" gradientTransform="matrix(-1, 0, 0, 1, 514.12, 0)" xlink:href="#d"/><linearGradient id="da" x1="489.24" y1="322.92" x2="465.45" y2="322.92" gradientTransform="matrix(-1, 0, 0, 1, 514.12, 0)" xlink:href="#d"/><linearGradient id="db" x1="493.64" y1="330.16" x2="460.87" y2="330.16" gradientTransform="matrix(-1, 0, 0, 1, 514.12, 0)" xlink:href="#d"/><linearGradient id="dc" x1="489.24" y1="337.4" x2="465.45" y2="337.4" gradientTransform="matrix(-1, 0, 0, 1, 514.12, 0)" xlink:href="#d"/><linearGradient id="dd" x1="489.24" y1="344.65" x2="465.45" y2="344.65" gradientTransform="matrix(-1, 0, 0, 1, 514.12, 0)" xlink:href="#d"/><linearGradient id="de" x1="489.24" y1="351.89" x2="465.45" y2="351.89" gradientTransform="matrix(-1, 0, 0, 1, 514.12, 0)" xlink:href="#d"/><linearGradient id="df" x1="489.24" y1="359.13" x2="465.45" y2="359.13" gradientTransform="matrix(-1, 0, 0, 1, 514.12, 0)" xlink:href="#d"/><linearGradient id="dg" x1="493.64" y1="366.38" x2="460.87" y2="366.38" gradientTransform="matrix(-1, 0, 0, 1, 514.12, 0)" xlink:href="#d"/><linearGradient id="dh" x1="493.64" y1="113.09" x2="460.87" y2="113.09" gradientTransform="matrix(-1, 0, 0, 1, 514.12, 0)" xlink:href="#d"/><linearGradient id="di" x1="489.24" y1="120.33" x2="465.45" y2="120.33" gradientTransform="matrix(-1, 0, 0, 1, 514.12, 0)" xlink:href="#d"/><linearGradient id="dj" x1="489.24" y1="127.57" x2="465.45" y2="127.57" gradientTransform="matrix(-1, 0, 0, 1, 514.12, 0)" xlink:href="#d"/><linearGradient id="dk" x1="489.24" y1="134.82" x2="465.45" y2="134.82" gradientTransform="matrix(-1, 0, 0, 1, 514.12, 0)" xlink:href="#d"/><linearGradient id="dl" x1="489.24" y1="142.06" x2="465.45" y2="142.06" gradientTransform="matrix(-1, 0, 0, 1, 514.12, 0)" xlink:href="#d"/><linearGradient id="dm" x1="493.64" y1="149.3" x2="460.87" y2="149.3" gradientTransform="matrix(-1, 0, 0, 1, 514.12, 0)" xlink:href="#d"/><linearGradient id="dn" x1="489.39" y1="156.55" x2="465.6" y2="156.55" gradientTransform="matrix(-1, 0, 0, 1, 514.12, 0)" xlink:href="#d"/><linearGradient id="do" x1="489.39" y1="163.79" x2="465.6" y2="163.79" gradientTransform="matrix(-1, 0, 0, 1, 514.12, 0)" xlink:href="#d"/><linearGradient id="dp" x1="489.39" y1="171.03" x2="465.6" y2="171.03" gradientTransform="matrix(-1, 0, 0, 1, 514.12, 0)" xlink:href="#d"/><linearGradient id="dq" x1="489.39" y1="178.28" x2="465.6" y2="178.28" gradientTransform="matrix(-1, 0, 0, 1, 514.12, 0)" xlink:href="#d"/><linearGradient id="dr" x1="493.79" y1="185.52" x2="461.03" y2="185.52" gradientTransform="matrix(-1, 0, 0, 1, 514.12, 0)" xlink:href="#d"/><linearGradient id="ds" x1="489.24" y1="192.76" x2="465.45" y2="192.76" gradientTransform="matrix(-1, 0, 0, 1, 514.12, 0)" xlink:href="#d"/><linearGradient id="dt" x1="489.24" y1="200.01" x2="465.45" y2="200.01" gradientTransform="matrix(-1, 0, 0, 1, 514.12, 0)" xlink:href="#d"/><linearGradient id="du" x1="489.24" y1="207.25" x2="465.45" y2="207.25" gradientTransform="matrix(-1, 0, 0, 1, 514.12, 0)" xlink:href="#d"/><linearGradient id="dv" x1="489.24" y1="214.49" x2="465.45" y2="214.49" gradientTransform="matrix(-1, 0, 0, 1, 514.12, 0)" xlink:href="#d"/><linearGradient id="dw" x1="493.64" y1="221.74" x2="460.87" y2="221.74" gradientTransform="matrix(-1, 0, 0, 1, 514.12, 0)" xlink:href="#d"/><linearGradient id="dx" x1="489.24" y1="228.98" x2="465.45" y2="228.98" gradientTransform="matrix(-1, 0, 0, 1, 514.12, 0)" xlink:href="#d"/><linearGradient id="dy" x1="489.24" y1="236.23" x2="465.45" y2="236.23" gradientTransform="matrix(-1, 0, 0, 1, 514.12, 0)" xlink:href="#d"/><linearGradient id="dz" x1="489.24" y1="243.47" x2="465.45" y2="243.47" gradientTransform="matrix(-1, 0, 0, 1, 514.12, 0)" xlink:href="#d"/><linearGradient id="ea" x1="489.24" y1="250.71" x2="465.45" y2="250.71" gradientTransform="matrix(-1, 0, 0, 1, 514.12, 0)" xlink:href="#d"/><linearGradient id="eb" x1="493.64" y1="257.96" x2="460.87" y2="257.96" gradientTransform="matrix(-1, 0, 0, 1, 514.12, 0)" xlink:href="#d"/><clipPath id="ec"><rect x="28.21" y="112.37" width="17.37" height="371.86" transform="translate(73.79 596.6) rotate(-180)" style="fill:none"/></clipPath><linearGradient id="ed" x1="457.19" y1="486.08" x2="497.98" y2="486.08" gradientTransform="matrix(1, 0, 0, -1, -441.06, 972.17)" xlink:href="#bp"/></defs><title>bucket_1</title><path d="M211.62,100.94a.89.89,0,0,1,0,.36c-.41,1.34-4.09,2.46-9.79,3.29-23.4,3.41-80.64,2.42-83.77-2.91l0-.18v-.18l.06-.18-.09-.07.27-.33c5.94-3.71,29.05-4.71,36-4.79-2.15.13-31.94,1-32.68,4.78l0,.16a1.6,1.6,0,0,0,.83.81l.39.08h0l.29.24c13.17,5.07,74.18,4.08,83-.07a2.29,2.29,0,0,1,.84-.28c.67-.34,1-.53,1.17-1l0-.15,0-.17c-.47-1-2.88-1.62-4.89-2.06-1.75-.38-4-.6-6.23-.89,1.66.11,3.82.34,3.9.35C203.25,97.94,210.67,99.23,211.62,100.94Z" style="fill:#ff433e"/><path d="M211.62,100.94a2.79,2.79,0,0,0-1-.82l.61.32a2.23,2.23,0,0,1,1.43,2.29c-3.91,7.32-91.95,7.3-95.67.24a2,2,0,0,1,.82-1.88l.46-.35-.18.4-.06.18v.18l0,.18c3.89,6.61,91.45,6.55,93.56-.38A.89.89,0,0,0,211.62,100.94Z" style="fill:#f23b36"/><path d="M211.76,107.45A3.91,3.91,0,0,0,212,107a2.05,2.05,0,0,1-.25.6c-2.79,4-24.9,8.8-46.87,8.92s-43.87-4.43-46.92-8.65a2.91,2.91,0,0,1-.32-.74c.24.43.33.56.33.56,1,.49,1.61,1.36,8.14,2.64,20.09,3.63,63,3.53,81-1A15.46,15.46,0,0,0,211.76,107.45Z" style="fill:#a81a16"/><path d="M211.76,107.45A3.91,3.91,0,0,0,212,107a2.05,2.05,0,0,1-.25.6c-5.58,8.06-87.68,8.71-93.79.27a2.91,2.91,0,0,1-.32-.74c.24.43.33.56.33.56,1,.49,1.61,1.36,8.14,2.64,20.09,3.63,63,3.53,81-1A15.46,15.46,0,0,0,211.76,107.45Z" style="fill:#d22c20"/><path d="M134.44,185.52v-.14a11.07,11.07,0,0,0,2.07,2.79c9.71,9,32.46,9.1,45.56,5.66,9.21-2.64,11.81-5.65,13.15-7a12,12,0,0,0,1.26-2,7.82,7.82,0,0,1-1,2.05c-9.46,13-48.93,13.71-59.59,1A12.94,12.94,0,0,1,134.44,185.52Z" style="fill:#a81a16"/><path d="M211.77,107.57l.19-.3a8.77,8.77,0,0,0,.45-1.89c0,.23-.23,5.65-.33,5.86l-.06,0h-2.78c.36-2.12.34-1.88.39-2.14A4.19,4.19,0,0,0,211.77,107.57Z" style="fill:#a81a16"/><path d="M120.19,109.46l.41,2.09h-2.76l-.07,0c-.11-.39,0,.19-.38-5.6a6.88,6.88,0,0,0,.43,1.61l.19.17v.18A7.16,7.16,0,0,0,120.19,109.46Z" style="fill:#a81a16"/><path d="M212.69,102.73A20,20,0,0,1,212,107l-.11.23-.17.2a16.27,16.27,0,0,1-5.39,2.07c-18.87,4.48-62,4.4-81.19.64-5.66-1.2-6.17-2-7.17-2.45l-.29-.44a22.05,22.05,0,0,1-.7-4.3C120.74,110,208.78,110.05,212.69,102.73Z" style="fill:#d22c20"/><g style="clip-path:url(#a)"><polygon points="191.68 105.93 190.51 114.6 217.02 108 215.53 96.84 191.68 105.93" style="fill:#a81a16"/></g><path d="M209.63,109.14C209.2,111.51,197,183,196.77,184c-5.28,15.58-59.28,16.26-62.87-.27-.19-1.06-13.71-74.3-13.71-74.3C134,115.39,195.57,115.33,209.63,109.14Z" style="fill:#d22c20"/><g style="clip-path:url(#b)"><path d="M187,110.48s0,.59-.12,1.65c-20.27,1.51-46.36.82-60.75-1.78-6.53-1.28-7.12-2.15-8.14-2.64,0,0-.09-.13-.33-.56,0,.27.32,1.52.32,1.52,3,4.22,24.92,8,46.92,7.87a199.5,199.5,0,0,0,21.75-1.32c-1.2,16.25-5.08,68.94-5.08,71.29,0,2.77-5.82,9.3-24.05,10.5S206,202.92,206,202.92l14.35-104.1Z" style="fill:#a81a16"/></g><g style="opacity:0"><path d="M254.25,0H230.08a42.15,42.15,0,0,0-42,42v.08h10.38A31.78,31.78,0,0,1,230.1,11.19h24.13a31.78,31.78,0,0,1,31.69,31.69V74.56c0,.1,0,.2,0,.3h10.37V42A42.15,42.15,0,0,0,254.25,0Z" style="fill:#d22c20"/><polygon points="188.49 42.43 187.73 48.03 190.26 50.43 196.83 49.6 198.01 44.51 197.4 40.74 197.56 39.96 189 39.96 188.49 42.43" style="fill:#d22c20"/><path d="M199.22,40h-3.08c0,.34-.06.67-.07,1h-5.71c0-.34,0-.68,0-1h-3.08c0,.34,0,.68,0,1H186v6.88a3.72,3.72,0,0,0,3.74,3.73h6.5a3.69,3.69,0,0,0,.87-.1A3.74,3.74,0,0,0,200,47.84V41h-.82C199.16,40.63,199.2,40.3,199.22,40Zm-2.32,4.56v3.33a.66.66,0,0,1-.66.66h-6.5a.64.64,0,0,1-.46-.19.62.62,0,0,1-.2-.46V44.05h7.82Z" style="fill:#d22c20"/><rect x="187.31" y="40.02" width="11.84" height="0.97" transform="translate(386.47 81.01) rotate(180)" style="fill:#a81a16"/><rect x="285.86" y="68.47" width="10.64" height="0.89" transform="translate(582.36 137.84) rotate(-180)" style="fill:#a81a16"/><rect x="271.16" y="92.76" width="40.83" height="400.07" transform="translate(583.16 585.59) rotate(-180)" style="fill:#d22c20"/><ellipse cx="291.57" cy="94.09" rx="20.46" ry="21.68" style="fill:#d22c20"/><polygon points="271.4 90.96 311.76 90.83 311.36 89.14 271.75 89.14 271.4 90.96" style="fill:#a81a16"/><rect x="273.76" y="90.95" width="34.39" height="395.99" transform="translate(581.9 577.9) rotate(-180)" style="fill:url(#c)"/><rect x="274.63" y="329.14" width="33.91" height="1.59" style="fill:url(#d)"/><rect x="279.27" y="336.38" width="24.62" height="1.59" style="fill:url(#e)"/><rect x="279.27" y="343.62" width="24.62" height="1.59" style="fill:url(#f)"/><rect x="279.27" y="350.87" width="24.62" height="1.59" style="fill:url(#g)"/><rect x="279.27" y="358.11" width="24.62" height="1.59" style="fill:url(#h)"/><rect x="274.63" y="365.35" width="33.91" height="1.59" style="fill:url(#i)"/><rect x="279.42" y="372.6" width="24.62" height="1.59" style="fill:url(#j)"/><rect x="279.42" y="379.84" width="24.62" height="1.59" style="fill:url(#k)"/><rect x="279.42" y="387.08" width="24.62" height="1.59" style="fill:url(#l)"/><rect x="279.42" y="394.33" width="24.62" height="1.59" style="fill:url(#m)"/><rect x="274.78" y="401.57" width="33.91" height="1.59" style="fill:url(#n)"/><rect x="279.27" y="408.81" width="24.62" height="1.59" style="fill:url(#o)"/><rect x="279.27" y="416.06" width="24.62" height="1.59" style="fill:url(#p)"/><rect x="279.27" y="423.3" width="24.62" height="1.59" style="fill:url(#q)"/><rect x="279.27" y="430.54" width="24.62" height="1.59" style="fill:url(#r)"/><rect x="274.63" y="437.79" width="33.91" height="1.59" style="fill:url(#s)"/><rect x="279.27" y="445.03" width="24.62" height="1.59" style="fill:url(#t)"/><rect x="279.27" y="452.28" width="24.62" height="1.59" style="fill:url(#u)"/><rect x="279.27" y="459.52" width="24.62" height="1.59" style="fill:url(#v)"/><rect x="279.27" y="466.76" width="24.62" height="1.59" style="fill:url(#w)"/><rect x="274.63" y="474.01" width="33.91" height="1.59" style="fill:url(#x)"/><rect x="274.63" y="220.71" width="33.91" height="1.59" style="fill:url(#y)"/><rect x="279.27" y="227.96" width="24.62" height="1.59" style="fill:url(#z)"/><rect x="279.27" y="235.2" width="24.62" height="1.59" style="fill:url(#aa)"/><rect x="279.27" y="242.44" width="24.62" height="1.59" style="fill:url(#ab)"/><rect x="279.27" y="249.69" width="24.62" height="1.59" style="fill:url(#ac)"/><rect x="274.63" y="256.93" width="33.91" height="1.59" style="fill:url(#ad)"/><rect x="279.42" y="264.17" width="24.62" height="1.59" style="fill:url(#ae)"/><rect x="279.42" y="271.42" width="24.62" height="1.59" style="fill:url(#af)"/><rect x="279.42" y="278.66" width="24.62" height="1.59" style="fill:url(#ag)"/><rect x="279.42" y="285.9" width="24.62" height="1.59" style="fill:url(#ah)"/><rect x="274.78" y="293.15" width="33.91" height="1.59" style="fill:url(#ai)"/><rect x="279.27" y="300.39" width="24.62" height="1.59" style="fill:url(#aj)"/><rect x="279.27" y="307.64" width="24.62" height="1.59" style="fill:url(#ak)"/><rect x="279.27" y="314.88" width="24.62" height="1.59" style="fill:url(#al)"/><rect x="279.27" y="322.12" width="24.62" height="1.59" style="fill:url(#am)"/><rect x="274.63" y="329.37" width="33.91" height="1.59" style="fill:url(#an)"/><rect x="279.27" y="336.61" width="24.62" height="1.59" style="fill:url(#ao)"/><rect x="279.27" y="343.85" width="24.62" height="1.59" style="fill:url(#ap)"/><rect x="279.27" y="351.1" width="24.62" height="1.59" style="fill:url(#aq)"/><rect x="279.27" y="358.34" width="24.62" height="1.59" style="fill:url(#ar)"/><rect x="274.63" y="365.58" width="33.91" height="1.59" style="fill:url(#as)"/><rect x="274.63" y="112.29" width="33.91" height="1.59" style="fill:url(#at)"/><rect x="279.27" y="119.53" width="24.62" height="1.59" style="fill:url(#au)"/><rect x="279.27" y="126.78" width="24.62" height="1.59" style="fill:url(#av)"/><rect x="279.27" y="134.02" width="24.62" height="1.59" style="fill:url(#aw)"/><rect x="279.27" y="141.26" width="24.62" height="1.59" style="fill:url(#ax)"/><rect x="274.63" y="148.51" width="33.91" height="1.59" style="fill:url(#ay)"/><rect x="279.42" y="155.75" width="24.62" height="1.59" style="fill:url(#az)"/><rect x="279.42" y="163" width="24.62" height="1.59" style="fill:url(#ba)"/><rect x="279.42" y="170.24" width="24.62" height="1.59" style="fill:url(#bb)"/><rect x="279.42" y="177.48" width="24.62" height="1.59" style="fill:url(#bc)"/><rect x="274.78" y="184.73" width="33.91" height="1.59" style="fill:url(#bd)"/><rect x="279.27" y="191.97" width="24.62" height="1.59" style="fill:url(#be)"/><rect x="279.27" y="199.21" width="24.62" height="1.59" style="fill:url(#bf)"/><rect x="279.27" y="206.46" width="24.62" height="1.59" style="fill:url(#bg)"/><rect x="279.27" y="213.7" width="24.62" height="1.59" style="fill:url(#bh)"/><rect x="274.63" y="220.94" width="33.91" height="1.59" style="fill:url(#bi)"/><rect x="279.27" y="228.19" width="24.62" height="1.59" style="fill:url(#bj)"/><rect x="279.27" y="235.43" width="24.62" height="1.59" style="fill:url(#bk)"/><rect x="279.27" y="242.67" width="24.62" height="1.59" style="fill:url(#bl)"/><rect x="279.27" y="249.92" width="24.62" height="1.59" style="fill:url(#bm)"/><rect x="274.63" y="257.16" width="33.91" height="1.59" style="fill:url(#bn)"/><path d="M299.9,484.22V107.58c0-5.46-3.79-9.92-8.41-9.92h-.57c-4.62,0-8.41,4.46-8.41,9.92l0,376.64Z" style="fill:#9be0ff"/><g style="clip-path:url(#bo)"><rect x="282.46" y="472.99" width="17.57" height="370.41" style="fill:#fff"/><path d="M105.33,657.94H476.69a0,0,0,0,1,0,0v6.22a0,0,0,0,1,0,0H105.33a0,0,0,0,1,0,0v-6.24A0,0,0,0,1,105.33,657.94Z" transform="translate(-370.04 952.08) rotate(-90)" style="fill:#8e8e8e"/><path d="M290.64,475.38V846.64h-1.38c-.77,0-1.39-1.4-1.39-3.12V478.38c0-1.72,0-3,0-3Z" style="fill:#a8a8a8"/><rect x="282.52" y="472.5" width="17.39" height="2.07" style="fill:#a8a8a8"/><rect x="282.51" y="474.54" width="17.38" height="2.07" style="fill:#8e8e8e"/></g><rect x="267.94" y="487.48" width="47.36" height="11.37" transform="translate(583.24 986.33) rotate(-180)" style="fill:#d22c20"/><path d="M255.31,519.5c.71-15.38,16.73-27.67,36.4-27.67s35.7,12.29,36.41,27.67Z" style="fill:#d22c20"/><rect x="268.21" y="495.46" width="46.57" height="3.19" transform="translate(582.98 994.12) rotate(-180)" style="fill:#a81a16"/><rect x="271.19" y="484.33" width="40.79" height="3.5" style="fill:url(#bp)"/></g><g style="opacity:0"><path d="M73.87,0H98a42.16,42.16,0,0,1,42,42v.08H129.69A31.78,31.78,0,0,0,98,11.19H73.89A31.78,31.78,0,0,0,42.2,42.88v32H31.84V42A42.15,42.15,0,0,1,73.87,0Z" style="fill:#d22c20"/><polygon points="139.63 42.43 140.39 48.03 137.86 50.43 131.29 49.6 130.11 44.51 130.72 40.74 130.56 39.96 139.12 39.96 139.63 42.43" style="fill:#d22c20"/><path d="M129,41h-.82v6.87A3.74,3.74,0,0,0,131,51.48a3.63,3.63,0,0,0,.87.1h6.5a3.74,3.74,0,0,0,3.74-3.73V41h-1.28c0-.34,0-.68-.05-1h-3.08c0,.34,0,.68,0,1h-5.71c0-.34-.05-.67-.07-1H128.9C128.92,40.3,129,40.63,129,41Zm2.25,3.08H139v3.81a.67.67,0,0,1-.66.65h-6.5a.66.66,0,0,1-.66-.66v-3.8Z" style="fill:#d22c20"/><rect x="128.96" y="40.02" width="11.84" height="0.97" style="fill:#a81a16"/><rect x="31.62" y="68.47" width="10.64" height="0.89" style="fill:#a81a16"/><rect x="16.12" y="92.76" width="40.83" height="400.07" style="fill:#d22c20"/><ellipse cx="36.55" cy="94.09" rx="20.46" ry="21.68" style="fill:#d22c20"/><polygon points="56.72 90.96 16.36 90.83 16.76 89.14 56.36 89.14 56.72 90.96" style="fill:#a81a16"/><rect x="19.97" y="90.95" width="34.39" height="395.99" style="fill:url(#bq)"/><rect x="19.59" y="329.14" width="33.91" height="1.59" style="fill:url(#br)"/><rect x="24.23" y="336.38" width="24.62" height="1.59" style="fill:url(#bs)"/><rect x="24.23" y="343.62" width="24.62" height="1.59" style="fill:url(#bt)"/><rect x="24.23" y="350.87" width="24.62" height="1.59" style="fill:url(#bu)"/><rect x="24.23" y="358.11" width="24.62" height="1.59" style="fill:url(#bv)"/><rect x="19.59" y="365.35" width="33.91" height="1.59" style="fill:url(#bw)"/><rect x="24.08" y="372.6" width="24.62" height="1.59" style="fill:url(#bx)"/><rect x="24.08" y="379.84" width="24.62" height="1.59" style="fill:url(#by)"/><rect x="24.08" y="387.08" width="24.62" height="1.59" style="fill:url(#bz)"/><rect x="24.08" y="394.33" width="24.62" height="1.59" style="fill:url(#ca)"/><rect x="19.43" y="401.57" width="33.91" height="1.59" style="fill:url(#cb)"/><rect x="24.23" y="408.81" width="24.62" height="1.59" style="fill:url(#cc)"/><rect x="24.23" y="416.06" width="24.62" height="1.59" style="fill:url(#cd)"/><rect x="24.23" y="423.3" width="24.62" height="1.59" style="fill:url(#ce)"/><rect x="24.23" y="430.54" width="24.62" height="1.59" style="fill:url(#cf)"/><rect x="19.59" y="437.79" width="33.91" height="1.59" style="fill:url(#cg)"/><rect x="24.23" y="445.03" width="24.62" height="1.59" style="fill:url(#ch)"/><rect x="24.23" y="452.28" width="24.62" height="1.59" style="fill:url(#ci)"/><rect x="24.23" y="459.52" width="24.62" height="1.59" style="fill:url(#cj)"/><rect x="24.23" y="466.76" width="24.62" height="1.59" style="fill:url(#ck)"/><rect x="19.59" y="474.01" width="33.91" height="1.59" style="fill:url(#cl)"/><rect x="19.59" y="220.71" width="33.91" height="1.59" style="fill:url(#cm)"/><rect x="24.23" y="227.96" width="24.62" height="1.59" style="fill:url(#cn)"/><rect x="24.23" y="235.2" width="24.62" height="1.59" style="fill:url(#co)"/><rect x="24.23" y="242.44" width="24.62" height="1.59" style="fill:url(#cp)"/><rect x="24.23" y="249.69" width="24.62" height="1.59" style="fill:url(#cq)"/><rect x="19.59" y="256.93" width="33.91" height="1.59" style="fill:url(#cr)"/><rect x="24.08" y="264.17" width="24.62" height="1.59" style="fill:url(#cs)"/><rect x="24.08" y="271.42" width="24.62" height="1.59" style="fill:url(#ct)"/><rect x="24.08" y="278.66" width="24.62" height="1.59" style="fill:url(#cu)"/><rect x="24.08" y="285.9" width="24.62" height="1.59" style="fill:url(#cv)"/><rect x="19.43" y="293.15" width="33.91" height="1.59" style="fill:url(#cw)"/><rect x="24.23" y="300.39" width="24.62" height="1.59" style="fill:url(#cx)"/><rect x="24.23" y="307.64" width="24.62" height="1.59" style="fill:url(#cy)"/><rect x="24.23" y="314.88" width="24.62" height="1.59" style="fill:url(#cz)"/><rect x="24.23" y="322.12" width="24.62" height="1.59" style="fill:url(#da)"/><rect x="19.59" y="329.37" width="33.91" height="1.59" style="fill:url(#db)"/><rect x="24.23" y="336.61" width="24.62" height="1.59" style="fill:url(#dc)"/><rect x="24.23" y="343.85" width="24.62" height="1.59" style="fill:url(#dd)"/><rect x="24.23" y="351.1" width="24.62" height="1.59" style="fill:url(#de)"/><rect x="24.23" y="358.34" width="24.62" height="1.59" style="fill:url(#df)"/><rect x="19.59" y="365.58" width="33.91" height="1.59" style="fill:url(#dg)"/><rect x="19.59" y="112.29" width="33.91" height="1.59" style="fill:url(#dh)"/><rect x="24.23" y="119.53" width="24.62" height="1.59" style="fill:url(#di)"/><rect x="24.23" y="126.78" width="24.62" height="1.59" style="fill:url(#dj)"/><rect x="24.23" y="134.02" width="24.62" height="1.59" style="fill:url(#dk)"/><rect x="24.23" y="141.26" width="24.62" height="1.59" style="fill:url(#dl)"/><rect x="19.59" y="148.51" width="33.91" height="1.59" style="fill:url(#dm)"/><rect x="24.08" y="155.75" width="24.62" height="1.59" style="fill:url(#dn)"/><rect x="24.08" y="163" width="24.62" height="1.59" style="fill:url(#do)"/><rect x="24.08" y="170.24" width="24.62" height="1.59" style="fill:url(#dp)"/><rect x="24.08" y="177.48" width="24.62" height="1.59" style="fill:url(#dq)"/><rect x="19.43" y="184.73" width="33.91" height="1.59" style="fill:url(#dr)"/><rect x="24.23" y="191.97" width="24.62" height="1.59" style="fill:url(#ds)"/><rect x="24.23" y="199.21" width="24.62" height="1.59" style="fill:url(#dt)"/><rect x="24.23" y="206.46" width="24.62" height="1.59" style="fill:url(#du)"/><rect x="24.23" y="213.7" width="24.62" height="1.59" style="fill:url(#dv)"/><rect x="19.59" y="220.94" width="33.91" height="1.59" style="fill:url(#dw)"/><rect x="24.23" y="228.19" width="24.62" height="1.59" style="fill:url(#dx)"/><rect x="24.23" y="235.43" width="24.62" height="1.59" style="fill:url(#dy)"/><rect x="24.23" y="242.67" width="24.62" height="1.59" style="fill:url(#dz)"/><rect x="24.23" y="249.92" width="24.62" height="1.59" style="fill:url(#ea)"/><rect x="19.59" y="257.16" width="33.91" height="1.59" style="fill:url(#eb)"/><path d="M28.21,484.22V107.58c0-5.46,3.78-9.92,8.41-9.92h.56c4.63,0,8.42,4.46,8.42,9.92l0,376.64Z" style="fill:#9be0ff"/><g style="clip-path:url(#ec)"><rect x="28.09" y="472.99" width="17.57" height="370.41" transform="translate(73.75 1316.39) rotate(-180)" style="fill:#fff"/><path d="M-148.59,657.94H222.79a0,0,0,0,1,0,0v6.22a0,0,0,0,1,0,0H-148.59a0,0,0,0,1,0,0v-6.24a0,0,0,0,1,0,0Z" transform="translate(-623.96 698.16) rotate(-90)" style="fill:#8e8e8e"/><path d="M37.48,475.38V846.64h1.38c.77,0,1.39-1.4,1.39-3.12V478.38c0-1.72,0-3,0-3Z" style="fill:#a8a8a8"/><rect x="28.21" y="472.5" width="17.39" height="2.07" transform="translate(73.81 947.07) rotate(-180)" style="fill:#a8a8a8"/><rect x="28.22" y="474.54" width="17.38" height="2.07" transform="translate(73.83 951.16) rotate(-180)" style="fill:#8e8e8e"/></g><rect x="12.81" y="487.48" width="47.36" height="11.37" style="fill:#d22c20"/><path d="M72.81,519.5c-.72-15.38-16.74-27.67-36.41-27.67S.71,504.12,0,519.5Z" style="fill:#d22c20"/><rect x="13.35" y="495.46" width="46.57" height="3.19" style="fill:#a81a16"/><rect x="16.14" y="484.33" width="40.79" height="3.5" transform="translate(73.06 972.17) rotate(-180)" style="fill:url(#ed)"/></g></svg>