<svg xmlns="http://www.w3.org/2000/svg" xmlns:xlink="http://www.w3.org/1999/xlink" viewBox="0 0 332.11 848.17"><defs><clipPath id="a"><path d="M210.87,101.44v.06c-.1.36-1.77.89-2.14,1a38.89,38.89,0,0,1-5.63,1.11c-28.22,4.14-71.94,1.48-76.12-1.62l-.16-.18c.87-4.83,52.68-6.34,74.28-3.51C206.71,99,210.37,100,210.87,101.44Z" style="fill:#a81a16"/></clipPath><linearGradient id="b" x1="-182.75" y1="288.95" x2="-148.36" y2="288.95" gradientTransform="matrix(1, 0, 0, -1, 460.49, 577.9)" gradientUnits="userSpaceOnUse"><stop offset="0.01" stop-color="#d22c20"/><stop offset="0.31" stop-color="#e7342e"/><stop offset="0.51" stop-color="#ef3733"/><stop offset="0.72" stop-color="#e6332d"/><stop offset="1" stop-color="#d22c20"/></linearGradient><linearGradient id="c" x1="311.62" y1="329.93" x2="278.86" y2="329.93" gradientUnits="userSpaceOnUse"><stop offset="0.05" stop-color="#d3d2d2"/><stop offset="0.37" stop-color="#9a9a9c"/><stop offset="0.64" stop-color="#9a9a9c"/><stop offset="1" stop-color="#d1d6d5"/></linearGradient><linearGradient id="d" x1="307.23" y1="337.17" x2="283.44" y2="337.17" xlink:href="#c"/><linearGradient id="e" x1="307.23" y1="344.42" x2="283.44" y2="344.42" xlink:href="#c"/><linearGradient id="f" x1="307.23" y1="351.66" x2="283.44" y2="351.66" xlink:href="#c"/><linearGradient id="g" x1="307.23" y1="358.9" x2="283.44" y2="358.9" xlink:href="#c"/><linearGradient id="h" x1="311.62" y1="366.15" x2="278.86" y2="366.15" xlink:href="#c"/><linearGradient id="i" x1="307.38" y1="373.39" x2="283.59" y2="373.39" xlink:href="#c"/><linearGradient id="j" x1="307.38" y1="380.63" x2="283.59" y2="380.63" xlink:href="#c"/><linearGradient id="k" x1="307.38" y1="387.88" x2="283.59" y2="387.88" xlink:href="#c"/><linearGradient id="l" x1="307.38" y1="395.12" x2="283.59" y2="395.12" xlink:href="#c"/><linearGradient id="m" x1="311.78" y1="402.37" x2="279.01" y2="402.37" xlink:href="#c"/><linearGradient id="n" x1="307.23" y1="409.61" x2="283.44" y2="409.61" xlink:href="#c"/><linearGradient id="o" x1="307.23" y1="416.85" x2="283.44" y2="416.85" xlink:href="#c"/><linearGradient id="p" x1="307.23" y1="424.1" x2="283.44" y2="424.1" xlink:href="#c"/><linearGradient id="q" x1="307.23" y1="431.34" x2="283.44" y2="431.34" xlink:href="#c"/><linearGradient id="r" x1="311.62" y1="438.58" x2="278.86" y2="438.58" xlink:href="#c"/><linearGradient id="s" x1="307.23" y1="445.83" x2="283.44" y2="445.83" xlink:href="#c"/><linearGradient id="t" x1="307.23" y1="453.07" x2="283.44" y2="453.07" xlink:href="#c"/><linearGradient id="u" x1="307.23" y1="460.31" x2="283.44" y2="460.31" xlink:href="#c"/><linearGradient id="v" x1="307.23" y1="467.56" x2="283.44" y2="467.56" xlink:href="#c"/><linearGradient id="w" x1="311.62" y1="474.8" x2="278.86" y2="474.8" xlink:href="#c"/><linearGradient id="x" x1="311.62" y1="221.51" x2="278.86" y2="221.51" xlink:href="#c"/><linearGradient id="y" x1="307.23" y1="228.75" x2="283.44" y2="228.75" xlink:href="#c"/><linearGradient id="z" x1="307.23" y1="235.99" x2="283.44" y2="235.99" xlink:href="#c"/><linearGradient id="aa" x1="307.23" y1="243.24" x2="283.44" y2="243.24" xlink:href="#c"/><linearGradient id="ab" x1="307.23" y1="250.48" x2="283.44" y2="250.48" xlink:href="#c"/><linearGradient id="ac" x1="311.62" y1="257.73" x2="278.86" y2="257.73" xlink:href="#c"/><linearGradient id="ad" x1="307.38" y1="264.97" x2="283.59" y2="264.97" xlink:href="#c"/><linearGradient id="ae" x1="307.38" y1="272.21" x2="283.59" y2="272.21" xlink:href="#c"/><linearGradient id="af" x1="307.38" y1="279.46" x2="283.59" y2="279.46" xlink:href="#c"/><linearGradient id="ag" x1="307.38" y1="286.7" x2="283.59" y2="286.7" xlink:href="#c"/><linearGradient id="ah" x1="311.78" y1="293.94" x2="279.01" y2="293.94" xlink:href="#c"/><linearGradient id="ai" x1="307.23" y1="301.19" x2="283.44" y2="301.19" xlink:href="#c"/><linearGradient id="aj" x1="307.23" y1="308.43" x2="283.44" y2="308.43" xlink:href="#c"/><linearGradient id="ak" x1="307.23" y1="315.67" x2="283.44" y2="315.67" xlink:href="#c"/><linearGradient id="al" x1="307.23" y1="322.92" x2="283.44" y2="322.92" xlink:href="#c"/><linearGradient id="am" x1="311.62" y1="330.16" x2="278.86" y2="330.16" xlink:href="#c"/><linearGradient id="an" x1="307.23" y1="337.4" x2="283.44" y2="337.4" xlink:href="#c"/><linearGradient id="ao" x1="307.23" y1="344.65" x2="283.44" y2="344.65" xlink:href="#c"/><linearGradient id="ap" x1="307.23" y1="351.89" x2="283.44" y2="351.89" xlink:href="#c"/><linearGradient id="aq" x1="307.23" y1="359.13" x2="283.44" y2="359.13" xlink:href="#c"/><linearGradient id="ar" x1="311.62" y1="366.38" x2="278.86" y2="366.38" xlink:href="#c"/><linearGradient id="as" x1="311.62" y1="113.09" x2="278.86" y2="113.09" xlink:href="#c"/><linearGradient id="at" x1="307.23" y1="120.33" x2="283.44" y2="120.33" xlink:href="#c"/><linearGradient id="au" x1="307.23" y1="127.57" x2="283.44" y2="127.57" xlink:href="#c"/><linearGradient id="av" x1="307.23" y1="134.82" x2="283.44" y2="134.82" xlink:href="#c"/><linearGradient id="aw" x1="307.23" y1="142.06" x2="283.44" y2="142.06" xlink:href="#c"/><linearGradient id="ax" x1="311.62" y1="149.3" x2="278.86" y2="149.3" xlink:href="#c"/><linearGradient id="ay" x1="307.38" y1="156.55" x2="283.59" y2="156.55" xlink:href="#c"/><linearGradient id="az" x1="307.38" y1="163.79" x2="283.59" y2="163.79" xlink:href="#c"/><linearGradient id="ba" x1="307.38" y1="171.03" x2="283.59" y2="171.03" xlink:href="#c"/><linearGradient id="bb" x1="307.38" y1="178.28" x2="283.59" y2="178.28" xlink:href="#c"/><linearGradient id="bc" x1="311.78" y1="185.52" x2="279.01" y2="185.52" xlink:href="#c"/><linearGradient id="bd" x1="307.23" y1="192.76" x2="283.44" y2="192.76" xlink:href="#c"/><linearGradient id="be" x1="307.23" y1="200.01" x2="283.44" y2="200.01" xlink:href="#c"/><linearGradient id="bf" x1="307.23" y1="207.25" x2="283.44" y2="207.25" xlink:href="#c"/><linearGradient id="bg" x1="307.23" y1="214.49" x2="283.44" y2="214.49" xlink:href="#c"/><linearGradient id="bh" x1="311.62" y1="221.74" x2="278.86" y2="221.74" xlink:href="#c"/><linearGradient id="bi" x1="307.23" y1="228.98" x2="283.44" y2="228.98" xlink:href="#c"/><linearGradient id="bj" x1="307.23" y1="236.23" x2="283.44" y2="236.23" xlink:href="#c"/><linearGradient id="bk" x1="307.23" y1="243.47" x2="283.44" y2="243.47" xlink:href="#c"/><linearGradient id="bl" x1="307.23" y1="250.71" x2="283.44" y2="250.71" xlink:href="#c"/><linearGradient id="bm" x1="311.62" y1="257.96" x2="278.86" y2="257.96" xlink:href="#c"/><clipPath id="bn"><rect x="286.53" y="112.37" width="17.37" height="371.86" style="fill:none"/></clipPath><linearGradient id="bo" x1="275.18" y1="486.08" x2="315.97" y2="486.08" gradientUnits="userSpaceOnUse"><stop offset="0.01" stop-color="#d22c20"/><stop offset="0.26" stop-color="#e2322b"/><stop offset="0.51" stop-color="#ef3733"/><stop offset="1" stop-color="#d22c20"/></linearGradient><linearGradient id="bp" x1="-368.75" y1="288.95" x2="-334.36" y2="288.95" gradientTransform="translate(392.71)" xlink:href="#b"/><linearGradient id="bq" x1="497.62" y1="329.93" x2="464.86" y2="329.93" gradientTransform="matrix(-1, 0, 0, 1, 522.09, 0)" xlink:href="#c"/><linearGradient id="br" x1="493.23" y1="337.17" x2="469.44" y2="337.17" gradientTransform="matrix(-1, 0, 0, 1, 522.09, 0)" xlink:href="#c"/><linearGradient id="bs" x1="493.23" y1="344.42" x2="469.44" y2="344.42" gradientTransform="matrix(-1, 0, 0, 1, 522.09, 0)" xlink:href="#c"/><linearGradient id="bt" x1="493.23" y1="351.66" x2="469.44" y2="351.66" gradientTransform="matrix(-1, 0, 0, 1, 522.09, 0)" xlink:href="#c"/><linearGradient id="bu" x1="493.23" y1="358.9" x2="469.44" y2="358.9" gradientTransform="matrix(-1, 0, 0, 1, 522.09, 0)" xlink:href="#c"/><linearGradient id="bv" x1="497.62" y1="366.15" x2="464.86" y2="366.15" gradientTransform="matrix(-1, 0, 0, 1, 522.09, 0)" xlink:href="#c"/><linearGradient id="bw" x1="493.38" y1="373.39" x2="469.59" y2="373.39" gradientTransform="matrix(-1, 0, 0, 1, 522.09, 0)" xlink:href="#c"/><linearGradient id="bx" x1="493.38" y1="380.63" x2="469.59" y2="380.63" gradientTransform="matrix(-1, 0, 0, 1, 522.09, 0)" xlink:href="#c"/><linearGradient id="by" x1="493.38" y1="387.88" x2="469.59" y2="387.88" gradientTransform="matrix(-1, 0, 0, 1, 522.09, 0)" xlink:href="#c"/><linearGradient id="bz" x1="493.38" y1="395.12" x2="469.59" y2="395.12" gradientTransform="matrix(-1, 0, 0, 1, 522.09, 0)" xlink:href="#c"/><linearGradient id="ca" x1="497.78" y1="402.37" x2="465.01" y2="402.37" gradientTransform="matrix(-1, 0, 0, 1, 522.09, 0)" xlink:href="#c"/><linearGradient id="cb" x1="493.23" y1="409.61" x2="469.44" y2="409.61" gradientTransform="matrix(-1, 0, 0, 1, 522.09, 0)" xlink:href="#c"/><linearGradient id="cc" x1="493.23" y1="416.85" x2="469.44" y2="416.85" gradientTransform="matrix(-1, 0, 0, 1, 522.09, 0)" xlink:href="#c"/><linearGradient id="cd" x1="493.23" y1="424.1" x2="469.44" y2="424.1" gradientTransform="matrix(-1, 0, 0, 1, 522.09, 0)" xlink:href="#c"/><linearGradient id="ce" x1="493.23" y1="431.34" x2="469.44" y2="431.34" gradientTransform="matrix(-1, 0, 0, 1, 522.09, 0)" xlink:href="#c"/><linearGradient id="cf" x1="497.62" y1="438.58" x2="464.86" y2="438.58" gradientTransform="matrix(-1, 0, 0, 1, 522.09, 0)" xlink:href="#c"/><linearGradient id="cg" x1="493.23" y1="445.83" x2="469.44" y2="445.83" gradientTransform="matrix(-1, 0, 0, 1, 522.09, 0)" xlink:href="#c"/><linearGradient id="ch" x1="493.23" y1="453.07" x2="469.44" y2="453.07" gradientTransform="matrix(-1, 0, 0, 1, 522.09, 0)" xlink:href="#c"/><linearGradient id="ci" x1="493.23" y1="460.31" x2="469.44" y2="460.31" gradientTransform="matrix(-1, 0, 0, 1, 522.09, 0)" xlink:href="#c"/><linearGradient id="cj" x1="493.23" y1="467.56" x2="469.44" y2="467.56" gradientTransform="matrix(-1, 0, 0, 1, 522.09, 0)" xlink:href="#c"/><linearGradient id="ck" x1="497.62" y1="474.8" x2="464.86" y2="474.8" gradientTransform="matrix(-1, 0, 0, 1, 522.09, 0)" xlink:href="#c"/><linearGradient id="cl" x1="497.62" y1="221.51" x2="464.86" y2="221.51" gradientTransform="matrix(-1, 0, 0, 1, 522.09, 0)" xlink:href="#c"/><linearGradient id="cm" x1="493.23" y1="228.75" x2="469.44" y2="228.75" gradientTransform="matrix(-1, 0, 0, 1, 522.09, 0)" xlink:href="#c"/><linearGradient id="cn" x1="493.23" y1="235.99" x2="469.44" y2="235.99" gradientTransform="matrix(-1, 0, 0, 1, 522.09, 0)" xlink:href="#c"/><linearGradient id="co" x1="493.23" y1="243.24" x2="469.44" y2="243.24" gradientTransform="matrix(-1, 0, 0, 1, 522.09, 0)" xlink:href="#c"/><linearGradient id="cp" x1="493.23" y1="250.48" x2="469.44" y2="250.48" gradientTransform="matrix(-1, 0, 0, 1, 522.09, 0)" xlink:href="#c"/><linearGradient id="cq" x1="497.62" y1="257.73" x2="464.86" y2="257.73" gradientTransform="matrix(-1, 0, 0, 1, 522.09, 0)" xlink:href="#c"/><linearGradient id="cr" x1="493.38" y1="264.97" x2="469.59" y2="264.97" gradientTransform="matrix(-1, 0, 0, 1, 522.09, 0)" xlink:href="#c"/><linearGradient id="cs" x1="493.38" y1="272.21" x2="469.59" y2="272.21" gradientTransform="matrix(-1, 0, 0, 1, 522.09, 0)" xlink:href="#c"/><linearGradient id="ct" x1="493.38" y1="279.46" x2="469.59" y2="279.46" gradientTransform="matrix(-1, 0, 0, 1, 522.09, 0)" xlink:href="#c"/><linearGradient id="cu" x1="493.38" y1="286.7" x2="469.59" y2="286.7" gradientTransform="matrix(-1, 0, 0, 1, 522.09, 0)" xlink:href="#c"/><linearGradient id="cv" x1="497.78" y1="293.94" x2="465.01" y2="293.94" gradientTransform="matrix(-1, 0, 0, 1, 522.09, 0)" xlink:href="#c"/><linearGradient id="cw" x1="493.23" y1="301.19" x2="469.44" y2="301.19" gradientTransform="matrix(-1, 0, 0, 1, 522.09, 0)" xlink:href="#c"/><linearGradient id="cx" x1="493.23" y1="308.43" x2="469.44" y2="308.43" gradientTransform="matrix(-1, 0, 0, 1, 522.09, 0)" xlink:href="#c"/><linearGradient id="cy" x1="493.23" y1="315.67" x2="469.44" y2="315.67" gradientTransform="matrix(-1, 0, 0, 1, 522.09, 0)" xlink:href="#c"/><linearGradient id="cz" x1="493.23" y1="322.92" x2="469.44" y2="322.92" gradientTransform="matrix(-1, 0, 0, 1, 522.09, 0)" xlink:href="#c"/><linearGradient id="da" x1="497.62" y1="330.16" x2="464.86" y2="330.16" gradientTransform="matrix(-1, 0, 0, 1, 522.09, 0)" xlink:href="#c"/><linearGradient id="db" x1="493.23" y1="337.4" x2="469.44" y2="337.4" gradientTransform="matrix(-1, 0, 0, 1, 522.09, 0)" xlink:href="#c"/><linearGradient id="dc" x1="493.23" y1="344.65" x2="469.44" y2="344.65" gradientTransform="matrix(-1, 0, 0, 1, 522.09, 0)" xlink:href="#c"/><linearGradient id="dd" x1="493.23" y1="351.89" x2="469.44" y2="351.89" gradientTransform="matrix(-1, 0, 0, 1, 522.09, 0)" xlink:href="#c"/><linearGradient id="de" x1="493.23" y1="359.13" x2="469.44" y2="359.13" gradientTransform="matrix(-1, 0, 0, 1, 522.09, 0)" xlink:href="#c"/><linearGradient id="df" x1="497.62" y1="366.38" x2="464.86" y2="366.38" gradientTransform="matrix(-1, 0, 0, 1, 522.09, 0)" xlink:href="#c"/><linearGradient id="dg" x1="497.62" y1="113.09" x2="464.86" y2="113.09" gradientTransform="matrix(-1, 0, 0, 1, 522.09, 0)" xlink:href="#c"/><linearGradient id="dh" x1="493.23" y1="120.33" x2="469.44" y2="120.33" gradientTransform="matrix(-1, 0, 0, 1, 522.09, 0)" xlink:href="#c"/><linearGradient id="di" x1="493.23" y1="127.57" x2="469.44" y2="127.57" gradientTransform="matrix(-1, 0, 0, 1, 522.09, 0)" xlink:href="#c"/><linearGradient id="dj" x1="493.23" y1="134.82" x2="469.44" y2="134.82" gradientTransform="matrix(-1, 0, 0, 1, 522.09, 0)" xlink:href="#c"/><linearGradient id="dk" x1="493.23" y1="142.06" x2="469.44" y2="142.06" gradientTransform="matrix(-1, 0, 0, 1, 522.09, 0)" xlink:href="#c"/><linearGradient id="dl" x1="497.62" y1="149.3" x2="464.86" y2="149.3" gradientTransform="matrix(-1, 0, 0, 1, 522.09, 0)" xlink:href="#c"/><linearGradient id="dm" x1="493.38" y1="156.55" x2="469.59" y2="156.55" gradientTransform="matrix(-1, 0, 0, 1, 522.09, 0)" xlink:href="#c"/><linearGradient id="dn" x1="493.38" y1="163.79" x2="469.59" y2="163.79" gradientTransform="matrix(-1, 0, 0, 1, 522.09, 0)" xlink:href="#c"/><linearGradient id="do" x1="493.38" y1="171.03" x2="469.59" y2="171.03" gradientTransform="matrix(-1, 0, 0, 1, 522.09, 0)" xlink:href="#c"/><linearGradient id="dp" x1="493.38" y1="178.28" x2="469.59" y2="178.28" gradientTransform="matrix(-1, 0, 0, 1, 522.09, 0)" xlink:href="#c"/><linearGradient id="dq" x1="497.78" y1="185.52" x2="465.01" y2="185.52" gradientTransform="matrix(-1, 0, 0, 1, 522.09, 0)" xlink:href="#c"/><linearGradient id="dr" x1="493.23" y1="192.76" x2="469.44" y2="192.76" gradientTransform="matrix(-1, 0, 0, 1, 522.09, 0)" xlink:href="#c"/><linearGradient id="ds" x1="493.23" y1="200.01" x2="469.44" y2="200.01" gradientTransform="matrix(-1, 0, 0, 1, 522.09, 0)" xlink:href="#c"/><linearGradient id="dt" x1="493.23" y1="207.25" x2="469.44" y2="207.25" gradientTransform="matrix(-1, 0, 0, 1, 522.09, 0)" xlink:href="#c"/><linearGradient id="du" x1="493.23" y1="214.49" x2="469.44" y2="214.49" gradientTransform="matrix(-1, 0, 0, 1, 522.09, 0)" xlink:href="#c"/><linearGradient id="dv" x1="497.62" y1="221.74" x2="464.86" y2="221.74" gradientTransform="matrix(-1, 0, 0, 1, 522.09, 0)" xlink:href="#c"/><linearGradient id="dw" x1="493.23" y1="228.98" x2="469.44" y2="228.98" gradientTransform="matrix(-1, 0, 0, 1, 522.09, 0)" xlink:href="#c"/><linearGradient id="dx" x1="493.23" y1="236.23" x2="469.44" y2="236.23" gradientTransform="matrix(-1, 0, 0, 1, 522.09, 0)" xlink:href="#c"/><linearGradient id="dy" x1="493.23" y1="243.47" x2="469.44" y2="243.47" gradientTransform="matrix(-1, 0, 0, 1, 522.09, 0)" xlink:href="#c"/><linearGradient id="dz" x1="493.23" y1="250.71" x2="469.44" y2="250.71" gradientTransform="matrix(-1, 0, 0, 1, 522.09, 0)" xlink:href="#c"/><linearGradient id="ea" x1="497.62" y1="257.96" x2="464.86" y2="257.96" gradientTransform="matrix(-1, 0, 0, 1, 522.09, 0)" xlink:href="#c"/><clipPath id="eb"><rect x="32.2" y="112.37" width="17.37" height="371.86" transform="translate(81.77 596.6) rotate(-180)" style="fill:none"/></clipPath><linearGradient id="ec" x1="461.18" y1="486.08" x2="501.97" y2="486.08" gradientTransform="matrix(1, 0, 0, -1, -441.06, 972.17)" xlink:href="#bo"/><linearGradient id="ed" x1="135.27" y1="376.49" x2="158.55" y2="376.49" gradientUnits="userSpaceOnUse"><stop offset="0" stop-color="#5b413f"/><stop offset="0.25" stop-color="#543734"/><stop offset="0.51" stop-color="#523430"/><stop offset="0.87" stop-color="#4d312d"/><stop offset="1" stop-color="#4a2f2b"/></linearGradient><linearGradient id="ee" x1="176.06" y1="376.49" x2="199.34" y2="376.49" xlink:href="#ed"/><clipPath id="ef"><path d="M133.72,408.31l-.2-.84a3.27,3.27,0,0,1,0-.45l0-.46c0-.3,0-.62,0-.94l0-.47v-1.46c0-.33,0-.66,0-1s0-.66,0-1l.06-1c.16-2.69.46-5.42.85-8.16s.85-5.47,1.37-8.2,1.1-5.45,1.74-8.16,1.3-5.42,2-8.1,1.5-5.36,2.32-8,1.68-5.28,2.59-7.88,1.88-5.17,2.89-7.71l-15.55-5.07q-1.2,4.31-2.2,8.64c-.67,2.88-1.27,5.77-1.84,8.66s-1,5.79-1.51,8.69-.85,5.81-1.2,8.72-.65,5.84-.88,8.78-.41,5.88-.5,8.85-.1,6,.05,9l.06,1.15c0,.38.06.77.09,1.16s0,.77.1,1.17l.13,1.18,0,.3,0,.3.09.61c.06.4.12.8.2,1.22l.12.63.06.31,0,.16,0,.16.33,1.32Z" style="fill:none"/></clipPath><clipPath id="eg"><path d="M200.27,406.83l.18-.82c0-.13,0-.3,0-.45l0-.45c0-.3,0-.62,0-.94l0-.48v-1.46c0-.32,0-.66,0-1s0-.66,0-1l-.06-1c-.16-2.7-.47-5.43-.85-8.16s-.85-5.47-1.38-8.2-1.1-5.46-1.73-8.17-1.31-5.41-2-8.1-1.5-5.36-2.31-8-1.69-5.28-2.6-7.88-1.88-5.17-2.89-7.71l15.56-5.07q1.19,4.32,2.2,8.64t1.83,8.66c.56,2.89,1,5.79,1.51,8.69s.85,5.81,1.21,8.73.64,5.83.88,8.77.41,5.88.5,8.85.1,6-.05,9l-.06,1.15c0,.38-.06.78-.09,1.16s-.06.77-.1,1.17l-.13,1.19,0,.29,0,.3-.09.61c-.06.4-.11.8-.2,1.23l-.12.62-.06.32,0,.15,0,.17L209,409Z" style="fill:none"/></clipPath></defs><title>man-1_1</title><g style="isolation:isolate"><polygon points="98.24 519.65 85.33 519.65 82.67 464.07 100.9 464.07 98.24 519.65" style="fill:#a2a2a2"/><rect x="82.67" y="448.64" width="18.24" height="7.71" style="fill:#bdbdbd"/><rect x="82.67" y="456.36" width="18.24" height="7.71" style="fill:#696969"/><polygon points="250.9 519.65 238 519.65 235.32 464.07 253.56 464.07 250.9 519.65" style="fill:#a2a2a2"/><rect x="235.32" y="448.64" width="18.24" height="7.71" style="fill:#bdbdbd"/><rect x="235.32" y="456.36" width="18.24" height="7.71" style="fill:#696969"/><rect x="71" y="439.51" width="194" height="12.99" style="fill:#9e6741"/><rect x="14.65" y="125.24" width="308.13" height="9.26" rx="2.8" ry="2.8" style="fill:#8e8e8e"/><path d="M322.73,129.32h-308v-2.06a2.37,2.37,0,0,1,2.59-2h303a2.28,2.28,0,0,1,2.51,2S322.67,129.28,322.73,129.32Z" style="fill:#a8a8a8"/><path d="M212.15,100.37l0,.17,0,.15a2.14,2.14,0,0,1-1.17,1l-.38.08,0-.09.24-.16v-.06c-2.55-6.55-71.5-5-82.21-1.06-1.67.69-1.61,1-1.84,1.39h0l-.39-.08a1.66,1.66,0,0,1-.84-.81v-.16c.24-1.22,3.23-1.89,4.37-2.17,21.58-4.7,66.51-2.21,76.11-.48C207.93,98.43,211.56,99.13,212.15,100.37Z" style="fill:#e26d6d"/><path d="M210.87,101.44v.06c-.1.36-1.77.89-2.14,1a38.89,38.89,0,0,1-5.63,1.11c-28.22,4.14-71.94,1.48-76.12-1.62l-.16-.18c.87-4.83,52.68-6.34,74.28-3.51C206.71,99,210.37,100,210.87,101.44Z" style="fill:#a81a16"/><g style="clip-path:url(#a)"><path d="M183.44,95.2v19.59l35.5-12.55S192,91.71,183.44,95.2Z" style="fill:#a81a16;opacity:0.30000000000000004;mix-blend-mode:multiply"/><path d="M147.56,109.56l-1-16.3S123.7,95,123.5,100.63,147.56,109.56,147.56,109.56Z" style="fill:#a81a16;opacity:0.30000000000000004;mix-blend-mode:multiply"/></g><path d="M258.24,0H234.07a42.15,42.15,0,0,0-42,42v.08h10.38a31.78,31.78,0,0,1,31.67-30.92h24.13a31.78,31.78,0,0,1,31.69,31.69V74.56c0,.1,0,.2,0,.3h10.37V42A42.15,42.15,0,0,0,258.24,0Z" style="fill:#d22c20"/><polygon points="192.47 42.43 191.71 48.03 194.25 50.43 200.81 49.6 202 44.51 201.39 40.74 201.55 39.96 192.99 39.96 192.47 42.43" style="fill:#d22c20"/><path d="M203.21,40h-3.08c0,.34-.06.67-.07,1h-5.72c0-.34,0-.68,0-1h-3.08c0,.34,0,.68,0,1H190v6.88a3.72,3.72,0,0,0,3.73,3.73h6.5A3.71,3.71,0,0,0,204,47.84V41h-.82C203.15,40.63,203.19,40.3,203.21,40Zm-2.32,4.56v3.33a.66.66,0,0,1-.66.66h-6.5a.69.69,0,0,1-.47-.19.66.66,0,0,1-.19-.46V44.05h7.82Z" style="fill:#d22c20"/><rect x="191.3" y="40.02" width="11.84" height="0.97" transform="translate(394.45 81.01) rotate(180)" style="fill:#a81a16"/><rect x="289.84" y="68.47" width="10.64" height="0.89" transform="translate(590.33 137.84) rotate(-180)" style="fill:#a81a16"/><rect x="275.15" y="92.76" width="40.83" height="400.07" transform="translate(591.13 585.59) rotate(-180)" style="fill:#d22c20"/><ellipse cx="295.56" cy="94.09" rx="20.46" ry="21.68" style="fill:#d22c20"/><polygon points="275.39 90.96 315.74 90.83 315.35 89.14 275.74 89.14 275.39 90.96" style="fill:#a81a16"/><rect x="277.75" y="90.95" width="34.39" height="395.99" transform="translate(589.88 577.9) rotate(-180)" style="fill:url(#b)"/><rect x="278.61" y="329.14" width="33.91" height="1.59" style="fill:url(#c)"/><rect x="283.26" y="336.38" width="24.62" height="1.59" style="fill:url(#d)"/><rect x="283.26" y="343.62" width="24.62" height="1.59" style="fill:url(#e)"/><rect x="283.26" y="350.87" width="24.62" height="1.59" style="fill:url(#f)"/><rect x="283.26" y="358.11" width="24.62" height="1.59" style="fill:url(#g)"/><rect x="278.61" y="365.35" width="33.91" height="1.59" style="fill:url(#h)"/><rect x="283.41" y="372.6" width="24.62" height="1.59" style="fill:url(#i)"/><rect x="283.41" y="379.84" width="24.62" height="1.59" style="fill:url(#j)"/><rect x="283.41" y="387.08" width="24.62" height="1.59" style="fill:url(#k)"/><rect x="283.41" y="394.33" width="24.62" height="1.59" style="fill:url(#l)"/><rect x="278.77" y="401.57" width="33.91" height="1.59" style="fill:url(#m)"/><rect x="283.26" y="408.81" width="24.62" height="1.59" style="fill:url(#n)"/><rect x="283.26" y="416.06" width="24.62" height="1.59" style="fill:url(#o)"/><rect x="283.26" y="423.3" width="24.62" height="1.59" style="fill:url(#p)"/><rect x="283.26" y="430.54" width="24.62" height="1.59" style="fill:url(#q)"/><rect x="278.61" y="437.79" width="33.91" height="1.59" style="fill:url(#r)"/><rect x="283.26" y="445.03" width="24.62" height="1.59" style="fill:url(#s)"/><rect x="283.26" y="452.28" width="24.62" height="1.59" style="fill:url(#t)"/><rect x="283.26" y="459.52" width="24.62" height="1.59" style="fill:url(#u)"/><rect x="283.26" y="466.76" width="24.62" height="1.59" style="fill:url(#v)"/><rect x="278.61" y="474.01" width="33.91" height="1.59" style="fill:url(#w)"/><rect x="278.61" y="220.71" width="33.91" height="1.59" style="fill:url(#x)"/><rect x="283.26" y="227.96" width="24.62" height="1.59" style="fill:url(#y)"/><rect x="283.26" y="235.2" width="24.62" height="1.59" style="fill:url(#z)"/><rect x="283.26" y="242.44" width="24.62" height="1.59" style="fill:url(#aa)"/><rect x="283.26" y="249.69" width="24.62" height="1.59" style="fill:url(#ab)"/><rect x="278.61" y="256.93" width="33.91" height="1.59" style="fill:url(#ac)"/><rect x="283.41" y="264.17" width="24.62" height="1.59" style="fill:url(#ad)"/><rect x="283.41" y="271.42" width="24.62" height="1.59" style="fill:url(#ae)"/><rect x="283.41" y="278.66" width="24.62" height="1.59" style="fill:url(#af)"/><rect x="283.41" y="285.9" width="24.62" height="1.59" style="fill:url(#ag)"/><rect x="278.77" y="293.15" width="33.91" height="1.59" style="fill:url(#ah)"/><rect x="283.26" y="300.39" width="24.62" height="1.59" style="fill:url(#ai)"/><rect x="283.26" y="307.64" width="24.62" height="1.59" style="fill:url(#aj)"/><rect x="283.26" y="314.88" width="24.62" height="1.59" style="fill:url(#ak)"/><rect x="283.26" y="322.12" width="24.62" height="1.59" style="fill:url(#al)"/><rect x="278.61" y="329.37" width="33.91" height="1.59" style="fill:url(#am)"/><rect x="283.26" y="336.61" width="24.62" height="1.59" style="fill:url(#an)"/><rect x="283.26" y="343.85" width="24.62" height="1.59" style="fill:url(#ao)"/><rect x="283.26" y="351.1" width="24.62" height="1.59" style="fill:url(#ap)"/><rect x="283.26" y="358.34" width="24.62" height="1.59" style="fill:url(#aq)"/><rect x="278.61" y="365.58" width="33.91" height="1.59" style="fill:url(#ar)"/><rect x="278.61" y="112.29" width="33.91" height="1.59" style="fill:url(#as)"/><rect x="283.26" y="119.53" width="24.62" height="1.59" style="fill:url(#at)"/><rect x="283.26" y="126.78" width="24.62" height="1.59" style="fill:url(#au)"/><rect x="283.26" y="134.02" width="24.62" height="1.59" style="fill:url(#av)"/><rect x="283.26" y="141.26" width="24.62" height="1.59" style="fill:url(#aw)"/><rect x="278.61" y="148.51" width="33.91" height="1.59" style="fill:url(#ax)"/><rect x="283.41" y="155.75" width="24.62" height="1.59" style="fill:url(#ay)"/><rect x="283.41" y="163" width="24.62" height="1.59" style="fill:url(#az)"/><rect x="283.41" y="170.24" width="24.62" height="1.59" style="fill:url(#ba)"/><rect x="283.41" y="177.48" width="24.62" height="1.59" style="fill:url(#bb)"/><rect x="278.77" y="184.73" width="33.91" height="1.59" style="fill:url(#bc)"/><rect x="283.26" y="191.97" width="24.62" height="1.59" style="fill:url(#bd)"/><rect x="283.26" y="199.21" width="24.62" height="1.59" style="fill:url(#be)"/><rect x="283.26" y="206.46" width="24.62" height="1.59" style="fill:url(#bf)"/><rect x="283.26" y="213.7" width="24.62" height="1.59" style="fill:url(#bg)"/><rect x="278.61" y="220.94" width="33.91" height="1.59" style="fill:url(#bh)"/><rect x="283.26" y="228.19" width="24.62" height="1.59" style="fill:url(#bi)"/><rect x="283.26" y="235.43" width="24.62" height="1.59" style="fill:url(#bj)"/><rect x="283.26" y="242.67" width="24.62" height="1.59" style="fill:url(#bk)"/><rect x="283.26" y="249.92" width="24.62" height="1.59" style="fill:url(#bl)"/><rect x="278.61" y="257.16" width="33.91" height="1.59" style="fill:url(#bm)"/><path d="M303.89,484.22V107.58c0-5.46-3.79-9.92-8.42-9.92h-.56c-4.63,0-8.41,4.46-8.41,9.92l0,376.64Z" style="fill:#9be0ff"/><g style="clip-path:url(#bn)"><rect x="286.45" y="438.99" width="17.57" height="370.41" style="fill:#fff"/><path d="M109.31,623.94H480.68a0,0,0,0,1,0,0v6.22a0,0,0,0,1,0,0H109.31a0,0,0,0,1,0,0v-6.24A0,0,0,0,1,109.31,623.94Z" transform="translate(-332.05 922.06) rotate(-90)" style="fill:#8e8e8e"/><path d="M294.63,441.38V812.64h-1.39c-.76,0-1.38-1.4-1.38-3.12V444.38c0-1.72,0-3,0-3Z" style="fill:#a8a8a8"/><rect x="286.51" y="438.5" width="17.39" height="2.07" style="fill:#a8a8a8"/><rect x="286.5" y="440.54" width="17.38" height="2.07" style="fill:#8e8e8e"/></g><rect x="271.93" y="487.48" width="47.36" height="11.37" transform="translate(591.22 986.33) rotate(-180)" style="fill:#d22c20"/><path d="M259.3,519.5c.71-15.38,16.73-27.67,36.4-27.67s35.69,12.29,36.41,27.67Z" style="fill:#d22c20"/><rect x="272.19" y="495.46" width="46.57" height="3.19" transform="translate(590.95 994.12) rotate(-180)" style="fill:#a81a16"/><rect x="275.18" y="484.33" width="40.79" height="3.5" style="fill:url(#bo)"/><path d="M77.85,0H102a42.15,42.15,0,0,1,42,42v.08H133.68A31.79,31.79,0,0,0,102,11.19H77.87A31.79,31.79,0,0,0,46.18,42.88V74.56c0,.1,0,.2,0,.3H35.83V42A42.15,42.15,0,0,1,77.85,0Z" style="fill:#d22c20"/><polygon points="143.62 42.43 144.38 48.03 141.85 50.43 135.28 49.6 134.1 44.51 134.7 40.74 134.54 39.96 143.11 39.96 143.62 42.43" style="fill:#d22c20"/><path d="M133,41h-.82v6.87A3.72,3.72,0,0,0,135,51.48a3.63,3.63,0,0,0,.87.1h6.5a3.74,3.74,0,0,0,3.74-3.73V41h-1.28c0-.34,0-.68-.05-1H141.7c0,.34,0,.68.05,1H136c0-.34,0-.67-.07-1h-3.09C132.91,40.3,133,40.63,133,41Zm2.25,3.08H143v3.81a.66.66,0,0,1-.19.46.67.67,0,0,1-.47.19h-6.5a.65.65,0,0,1-.65-.66v-3.8Z" style="fill:#d22c20"/><rect x="132.95" y="40.02" width="11.84" height="0.97" style="fill:#a81a16"/><rect x="35.61" y="68.47" width="10.64" height="0.89" style="fill:#a81a16"/><rect x="20.11" y="92.76" width="40.83" height="400.07" style="fill:#d22c20"/><ellipse cx="40.53" cy="94.09" rx="20.46" ry="21.68" style="fill:#d22c20"/><polygon points="60.71 90.96 20.35 90.83 20.75 89.14 60.35 89.14 60.71 90.96" style="fill:#a81a16"/><rect x="23.96" y="90.95" width="34.39" height="395.99" style="fill:url(#bp)"/><rect x="23.58" y="329.14" width="33.91" height="1.59" style="fill:url(#bq)"/><rect x="28.22" y="336.38" width="24.62" height="1.59" style="fill:url(#br)"/><rect x="28.22" y="343.62" width="24.62" height="1.59" style="fill:url(#bs)"/><rect x="28.22" y="350.87" width="24.62" height="1.59" style="fill:url(#bt)"/><rect x="28.22" y="358.11" width="24.62" height="1.59" style="fill:url(#bu)"/><rect x="23.58" y="365.35" width="33.91" height="1.59" style="fill:url(#bv)"/><rect x="28.07" y="372.6" width="24.62" height="1.59" style="fill:url(#bw)"/><rect x="28.07" y="379.84" width="24.62" height="1.59" style="fill:url(#bx)"/><rect x="28.07" y="387.08" width="24.62" height="1.59" style="fill:url(#by)"/><rect x="28.07" y="394.33" width="24.62" height="1.59" style="fill:url(#bz)"/><rect x="23.42" y="401.57" width="33.91" height="1.59" style="fill:url(#ca)"/><rect x="28.22" y="408.81" width="24.62" height="1.59" style="fill:url(#cb)"/><rect x="28.22" y="416.06" width="24.62" height="1.59" style="fill:url(#cc)"/><rect x="28.22" y="423.3" width="24.62" height="1.59" style="fill:url(#cd)"/><rect x="28.22" y="430.54" width="24.62" height="1.59" style="fill:url(#ce)"/><rect x="23.58" y="437.79" width="33.91" height="1.59" style="fill:url(#cf)"/><rect x="28.22" y="445.03" width="24.62" height="1.59" style="fill:url(#cg)"/><rect x="28.22" y="452.28" width="24.62" height="1.59" style="fill:url(#ch)"/><rect x="28.22" y="459.52" width="24.62" height="1.59" style="fill:url(#ci)"/><rect x="28.22" y="466.76" width="24.62" height="1.59" style="fill:url(#cj)"/><rect x="23.58" y="474.01" width="33.91" height="1.59" style="fill:url(#ck)"/><rect x="23.58" y="220.71" width="33.91" height="1.59" style="fill:url(#cl)"/><rect x="28.22" y="227.96" width="24.62" height="1.59" style="fill:url(#cm)"/><rect x="28.22" y="235.2" width="24.62" height="1.59" style="fill:url(#cn)"/><rect x="28.22" y="242.44" width="24.62" height="1.59" style="fill:url(#co)"/><rect x="28.22" y="249.69" width="24.62" height="1.59" style="fill:url(#cp)"/><rect x="23.58" y="256.93" width="33.91" height="1.59" style="fill:url(#cq)"/><rect x="28.07" y="264.17" width="24.62" height="1.59" style="fill:url(#cr)"/><rect x="28.07" y="271.42" width="24.62" height="1.59" style="fill:url(#cs)"/><rect x="28.07" y="278.66" width="24.62" height="1.59" style="fill:url(#ct)"/><rect x="28.07" y="285.9" width="24.62" height="1.59" style="fill:url(#cu)"/><rect x="23.42" y="293.15" width="33.91" height="1.59" style="fill:url(#cv)"/><rect x="28.22" y="300.39" width="24.62" height="1.59" style="fill:url(#cw)"/><rect x="28.22" y="307.64" width="24.62" height="1.59" style="fill:url(#cx)"/><rect x="28.22" y="314.88" width="24.62" height="1.59" style="fill:url(#cy)"/><rect x="28.22" y="322.12" width="24.62" height="1.59" style="fill:url(#cz)"/><rect x="23.58" y="329.37" width="33.91" height="1.59" style="fill:url(#da)"/><rect x="28.22" y="336.61" width="24.62" height="1.59" style="fill:url(#db)"/><rect x="28.22" y="343.85" width="24.62" height="1.59" style="fill:url(#dc)"/><rect x="28.22" y="351.1" width="24.62" height="1.59" style="fill:url(#dd)"/><rect x="28.22" y="358.34" width="24.62" height="1.59" style="fill:url(#de)"/><rect x="23.58" y="365.58" width="33.91" height="1.59" style="fill:url(#df)"/><rect x="23.58" y="112.29" width="33.91" height="1.59" style="fill:url(#dg)"/><rect x="28.22" y="119.53" width="24.62" height="1.59" style="fill:url(#dh)"/><rect x="28.22" y="126.78" width="24.62" height="1.59" style="fill:url(#di)"/><rect x="28.22" y="134.02" width="24.62" height="1.59" style="fill:url(#dj)"/><rect x="28.22" y="141.26" width="24.62" height="1.59" style="fill:url(#dk)"/><rect x="23.58" y="148.51" width="33.91" height="1.59" style="fill:url(#dl)"/><rect x="28.07" y="155.75" width="24.62" height="1.59" style="fill:url(#dm)"/><rect x="28.07" y="163" width="24.62" height="1.59" style="fill:url(#dn)"/><rect x="28.07" y="170.24" width="24.62" height="1.59" style="fill:url(#do)"/><rect x="28.07" y="177.48" width="24.62" height="1.59" style="fill:url(#dp)"/><rect x="23.42" y="184.73" width="33.91" height="1.59" style="fill:url(#dq)"/><rect x="28.22" y="191.97" width="24.62" height="1.59" style="fill:url(#dr)"/><rect x="28.22" y="199.21" width="24.62" height="1.59" style="fill:url(#ds)"/><rect x="28.22" y="206.46" width="24.62" height="1.59" style="fill:url(#dt)"/><rect x="28.22" y="213.7" width="24.62" height="1.59" style="fill:url(#du)"/><rect x="23.58" y="220.94" width="33.91" height="1.59" style="fill:url(#dv)"/><rect x="28.22" y="228.19" width="24.62" height="1.59" style="fill:url(#dw)"/><rect x="28.22" y="235.43" width="24.62" height="1.59" style="fill:url(#dx)"/><rect x="28.22" y="242.67" width="24.62" height="1.59" style="fill:url(#dy)"/><rect x="28.22" y="249.92" width="24.62" height="1.59" style="fill:url(#dz)"/><rect x="23.58" y="257.16" width="33.91" height="1.59" style="fill:url(#ea)"/><path d="M32.2,484.22V107.58c0-5.46,3.79-9.92,8.42-9.92h.56c4.63,0,8.42,4.46,8.42,9.92l0,376.64Z" style="fill:#9be0ff"/><g style="clip-path:url(#eb)"><rect x="32.08" y="437.99" width="17.57" height="370.41" transform="translate(81.72 1246.39) rotate(-180)" style="fill:#fff"/><path d="M-144.6,622.94H226.78a0,0,0,0,1,0,0v6.22a0,0,0,0,1,0,0H-144.6a0,0,0,0,1,0,0v-6.24a0,0,0,0,1,0,0Z" transform="translate(-584.97 667.15) rotate(-90)" style="fill:#8e8e8e"/><path d="M41.46,440.38V811.64h1.39c.77,0,1.39-1.4,1.39-3.12V443.38c0-1.72,0-3,0-3Z" style="fill:#a8a8a8"/><rect x="32.2" y="437.5" width="17.39" height="2.07" transform="translate(81.79 877.07) rotate(-180)" style="fill:#a8a8a8"/><rect x="32.21" y="439.54" width="17.38" height="2.07" transform="translate(81.8 881.16) rotate(-180)" style="fill:#8e8e8e"/></g><rect x="16.8" y="487.48" width="47.36" height="11.37" style="fill:#d22c20"/><path d="M76.79,519.5c-.71-15.38-16.73-27.67-36.4-27.67S4.7,504.12,4,519.5Z" style="fill:#d22c20"/><rect x="17.33" y="495.46" width="46.57" height="3.19" style="fill:#a81a16"/><rect x="20.12" y="484.33" width="40.79" height="3.5" transform="translate(81.04 972.17) rotate(-180)" style="fill:url(#ec)"/><rect y="474.17" width="112.67" height="374" style="fill:none"/><path d="M190,340.84s-9.19,4.35-25.73,3.83-23.19-4.53-23.19-4.53c1.81-2.05,12.65-6.53,16.29-8l1.17-.46c.52-.17,1.84-12.71,1.84-12.71h12.17l1.32,12.86,1.17.47A77.9,77.9,0,0,1,190,340.84Z" style="fill:#925930"/><path d="M173,323.06c-4,1.71-9.71,3.45-13.71,5.23.54-3.77,1.13-9.3,1.13-9.3h12.16Z" style="fill:#7c4825"/><path d="M145.91,287.26c-.84,5.58.89,21.38,6.23,27.32s10.91,8,14.62,8.14,12.21-4.8,16.41-11.81c5.06-8.46,4.61-24.54,3.57-30.78s-11.58-12-21.68-10.39S148,273.3,145.91,287.26Z" style="fill:#925930"/><path d="M169,304c-1-.53-3.41-.48-5.27-.18a1.8,1.8,0,0,0-.69.22c-.19.13-.12.38,0,.58a7.18,7.18,0,0,0,2.13,1.5,2.49,2.49,0,0,0,1,.29,2.42,2.42,0,0,0,1.37-.59C168.18,305.35,169.45,304.63,169,304Z" style="fill:#7c4825"/><path d="M185.28,298.51a3.44,3.44,0,0,1,1.81-1.35,2.55,2.55,0,0,1,2.2.32,3,3,0,0,1,1.08,2.6,8.25,8.25,0,0,1-.81,2.8,8.48,8.48,0,0,1-2.38,3.56,3.14,3.14,0,0,1-4,0Z" style="fill:#925930"/><path d="M147.21,298.51a3.46,3.46,0,0,0-1.8-1.35,2.55,2.55,0,0,0-2.2.32,3,3,0,0,0-1.08,2.6,8,8,0,0,0,.81,2.8,8.39,8.39,0,0,0,2.38,3.56,3.12,3.12,0,0,0,4,0Z" style="fill:#925930"/><path d="M157.69,293.37a3.94,3.94,0,0,1,3.08,2.57c.29.87,0,3.9-1.3,5.08a3.85,3.85,0,0,1-2,1c-1.31.16-3.31.25-4.39-.64a5,5,0,0,1-1.63-3.15,4.59,4.59,0,0,1,.21-2.8c.78-1.45,2.55-2,4.14-2.39Z" style="fill:#fff"/><path d="M154.17,299.61a3.4,3.4,0,0,1-.2-3.93,3,3,0,0,1,1.19-1.08,2.33,2.33,0,0,1,1.68-.13,2.53,2.53,0,0,1,1.51,1.94,3.46,3.46,0,0,1-1.06,3.62,2.28,2.28,0,0,1-1.71.49A2.31,2.31,0,0,1,154.17,299.61Z" style="fill:#2e1c10"/><path d="M174.63,293.37a3.94,3.94,0,0,0-3.08,2.57c-.3.87,0,3.9,1.3,5.08a3.82,3.82,0,0,0,2,1c1.32.16,3.32.25,4.4-.64a5,5,0,0,0,1.63-3.15,4.52,4.52,0,0,0-.22-2.8c-.77-1.45-2.54-2-4.13-2.39Z" style="fill:#fff"/><path d="M178.15,299.61a3.42,3.42,0,0,0,.2-3.93,3,3,0,0,0-1.19-1.08,2.33,2.33,0,0,0-1.68-.13,2.51,2.51,0,0,0-1.51,1.94A3.46,3.46,0,0,0,175,300a2.27,2.27,0,0,0,1.71.49A2.31,2.31,0,0,0,178.15,299.61Z" style="fill:#2e1c10"/><path d="M151,297.29a5.09,5.09,0,0,1,3.32-3.55,5.66,5.66,0,0,1,4.11,0,4.43,4.43,0,0,1,2.22,2.54c.16.41.6.35.66.1a5,5,0,0,0-3.94-4.27A6.16,6.16,0,0,0,151,294.8a3.85,3.85,0,0,0-.63,1.91C150.35,297.42,150.9,297.67,151,297.29Z" style="fill:#7c4825"/><path d="M181.08,297.29a5.05,5.05,0,0,0-3.31-3.55,5.66,5.66,0,0,0-4.11,0,4.39,4.39,0,0,0-2.22,2.54c-.16.41-.61.35-.66.1a5,5,0,0,1,3.94-4.27,6.14,6.14,0,0,1,6.37,2.72,3.88,3.88,0,0,1,.64,1.91C181.73,297.42,181.18,297.67,181.08,297.29Z" style="fill:#7c4825"/><path d="M148.11,269.39S161.68,260,177,260.52s14.46,8.55,14.38,9.74c-.39,5.4-3.83,23.24-5,30.67l-2.58-21.65s-22,2-32.73-2.64c0,0,1.6,5.85,1.16,5.85a21.22,21.22,0,0,1-3.26-1.95l-2.21,20.39s-5.07-22.9-4.28-27.21S146,268.19,148.11,269.39Z" style="fill:#3d2718"/><path d="M158.82,283.62a22.54,22.54,0,0,0-9.28,1.4,26.39,26.39,0,0,1,1.6,4.24,29,29,0,0,1,9-1.36l.07-4.07-.91.67Z" style="fill:#2e1c10"/><path d="M173.24,283.62a22.59,22.59,0,0,1,9.28,1.4,24.63,24.63,0,0,0-1.6,4.24,29.11,29.11,0,0,0-9-1.36c0-1.36,0-2.72-.07-4.07l.91.67C172.93,284.2,173.08,283.91,173.24,283.62Z" style="fill:#2e1c10"/><path d="M145.09,293l2.43,26s7.34,6.43,9.73,6.52,18.65.83,21.23,0,7.25-5.6,7.25-6.06S188,291.51,188,291.51l-3-1.78s.9,15.94-1.22,16.37-34.81,2-35.27-.4-.86-13.32-.86-13.32Z" style="fill:#3d2718"/><path d="M168.55,314.79a13.77,13.77,0,0,1-4.62,0,3,3,0,0,0,2.27.76A4.3,4.3,0,0,0,168.55,314.79Z" style="fill:#0c0704"/><path d="M159.19,310.22l-.25,0-.27,1.08a.66.66,0,0,0,0,.24.21.21,0,0,0,.14.19c.19.06.35-.19.51-.24a1.16,1.16,0,0,1,.58.07,42.73,42.73,0,0,0,4.94.84,14.4,14.4,0,0,0,6.4-.89,4.82,4.82,0,0,1,1.77-.42c.32,0,.48.6.63.45,0-.79-.11-1.86-.36-1.64s-.09.07-.16.37a18.78,18.78,0,0,1-13.27.53C159.55,310.75,159.14,310.59,159.19,310.22Z" style="fill:#0c0704"/><polygon points="141.98 495.68 141.91 503.51 150.62 503.51 150.9 495.16 141.98 495.68" style="fill:#473c35"/><path d="M151.34,503.51h0c0-2.13-.19-4-.51-2.72s-1.5,1.32-2.11,1.25a17.38,17.38,0,0,0-3.43-.31c-.49,0-2.2.77-2.81.57s-1.36-1.1-1.65-.9c-1.09.73-8.76,10.08-8.76,10.08l-.2.24h0l.53,2.95.49,2.71a7.55,7.55,0,0,0,1,.18l4.67-.7,2.71-1.47,10.07-5.48h0v-.07l0-6.33Z" style="fill:#6b391d"/><path d="M131.69,515.57v.33h0a.73.73,0,0,1,0-.31Z" style="fill:#e2e2de"/><path d="M141.47,501.52s.41-.62.82-.57l3.66.42a.59.59,0,0,1,.3,1l-7.88,8.34a13.54,13.54,0,0,1-4.26,0Z" style="fill:#7c4124"/><path d="M141.62,514.64a1.18,1.18,0,0,1-.35.75c-.76.84-2.51,1.62-3.14,2.26h-3.24c-.36,0-.7,0-1-.09a7.55,7.55,0,0,1-1-.18,3.72,3.72,0,0,1-1.3-.56c-.06-.09-.11-.18-.16-.27a4,4,0,0,1-.48-1.88v0a5.06,5.06,0,0,1,.16-1.31,4.68,4.68,0,0,1,.76-1.61h0l.2-.24a4.79,4.79,0,0,1,3-1.57,6.53,6.53,0,0,1,3.55.43,4.75,4.75,0,0,1,3,3.8C141.61,514.31,141.62,514.47,141.62,514.64Z" style="fill:#512915"/><path d="M146.56,511.66a14.5,14.5,0,0,1-8.85,3h-2c-3.13,0-4.22-.74-4.59-1.34a5.06,5.06,0,0,0-.16,1.31v0h0v1.22h0a1.28,1.28,0,0,0,.35.67,1.45,1.45,0,0,0,.29.25,3.72,3.72,0,0,0,1.3.56,7.55,7.55,0,0,0,1,.18c.35,0,.76.07,1.16.09,1.09.05,2.2.06,2.2.06a15.81,15.81,0,0,0,9.67-3.3l3.5-2.71a2.35,2.35,0,0,0,.92-1.79v-2Z" style="fill:#7c4124"/><polygon points="190.75 496.66 190.5 504.49 181.8 504.13 181.87 495.77 190.75 496.66" style="fill:#473c35"/><path d="M181,504.31h0c0-2.13.19-4,.51-2.72s1.5,1.33,2.11,1.26a17.33,17.33,0,0,1,3.43-.32c.49,0,2.2.77,2.81.58s1.36-1.11,1.65-.91c1.09.74,8.76,10.09,8.76,10.09l.2.23h0l-.53,2.94-.49,2.72a9.63,9.63,0,0,1-1,.18l-4.67-.7-2.71-1.48L181,510.7h0v-.06l0-6.33Z" style="fill:#6b391d"/><path d="M200.68,516.36v.33h0a.74.74,0,0,0,0-.31Z" style="fill:#e2e2de"/><path d="M190.9,502.32s-.41-.62-.82-.58l-3.66.42a.59.59,0,0,0-.3,1l7.88,8.35a13.54,13.54,0,0,0,4.26,0Z" style="fill:#7c4124"/><path d="M190.75,515.43a1.13,1.13,0,0,0,.35.75c.76.85,2.51,1.62,3.14,2.26h3.24c.36,0,.7,0,1-.08a9.63,9.63,0,0,0,1-.18,3.92,3.92,0,0,0,1.3-.56,2.54,2.54,0,0,0,.16-.28,3.92,3.92,0,0,0,.48-1.88v0a5.17,5.17,0,0,0-.16-1.31,4.55,4.55,0,0,0-.76-1.6h0l-.2-.24a4.77,4.77,0,0,0-3-1.58,6.36,6.36,0,0,0-1-.07,6.55,6.55,0,0,0-2.55.5,4.77,4.77,0,0,0-3,3.81C190.76,515.1,190.75,515.26,190.75,515.43Z" style="fill:#512915"/><path d="M185.81,512.45a14.4,14.4,0,0,0,5,2.49,14.89,14.89,0,0,0,3.89.52h2c3.13,0,4.22-.74,4.59-1.34a5.17,5.17,0,0,1,.16,1.31v0h0v1.22h0a1.3,1.3,0,0,1-.35.68,1.87,1.87,0,0,1-.29.25,3.92,3.92,0,0,1-1.3.56,9.63,9.63,0,0,1-1,.18l-1.16.08c-1.09,0-2.2.06-2.2.06a15.8,15.8,0,0,1-9.67-3.29l-3.5-2.72a2.35,2.35,0,0,1-.92-1.79v-2Z" style="fill:#7c4124"/><path d="M166.38,415.29l.31,20.23c0,.07-.14,5.76-.2,5.76-6.26.16-17.71,0-26.35-1.76a84.66,84.66,0,0,0,1.49,13.61c1.36,6.12,10.27,44.78,10.27,44.78h-.05c0,.41-.59.54-1.47.81a8.32,8.32,0,0,1-1.09.33,15,15,0,0,1-2.56.07c-.83,0-1.78.05-2.48,0a24.15,24.15,0,0,1-3.28-.33s-28.49-64.05-22.55-72.67c4-5.76,12.32-6.55,19.27-5.36.58.1-.48-5.49-.48-5.49h29.17Z" style="fill:#ab7348"/><path d="M166.56,432.37l-.14,9a147,147,0,0,1-26.35-1.89s-.1,7.74,1.39,13.11,10.44,45.34,10.44,45.34h-.05c0,.41-.62.54-1.49.81-3.41-13.63-17.64-56.3-17.24-61.05C133.7,432.13,166.56,432.37,166.56,432.37Z" style="fill:#9e6946"/><path d="M166.4,415.29v20.29s-.06,5.67,0,5.67c1.89-.15,6.26.39,25.72-1.79a16.61,16.61,0,0,1-.2,10.79c-2.12,5.83-11,47.66-11,47.66h.05c0,.41.54.79,1.41,1.07.31.09.67.18,1,.25a15.21,15.21,0,0,0,2.65.23,14.81,14.81,0,0,0,2.31-.17c1.67-.26,3.26-.45,3.25-.47l.43-1.26s28.27-62.79,22.32-71.41c-4-5.76-12.31-6.55-19.26-5.36-.58.1.48-5.49.48-5.49H166.4Z" style="fill:#ab7348"/><path d="M166.51,432.29l-.27,9.06c8.64-.1,4.22-.5,26.46-1.89,0,0,.1,7.74-1.39,13.11s-10.43,45.34-10.43,45.34h.05c0,.41.54.79,1.41,1.07,3.41-13.64,17.72-56.56,17.32-61.31C199.08,432.13,166.51,432.29,166.51,432.29Z" style="fill:#9e6946"/><path d="M178.64,330.09h0v2.44c0,.27,0,.54,0,.8a15.08,15.08,0,0,1-.23,1.82,14.73,14.73,0,0,1-.63,2.26c-.05.14-.1.28-.16.42l0,.1c0,.1-.08.2-.13.3a.38.38,0,0,1-.06.13c0,.09-.08.18-.12.27l-.06.12-.18.37-.17.31a1.73,1.73,0,0,1-.15.27l-.13.23-.1.17-.13.2s0,0,0,.05l-.15.22a4.8,4.8,0,0,1-.36.52c0,.07-.09.13-.13.19l-.12.17-.29.37-.12.15c-.35.43-.71.84-1.09,1.23-.07.07-.14.15-.22.22l0,0-.17.18c-.29.28-.58.55-.88.8l-.24.21a24.26,24.26,0,0,1-2,1.51l-.24.16c-.63.42-1.24.79-1.78,1.09l-.3.17-.29.15-.18.09c-.5.26-.91.45-1.22.58l-.38.16,0,0-.14.05-.08,0-.05,0-.44-.19-.22-.1-.07,0c-.46-.21-1.07-.51-1.78-.91l-.33-.19c-.37-.21-.77-.46-1.18-.72h0a22.26,22.26,0,0,1-2.35-1.75l-.22-.18c-.38-.33-.76-.68-1.13-1.05l-.32-.33-.15-.16c-.37-.39-.72-.81-1.07-1.24l-.2-.27-.14-.19-.29-.4-.15-.23-.13-.2-.16-.26-.15-.24-.1-.17-.22-.4-.12-.23h0a1.24,1.24,0,0,1-.1-.2.76.76,0,0,1-.09-.18c0-.09-.09-.18-.13-.27l-.12-.27a.61.61,0,0,1,0-.12l-.12-.3c-.05-.12-.1-.24-.14-.36a13.79,13.79,0,0,1-.63-2.27,13.31,13.31,0,0,1-.23-1.82h0c0-.27,0-.53,0-.8V330.1h25.4Z" style="fill:#925930"/><path d="M177.75,337.41c-2.89,7.9-11.81,11.22-11.81,11.22s-8.91-3.32-11.8-11.21a50.3,50.3,0,0,0,23.61,0Z" style="fill:#925930"/><polygon points="196.27 418.9 139.86 417.71 152.18 329.92 167.73 333.23 184.09 329.92 196.27 418.9" style="fill:#ededed"/><path d="M166.57,332.63s-3.58,43.54-3.47,44.12,2.67,3.92,3.74,4.06c.66.09,4.52-3.08,4.94-4,.78-1.72-3.77-44.19-3.77-44.19Z" style="fill:#473c35"/><path d="M162.53,332.87s6.64-.62,9.25,0c0,0-3,6-4.62,6.6C167.16,339.47,162.62,335.71,162.53,332.87Z" style="fill:#473c35"/><path d="M158.77,327.47s.84,3.38,8.88,5.17a84.79,84.79,0,0,1-7.27,8s-4.75-7.72-4.72-11.4Z" style="fill:#dbdbdb"/><path d="M167.65,332.64a83,83,0,0,0,6.61,8.41s2.82-7.38,3.88-11.64c0,0-2.84-1.82-3.81-2.27A12.13,12.13,0,0,1,167.65,332.64Z" style="fill:#dbdbdb"/><path d="M149.42,331s9.15,17.47,18,25.43c0,0,15.83-11.66,19.16-21.74l2.5.57s1.82,76.94,1.94,85c0,0-20.35,4.48-41.56,0,0,0-3.21-84.17-3.41-87.82Z" style="fill:#b53116"/><path d="M155.23,329.9h-8a9,9,0,0,0-8.89,8.58l-3.09,84.23a.33.33,0,0,0,.34.35h2.28c6.37,0,20.65,0,20.66-20.25h0Z" style="fill:url(#ed)"/><path d="M179.18,329.9h8.18a9,9,0,0,1,8.89,8.58l3.09,84.23a.34.34,0,0,1-.34.35h-2.29c-6.36,0-20.64,0-20.65-20.25h0Z" style="fill:url(#ee)"/><path d="M140,358.89c-.1,1.69.11,11.56,1.72,14.32s9.42,1.85,10-2.38-.28-12.22-.28-12.22S143.67,358.63,140,358.89Z" style="fill:#442b28"/><polygon points="147.15 329.91 156.9 328.58 158.45 397.95 151.7 350.17 154.79 344.27 150.55 345.3 147.15 329.91" style="fill:#69423d"/><polygon points="187.41 329.91 177.31 328.86 176.12 397.95 182.87 350.17 179.78 344.27 184.01 345.3 187.41 329.91" style="fill:#69423d"/><polygon points="126.24 420.59 125.23 416.99 128.24 411.49 134.11 409.84 136.82 419.53 126.24 420.59" style="fill:#925930"/><path d="M130.7,420.1a4.41,4.41,0,1,1,3.06-5.44A4.42,4.42,0,0,1,130.7,420.1Z" style="fill:#925930"/><path d="M131.69,423.65a4.42,4.42,0,1,1,3.06-5.44A4.42,4.42,0,0,1,131.69,423.65Z" style="fill:#925930"/><path d="M133.49,419.32a4.41,4.41,0,1,1,3.06-5.44A4.4,4.4,0,0,1,133.49,419.32Z" style="fill:#925930"/><rect x="125.79" y="407.85" width="8.83" height="8.89" transform="translate(-106.84 50.7) rotate(-15.72)" style="fill:#925930"/><path d="M136.42,417.91c-1.85-2.17-2.89-4.35-2.31-4.85s2.59.86,4.44,3,2.9,4.35,2.31,4.85S138.28,420.08,136.42,417.91Z" style="fill:#925930"/><path d="M135.4,421.78c-1.14-4.08-1.5-7.58-.8-7.77s2.22,3,3.37,7.05,1.5,7.57.79,7.77S136.54,425.85,135.4,421.78Z" style="fill:#925930"/><path d="M133.13,423.56c-1.19-4.24-1.58-7.87-.88-8.07s2.26,3.11,3.45,7.35l.15.55c1.19,4.24,1.58,7.86.88,8.06s-2.26-3.1-3.44-7.34Z" style="fill:#925930"/><path d="M130.48,424c-1.14-4.07-1.5-7.57-.79-7.77s2.22,3,3.36,7.05,1.5,7.58.79,7.77S131.63,428.06,130.48,424Z" style="fill:#925930"/><path d="M127.31,422.52c-1-3.6-1.26-6.7-.56-6.9s2.11,2.58,3.12,6.18,1.26,6.71.55,6.91S128.32,426.12,127.31,422.52Z" style="fill:#925930"/><path d="M133.1,405.81c-.76.31.25,1.48.58,2.49s.66,2.28.66,2.28l-8.64,2.08-.93-3.3Z" style="fill:#ededed"/><path d="M133.72,408.31l-.2-.84a3.27,3.27,0,0,1,0-.45l0-.46c0-.3,0-.62,0-.94l0-.47v-1.46c0-.33,0-.66,0-1s0-.66,0-1l.06-1c.16-2.69.46-5.42.85-8.16s.85-5.47,1.37-8.2,1.1-5.45,1.74-8.16,1.3-5.42,2-8.1,1.5-5.36,2.32-8,1.68-5.28,2.59-7.88,1.88-5.17,2.89-7.71l-15.55-5.07q-1.2,4.31-2.2,8.64c-.67,2.88-1.27,5.77-1.84,8.66s-1,5.79-1.51,8.69-.85,5.81-1.2,8.72-.65,5.84-.88,8.78-.41,5.88-.5,8.85-.1,6,.05,9l.06,1.15c0,.38.06.77.09,1.16s0,.77.1,1.17l.13,1.18,0,.3,0,.3.09.61c.06.4.12.8.2,1.22l.12.63.06.31,0,.16,0,.16.33,1.32Z" style="fill:#69423d"/><path d="M142.22,334.27a7.82,7.82,0,0,0-6.26.25,8.26,8.26,0,0,0-2.55,2,8.42,8.42,0,0,0-2,6.27,8.17,8.17,0,0,0,.9,3.06,8,8,0,0,0,4.89,3.92,8.45,8.45,0,0,0,6.2-.67,8,8,0,0,0,2.4-1.88,7.65,7.65,0,0,0,1.52-2.7,7.54,7.54,0,0,0,.36-3.07,8.13,8.13,0,0,0-.82-2.92A8.55,8.55,0,0,0,142.22,334.27Z" style="fill:#69423d"/><g style="clip-path:url(#ef)"><ellipse cx="124.23" cy="383.71" rx="7.81" ry="3.97" transform="matrix(0.05, -1, 1, 0.05, -265.09, 489.05)" style="fill:#ab7348"/></g><polygon points="207.72 419.13 208.73 415.53 205.73 410.03 199.86 408.38 197.14 418.08 207.72 419.13" style="fill:#925930"/><path d="M203.27,418.65a4.42,4.42,0,1,0-3.06-5.45A4.4,4.4,0,0,0,203.27,418.65Z" style="fill:#925930"/><path d="M202.27,422.19a4.41,4.41,0,1,0-3.05-5.44A4.42,4.42,0,0,0,202.27,422.19Z" style="fill:#925930"/><path d="M200.47,417.86a4.41,4.41,0,1,0-3.06-5.44A4.42,4.42,0,0,0,200.47,417.86Z" style="fill:#925930"/><rect x="199.31" y="406.42" width="8.89" height="8.83" transform="translate(-246.92 495.65) rotate(-74.28)" style="fill:#925930"/><path d="M197.54,416.45c1.86-2.16,2.9-4.35,2.31-4.85s-2.58.86-4.44,3-2.89,4.35-2.31,4.86S195.69,418.62,197.54,416.45Z" style="fill:#925930"/><path d="M198.57,420.32c1.14-4.08,1.5-7.57.79-7.77s-2.22,3-3.36,7.05-1.5,7.57-.8,7.77S197.42,424.4,198.57,420.32Z" style="fill:#925930"/><path d="M200.83,422.1c1.19-4.24,1.59-7.87.88-8.06s-2.25,3.1-3.44,7.34l-.16.55c-1.19,4.24-1.58,7.87-.87,8.07s2.25-3.11,3.44-7.35Z" style="fill:#925930"/><path d="M203.48,422.53c1.15-4.08,1.5-7.58.8-7.77s-2.22,3-3.36,7.05-1.5,7.57-.8,7.77S202.34,426.6,203.48,422.53Z" style="fill:#925930"/><path d="M206.66,421.07c1-3.6,1.26-6.71.55-6.91s-2.11,2.59-3.12,6.19-1.26,6.71-.55,6.9S205.65,424.67,206.66,421.07Z" style="fill:#925930"/><path d="M200.88,404.2c.77.31-.26,1.67-.59,2.69s-.65,2.08-.65,2.08l8.64,2.09.93-3.31Z" style="fill:#ededed"/><path d="M200.27,406.83l.18-.82c0-.13,0-.3,0-.45l0-.45c0-.3,0-.62,0-.94l0-.48v-1.46c0-.32,0-.66,0-1s0-.66,0-1l-.06-1c-.16-2.7-.47-5.43-.85-8.16s-.85-5.47-1.38-8.2-1.1-5.46-1.73-8.17-1.31-5.41-2-8.1-1.5-5.36-2.31-8-1.69-5.28-2.6-7.88-1.88-5.17-2.89-7.71l15.56-5.07q1.19,4.32,2.2,8.64t1.83,8.66c.56,2.89,1,5.79,1.51,8.69s.85,5.81,1.21,8.73.64,5.83.88,8.77.41,5.88.5,8.85.1,6-.05,9l-.06,1.15c0,.38-.06.78-.09,1.16s-.06.77-.1,1.17l-.13,1.19,0,.29,0,.3-.09.61c-.06.4-.11.8-.2,1.23l-.12.62-.06.32,0,.15,0,.17L209,409Z" style="fill:#69423d"/><path d="M191.74,332.81a7.86,7.86,0,0,1,6.26.25,8.3,8.3,0,0,1,2.55,1.95,8.41,8.41,0,0,1,2,6.27,8.18,8.18,0,0,1-.91,3.06,7.92,7.92,0,0,1-4.89,3.92,8.45,8.45,0,0,1-6.2-.66,8.34,8.34,0,0,1-2.4-1.89,7.86,7.86,0,0,1-1.88-5.76,8.09,8.09,0,0,1,.83-2.92A8.54,8.54,0,0,1,191.74,332.81Z" style="fill:#69423d"/><g style="clip-path:url(#eg)"><ellipse cx="210.04" cy="382.12" rx="3.97" ry="7.81" transform="translate(-17.98 10.45) rotate(-2.73)" style="fill:#ab7348"/></g><path d="M169.67,296l-.18,0-2-.62a5.08,5.08,0,0,0-2.89,0l-2,.62a.61.61,0,0,1-.77-.46.67.67,0,0,1,.43-.83l2-.61a6.1,6.1,0,0,1,3.59,0l2,.61a.69.69,0,0,1,.43.83A.64.64,0,0,1,169.67,296Z" style="fill:#372b36"/><path d="M148.43,298.25h-2.52a.67.67,0,0,1,0-1.34h2.35A5.33,5.33,0,0,0,148.43,298.25Z" style="fill:#372b36"/><path d="M184.18,296.64h2.38a.67.67,0,1,1,0,1.34h-2.43Z" style="fill:#372b36"/><circle cx="155.61" cy="296.67" r="6.85" style="fill:none;stroke:#372b36;stroke-miterlimit:10"/><circle cx="176.7" cy="296.67" r="6.85" style="fill:none;stroke:#372b36;stroke-miterlimit:10"/></g></svg>