<svg xmlns="http://www.w3.org/2000/svg" xmlns:xlink="http://www.w3.org/1999/xlink" viewBox="0 0 332.11 848.17"><defs><clipPath id="a"><path d="M210.87,101.44v.06c-.1.36-1.77.89-2.14,1a38.89,38.89,0,0,1-5.63,1.11c-28.22,4.14-71.94,1.48-76.12-1.62l-.16-.18c.87-4.83,52.68-6.34,74.28-3.51C206.71,99,210.37,100,210.87,101.44Z" style="fill:#a81a16"/></clipPath><linearGradient id="b" x1="-182.75" y1="288.95" x2="-148.36" y2="288.95" gradientTransform="matrix(1, 0, 0, -1, 460.49, 577.9)" gradientUnits="userSpaceOnUse"><stop offset="0.01" stop-color="#d22c20"/><stop offset="0.31" stop-color="#e7342e"/><stop offset="0.51" stop-color="#ef3733"/><stop offset="0.72" stop-color="#e6332d"/><stop offset="1" stop-color="#d22c20"/></linearGradient><linearGradient id="c" x1="311.62" y1="329.93" x2="278.86" y2="329.93" gradientUnits="userSpaceOnUse"><stop offset="0.05" stop-color="#d3d2d2"/><stop offset="0.37" stop-color="#9a9a9c"/><stop offset="0.64" stop-color="#9a9a9c"/><stop offset="1" stop-color="#d1d6d5"/></linearGradient><linearGradient id="d" x1="307.23" y1="337.17" x2="283.44" y2="337.17" xlink:href="#c"/><linearGradient id="e" x1="307.23" y1="344.42" x2="283.44" y2="344.42" xlink:href="#c"/><linearGradient id="f" x1="307.23" y1="351.66" x2="283.44" y2="351.66" xlink:href="#c"/><linearGradient id="g" x1="307.23" y1="358.9" x2="283.44" y2="358.9" xlink:href="#c"/><linearGradient id="h" x1="311.62" y1="366.15" x2="278.86" y2="366.15" xlink:href="#c"/><linearGradient id="i" x1="307.38" y1="373.39" x2="283.59" y2="373.39" xlink:href="#c"/><linearGradient id="j" x1="307.38" y1="380.63" x2="283.59" y2="380.63" xlink:href="#c"/><linearGradient id="k" x1="307.38" y1="387.88" x2="283.59" y2="387.88" xlink:href="#c"/><linearGradient id="l" x1="307.38" y1="395.12" x2="283.59" y2="395.12" xlink:href="#c"/><linearGradient id="m" x1="311.78" y1="402.37" x2="279.01" y2="402.37" xlink:href="#c"/><linearGradient id="n" x1="307.23" y1="409.61" x2="283.44" y2="409.61" xlink:href="#c"/><linearGradient id="o" x1="307.23" y1="416.85" x2="283.44" y2="416.85" xlink:href="#c"/><linearGradient id="p" x1="307.23" y1="424.1" x2="283.44" y2="424.1" xlink:href="#c"/><linearGradient id="q" x1="307.23" y1="431.34" x2="283.44" y2="431.34" xlink:href="#c"/><linearGradient id="r" x1="311.62" y1="438.58" x2="278.86" y2="438.58" xlink:href="#c"/><linearGradient id="s" x1="307.23" y1="445.83" x2="283.44" y2="445.83" xlink:href="#c"/><linearGradient id="t" x1="307.23" y1="453.07" x2="283.44" y2="453.07" xlink:href="#c"/><linearGradient id="u" x1="307.23" y1="460.31" x2="283.44" y2="460.31" xlink:href="#c"/><linearGradient id="v" x1="307.23" y1="467.56" x2="283.44" y2="467.56" xlink:href="#c"/><linearGradient id="w" x1="311.62" y1="474.8" x2="278.86" y2="474.8" xlink:href="#c"/><linearGradient id="x" x1="311.62" y1="221.51" x2="278.86" y2="221.51" xlink:href="#c"/><linearGradient id="y" x1="307.23" y1="228.75" x2="283.44" y2="228.75" xlink:href="#c"/><linearGradient id="z" x1="307.23" y1="235.99" x2="283.44" y2="235.99" xlink:href="#c"/><linearGradient id="aa" x1="307.23" y1="243.24" x2="283.44" y2="243.24" xlink:href="#c"/><linearGradient id="ab" x1="307.23" y1="250.48" x2="283.44" y2="250.48" xlink:href="#c"/><linearGradient id="ac" x1="311.62" y1="257.73" x2="278.86" y2="257.73" xlink:href="#c"/><linearGradient id="ad" x1="307.38" y1="264.97" x2="283.59" y2="264.97" xlink:href="#c"/><linearGradient id="ae" x1="307.38" y1="272.21" x2="283.59" y2="272.21" xlink:href="#c"/><linearGradient id="af" x1="307.38" y1="279.46" x2="283.59" y2="279.46" xlink:href="#c"/><linearGradient id="ag" x1="307.38" y1="286.7" x2="283.59" y2="286.7" xlink:href="#c"/><linearGradient id="ah" x1="311.78" y1="293.94" x2="279.01" y2="293.94" xlink:href="#c"/><linearGradient id="ai" x1="307.23" y1="301.19" x2="283.44" y2="301.19" xlink:href="#c"/><linearGradient id="aj" x1="307.23" y1="308.43" x2="283.44" y2="308.43" xlink:href="#c"/><linearGradient id="ak" x1="307.23" y1="315.67" x2="283.44" y2="315.67" xlink:href="#c"/><linearGradient id="al" x1="307.23" y1="322.92" x2="283.44" y2="322.92" xlink:href="#c"/><linearGradient id="am" x1="311.62" y1="330.16" x2="278.86" y2="330.16" xlink:href="#c"/><linearGradient id="an" x1="307.23" y1="337.4" x2="283.44" y2="337.4" xlink:href="#c"/><linearGradient id="ao" x1="307.23" y1="344.65" x2="283.44" y2="344.65" xlink:href="#c"/><linearGradient id="ap" x1="307.23" y1="351.89" x2="283.44" y2="351.89" xlink:href="#c"/><linearGradient id="aq" x1="307.23" y1="359.13" x2="283.44" y2="359.13" xlink:href="#c"/><linearGradient id="ar" x1="311.62" y1="366.38" x2="278.86" y2="366.38" xlink:href="#c"/><linearGradient id="as" x1="311.62" y1="113.09" x2="278.86" y2="113.09" xlink:href="#c"/><linearGradient id="at" x1="307.23" y1="120.33" x2="283.44" y2="120.33" xlink:href="#c"/><linearGradient id="au" x1="307.23" y1="127.57" x2="283.44" y2="127.57" xlink:href="#c"/><linearGradient id="av" x1="307.23" y1="134.82" x2="283.44" y2="134.82" xlink:href="#c"/><linearGradient id="aw" x1="307.23" y1="142.06" x2="283.44" y2="142.06" xlink:href="#c"/><linearGradient id="ax" x1="311.62" y1="149.3" x2="278.86" y2="149.3" xlink:href="#c"/><linearGradient id="ay" x1="307.38" y1="156.55" x2="283.59" y2="156.55" xlink:href="#c"/><linearGradient id="az" x1="307.38" y1="163.79" x2="283.59" y2="163.79" xlink:href="#c"/><linearGradient id="ba" x1="307.38" y1="171.03" x2="283.59" y2="171.03" xlink:href="#c"/><linearGradient id="bb" x1="307.38" y1="178.28" x2="283.59" y2="178.28" xlink:href="#c"/><linearGradient id="bc" x1="311.78" y1="185.52" x2="279.01" y2="185.52" xlink:href="#c"/><linearGradient id="bd" x1="307.23" y1="192.76" x2="283.44" y2="192.76" xlink:href="#c"/><linearGradient id="be" x1="307.23" y1="200.01" x2="283.44" y2="200.01" xlink:href="#c"/><linearGradient id="bf" x1="307.23" y1="207.25" x2="283.44" y2="207.25" xlink:href="#c"/><linearGradient id="bg" x1="307.23" y1="214.49" x2="283.44" y2="214.49" xlink:href="#c"/><linearGradient id="bh" x1="311.62" y1="221.74" x2="278.86" y2="221.74" xlink:href="#c"/><linearGradient id="bi" x1="307.23" y1="228.98" x2="283.44" y2="228.98" xlink:href="#c"/><linearGradient id="bj" x1="307.23" y1="236.23" x2="283.44" y2="236.23" xlink:href="#c"/><linearGradient id="bk" x1="307.23" y1="243.47" x2="283.44" y2="243.47" xlink:href="#c"/><linearGradient id="bl" x1="307.23" y1="250.71" x2="283.44" y2="250.71" xlink:href="#c"/><linearGradient id="bm" x1="311.62" y1="257.96" x2="278.86" y2="257.96" xlink:href="#c"/><clipPath id="bn"><rect x="286.53" y="112.37" width="17.37" height="371.86" style="fill:none"/></clipPath><linearGradient id="bo" x1="275.18" y1="486.08" x2="315.97" y2="486.08" gradientUnits="userSpaceOnUse"><stop offset="0.01" stop-color="#d22c20"/><stop offset="0.26" stop-color="#e2322b"/><stop offset="0.51" stop-color="#ef3733"/><stop offset="1" stop-color="#d22c20"/></linearGradient><linearGradient id="bp" x1="-368.75" y1="288.95" x2="-334.36" y2="288.95" gradientTransform="translate(392.71)" xlink:href="#b"/><linearGradient id="bq" x1="497.62" y1="329.93" x2="464.86" y2="329.93" gradientTransform="matrix(-1, 0, 0, 1, 522.09, 0)" xlink:href="#c"/><linearGradient id="br" x1="493.23" y1="337.17" x2="469.44" y2="337.17" gradientTransform="matrix(-1, 0, 0, 1, 522.09, 0)" xlink:href="#c"/><linearGradient id="bs" x1="493.23" y1="344.42" x2="469.44" y2="344.42" gradientTransform="matrix(-1, 0, 0, 1, 522.09, 0)" xlink:href="#c"/><linearGradient id="bt" x1="493.23" y1="351.66" x2="469.44" y2="351.66" gradientTransform="matrix(-1, 0, 0, 1, 522.09, 0)" xlink:href="#c"/><linearGradient id="bu" x1="493.23" y1="358.9" x2="469.44" y2="358.9" gradientTransform="matrix(-1, 0, 0, 1, 522.09, 0)" xlink:href="#c"/><linearGradient id="bv" x1="497.62" y1="366.15" x2="464.86" y2="366.15" gradientTransform="matrix(-1, 0, 0, 1, 522.09, 0)" xlink:href="#c"/><linearGradient id="bw" x1="493.38" y1="373.39" x2="469.59" y2="373.39" gradientTransform="matrix(-1, 0, 0, 1, 522.09, 0)" xlink:href="#c"/><linearGradient id="bx" x1="493.38" y1="380.63" x2="469.59" y2="380.63" gradientTransform="matrix(-1, 0, 0, 1, 522.09, 0)" xlink:href="#c"/><linearGradient id="by" x1="493.38" y1="387.88" x2="469.59" y2="387.88" gradientTransform="matrix(-1, 0, 0, 1, 522.09, 0)" xlink:href="#c"/><linearGradient id="bz" x1="493.38" y1="395.12" x2="469.59" y2="395.12" gradientTransform="matrix(-1, 0, 0, 1, 522.09, 0)" xlink:href="#c"/><linearGradient id="ca" x1="497.78" y1="402.37" x2="465.01" y2="402.37" gradientTransform="matrix(-1, 0, 0, 1, 522.09, 0)" xlink:href="#c"/><linearGradient id="cb" x1="493.23" y1="409.61" x2="469.44" y2="409.61" gradientTransform="matrix(-1, 0, 0, 1, 522.09, 0)" xlink:href="#c"/><linearGradient id="cc" x1="493.23" y1="416.85" x2="469.44" y2="416.85" gradientTransform="matrix(-1, 0, 0, 1, 522.09, 0)" xlink:href="#c"/><linearGradient id="cd" x1="493.23" y1="424.1" x2="469.44" y2="424.1" gradientTransform="matrix(-1, 0, 0, 1, 522.09, 0)" xlink:href="#c"/><linearGradient id="ce" x1="493.23" y1="431.34" x2="469.44" y2="431.34" gradientTransform="matrix(-1, 0, 0, 1, 522.09, 0)" xlink:href="#c"/><linearGradient id="cf" x1="497.62" y1="438.58" x2="464.86" y2="438.58" gradientTransform="matrix(-1, 0, 0, 1, 522.09, 0)" xlink:href="#c"/><linearGradient id="cg" x1="493.23" y1="445.83" x2="469.44" y2="445.83" gradientTransform="matrix(-1, 0, 0, 1, 522.09, 0)" xlink:href="#c"/><linearGradient id="ch" x1="493.23" y1="453.07" x2="469.44" y2="453.07" gradientTransform="matrix(-1, 0, 0, 1, 522.09, 0)" xlink:href="#c"/><linearGradient id="ci" x1="493.23" y1="460.31" x2="469.44" y2="460.31" gradientTransform="matrix(-1, 0, 0, 1, 522.09, 0)" xlink:href="#c"/><linearGradient id="cj" x1="493.23" y1="467.56" x2="469.44" y2="467.56" gradientTransform="matrix(-1, 0, 0, 1, 522.09, 0)" xlink:href="#c"/><linearGradient id="ck" x1="497.62" y1="474.8" x2="464.86" y2="474.8" gradientTransform="matrix(-1, 0, 0, 1, 522.09, 0)" xlink:href="#c"/><linearGradient id="cl" x1="497.62" y1="221.51" x2="464.86" y2="221.51" gradientTransform="matrix(-1, 0, 0, 1, 522.09, 0)" xlink:href="#c"/><linearGradient id="cm" x1="493.23" y1="228.75" x2="469.44" y2="228.75" gradientTransform="matrix(-1, 0, 0, 1, 522.09, 0)" xlink:href="#c"/><linearGradient id="cn" x1="493.23" y1="235.99" x2="469.44" y2="235.99" gradientTransform="matrix(-1, 0, 0, 1, 522.09, 0)" xlink:href="#c"/><linearGradient id="co" x1="493.23" y1="243.24" x2="469.44" y2="243.24" gradientTransform="matrix(-1, 0, 0, 1, 522.09, 0)" xlink:href="#c"/><linearGradient id="cp" x1="493.23" y1="250.48" x2="469.44" y2="250.48" gradientTransform="matrix(-1, 0, 0, 1, 522.09, 0)" xlink:href="#c"/><linearGradient id="cq" x1="497.62" y1="257.73" x2="464.86" y2="257.73" gradientTransform="matrix(-1, 0, 0, 1, 522.09, 0)" xlink:href="#c"/><linearGradient id="cr" x1="493.38" y1="264.97" x2="469.59" y2="264.97" gradientTransform="matrix(-1, 0, 0, 1, 522.09, 0)" xlink:href="#c"/><linearGradient id="cs" x1="493.38" y1="272.21" x2="469.59" y2="272.21" gradientTransform="matrix(-1, 0, 0, 1, 522.09, 0)" xlink:href="#c"/><linearGradient id="ct" x1="493.38" y1="279.46" x2="469.59" y2="279.46" gradientTransform="matrix(-1, 0, 0, 1, 522.09, 0)" xlink:href="#c"/><linearGradient id="cu" x1="493.38" y1="286.7" x2="469.59" y2="286.7" gradientTransform="matrix(-1, 0, 0, 1, 522.09, 0)" xlink:href="#c"/><linearGradient id="cv" x1="497.78" y1="293.94" x2="465.01" y2="293.94" gradientTransform="matrix(-1, 0, 0, 1, 522.09, 0)" xlink:href="#c"/><linearGradient id="cw" x1="493.23" y1="301.19" x2="469.44" y2="301.19" gradientTransform="matrix(-1, 0, 0, 1, 522.09, 0)" xlink:href="#c"/><linearGradient id="cx" x1="493.23" y1="308.43" x2="469.44" y2="308.43" gradientTransform="matrix(-1, 0, 0, 1, 522.09, 0)" xlink:href="#c"/><linearGradient id="cy" x1="493.23" y1="315.67" x2="469.44" y2="315.67" gradientTransform="matrix(-1, 0, 0, 1, 522.09, 0)" xlink:href="#c"/><linearGradient id="cz" x1="493.23" y1="322.92" x2="469.44" y2="322.92" gradientTransform="matrix(-1, 0, 0, 1, 522.09, 0)" xlink:href="#c"/><linearGradient id="da" x1="497.62" y1="330.16" x2="464.86" y2="330.16" gradientTransform="matrix(-1, 0, 0, 1, 522.09, 0)" xlink:href="#c"/><linearGradient id="db" x1="493.23" y1="337.4" x2="469.44" y2="337.4" gradientTransform="matrix(-1, 0, 0, 1, 522.09, 0)" xlink:href="#c"/><linearGradient id="dc" x1="493.23" y1="344.65" x2="469.44" y2="344.65" gradientTransform="matrix(-1, 0, 0, 1, 522.09, 0)" xlink:href="#c"/><linearGradient id="dd" x1="493.23" y1="351.89" x2="469.44" y2="351.89" gradientTransform="matrix(-1, 0, 0, 1, 522.09, 0)" xlink:href="#c"/><linearGradient id="de" x1="493.23" y1="359.13" x2="469.44" y2="359.13" gradientTransform="matrix(-1, 0, 0, 1, 522.09, 0)" xlink:href="#c"/><linearGradient id="df" x1="497.62" y1="366.38" x2="464.86" y2="366.38" gradientTransform="matrix(-1, 0, 0, 1, 522.09, 0)" xlink:href="#c"/><linearGradient id="dg" x1="497.62" y1="113.09" x2="464.86" y2="113.09" gradientTransform="matrix(-1, 0, 0, 1, 522.09, 0)" xlink:href="#c"/><linearGradient id="dh" x1="493.23" y1="120.33" x2="469.44" y2="120.33" gradientTransform="matrix(-1, 0, 0, 1, 522.09, 0)" xlink:href="#c"/><linearGradient id="di" x1="493.23" y1="127.57" x2="469.44" y2="127.57" gradientTransform="matrix(-1, 0, 0, 1, 522.09, 0)" xlink:href="#c"/><linearGradient id="dj" x1="493.23" y1="134.82" x2="469.44" y2="134.82" gradientTransform="matrix(-1, 0, 0, 1, 522.09, 0)" xlink:href="#c"/><linearGradient id="dk" x1="493.23" y1="142.06" x2="469.44" y2="142.06" gradientTransform="matrix(-1, 0, 0, 1, 522.09, 0)" xlink:href="#c"/><linearGradient id="dl" x1="497.62" y1="149.3" x2="464.86" y2="149.3" gradientTransform="matrix(-1, 0, 0, 1, 522.09, 0)" xlink:href="#c"/><linearGradient id="dm" x1="493.38" y1="156.55" x2="469.59" y2="156.55" gradientTransform="matrix(-1, 0, 0, 1, 522.09, 0)" xlink:href="#c"/><linearGradient id="dn" x1="493.38" y1="163.79" x2="469.59" y2="163.79" gradientTransform="matrix(-1, 0, 0, 1, 522.09, 0)" xlink:href="#c"/><linearGradient id="do" x1="493.38" y1="171.03" x2="469.59" y2="171.03" gradientTransform="matrix(-1, 0, 0, 1, 522.09, 0)" xlink:href="#c"/><linearGradient id="dp" x1="493.38" y1="178.28" x2="469.59" y2="178.28" gradientTransform="matrix(-1, 0, 0, 1, 522.09, 0)" xlink:href="#c"/><linearGradient id="dq" x1="497.78" y1="185.52" x2="465.01" y2="185.52" gradientTransform="matrix(-1, 0, 0, 1, 522.09, 0)" xlink:href="#c"/><linearGradient id="dr" x1="493.23" y1="192.76" x2="469.44" y2="192.76" gradientTransform="matrix(-1, 0, 0, 1, 522.09, 0)" xlink:href="#c"/><linearGradient id="ds" x1="493.23" y1="200.01" x2="469.44" y2="200.01" gradientTransform="matrix(-1, 0, 0, 1, 522.09, 0)" xlink:href="#c"/><linearGradient id="dt" x1="493.23" y1="207.25" x2="469.44" y2="207.25" gradientTransform="matrix(-1, 0, 0, 1, 522.09, 0)" xlink:href="#c"/><linearGradient id="du" x1="493.23" y1="214.49" x2="469.44" y2="214.49" gradientTransform="matrix(-1, 0, 0, 1, 522.09, 0)" xlink:href="#c"/><linearGradient id="dv" x1="497.62" y1="221.74" x2="464.86" y2="221.74" gradientTransform="matrix(-1, 0, 0, 1, 522.09, 0)" xlink:href="#c"/><linearGradient id="dw" x1="493.23" y1="228.98" x2="469.44" y2="228.98" gradientTransform="matrix(-1, 0, 0, 1, 522.09, 0)" xlink:href="#c"/><linearGradient id="dx" x1="493.23" y1="236.23" x2="469.44" y2="236.23" gradientTransform="matrix(-1, 0, 0, 1, 522.09, 0)" xlink:href="#c"/><linearGradient id="dy" x1="493.23" y1="243.47" x2="469.44" y2="243.47" gradientTransform="matrix(-1, 0, 0, 1, 522.09, 0)" xlink:href="#c"/><linearGradient id="dz" x1="493.23" y1="250.71" x2="469.44" y2="250.71" gradientTransform="matrix(-1, 0, 0, 1, 522.09, 0)" xlink:href="#c"/><linearGradient id="ea" x1="497.62" y1="257.96" x2="464.86" y2="257.96" gradientTransform="matrix(-1, 0, 0, 1, 522.09, 0)" xlink:href="#c"/><clipPath id="eb"><rect x="32.2" y="112.37" width="17.37" height="371.86" transform="translate(81.77 596.6) rotate(-180)" style="fill:none"/></clipPath><linearGradient id="ec" x1="461.18" y1="486.08" x2="501.97" y2="486.08" gradientTransform="matrix(1, 0, 0, -1, -441.06, 972.17)" xlink:href="#bo"/><linearGradient id="ed" x1="135.27" y1="376.49" x2="158.55" y2="376.49" gradientUnits="userSpaceOnUse"><stop offset="0" stop-color="#5b413f"/><stop offset="0.25" stop-color="#543734"/><stop offset="0.51" stop-color="#523430"/><stop offset="0.87" stop-color="#4d312d"/><stop offset="1" stop-color="#4a2f2b"/></linearGradient><linearGradient id="ee" x1="176.08" y1="376.49" x2="199.36" y2="376.49" xlink:href="#ed"/><clipPath id="ef"><path d="M133.72,408.33l-.2-.85a3.27,3.27,0,0,1,0-.45l0-.46c0-.3,0-.62,0-.94l0-.47V403.7c0-.33,0-.67,0-1s0-.66,0-1l.06-1c.16-2.69.47-5.42.85-8.16s.85-5.47,1.37-8.2,1.1-5.46,1.74-8.17,1.31-5.42,2-8.1,1.49-5.36,2.31-8,1.69-5.28,2.6-7.89,1.88-5.17,2.89-7.71l-15.56-5.07q-1.2,4.32-2.2,8.64c-.67,2.88-1.27,5.77-1.84,8.66s-1,5.79-1.51,8.69-.85,5.82-1.2,8.73-.65,5.84-.88,8.78-.41,5.89-.51,8.86-.09,6,.06,9l.06,1.15c0,.38.06.77.08,1.16s.06.77.11,1.17l.13,1.18,0,.3,0,.3.09.61c.06.4.12.8.2,1.23l.12.62.06.31,0,.16,0,.17.33,1.31Z" style="fill:none"/></clipPath><clipPath id="eg"><path d="M200.29,406.84l.18-.82c0-.13,0-.3,0-.45l0-.45c0-.3,0-.62.05-.94l0-.48v-1.46c0-.32,0-.66,0-1s0-.66,0-1l-.06-1c-.16-2.69-.47-5.42-.85-8.16s-.86-5.47-1.38-8.2-1.1-5.46-1.73-8.17-1.31-5.41-2-8.1-1.5-5.36-2.32-8-1.68-5.28-2.59-7.88-1.88-5.18-2.89-7.71l15.56-5.08c.8,2.88,1.52,5.76,2.2,8.64s1.27,5.77,1.83,8.67,1.06,5.79,1.51,8.69.85,5.81,1.21,8.73.64,5.84.88,8.77.41,5.89.5,8.86.1,6,0,9l-.06,1.15c0,.38-.06.78-.09,1.16s-.05.77-.1,1.17L210,404l0,.29-.05.3-.09.61c-.06.4-.11.8-.2,1.23l-.12.62-.06.32,0,.15,0,.17L209,409Z" style="fill:none"/></clipPath></defs><title>man-8</title><g style="isolation:isolate"><polygon points="98.24 519.65 85.33 519.65 82.67 464.07 100.9 464.07 98.24 519.65" style="fill:#a2a2a2"/><rect x="82.67" y="448.64" width="18.24" height="7.71" style="fill:#bdbdbd"/><rect x="82.67" y="456.36" width="18.24" height="7.71" style="fill:#696969"/><polygon points="250.9 519.65 238 519.65 235.32 464.07 253.56 464.07 250.9 519.65" style="fill:#a2a2a2"/><rect x="235.32" y="448.64" width="18.24" height="7.71" style="fill:#bdbdbd"/><rect x="235.32" y="456.36" width="18.24" height="7.71" style="fill:#696969"/><rect x="71" y="439.51" width="194" height="12.99" style="fill:#9e6741"/><rect x="14.65" y="125.24" width="308.13" height="9.26" rx="2.8" ry="2.8" style="fill:#8e8e8e"/><path d="M322.73,129.32h-308v-2.06a2.37,2.37,0,0,1,2.59-2h303a2.28,2.28,0,0,1,2.51,2S322.67,129.28,322.73,129.32Z" style="fill:#a8a8a8"/><path d="M212.15,100.37l0,.17,0,.15a2.14,2.14,0,0,1-1.17,1l-.38.08,0-.09.24-.16v-.06c-2.55-6.55-71.5-5-82.21-1.06-1.67.69-1.61,1-1.84,1.39h0l-.39-.08a1.66,1.66,0,0,1-.84-.81v-.16c.24-1.22,3.23-1.89,4.37-2.17,21.58-4.7,66.51-2.21,76.11-.48C207.93,98.43,211.56,99.13,212.15,100.37Z" style="fill:#e26d6d"/><path d="M210.87,101.44v.06c-.1.36-1.77.89-2.14,1a38.89,38.89,0,0,1-5.63,1.11c-28.22,4.14-71.94,1.48-76.12-1.62l-.16-.18c.87-4.83,52.68-6.34,74.28-3.51C206.71,99,210.37,100,210.87,101.44Z" style="fill:#a81a16"/><g style="clip-path:url(#a)"><path d="M183.44,95.2v19.59l35.5-12.55S192,91.71,183.44,95.2Z" style="fill:#a81a16;opacity:0.30000000000000004;mix-blend-mode:multiply"/><path d="M147.56,109.56l-1-16.3S123.7,95,123.5,100.63,147.56,109.56,147.56,109.56Z" style="fill:#a81a16;opacity:0.30000000000000004;mix-blend-mode:multiply"/></g><path d="M258.24,0H234.07a42.15,42.15,0,0,0-42,42v.08h10.38a31.78,31.78,0,0,1,31.67-30.92h24.13a31.78,31.78,0,0,1,31.69,31.69V74.56c0,.1,0,.2,0,.3h10.37V42A42.15,42.15,0,0,0,258.24,0Z" style="fill:#d22c20"/><polygon points="192.47 42.43 191.71 48.03 194.25 50.43 200.81 49.6 202 44.51 201.39 40.74 201.55 39.96 192.99 39.96 192.47 42.43" style="fill:#d22c20"/><path d="M203.21,40h-3.08c0,.34-.06.67-.07,1h-5.72c0-.34,0-.68,0-1h-3.08c0,.34,0,.68,0,1H190v6.88a3.72,3.72,0,0,0,3.73,3.73h6.5A3.71,3.71,0,0,0,204,47.84V41h-.82C203.15,40.63,203.19,40.3,203.21,40Zm-2.32,4.56v3.33a.66.66,0,0,1-.66.66h-6.5a.69.69,0,0,1-.47-.19.66.66,0,0,1-.19-.46V44.05h7.82Z" style="fill:#d22c20"/><rect x="191.3" y="40.02" width="11.84" height="0.97" transform="translate(394.45 81.01) rotate(180)" style="fill:#a81a16"/><rect x="289.84" y="68.47" width="10.64" height="0.89" transform="translate(590.33 137.84) rotate(-180)" style="fill:#a81a16"/><rect x="275.15" y="92.76" width="40.83" height="400.07" transform="translate(591.13 585.59) rotate(-180)" style="fill:#d22c20"/><ellipse cx="295.56" cy="94.09" rx="20.46" ry="21.68" style="fill:#d22c20"/><polygon points="275.39 90.96 315.74 90.83 315.35 89.14 275.74 89.14 275.39 90.96" style="fill:#a81a16"/><rect x="277.75" y="90.95" width="34.39" height="395.99" transform="translate(589.88 577.9) rotate(-180)" style="fill:url(#b)"/><rect x="278.61" y="329.14" width="33.91" height="1.59" style="fill:url(#c)"/><rect x="283.26" y="336.38" width="24.62" height="1.59" style="fill:url(#d)"/><rect x="283.26" y="343.62" width="24.62" height="1.59" style="fill:url(#e)"/><rect x="283.26" y="350.87" width="24.62" height="1.59" style="fill:url(#f)"/><rect x="283.26" y="358.11" width="24.62" height="1.59" style="fill:url(#g)"/><rect x="278.61" y="365.35" width="33.91" height="1.59" style="fill:url(#h)"/><rect x="283.41" y="372.6" width="24.62" height="1.59" style="fill:url(#i)"/><rect x="283.41" y="379.84" width="24.62" height="1.59" style="fill:url(#j)"/><rect x="283.41" y="387.08" width="24.62" height="1.59" style="fill:url(#k)"/><rect x="283.41" y="394.33" width="24.62" height="1.59" style="fill:url(#l)"/><rect x="278.77" y="401.57" width="33.91" height="1.59" style="fill:url(#m)"/><rect x="283.26" y="408.81" width="24.62" height="1.59" style="fill:url(#n)"/><rect x="283.26" y="416.06" width="24.62" height="1.59" style="fill:url(#o)"/><rect x="283.26" y="423.3" width="24.62" height="1.59" style="fill:url(#p)"/><rect x="283.26" y="430.54" width="24.62" height="1.59" style="fill:url(#q)"/><rect x="278.61" y="437.79" width="33.91" height="1.59" style="fill:url(#r)"/><rect x="283.26" y="445.03" width="24.62" height="1.59" style="fill:url(#s)"/><rect x="283.26" y="452.28" width="24.62" height="1.59" style="fill:url(#t)"/><rect x="283.26" y="459.52" width="24.62" height="1.59" style="fill:url(#u)"/><rect x="283.26" y="466.76" width="24.62" height="1.59" style="fill:url(#v)"/><rect x="278.61" y="474.01" width="33.91" height="1.59" style="fill:url(#w)"/><rect x="278.61" y="220.71" width="33.91" height="1.59" style="fill:url(#x)"/><rect x="283.26" y="227.96" width="24.62" height="1.59" style="fill:url(#y)"/><rect x="283.26" y="235.2" width="24.62" height="1.59" style="fill:url(#z)"/><rect x="283.26" y="242.44" width="24.62" height="1.59" style="fill:url(#aa)"/><rect x="283.26" y="249.69" width="24.62" height="1.59" style="fill:url(#ab)"/><rect x="278.61" y="256.93" width="33.91" height="1.59" style="fill:url(#ac)"/><rect x="283.41" y="264.17" width="24.62" height="1.59" style="fill:url(#ad)"/><rect x="283.41" y="271.42" width="24.62" height="1.59" style="fill:url(#ae)"/><rect x="283.41" y="278.66" width="24.62" height="1.59" style="fill:url(#af)"/><rect x="283.41" y="285.9" width="24.62" height="1.59" style="fill:url(#ag)"/><rect x="278.77" y="293.15" width="33.91" height="1.59" style="fill:url(#ah)"/><rect x="283.26" y="300.39" width="24.62" height="1.59" style="fill:url(#ai)"/><rect x="283.26" y="307.64" width="24.62" height="1.59" style="fill:url(#aj)"/><rect x="283.26" y="314.88" width="24.62" height="1.59" style="fill:url(#ak)"/><rect x="283.26" y="322.12" width="24.62" height="1.59" style="fill:url(#al)"/><rect x="278.61" y="329.37" width="33.91" height="1.59" style="fill:url(#am)"/><rect x="283.26" y="336.61" width="24.62" height="1.59" style="fill:url(#an)"/><rect x="283.26" y="343.85" width="24.62" height="1.59" style="fill:url(#ao)"/><rect x="283.26" y="351.1" width="24.62" height="1.59" style="fill:url(#ap)"/><rect x="283.26" y="358.34" width="24.62" height="1.59" style="fill:url(#aq)"/><rect x="278.61" y="365.58" width="33.91" height="1.59" style="fill:url(#ar)"/><rect x="278.61" y="112.29" width="33.91" height="1.59" style="fill:url(#as)"/><rect x="283.26" y="119.53" width="24.62" height="1.59" style="fill:url(#at)"/><rect x="283.26" y="126.78" width="24.62" height="1.59" style="fill:url(#au)"/><rect x="283.26" y="134.02" width="24.62" height="1.59" style="fill:url(#av)"/><rect x="283.26" y="141.26" width="24.62" height="1.59" style="fill:url(#aw)"/><rect x="278.61" y="148.51" width="33.91" height="1.59" style="fill:url(#ax)"/><rect x="283.41" y="155.75" width="24.62" height="1.59" style="fill:url(#ay)"/><rect x="283.41" y="163" width="24.62" height="1.59" style="fill:url(#az)"/><rect x="283.41" y="170.24" width="24.62" height="1.59" style="fill:url(#ba)"/><rect x="283.41" y="177.48" width="24.62" height="1.59" style="fill:url(#bb)"/><rect x="278.77" y="184.73" width="33.91" height="1.59" style="fill:url(#bc)"/><rect x="283.26" y="191.97" width="24.62" height="1.59" style="fill:url(#bd)"/><rect x="283.26" y="199.21" width="24.62" height="1.59" style="fill:url(#be)"/><rect x="283.26" y="206.46" width="24.62" height="1.59" style="fill:url(#bf)"/><rect x="283.26" y="213.7" width="24.62" height="1.59" style="fill:url(#bg)"/><rect x="278.61" y="220.94" width="33.91" height="1.59" style="fill:url(#bh)"/><rect x="283.26" y="228.19" width="24.62" height="1.59" style="fill:url(#bi)"/><rect x="283.26" y="235.43" width="24.62" height="1.59" style="fill:url(#bj)"/><rect x="283.26" y="242.67" width="24.62" height="1.59" style="fill:url(#bk)"/><rect x="283.26" y="249.92" width="24.62" height="1.59" style="fill:url(#bl)"/><rect x="278.61" y="257.16" width="33.91" height="1.59" style="fill:url(#bm)"/><path d="M303.89,484.22V107.58c0-5.46-3.79-9.92-8.42-9.92h-.56c-4.63,0-8.41,4.46-8.41,9.92l0,376.64Z" style="fill:#9be0ff"/><g style="clip-path:url(#bn)"><rect x="286.45" y="185.99" width="17.57" height="370.41" style="fill:#fff"/><path d="M109.31,370.94H480.68a0,0,0,0,1,0,0v6.22a0,0,0,0,1,0,0H109.31a0,0,0,0,1,0,0v-6.24A0,0,0,0,1,109.31,370.94Z" transform="translate(-79.05 669.06) rotate(-90)" style="fill:#8e8e8e"/><path d="M294.63,188.38V559.64h-1.39c-.76,0-1.38-1.4-1.38-3.12V191.38c0-1.72,0-3,0-3Z" style="fill:#a8a8a8"/><rect x="286.51" y="185.5" width="17.39" height="2.07" style="fill:#a8a8a8"/><rect x="286.5" y="187.54" width="17.38" height="2.07" style="fill:#8e8e8e"/></g><rect x="271.93" y="487.48" width="47.36" height="11.37" transform="translate(591.22 986.33) rotate(-180)" style="fill:#d22c20"/><path d="M259.3,519.5c.71-15.38,16.73-27.67,36.4-27.67s35.69,12.29,36.41,27.67Z" style="fill:#d22c20"/><rect x="272.19" y="495.46" width="46.57" height="3.19" transform="translate(590.95 994.12) rotate(-180)" style="fill:#a81a16"/><rect x="275.18" y="484.33" width="40.79" height="3.5" style="fill:url(#bo)"/><path d="M77.85,0H102a42.15,42.15,0,0,1,42,42v.08H133.68A31.79,31.79,0,0,0,102,11.19H77.87A31.79,31.79,0,0,0,46.18,42.88V74.56c0,.1,0,.2,0,.3H35.83V42A42.15,42.15,0,0,1,77.85,0Z" style="fill:#d22c20"/><polygon points="143.62 42.43 144.38 48.03 141.85 50.43 135.28 49.6 134.1 44.51 134.7 40.74 134.54 39.96 143.11 39.96 143.62 42.43" style="fill:#d22c20"/><path d="M133,41h-.82v6.87A3.72,3.72,0,0,0,135,51.48a3.63,3.63,0,0,0,.87.1h6.5a3.74,3.74,0,0,0,3.74-3.73V41h-1.28c0-.34,0-.68-.05-1H141.7c0,.34,0,.68.05,1H136c0-.34,0-.67-.07-1h-3.09C132.91,40.3,133,40.63,133,41Zm2.25,3.08H143v3.81a.66.66,0,0,1-.19.46.67.67,0,0,1-.47.19h-6.5a.65.65,0,0,1-.65-.66v-3.8Z" style="fill:#d22c20"/><rect x="132.95" y="40.02" width="11.84" height="0.97" style="fill:#a81a16"/><rect x="35.61" y="68.47" width="10.64" height="0.89" style="fill:#a81a16"/><rect x="20.11" y="92.76" width="40.83" height="400.07" style="fill:#d22c20"/><ellipse cx="40.53" cy="94.09" rx="20.46" ry="21.68" style="fill:#d22c20"/><polygon points="60.71 90.96 20.35 90.83 20.75 89.14 60.35 89.14 60.71 90.96" style="fill:#a81a16"/><rect x="23.96" y="90.95" width="34.39" height="395.99" style="fill:url(#bp)"/><rect x="23.58" y="329.14" width="33.91" height="1.59" style="fill:url(#bq)"/><rect x="28.22" y="336.38" width="24.62" height="1.59" style="fill:url(#br)"/><rect x="28.22" y="343.62" width="24.62" height="1.59" style="fill:url(#bs)"/><rect x="28.22" y="350.87" width="24.62" height="1.59" style="fill:url(#bt)"/><rect x="28.22" y="358.11" width="24.62" height="1.59" style="fill:url(#bu)"/><rect x="23.58" y="365.35" width="33.91" height="1.59" style="fill:url(#bv)"/><rect x="28.07" y="372.6" width="24.62" height="1.59" style="fill:url(#bw)"/><rect x="28.07" y="379.84" width="24.62" height="1.59" style="fill:url(#bx)"/><rect x="28.07" y="387.08" width="24.62" height="1.59" style="fill:url(#by)"/><rect x="28.07" y="394.33" width="24.62" height="1.59" style="fill:url(#bz)"/><rect x="23.42" y="401.57" width="33.91" height="1.59" style="fill:url(#ca)"/><rect x="28.22" y="408.81" width="24.62" height="1.59" style="fill:url(#cb)"/><rect x="28.22" y="416.06" width="24.62" height="1.59" style="fill:url(#cc)"/><rect x="28.22" y="423.3" width="24.62" height="1.59" style="fill:url(#cd)"/><rect x="28.22" y="430.54" width="24.62" height="1.59" style="fill:url(#ce)"/><rect x="23.58" y="437.79" width="33.91" height="1.59" style="fill:url(#cf)"/><rect x="28.22" y="445.03" width="24.62" height="1.59" style="fill:url(#cg)"/><rect x="28.22" y="452.28" width="24.62" height="1.59" style="fill:url(#ch)"/><rect x="28.22" y="459.52" width="24.62" height="1.59" style="fill:url(#ci)"/><rect x="28.22" y="466.76" width="24.62" height="1.59" style="fill:url(#cj)"/><rect x="23.58" y="474.01" width="33.91" height="1.59" style="fill:url(#ck)"/><rect x="23.58" y="220.71" width="33.91" height="1.59" style="fill:url(#cl)"/><rect x="28.22" y="227.96" width="24.62" height="1.59" style="fill:url(#cm)"/><rect x="28.22" y="235.2" width="24.62" height="1.59" style="fill:url(#cn)"/><rect x="28.22" y="242.44" width="24.62" height="1.59" style="fill:url(#co)"/><rect x="28.22" y="249.69" width="24.62" height="1.59" style="fill:url(#cp)"/><rect x="23.58" y="256.93" width="33.91" height="1.59" style="fill:url(#cq)"/><rect x="28.07" y="264.17" width="24.62" height="1.59" style="fill:url(#cr)"/><rect x="28.07" y="271.42" width="24.62" height="1.59" style="fill:url(#cs)"/><rect x="28.07" y="278.66" width="24.62" height="1.59" style="fill:url(#ct)"/><rect x="28.07" y="285.9" width="24.62" height="1.59" style="fill:url(#cu)"/><rect x="23.42" y="293.15" width="33.91" height="1.59" style="fill:url(#cv)"/><rect x="28.22" y="300.39" width="24.62" height="1.59" style="fill:url(#cw)"/><rect x="28.22" y="307.64" width="24.62" height="1.59" style="fill:url(#cx)"/><rect x="28.22" y="314.88" width="24.62" height="1.59" style="fill:url(#cy)"/><rect x="28.22" y="322.12" width="24.62" height="1.59" style="fill:url(#cz)"/><rect x="23.58" y="329.37" width="33.91" height="1.59" style="fill:url(#da)"/><rect x="28.22" y="336.61" width="24.62" height="1.59" style="fill:url(#db)"/><rect x="28.22" y="343.85" width="24.62" height="1.59" style="fill:url(#dc)"/><rect x="28.22" y="351.1" width="24.62" height="1.59" style="fill:url(#dd)"/><rect x="28.22" y="358.34" width="24.62" height="1.59" style="fill:url(#de)"/><rect x="23.58" y="365.58" width="33.91" height="1.59" style="fill:url(#df)"/><rect x="23.58" y="112.29" width="33.91" height="1.59" style="fill:url(#dg)"/><rect x="28.22" y="119.53" width="24.62" height="1.59" style="fill:url(#dh)"/><rect x="28.22" y="126.78" width="24.62" height="1.59" style="fill:url(#di)"/><rect x="28.22" y="134.02" width="24.62" height="1.59" style="fill:url(#dj)"/><rect x="28.22" y="141.26" width="24.62" height="1.59" style="fill:url(#dk)"/><rect x="23.58" y="148.51" width="33.91" height="1.59" style="fill:url(#dl)"/><rect x="28.07" y="155.75" width="24.62" height="1.59" style="fill:url(#dm)"/><rect x="28.07" y="163" width="24.62" height="1.59" style="fill:url(#dn)"/><rect x="28.07" y="170.24" width="24.62" height="1.59" style="fill:url(#do)"/><rect x="28.07" y="177.48" width="24.62" height="1.59" style="fill:url(#dp)"/><rect x="23.42" y="184.73" width="33.91" height="1.59" style="fill:url(#dq)"/><rect x="28.22" y="191.97" width="24.62" height="1.59" style="fill:url(#dr)"/><rect x="28.22" y="199.21" width="24.62" height="1.59" style="fill:url(#ds)"/><rect x="28.22" y="206.46" width="24.62" height="1.59" style="fill:url(#dt)"/><rect x="28.22" y="213.7" width="24.62" height="1.59" style="fill:url(#du)"/><rect x="23.58" y="220.94" width="33.91" height="1.59" style="fill:url(#dv)"/><rect x="28.22" y="228.19" width="24.62" height="1.59" style="fill:url(#dw)"/><rect x="28.22" y="235.43" width="24.62" height="1.59" style="fill:url(#dx)"/><rect x="28.22" y="242.67" width="24.62" height="1.59" style="fill:url(#dy)"/><rect x="28.22" y="249.92" width="24.62" height="1.59" style="fill:url(#dz)"/><rect x="23.58" y="257.16" width="33.91" height="1.59" style="fill:url(#ea)"/><path d="M32.2,484.22V107.58c0-5.46,3.79-9.92,8.42-9.92h.56c4.63,0,8.42,4.46,8.42,9.92l0,376.64Z" style="fill:#9be0ff"/><g style="clip-path:url(#eb)"><rect x="32.08" y="184.99" width="17.57" height="370.41" transform="translate(81.72 740.39) rotate(-180)" style="fill:#fff"/><path d="M-144.6,369.94H226.78a0,0,0,0,1,0,0v6.22a0,0,0,0,1,0,0H-144.6a0,0,0,0,1,0,0v-6.24A0,0,0,0,1-144.6,369.94Z" transform="translate(-331.97 414.15) rotate(-90)" style="fill:#8e8e8e"/><path d="M41.46,187.38V558.64h1.39c.77,0,1.39-1.4,1.39-3.12V190.38c0-1.72,0-3,0-3Z" style="fill:#a8a8a8"/><rect x="32.2" y="184.5" width="17.39" height="2.07" transform="translate(81.79 371.07) rotate(-180)" style="fill:#a8a8a8"/><rect x="32.21" y="186.54" width="17.38" height="2.07" transform="translate(81.8 375.16) rotate(-180)" style="fill:#8e8e8e"/></g><rect x="16.8" y="487.48" width="47.36" height="11.37" style="fill:#d22c20"/><path d="M76.79,519.5c-.71-15.38-16.73-27.67-36.4-27.67S4.7,504.12,4,519.5Z" style="fill:#d22c20"/><rect x="17.33" y="495.46" width="46.57" height="3.19" style="fill:#a81a16"/><rect x="20.12" y="484.33" width="40.79" height="3.5" transform="translate(81.04 972.17) rotate(-180)" style="fill:url(#ec)"/><rect y="474.17" width="112.67" height="374" style="fill:none"/><path d="M190,340.83s-9.19,4.36-25.74,3.84-23.2-4.53-23.2-4.53c1.81-2.06,12.66-6.54,16.3-8l1.17-.46c.51-.17,1.84-12.71,1.84-12.71h12.17l1.32,12.86c.39.15.79.3,1.18.47A77.9,77.9,0,0,1,190,340.83Z" style="fill:#925930"/><path d="M173,323c-4,1.71-9.71,3.46-13.71,5.23.54-3.76,1.13-9.29,1.13-9.29h12.17Z" style="fill:#7c4825"/><path d="M145.91,287.24c-.83,5.58.89,21.39,6.24,27.33s10.91,8,14.62,8.13,12.22-4.79,16.41-11.8c5.07-8.47,4.62-24.55,3.58-30.79s-11.59-12-21.69-10.4S148,273.27,145.91,287.24Z" style="fill:#925930"/><path d="M185.3,298.49a3.44,3.44,0,0,1,1.81-1.35,2.56,2.56,0,0,1,2.2.32,3,3,0,0,1,1.08,2.6,8.48,8.48,0,0,1-.81,2.8,8.61,8.61,0,0,1-2.38,3.57,3.14,3.14,0,0,1-4,0Z" style="fill:#925930"/><path d="M147.22,298.49a3.44,3.44,0,0,0-1.81-1.35,2.56,2.56,0,0,0-2.2.32,3,3,0,0,0-1.08,2.6,8.25,8.25,0,0,0,.81,2.8,8.52,8.52,0,0,0,2.38,3.57,3.14,3.14,0,0,0,4,0Z" style="fill:#925930"/><path d="M169.47,304.1c-1-.53-3.4-.48-5.24-.18a1.75,1.75,0,0,0-.69.22c-.19.13-.13.37,0,.58a6.87,6.87,0,0,0,2.11,1.48,2.19,2.19,0,0,0,1,.29,2.33,2.33,0,0,0,1.36-.59C168.61,305.42,169.87,304.7,169.47,304.1Z" style="fill:#7c4825"/><path d="M148.12,269.36s13.57-9.44,28.91-8.87,14.47,8.55,14.38,9.74c-.38,5.4-3.82,23.25-5,30.69l-2.59-21.66s-22,2-32.73-2.64c0,0,1.6,5.85,1.16,5.85a21.2,21.2,0,0,1-3.26-2l-2.22,20.41s-5.06-22.92-4.28-27.22S146,268.16,148.12,269.36Z" style="fill:#3d2718"/><path d="M157.39,280.67a22.58,22.58,0,0,0-8,5,24.88,24.88,0,0,1,3.15,3.26,29.43,29.43,0,0,1,7.7-4.8l-1.54-3.77-.57,1Z" style="fill:#2e1c10"/><path d="M174.69,280.66a22.43,22.43,0,0,1,8,5,24.27,24.27,0,0,0-3.16,3.25,29.31,29.31,0,0,0-7.69-4.83l1.56-3.76.56,1Z" style="fill:#2e1c10"/><path d="M145.09,293l2.43,26s7.35,6.43,9.74,6.52,18.66.83,21.23,0,7.26-5.6,7.26-6.06,2.27-28,2.27-28l-3-1.77s.89,15.94-1.22,16.37-34.83,2-35.29-.4-.86-13.32-.86-13.32Z" style="fill:#3d2718"/><path d="M157.76,293.34c2.14.47,3.2,1.44,2.86,4.9a3.47,3.47,0,0,1-.57,1.84,6.07,6.07,0,0,1-1.62,1c-1.39.72-3.35,1.55-4.8.7a4.69,4.69,0,0,1-2.17-3.53,4.59,4.59,0,0,1,.22-2.82c.77-1.46,2.56-2,4.16-2.4Z" style="fill:#fff"/><path d="M155.06,299a2.12,2.12,0,0,1-.11-2.28,1.62,1.62,0,0,1,.64-.63,1.18,1.18,0,0,1,.9-.08,1.44,1.44,0,0,1,.81,1.13,2.12,2.12,0,0,1-.57,2.11,1.15,1.15,0,0,1-.92.28A1.22,1.22,0,0,1,155.06,299Z" style="fill:#2e1c10"/><path d="M151,297.32a5.11,5.11,0,0,1,3.34-3.57,5.74,5.74,0,0,1,4.14,0,4.46,4.46,0,0,1,2.23,2.55c.16.41.61.36.66.1a5,5,0,0,0-4-4.3,6.19,6.19,0,0,0-6.42,2.75,3.91,3.91,0,0,0-.64,1.92C150.37,297.45,150.93,297.7,151,297.32Z" style="fill:#7c4825"/><path d="M174.57,293.34c-2.14.47-3.19,1.44-2.86,4.9a3.48,3.48,0,0,0,.58,1.84,6,6,0,0,0,1.61,1c1.39.72,3.36,1.55,4.8.7a5.68,5.68,0,0,0,2-6.35c-.78-1.46-2.56-2-4.17-2.4Z" style="fill:#fff"/><path d="M177.27,299a2.1,2.1,0,0,0,.1-2.26,1.63,1.63,0,0,0-.63-.62,1.15,1.15,0,0,0-.89-.08,1.45,1.45,0,0,0-.8,1.12,2.09,2.09,0,0,0,.56,2.08,1.17,1.17,0,0,0,.91.29A1.26,1.26,0,0,0,177.27,299Z" style="fill:#2e1c10"/><path d="M181.31,297.32a5.09,5.09,0,0,0-3.34-3.57,5.71,5.71,0,0,0-4.13,0,4.44,4.44,0,0,0-2.24,2.55c-.16.41-.61.36-.66.1a5,5,0,0,1,4-4.3,6.19,6.19,0,0,1,6.42,2.75,3.81,3.81,0,0,1,.64,1.92C182,297.45,181.4,297.7,181.31,297.32Z" style="fill:#7c4825"/><path d="M160.57,312c-.09,0-.18,0-.22.06a16,16,0,0,0-.07,2.35.6.6,0,0,1,.29.07,10.38,10.38,0,0,0,6.73,1.71,11.56,11.56,0,0,0,5.8-2l.29-.17a5.69,5.69,0,0,0-.31-2.4Z" style="fill:#0f0202"/><path d="M160.57,314.44c1.1,1,3.09,1.82,6.73,1.71,3-.1,4.79-.94,5.79-2,.15-.68,0-1.15-.42-1.32.51-.25.57-.67.37-1.25l-12.55.4c0,.57-.08,1,.62,1.14C160.43,313.28,160.56,314.28,160.57,314.44Z" style="fill:#fff"/><path d="M160.28,314.38a4.37,4.37,0,0,0-.78,0,.7.7,0,0,0-.55.31,2.86,2.86,0,0,0-.07.28.3.3,0,0,1-.18.21.24.24,0,0,1-.24-.12.79.79,0,0,1-.08-.26l-.07-.4a.74.74,0,0,1,0-.33.22.22,0,0,1,.26-.14c.12.06.15.25.28.27s.15,0,.21-.09a3,3,0,0,0,.71-1,4.3,4.3,0,0,1,.28-.57l.15-.3a1.55,1.55,0,0,0,.14-.29C160.32,312.8,160.3,313.59,160.28,314.38Z" style="fill:#0c0704"/><path d="M173.4,314a4.07,4.07,0,0,1,.79,0,.69.69,0,0,1,.56.28,2.29,2.29,0,0,1,.09.28.26.26,0,0,0,.2.19.23.23,0,0,0,.22-.13.64.64,0,0,0,.07-.27l0-.4a.61.61,0,0,0,0-.33.2.2,0,0,0-.26-.12c-.12.06-.14.26-.27.29s-.15,0-.21-.09a2.76,2.76,0,0,1-.77-.93,5.89,5.89,0,0,0-.32-.54c0-.1-.11-.2-.17-.3s-.15-.19-.15-.27Z" style="fill:#0c0704"/><polygon points="141.98 495.71 141.92 503.55 150.62 503.55 150.9 495.19 141.98 495.71" style="fill:#473c35"/><path d="M151.35,503.55h0c0-2.13-.19-4-.51-2.72s-1.5,1.32-2.11,1.25a17.48,17.48,0,0,0-3.43-.32c-.49,0-2.21.77-2.82.58s-1.35-1.11-1.65-.91c-1.09.74-8.76,10.09-8.76,10.09l-.19.24h0l.53,3,.48,2.71a9.19,9.19,0,0,0,1,.19l4.66-.7,2.71-1.48L151.34,510h0v-6.4Z" style="fill:#6b391d"/><path d="M131.69,515.61v.33h0a.73.73,0,0,1,0-.31Z" style="fill:#e2e2de"/><path d="M141.47,501.56s.41-.62.83-.58l3.65.42a.6.6,0,0,1,.3,1l-7.88,8.34a13.54,13.54,0,0,1-4.26,0Z" style="fill:#7c4124"/><path d="M141.63,514.68a1.19,1.19,0,0,1-.36.75c-.75.84-2.51,1.62-3.14,2.26h-3.24l-1-.08a9.19,9.19,0,0,1-1-.19,3.81,3.81,0,0,1-1.3-.56c-.06-.09-.11-.18-.16-.27a4,4,0,0,1-.48-1.88v0a5.06,5.06,0,0,1,.16-1.31,4.53,4.53,0,0,1,.77-1.61h0l.19-.24a4.79,4.79,0,0,1,3-1.57,6.43,6.43,0,0,1,1-.08,6.31,6.31,0,0,1,2.55.51,4.75,4.75,0,0,1,3,3.8A4.19,4.19,0,0,1,141.63,514.68Z" style="fill:#512915"/><path d="M146.56,511.7a14.11,14.11,0,0,1-5,2.48,14.43,14.43,0,0,1-3.89.53h-2c-3.14,0-4.23-.74-4.6-1.34a5.06,5.06,0,0,0-.16,1.31v0h0v1.22h0a1.34,1.34,0,0,0,.35.68,1.85,1.85,0,0,0,.29.24,3.81,3.81,0,0,0,1.3.56,9.19,9.19,0,0,0,1,.19l1.16.08c1.09,0,2.19.06,2.19.06a15.76,15.76,0,0,0,9.68-3.3l3.5-2.71a2.34,2.34,0,0,0,.91-1.79.17.17,0,0,0,0-.07V508Z" style="fill:#7c4124"/><polygon points="190.77 496.69 190.51 504.53 181.82 504.17 181.88 495.81 190.77 496.69" style="fill:#473c35"/><path d="M181.05,504.34h0c0-2.13.18-4,.5-2.72s1.5,1.32,2.11,1.25a18.37,18.37,0,0,1,3.44-.31c.48,0,2.2.77,2.81.57s1.35-1.1,1.65-.9c1.09.74,8.76,10.09,8.76,10.09l.2.23h0L200,515.5l-.49,2.72a9.63,9.63,0,0,1-1,.18l-4.67-.7-2.71-1.48-10.07-5.48h0v-.06l0-6.34Z" style="fill:#6b391d"/><path d="M200.7,516.4v.33h0a.74.74,0,0,0,0-.31Z" style="fill:#e2e2de"/><path d="M190.92,502.35s-.41-.62-.82-.57l-3.66.42a.59.59,0,0,0-.3,1l7.88,8.35a13.54,13.54,0,0,0,4.26,0Z" style="fill:#7c4124"/><path d="M190.76,515.47a1.15,1.15,0,0,0,.36.75c.75.85,2.51,1.62,3.14,2.26h3.24a10.28,10.28,0,0,0,2-.26,3.72,3.72,0,0,0,1.3-.56,2.54,2.54,0,0,0,.16-.28,3.92,3.92,0,0,0,.48-1.88v0a5.17,5.17,0,0,0-.16-1.31,4.55,4.55,0,0,0-.76-1.6h0l-.2-.24a4.8,4.8,0,0,0-3-1.58,6.36,6.36,0,0,0-1-.07,6.48,6.48,0,0,0-2.55.5,4.77,4.77,0,0,0-3,3.81A3.91,3.91,0,0,0,190.76,515.47Z" style="fill:#512915"/><path d="M185.83,512.49a14.32,14.32,0,0,0,8.85,3h2c3.14,0,4.23-.74,4.6-1.34a5.17,5.17,0,0,1,.16,1.31v0h0v1.22h0a1.23,1.23,0,0,1-.35.68,1.87,1.87,0,0,1-.29.25,3.72,3.72,0,0,1-1.3.56,9.63,9.63,0,0,1-1,.18c-.35,0-.76.06-1.17.08-1.09.06-2.19.06-2.19.06a15.81,15.81,0,0,1-9.68-3.29l-3.5-2.72a2.34,2.34,0,0,1-.91-1.79v-2Z" style="fill:#7c4124"/><path d="M166.39,415.31l.31,20.23c0,.07-.14,5.76-.2,5.76-6.26.16-17.71,0-26.36-1.76a84.66,84.66,0,0,0,1.49,13.61c1.36,6.13,10.27,44.79,10.27,44.79h0c0,.42-.59.54-1.47.82a8.86,8.86,0,0,1-1.09.32,15,15,0,0,1-2.56.08c-.83,0-1.79,0-2.48,0a24.63,24.63,0,0,1-3.28-.32s-28.51-64.07-22.56-72.69c4-5.77,12.32-6.56,19.27-5.37.58.1-.48-5.49-.48-5.49h29.18Z" style="fill:#ab7348"/><path d="M166.57,432.39l-.13,9a147,147,0,0,1-26.36-1.89s-.1,7.75,1.39,13.11,10.43,45.35,10.43,45.35h0c0,.42-.62.54-1.49.82-3.42-13.64-17.65-56.32-17.25-61.07C133.7,432.15,166.57,432.39,166.57,432.39Z" style="fill:#9e6946"/><path d="M166.41,415.31v20.28s-.06,5.68,0,5.68c1.89-.15,6.26.39,25.73-1.79a16.61,16.61,0,0,1-.2,10.79c-2.12,5.83-11,47.67-11,47.67h.05c0,.42.54.79,1.42,1.07a8.06,8.06,0,0,0,1,.26,15.09,15.09,0,0,0,2.65.22,16.32,16.32,0,0,0,2.31-.16c1.66-.26,3.25-.46,3.25-.47l.43-1.27s28.28-62.8,22.33-71.42c-4-5.77-12.32-6.56-19.27-5.37-.58.1.48-5.49.48-5.49H166.41Z" style="fill:#ab7348"/><path d="M166.52,432.31l-.27,9.06c8.65-.1,4.22-.5,26.47-1.89,0,0,.1,7.75-1.39,13.11s-10.44,45.35-10.44,45.35h.05c0,.42.54.79,1.42,1.07,3.41-13.64,17.72-56.57,17.32-61.32C199.1,432.15,166.52,432.31,166.52,432.31Z" style="fill:#9e6946"/><path d="M178.66,330.08h0c0,.09,0,1.29,0,2a3.15,3.15,0,0,1,0,.47c0,.27,0,.54,0,.8a15.08,15.08,0,0,1-.23,1.82,14.71,14.71,0,0,1-.62,2.26c-.06.14-.11.28-.16.42l-.05.1-.12.3-.06.13c0,.09-.08.18-.13.27a1.12,1.12,0,0,1-.05.13l-.19.37c0,.1-.11.2-.16.31l-.15.27a2.53,2.53,0,0,0-.13.22l-.1.17a2.39,2.39,0,0,0-.13.21l0,0-.15.22c-.11.18-.23.36-.35.53l-.14.18-.12.17c-.09.13-.19.25-.29.37l-.12.16c-.35.42-.71.83-1.08,1.22l-.23.22,0,0-.17.17c-.29.28-.58.55-.87.8l-.25.22a24.61,24.61,0,0,1-2,1.5l-.24.16c-.63.43-1.24.79-1.78,1.1l-.3.16-.29.15-.18.1c-.5.25-.91.44-1.22.58l-.38.16,0,0-.14.05-.08,0-.05,0-.44-.18-.22-.1a.11.11,0,0,0-.07,0c-.46-.21-1.07-.52-1.78-.91l-.33-.19c-.37-.22-.77-.46-1.18-.73h0a26.93,26.93,0,0,1-2.36-1.75l-.21-.18c-.38-.34-.76-.69-1.13-1.06l-.32-.33-.15-.16a16.16,16.16,0,0,1-1.07-1.24l-.2-.27-.14-.18-.29-.41-.15-.23-.13-.2c-.06-.08-.11-.17-.17-.26s-.1-.16-.14-.24l-.1-.17c-.07-.13-.15-.26-.22-.4s-.09-.16-.12-.23h0c0-.06-.06-.13-.1-.2l-.09-.18-.12-.27a1.59,1.59,0,0,1-.12-.27l-.06-.12-.12-.29c0-.13-.09-.25-.14-.37a16.09,16.09,0,0,1-.63-2.27,15.08,15.08,0,0,1-.23-1.82h0c0-.27,0-.53,0-.8v-2.43h25.41Z" style="fill:#925930"/><path d="M177.77,337.4c-2.9,7.9-11.82,11.22-11.82,11.22s-8.91-3.31-11.81-11.21a50.38,50.38,0,0,0,23.63,0Z" style="fill:#925930"/><polygon points="196.28 418.92 139.86 417.72 152.18 329.91 167.74 333.22 184.1 329.91 196.28 418.92" style="fill:#ededed"/><path d="M166.58,332.62s-3.58,43.55-3.47,44.13,2.67,3.92,3.74,4.06c.66.1,4.53-3.08,4.94-4,.78-1.73-3.77-44.21-3.77-44.21Z" style="fill:#473c35"/><path d="M162.54,332.86s6.64-.62,9.25,0c0,0-2.95,6-4.62,6.6C167.17,339.46,162.63,335.7,162.54,332.86Z" style="fill:#473c35"/><path d="M158.78,327.46s.84,3.38,8.88,5.17a84.79,84.79,0,0,1-7.27,8s-4.75-7.72-4.72-11.4Z" style="fill:#dbdbdb"/><path d="M167.66,332.63a84.54,84.54,0,0,0,6.61,8.41s2.83-7.38,3.88-11.64c0,0-2.84-1.83-3.8-2.27A12.13,12.13,0,0,1,167.66,332.63Z" style="fill:#dbdbdb"/><path d="M149.42,331s9.15,17.48,18,25.44c0,0,15.83-11.66,19.17-21.75l2.5.57s1.82,77,1.94,85c0,0-20.35,4.48-41.58,0,0,0-3.2-84.19-3.4-87.84Z" style="fill:#b53116"/><path d="M155.24,329.89h-8a9,9,0,0,0-8.89,8.58l-3.09,84.25a.34.34,0,0,0,.34.36h2.29c6.36,0,20.65,0,20.65-20.26h0Z" style="fill:url(#ed)"/><path d="M179.19,329.89h8.19a9,9,0,0,1,8.89,8.58l3.09,84.25a.34.34,0,0,1-.34.36h-2.29c-6.36,0-20.65,0-20.65-20.26h0Z" style="fill:url(#ee)"/><path d="M140,358.88c-.1,1.7.12,11.57,1.72,14.33s9.43,1.85,10-2.38-.28-12.22-.28-12.22S143.67,358.63,140,358.88Z" style="fill:#442b28"/><polygon points="147.16 329.9 156.91 328.57 158.46 397.95 151.7 350.17 154.79 344.27 150.56 345.29 147.16 329.9" style="fill:#69423d"/><polygon points="187.43 329.9 177.32 328.85 176.13 397.95 182.88 350.17 179.79 344.27 184.03 345.29 187.43 329.9" style="fill:#69423d"/><polygon points="126.24 420.61 125.23 417 128.24 411.5 134.11 409.85 136.83 419.55 126.24 420.61" style="fill:#925930"/><path d="M130.7,420.12a4.42,4.42,0,1,1,3.06-5.45A4.42,4.42,0,0,1,130.7,420.12Z" style="fill:#925930"/><path d="M131.69,423.67a4.42,4.42,0,1,1,3.06-5.45A4.43,4.43,0,0,1,131.69,423.67Z" style="fill:#925930"/><path d="M133.49,419.34a4.42,4.42,0,1,1,3.06-5.45A4.43,4.43,0,0,1,133.49,419.34Z" style="fill:#925930"/><rect x="125.79" y="407.86" width="8.83" height="8.89" transform="matrix(0.96, -0.27, 0.27, 0.96, -106.85, 50.7)" style="fill:#925930"/><path d="M136.42,417.92c-1.85-2.17-2.89-4.35-2.31-4.85s2.59.86,4.45,3,2.89,4.36,2.31,4.86S138.28,420.09,136.42,417.92Z" style="fill:#925930"/><path d="M135.4,421.79c-1.14-4.08-1.5-7.57-.79-7.77s2.21,3,3.36,7.05,1.5,7.58.79,7.77S136.54,425.87,135.4,421.79Z" style="fill:#925930"/><path d="M133.13,423.57c-1.19-4.24-1.58-7.87-.88-8.06s2.26,3.1,3.45,7.34l.15.56c1.19,4.23,1.59,7.86.88,8.06s-2.25-3.11-3.44-7.34Z" style="fill:#925930"/><path d="M130.48,424c-1.14-4.08-1.5-7.58-.79-7.77s2.22,3,3.36,7,1.5,7.57.79,7.77S131.63,428.07,130.48,424Z" style="fill:#925930"/><path d="M127.31,422.54c-1-3.6-1.26-6.71-.56-6.91s2.11,2.59,3.12,6.19,1.26,6.71.55,6.91S128.32,426.14,127.31,422.54Z" style="fill:#925930"/><path d="M133.1,405.82c-.76.31.25,1.48.58,2.5s.66,2.27.66,2.27l-8.64,2.09-.93-3.31Z" style="fill:#ededed"/><path d="M133.72,408.33l-.2-.85a3.27,3.27,0,0,1,0-.45l0-.46c0-.3,0-.62,0-.94l0-.47V403.7c0-.33,0-.67,0-1s0-.66,0-1l.06-1c.16-2.69.47-5.42.85-8.16s.85-5.47,1.37-8.2,1.1-5.46,1.74-8.17,1.31-5.42,2-8.1,1.49-5.36,2.31-8,1.69-5.28,2.6-7.89,1.88-5.17,2.89-7.71l-15.56-5.07q-1.2,4.32-2.2,8.64c-.67,2.88-1.27,5.77-1.84,8.66s-1,5.79-1.51,8.69-.85,5.82-1.2,8.73-.65,5.84-.88,8.78-.41,5.89-.51,8.86-.09,6,.06,9l.06,1.15c0,.38.06.77.08,1.16s.06.77.11,1.17l.13,1.18,0,.3,0,.3.09.61c.06.4.12.8.2,1.23l.12.62.06.31,0,.16,0,.17.33,1.31Z" style="fill:#69423d"/><path d="M142.23,334.26a7.82,7.82,0,0,0-6.26.25,8.3,8.3,0,0,0-2.56,1.95,8.42,8.42,0,0,0-2,6.27,8,8,0,0,0,.91,3.06,7.9,7.9,0,0,0,4.88,3.92,8.47,8.47,0,0,0,6.21-.66,8.16,8.16,0,0,0,2.39-1.89,7.58,7.58,0,0,0,1.53-2.7,7.69,7.69,0,0,0,.36-3.07,8.2,8.2,0,0,0-.83-2.92A8.53,8.53,0,0,0,142.23,334.26Z" style="fill:#69423d"/><g style="clip-path:url(#ef)"><ellipse cx="124.23" cy="383.72" rx="7.81" ry="3.97" transform="translate(-265.1 489.06) rotate(-87.2)" style="fill:#ab7348"/></g><polygon points="207.74 419.15 208.75 415.55 205.75 410.04 199.88 408.39 197.16 418.09 207.74 419.15" style="fill:#925930"/><path d="M203.29,418.66a4.42,4.42,0,1,0-3.06-5.44A4.42,4.42,0,0,0,203.29,418.66Z" style="fill:#925930"/><path d="M202.3,422.21a4.42,4.42,0,1,0-3.07-5.45A4.41,4.41,0,0,0,202.3,422.21Z" style="fill:#925930"/><path d="M200.49,417.88a4.42,4.42,0,1,0-3.06-5.45A4.42,4.42,0,0,0,200.49,417.88Z" style="fill:#925930"/><rect x="199.33" y="406.43" width="8.89" height="8.83" transform="translate(-246.92 495.68) rotate(-74.28)" style="fill:#925930"/><path d="M197.56,416.47c1.86-2.17,2.9-4.36,2.31-4.86s-2.58.86-4.44,3-2.9,4.36-2.31,4.86S195.7,418.64,197.56,416.47Z" style="fill:#925930"/><path d="M198.58,420.33c1.15-4.07,1.51-7.57.8-7.77s-2.22,3-3.36,7.05-1.5,7.58-.8,7.78S197.44,424.41,198.58,420.33Z" style="fill:#925930"/><path d="M200.85,422.11c1.19-4.24,1.59-7.86.88-8.06s-2.25,3.1-3.44,7.34l-.16.56c-1.19,4.24-1.58,7.87-.88,8.06s2.26-3.1,3.45-7.34Z" style="fill:#925930"/><path d="M203.5,422.54c1.15-4.08,1.5-7.57.8-7.77s-2.22,3-3.36,7.05-1.51,7.58-.8,7.77S202.36,426.62,203.5,422.54Z" style="fill:#925930"/><path d="M206.68,421.08c1-3.6,1.26-6.71.55-6.91s-2.11,2.59-3.12,6.19-1.25,6.71-.55,6.91S205.67,424.68,206.68,421.08Z" style="fill:#925930"/><path d="M200.9,404.21c.77.31-.26,1.67-.59,2.69s-.65,2.08-.65,2.08l8.64,2.09.93-3.3Z" style="fill:#ededed"/><path d="M200.29,406.84l.18-.82c0-.13,0-.3,0-.45l0-.45c0-.3,0-.62.05-.94l0-.48v-1.46c0-.32,0-.66,0-1s0-.66,0-1l-.06-1c-.16-2.69-.47-5.42-.85-8.16s-.86-5.47-1.38-8.2-1.1-5.46-1.73-8.17-1.31-5.41-2-8.1-1.5-5.36-2.32-8-1.68-5.28-2.59-7.88-1.88-5.18-2.89-7.71l15.56-5.08c.8,2.88,1.52,5.76,2.2,8.64s1.27,5.77,1.83,8.67,1.06,5.79,1.51,8.69.85,5.81,1.21,8.73.64,5.84.88,8.77.41,5.89.5,8.86.1,6,0,9l-.06,1.15c0,.38-.06.78-.09,1.16s-.05.77-.1,1.17L210,404l0,.29-.05.3-.09.61c-.06.4-.11.8-.2,1.23l-.12.62-.06.32,0,.15,0,.17L209,409Z" style="fill:#69423d"/><path d="M191.76,332.8a7.86,7.86,0,0,1,6.26.25,8.3,8.3,0,0,1,2.55,1.95,8.42,8.42,0,0,1,2.05,6.28,8.29,8.29,0,0,1-.91,3.06,7.91,7.91,0,0,1-4.89,3.91,8.4,8.4,0,0,1-6.2-.66,8.17,8.17,0,0,1-2.4-1.89,7.86,7.86,0,0,1-1.88-5.76,8.07,8.07,0,0,1,.82-2.92A8.57,8.57,0,0,1,191.76,332.8Z" style="fill:#69423d"/><g style="clip-path:url(#eg)"><ellipse cx="210.06" cy="382.13" rx="3.97" ry="7.81" transform="translate(-17.98 10.45) rotate(-2.73)" style="fill:#ab7348"/></g><path d="M169.67,296l-.18,0-2-.62a5.08,5.08,0,0,0-2.89,0l-2,.62a.61.61,0,0,1-.77-.46.67.67,0,0,1,.43-.83l2-.61a6.1,6.1,0,0,1,3.59,0l2,.61a.69.69,0,0,1,.43.83A.64.64,0,0,1,169.67,296Z" style="fill:#372b36"/><path d="M148.43,298.25h-2.52a.67.67,0,0,1,0-1.34h2.35A5.33,5.33,0,0,0,148.43,298.25Z" style="fill:#372b36"/><path d="M184.18,296.64h2.38a.67.67,0,1,1,0,1.34h-2.43Z" style="fill:#372b36"/><circle cx="155.61" cy="296.67" r="6.85" style="fill:none;stroke:#372b36;stroke-miterlimit:10"/><circle cx="176.7" cy="296.67" r="6.85" style="fill:none;stroke:#372b36;stroke-miterlimit:10"/></g></svg>