<svg xmlns="http://www.w3.org/2000/svg" xmlns:xlink="http://www.w3.org/1999/xlink" viewBox="0 0 332.11 848.17"><defs><linearGradient id="a" x1="-182.75" y1="288.95" x2="-148.36" y2="288.95" gradientTransform="matrix(1, 0, 0, -1, 460.49, 577.9)" gradientUnits="userSpaceOnUse"><stop offset="0.01" stop-color="#d22c20"/><stop offset="0.31" stop-color="#e7342e"/><stop offset="0.51" stop-color="#ef3733"/><stop offset="0.72" stop-color="#e6332d"/><stop offset="1" stop-color="#d22c20"/></linearGradient><linearGradient id="b" x1="311.62" y1="329.93" x2="278.86" y2="329.93" gradientUnits="userSpaceOnUse"><stop offset="0.05" stop-color="#d3d2d2"/><stop offset="0.37" stop-color="#9a9a9c"/><stop offset="0.64" stop-color="#9a9a9c"/><stop offset="1" stop-color="#d1d6d5"/></linearGradient><linearGradient id="c" x1="307.23" y1="337.17" x2="283.44" y2="337.17" xlink:href="#b"/><linearGradient id="d" x1="307.23" y1="344.42" x2="283.44" y2="344.42" xlink:href="#b"/><linearGradient id="e" x1="307.23" y1="351.66" x2="283.44" y2="351.66" xlink:href="#b"/><linearGradient id="f" x1="307.23" y1="358.9" x2="283.44" y2="358.9" xlink:href="#b"/><linearGradient id="g" x1="311.62" y1="366.15" x2="278.86" y2="366.15" xlink:href="#b"/><linearGradient id="h" x1="307.38" y1="373.39" x2="283.59" y2="373.39" xlink:href="#b"/><linearGradient id="i" x1="307.38" y1="380.63" x2="283.59" y2="380.63" xlink:href="#b"/><linearGradient id="j" x1="307.38" y1="387.88" x2="283.59" y2="387.88" xlink:href="#b"/><linearGradient id="k" x1="307.38" y1="395.12" x2="283.59" y2="395.12" xlink:href="#b"/><linearGradient id="l" x1="311.78" y1="402.37" x2="279.01" y2="402.37" xlink:href="#b"/><linearGradient id="m" x1="307.23" y1="409.61" x2="283.44" y2="409.61" xlink:href="#b"/><linearGradient id="n" x1="307.23" y1="416.85" x2="283.44" y2="416.85" xlink:href="#b"/><linearGradient id="o" x1="307.23" y1="424.1" x2="283.44" y2="424.1" xlink:href="#b"/><linearGradient id="p" x1="307.23" y1="431.34" x2="283.44" y2="431.34" xlink:href="#b"/><linearGradient id="q" x1="311.62" y1="438.58" x2="278.86" y2="438.58" xlink:href="#b"/><linearGradient id="r" x1="307.23" y1="445.83" x2="283.44" y2="445.83" xlink:href="#b"/><linearGradient id="s" x1="307.23" y1="453.07" x2="283.44" y2="453.07" xlink:href="#b"/><linearGradient id="t" x1="307.23" y1="460.31" x2="283.44" y2="460.31" xlink:href="#b"/><linearGradient id="u" x1="307.23" y1="467.56" x2="283.44" y2="467.56" xlink:href="#b"/><linearGradient id="v" x1="311.62" y1="474.8" x2="278.86" y2="474.8" xlink:href="#b"/><linearGradient id="w" x1="311.62" y1="221.51" x2="278.86" y2="221.51" xlink:href="#b"/><linearGradient id="x" x1="307.23" y1="228.75" x2="283.44" y2="228.75" xlink:href="#b"/><linearGradient id="y" x1="307.23" y1="235.99" x2="283.44" y2="235.99" xlink:href="#b"/><linearGradient id="z" x1="307.23" y1="243.24" x2="283.44" y2="243.24" xlink:href="#b"/><linearGradient id="aa" x1="307.23" y1="250.48" x2="283.44" y2="250.48" xlink:href="#b"/><linearGradient id="ab" x1="311.62" y1="257.73" x2="278.86" y2="257.73" xlink:href="#b"/><linearGradient id="ac" x1="307.38" y1="264.97" x2="283.59" y2="264.97" xlink:href="#b"/><linearGradient id="ad" x1="307.38" y1="272.21" x2="283.59" y2="272.21" xlink:href="#b"/><linearGradient id="ae" x1="307.38" y1="279.46" x2="283.59" y2="279.46" xlink:href="#b"/><linearGradient id="af" x1="307.38" y1="286.7" x2="283.59" y2="286.7" xlink:href="#b"/><linearGradient id="ag" x1="311.78" y1="293.94" x2="279.01" y2="293.94" xlink:href="#b"/><linearGradient id="ah" x1="307.23" y1="301.19" x2="283.44" y2="301.19" xlink:href="#b"/><linearGradient id="ai" x1="307.23" y1="308.43" x2="283.44" y2="308.43" xlink:href="#b"/><linearGradient id="aj" x1="307.23" y1="315.67" x2="283.44" y2="315.67" xlink:href="#b"/><linearGradient id="ak" x1="307.23" y1="322.92" x2="283.44" y2="322.92" xlink:href="#b"/><linearGradient id="al" x1="311.62" y1="330.16" x2="278.86" y2="330.16" xlink:href="#b"/><linearGradient id="am" x1="307.23" y1="337.4" x2="283.44" y2="337.4" xlink:href="#b"/><linearGradient id="an" x1="307.23" y1="344.65" x2="283.44" y2="344.65" xlink:href="#b"/><linearGradient id="ao" x1="307.23" y1="351.89" x2="283.44" y2="351.89" xlink:href="#b"/><linearGradient id="ap" x1="307.23" y1="359.13" x2="283.44" y2="359.13" xlink:href="#b"/><linearGradient id="aq" x1="311.62" y1="366.38" x2="278.86" y2="366.38" xlink:href="#b"/><linearGradient id="ar" x1="311.62" y1="113.09" x2="278.86" y2="113.09" xlink:href="#b"/><linearGradient id="as" x1="307.23" y1="120.33" x2="283.44" y2="120.33" xlink:href="#b"/><linearGradient id="at" x1="307.23" y1="127.57" x2="283.44" y2="127.57" xlink:href="#b"/><linearGradient id="au" x1="307.23" y1="134.82" x2="283.44" y2="134.82" xlink:href="#b"/><linearGradient id="av" x1="307.23" y1="142.06" x2="283.44" y2="142.06" xlink:href="#b"/><linearGradient id="aw" x1="311.62" y1="149.3" x2="278.86" y2="149.3" xlink:href="#b"/><linearGradient id="ax" x1="307.38" y1="156.55" x2="283.59" y2="156.55" xlink:href="#b"/><linearGradient id="ay" x1="307.38" y1="163.79" x2="283.59" y2="163.79" xlink:href="#b"/><linearGradient id="az" x1="307.38" y1="171.03" x2="283.59" y2="171.03" xlink:href="#b"/><linearGradient id="ba" x1="307.38" y1="178.28" x2="283.59" y2="178.28" xlink:href="#b"/><linearGradient id="bb" x1="311.78" y1="185.52" x2="279.01" y2="185.52" xlink:href="#b"/><linearGradient id="bc" x1="307.23" y1="192.76" x2="283.44" y2="192.76" xlink:href="#b"/><linearGradient id="bd" x1="307.23" y1="200.01" x2="283.44" y2="200.01" xlink:href="#b"/><linearGradient id="be" x1="307.23" y1="207.25" x2="283.44" y2="207.25" xlink:href="#b"/><linearGradient id="bf" x1="307.23" y1="214.49" x2="283.44" y2="214.49" xlink:href="#b"/><linearGradient id="bg" x1="311.62" y1="221.74" x2="278.86" y2="221.74" xlink:href="#b"/><linearGradient id="bh" x1="307.23" y1="228.98" x2="283.44" y2="228.98" xlink:href="#b"/><linearGradient id="bi" x1="307.23" y1="236.23" x2="283.44" y2="236.23" xlink:href="#b"/><linearGradient id="bj" x1="307.23" y1="243.47" x2="283.44" y2="243.47" xlink:href="#b"/><linearGradient id="bk" x1="307.23" y1="250.71" x2="283.44" y2="250.71" xlink:href="#b"/><linearGradient id="bl" x1="311.62" y1="257.96" x2="278.86" y2="257.96" xlink:href="#b"/><clipPath id="bm"><rect x="286.53" y="112.37" width="17.37" height="371.86" style="fill:none"/></clipPath><linearGradient id="bn" x1="275.18" y1="486.08" x2="315.97" y2="486.08" gradientUnits="userSpaceOnUse"><stop offset="0.01" stop-color="#d22c20"/><stop offset="0.26" stop-color="#e2322b"/><stop offset="0.51" stop-color="#ef3733"/><stop offset="1" stop-color="#d22c20"/></linearGradient><linearGradient id="bo" x1="-368.75" y1="288.95" x2="-334.36" y2="288.95" gradientTransform="translate(392.71)" xlink:href="#a"/><linearGradient id="bp" x1="497.62" y1="329.93" x2="464.86" y2="329.93" gradientTransform="matrix(-1, 0, 0, 1, 522.09, 0)" xlink:href="#b"/><linearGradient id="bq" x1="493.23" y1="337.17" x2="469.44" y2="337.17" gradientTransform="matrix(-1, 0, 0, 1, 522.09, 0)" xlink:href="#b"/><linearGradient id="br" x1="493.23" y1="344.42" x2="469.44" y2="344.42" gradientTransform="matrix(-1, 0, 0, 1, 522.09, 0)" xlink:href="#b"/><linearGradient id="bs" x1="493.23" y1="351.66" x2="469.44" y2="351.66" gradientTransform="matrix(-1, 0, 0, 1, 522.09, 0)" xlink:href="#b"/><linearGradient id="bt" x1="493.23" y1="358.9" x2="469.44" y2="358.9" gradientTransform="matrix(-1, 0, 0, 1, 522.09, 0)" xlink:href="#b"/><linearGradient id="bu" x1="497.62" y1="366.15" x2="464.86" y2="366.15" gradientTransform="matrix(-1, 0, 0, 1, 522.09, 0)" xlink:href="#b"/><linearGradient id="bv" x1="493.38" y1="373.39" x2="469.59" y2="373.39" gradientTransform="matrix(-1, 0, 0, 1, 522.09, 0)" xlink:href="#b"/><linearGradient id="bw" x1="493.38" y1="380.63" x2="469.59" y2="380.63" gradientTransform="matrix(-1, 0, 0, 1, 522.09, 0)" xlink:href="#b"/><linearGradient id="bx" x1="493.38" y1="387.88" x2="469.59" y2="387.88" gradientTransform="matrix(-1, 0, 0, 1, 522.09, 0)" xlink:href="#b"/><linearGradient id="by" x1="493.38" y1="395.12" x2="469.59" y2="395.12" gradientTransform="matrix(-1, 0, 0, 1, 522.09, 0)" xlink:href="#b"/><linearGradient id="bz" x1="497.78" y1="402.37" x2="465.01" y2="402.37" gradientTransform="matrix(-1, 0, 0, 1, 522.09, 0)" xlink:href="#b"/><linearGradient id="ca" x1="493.23" y1="409.61" x2="469.44" y2="409.61" gradientTransform="matrix(-1, 0, 0, 1, 522.09, 0)" xlink:href="#b"/><linearGradient id="cb" x1="493.23" y1="416.85" x2="469.44" y2="416.85" gradientTransform="matrix(-1, 0, 0, 1, 522.09, 0)" xlink:href="#b"/><linearGradient id="cc" x1="493.23" y1="424.1" x2="469.44" y2="424.1" gradientTransform="matrix(-1, 0, 0, 1, 522.09, 0)" xlink:href="#b"/><linearGradient id="cd" x1="493.23" y1="431.34" x2="469.44" y2="431.34" gradientTransform="matrix(-1, 0, 0, 1, 522.09, 0)" xlink:href="#b"/><linearGradient id="ce" x1="497.62" y1="438.58" x2="464.86" y2="438.58" gradientTransform="matrix(-1, 0, 0, 1, 522.09, 0)" xlink:href="#b"/><linearGradient id="cf" x1="493.23" y1="445.83" x2="469.44" y2="445.83" gradientTransform="matrix(-1, 0, 0, 1, 522.09, 0)" xlink:href="#b"/><linearGradient id="cg" x1="493.23" y1="453.07" x2="469.44" y2="453.07" gradientTransform="matrix(-1, 0, 0, 1, 522.09, 0)" xlink:href="#b"/><linearGradient id="ch" x1="493.23" y1="460.31" x2="469.44" y2="460.31" gradientTransform="matrix(-1, 0, 0, 1, 522.09, 0)" xlink:href="#b"/><linearGradient id="ci" x1="493.23" y1="467.56" x2="469.44" y2="467.56" gradientTransform="matrix(-1, 0, 0, 1, 522.09, 0)" xlink:href="#b"/><linearGradient id="cj" x1="497.62" y1="474.8" x2="464.86" y2="474.8" gradientTransform="matrix(-1, 0, 0, 1, 522.09, 0)" xlink:href="#b"/><linearGradient id="ck" x1="497.62" y1="221.51" x2="464.86" y2="221.51" gradientTransform="matrix(-1, 0, 0, 1, 522.09, 0)" xlink:href="#b"/><linearGradient id="cl" x1="493.23" y1="228.75" x2="469.44" y2="228.75" gradientTransform="matrix(-1, 0, 0, 1, 522.09, 0)" xlink:href="#b"/><linearGradient id="cm" x1="493.23" y1="235.99" x2="469.44" y2="235.99" gradientTransform="matrix(-1, 0, 0, 1, 522.09, 0)" xlink:href="#b"/><linearGradient id="cn" x1="493.23" y1="243.24" x2="469.44" y2="243.24" gradientTransform="matrix(-1, 0, 0, 1, 522.09, 0)" xlink:href="#b"/><linearGradient id="co" x1="493.23" y1="250.48" x2="469.44" y2="250.48" gradientTransform="matrix(-1, 0, 0, 1, 522.09, 0)" xlink:href="#b"/><linearGradient id="cp" x1="497.62" y1="257.73" x2="464.86" y2="257.73" gradientTransform="matrix(-1, 0, 0, 1, 522.09, 0)" xlink:href="#b"/><linearGradient id="cq" x1="493.38" y1="264.97" x2="469.59" y2="264.97" gradientTransform="matrix(-1, 0, 0, 1, 522.09, 0)" xlink:href="#b"/><linearGradient id="cr" x1="493.38" y1="272.21" x2="469.59" y2="272.21" gradientTransform="matrix(-1, 0, 0, 1, 522.09, 0)" xlink:href="#b"/><linearGradient id="cs" x1="493.38" y1="279.46" x2="469.59" y2="279.46" gradientTransform="matrix(-1, 0, 0, 1, 522.09, 0)" xlink:href="#b"/><linearGradient id="ct" x1="493.38" y1="286.7" x2="469.59" y2="286.7" gradientTransform="matrix(-1, 0, 0, 1, 522.09, 0)" xlink:href="#b"/><linearGradient id="cu" x1="497.78" y1="293.94" x2="465.01" y2="293.94" gradientTransform="matrix(-1, 0, 0, 1, 522.09, 0)" xlink:href="#b"/><linearGradient id="cv" x1="493.23" y1="301.19" x2="469.44" y2="301.19" gradientTransform="matrix(-1, 0, 0, 1, 522.09, 0)" xlink:href="#b"/><linearGradient id="cw" x1="493.23" y1="308.43" x2="469.44" y2="308.43" gradientTransform="matrix(-1, 0, 0, 1, 522.09, 0)" xlink:href="#b"/><linearGradient id="cx" x1="493.23" y1="315.67" x2="469.44" y2="315.67" gradientTransform="matrix(-1, 0, 0, 1, 522.09, 0)" xlink:href="#b"/><linearGradient id="cy" x1="493.23" y1="322.92" x2="469.44" y2="322.92" gradientTransform="matrix(-1, 0, 0, 1, 522.09, 0)" xlink:href="#b"/><linearGradient id="cz" x1="497.62" y1="330.16" x2="464.86" y2="330.16" gradientTransform="matrix(-1, 0, 0, 1, 522.09, 0)" xlink:href="#b"/><linearGradient id="da" x1="493.23" y1="337.4" x2="469.44" y2="337.4" gradientTransform="matrix(-1, 0, 0, 1, 522.09, 0)" xlink:href="#b"/><linearGradient id="db" x1="493.23" y1="344.65" x2="469.44" y2="344.65" gradientTransform="matrix(-1, 0, 0, 1, 522.09, 0)" xlink:href="#b"/><linearGradient id="dc" x1="493.23" y1="351.89" x2="469.44" y2="351.89" gradientTransform="matrix(-1, 0, 0, 1, 522.09, 0)" xlink:href="#b"/><linearGradient id="dd" x1="493.23" y1="359.13" x2="469.44" y2="359.13" gradientTransform="matrix(-1, 0, 0, 1, 522.09, 0)" xlink:href="#b"/><linearGradient id="de" x1="497.62" y1="366.38" x2="464.86" y2="366.38" gradientTransform="matrix(-1, 0, 0, 1, 522.09, 0)" xlink:href="#b"/><linearGradient id="df" x1="497.62" y1="113.09" x2="464.86" y2="113.09" gradientTransform="matrix(-1, 0, 0, 1, 522.09, 0)" xlink:href="#b"/><linearGradient id="dg" x1="493.23" y1="120.33" x2="469.44" y2="120.33" gradientTransform="matrix(-1, 0, 0, 1, 522.09, 0)" xlink:href="#b"/><linearGradient id="dh" x1="493.23" y1="127.57" x2="469.44" y2="127.57" gradientTransform="matrix(-1, 0, 0, 1, 522.09, 0)" xlink:href="#b"/><linearGradient id="di" x1="493.23" y1="134.82" x2="469.44" y2="134.82" gradientTransform="matrix(-1, 0, 0, 1, 522.09, 0)" xlink:href="#b"/><linearGradient id="dj" x1="493.23" y1="142.06" x2="469.44" y2="142.06" gradientTransform="matrix(-1, 0, 0, 1, 522.09, 0)" xlink:href="#b"/><linearGradient id="dk" x1="497.62" y1="149.3" x2="464.86" y2="149.3" gradientTransform="matrix(-1, 0, 0, 1, 522.09, 0)" xlink:href="#b"/><linearGradient id="dl" x1="493.38" y1="156.55" x2="469.59" y2="156.55" gradientTransform="matrix(-1, 0, 0, 1, 522.09, 0)" xlink:href="#b"/><linearGradient id="dm" x1="493.38" y1="163.79" x2="469.59" y2="163.79" gradientTransform="matrix(-1, 0, 0, 1, 522.09, 0)" xlink:href="#b"/><linearGradient id="dn" x1="493.38" y1="171.03" x2="469.59" y2="171.03" gradientTransform="matrix(-1, 0, 0, 1, 522.09, 0)" xlink:href="#b"/><linearGradient id="do" x1="493.38" y1="178.28" x2="469.59" y2="178.28" gradientTransform="matrix(-1, 0, 0, 1, 522.09, 0)" xlink:href="#b"/><linearGradient id="dp" x1="497.78" y1="185.52" x2="465.01" y2="185.52" gradientTransform="matrix(-1, 0, 0, 1, 522.09, 0)" xlink:href="#b"/><linearGradient id="dq" x1="493.23" y1="192.76" x2="469.44" y2="192.76" gradientTransform="matrix(-1, 0, 0, 1, 522.09, 0)" xlink:href="#b"/><linearGradient id="dr" x1="493.23" y1="200.01" x2="469.44" y2="200.01" gradientTransform="matrix(-1, 0, 0, 1, 522.09, 0)" xlink:href="#b"/><linearGradient id="ds" x1="493.23" y1="207.25" x2="469.44" y2="207.25" gradientTransform="matrix(-1, 0, 0, 1, 522.09, 0)" xlink:href="#b"/><linearGradient id="dt" x1="493.23" y1="214.49" x2="469.44" y2="214.49" gradientTransform="matrix(-1, 0, 0, 1, 522.09, 0)" xlink:href="#b"/><linearGradient id="du" x1="497.62" y1="221.74" x2="464.86" y2="221.74" gradientTransform="matrix(-1, 0, 0, 1, 522.09, 0)" xlink:href="#b"/><linearGradient id="dv" x1="493.23" y1="228.98" x2="469.44" y2="228.98" gradientTransform="matrix(-1, 0, 0, 1, 522.09, 0)" xlink:href="#b"/><linearGradient id="dw" x1="493.23" y1="236.23" x2="469.44" y2="236.23" gradientTransform="matrix(-1, 0, 0, 1, 522.09, 0)" xlink:href="#b"/><linearGradient id="dx" x1="493.23" y1="243.47" x2="469.44" y2="243.47" gradientTransform="matrix(-1, 0, 0, 1, 522.09, 0)" xlink:href="#b"/><linearGradient id="dy" x1="493.23" y1="250.71" x2="469.44" y2="250.71" gradientTransform="matrix(-1, 0, 0, 1, 522.09, 0)" xlink:href="#b"/><linearGradient id="dz" x1="497.62" y1="257.96" x2="464.86" y2="257.96" gradientTransform="matrix(-1, 0, 0, 1, 522.09, 0)" xlink:href="#b"/><clipPath id="ea"><rect x="32.2" y="112.37" width="17.37" height="371.86" transform="translate(81.77 596.6) rotate(-180)" style="fill:none"/></clipPath><linearGradient id="eb" x1="461.18" y1="486.08" x2="501.97" y2="486.08" gradientTransform="matrix(1, 0, 0, -1, -441.06, 972.17)" xlink:href="#bn"/><clipPath id="ec"><path d="M126.37,157.36v-.07c.1-.35,1.77-.91,2.13-1a40.63,40.63,0,0,1,5.61-1.19c28.17-4.5,71.92-2.41,76.14.63l.16.18c-.8,4.85-52.59,7-74.22,4.48C130.55,159.74,126.89,158.79,126.37,157.36Z" style="fill:#a81a16"/></clipPath><clipPath id="ed"><path d="M120.54,156.14a20.53,20.53,0,0,1,.59-4.29l.12-.23.16-.21a16,16,0,0,1,5.37-2.14c18.81-4.73,61.93-5.2,81.16-1.69,5.69,1.12,6.2,1.88,7.21,2.35l.29.44a22,22,0,0,1,.76,4.29C212.39,147.65,124.36,148.77,120.54,156.14Z" style="fill:#d22c20"/></clipPath><clipPath id="ee"><path d="M123.52,149.69c.4-2.38,11.63-74,11.89-75,5.07-15.65,59.05-17,62.86-.54.21,1.05,14.67,74.11,14.67,74.11C199.05,142.46,137.5,143.32,123.52,149.69Z" style="fill:#d22c20"/></clipPath><clipPath id="ef"><path d="M149.07,330.89s9.1,17.37,17.86,25.28c0,0,15.73-11.59,19-21.61l2.48.56s1.81,76.49,1.93,84.49c0,0-20.23,4.45-41.32,0,0,0-3.18-83.67-3.38-87.29Z" style="fill:none"/></clipPath><linearGradient id="eg" x1="135.01" y1="376.13" x2="158.15" y2="376.13" gradientUnits="userSpaceOnUse"><stop offset="0" stop-color="#5b413f"/><stop offset="0.25" stop-color="#543734"/><stop offset="0.51" stop-color="#523430"/><stop offset="0.87" stop-color="#4d312d"/><stop offset="1" stop-color="#4a2f2b"/></linearGradient><linearGradient id="eh" x1="175.56" y1="376.13" x2="198.7" y2="376.13" xlink:href="#eg"/><clipPath id="ei"><polygon points="146.82 329.83 156.51 328.5 158.05 397.46 151.34 349.97 154.41 344.11 150.2 345.13 146.82 329.83" style="fill:none"/></clipPath><clipPath id="ej"><polygon points="186.84 329.83 176.79 328.78 175.62 397.46 182.33 349.97 179.25 344.11 183.46 345.13 186.84 329.83" style="fill:none"/></clipPath><clipPath id="ek"><path d="M86.55,305.68A37,37,0,0,0,87.1,315c.17.77.32,1.56.55,2.33l.16.58c0,.19.1.39.17.58l.38,1.14.21.57.23.57.22.56c.08.19.17.38.25.56l.51,1.11.57,1.08c.18.37.4.71.6,1.07s.41.7.64,1l.68,1,.72,1c.24.33.5.64.75,1s.51.63.78.93l.81.91.84.87a41.67,41.67,0,0,0,3.58,3.21c1.25,1,2.53,1.91,3.85,2.75s2.67,1.64,4,2.35,2.76,1.39,4.16,2a76,76,0,0,0,8.53,3.12c1.44.44,2.88.83,4.33,1.2s2.9.69,4.36,1c2.92.6,5.84,1.07,8.79,1.44l1-16.38c-2.54,0-5.09-.16-7.62-.38-1.27-.12-2.52-.26-3.78-.43s-2.49-.36-3.72-.59a53.25,53.25,0,0,1-13.87-4.36,26.48,26.48,0,0,1-10.28-8.37l-.46-.67-.42-.69-.21-.35-.19-.36-.19-.36c-.07-.12-.13-.24-.19-.36l-.34-.74a3.17,3.17,0,0,1-.17-.38l-.15-.38c-.22-.51-.38-1-.57-1.57a27.72,27.72,0,0,1-1.18-6.81Z" style="fill:none"/></clipPath><clipPath id="el"><path d="M237.7,288.47a124.2,124.2,0,0,1-9.91,13c-1.82,2.05-3.65,4.08-5.57,6-.95,1-1.93,2-2.9,2.91-.48.48-1,.95-1.48,1.42s-1,.95-1.49,1.41l-1.52,1.39c-.5.47-1,.92-1.53,1.38-1,.91-2.06,1.8-3.09,2.7-2.1,1.76-4.21,3.5-6.37,5.19-4.31,3.37-8.75,6.58-13.29,9.58l6.95,14.71c4-1.51,11.86-9.36,16.05-13.46,2.09-2,4.13-4.14,6.15-6.27,1-1.07,2-2.14,3-3.23.49-.55,1-1.09,1.46-1.64l1.45-1.66c.48-.55.95-1.12,1.42-1.68s.95-1.12,1.41-1.69c.92-1.15,1.85-2.28,2.75-3.45,1.81-2.3,3.54-4.7,5.23-7.1a133.18,133.18,0,0,0,9.1-15.21Z" style="fill:none"/></clipPath></defs><title>man-10</title><g style="isolation:isolate"><polygon points="98.24 519.65 85.33 519.65 82.67 464.07 100.9 464.07 98.24 519.65" style="fill:#a2a2a2"/><rect x="82.67" y="448.64" width="18.24" height="7.71" style="fill:#bdbdbd"/><rect x="82.67" y="456.36" width="18.24" height="7.71" style="fill:#696969"/><polygon points="250.9 519.65 238 519.65 235.32 464.07 253.56 464.07 250.9 519.65" style="fill:#a2a2a2"/><rect x="235.32" y="448.64" width="18.24" height="7.71" style="fill:#bdbdbd"/><rect x="235.32" y="456.36" width="18.24" height="7.71" style="fill:#696969"/><rect x="71" y="439.51" width="194" height="12.99" style="fill:#9e6741"/><rect x="14.65" y="125.24" width="308.13" height="9.26" rx="2.8" ry="2.8" style="fill:#8e8e8e"/><path d="M322.73,129.32h-308v-2.06a2.37,2.37,0,0,1,2.59-2h303a2.28,2.28,0,0,1,2.51,2S322.67,129.28,322.73,129.32Z" style="fill:#a8a8a8"/><path d="M258.24,0H234.07a42.15,42.15,0,0,0-42,42v.08h10.38a31.78,31.78,0,0,1,31.67-30.92h24.13a31.78,31.78,0,0,1,31.69,31.69V74.56c0,.1,0,.2,0,.3h10.37V42A42.15,42.15,0,0,0,258.24,0Z" style="fill:#d22c20"/><polygon points="192.47 42.43 191.71 48.03 194.25 50.43 200.81 49.6 202 44.51 201.39 40.74 201.55 39.96 192.99 39.96 192.47 42.43" style="fill:#d22c20"/><path d="M203.21,40h-3.08c0,.34-.06.67-.07,1h-5.72c0-.34,0-.68,0-1h-3.08c0,.34,0,.68,0,1H190v6.88a3.72,3.72,0,0,0,3.73,3.73h6.5A3.71,3.71,0,0,0,204,47.84V41h-.82C203.15,40.63,203.19,40.3,203.21,40Zm-2.32,4.56v3.33a.66.66,0,0,1-.66.66h-6.5a.69.69,0,0,1-.47-.19.66.66,0,0,1-.19-.46V44.05h7.82Z" style="fill:#d22c20"/><rect x="191.3" y="40.02" width="11.84" height="0.97" transform="translate(394.45 81.01) rotate(180)" style="fill:#a81a16"/><rect x="289.84" y="68.47" width="10.64" height="0.89" transform="translate(590.33 137.84) rotate(-180)" style="fill:#a81a16"/><rect x="275.15" y="92.76" width="40.83" height="400.07" transform="translate(591.13 585.59) rotate(-180)" style="fill:#d22c20"/><ellipse cx="295.56" cy="94.09" rx="20.46" ry="21.68" style="fill:#d22c20"/><polygon points="275.39 90.96 315.74 90.83 315.35 89.14 275.74 89.14 275.39 90.96" style="fill:#a81a16"/><rect x="277.75" y="90.95" width="34.39" height="395.99" transform="translate(589.88 577.9) rotate(-180)" style="fill:url(#a)"/><rect x="278.61" y="329.14" width="33.91" height="1.59" style="fill:url(#b)"/><rect x="283.26" y="336.38" width="24.62" height="1.59" style="fill:url(#c)"/><rect x="283.26" y="343.62" width="24.62" height="1.59" style="fill:url(#d)"/><rect x="283.26" y="350.87" width="24.62" height="1.59" style="fill:url(#e)"/><rect x="283.26" y="358.11" width="24.62" height="1.59" style="fill:url(#f)"/><rect x="278.61" y="365.35" width="33.91" height="1.59" style="fill:url(#g)"/><rect x="283.41" y="372.6" width="24.62" height="1.59" style="fill:url(#h)"/><rect x="283.41" y="379.84" width="24.62" height="1.59" style="fill:url(#i)"/><rect x="283.41" y="387.08" width="24.62" height="1.59" style="fill:url(#j)"/><rect x="283.41" y="394.33" width="24.62" height="1.59" style="fill:url(#k)"/><rect x="278.77" y="401.57" width="33.91" height="1.59" style="fill:url(#l)"/><rect x="283.26" y="408.81" width="24.62" height="1.59" style="fill:url(#m)"/><rect x="283.26" y="416.06" width="24.62" height="1.59" style="fill:url(#n)"/><rect x="283.26" y="423.3" width="24.62" height="1.59" style="fill:url(#o)"/><rect x="283.26" y="430.54" width="24.62" height="1.59" style="fill:url(#p)"/><rect x="278.61" y="437.79" width="33.91" height="1.59" style="fill:url(#q)"/><rect x="283.26" y="445.03" width="24.62" height="1.59" style="fill:url(#r)"/><rect x="283.26" y="452.28" width="24.62" height="1.59" style="fill:url(#s)"/><rect x="283.26" y="459.52" width="24.62" height="1.59" style="fill:url(#t)"/><rect x="283.26" y="466.76" width="24.62" height="1.59" style="fill:url(#u)"/><rect x="278.61" y="474.01" width="33.91" height="1.59" style="fill:url(#v)"/><rect x="278.61" y="220.71" width="33.91" height="1.59" style="fill:url(#w)"/><rect x="283.26" y="227.96" width="24.62" height="1.59" style="fill:url(#x)"/><rect x="283.26" y="235.2" width="24.62" height="1.59" style="fill:url(#y)"/><rect x="283.26" y="242.44" width="24.62" height="1.59" style="fill:url(#z)"/><rect x="283.26" y="249.69" width="24.62" height="1.59" style="fill:url(#aa)"/><rect x="278.61" y="256.93" width="33.91" height="1.59" style="fill:url(#ab)"/><rect x="283.41" y="264.17" width="24.62" height="1.59" style="fill:url(#ac)"/><rect x="283.41" y="271.42" width="24.62" height="1.59" style="fill:url(#ad)"/><rect x="283.41" y="278.66" width="24.62" height="1.59" style="fill:url(#ae)"/><rect x="283.41" y="285.9" width="24.62" height="1.59" style="fill:url(#af)"/><rect x="278.77" y="293.15" width="33.91" height="1.59" style="fill:url(#ag)"/><rect x="283.26" y="300.39" width="24.62" height="1.59" style="fill:url(#ah)"/><rect x="283.26" y="307.64" width="24.62" height="1.59" style="fill:url(#ai)"/><rect x="283.26" y="314.88" width="24.62" height="1.59" style="fill:url(#aj)"/><rect x="283.26" y="322.12" width="24.62" height="1.59" style="fill:url(#ak)"/><rect x="278.61" y="329.37" width="33.91" height="1.59" style="fill:url(#al)"/><rect x="283.26" y="336.61" width="24.62" height="1.59" style="fill:url(#am)"/><rect x="283.26" y="343.85" width="24.62" height="1.59" style="fill:url(#an)"/><rect x="283.26" y="351.1" width="24.62" height="1.59" style="fill:url(#ao)"/><rect x="283.26" y="358.34" width="24.62" height="1.59" style="fill:url(#ap)"/><rect x="278.61" y="365.58" width="33.91" height="1.59" style="fill:url(#aq)"/><rect x="278.61" y="112.29" width="33.91" height="1.59" style="fill:url(#ar)"/><rect x="283.26" y="119.53" width="24.62" height="1.59" style="fill:url(#as)"/><rect x="283.26" y="126.78" width="24.62" height="1.59" style="fill:url(#at)"/><rect x="283.26" y="134.02" width="24.62" height="1.59" style="fill:url(#au)"/><rect x="283.26" y="141.26" width="24.62" height="1.59" style="fill:url(#av)"/><rect x="278.61" y="148.51" width="33.91" height="1.59" style="fill:url(#aw)"/><rect x="283.41" y="155.75" width="24.62" height="1.59" style="fill:url(#ax)"/><rect x="283.41" y="163" width="24.62" height="1.59" style="fill:url(#ay)"/><rect x="283.41" y="170.24" width="24.62" height="1.59" style="fill:url(#az)"/><rect x="283.41" y="177.48" width="24.62" height="1.59" style="fill:url(#ba)"/><rect x="278.77" y="184.73" width="33.91" height="1.59" style="fill:url(#bb)"/><rect x="283.26" y="191.97" width="24.62" height="1.59" style="fill:url(#bc)"/><rect x="283.26" y="199.21" width="24.62" height="1.59" style="fill:url(#bd)"/><rect x="283.26" y="206.46" width="24.62" height="1.59" style="fill:url(#be)"/><rect x="283.26" y="213.7" width="24.62" height="1.59" style="fill:url(#bf)"/><rect x="278.61" y="220.94" width="33.91" height="1.59" style="fill:url(#bg)"/><rect x="283.26" y="228.19" width="24.62" height="1.59" style="fill:url(#bh)"/><rect x="283.26" y="235.43" width="24.62" height="1.59" style="fill:url(#bi)"/><rect x="283.26" y="242.67" width="24.62" height="1.59" style="fill:url(#bj)"/><rect x="283.26" y="249.92" width="24.62" height="1.59" style="fill:url(#bk)"/><rect x="278.61" y="257.16" width="33.91" height="1.59" style="fill:url(#bl)"/><path d="M303.89,484.22V107.58c0-5.46-3.79-9.92-8.42-9.92h-.56c-4.63,0-8.41,4.46-8.41,9.92l0,376.64Z" style="fill:#9be0ff"/><g style="clip-path:url(#bm)"><rect x="286.45" y="113.99" width="17.57" height="370.41" style="fill:#fff"/><path d="M109.31,298.94H480.68a0,0,0,0,1,0,0v6.22a0,0,0,0,1,0,0H109.31a0,0,0,0,1,0,0v-6.24A0,0,0,0,1,109.31,298.94Z" transform="translate(-7.05 597.06) rotate(-90)" style="fill:#8e8e8e"/><path d="M294.63,116.38V487.64h-1.39c-.76,0-1.38-1.4-1.38-3.12V119.38c0-1.72,0-3,0-3Z" style="fill:#a8a8a8"/><rect x="286.51" y="113.5" width="17.39" height="2.07" style="fill:#a8a8a8"/><rect x="286.5" y="115.54" width="17.38" height="2.07" style="fill:#8e8e8e"/></g><rect x="271.93" y="487.48" width="47.36" height="11.37" transform="translate(591.22 986.33) rotate(-180)" style="fill:#d22c20"/><path d="M259.3,519.5c.71-15.38,16.73-27.67,36.4-27.67s35.69,12.29,36.41,27.67Z" style="fill:#d22c20"/><rect x="272.19" y="495.46" width="46.57" height="3.19" transform="translate(590.95 994.12) rotate(-180)" style="fill:#a81a16"/><rect x="275.18" y="484.33" width="40.79" height="3.5" style="fill:url(#bn)"/><path d="M77.85,0H102a42.15,42.15,0,0,1,42,42v.08H133.68A31.79,31.79,0,0,0,102,11.19H77.87A31.79,31.79,0,0,0,46.18,42.88V74.56c0,.1,0,.2,0,.3H35.83V42A42.15,42.15,0,0,1,77.85,0Z" style="fill:#d22c20"/><polygon points="143.62 42.43 144.38 48.03 141.85 50.43 135.28 49.6 134.1 44.51 134.7 40.74 134.54 39.96 143.11 39.96 143.62 42.43" style="fill:#d22c20"/><path d="M133,41h-.82v6.87A3.72,3.72,0,0,0,135,51.48a3.63,3.63,0,0,0,.87.1h6.5a3.74,3.74,0,0,0,3.74-3.73V41h-1.28c0-.34,0-.68-.05-1H141.7c0,.34,0,.68.05,1H136c0-.34,0-.67-.07-1h-3.09C132.91,40.3,133,40.63,133,41Zm2.25,3.08H143v3.81a.66.66,0,0,1-.19.46.67.67,0,0,1-.47.19h-6.5a.65.65,0,0,1-.65-.66v-3.8Z" style="fill:#d22c20"/><rect x="132.95" y="40.02" width="11.84" height="0.97" style="fill:#a81a16"/><rect x="35.61" y="68.47" width="10.64" height="0.89" style="fill:#a81a16"/><rect x="20.11" y="92.76" width="40.83" height="400.07" style="fill:#d22c20"/><ellipse cx="40.53" cy="94.09" rx="20.46" ry="21.68" style="fill:#d22c20"/><polygon points="60.71 90.96 20.35 90.83 20.75 89.14 60.35 89.14 60.71 90.96" style="fill:#a81a16"/><rect x="23.96" y="90.95" width="34.39" height="395.99" style="fill:url(#bo)"/><rect x="23.58" y="329.14" width="33.91" height="1.59" style="fill:url(#bp)"/><rect x="28.22" y="336.38" width="24.62" height="1.59" style="fill:url(#bq)"/><rect x="28.22" y="343.62" width="24.62" height="1.59" style="fill:url(#br)"/><rect x="28.22" y="350.87" width="24.62" height="1.59" style="fill:url(#bs)"/><rect x="28.22" y="358.11" width="24.62" height="1.59" style="fill:url(#bt)"/><rect x="23.58" y="365.35" width="33.91" height="1.59" style="fill:url(#bu)"/><rect x="28.07" y="372.6" width="24.62" height="1.59" style="fill:url(#bv)"/><rect x="28.07" y="379.84" width="24.62" height="1.59" style="fill:url(#bw)"/><rect x="28.07" y="387.08" width="24.62" height="1.59" style="fill:url(#bx)"/><rect x="28.07" y="394.33" width="24.62" height="1.59" style="fill:url(#by)"/><rect x="23.42" y="401.57" width="33.91" height="1.59" style="fill:url(#bz)"/><rect x="28.22" y="408.81" width="24.62" height="1.59" style="fill:url(#ca)"/><rect x="28.22" y="416.06" width="24.62" height="1.59" style="fill:url(#cb)"/><rect x="28.22" y="423.3" width="24.62" height="1.59" style="fill:url(#cc)"/><rect x="28.22" y="430.54" width="24.62" height="1.59" style="fill:url(#cd)"/><rect x="23.58" y="437.79" width="33.91" height="1.59" style="fill:url(#ce)"/><rect x="28.22" y="445.03" width="24.62" height="1.59" style="fill:url(#cf)"/><rect x="28.22" y="452.28" width="24.62" height="1.59" style="fill:url(#cg)"/><rect x="28.22" y="459.52" width="24.62" height="1.59" style="fill:url(#ch)"/><rect x="28.22" y="466.76" width="24.62" height="1.59" style="fill:url(#ci)"/><rect x="23.58" y="474.01" width="33.91" height="1.59" style="fill:url(#cj)"/><rect x="23.58" y="220.71" width="33.91" height="1.59" style="fill:url(#ck)"/><rect x="28.22" y="227.96" width="24.62" height="1.59" style="fill:url(#cl)"/><rect x="28.22" y="235.2" width="24.62" height="1.59" style="fill:url(#cm)"/><rect x="28.22" y="242.44" width="24.62" height="1.59" style="fill:url(#cn)"/><rect x="28.22" y="249.69" width="24.62" height="1.59" style="fill:url(#co)"/><rect x="23.58" y="256.93" width="33.91" height="1.59" style="fill:url(#cp)"/><rect x="28.07" y="264.17" width="24.62" height="1.59" style="fill:url(#cq)"/><rect x="28.07" y="271.42" width="24.62" height="1.59" style="fill:url(#cr)"/><rect x="28.07" y="278.66" width="24.62" height="1.59" style="fill:url(#cs)"/><rect x="28.07" y="285.9" width="24.62" height="1.59" style="fill:url(#ct)"/><rect x="23.42" y="293.15" width="33.91" height="1.59" style="fill:url(#cu)"/><rect x="28.22" y="300.39" width="24.62" height="1.59" style="fill:url(#cv)"/><rect x="28.22" y="307.64" width="24.62" height="1.59" style="fill:url(#cw)"/><rect x="28.22" y="314.88" width="24.62" height="1.59" style="fill:url(#cx)"/><rect x="28.22" y="322.12" width="24.62" height="1.59" style="fill:url(#cy)"/><rect x="23.58" y="329.37" width="33.91" height="1.59" style="fill:url(#cz)"/><rect x="28.22" y="336.61" width="24.62" height="1.59" style="fill:url(#da)"/><rect x="28.22" y="343.85" width="24.62" height="1.59" style="fill:url(#db)"/><rect x="28.22" y="351.1" width="24.62" height="1.59" style="fill:url(#dc)"/><rect x="28.22" y="358.34" width="24.62" height="1.59" style="fill:url(#dd)"/><rect x="23.58" y="365.58" width="33.91" height="1.59" style="fill:url(#de)"/><rect x="23.58" y="112.29" width="33.91" height="1.59" style="fill:url(#df)"/><rect x="28.22" y="119.53" width="24.62" height="1.59" style="fill:url(#dg)"/><rect x="28.22" y="126.78" width="24.62" height="1.59" style="fill:url(#dh)"/><rect x="28.22" y="134.02" width="24.62" height="1.59" style="fill:url(#di)"/><rect x="28.22" y="141.26" width="24.62" height="1.59" style="fill:url(#dj)"/><rect x="23.58" y="148.51" width="33.91" height="1.59" style="fill:url(#dk)"/><rect x="28.07" y="155.75" width="24.62" height="1.59" style="fill:url(#dl)"/><rect x="28.07" y="163" width="24.62" height="1.59" style="fill:url(#dm)"/><rect x="28.07" y="170.24" width="24.62" height="1.59" style="fill:url(#dn)"/><rect x="28.07" y="177.48" width="24.62" height="1.59" style="fill:url(#do)"/><rect x="23.42" y="184.73" width="33.91" height="1.59" style="fill:url(#dp)"/><rect x="28.22" y="191.97" width="24.62" height="1.59" style="fill:url(#dq)"/><rect x="28.22" y="199.21" width="24.62" height="1.59" style="fill:url(#dr)"/><rect x="28.22" y="206.46" width="24.62" height="1.59" style="fill:url(#ds)"/><rect x="28.22" y="213.7" width="24.62" height="1.59" style="fill:url(#dt)"/><rect x="23.58" y="220.94" width="33.91" height="1.59" style="fill:url(#du)"/><rect x="28.22" y="228.19" width="24.62" height="1.59" style="fill:url(#dv)"/><rect x="28.22" y="235.43" width="24.62" height="1.59" style="fill:url(#dw)"/><rect x="28.22" y="242.67" width="24.62" height="1.59" style="fill:url(#dx)"/><rect x="28.22" y="249.92" width="24.62" height="1.59" style="fill:url(#dy)"/><rect x="23.58" y="257.16" width="33.91" height="1.59" style="fill:url(#dz)"/><path d="M32.2,484.22V107.58c0-5.46,3.79-9.92,8.42-9.92h.56c4.63,0,8.42,4.46,8.42,9.92l0,376.64Z" style="fill:#9be0ff"/><g style="clip-path:url(#ea)"><rect x="32.08" y="112.99" width="17.57" height="370.41" transform="translate(81.72 596.39) rotate(-180)" style="fill:#fff"/><path d="M-144.6,297.94H226.78a0,0,0,0,1,0,0v6.22a0,0,0,0,1,0,0H-144.6a0,0,0,0,1,0,0v-6.24A0,0,0,0,1-144.6,297.94Z" transform="translate(-259.97 342.15) rotate(-90)" style="fill:#8e8e8e"/><path d="M41.46,115.38V486.64h1.39c.77,0,1.39-1.4,1.39-3.12V118.38c0-1.72,0-3,0-3Z" style="fill:#a8a8a8"/><rect x="32.2" y="112.5" width="17.39" height="2.07" transform="translate(81.79 227.07) rotate(-180)" style="fill:#a8a8a8"/><rect x="32.21" y="114.54" width="17.38" height="2.07" transform="translate(81.8 231.16) rotate(-180)" style="fill:#8e8e8e"/></g><rect x="16.8" y="487.48" width="47.36" height="11.37" style="fill:#d22c20"/><path d="M76.79,519.5c-.71-15.38-16.73-27.67-36.4-27.67S4.7,504.12,4,519.5Z" style="fill:#d22c20"/><rect x="17.33" y="495.46" width="46.57" height="3.19" style="fill:#a81a16"/><rect x="20.12" y="484.33" width="40.79" height="3.5" transform="translate(81.04 972.17) rotate(-180)" style="fill:url(#eb)"/><path d="M125.1,158.44l0-.16,0-.16c.23-.51.61-.7,1.15-1l.38-.09v.1l-.25.15v.07c2.63,6.51,71.55,4,82.22,0,1.66-.7,1.6-1,1.81-1.41h0l.39.08a1.64,1.64,0,0,1,.84.8l0,.16c-.22,1.22-3.21,1.93-4.35,2.22-21.51,5-66.46,3.08-76.09,1.48C129.35,160.33,125.7,159.67,125.1,158.44Z" style="fill:#e26d6d"/><path d="M126.37,157.36v-.07c.1-.35,1.77-.91,2.13-1a40.63,40.63,0,0,1,5.61-1.19c28.17-4.5,71.92-2.41,76.14.63l.16.18c-.8,4.85-52.59,7-74.22,4.48C130.55,159.74,126.89,158.79,126.37,157.36Z" style="fill:#a81a16"/><g style="clip-path:url(#ec)"><path d="M153.87,163.24l-.25-19.59-35.33,13S145.38,166.84,153.87,163.24Z" style="fill:#a81a16;opacity:0.30000000000000004;mix-blend-mode:multiply"/><path d="M189.57,148.42l1.18,16.28s22.87-2,23-7.67S189.57,148.42,189.57,148.42Z" style="fill:#a81a16;opacity:0.30000000000000004;mix-blend-mode:multiply"/></g><path d="M121.64,157.92a.75.75,0,0,1,0-.36c.39-1.35,4.06-2.52,9.75-3.42,23.35-3.71,80.6-3.46,83.79,1.83l.05.17v.18l-.05.18.09.07-.27.34c-5.89,3.78-29,5.08-35.89,5.25,2.14-.16,31.92-1.39,32.61-5.2l0-.16a1.64,1.64,0,0,0-.84-.8l-.39-.08h0l-.3-.23c-13.23-4.91-74.22-3.12-83,1.15a2.55,2.55,0,0,1-.84.29c-.66.35-.95.54-1.15,1l0,.16,0,.16c.49,1,2.91,1.59,4.92,2,1.75.35,4,.55,6.24.81-1.66-.09-3.82-.29-3.9-.3C130,160.81,122.61,159.61,121.64,157.92Z" style="fill:#ff433e"/><path d="M126,162.63s-2.51,28.86-.38,32.82,4.07,5.75,4.46-1.26,4.64-19.06,4.84-9.35-.78,34,3.48,35.24,4.07-3.05,3.49-14,2.32-25.17,2.13-16.9,1.93,16,3.48,11.68-.19-7.73,1-12.58,5.81-9,5.42,4-1.16,25.72,2.13,26.25,3.1-2,2.9-10.42,2.33-15.47,2.13-6.48-1.55,23.92,1.55,24.28,2.71-1.08,1.74-7.2-1.74-15.28-1-17.08,4.25-7.55,4.64,9.35,2.52,17.44,4.45,15.11-2.71-10.79-1.35-22.84,4.45-22.83,4.26-8.63-.78,21.4,1.74,21.76,4.26-.36,3.68-7.2-.78-23.37,1.16-22.29,1,10.25,1.94,16.54,3.29,9.17,4.06,4.32-3.1-16.55-1.74-20,6-5.22,6.39,6.47-.39,20.86,2.13,21.76,4.84-.36,4.06-7-3.87-20.67-1.93-22.83,3.1-3.78,4.07,10.43,3.87,16.54,4.83,11.33-2.32-19.24-1.74-21,4.65-6.65,5.42,13.13-2.32,25.71,3.87,25.35c2.82-.17,1.17-5.76.58-15.47s-2.14-51.59-4.27-54.11c-1.14-1.35-15.21-2.4-32.06-2.76a378.81,378.81,0,0,0-42.31,2C124.49,156.31,126.22,157.24,126,162.63Z" style="fill:#87c9d8;opacity:0.85"/><path d="M128.62,163.5S130,207,132.36,210.37s5.16,6.24,4.65-5.75-2.84-34.76,1-37.4,5.16-4.55,5.94,3.6,4.38,12.22,4.9,5.27,4.39-16.78,4.65-4.31,8,26.13,8,16.06-3.1-15.11-2.07-19.9S171.34,154,171.6,164.1s-3.62,41.24,1.54,42,6.72-6.47,5.17-13.67-1.81-25.65-1-29.48,7.22-6,6.71.71-.52,12.23,1.8,12.47,3.1-.24,2.84-4.79-1-13.67,0-13.91,12.14-2.16,11.88,2.4-4.91,27.57-1.55,30.45,5.68,3.35,5.42-4.32-.26-23.25-.52-25.65-7.61-5.16-24.65-6.12S135.59,154.39,128.62,163.5Z" style="fill:#9ad8e8;opacity:0.79"/><path d="M189.66,196.71s-5.67,28-.77,30.44,8-6.71,6.2-15.82S190.18,192.39,189.66,196.71Z" style="fill:#9ad8e8"/><path d="M209.8,187.6s-3.87,16.3-.77,18,6.45.24,4.64-7.91S210.57,183.52,209.8,187.6Z" style="fill:#9ad8e8"/><path d="M146.56,192.87s-3.1,9.83-1,12,4.13.24,3.36-4.56S147.07,190.48,146.56,192.87Z" style="fill:#9ad8e8"/><path d="M118.94,211.81s-5.94,18.46-.78,18.7,5.68-5.51,4.13-11.27S119.19,209.41,118.94,211.81Z" style="fill:#9ad8e8"/><path d="M116.1,186.64s-3.1,9.83-1,10.55,4.13-1.44,3.36-5.52S116.1,184,116.1,186.64Z" style="fill:#9ad8e8"/><path d="M121.64,157.92a2.65,2.65,0,0,0,1,.8l-.61-.3a2.26,2.26,0,0,1-1.46-2.28c3.82-7.37,91.85-8.5,95.66-1.48a2,2,0,0,1-.79,1.89l-.46.36.18-.41.05-.18v-.18l-.05-.17c-4-6.57-91.52-5.37-93.54,1.59A.75.75,0,0,0,121.64,157.92Z" style="fill:#f23b36"/><path d="M121.41,151.41a3.52,3.52,0,0,0-.28.44,1.92,1.92,0,0,1,.25-.6c2.74-4.07,24.78-9.13,46.75-9.54s43.92,3.86,47,8a3.21,3.21,0,0,1,.33.74,5.43,5.43,0,0,0-.34-.56c-1-.48-1.63-1.33-8.18-2.53-20.13-3.38-63.06-2.71-81,2.11A15.13,15.13,0,0,0,121.41,151.41Z" style="fill:#a81a16"/><path d="M121.41,151.41a3.52,3.52,0,0,0-.28.44,1.92,1.92,0,0,1,.25-.6c5.48-8.14,87.56-9.86,93.78-1.5a3.21,3.21,0,0,1,.33.74,5.43,5.43,0,0,0-.34-.56c-1-.48-1.63-1.33-8.18-2.53-20.13-3.38-63.06-2.71-81,2.11A15.13,15.13,0,0,0,121.41,151.41Z" style="fill:#d22c20"/><path d="M197.71,72.34v.14a11,11,0,0,0-2.1-2.76C185.77,60.87,163,61,150,64.65c-9.18,2.76-11.73,5.81-13.05,7.21a12,12,0,0,0-1.24,2.06,7.74,7.74,0,0,1,1-2.07c9.29-13.1,48.74-14.34,59.57-1.79A13.52,13.52,0,0,1,197.71,72.34Z" style="fill:#a81a16"/><path d="M121.4,151.29l-.19.3a9.11,9.11,0,0,0-.42,1.9c0-.23.15-5.65.25-5.86l.06,0,2.78,0c-.33,2.12-.31,1.88-.36,2.14A4.32,4.32,0,0,0,121.4,151.29Z" style="fill:#a81a16"/><path d="M212.94,148.21s-.43-2.07-.43-2.09l2.76,0,.07,0c.11.39,0-.2.45,5.59a6.72,6.72,0,0,0-.45-1.6l-.19-.17v-.18A7.17,7.17,0,0,0,212.94,148.21Z" style="fill:#a81a16"/><path d="M120.54,156.14a20.53,20.53,0,0,1,.59-4.29l.12-.23.16-.21a16,16,0,0,1,5.37-2.14c18.81-4.73,61.93-5.2,81.16-1.69,5.69,1.12,6.2,1.88,7.21,2.35l.29.44a22,22,0,0,1,.76,4.29C212.39,147.65,124.36,148.77,120.54,156.14Z" style="fill:#d22c20"/><g style="clip-path:url(#ed)"><polygon points="141.51 152.67 142.56 143.99 116.15 150.93 117.78 162.07 141.51 152.67" style="fill:#a81a16"/></g><path d="M123.52,149.69c.4-2.38,11.63-74,11.89-75,5.07-15.65,59.05-17,62.86-.54.21,1.05,14.67,74.11,14.67,74.11C199.05,142.46,137.5,143.32,123.52,149.69Z" style="fill:#d22c20"/><g style="clip-path:url(#ee)"><path d="M146.11,148.06s0-.59.1-1.66c20.24-1.76,46.35-1.42,60.76,1,6.55,1.2,7.15,2,8.18,2.53a5.43,5.43,0,0,1,.34.56c-.05-.27-.34-1.52-.34-1.52-3.11-4.18-25-7.66-47-7.26a199.51,199.51,0,0,0-21.73,1.61c1-16.27,4.18-69,4.15-71.35,0-2.78,5.7-9.38,23.92-10.82s-48.57-5.28-48.57-5.28l-13,104.29Z" style="fill:#a81a16"/></g><rect y="474.17" width="112.67" height="374" style="fill:none"/><polygon points="260.88 484.9 265.93 490.39 257.52 495.68 252.78 487.97 260.88 484.9" style="fill:#473c35"/><path d="M255.72,494.83l5.1,8.46,1,1.67a.67.67,0,0,0,.62.31l.73-.36,22-13.27a.66.66,0,0,0,.23-.9l-.89-1.47-.16-.25c-.52-.74-1.35-1.3-3.75-1.08h-.18l-6.71.66-1.69.17-6.4.07Z" style="fill:#78411d"/><path d="M280.48,488a21,21,0,0,1-9.06,2.94s-5.89,1-8.14-2.75c-.38-.61.29-1.08.65-.6,3.46,2.35,16.52.41,16.52.41Z" style="fill:#6b391d"/><path d="M260.78,503.23l0,.06,1,1.67a.67.67,0,0,0,.62.31.49.49,0,0,0,.28-.09l22.46-13.54a.66.66,0,0,0,.23-.9l-1-1.73Z" style="fill:#492915"/><path d="M190.09,341.09s-9.23,4.37-25.85,3.85S141,340.39,141,340.39c1.82-2.07,12.71-6.57,16.36-8l1.18-.46c.52-.17,1.85-12.77,1.85-12.77h12.22l1.32,12.92,1.19.47A78.55,78.55,0,0,1,190.09,341.09Z" style="fill:#925930"/><path d="M173,323.23c-4.07,1.71-9.76,3.46-13.78,5.25.55-3.78,1.14-9.34,1.14-9.34h12.22Z" style="fill:#7c4825"/><path d="M145.83,287.27c-.84,5.61.89,21.48,6.26,27.45s11,8,14.69,8.17,12.27-4.82,16.48-11.86c5.08-8.5,4.63-24.65,3.59-30.92S175.21,268,165.07,269.67,147.92,273.25,145.83,287.27Z" style="fill:#925930"/><path d="M169.07,304.11c-1-.54-3.43-.49-5.29-.18a1.7,1.7,0,0,0-.69.22c-.2.13-.13.38-.05.58a6.89,6.89,0,0,0,2.14,1.5,2.19,2.19,0,0,0,1,.29,2.36,2.36,0,0,0,1.38-.59C168.2,305.44,169.48,304.71,169.07,304.11Z" style="fill:#7c4825"/><path d="M185.38,298.58a3.49,3.49,0,0,1,1.82-1.37,2.58,2.58,0,0,1,2.21.33,3,3,0,0,1,1.08,2.6,8.23,8.23,0,0,1-.81,2.82,8.51,8.51,0,0,1-2.39,3.58,3.15,3.15,0,0,1-4,0Z" style="fill:#925930"/><path d="M147.14,298.58a3.43,3.43,0,0,0-1.81-1.37,2.58,2.58,0,0,0-2.21.33,3,3,0,0,0-1.09,2.6,8.24,8.24,0,0,0,.82,2.82,8.42,8.42,0,0,0,2.39,3.58,3.14,3.14,0,0,0,4,0Z" style="fill:#925930"/><path d="M158.11,282.84a22.58,22.58,0,0,0-8.81,3.35,24.9,24.9,0,0,1,2.47,3.82,29.38,29.38,0,0,1,8.52-3.25l-.8-4-.74.85Z" style="fill:#603b22"/><path d="M173.9,282.9a22.58,22.58,0,0,1,8.87,3.18,25.17,25.17,0,0,0-2.39,3.87,29.57,29.57,0,0,0-8.58-3.08l.71-4c.26.27.51.55.77.83Z" style="fill:#603b22"/><path d="M145,293.06l2.44,26.08s7.37,6.46,9.78,6.56,18.73.83,21.31,0,7.29-5.63,7.29-6.09,2.29-28.07,2.29-28.07l-3-1.79s.9,16-1.22,16.45-35,2-35.43-.41-.87-13.38-.87-13.38Z" style="fill:#3d2718"/><path d="M148.05,269.32a43.92,43.92,0,0,1,26.22-6.89c10.74.65,15.61,12.26,15.52,13.46-.39,5.42-2.13,25.92-3.32,25.12s-1-21-2.6-21.75-2,7-2.61,7.1-1.71-6.08-2.85-6.85-5.08-.29-6.23.24-1.15,7.65-1.79,7.65-.93-7-1.69-7.77-3.95-.2-5.92-.4c-.44,0-1.4,7-1.83,7s-1.94-6-2.33-6.34c-2.32-2.32-5.16-2.22-7.62-3.28,0,0-.08,7.17-.52,7.17s-1.59-3.26-1.59-3.26-1.51,22.72-2.23,20.49-5.08-23-4.29-27.33S145.94,268.12,148.05,269.32Z" style="fill:#68442b"/><path d="M148.05,269.32a43.92,43.92,0,0,1,26.22-6.89c10.74.65,15.61,12.26,15.52,13.46-.39,5.42-2.13,25.92-3.32,25.12s-1-21-2.6-21.75-2,7-2.61,7.1-1.71-6.08-2.85-6.85-5.08-.29-6.23.24-1.15,7.65-1.79,7.65-.93-7-1.69-7.77-3.95-.2-5.92-.4c-.44,0-1.4,7-1.83,7s-1.94-6-2.33-6.34c-2.32-2.32-5.16-2.22-7.62-3.28,0,0-.08,7.17-.52,7.17s-1.59-3.26-1.59-3.26-1.51,22.72-2.23,20.49-5.08-23-4.29-27.33S145.94,268.12,148.05,269.32Z" style="fill:#301f13"/><path d="M168.35,340.19a9,9,0,0,1-3.55.25,2.56,2.56,0,0,1-2.22-1.31,2.25,2.25,0,0,1,.56-2.17c.5-.6,1.19-.95,1.69-1.56a11,11,0,0,0,1.86,3.79c.37-1.23.85-2.55,1.23-3.79a5.39,5.39,0,0,1,1.8,1.59,2.07,2.07,0,0,1,.16,2.29A2.71,2.71,0,0,1,168.35,340.19Z" style="fill:#f2f2f2"/><path d="M159.43,299.31a3.74,3.74,0,0,0-4.31-.86A10.28,10.28,0,0,1,159.43,299.31Z" style="fill:#6d4021"/><path d="M172.67,299.31a3.85,3.85,0,0,1,2-1.13,3.76,3.76,0,0,1,2.29.27A10.31,10.31,0,0,0,172.67,299.31Z" style="fill:#6d4021"/><polygon points="99.82 494.24 97.68 502.23 106.58 504.54 109.08 496.07 99.82 494.24" style="fill:#473c35"/><path d="M107.32,504.73h0c.52-2.19.87-4.14.2-2.92a1.79,1.79,0,0,1-2.49.73,18,18,0,0,0-3.42-1.24c-.5-.13-2.46.21-3-.15s-1.1-1.49-1.45-1.37c-1.31.47-11.64,8-11.64,8l-.26.19h0L85,511.13,84.77,514a9.26,9.26,0,0,0,1,.45l5,.52,3.16-.79,11.75-2.94h0v-.07l1.7-6.47Z" style="fill:#6b391d"/><path d="M84,511.86l-.09.34h0a.76.76,0,0,1,.08-.32Z" style="fill:#e2e2de"/><path d="M97.75,500.08s.58-.52,1-.37l3.62,1.4a.62.62,0,0,1,0,1.06l-10.27,6.45a14.28,14.28,0,0,1-4.34-1.17Z" style="fill:#7c4124"/><path d="M94.43,513.54a1.23,1.23,0,0,1-.56.68c-1,.66-3,1-3.81,1.47l-3.31-.85c-.37-.12-.7-.23-1-.35a9.26,9.26,0,0,1-1-.45,4.34,4.34,0,0,1-1.19-.92l-.09-.32a4.44,4.44,0,0,1,0-2v0a5.42,5.42,0,0,1,.51-1.29A4.7,4.7,0,0,1,85.23,508h0l.26-.19A5.13,5.13,0,0,1,89,507a8.18,8.18,0,0,1,1,.19,6.89,6.89,0,0,1,2.48,1.19,5,5,0,0,1,2,4.69A4.64,4.64,0,0,1,94.43,513.54Z" style="fill:#512915"/><path d="M100.27,511.8A15.26,15.26,0,0,1,94.54,513a15.59,15.59,0,0,1-4.12-.49l-1.66-.43-.39-.11c-3.21-.83-4.13-1.87-4.35-2.58a5.42,5.42,0,0,0-.51,1.29v0h0L83.18,512h0a1.4,1.4,0,0,0,.19.79,2.35,2.35,0,0,0,.22.33,4.34,4.34,0,0,0,1.19.92,9.26,9.26,0,0,0,1,.45c.34.13.75.26,1.17.39,1.1.34,2.23.64,2.23.64a16.69,16.69,0,0,0,10.76-.8l4.3-1.85a2.48,2.48,0,0,0,1.41-1.59.19.19,0,0,0,0-.07l.51-1.94Z" style="fill:#7c4124"/><path d="M167,417.22l.33,21.38c0,.08.08,3.44-.53,3.42-1.84-.07-22.87,0-37.71,6,0,0-5.43,10.71-8.53,16.3-3.88,7-12.27,35-12.27,35a6.79,6.79,0,0,1-2.36-.26c-.34-.08-1.4-.48-1.85-.61-.8-.21-1.57-.46-2.44-.7s-1.4-.44-1.86-.6c-1-.33-1.21-.14-1.21-.77,0,0,4.17-48.22,12.24-55.79,5.52-5.18,18.46-17.07,26.22-19.49.59-.18,0-6.38,0-6.38l22.67,2.47Z" style="fill:#ab7348"/><path d="M166.13,432.84l-.52,9.18c-12.55-.65-35.51,4.2-36.67,6.27-1.33,2.37-7.57,14.36-9.83,19.53-3,7-10.8,31.43-10.8,31.43a3.54,3.54,0,0,0-1.87,0c3.88-21.08,11.66-46.13,14.93-51.67C126.42,439,166.13,432.84,166.13,432.84Z" style="fill:#9e6946"/><path d="M250.05,463.76c2.14,3.43,4.19,6.88,6.18,10.34q1.5,2.59,3,5.21l1.45,2.62.73,1.34a2.91,2.91,0,0,1,.18.35l.18.33.34.68,0,0c.43.68-.9,2.31-3,3.77l-.46.3a12.07,12.07,0,0,1-3.62,1.66c-.77.17-1.34.12-1.54-.2a.44.44,0,0,1-.06-.16l-.31-.43-.21-.28-.1-.15,0-.06,0,0-.84-1.12L250,485.63c-1.17-1.54-2.37-3.07-3.57-4.6-2.39-3-4.82-6-7.28-8.95-1.23-1.45-2.47-2.88-3.72-4.26l-.47-.52-.46-.5-.94-1c-.31-.35-.62-.65-.92-1l-.93-.93c-.07-.08-.15-.14-.22-.21l-.22-.2-.45-.41-.44-.41-.11-.1-.06,0-.11-.07-.11-.08a.4.4,0,0,0-.13-.09l-.37-.24-.18-.13,0,0-.06,0-.12-.07-.46-.28c-.29-.19-.66-.4-1-.6l-.52-.3-.57-.3c-.73-.41-1.54-.81-2.32-1.22-3.23-1.61-6.67-3.17-10.18-4.67s-7.07-2.95-10.67-4.36c-1.81-.72-3.63-1.42-5.45-2.12l-25.61-5.87L166.9,442l-.9-23.28,27.69-3.55.87,6.74.05,0,1.36.73q2.66,1.41,5.31,2.87,2.39,1.29,4.75,2.61,2.91,1.62,5.81,3.27,5.26,3,10.48,6.17c3.48,2.12,6.94,4.32,10.41,6.72.87.62,1.73,1.22,2.61,1.89l.66.49.66.52c.44.35.88.68,1.33,1.07s.89.73,1.37,1.18l.7.65c.12.1.25.24.37.36l.38.39.38.39a1.66,1.66,0,0,0,.18.19l.13.17.53.65,1.05,1.3.95,1.28c.32.43.64.86.93,1.29l.9,1.28.44.64.43.64C247.88,460.34,249,462.05,250.05,463.76Z" style="fill:#ab7348"/><path d="M165.73,432.72l.1,9c8.66-.1,21.35,3.18,32.38,6.24,0,0,27.78,11.09,32,14.74,9.7,8.37,23.51,27.77,23.51,27.77,0,.41,1-.68,1.86-.4-8.37-33.88-51.93-49.13-55.8-51.94C194,433.85,165.73,432.72,165.73,432.72Z" style="fill:#9e6946"/><polygon points="195.64 418.29 139.57 417.11 151.81 329.84 167.27 333.13 183.54 329.84 195.64 418.29" style="fill:#f2dcce"/><path d="M166.12,332.53s-3.56,43.28-3.45,43.86,2.66,3.89,3.72,4c.66.09,4.5-3.07,4.91-4,.78-1.71-3.75-43.93-3.75-43.93Z" style="fill:#473c35"/><path d="M162.11,332.77s6.59-.61,9.19,0c0,0-2.94,6-4.6,6.56C166.7,339.33,162.2,335.59,162.11,332.77Z" style="fill:#473c35"/><path d="M149.07,330.89s9.1,17.37,17.86,25.28c0,0,15.73-11.59,19-21.61l2.48.56s1.81,76.49,1.93,84.49c0,0-20.23,4.45-41.32,0,0,0-3.18-83.67-3.38-87.29Z" style="fill:#b53116"/><g style="clip-path:url(#ef)"><path d="M140,335.84s-.65,43.71,3.62,44.88,2.91-7.54,6.92-5.47,7.41,8.75,14.14,9.39,8-15.74,12.75-15.22,2.18,8.34,7.22,8.6.23-10.75,2-11.27,1.94,1,5,1,2.2-18,2.2-18l-3.83-16.12a12.05,12.05,0,0,0-4.54-1.63c-2.36-.23-32.31,1.25-36.6,1.27S140,335.84,140,335.84Z" style="fill:#a02a17"/></g><path d="M158.37,327.4s.83,3.36,8.82,5.14a83.73,83.73,0,0,1-7.22,7.91s-4.72-7.67-4.69-11.33Z" style="fill:#dbdbdb"/><path d="M167.19,332.54a83.27,83.27,0,0,0,6.58,8.36s2.8-7.34,3.85-11.57c0,0-2.82-1.81-3.78-2.26A12,12,0,0,1,167.19,332.54Z" style="fill:#dbdbdb"/><path d="M154.85,329.81l-7.93,0a8.94,8.94,0,0,0-8.84,8.52L135,422.08a.33.33,0,0,0,.33.36h2.28c6.32,0,20.52,0,20.53-20.13h0Z" style="fill:url(#eg)"/><path d="M178.66,329.81l8.13,0a8.94,8.94,0,0,1,8.84,8.52l3.07,83.73a.34.34,0,0,1-.34.36h-2.27c-6.33,0-20.53,0-20.53-20.13h0Z" style="fill:url(#eh)"/><path d="M195.92,347.47l-3.1-15.2a6.68,6.68,0,0,0-3.95-2,43.58,43.58,0,0,0-11.24-.15l0,39.1c4.64.66,2,9.77,7,10s.1-13.74,3.56-13.94c2.57-.14,3.13,4.85,6.23,4.85S195.92,347.47,195.92,347.47Z" style="fill:#442b28"/><path d="M139.66,358.63c-.1,1.68.11,11.5,1.71,14.24s9.37,1.84,10-2.36-.29-12.15-.29-12.15S143.36,358.38,139.66,358.63Z" style="fill:#442b28"/><path d="M155.53,330.13l-9.91.06c-4.3,0-7.09,3.63-7.09,3.63s-4,57.94,2.86,59.23c4.35.82,4.4-19.67,8.41-17.6a22.2,22.2,0,0,1,5.52,3.56Z" style="fill:#442b28"/><polygon points="146.82 329.83 156.51 328.5 158.05 397.46 151.34 349.97 154.41 344.11 150.2 345.13 146.82 329.83" style="fill:#69423d"/><g style="clip-path:url(#ei)"><path d="M140,334s-2.66,56,1.61,57.18,6-17.37,10-15.3,4.67,6.88,11.39,7.53,6.47-15.14,11.25-14.62,2.46,6.73,7.51,7,3.1-10.34,4.91-10.86,1.94,1,5,1,2.2-18,2.2-18l-3.83-16.12-33.33-3.43c-2.36-.23-5.72,1.43-10,1.45S140,334,140,334Z" style="fill:#5e3a38"/></g><polygon points="186.84 329.83 176.79 328.78 175.62 397.46 182.33 349.97 179.25 344.11 183.46 345.13 186.84 329.83" style="fill:#69423d"/><g style="clip-path:url(#ej)"><path d="M193.93,347.93l-3.83-16.12a4.21,4.21,0,0,0-3.27-2.11,95.18,95.18,0,0,0-10.09-.85l-.61,40.88a2.49,2.49,0,0,1,1.6-.41c4.79.51,2.4,9.43,7.45,9.69s-.3-13.62,1.51-14.14,1.94,1,5,1S193.93,347.93,193.93,347.93Z" style="fill:#5e3a38"/></g><polygon points="85.69 294.33 85.64 299.29 89.49 303.34 85.69 294.33" style="fill:#925930"/><path d="M89.65,290.43a3.94,3.94,0,1,0,3.9,4A3.93,3.93,0,0,0,89.65,290.43Z" style="fill:#925930"/><path d="M89.6,295.35a3.94,3.94,0,1,0,3.9,4A3.93,3.93,0,0,0,89.6,295.35Z" style="fill:#925930"/><path d="M92.19,295.37a3.94,3.94,0,1,0,3.9,4A3.94,3.94,0,0,0,92.19,295.37Z" style="fill:#925930"/><path d="M93.07,296.28a1.55,1.55,0,1,0,3.08,0l.06-4.05a1.55,1.55,0,1,0-3.08,0Z" style="fill:#925930"/><path d="M93,299.52a1.55,1.55,0,1,0,2.56,1.71l2.51-3.77a1.55,1.55,0,1,0-2.56-1.71Z" style="fill:#925930"/><path d="M95.33,296.5a1.55,1.55,0,1,0,2.89-1.07l-.7-1.88a1.55,1.55,0,1,0-2.89,1.08Z" style="fill:#925930"/><rect x="90.18" y="289.91" width="3.94" height="5.02" transform="translate(-201.16 381.71) rotate(-89.44)" style="fill:#925930"/><rect x="86.5" y="297.48" width="8.92" height="8.86" transform="translate(-211.73 390.22) rotate(-89.5)" style="fill:#925930"/><path d="M95.42,303.85s0,1.09,0,2.15-.15,2.35-.15,2.35l-8.75-1.22,0-3.2S95.42,303.89,95.42,303.85Z" style="fill:#ededed"/><path d="M86.5,305.69a37.45,37.45,0,0,0,.6,9.28c.17.77.32,1.56.55,2.33l.16.58c0,.19.1.39.17.58l.38,1.14.21.57.23.57.22.56c.08.19.17.38.25.56l.51,1.11.57,1.08c.18.37.4.71.6,1.07s.41.7.64,1l.68,1,.72,1c.24.33.5.64.75,1s.51.63.78.93l.81.91.84.87a41.67,41.67,0,0,0,3.58,3.21c1.25,1,2.53,1.91,3.85,2.75s2.67,1.64,4,2.35,2.76,1.39,4.16,2a76,76,0,0,0,8.53,3.12c1.44.44,2.88.83,4.33,1.2s2.9.69,4.36,1c2.92.6,5.84,1.07,8.79,1.44l1-16.38c-2.54,0-5.09-.16-7.62-.38-1.27-.12-2.52-.26-3.78-.43s-2.49-.36-3.72-.59a53.25,53.25,0,0,1-13.87-4.36,26.48,26.48,0,0,1-10.28-8.37l-.46-.67-.42-.69-.21-.35-.19-.36-.19-.36c-.07-.12-.13-.24-.19-.36l-.34-.74a3.17,3.17,0,0,1-.17-.38l-.15-.38c-.22-.51-.38-1-.57-1.57a27.72,27.72,0,0,1-1.18-6.81Z" style="fill:#69423d"/><path d="M146.17,340.88a9.31,9.31,0,0,0-2.28-5.77,7.19,7.19,0,0,0-10.44-.64c-1.5,1.32-.15,3-.46,5.23s1.24,3.7,2.57,5.34-.08,3.72,2.26,3.86a8,8,0,0,0,6-2.2A7.62,7.62,0,0,0,146.17,340.88Z" style="fill:#5e3a38"/><path d="M123.7,331.12s.64,5,1.72,6.46a5.86,5.86,0,0,0,4.36,2.27c1.68.2,1.15,3,2.57,3.36,1.87.5,4.2,5.54,4.2,5.54l1.31.12,4.57-5.76-3.61-10.59Z" style="fill:#5e3a38"/><g style="clip-path:url(#ek)"><ellipse cx="100.66" cy="336.82" rx="3.95" ry="7.78" transform="translate(-217.55 187.42) rotate(-48.21)" style="fill:#ab7348"/></g><polygon points="252.16 283.59 249.56 287.81 244.14 289.19 252.16 283.59" style="fill:#925930"/><path d="M250.88,278.18a3.94,3.94,0,1,1-5.41,1.29A3.94,3.94,0,0,1,250.88,278.18Z" style="fill:#925930"/><path d="M248.3,282.37a3.94,3.94,0,1,1-5.41,1.28A3.93,3.93,0,0,1,248.3,282.37Z" style="fill:#925930"/><path d="M246.1,281a3.94,3.94,0,1,1-5.42,1.29A3.94,3.94,0,0,1,246.1,281Z" style="fill:#925930"/><path d="M244.88,281.31a1.56,1.56,0,1,1-2.64-1.61l2.11-3.46a1.55,1.55,0,1,1,2.63,1.61Z" style="fill:#925930"/><path d="M243.18,284.07a1.55,1.55,0,1,1-3.08.08l-.12-4.53a1.55,1.55,0,1,1,3.08-.08Z" style="fill:#925930"/><path d="M242.84,280.3a1.55,1.55,0,1,1-1.87-2.45l1.59-1.22a1.55,1.55,0,1,1,1.87,2.45Z" style="fill:#925930"/><rect x="245.74" y="276.03" width="3.94" height="5.02" transform="translate(-119.37 343.3) rotate(-58.36)" style="fill:#925930"/><rect x="239.2" y="282.77" width="8.92" height="8.86" transform="translate(-128.73 343.6) rotate(-58.3)" style="fill:#925930"/><path d="M238.83,286.5h0s-.76,1.39-1.32,2.27-1.16,2-1.16,2l7.95,4.12h0l1.68-3s.23-.27.2-.31S238.88,286.47,238.83,286.5Z" style="fill:#ededed"/><path d="M237.7,288.47a124.2,124.2,0,0,1-9.91,13c-1.82,2.05-3.65,4.08-5.57,6-.95,1-1.93,2-2.9,2.91-.48.48-1,.95-1.48,1.42s-1,.95-1.49,1.41l-1.52,1.39c-.5.47-1,.92-1.53,1.38-1,.91-2.06,1.8-3.09,2.7-2.1,1.76-4.21,3.5-6.37,5.19-4.31,3.37-8.75,6.58-13.29,9.58l6.95,14.65c5.67-2.77,11.86-9.3,16.05-13.4,2.09-2,4.13-4.14,6.15-6.27,1-1.07,2-2.14,3-3.23.49-.55,1-1.09,1.46-1.64l1.45-1.66c.48-.55.95-1.12,1.42-1.68s.95-1.12,1.41-1.69c.92-1.15,1.85-2.28,2.75-3.45,1.81-2.3,3.54-4.7,5.23-7.1a133.18,133.18,0,0,0,9.1-15.21Z" style="fill:#69423d"/><path d="M189,344.75a7.76,7.76,0,0,0,5.29,3.39c2.1.33,1,.3,2.89-1.1s1.28-3.38,1.51-5.47-.74-2.88-2.17-4.62,1.88-4.68-.16-4.95a7.87,7.87,0,0,0-5.81,1.51,7.79,7.79,0,0,0-3,5.17A8.79,8.79,0,0,0,189,344.75Z" style="fill:#5e3a38"/><g style="clip-path:url(#el)"><ellipse cx="227.22" cy="321.99" rx="7.78" ry="3.95" transform="translate(-161.13 254.98) rotate(-45)" style="fill:#ab7348"/></g><path d="M172.82,318.7c-1.19.88-3,1.44-6,1.44-3.34,0-5.28-.69-6.41-1.79-.71-.68-.68-2.34-.5-4.05.24-2.26.67-3.37,1.26-4a2.83,2.83,0,0,1,.7-.56,2.45,2.45,0,0,1,1-.38c1.49-.21,1.9.28,3.94.28s2.46-.49,4-.28a2.7,2.7,0,0,1,.76.24,2.5,2.5,0,0,1,.86.69,8.07,8.07,0,0,1,1.2,4C173.77,316.17,173.89,317.9,172.82,318.7Z" style="fill:#4c0c0a"/><path d="M161.83,318.56a6,6,0,0,1,3.9-1.93,7.57,7.57,0,0,1,4.66.87c.55.32,1,.79.9,1.28a36.22,36.22,0,0,1-8.84.43c-.3,0-.66-.08-.74-.28S161.73,318.67,161.83,318.56Z" style="fill:#af3f3f"/><path d="M172.35,310.28a1.19,1.19,0,0,1-.26.23,3.85,3.85,0,0,1-1.52.57,30.32,30.32,0,0,1-6.72.11,6.16,6.16,0,0,1-2.5-.73,1.37,1.37,0,0,1-.23-.17,2.68,2.68,0,0,1,.48-.42l.13-.09.09,0,.05,0,.07,0a2.49,2.49,0,0,1,.89-.31c1.49-.21,1.9.28,3.94.28s2.46-.49,4-.28a2.7,2.7,0,0,1,.76.24l.11.06,0,0a1.13,1.13,0,0,1,.2.13l0,0A2.34,2.34,0,0,1,172.35,310.28Z" style="fill:#fff"/><path d="M172.82,318.7c-1.15.92-3,1.44-6,1.44-3.34,0-5.34-.65-6.41-1.79a2.85,2.85,0,0,1,.33-.25,1.18,1.18,0,0,1,.19-.11,1.57,1.57,0,0,1,.43-.15,3.74,3.74,0,0,1,1.68.2,18.16,18.16,0,0,0,7.9-.05,2.1,2.1,0,0,1,1.36,0,1.1,1.1,0,0,1,.21.14l.13.15A3,3,0,0,1,172.82,318.7Z" style="fill:#fff"/><path d="M178.28,295.58a13.57,13.57,0,0,0-3.54,1,7.12,7.12,0,0,0-2.48,2.44c-.22.38-.6.39-.7.15-.6-1.19,1.29-3.21,3.38-4.18s5.42-1.3,6-.2C181.23,295.25,179.85,295.38,178.28,295.58Z" style="fill:#2e1c10"/><path d="M179,297.94a13.61,13.61,0,0,0-3.67-.26,7.21,7.21,0,0,0-3.16,1.45c-.34.28-.7.16-.71-.09-.16-1.33,2.3-2.59,4.6-2.79s5.54.61,5.74,1.86C181.9,298.63,180.56,298.28,179,297.94Z" style="fill:#2e1c10"/><path d="M153.82,295.58a13.49,13.49,0,0,1,3.53,1,7.16,7.16,0,0,1,2.49,2.44c.22.38.6.39.7.15.6-1.19-1.29-3.21-3.39-4.18s-5.42-1.3-6-.2C150.87,295.25,152.25,295.38,153.82,295.58Z" style="fill:#2e1c10"/><path d="M153.08,297.94a13.56,13.56,0,0,1,3.66-.26,7.26,7.26,0,0,1,3.17,1.45c.33.28.7.16.71-.09.16-1.33-2.3-2.59-4.61-2.79s-5.54.61-5.73,1.86C150.19,298.63,151.54,298.28,153.08,297.94Z" style="fill:#2e1c10"/><path d="M136.88,357.28s-3,19.42-1.41,24.25,3,7.25,3.27.85-.73-15.35-.12-16.56,1.69-1.57,1.57,3.51-.85,17,.72,15.71,1.81-3.39,1.45-9.31,2.39-8.93,2.15-6.64,1.44,4.61,1.81,1.71-4.27-12.45-5-13.15c-.38-.39-.89-1-1.84-2.11-1.19-1.4-1.65-1.69-2.36-1.62S136.88,354.38,136.88,357.28Z" style="fill:#9ad8e8"/><path d="M179.44,332.69a64.5,64.5,0,0,0,0,15.33c1,9.07,3.3,18,2,20.44s-3.3,1.15-3.79-4.62-.66-16.31-1-13.84.5,11-1,11.54-1.32-3.79-1-9.73,2.64-19.28,3.46-20.43S179.61,329.89,179.44,332.69Z" style="fill:#9ad8e8"/><path d="M159.14,264.25c-.82.17-4.8,1.91-.65,2.19s14.85.5,15.13,3.81,2.76,5.17,2.67,2.85-1-3.46.71-2.53,5.17,2.78,5.3,5.88,1.89,4.79,2.38,2.4,4.23-6.6,4-2.81,1.51,6.63,2,4.06-.67-5.12,2.09-5.51-1.66-.34-4-2.16-3.78-8-12.66-9.61C167.77,261.33,164,263.19,159.14,264.25Z" style="fill:#9ad8e8;opacity:0.6900000000000001"/><path d="M166.06,253.55s9.86-12,5.41-16.41S166.6,247.17,166.06,253.55Z" style="fill:#fff"/><path d="M201.74,272.87s11,0,11.41-4.37S205.48,270.31,201.74,272.87Z" style="fill:#9ad8e8;opacity:0.79"/><path d="M150.45,253.05s-3.95-10.26-8.21-9.06S146.71,250.49,150.45,253.05Z" style="fill:#fff"/><path d="M195.62,266.47s22.18-26.41,19.77-15-11.95,12.11-14.55,14.36c1.18,1.78,0,3.86,5.1,2.25s28.73-1.24,22.4,2-23.17,3.42-28.68,1.71S190.41,267.13,195.62,266.47Z" style="fill:#9ad8e8;opacity:0.79"/><path d="M188.58,270.11s11.29-13.47,11.83-9.21S191.18,267.85,188.58,270.11Z" style="fill:#fff"/><path d="M199.23,277.79s17.12-1.69,12-.08S199.23,277.79,199.23,277.79Z" style="fill:#fff"/><path d="M181.8,251.09s10.45-24,14.9-19.22-8.16,11.63-5.25,15.59,5-2.08,12.43-8.31,21.55-12.36,14.75-5.24-22,16.15-25.9,21.76-11.85,11-12.81,7.22S181.8,251.09,181.8,251.09Z" style="fill:#9ad8e8;opacity:0.79"/><path d="M140.51,273.69c-3-1.06-11.68-4.78-22.11-3.46-5.69.72-4.55,5.87,4.51,5.2s15.94.39,15.35,3.36-25.3-2.09-30.39,3.37c-3.37,3.79,1.26,6.1,8.13,3.3s17.29-4.12,20.85-2.64,9.77,3.44,7.87-2.44S140.51,273.69,140.51,273.69Z" style="fill:#9ad8e8;opacity:0.79"/><path d="M116,280.68s-10.72,6.65-3.73,4.8S116,280.68,116,280.68Z" style="fill:#fff"/><path d="M129.45,274.71s-9.25-4.61-13.81-2.58C113.92,273.79,125.6,274.72,129.45,274.71Z" style="fill:#fff"/><path d="M185.88,245.28s6.2-11.86,10.82-13.41C196.7,231.87,191.26,242.19,185.88,245.28Z" style="fill:#fff"/><path d="M197.2,247.22s15.44-15,23.5-16C221.23,231.65,199.51,246.44,197.2,247.22Z" style="fill:#fff"/><path d="M181.85,252.93s-1.87,13.26,10.05.82C191.73,254.69,178.68,270.81,181.85,252.93Z" style="fill:#87c9d8;opacity:0.85"/><path d="M209,261.41s-16.46,6.9-.23,5.8S176.85,274.14,209,261.41Z" style="fill:#9ad8e8;opacity:0.79"/><path d="M190,282.7s32.63,14.45,11.37,9.87c-10.07-2.17-10.09-6.84-11.27-7.82-1,.63-2,.3-1.48,2.32.57,2.29-1.33,15.63-2.63,10.94-1-3.74.14-11.06,1.24-13.27S189.86,280.82,190,282.7Z" style="fill:#9ad8e8;opacity:0.79"/><path d="M192.91,285.11s16.52,7.26,9.72,7.27C197.38,292.39,194.72,286.3,192.91,285.11Z" style="fill:#fff"/><path d="M187.08,289.25s-.33,9.25-.83,6A13.61,13.61,0,0,1,187.08,289.25Z" style="fill:#fff"/><path d="M191.35,286.06s-3.21-6.57-3.54,0C187.39,294.52,186.43,275.29,191.35,286.06Z" style="fill:#87c9d8;opacity:0.85"/><path d="M215.49,250.34s-12.09,5.51-6.25,7.06S223.32,248.32,215.49,250.34Z" style="fill:#9ad8e8"/><path d="M211.68,254.61s.6-3.46,5.14-3.19C217.6,252.16,211.68,254.61,211.68,254.61Z" style="fill:#fff"/><path d="M207,256s.63,5,9.88-1.25C216.9,254.79,211.19,258.9,207,256Z" style="fill:#87c9d8;opacity:0.85"/><path d="M184.72,233.09s-8.88,9.87-2.91,9S191.1,228.1,184.72,233.09Z" style="fill:#87c9d8;opacity:0.85"/><path d="M182.94,238.51s-.84-3.41,3.43-5C187.39,233.91,182.94,238.51,182.94,238.51Z" style="fill:#fff"/><path d="M179.24,241.69s2.57,4.33,8.55-5.09C187.79,236.6,184.2,242.65,179.24,241.69Z" style="fill:#87c9d8;opacity:0.85"/><path d="M208.26,289s-8.34-2-6,1.11S213.05,291.11,208.26,289Z" style="fill:#9ad8e8"/><path d="M204.63,289.68s1.68-1.52,3.88.42C208.61,290.79,204.63,289.68,204.63,289.68Z" style="fill:#fff"/><path d="M201.68,288.56s-1.66,2.79,5.53,3.29C207.21,291.85,202.67,291.67,201.68,288.56Z" style="fill:#9ad8e8"/><path d="M230.92,290.57s-11.75-2.82-8.43,1.56S237.68,293.51,230.92,290.57Z" style="fill:#9ad8e8;opacity:0.79"/><path d="M221.5,291.32s2.37-2.14,5.47.59C227.11,292.89,221.5,291.32,221.5,291.32Z" style="fill:#fff"/><path d="M221.66,290.43s-2.34,3.94,7.79,4.64C229.45,295.07,223.05,294.81,221.66,290.43Z" style="fill:#87c9d8;opacity:0.85"/><path d="M136.23,396.76s-6,14.5-4.26,18.37,3.68,2.51,4.06-3.48S137.39,393.86,136.23,396.76Z" style="fill:#9ad8e8"/><path d="M195,403s-2,14.35,2,11.82S195.85,398.47,195,403Z" style="fill:#9ad8e8"/><rect x="67.4" y="489.25" width="70.36" height="34.49" style="fill:none"/><path d="M169.67,296l-.18,0-2-.62a5.08,5.08,0,0,0-2.89,0l-2,.62a.61.61,0,0,1-.77-.46.67.67,0,0,1,.43-.83l2-.61a6.1,6.1,0,0,1,3.59,0l2,.61a.69.69,0,0,1,.43.83A.64.64,0,0,1,169.67,296Z" style="fill:#372b36"/><path d="M148.43,298.25h-2.52a.67.67,0,0,1,0-1.34h2.35A5.33,5.33,0,0,0,148.43,298.25Z" style="fill:#372b36"/><path d="M184.18,296.64h2.38a.67.67,0,1,1,0,1.34h-2.43Z" style="fill:#372b36"/><circle cx="155.61" cy="296.67" r="6.85" style="fill:none;stroke:#372b36;stroke-miterlimit:10"/><circle cx="176.7" cy="296.67" r="6.85" style="fill:none;stroke:#372b36;stroke-miterlimit:10"/></g></svg>