<svg xmlns="http://www.w3.org/2000/svg" viewBox="0 0 69.83 69.83"><title>portrait-woman-lost</title><path d="M40.26,41.1a17,17,0,0,0,3.93-3.52A18.73,18.73,0,0,1,40.26,41.1Z" style="fill:#dff4fb"/><path d="M47.51,30c-.06.32-.13.65-.2,1C47.38,30.69,47.45,30.37,47.51,30Z" style="fill:#dff4fb"/><path d="M32,43.09c0-.28.06-.54.08-.79h0Z" style="fill:#dff4fb"/><path d="M39.29,41.69l-.13.08Z" style="fill:#dff4fb"/><path d="M47.29,31.08c-.08.34-.17.67-.26,1C47.12,31.75,47.21,31.42,47.29,31.08Z" style="fill:#dff4fb"/><path d="M46.89,32.54l-.09.27Z" style="fill:#dff4fb"/><path d="M34.92,0A34.92,34.92,0,0,0,14,62.86,32,32,0,0,1,14.47,58s0,0,0,0a14.08,14.08,0,0,1,.39-1.45,1.66,1.66,0,0,1,.06-.21h0a3.68,3.68,0,0,1,.78-1.3,4.63,4.63,0,0,1,2.09-1.46,2.48,2.48,0,0,1,.71-.08,1.58,1.58,0,0,1,.12-.15,5.1,5.1,0,0,1,3.5-2,5.75,5.75,0,0,1,1.27-.12c1.48-1.62,3.77-3,4.45-2.13a6.25,6.25,0,0,1,3.72-1.72c0-.27.07-.56.11-.88.11-.86.21-1.86.31-2.79-.74-.11-1.27,2.14-1.95,1.79s-.08-2.71-1.45-2.71c-.92,0-.17,1.59-1.63,1.67-.54,0-.29-1.77-1.37-1.81-1.26-.05-.42,1.83-1.88,1.87s-6.05-22.77-4-25.52c0,0,1.57-3.54,1.75-3.83a11.49,11.49,0,0,1,2.21-2.54,9.52,9.52,0,0,0,2.54-2c.59-1.06,1.22-1.3,3.62-2-.53-.48,1.26-.73,1.67-.82,1.79-.39,4.61-.37,10.34,2,4.64,1.94,5.77,4.81,6.77,6.46l.26.39.13.19c1,1.32,1.53,2.46,1.3,2.6A23.26,23.26,0,0,1,51.65,24c.57,2.88-2.62,20.22-3.5,20.58a1.2,1.2,0,0,1-.27.07c.21,1.13.45,2.64-.29,2.21s-.33-1.46-.08-2.2c-.65-.16-.62-1.24-2-.91-.51.13-1.08,1.56-1.62,1.54-1.21,0-1-1.54-2.13-1.46-.7.06-.66,1.47-1.29,1.79-.89.47-1.25-1.47-2.25-1.37L38,42.39l.55-.29-.57.27.08.9.38,4.38h1.39l2.44,2h.27c.55-1.06,2.72.22,4.21,1.81A12.28,12.28,0,0,1,50.93,53a4.79,4.79,0,0,1,3.06.93,5,5,0,0,1,2,3.51h0c0,.15,0,.29,0,.44l0,.37h0c0,1.49.07,3,0,4.48A34.92,34.92,0,0,0,34.92,0Z" style="fill:#dff4fb"/><path d="M35.16,68.34l.08-.09,0,0-.06,0Z" style="fill:#fff"/><path d="M35.41,67.78a101.55,101.55,0,0,0,5.05-11.42h0Z" style="fill:#fff"/><path d="M28,49.49s0,.06,0,.09l2.39-1.93h1.1a2.17,2.17,0,0,1,0-.25,6.25,6.25,0,0,0-3.72,1.72A.79.79,0,0,1,28,49.49Z" style="fill:#fff"/><path d="M30.39,57.53A103.63,103.63,0,0,0,35,68.26l0,0h0l.08.09Z" style="fill:#fff"/><path d="M33.94,47.3a11,11,0,0,1,3.56.35h.94l-.38-4.38q-3.23,1.59-6.4,3.25c0,.32-.08.61-.11.88A10.94,10.94,0,0,1,33.94,47.3Z" style="fill:#ffceaa"/><path d="M40.45,56.36h0l.06-.15Z" style="fill:#ffceaa"/><polygon points="35.12 49.8 35.12 49.8 35.12 49.8 35.12 49.8" style="fill:#ffceaa"/><path d="M35.12,47.65H37.5a11,11,0,0,0-3.56-.35,10.94,10.94,0,0,0-2.39.1,2.17,2.17,0,0,0,0,.25Z" style="fill:#ffceaa"/><path d="M38,42.37a6.65,6.65,0,0,1-2.65.69,9.82,9.82,0,0,1-3.22-.76c0,.25,0,.51-.08.79l-.05.64h0c-.1.93-.2,1.93-.31,2.79q3.18-1.67,6.4-3.25Z" style="fill:#eda672"/><path d="M44.13,26.2a2.61,2.61,0,0,1,.38,1l.48,0a.14.14,0,0,0,0-.06,5.93,5.93,0,0,0,.16-.84l0-.35-.09,0-.59-.21c-.34-.11-.68-.19-1-.27A3.57,3.57,0,0,1,44.13,26.2Z" style="fill:#ffceaa"/><path d="M32.52,26.17a4.73,4.73,0,0,0-1-.61,3.82,3.82,0,0,0-.51-.18,2.62,2.62,0,0,1,.85,1.78.18.18,0,0,1-.27.09,4.42,4.42,0,0,1-.68,2.58l.16,0a4.63,4.63,0,0,0,.81-.3,2.77,2.77,0,0,0,1.21-1,1.25,1.25,0,0,0,.2-.69l0-.81A4.19,4.19,0,0,0,32.52,26.17Z" style="fill:#ffceaa"/><path d="M38,27.25a.18.18,0,0,1-.27-.09,2.68,2.68,0,0,1,.67-1.59,4.9,4.9,0,0,0-1,.6,3.63,3.63,0,0,0-.75.77l0,.81a1.18,1.18,0,0,0,.2.69,2.77,2.77,0,0,0,1.21,1c.16.07.33.12.5.18A4.54,4.54,0,0,1,38,27.25Z" style="fill:#ffceaa"/><path d="M39.29,41.69c.33-.19.65-.39,1-.59a18.73,18.73,0,0,0,3.93-3.52,15.38,15.38,0,0,0,2.61-4.77l.09-.27c0-.15.09-.31.14-.46.09-.33.18-.66.26-1l0-.07c.07-.32.14-.65.2-1a24.76,24.76,0,0,0,.33-2.93l-.08,0H47c0,.6.06,1.29-.1,1.32a4.31,4.31,0,0,1-.39-1.24c0,.11-.06.23-.1.35a6.09,6.09,0,0,1-.39,1,7,7,0,0,1-.58.94,5,5,0,0,1-.81.78,2.37,2.37,0,0,1-.46.32,3.33,3.33,0,0,1-.5.25,4.5,4.5,0,0,1-1,.31,4.28,4.28,0,0,1-1.06.1H41l-.48,0c-.31,0-.68-.09-1-.13s-.67-.14-1-.26a6.26,6.26,0,0,1-1-.41A3.68,3.68,0,0,1,36,28.89a2.47,2.47,0,0,1-.22-.53l-.06-.31v-.47h-1.6v.47a1.55,1.55,0,0,1-.06.31,2.44,2.44,0,0,1-.21.53,3.65,3.65,0,0,1-1.57,1.52,5.77,5.77,0,0,1-1,.41c-.33.12-.67.17-1,.26s-.7.12-1,.13l-.48,0h-.53a4.28,4.28,0,0,1-1.06-.1,4.36,4.36,0,0,1-1.05-.31,3.33,3.33,0,0,1-.5-.25,2.17,2.17,0,0,1-.47-.32,5.36,5.36,0,0,1-.8-.78,7,7,0,0,1-.58-.94,6.14,6.14,0,0,1-.4-1c0-.16-.09-.32-.13-.48a.35.35,0,0,1-.18.05h-.64c.78,6,3.38,12.16,9.58,15.16h0c.09-.92.15-1.56.15-1.56h5.58L38,42.37l.57-.27.61-.33ZM33.05,31.46a1.21,1.21,0,0,1,.43-.14,6.67,6.67,0,0,1,3.27.11c.25.38-.54.83-1,1.13a1.52,1.52,0,0,1-.85.37,1.44,1.44,0,0,1-.6-.18A4.38,4.38,0,0,1,33,31.82C33,31.69,32.93,31.54,33.05,31.46ZM36,39a3.14,3.14,0,0,1-2.46-.16,6.45,6.45,0,0,1-2.17-1.75,2.33,2.33,0,0,0-.65.19c-.21.1-.35.85-.46.5l-.09-.65c-.08-.28,0-.51.16-.1,0,.12.23.14.37.09a7,7,0,0,1,.78-.24s0,0,0,0a5.46,5.46,0,0,1,3.5-1.3A5.34,5.34,0,0,1,38.26,37s0,0,0,0c.27.1.51.2.65.27s.33.07.38,0c.18-.4.25-.16.14.11l-.15.63c-.15.34-.21-.42-.4-.54a2.83,2.83,0,0,0-.6-.25A4.08,4.08,0,0,1,36,39Z" style="fill:#ffceaa"/><path d="M25.41,26.2a3.83,3.83,0,0,1,.51-.62l-.55.14-.58.21-.09,0,0,.35a4.79,4.79,0,0,0,.16.84s0,0,0,0H25A2.61,2.61,0,0,1,25.41,26.2Z" style="fill:#ffceaa"/><path d="M23.16,26c0-.16,0-.33,0-.52V25l.44-.19h0c.25-.1.46-.17.7-.25s.45-.14.68-.19A12.49,12.49,0,0,1,26.35,24a13.93,13.93,0,0,1,2.79-.12c.21,0,.48,0,.71.07s.47.09.71.14a6,6,0,0,1,1.36.5,6.09,6.09,0,0,1,1.21.81,4.84,4.84,0,0,1,.95,1.14l.05.1h1.64l0-.1a4.61,4.61,0,0,1,1-1.14A5.56,5.56,0,0,1,38,24.63a6,6,0,0,1,1.36-.5c.24-.05.47-.11.71-.14s.5-.06.71-.07a13.93,13.93,0,0,1,2.79.12,13.5,13.5,0,0,1,1.38.28c.23.05.45.12.68.19l.32.11c-.22-1-.38-1.84-.37-1.91-.28-1-.12-2.14-2-.57-.16.13.59-3.16-1.06-3.53s-1.6,1-2.1,1-1.6-2.93-3.35-3.36-1.43.88-2.32.88a3.54,3.54,0,0,1-3.52-3.24,3,3,0,0,1-2.4,1.22,3.18,3.18,0,0,1-.62-.07c.08.28-1.23,1.6-1.38,1.91-.63,1.25,0,3.19-.41,3.31s-.6-2.06-1.62-1a2.4,2.4,0,0,0-.72,1c-.33,1.11.37,2.66-.1,2.84s-1.15-2.34-1.5,1.1c0,.58-.1,1.17-.09,1.76Zm16.51-5.17a4.25,4.25,0,0,1,3,0,25,25,0,0,0-5.14,2A4.18,4.18,0,0,1,39.67,20.79ZM29.09,21a4.17,4.17,0,0,1,2.28,1.89,24.83,24.83,0,0,0-5.23-1.78A4.22,4.22,0,0,1,29.09,21Z" style="fill:#ffceaa"/><path d="M25.66,27.08a2.61,2.61,0,0,0-.24.66.13.13,0,0,1-.05.07v0h0a.15.15,0,0,1-.15,0H25.1l.06.15a4.53,4.53,0,0,0,.39.72l.33.37a3.74,3.74,0,0,1-.19-.73A4.24,4.24,0,0,1,25.66,27.08Z" style="fill:#ffceaa"/><path d="M44.2,27.84h0v0s0,0-.05-.07a2.61,2.61,0,0,0-.24-.66,3.91,3.91,0,0,1,0,1.23,3.55,3.55,0,0,1-.39,1.19l0,0a1.43,1.43,0,0,0,.31-.24,3.23,3.23,0,0,0,.54-.57,4.57,4.57,0,0,0,.4-.72,2.14,2.14,0,0,0,.09-.27,2,2,0,0,1-.48.13A.15.15,0,0,1,44.2,27.84Z" style="fill:#ffceaa"/><path d="M32.26,40.74s-.06.64-.15,1.56a9.82,9.82,0,0,0,3.22.76A6.65,6.65,0,0,0,38,42.37l-.14-1.63Z" style="fill:#ffceaa"/><path d="M34.34,32.75a1.44,1.44,0,0,0,.6.18,1.52,1.52,0,0,0,.85-.37c.42-.3,1.21-.75,1-1.13a6.67,6.67,0,0,0-3.27-.11,1.21,1.21,0,0,0-.43.14c-.12.08-.08.23,0,.36A4.38,4.38,0,0,0,34.34,32.75Z" style="fill:#eda672"/><path d="M48.63,22.23c-.16.36-.32.51-.47.52,0,1.07,0,2.19-.13,3.32a.45.45,0,0,1,.12.29v.37a.38.38,0,0,1-.21.34c-.1,1-.24,2-.43,3-.06.33-.13.65-.2,1l0,.07c-.08.34-.17.67-.26,1-.05.15-.09.31-.14.46l-.09.27a14.28,14.28,0,0,1-1.27,2.91,14.11,14.11,0,0,1-1.34,1.86,17,17,0,0,1-3.93,3.52c-.33.21-.65.41-1,.59l-.13.08-.61.33-.55.29.23,1.84c1-.1,1.36,1.84,2.25,1.37.63-.32.59-1.73,1.29-1.79,1.09-.08.92,1.42,2.13,1.46.54,0,1.11-1.41,1.62-1.54,1.37-.33,1.34.75,2,.91a6.41,6.41,0,0,1,.25-.65c0,.18.07.4.12.64a1.2,1.2,0,0,0,.27-.07c.88-.36,4.07-17.7,3.5-20.58a23.26,23.26,0,0,0-1.33-4.44.09.09,0,0,1-.09,0C48.5,19.22,49.34,20.72,48.63,22.23Z" style="fill:#c1472b"/><path d="M32.1,42.3A16.13,16.13,0,0,1,26.25,38C24.2,35.73,23,31.14,22.52,27.13H22a.39.39,0,0,1-.39-.4v-.37A.39.39,0,0,1,22,26h.36a22.46,22.46,0,0,1,0-4.94c1.28-8.62,5.57-9.86,11.77-10.87-1.29-.43-2.53-.78-3.34-1a2.64,2.64,0,0,1-.95-.43c-2.4.69-3,.93-3.62,2a9.52,9.52,0,0,1-2.54,2,11.49,11.49,0,0,0-2.21,2.54c-.18.29-1.74,3.82-1.75,3.83-2.09,2.75,2.5,25.56,4,25.52s.62-1.92,1.88-1.87c1.08,0,.83,1.84,1.37,1.81,1.46-.08.71-1.67,1.63-1.67,1.37,0,.85,2.4,1.45,2.71s1.21-1.9,1.95-1.79c0-.22,0-.44.06-.64Z" style="fill:#c1472b"/><path d="M48.63,16.36c.09.14.17.27.26.39Z" style="fill:#c1472b"/><path d="M48,18.54c0,.19,0,.39,0,.6A.84.84,0,0,0,48,18.54Z" style="fill:#c1472b"/><path d="M32,43.09c0,.2,0,.42-.06.64h0Z" style="fill:#c1472b"/><path d="M47.31,31l0,.07Z" style="fill:#c1472b"/><path d="M38.55,42.1l.61-.33Z" style="fill:#c1472b"/><path d="M22.5,24.2c.35-3.44,1-.91,1.5-1.1s-.23-1.73.1-2.84a2.4,2.4,0,0,1,.72-1c1-1.06,1.15,1.13,1.62,1s-.22-2.06.41-3.31c.15-.31,1.46-1.63,1.38-1.91a3.18,3.18,0,0,0,.62.07,3,3,0,0,0,2.4-1.22,3.54,3.54,0,0,0,3.52,3.24c.89,0,.58-1.31,2.32-.88s2.84,3.36,3.35,3.36.44-1.41,2.1-1,.9,3.66,1.06,3.53c1.84-1.57,1.68-.47,2,.57,0,.07.15.9.37,1.91l.38.14h0l.44.19v.48a4.17,4.17,0,0,1,0,.52h1a.44.44,0,0,1,.27.11c.09-1.13.13-2.25.13-3.32-.45,0-.7-1.56-.19-3.32a1.21,1.21,0,0,0,.07-.29c0-.21,0-.41,0-.6-.42-.6-2.38.92-2.9,2-.65,1.4-1.49.1-1.11-1.82s-1.48-3.57-2.4-4.39-.53,0-.81,1.45-1.54-.06-1.23-2.14c.21-1.41-2.7-2.63-5.4-3.52-6.2,1-10.49,2.25-11.77,10.87a22.46,22.46,0,0,0,0,4.94h0C22.4,25.37,22.47,24.78,22.5,24.2Z" style="fill:#c1472b"/><path d="M46.54,27.11a.44.44,0,0,1,0,.1,4.31,4.31,0,0,0,.39,1.24c.16,0,.05-.72.1-1.32h-.38Z" style="fill:#c1472b"/><path d="M47,32.08c-.05.15-.09.31-.14.46C46.94,32.39,47,32.23,47,32.08Z" style="fill:#c1472b"/><path d="M47.51,30c.19-1,.33-2,.43-3l-.1,0A24.76,24.76,0,0,1,47.51,30Z" style="fill:#c1472b"/><path d="M40.26,41.1c-.32.2-.64.4-1,.59C39.61,41.51,39.93,41.31,40.26,41.1Z" style="fill:#c1472b"/><path d="M45.53,35.72a14.28,14.28,0,0,0,1.27-2.91,15.38,15.38,0,0,1-2.61,4.77A14.11,14.11,0,0,0,45.53,35.72Z" style="fill:#c1472b"/><path d="M22.52,27.13h0c.49,4,1.68,8.6,3.73,10.87a16.13,16.13,0,0,0,5.85,4.3h0C25.9,39.29,23.3,33.11,22.52,27.13Z" style="fill:#c1472b"/><path d="M39.67,20.79a4.18,4.18,0,0,0-2.18,2,25,25,0,0,1,5.14-2A4.25,4.25,0,0,0,39.67,20.79Z" style="fill:#d5532c"/><path d="M29.09,21a4.22,4.22,0,0,0-2.95.11,24.83,24.83,0,0,1,5.23,1.78A4.17,4.17,0,0,0,29.09,21Z" style="fill:#d5532c"/><path d="M31.49,37s0,0,0-.06a7,7,0,0,0-.78.24c-.14.05-.33,0-.37-.09-.14-.41-.24-.18-.16.1l.09.65c.11.35.25-.4.46-.5a2.33,2.33,0,0,1,.65-.19L31.3,37Z" style="fill:#aa4c3f"/><path d="M38.35,37.1s-.05.09-.07.14a2.83,2.83,0,0,1,.6.25c.19.12.25.88.4.54l.15-.63c.11-.27,0-.51-.14-.11,0,.11-.25.11-.38,0s-.38-.17-.65-.27v0Z" style="fill:#aa4c3f"/><path d="M38.23,37.23l-.13,0a14.43,14.43,0,0,1-3,.24,12.55,12.55,0,0,1-3.39-.36l-.29.06h0a6.45,6.45,0,0,0,2.17,1.75A3.14,3.14,0,0,0,36,39a4.08,4.08,0,0,0,2.27-1.8Z" style="fill:#aa4c3f"/><path d="M31.68,37.07a.56.56,0,0,1-.19-.09l-.19,0,.08.12h0Z" style="fill:#aa4c3f"/><path d="M38.26,37.08s0,.08-.16.11l.13,0h.05c0-.05,0-.1.07-.14Z" style="fill:#aa4c3f"/><path d="M33.49,36.65l.53-.06a11.27,11.27,0,0,1,1.54.06c.3,0,.91.13,1.49.22l-.71-.21c-.68-.45.89,0,1.92.4,0,0,0,0,0,0A5.34,5.34,0,0,0,35,35.59a5.46,5.46,0,0,0-3.5,1.3s0,0,0,0C32.41,36.69,33.64,36.47,33.49,36.65Z" style="fill:#aa4c3f"/><path d="M31.49,37c.4-.07,1.34-.24,2-.33.15-.18-1.08,0-2,.27C31.49,36.94,31.47,37,31.49,37Z" style="fill:#aa4c3f"/><path d="M36.34,36.66l.71.21,1.21.21v0C37.23,36.67,35.66,36.21,36.34,36.66Z" style="fill:#aa4c3f"/><path d="M35.56,36.65A11.27,11.27,0,0,0,34,36.59l-.53.06a.43.43,0,0,1-.15.11l-1.66.31a12.55,12.55,0,0,0,3.39.36,14.43,14.43,0,0,0,3-.24l-1.05-.32C36.47,36.78,35.86,36.68,35.56,36.65Z" style="fill:#aa4c3f"/><path d="M33.49,36.65c-.66.09-1.6.26-2,.33a.56.56,0,0,0,.19.09l1.66-.31A.43.43,0,0,0,33.49,36.65Z" style="fill:#aa4c3f"/><path d="M38.26,37.08l-1.21-.21,1.05.32C38.21,37.16,38.25,37.12,38.26,37.08Z" style="fill:#aa4c3f"/><path d="M31.55,27.25a.34.34,0,0,1-.14-.15A2.73,2.73,0,0,0,30,25.52a3.51,3.51,0,0,0-2.55,0,3.45,3.45,0,0,0-1.82,1.54,4.24,4.24,0,0,0,0,1.23,3.74,3.74,0,0,0,.19.73,2,2,0,0,0,.21.2,1.28,1.28,0,0,0,.32.24,2.77,2.77,0,0,0,.34.2,3.33,3.33,0,0,0,.77.26,3.4,3.4,0,0,0,.84.11l.22,0h.21l.48,0a8.18,8.18,0,0,0,.89-.08c.24,0,.48-.08.71-.14A4.42,4.42,0,0,0,31.55,27.25Zm-2.22,2.18a1.3,1.3,0,0,1-1.94-.27,2.12,2.12,0,0,1-.12-2.44,1.79,1.79,0,0,1,.74-.67,1.44,1.44,0,0,1,1-.08,1.56,1.56,0,0,1,.94,1.2A2.17,2.17,0,0,1,29.33,29.43Z" style="fill:#fff"/><path d="M29.05,26a1.44,1.44,0,0,0-1,.08,1.79,1.79,0,0,0-.74.67,2.12,2.12,0,0,0,.12,2.44,1.3,1.3,0,0,0,1.94.27A2.17,2.17,0,0,0,30,27.17,1.56,1.56,0,0,0,29.05,26Z" style="fill:#4c0c0a"/><path d="M29.72,25.15l-.62,0h-.39l.87.15a2.43,2.43,0,0,1,1.91,1.59,1.58,1.58,0,0,1,.06.37.18.18,0,0,0,.27-.09A2.62,2.62,0,0,0,31,25.38l-.65-.16A5.79,5.79,0,0,0,29.72,25.15Z" style="fill:#eda672"/><path d="M25.34,27.84l-.15,0A.15.15,0,0,0,25.34,27.84Z" style="fill:#eda672"/><path d="M25.41,26.2a2.61,2.61,0,0,0-.38,1l.46,0c-.17.23-.13.38-.12.65a.13.13,0,0,0,.05-.07,2.61,2.61,0,0,1,.24-.66,1.78,1.78,0,0,1,.16-.51A3.35,3.35,0,0,1,28,25.18l-.2,0c-.42.05-.84.11-1.25.2-.23.05-.45.12-.67.18A3.83,3.83,0,0,0,25.41,26.2Z" style="fill:#eda672"/><path d="M29.58,25.29l-.87-.15-.67,0a3.35,3.35,0,0,0-2.22,1.39,1.78,1.78,0,0,0-.16.51,3.45,3.45,0,0,1,1.82-1.54,3.51,3.51,0,0,1,2.55,0,2.73,2.73,0,0,1,1.38,1.58.34.34,0,0,0,.14.15,1.58,1.58,0,0,0-.06-.37A2.43,2.43,0,0,0,29.58,25.29Z" style="fill:#eda672"/><path d="M25,27.38c0-.05,0-.12,0-.19H24.9a6,6,0,0,0,.2.6h.09A.51.51,0,0,1,25,27.38Z" style="fill:#eda672"/><path d="M25.37,27.84v0s0,0,0,0Z" style="fill:#eda672"/><path d="M25.49,27.16l-.46,0c0,.07,0,.14,0,.19a.51.51,0,0,0,.17.43l.15,0s0,0,0,0C25.36,27.54,25.32,27.39,25.49,27.16Z" style="fill:#eda672"/><path d="M43.88,27.08a3.45,3.45,0,0,0-1.82-1.54,3.51,3.51,0,0,0-2.55,0,2.73,2.73,0,0,0-1.38,1.58.26.26,0,0,1-.14.15,4.54,4.54,0,0,0,.57,2.42,2.85,2.85,0,0,0,.31.12,8.2,8.2,0,0,0,.86.18,8.6,8.6,0,0,0,.9.08l.48,0h.21l.21,0a3.28,3.28,0,0,0,.84-.11,3.41,3.41,0,0,0,.78-.26,2.48,2.48,0,0,0,.31-.18,3.55,3.55,0,0,0,.39-1.19A3.91,3.91,0,0,0,43.88,27.08Zm-1.73,2.08a1.3,1.3,0,0,1-1.94.27,2.17,2.17,0,0,1-.66-2.26,1.58,1.58,0,0,1,.94-1.2,1.39,1.39,0,0,1,1,.08,1.79,1.79,0,0,1,.74.67A2.09,2.09,0,0,1,42.15,29.16Z" style="fill:#fff"/><path d="M41.53,26.05a1.39,1.39,0,0,0-1-.08,1.58,1.58,0,0,0-.94,1.2,2.17,2.17,0,0,0,.66,2.26,1.3,1.3,0,0,0,1.94-.27,2.09,2.09,0,0,0,.12-2.44A1.79,1.79,0,0,0,41.53,26.05Z" style="fill:#4c0c0a"/><path d="M38,27.25a1.58,1.58,0,0,1,.06-.37A2.43,2.43,0,0,1,40,25.29l.92-.16H40.8l-.62,0a5.34,5.34,0,0,0-1.77.41h0a2.68,2.68,0,0,0-.67,1.59A.18.18,0,0,0,38,27.25Z" style="fill:#eda672"/><path d="M42.06,25.2l-.7-.06a3.54,3.54,0,0,1,2.36,1.43,1.78,1.78,0,0,1,.16.51,2.61,2.61,0,0,1,.24.66s0,.05.05.07c0-.27,0-.42-.12-.65l.46,0a2.61,2.61,0,0,0-.38-1,3.57,3.57,0,0,0-.64-.75l-.18-.05C42.9,25.31,42.48,25.25,42.06,25.2Z" style="fill:#eda672"/><path d="M44.35,27.81l-.15,0A.15.15,0,0,0,44.35,27.81Z" style="fill:#eda672"/><path d="M41.36,25.14h-.48l-.92.16a2.43,2.43,0,0,0-1.91,1.59,1.58,1.58,0,0,0-.06.37.26.26,0,0,0,.14-.15,2.73,2.73,0,0,1,1.38-1.58,3.51,3.51,0,0,1,2.55,0,3.45,3.45,0,0,1,1.82,1.54,1.78,1.78,0,0,0-.16-.51A3.54,3.54,0,0,0,41.36,25.14Z" style="fill:#eda672"/><path d="M44.51,27.19a1.54,1.54,0,0,1,0,.19.54.54,0,0,1-.18.43,2,2,0,0,0,.48-.13,3.57,3.57,0,0,0,.16-.46Z" style="fill:#eda672"/><path d="M44.17,27.84h0l0,0Z" style="fill:#eda672"/><path d="M44.17,27.81l0,0,.15,0a.54.54,0,0,0,.18-.43,1.54,1.54,0,0,0,0-.19l-.46,0C44.22,27.39,44.18,27.54,44.17,27.81Z" style="fill:#eda672"/><path d="M22.44,26.46a.59.59,0,0,0,0,.13,1.36,1.36,0,0,1,0-.2Z" style="fill:#b53116"/><path d="M45.61,24.51c-.23-.07-.45-.14-.68-.19A13.5,13.5,0,0,0,43.55,24a13.93,13.93,0,0,0-2.79-.12c-.21,0-.48,0-.71.07s-.47.09-.71.14a6,6,0,0,0-1.36.5,5.56,5.56,0,0,0-1.21.81,4.61,4.61,0,0,0-1,1.14l0,.1H34.13l-.05-.1a4.84,4.84,0,0,0-.95-1.14,6.09,6.09,0,0,0-1.21-.81,6,6,0,0,0-1.36-.5c-.24-.05-.47-.11-.71-.14s-.5-.06-.71-.07a13.93,13.93,0,0,0-2.79.12,12.49,12.49,0,0,0-1.38.28c-.23.05-.46.12-.68.19s-.45.15-.7.25h0l-.44.19v.48c0,.19,0,.36,0,.52h-.75a3,3,0,0,0,0,.43,1.36,1.36,0,0,0,0,.2l.06.54h.64a.35.35,0,0,0,.18-.05c0,.16.08.32.13.48a6.14,6.14,0,0,0,.4,1,7,7,0,0,0,.58.94,5.36,5.36,0,0,0,.8.78,2.17,2.17,0,0,0,.47.32,3.33,3.33,0,0,0,.5.25,4.36,4.36,0,0,0,1.05.31,4.28,4.28,0,0,0,1.06.1h.53l.48,0c.31,0,.68-.09,1-.13s.67-.14,1-.26a5.77,5.77,0,0,0,1-.41,3.65,3.65,0,0,0,1.57-1.52,2.44,2.44,0,0,0,.21-.53,1.55,1.55,0,0,0,.06-.31v-.47h1.6v.47l.06.31a2.47,2.47,0,0,0,.22.53,3.68,3.68,0,0,0,1.56,1.52,6.26,6.26,0,0,0,1,.41c.33.12.66.17,1,.26s.7.12,1,.13l.48,0h.53a4.28,4.28,0,0,0,1.06-.1,4.5,4.5,0,0,0,1-.31,3.33,3.33,0,0,0,.5-.25,2.37,2.37,0,0,0,.46-.32,5,5,0,0,0,.81-.78,7,7,0,0,0,.58-.94,6.09,6.09,0,0,0,.39-1c0-.12.07-.24.1-.35-.19-.76-.41-1.74-.59-2.59ZM33.25,27.75a1.25,1.25,0,0,1-.2.69,2.77,2.77,0,0,1-1.21,1,4.63,4.63,0,0,1-.81.3l-.16,0a1.81,1.81,0,0,1-.18.21,2.4,2.4,0,0,1-1.26.63,3.91,3.91,0,0,1-2.72-.4A2.78,2.78,0,0,1,25.88,29l-.33-.37a4.53,4.53,0,0,1-.39-.72l-.06-.15a3.34,3.34,0,0,1-1.16-.55l1-.05s0,0,0,0a4.79,4.79,0,0,1-.16-.84l0-.35.09,0,.58-.21.55-.14a3.82,3.82,0,0,1,3.46-1.08,3.54,3.54,0,0,1,1.59.88,3.82,3.82,0,0,1,.51.18,4.73,4.73,0,0,1,1,.61,4.19,4.19,0,0,1,.75.77Zm11.58-.07a2.14,2.14,0,0,1-.09.27,4.57,4.57,0,0,1-.4.72,3.23,3.23,0,0,1-.54.57,1.43,1.43,0,0,1-.31.24l0,0a2.7,2.7,0,0,1-.62.77,4,4,0,0,1-2.73.4A2.4,2.4,0,0,1,38.85,30a1.53,1.53,0,0,1-.29-.37c-.17-.06-.34-.11-.5-.18a2.77,2.77,0,0,1-1.21-1,1.18,1.18,0,0,1-.2-.69l0-.81a3.63,3.63,0,0,1,.75-.77,4.9,4.9,0,0,1,1-.6,3.49,3.49,0,0,1,1.78-1.07,3.82,3.82,0,0,1,3.32.95c.35.08.69.16,1,.27l.59.21.09,0,0,.35a5.93,5.93,0,0,1-.16.84.14.14,0,0,1,0,.06l.61,0A4.46,4.46,0,0,1,44.83,27.68Z" style="fill:#b53116"/><path d="M47.87,26.27c-.64-.16-.82.31-.86.86h.75l.08,0c0-.22,0-.43,0-.65C47.88,26.4,47.87,26.33,47.87,26.27Z" style="fill:#b53116"/><path d="M22.44,26.46v-.07c0-.14,0-.29-.05-.43H22a.39.39,0,0,0-.39.4v.37a.39.39,0,0,0,.39.4h.49l-.06-.54A.59.59,0,0,1,22.44,26.46Z" style="fill:#b53116"/><path d="M48.15,26.73v-.37a.45.45,0,0,0-.12-.29c0,.34-.05.67-.09,1A.38.38,0,0,0,48.15,26.73Z" style="fill:#b53116"/><path d="M46.73,26a4.17,4.17,0,0,0,0-.52V25l-.44-.19h0l-.38-.14c.18.85.4,1.83.59,2.59a.44.44,0,0,0,0-.1l.09,0H47c0-.55.22-1,.86-.86,0,.06,0,.13,0,.19,0,.22,0,.43,0,.65l.1,0c0-.33.06-.66.09-1a.44.44,0,0,0-.27-.11Z" style="fill:#b53116"/><path d="M22.41,26h0c0,.14,0,.29.05.43A3,3,0,0,1,22.41,26Z" style="fill:#b53116"/><path d="M22.46,26.59l.06.54h0Z" style="fill:#b53116"/><path d="M29.27,30.05l-.48,0h-.21l-.22,0a3.4,3.4,0,0,1-.84-.11,3.33,3.33,0,0,1-.77-.26,2.77,2.77,0,0,1-.34-.2,1.28,1.28,0,0,1-.32-.24,2,2,0,0,1-.21-.2,2.78,2.78,0,0,0,.83,1.23,3.91,3.91,0,0,0,2.72.4A2.4,2.4,0,0,0,30.69,30a1.81,1.81,0,0,0,.18-.21c-.23.06-.47.09-.71.14A8.18,8.18,0,0,1,29.27,30.05Z" style="fill:#b53116"/><path d="M27.84,25.2l.2,0,.35-.09.32.05h.39l.62,0a5.79,5.79,0,0,1,.6.07l.65.16a3.54,3.54,0,0,0-1.59-.88,3.82,3.82,0,0,0-3.46,1.08c.22-.06.44-.13.67-.18C27,25.31,27.42,25.25,27.84,25.2Z" style="fill:#b53116"/><path d="M28.39,25.09l-.35.09.67,0Z" style="fill:#b53116"/><path d="M23.94,27.25a3.34,3.34,0,0,0,1.16.55,6,6,0,0,1-.2-.6Z" style="fill:#b53116"/><path d="M42.37,29.94a3.28,3.28,0,0,1-.84.11l-.21,0h-.21l-.48,0a8.6,8.6,0,0,1-.9-.08,8.2,8.2,0,0,1-.86-.18,2.85,2.85,0,0,1-.31-.12,1.53,1.53,0,0,0,.29.37,2.4,2.4,0,0,0,1.26.63,4,4,0,0,0,2.73-.4,2.7,2.7,0,0,0,.62-.77,2.48,2.48,0,0,1-.31.18A3.41,3.41,0,0,1,42.37,29.94Z" style="fill:#b53116"/><path d="M39.57,25.22a6,6,0,0,1,.61-.07l.62,0h.08l.27,0,.21.05.7.06c.42.05.84.11,1.25.2l.18.05a3.82,3.82,0,0,0-3.32-.95,3.49,3.49,0,0,0-1.78,1.07h0A5.93,5.93,0,0,1,39.57,25.22Z" style="fill:#b53116"/><path d="M41.15,25.09l-.27,0h.48Z" style="fill:#b53116"/><path d="M44.83,27.68a4.46,4.46,0,0,0,.77-.43l-.61,0A3.57,3.57,0,0,1,44.83,27.68Z" style="fill:#b53116"/><path d="M33.88,56.7c-1.44-.05-2.73-.16-3.9-.31l.41,1.14,4.7,10.81,0,0V56.72C34.72,56.72,34.31,56.72,33.88,56.7Z" style="fill:#d8e2ef"/><path d="M28.56,51.8c.41,1.54.9,3.09,1.42,4.59,1.17.15,2.46.26,3.9.31.43,0,.84,0,1.24,0V49.8h0l-2.85,4.66Z" style="fill:#d8e2ef"/><path d="M29.05,49.64l.93-.42,1.3-.58a3,3,0,0,0,.23-1h-1.1L28,49.58v0Z" style="fill:#fff"/><path d="M30,49.22l-.93.42,6.07.16V47.65H31.51a3,3,0,0,1-.23,1Z" style="fill:#fff"/><path d="M28,49.62c0,.15.07.3.1.46l.92-.44Z" style="fill:#fff"/><path d="M32.27,54.46l2.85-4.66-6.07-.16-.92.44c.13.57.27,1.14.43,1.72Z" style="fill:#fff"/><path d="M42.54,49.61h-.27l.2.16C42.49,49.72,42.52,49.67,42.54,49.61Z" style="fill:#d8e2ef"/><path d="M35.12,56.72V68.38l0,0,.05-.12,0,0,.24-.46,5-11.42A35,35,0,0,1,35.12,56.72Z" style="fill:#d8e2ef"/><path d="M42,51.57l-.91.65c0,.91-.05,1.79-.12,2.66C41.36,53.79,41.7,52.68,42,51.57Z" style="fill:#d8e2ef"/><path d="M35.12,56.72a35,35,0,0,0,5.33-.36l.07-.15c.16-.44.31-.88.46-1.33.07-.87.12-1.75.12-2.66L38,54.46,35.12,49.8h0Z" style="fill:#d8e2ef"/><path d="M40.46,49.67l1.81-.05-2.44-2H38.44l0,.36A4.5,4.5,0,0,1,40.46,49.67Z" style="fill:#fff"/><path d="M40.29,49.59l.14.08h0a4.5,4.5,0,0,0-2-1.66l.07.73C39.12,49,39.71,49.28,40.29,49.59Z" style="fill:#fff"/><path d="M38.47,48l0-.36H37.5A7.1,7.1,0,0,1,38.47,48Z" style="fill:#fff"/><path d="M35.12,49.8l5.31-.13-.14-.08c-.58-.31-1.17-.6-1.75-.85L38.47,48a7.1,7.1,0,0,0-1-.36H35.12V49.8Z" style="fill:#fff"/><path d="M40.47,49.69c.6.32,1.2.66,1.77,1l.21-.86s0,0,0-.06l-.2-.16-1.81.05Z" style="fill:#fff"/><path d="M40.47,49.69v0h0Z" style="fill:#fff"/><path d="M41.1,52.22l.91-.65c.08-.29.16-.58.23-.87-.57-.35-1.17-.69-1.77-1a4.49,4.49,0,0,1,.63,2.42Z" style="fill:#fff"/><path d="M35.12,49.8,38,54.46l3.12-2.24v-.11a4.49,4.49,0,0,0-.63-2.42l0,0Z" style="fill:#fff"/><path d="M23.38,51.25a5.75,5.75,0,0,0-1.27.12,7.6,7.6,0,0,1,1.25-.1Z" style="fill:#d9a155"/><path d="M18.61,53.35a1.58,1.58,0,0,0-.12.15h0A1.19,1.19,0,0,1,18.61,53.35Z" style="fill:#d9a155"/><polygon points="35 68.24 35.01 68.25 35.01 68.24 35 68.24" style="fill:#d9a155"/><path d="M34.7,68.11l.21.32V68.2Z" style="fill:#d9a155"/><path d="M35.34,68.51l.29-.46-.29.12Z" style="fill:#d9a155"/><path d="M35.29,68.19h0l0,0Z" style="fill:#d9a155"/><path d="M50.78,53h.15a12.28,12.28,0,0,0-4.18-1.54h0A11.93,11.93,0,0,1,50.78,53Z" style="fill:#c98f49"/><path d="M18.61,53.35a6.59,6.59,0,0,1,3.5-2A5.1,5.1,0,0,0,18.61,53.35Z" style="fill:#c98f49"/><path d="M21.92,54.27l0-.17-.35-.21a2.92,2.92,0,0,1,.5-.48c0-.07,0-.15,0-.22a5.27,5.27,0,0,1,1.21-1.92,7.6,7.6,0,0,0-1.25.1,6.59,6.59,0,0,0-3.5,2,1.19,1.19,0,0,0-.09.15A9.68,9.68,0,0,1,21.92,54.27Z" style="fill:#c98f49"/><path d="M24.87,63.73c.68-1.08,1.48-2.31,1.48-2.31s-.42-.12-1.51-.47a17.85,17.85,0,0,1-1.11,4.67l0-.06c-.1.78-.19,1.55-.28,2.32a34.76,34.76,0,0,0,7.51,1.72c-.5-1-1-2.22-1.51-3.52C26.46,65.06,24.43,64.42,24.87,63.73Z" style="fill:#c98f49"/><path d="M34.7,68.11c-1.87-.83-3.71-1.49-5.29-2,.49,1.3,1,2.47,1.51,3.52a35,35,0,0,0,4,.23v-1.4Z" style="fill:#c98f49"/><path d="M21.6,53.89l.35.21c.05-.23.09-.46.15-.69A2.92,2.92,0,0,0,21.6,53.89Z" style="fill:#c98f49"/><path d="M43.87,61.64,45.29,64c.53.89-2.94,1.61-7.24,3.16-.39,1-.79,1.86-1.18,2.67a34.83,34.83,0,0,0,9.56-1.9l-.54-6.83C44.41,61.5,43.87,61.64,43.87,61.64Z" style="fill:#c98f49"/><path d="M48.2,53.83a6,6,0,0,1,1.92-.77,5,5,0,0,1,.66-.09,11.93,11.93,0,0,0-4-1.55,5.75,5.75,0,0,1,1.39,2.17A2,2,0,0,1,48.2,53.83Z" style="fill:#c98f49"/><path d="M35.63,68.05l-.29.46v1.31c.51,0,1,0,1.53,0,.39-.81.79-1.71,1.18-2.67C37.27,67.39,36.45,67.7,35.63,68.05Z" style="fill:#c98f49"/><polygon points="35.01 68.25 35.12 68.43 35.09 68.34 35.01 68.25" style="fill:#b0772b"/><polygon points="35.09 68.34 35.12 68.43 35.12 68.38 35.09 68.34" style="fill:#b0772b"/><path d="M35,68.25h0l-.09,0v.23l.21.34v-.34Z" style="fill:#b0772b"/><path d="M34.91,68.43v1.4h.21V68.77Z" style="fill:#b0772b"/><polygon points="35.12 68.43 35.23 68.25 35.16 68.33 35.12 68.43" style="fill:#b0772b"/><polygon points="35.12 68.38 35.12 68.43 35.16 68.33 35.12 68.38" style="fill:#b0772b"/><path d="M35.29,68.19l0,.06-.12.18v.34l0,0,.19-.3v-.34Z" style="fill:#b0772b"/><path d="M35.15,68.81l0,0v1.06h.22V68.51Z" style="fill:#b0772b"/><path d="M56,58.22c-.2.14-2.88,2-3,3.2a.68.68,0,0,1-.19.4c0,.67,0,1.42,0,2.28,0,.28,0,.55,0,.81a34.08,34.08,0,0,0,3.27-2.21C56.1,61.21,56.08,59.71,56,58.22Z" style="fill:#d9a155"/><path d="M56,57.84c0-.15,0-.29,0-.44h0a1.48,1.48,0,0,1,0,.22Z" style="fill:#d9a155"/><path d="M52.86,61.82a2,2,0,0,1-.5.38,8,8,0,0,0,.17,2.52,2.21,2.21,0,0,1,.07.3l.19-.11c0-.26,0-.53,0-.81C52.82,63.24,52.83,62.49,52.86,61.82Z" style="fill:#d9a155"/><path d="M52.36,62.2c-.53.29-1.16.54-1.13,1.18a3.72,3.72,0,0,1-.88,2.86c.77-.38,1.52-.79,2.25-1.22a2.21,2.21,0,0,0-.07-.3A8,8,0,0,1,52.36,62.2Z" style="fill:#d9a155"/><path d="M52.38,54.73c.13.3.24.58.33.85L56,57.38v0h0a5,5,0,0,0-2-3.51A4.79,4.79,0,0,0,50.93,53,3.3,3.3,0,0,1,52.38,54.73Z" style="fill:#c98f49"/><path d="M52.71,55.58c-.09-.27-.2-.55-.33-.85a5.55,5.55,0,0,1,.14.75Z" style="fill:#c98f49"/><path d="M52.38,54.73A3.3,3.3,0,0,0,50.93,53h-.15A4.29,4.29,0,0,1,52.38,54.73Z" style="fill:#c98f49"/><path d="M48.2,53.83A12.69,12.69,0,0,1,48.48,57l3.43-1.86.61.33a5.55,5.55,0,0,0-.14-.75A4.29,4.29,0,0,0,50.78,53a5,5,0,0,0-.66.09A6,6,0,0,0,48.2,53.83Z" style="fill:#c98f49"/><path d="M56,57.62a1.48,1.48,0,0,0,0-.22h0Z" style="fill:#c98f49"/><path d="M56.05,58.21l0-.37c0,.13,0,.25,0,.38Z" style="fill:#c98f49"/><path d="M46.27,63.32c-.06-.77-.14-1.54-.23-2.31l-.15,0,.54,6.83h0c0-.72,0-1.44,0-2.16S46.33,64.12,46.27,63.32Z" style="fill:#c98f49"/><path d="M53.85,59.22c-.31.35-.6.71-.91,1,0,.47-.06,1-.08,1.56a.68.68,0,0,0,.19-.4c.1-1.18,2.78-3.06,3-3.2,0-.13,0-.25,0-.38l0-.22C56,58.78,54.68,58.28,53.85,59.22Z" style="fill:#c98f49"/><path d="M52.44,60.73c0,.51-.06,1-.08,1.47a2,2,0,0,0,.5-.38c0-.58,0-1.09.08-1.56A4.42,4.42,0,0,1,52.44,60.73Z" style="fill:#c98f49"/><path d="M52.36,62.2c0-.47,0-1,.08-1.47a2.58,2.58,0,0,1-1.65.66c-1.43,0-2.32,1.07-3.3.28a5.11,5.11,0,0,1-.82-.86L46,61c.09.77.17,1.54.23,2.31s.11,1.6.14,2.4,0,1.44,0,2.16a35.43,35.43,0,0,0,3.91-1.64,3.72,3.72,0,0,0,.88-2.86C51.2,62.74,51.83,62.49,52.36,62.2Z" style="fill:#c98f49"/><path d="M56,57.41v0l-3.27-1.8a7,7,0,0,1,.34,2.15Z" style="fill:#c98f49"/><path d="M52.61,57.78l.44-.05a7,7,0,0,0-.34-2.15l-.19-.1A15.24,15.24,0,0,1,52.61,57.78Z" style="fill:#c98f49"/><path d="M52.52,55.48l-.61-.33L48.48,57a11.71,11.71,0,0,1-.11,1.23l4.24-.46A15.24,15.24,0,0,0,52.52,55.48Z" style="fill:#c98f49"/><path d="M52.94,60.26c.31-.33.6-.69.91-1,.83-.94,2.13-.44,2.15-1.6l0-.21-2.93.32C53.06,58.43,53,59.23,52.94,60.26Z" style="fill:#c98f49"/><path d="M52.94,60.26c.06-1,.12-1.83.11-2.53l-.44.05c0,1-.1,2-.17,2.95A4.42,4.42,0,0,0,52.94,60.26Z" style="fill:#c98f49"/><path d="M48.37,58.24c-.18,1.24-.57,2.22-1.19,2.41l-.51.16a5.11,5.11,0,0,0,.82.86c1,.79,1.87-.23,3.3-.28a2.58,2.58,0,0,0,1.65-.66c.07-1,.15-2,.17-2.95Z" style="fill:#c98f49"/><path d="M17.28,61.1c-1-1.49-2.4-1.66-2.81-3.06A32,32,0,0,0,14,62.86a35.43,35.43,0,0,0,3.94,2.56v-.13C17.7,63.67,17.48,62.24,17.28,61.1Z" style="fill:#d9a155"/><path d="M14.9,56.33a1.66,1.66,0,0,0-.06.21c0-.07.05-.14.07-.2Z" style="fill:#d9a155"/><path d="M17.92,65.42h0s0-.08,0-.13Z" style="fill:#d9a155"/><path d="M17.28,61.1c.2,1.14.42,2.57.63,4.19-.14-1.32-.33-2.67-.48-4l-.07-.09A.76.76,0,0,1,17.28,61.1Z" style="fill:#d9a155"/><path d="M20.9,63.12c-1.47-.24-2.22-.14-3.47-1.82.15,1.32.34,2.67.48,4,0,0,0,.09,0,.13a34.19,34.19,0,0,0,5.48,2.46c.09-.77.18-1.54.28-2.32A8.24,8.24,0,0,0,20.9,63.12Z" style="fill:#d9a155"/><path d="M14.45,58s0,0,0,0c.11-.53.23-1,.37-1.5A14.08,14.08,0,0,0,14.45,58Z" style="fill:#c98f49"/><path d="M17.57,55.18a4.58,4.58,0,0,1,.92-1.68,2.48,2.48,0,0,0-.71.08A4.63,4.63,0,0,0,15.69,55a3.68,3.68,0,0,0-.78,1.3L17,57A10.19,10.19,0,0,1,17.57,55.18Z" style="fill:#c98f49"/><path d="M18.52,53.5h0a4.58,4.58,0,0,0-.92,1.68A10.83,10.83,0,0,1,18.52,53.5Z" style="fill:#c98f49"/><path d="M17.57,55.18A10.19,10.19,0,0,0,17,57l.29.09A8.27,8.27,0,0,1,17.57,55.18Z" style="fill:#c98f49"/><path d="M23.69,65.56l0,.06A17.85,17.85,0,0,0,24.84,61l-.42-.13C24.15,62.39,23.9,64,23.69,65.56Z" style="fill:#c98f49"/><path d="M22,58.7a12.57,12.57,0,0,1-.07-4.43,9.68,9.68,0,0,0-3.4-.77,10.83,10.83,0,0,0-.95,1.68,8.27,8.27,0,0,0-.33,1.93Z" style="fill:#c98f49"/><path d="M17.28,61.1c-.31-1.73-.55-2.79-.55-2.79A8,8,0,0,1,17,57l-2-.68c0,.06,0,.13-.07.2-.14.47-.26,1-.37,1.5C14.88,59.44,16.25,59.61,17.28,61.1Z" style="fill:#c98f49"/><path d="M17.24,57.11,17,57a8,8,0,0,0-.22,1.29s.24,1.06.55,2.79a.76.76,0,0,0,.08.11l.07.09A23.37,23.37,0,0,1,17.24,57.11Z" style="fill:#c98f49"/><path d="M23,60.35c-.49-.16-.82-.79-1-1.65l-4.75-1.59a23.37,23.37,0,0,0,.19,4.19c1.25,1.68,2,1.58,3.47,1.82a8.24,8.24,0,0,1,2.79,2.44c.21-1.59.46-3.17.73-4.74Z" style="fill:#c98f49"/><path d="M24.48,51.92c.66-.36,1.37-.73,2.09-1.08l.38-.19-.13-.09.25-.2a2.4,2.4,0,0,1,.11-.23l-.24-.54h.51c.12-.17.25-.33.38-.48-.68-.89-3,.51-4.45,2.13a4.92,4.92,0,0,1,.71.06Z" style="fill:#b0772b"/><path d="M30.39,57.53l-.5-1.16c-1.07-.14-2-.31-2.86-.49l8,12.36,0,0A103.63,103.63,0,0,1,30.39,57.53Z" style="fill:#b0772b"/><path d="M27.18,50.13a2.4,2.4,0,0,0-.11.23l.15-.13Z" style="fill:#b0772b"/><path d="M28,49.62l0,0s0-.06,0-.09a.79.79,0,0,0-.17-.37c-.13.15-.26.31-.38.48Z" style="fill:#b0772b"/><path d="M26.77,52.11A5.26,5.26,0,0,1,27,50.67l0,0-.38.19c-.72.35-1.43.72-2.09,1.08L27,55.76A36.12,36.12,0,0,1,26.77,52.11Z" style="fill:#b0772b"/><path d="M27.6,51.12,27,50.67a5.26,5.26,0,0,0-.21,1.44A36.12,36.12,0,0,0,27,55.76l.08.12c.84.18,1.79.35,2.86.49Z" style="fill:#b0772b"/><path d="M26.94,49.59l.24.54a5.28,5.28,0,0,1,.27-.53Z" style="fill:#b0772b"/><path d="M29.89,56.37l.5,1.16L30,56.39Z" style="fill:#b0772b"/><path d="M28,49.62l-.53,0a5.28,5.28,0,0,0-.27.53l0,.1Z" style="fill:#b0772b"/><path d="M28.56,51.8l-1-.68,2.29,5.25.09,0C29.46,54.89,29,53.34,28.56,51.8Z" style="fill:#b0772b"/><path d="M27.07,50.36l-.25.2.13.09.05,0A2.13,2.13,0,0,1,27.07,50.36Z" style="fill:#b0772b"/><path d="M28,49.58l0,0H28Z" style="fill:#b0772b"/><path d="M27.32,50.47l-.1-.24-.15.13a2.13,2.13,0,0,0-.07.27Z" style="fill:#b0772b"/><path d="M27,50.63l-.05,0,0,0S27,50.64,27,50.63Z" style="fill:#b0772b"/><path d="M27.32,50.47l-.32.16s0,0,0,0l.62.45Z" style="fill:#b0772b"/><path d="M27.32,50.47l.81-.39c0-.16-.07-.31-.1-.46H28l-.76.61Z" style="fill:#b0772b"/><path d="M28.56,51.8c-.16-.58-.3-1.15-.43-1.72l-.81.39.28.65Z" style="fill:#b0772b"/><polygon points="24.48 51.92 24.09 51.31 24.47 51.92 24.48 51.92" style="fill:#b0772b"/><path d="M24.09,51.31a4.92,4.92,0,0,0-.71-.06l0,0C23.8,51.28,24.09,51.31,24.09,51.31Z" style="fill:#b0772b"/><polygon points="26.97 55.87 26.97 55.86 26.96 55.86 26.97 55.87" style="fill:#b0772b"/><path d="M34.91,68.13l.09.11h0L27,55.88l-.06,0h0L34.7,68.11l.21.09Z" style="fill:#b0772b"/><path d="M27,55.86h0s0-.07,0-.1l-2.47-3.84h0Z" style="fill:#b0772b"/><path d="M27,55.86l.06,0L27,55.76S27,55.83,27,55.86Z" style="fill:#b0772b"/><path d="M27,55.86q-1-.21-1.74-.45A15,15,0,0,1,22,54.1l0,.17a6.52,6.52,0,0,1,.59.29,5.18,5.18,0,0,1,2.43,3.14,11.21,11.21,0,0,1-.1,3.25c1.09.35,1.51.47,1.51.47s-.8,1.23-1.48,2.31c-.44.69,1.59,1.33,4.54,2.35A41.46,41.46,0,0,1,27,55.87Z" style="fill:#b0772b"/><path d="M24.09,51.31s-.29,0-.73,0a5.27,5.27,0,0,0-1.21,1.92c0,.07,0,.15,0,.22a18.3,18.3,0,0,1,2.37-1.49Z" style="fill:#b0772b"/><path d="M29.41,66.08c1.58.54,3.42,1.2,5.29,2L27,55.87A41.46,41.46,0,0,0,29.41,66.08Z" style="fill:#b0772b"/><path d="M27,55.86l-2.49-3.94a18.3,18.3,0,0,0-2.37,1.49c-.06.23-.1.46-.15.69a15,15,0,0,0,3.27,1.31Q26,55.65,27,55.86Z" style="fill:#b0772b"/><path d="M34.91,68.2l.09,0-.09-.11Z" style="fill:#b0772b"/><path d="M24.94,57.7a5.18,5.18,0,0,0-2.43-3.14,6.52,6.52,0,0,0-.59-.29A12.57,12.57,0,0,0,22,58.7l2.63.87c-.08.41-.13.83-.2,1.25l.42.13A11.21,11.21,0,0,0,24.94,57.7Z" style="fill:#b0772b"/><path d="M23,60.35l1.41.47c.07-.42.12-.84.2-1.25L22,58.7C22.19,59.56,22.52,60.19,23,60.35Z" style="fill:#b0772b"/><path d="M40.85,56.3a41.67,41.67,0,0,1-.76,4.43l3.17-4.91C42.54,56,41.74,56.16,40.85,56.3Z" style="fill:#b0772b"/><path d="M43.12,50.31l.31.25-.61.43,0,.06.8.49c.61.4,1.18.79,1.68,1.14l.88-1.37.59.11c-1.49-1.59-3.66-2.87-4.21-1.81l.9,0Z" style="fill:#b0772b"/><path d="M40.46,56.36a101.55,101.55,0,0,1-5.05,11.42l-.2.44.06,0,4.82-7.47a41.67,41.67,0,0,0,.76-4.43Z" style="fill:#b0772b"/><path d="M40.85,56.3c.89-.14,1.69-.31,2.41-.48l2-3.14c-.5-.35-1.07-.74-1.68-1.14l-.8-.49L41,55.21C40.93,55.58,40.89,55.94,40.85,56.3Z" style="fill:#b0772b"/><path d="M40.46,56.36l.39-.06c0-.36.08-.72.11-1.09l-.44,1Z" style="fill:#b0772b"/><path d="M42.8,51.05l0-.06,0,0Z" style="fill:#b0772b"/><path d="M43.12,50.31l.32-.72-.9,0c0,.06,0,.11-.07.17Z" style="fill:#b0772b"/><path d="M35.21,68.22l.2-.44-.24.46Z" style="fill:#b0772b"/><path d="M42,51.57c-.31,1.11-.65,2.22-1,3.31,0,.11,0,.22,0,.33l1.84-4.16,0,0Z" style="fill:#b0772b"/><path d="M41,55.21c0-.11,0-.22,0-.33-.15.45-.3.89-.46,1.33Z" style="fill:#b0772b"/><polygon points="43.43 50.56 43.12 50.31 42.82 50.99 43.43 50.56" style="fill:#b0772b"/><path d="M42.82,51l.3-.68-.65-.53s0,0,0,.06l-.21.86.53.33Z" style="fill:#b0772b"/><path d="M42.77,51l-.53-.33c-.07.29-.15.58-.23.87Z" style="fill:#b0772b"/><path d="M46.16,51.31l-.88,1.37h0Z" style="fill:#b0772b"/><path d="M40.09,60.73c0,.13-.07.26-.1.39l3.35-5.32-.08,0Z" style="fill:#b0772b"/><path d="M40.09,60.73,35.27,68.2h0l.05-.06v0l.29-.12L40,61.12C40,61,40.06,60.86,40.09,60.73Z" style="fill:#b0772b"/><path d="M43.34,55.8l2-3.11h0l-2,3.14Z" style="fill:#b0772b"/><path d="M46.76,51.42h0l-.59-.11Z" style="fill:#b0772b"/><path d="M45.71,58.52a4.62,4.62,0,0,1,1.06-3.43,5.81,5.81,0,0,1,1.43-1.26,2,2,0,0,0-.05-.24,5.75,5.75,0,0,0-1.39-2.17l-.6-.11-.86,1.38c1.34.94,2.22,1.63,2.22,1.63a16.52,16.52,0,0,1-2.78,1.1l-1.4.38L40,61.12a42.19,42.19,0,0,1-1.94,6c4.3-1.55,7.77-2.27,7.24-3.16l-1.42-2.31s.54-.14,2-.59l-.2-2.52Z" style="fill:#b0772b"/><path d="M35.63,68.05c.82-.35,1.64-.66,2.42-.94a42.19,42.19,0,0,0,1.94-6Z" style="fill:#b0772b"/><path d="M44.74,55.42a16.52,16.52,0,0,0,2.78-1.1s-.88-.69-2.22-1.63l-2,3.11Z" style="fill:#b0772b"/><path d="M35.34,68.13l-.05.06.05,0Z" style="fill:#b0772b"/><path d="M48.2,53.83a5.81,5.81,0,0,0-1.43,1.26,4.62,4.62,0,0,0-1.06,3.43L48.48,57A12.69,12.69,0,0,0,48.2,53.83Z" style="fill:#b0772b"/><polygon points="45.71 58.52 45.69 58.53 45.71 58.53 45.71 58.53 45.71 58.52" style="fill:#b0772b"/><path d="M45.89,61.05,46,61c-.1-.83-.22-1.66-.35-2.48Z" style="fill:#b0772b"/><path d="M45.69,58.53c.13.82.25,1.65.35,2.48l.63-.2a4.43,4.43,0,0,1-1-2.28Z" style="fill:#b0772b"/><path d="M45.71,58.52h0l2.66-.29A11.71,11.71,0,0,0,48.48,57Z" style="fill:#b0772b"/><path d="M48.37,58.24l-2.66.29a4.43,4.43,0,0,0,1,2.28l.51-.16C47.8,60.46,48.19,59.48,48.37,58.24Z" style="fill:#b0772b"/><path d="M49,16.94l-.13-.19a18,18,0,0,1,1.43,2.79C50.55,19.4,50.07,18.26,49,16.94Z" style="fill:#dff4fb"/><path d="M49,16.94l-.13-.19a18,18,0,0,1,1.43,2.79C50.55,19.4,50.07,18.26,49,16.94Z" style="fill:#9ad8e8;opacity:0.6900000000000001"/><path d="M32.74,7.85a2.86,2.86,0,0,1,2,.28c.22.11,2.63,0,3.43.49.24.15,5,1.78,5.59,2.61.29.39,1.85,1.77,2.09,2a14.69,14.69,0,0,1,2.81,3.13c-1-1.65-2.13-4.52-6.77-6.46-5.73-2.41-8.55-2.43-10.34-2-.41.09-2.2.34-1.67.82.77-.22,1.71-.48,2.89-.83Z" style="fill:#dff4fb"/><path d="M32.74,7.85a2.86,2.86,0,0,1,2,.28c.22.11,2.63,0,3.43.49.24.15,5,1.78,5.59,2.61.29.39,1.85,1.77,2.09,2a14.69,14.69,0,0,1,2.81,3.13c-1-1.65-2.13-4.52-6.77-6.46-5.73-2.41-8.55-2.43-10.34-2-.41.09-2.2.34-1.67.82.77-.22,1.71-.48,2.89-.83Z" style="fill:#9ad8e8;opacity:0.6900000000000001"/><path d="M30.8,9.11c.81.26,2.05.61,3.34,1l.14,0c6.27-1,12.83,2.59,13.47,6.46.09.54.18,1.21.24,2a.84.84,0,0,1,0,.6c.08,1.08.13,2.3.12,3.61.15,0,.31-.16.47-.52.71-1.51-.13-3,1.6-2.67a.09.09,0,0,0,.09,0,18,18,0,0,0-1.43-2.79c-.09-.12-.17-.25-.26-.39a14.69,14.69,0,0,0-2.81-3.13c-.24-.23-1.8-1.61-2.09-2-.6-.83-5.35-2.46-5.59-2.61-.8-.48-3.21-.38-3.43-.49a2.86,2.86,0,0,0-2-.28h0c-1.18.35-2.12.61-2.89.83A2.64,2.64,0,0,0,30.8,9.11Z" style="fill:#c1472b"/><path d="M30.8,9.11c.81.26,2.05.61,3.34,1l.14,0c6.27-1,12.83,2.59,13.47,6.46.09.54.18,1.21.24,2a.84.84,0,0,1,0,.6c.08,1.08.13,2.3.12,3.61.15,0,.31-.16.47-.52.71-1.51-.13-3,1.6-2.67a.09.09,0,0,0,.09,0,18,18,0,0,0-1.43-2.79c-.09-.12-.17-.25-.26-.39a14.69,14.69,0,0,0-2.81-3.13c-.24-.23-1.8-1.61-2.09-2-.6-.83-5.35-2.46-5.59-2.61-.8-.48-3.21-.38-3.43-.49a2.86,2.86,0,0,0-2-.28h0c-1.18.35-2.12.61-2.89.83A2.64,2.64,0,0,0,30.8,9.11Z" style="fill:#9ad8e8;opacity:0.6900000000000001"/><path d="M39.54,13.67c-.31,2.08,1,3.58,1.23,2.14s-.12-2.28.81-1.45,2.77,2.47,2.4,4.39.46,3.22,1.11,1.82c.52-1.11,2.48-2.63,2.9-2-.06-.75-.15-1.42-.24-2-.64-3.87-7.2-7.47-13.47-6.46l-.14,0C36.84,11,39.75,12.26,39.54,13.67Z" style="fill:#c1472b"/><path d="M39.54,13.67c-.31,2.08,1,3.58,1.23,2.14s-.12-2.28.81-1.45,2.77,2.47,2.4,4.39.46,3.22,1.11,1.82c.52-1.11,2.48-2.63,2.9-2-.06-.75-.15-1.42-.24-2-.64-3.87-7.2-7.47-13.47-6.46l-.14,0C36.84,11,39.75,12.26,39.54,13.67Z" style="fill:#9ad8e8;opacity:0.6900000000000001"/><path d="M48.16,22.75c0-1.31,0-2.53-.12-3.61a1.21,1.21,0,0,1-.07.29C47.46,21.19,47.71,22.76,48.16,22.75Z" style="fill:#c1472b"/><path d="M48.16,22.75c0-1.31,0-2.53-.12-3.61a1.21,1.21,0,0,1-.07.29C47.46,21.19,47.71,22.76,48.16,22.75Z" style="fill:#9ad8e8;opacity:0.6900000000000001"/><path d="M47.51,44.64c-.25.74-.52,1.86.08,2.2s.5-1.08.29-2.21A.78.78,0,0,1,47.51,44.64Z" style="fill:#dff4fb"/><path d="M47.51,44.64c-.25.74-.52,1.86.08,2.2s.5-1.08.29-2.21A.78.78,0,0,1,47.51,44.64Z" style="fill:#9ad8e8;opacity:0.79"/><path d="M47.51,44.64a.78.78,0,0,0,.37,0c-.05-.24-.09-.46-.12-.64A6.41,6.41,0,0,0,47.51,44.64Z" style="fill:#c1472b"/><path d="M47.51,44.64a.78.78,0,0,0,.37,0c-.05-.24-.09-.46-.12-.64A6.41,6.41,0,0,0,47.51,44.64Z" style="fill:#9ad8e8;opacity:0.79"/></svg>