<svg xmlns="http://www.w3.org/2000/svg" viewBox="0 0 69.83 69.83"><title>portrait-woman</title><path d="M46.69,29.19c.09-.33.18-.66.26-1C46.87,28.53,46.78,28.86,46.69,29.19Z" style="fill:#dff4fb"/><path d="M46.46,29.92l.09-.27Z" style="fill:#dff4fb"/><path d="M47,28.12c.08-.32.15-.64.21-1C47.1,27.47,47,27.8,47,28.12Z" style="fill:#dff4fb"/><path d="M43.85,34.69a18.77,18.77,0,0,1-3.94,3.52A16.85,16.85,0,0,0,43.85,34.69Z" style="fill:#dff4fb"/><path d="M38.81,38.88,39,38.8Z" style="fill:#dff4fb"/><path d="M13.31,59.44c.26-1.77.56-3.55.89-5.32h0a5.25,5.25,0,0,1,.86-1.85A5,5,0,0,1,16.51,51a4.69,4.69,0,0,1,1.89-.62,6.35,6.35,0,0,1,4.64-2c1.47-1.62,3.77-3,4.45-2.13a6.25,6.25,0,0,1,3.71-1.72c0-.27.08-.56.12-.88.16-1.33.33-3,.45-4.22h0l0,.37a15.84,15.84,0,0,1-3-1.19,3.44,3.44,0,0,0-2-.35,7.82,7.82,0,0,1-5-1.11,2.21,2.21,0,0,0-1.2-.32,6,6,0,0,1-4.81-2.31,2.08,2.08,0,0,0-1-.7A4.46,4.46,0,0,1,12,30.29,2.27,2.27,0,0,0,11.33,29a3.2,3.2,0,0,1-1-2.14,2.25,2.25,0,0,0-.55-1.34A3.26,3.26,0,0,1,11,20.32a2.26,2.26,0,0,0,1.12-1,3.18,3.18,0,0,1,.46-.63,1.15,1.15,0,0,0,.26-.47,3.24,3.24,0,0,1,2.65-2.42.72.72,0,0,0,.61-.7,3.27,3.27,0,0,1,3.27-3.25h0a1,1,0,0,0,.86-.46,4.82,4.82,0,0,1,2.89-1.85,3.92,3.92,0,0,0,2.71-1.79c.77-1.4,1.62-1.36,6.51-2.82h0a2.86,2.86,0,0,1,2,.28,1,1,0,0,0,.71.09,3.57,3.57,0,0,1,2.72.4,1,1,0,0,0,.81.1,3.54,3.54,0,0,1,2.76.28,3.56,3.56,0,0,0,1.78.41,3.12,3.12,0,0,1,2.67,1.3,3.47,3.47,0,0,0,1.06,1,3.89,3.89,0,0,1,.8.6,3.38,3.38,0,0,0,1.55.87A3.84,3.84,0,0,1,52,12.91a3.45,3.45,0,0,0,1.81,2.16,3.87,3.87,0,0,1,1.93,2.16,3.43,3.43,0,0,0,.89,1.36,3.19,3.19,0,0,1,1,2.43,3.39,3.39,0,0,0,.34,1.6,4.49,4.49,0,0,1-1.06,5.27,3.41,3.41,0,0,0-1.15,2.29,6,6,0,0,1-4.31,5.23,3.51,3.51,0,0,0-1.38.78,7.88,7.88,0,0,1-6.42,2,3.44,3.44,0,0,0-2,.36,14.65,14.65,0,0,1-3.9,1.29l0-.37.55-.3-.57.28.08.9.38,4.38h1.39l2.44,2h.27c.55-1.06,2.72.22,4.21,1.81a13,13,0,0,1,3.44,1.2,4.7,4.7,0,0,1,3,.41,4.94,4.94,0,0,1,1.53,1.2,5.13,5.13,0,0,1,1,1.79h0q.69,2.61,1.27,5.24c.24,1.12.45,2.24.66,3.36A34.92,34.92,0,1,0,13,62.07C13.09,61.2,13.18,60.32,13.31,59.44Z" style="fill:#dff4fb"/><path d="M35.07,64.89a103.49,103.49,0,0,0,5-11.42h0Z" style="fill:#fff"/><path d="M27.66,46.6a.44.44,0,0,0,0,.1l2.39-1.94h1.1l0-.25a6.25,6.25,0,0,0-3.71,1.72A1.06,1.06,0,0,1,27.66,46.6Z" style="fill:#fff"/><path d="M34.7,65.37l0,0,.12.19-4.73-10.9A103.63,103.63,0,0,0,34.7,65.37Z" style="fill:#fff"/><path d="M34.78,65.54l.15-.23-.06,0Z" style="fill:#fff"/><path d="M33.59,44.41a11,11,0,0,1,3.56.35h1l-.38-4.38Q34.5,42,31.32,43.63c0,.32-.08.61-.12.88A10.94,10.94,0,0,1,33.59,44.41Z" style="fill:#ffceaa"/><polygon points="34.78 46.91 34.78 46.91 34.78 46.91 34.78 46.91" style="fill:#ffceaa"/><path d="M34.78,44.76h2.37a11,11,0,0,0-3.56-.35,10.94,10.94,0,0,0-2.39.1l0,.25Z" style="fill:#ffceaa"/><path d="M40.11,53.48h0l.06-.15Z" style="fill:#ffceaa"/><path d="M37.64,39.48a6.65,6.65,0,0,1-2.65.69,9.77,9.77,0,0,1-3.22-.76c-.12,1.21-.29,2.89-.45,4.22q3.18-1.66,6.4-3.25Z" style="fill:#eda672"/><path d="M42.06,23.94a3.68,3.68,0,0,0-2.63.73,3.62,3.62,0,0,0-1,1.51c-.08.26-.33.28-.39.13a3.31,3.31,0,0,1,1.9-3,3.41,3.41,0,0,1,4,.57,3.61,3.61,0,0,1,.58.89,3.2,3.2,0,0,0,.18-.52,5.91,5.91,0,0,0,.15-.84,2,2,0,0,0,0-.35l-.08,0c-.2-.08-.39-.15-.59-.21A10,10,0,0,0,43,22.51c-.41-.09-.82-.15-1.24-.2s-.81-.07-1.27-.07l-.62,0c-.2,0-.4,0-.6.07a5.73,5.73,0,0,0-1.16.34,4.73,4.73,0,0,0-1,.61,4.19,4.19,0,0,0-.75.77l0,.82a1.21,1.21,0,0,0,.21.69,2.79,2.79,0,0,0,1.2,1,4.45,4.45,0,0,0,.82.3,7.7,7.7,0,0,0,.86.18,8.18,8.18,0,0,0,.89.08l.48,0h.12s.06,0,0,0H41l.21,0a3.28,3.28,0,0,0,.84-.11,3.33,3.33,0,0,0,.77-.26,4,4,0,0,0,.35-.2,1.43,1.43,0,0,0,.31-.24,3.64,3.64,0,0,0,.54-.57c.08-.13.16-.25.23-.38A2.87,2.87,0,0,0,42.06,23.94Zm-3.43,2.42a2.31,2.31,0,0,1,1.25-.7,2.35,2.35,0,0,1,1.43.16A6.49,6.49,0,0,0,38.63,26.36Z" style="fill:#ffceaa"/><path d="M32.18,23.28a4.73,4.73,0,0,0-1-.61A5.73,5.73,0,0,0,30,22.33c-.2,0-.4-.06-.6-.07l-.62,0c-.46,0-.83,0-1.27.07s-.83.11-1.24.2a10.47,10.47,0,0,0-1.22.33c-.2.06-.39.13-.59.21l-.08,0c0,.12,0,.24,0,.35a5.91,5.91,0,0,0,.15.84c0,.12.08.22.12.34a2.93,2.93,0,0,1,.49-.71,3.41,3.41,0,0,1,4-.57,3.33,3.33,0,0,1,1.9,3c-.06.15-.31.13-.39-.13A3.37,3.37,0,0,0,27,23.94a2.81,2.81,0,0,0-2.09,1.33l.3.51a3.64,3.64,0,0,0,.54.57,1.28,1.28,0,0,0,.32.24,2.77,2.77,0,0,0,.34.2,4.25,4.25,0,0,0,1.61.37l.22,0h.05s0,0,0,0h.12l.48,0a8.18,8.18,0,0,0,.89-.08,8.38,8.38,0,0,0,.87-.18,4.63,4.63,0,0,0,.81-.3,2.88,2.88,0,0,0,1.21-1,1.28,1.28,0,0,0,.2-.69l0-.82A4.19,4.19,0,0,0,32.18,23.28Zm-4.43,2.54a2.31,2.31,0,0,1,1.42-.16,2.27,2.27,0,0,1,1.25.7A6.44,6.44,0,0,0,27.75,25.82Z" style="fill:#ffceaa"/><path d="M45.22,19.82a3.53,3.53,0,0,1-3.08-3.51,3.81,3.81,0,0,1,0-.59,3.54,3.54,0,0,1-5.44-2.33,3.48,3.48,0,0,1-2.32.88A3.54,3.54,0,0,1,30.91,11a3,3,0,0,1-2.4,1.22,3.1,3.1,0,0,1-.62-.07A3.5,3.5,0,0,1,28,13a3.28,3.28,0,0,1-2.09,3.05A3.27,3.27,0,0,1,23.4,19a3.31,3.31,0,0,1-1.25,2.34c0,.58-.09,1.17-.08,1.76h.75c0-.16,0-.33,0-.52v-.48l.45-.19h0c.26-.11.47-.18.7-.26l.69-.19A12.79,12.79,0,0,1,26,21.15,13.25,13.25,0,0,1,27.4,21a13.06,13.06,0,0,1,1.4,0,5.78,5.78,0,0,1,.7.08,5.55,5.55,0,0,1,.71.13,6.08,6.08,0,0,1,1.37.5,5.75,5.75,0,0,1,1.2.81,4.41,4.41,0,0,1,.95,1.14l.06.1h1.63l.06-.1a4.41,4.41,0,0,1,1-1.14,5.75,5.75,0,0,1,1.2-.81,6.08,6.08,0,0,1,1.37-.5,5.55,5.55,0,0,1,.71-.13,6,6,0,0,1,.7-.08,14.07,14.07,0,0,1,2.8.12,13.5,13.5,0,0,1,1.38.28l.68.19.2.07a3.1,3.1,0,0,1-.31-1.33A3.31,3.31,0,0,1,45.22,19.82ZM24.48,19.1a4.16,4.16,0,0,1,5.35-1.42A25.44,25.44,0,0,0,24.48,19.1ZM37.63,18a4.15,4.15,0,0,1,2.89-.64,4.2,4.2,0,0,1,2.59,1.44A25.44,25.44,0,0,0,37.63,18Z" style="fill:#ffceaa"/><path d="M37.49,37.85l.15,1.63.57-.28.6-.32L39,38.8c.33-.19.65-.39,1-.59a18.77,18.77,0,0,0,3.94-3.52,15.38,15.38,0,0,0,2.61-4.77l.09-.27c.05-.15.09-.31.14-.46.09-.33.18-.66.26-1v-.07c.08-.32.14-.65.21-1a26.76,26.76,0,0,0,.33-2.93l-.09,0H46.28l-.08,0a3.74,3.74,0,0,1-.12.45,5.35,5.35,0,0,1-.4,1,5.41,5.41,0,0,1-.58.94,4.55,4.55,0,0,1-.8.78,2.37,2.37,0,0,1-.46.32c-.17.08-.33.2-.5.26a4.61,4.61,0,0,1-1.05.3,4.28,4.28,0,0,1-1.06.1H40.7l-.48,0c-.31,0-.68-.09-1-.13s-.67-.14-1-.26a5.87,5.87,0,0,1-1-.41A3.71,3.71,0,0,1,35.67,26a2.25,2.25,0,0,1-.21-.53,1.55,1.55,0,0,1-.06-.31v-.47H33.81v.47a1.55,1.55,0,0,1-.06.31,2.25,2.25,0,0,1-.21.53A3.71,3.71,0,0,1,32,27.52a5.87,5.87,0,0,1-1,.41c-.32.12-.66.17-1,.26s-.7.12-1,.13l-.47,0H28a4.23,4.23,0,0,1-1.06-.1,4.55,4.55,0,0,1-1.06-.3,4.59,4.59,0,0,1-.49-.26,2.17,2.17,0,0,1-.47-.32,4.55,4.55,0,0,1-.8-.78,5.41,5.41,0,0,1-.58-.94,6.14,6.14,0,0,1-.4-1c-.05-.16-.09-.32-.13-.48a.41.41,0,0,1-.18,0h-.64c.78,6,3.38,12.16,9.57,15.16h0c.09-.92.15-1.56.15-1.56Zm-4.8-9.28a1.28,1.28,0,0,1,.43-.14,6.56,6.56,0,0,1,3.28.12c.26.37-.53.82-1,1.12a1.4,1.4,0,0,1-.85.37,1.44,1.44,0,0,1-.6-.18,4.38,4.38,0,0,1-1.32-.93C32.61,28.8,32.57,28.65,32.69,28.57Zm-2,5.49h0a7.88,7.88,0,0,1-.54-.92c-.13-.33.32-.68.71-.77h-.2a10.39,10.39,0,0,1,3.92-1c3.08,0,3.7,1,3.7,1H38c.16,0,1,0,1,0,.2.13.2.52.06.75s-.37.58-.62.93h0s-1,2.93-3.34,3.12C31.72,37.43,30.73,34.06,30.73,34.06Z" style="fill:#ffceaa"/><path d="M46.39,23.07h.39a2.45,2.45,0,0,1-.38-.24A1.85,1.85,0,0,1,46.39,23.07Z" style="fill:#ffceaa"/><path d="M37.64,39.48l-.15-1.63H31.92s-.06.64-.15,1.56a9.77,9.77,0,0,0,3.22.76A6.65,6.65,0,0,0,37.64,39.48Z" style="fill:#ffceaa"/><path d="M25.9,35.11c-2-2.27-3.23-6.86-3.73-10.87h-.48a.4.4,0,0,1-.4-.39v-.38a.4.4,0,0,1,.4-.4h.36a22.46,22.46,0,0,1,0-4.94c1.29-8.68,5.63-9.88,11.9-10.9S46.77,9.82,47.41,13.7a43.29,43.29,0,0,1,.28,9.49.4.4,0,0,1,.12.28v.38a.41.41,0,0,1-.21.34c-.1,1-.25,2-.43,3-.06.33-.13.65-.21,1v.07c-.08.34-.17.67-.26,1,0,.15-.09.31-.14.46l-.09.27a14.86,14.86,0,0,1-1.27,2.91,15.1,15.1,0,0,1-1.34,1.86,16.85,16.85,0,0,1-3.94,3.52c-.32.21-.64.41-1,.59l-.14.08c-.2.12-.4.22-.6.32l-.55.3,0,.37a14.65,14.65,0,0,0,3.9-1.29,3.44,3.44,0,0,1,2-.36,7.88,7.88,0,0,0,6.42-2,3.51,3.51,0,0,1,1.38-.78,6,6,0,0,0,4.31-5.23,3.41,3.41,0,0,1,1.15-2.29A4.49,4.49,0,0,0,58,22.62a3.39,3.39,0,0,1-.34-1.6,3.19,3.19,0,0,0-1-2.43,3.43,3.43,0,0,1-.89-1.36,3.87,3.87,0,0,0-1.93-2.16A3.45,3.45,0,0,1,52,12.91a3.84,3.84,0,0,0-2.73-2.66,3.38,3.38,0,0,1-1.55-.87,3.89,3.89,0,0,0-.8-.6,3.47,3.47,0,0,1-1.06-1,3.12,3.12,0,0,0-2.67-1.3,3.56,3.56,0,0,1-1.78-.41,3.54,3.54,0,0,0-2.76-.28,1,1,0,0,1-.81-.1,3.57,3.57,0,0,0-2.72-.4,1,1,0,0,1-.71-.09,2.86,2.86,0,0,0-2-.28h0c-4.89,1.46-5.74,1.42-6.51,2.82a3.92,3.92,0,0,1-2.71,1.79,4.82,4.82,0,0,0-2.89,1.85,1,1,0,0,1-.86.46h0a3.27,3.27,0,0,0-3.27,3.25.72.72,0,0,1-.61.7,3.24,3.24,0,0,0-2.65,2.42,1.15,1.15,0,0,1-.26.47,3.18,3.18,0,0,0-.46.63,2.26,2.26,0,0,1-1.12,1A3.26,3.26,0,0,0,9.78,25.5a2.25,2.25,0,0,1,.55,1.34,3.2,3.2,0,0,0,1,2.14A2.27,2.27,0,0,1,12,30.29a4.46,4.46,0,0,0,2.78,3.51,2.08,2.08,0,0,1,1,.7,6,6,0,0,0,4.81,2.31,2.21,2.21,0,0,1,1.2.32,7.82,7.82,0,0,0,5,1.11,3.44,3.44,0,0,1,2,.35,15.84,15.84,0,0,0,3,1.19l0-.37A16.29,16.29,0,0,1,25.9,35.11Z" style="fill:#d5532c"/><path d="M47.5,24.22a26.76,26.76,0,0,1-.33,2.93c.18-1,.33-2,.43-3Z" style="fill:#d5532c"/><path d="M22.18,24.24h0c.5,4,1.69,8.6,3.73,10.87a16.29,16.29,0,0,0,5.85,4.3h0C25.56,36.4,23,30.22,22.18,24.24Z" style="fill:#d5532c"/><path d="M46.46,29.92a15.38,15.38,0,0,1-2.61,4.77,15.1,15.1,0,0,0,1.34-1.86A14.86,14.86,0,0,0,46.46,29.92Z" style="fill:#d5532c"/><path d="M38.21,39.2c.2-.1.4-.2.6-.32Z" style="fill:#d5532c"/><path d="M22.15,21.31A3.31,3.31,0,0,0,23.4,19a3.27,3.27,0,0,0,2.52-2.88A3.28,3.28,0,0,0,28,13a3.5,3.5,0,0,0-.12-.86,3.1,3.1,0,0,0,.62.07A3,3,0,0,0,30.91,11a3.54,3.54,0,0,0,3.52,3.24,3.48,3.48,0,0,0,2.32-.88,3.54,3.54,0,0,0,5.44,2.33,3.81,3.81,0,0,0,0,.59,3.53,3.53,0,0,0,3.08,3.51,3.31,3.31,0,0,0-.06.54,3.1,3.1,0,0,0,.31,1.33,4.55,4.55,0,0,1,.5.19h0l.45.19v.48a2.46,2.46,0,0,1,0,.28,2.45,2.45,0,0,0,.38.24h.63a.42.42,0,0,1,.28.12,43.29,43.29,0,0,0-.28-9.49c-.64-3.88-7.2-7.48-13.48-6.47S23.32,9.45,22,18.13a22.46,22.46,0,0,0,0,4.94h0C22.06,22.48,22.12,21.89,22.15,21.31Z" style="fill:#d5532c"/><path d="M46.55,29.65c.05-.15.09-.31.14-.46C46.64,29.34,46.6,29.5,46.55,29.65Z" style="fill:#d5532c"/><path d="M47,28.19v0Z" style="fill:#d5532c"/><path d="M39,38.8c.32-.18.64-.38,1-.59C39.6,38.41,39.28,38.61,39,38.8Z" style="fill:#d5532c"/><path d="M34,29.86a1.44,1.44,0,0,0,.6.18,1.4,1.4,0,0,0,.85-.37c.43-.3,1.22-.75,1-1.12a6.56,6.56,0,0,0-3.28-.12,1.28,1.28,0,0,0-.43.14c-.12.08-.08.23,0,.36A4.38,4.38,0,0,0,34,29.86Z" style="fill:#eda672"/><path d="M37.63,18a25.44,25.44,0,0,1,5.48.8,4.2,4.2,0,0,0-2.59-1.44A4.15,4.15,0,0,0,37.63,18Z" style="fill:#d5532c"/><path d="M26.89,17.37a4.23,4.23,0,0,0-2.41,1.73,25.44,25.44,0,0,1,5.35-1.42A4.22,4.22,0,0,0,26.89,17.37Z" style="fill:#d5532c"/><path d="M35.08,37.18c2.39-.19,3.34-3.12,3.34-3.12h0c-.16.23-.33.45-.53.71a3.41,3.41,0,0,1-1.48,1.17,4.15,4.15,0,0,1-1.67.31,4.56,4.56,0,0,1-3-.91,3.4,3.4,0,0,1-.7-.79s-.17-.25-.32-.49h0S31.72,37.43,35.08,37.18Z" style="fill:#e88567"/><path d="M39,33.13c.14-.23.14-.62-.06-.75,0,0-.83,0-1,0h0c0,.55-.11.89-.57,1.07a12.8,12.8,0,0,1-5.79,0,1,1,0,0,1-.58-1H30.9c-.39.09-.84.44-.71.77a7.88,7.88,0,0,0,.54.92h7.68C38.66,33.71,38.88,33.39,39,33.13Z" style="fill:#4c0c0a"/><path d="M31.75,35.34c0-.06.36-.93,2.16-.78s2.4.93,2.49,1.38a3.41,3.41,0,0,0,1.48-1.17c.2-.26.37-.48.53-.71H30.73c.15.24.29.45.32.49A3.4,3.4,0,0,0,31.75,35.34Z" style="fill:#4c0c0a"/><path d="M31.63,33.39a12.8,12.8,0,0,0,5.79,0c.46-.18.57-.52.57-1.07h-.14l-6.8,0A1,1,0,0,0,31.63,33.39Z" style="fill:#fff"/><path d="M33.91,34.56c-1.8-.15-2.14.72-2.16.78a4.56,4.56,0,0,0,3,.91,4.15,4.15,0,0,0,1.67-.31C36.31,35.49,35.6,34.7,33.91,34.56Z" style="fill:#b2543f"/><path d="M31,32.35h7.28s-.62-1-3.7-1a10.39,10.39,0,0,0-3.92,1h.2l.14,0Z" style="fill:#e88567"/><path d="M31,32.35l-.14,0h.15Z" style="fill:#e88567"/><polygon points="31.08 32.35 37.85 32.35 37.87 32.35 31.09 32.35 31.08 32.35" style="fill:#e88567"/><path d="M31,32.35Z" style="fill:#e88567"/><path d="M31,32.35v0l6.8,0H31Z" style="fill:#e88567"/><path d="M27,23.94a3.37,3.37,0,0,1,3.68,2.24c.08.26.33.28.39.13a3.33,3.33,0,0,0-1.9-3,3.41,3.41,0,0,0-4,.57,2.93,2.93,0,0,0-.49.71c.05.15.09.31.15.45s0,0,0,0h0c0,.05.05.1.07.16A2.81,2.81,0,0,1,27,23.94Z" style="fill:#4c0c0a"/><polygon points="24.84 25.1 24.83 25.1 24.84 25.11 24.84 25.1" style="fill:#4c0c0a"/><path d="M27.75,25.82a6.44,6.44,0,0,1,2.67.54,2.27,2.27,0,0,0-1.25-.7A2.31,2.31,0,0,0,27.75,25.82Z" style="fill:#eda672"/><path d="M44.22,25.1l.17,0v0a2.14,2.14,0,0,0,.09-.27,3.61,3.61,0,0,0-.58-.89,3.41,3.41,0,0,0-4-.57,3.31,3.31,0,0,0-1.9,3c.06.15.31.13.39-.13a3.62,3.62,0,0,1,1-1.51,3.68,3.68,0,0,1,2.63-.73,2.87,2.87,0,0,1,2.17,1.46l.09-.18Z" style="fill:#4c0c0a"/><path d="M44.32,25.22l.07-.14-.17,0Z" style="fill:#4c0c0a"/><path d="M39.88,25.66a2.31,2.31,0,0,0-1.25.7,6.49,6.49,0,0,1,2.68-.54A2.35,2.35,0,0,0,39.88,25.66Z" style="fill:#eda672"/><path d="M22.11,23.7a1.5,1.5,0,0,0,0-.2s0,.05,0,.07S22.11,23.66,22.11,23.7Z" style="fill:#b53116"/><path d="M47.53,23.38a2.76,2.76,0,0,1-.75-.31h-.39a1.85,1.85,0,0,0,0-.24,3.23,3.23,0,0,1-.93-1.14l-.2-.07-.68-.19a13.5,13.5,0,0,0-1.38-.28,14.07,14.07,0,0,0-2.8-.12,6,6,0,0,0-.7.08,5.55,5.55,0,0,0-.71.13,6.08,6.08,0,0,0-1.37.5,5.75,5.75,0,0,0-1.2.81,4.41,4.41,0,0,0-1,1.14l-.06.1H33.79l-.06-.1a4.41,4.41,0,0,0-.95-1.14,5.75,5.75,0,0,0-1.2-.81,6.08,6.08,0,0,0-1.37-.5,5.55,5.55,0,0,0-.71-.13,5.78,5.78,0,0,0-.7-.08,13.06,13.06,0,0,0-1.4,0,13.25,13.25,0,0,0-1.4.13,12.79,12.79,0,0,0-1.37.28l-.69.19c-.23.08-.44.15-.7.26h0l-.45.19v.48c0,.19,0,.36,0,.52h-.75c0,.15,0,.29,0,.43a1.5,1.5,0,0,1,0,.2c0,.18.05.36.07.54h.64a.41.41,0,0,0,.18,0c0,.16.08.32.13.48a6.14,6.14,0,0,0,.4,1,5.41,5.41,0,0,0,.58.94,4.55,4.55,0,0,0,.8.78,2.17,2.17,0,0,0,.47.32,4.59,4.59,0,0,0,.49.26,4.55,4.55,0,0,0,1.06.3,4.23,4.23,0,0,0,1.06.1h.53l.47,0c.32,0,.68-.09,1-.13s.67-.14,1-.26a5.87,5.87,0,0,0,1-.41A3.71,3.71,0,0,0,33.54,26a2.25,2.25,0,0,0,.21-.53,1.55,1.55,0,0,0,.06-.31v-.47H35.4v.47a1.55,1.55,0,0,0,.06.31,2.25,2.25,0,0,0,.21.53,3.71,3.71,0,0,0,1.57,1.52,5.87,5.87,0,0,0,1,.41c.33.12.66.17,1,.26s.7.12,1,.13l.48,0h.53a4.28,4.28,0,0,0,1.06-.1,4.61,4.61,0,0,0,1.05-.3c.17-.06.33-.18.5-.26a2.37,2.37,0,0,0,.46-.32,4.55,4.55,0,0,0,.8-.78,5.41,5.41,0,0,0,.58-.94,5.35,5.35,0,0,0,.4-1,3.74,3.74,0,0,0,.12-.45l.08,0h1.13l.09,0c0-.21,0-.43,0-.65ZM32.91,24.87a1.28,1.28,0,0,1-.2.69,2.88,2.88,0,0,1-1.21,1,4.63,4.63,0,0,1-.81.3,8.38,8.38,0,0,1-.87.18,8.18,8.18,0,0,1-.89.08l-.48,0h-.12s-.06,0,0,0h-.05l-.22,0a4.25,4.25,0,0,1-1.61-.37,2.77,2.77,0,0,1-.34-.2,1.28,1.28,0,0,1-.32-.24,3.64,3.64,0,0,1-.54-.57l-.3-.51c-.08.12-.17.25-.25.39s0,0-.06,0a.09.09,0,0,0,0,.05l0,0h0a3,3,0,0,1-1.24-.83l1.14.15a3.61,3.61,0,0,1,.22-.44c0-.12-.09-.22-.12-.34a5.91,5.91,0,0,1-.15-.84c0-.11,0-.23,0-.35l.08,0c.2-.08.39-.15.59-.21a10.47,10.47,0,0,1,1.22-.33c.41-.09.83-.15,1.24-.2s.81-.07,1.27-.07l.62,0c.2,0,.4,0,.6.07a5.73,5.73,0,0,1,1.16.34,4.73,4.73,0,0,1,1,.61,4.19,4.19,0,0,1,.75.77Zm11.6.86h0l0,0a.09.09,0,0,1,0-.05s0,0-.06,0l-.17-.26c-.07.13-.15.25-.23.38a3.64,3.64,0,0,1-.54.57,1.43,1.43,0,0,1-.31.24,4,4,0,0,1-.35.2,3.33,3.33,0,0,1-.77.26,3.28,3.28,0,0,1-.84.11l-.21,0h-.06s0,0,0,0h-.12l-.48,0a8.18,8.18,0,0,1-.89-.08,7.7,7.7,0,0,1-.86-.18,4.45,4.45,0,0,1-.82-.3,2.79,2.79,0,0,1-1.2-1,1.21,1.21,0,0,1-.21-.69l0-.82a4.19,4.19,0,0,1,.75-.77,4.73,4.73,0,0,1,1-.61,5.73,5.73,0,0,1,1.16-.34c.2,0,.4-.06.6-.07l.62,0c.46,0,.83,0,1.27.07s.83.11,1.24.2a10,10,0,0,1,1.22.33c.2.06.39.13.59.21l.08,0a2,2,0,0,1,0,.35,5.91,5.91,0,0,1-.15.84,3.2,3.2,0,0,1-.18.52l.13.26,1.14-.15A3.05,3.05,0,0,1,44.51,25.73Z" style="fill:#b53116"/><path d="M22.1,23.57s0,0,0-.07,0-.29,0-.43h-.36a.4.4,0,0,0-.4.4v.38a.4.4,0,0,0,.4.39h.48l-.06-.54S22.1,23.61,22.1,23.57Z" style="fill:#b53116"/><path d="M47.81,23.85v-.38a.4.4,0,0,0-.12-.28l-.09,1A.41.41,0,0,0,47.81,23.85Z" style="fill:#b53116"/><path d="M22.17,24.24h0c0-.18-.05-.36-.07-.54Z" style="fill:#b53116"/><path d="M46.42,22.07,46,21.88h0a4.55,4.55,0,0,0-.5-.19,3.23,3.23,0,0,0,.93,1.14,2.46,2.46,0,0,0,0-.28Z" style="fill:#b53116"/><path d="M47.69,23.19a.42.42,0,0,0-.28-.12h-.63a2.76,2.76,0,0,0,.75.31v.19c0,.22,0,.44,0,.65l.1,0Z" style="fill:#b53116"/><path d="M22.07,23.07h0c0,.14,0,.29,0,.43C22.08,23.36,22.07,23.22,22.07,23.07Z" style="fill:#b53116"/><path d="M24.81,25.06c-.06-.14-.1-.3-.15-.45a3.61,3.61,0,0,0-.22.44l.39.05S24.82,25.08,24.81,25.06Z" style="fill:#b53116"/><path d="M24.55,25.73h0Z" style="fill:#b53116"/><path d="M24.6,25.7s0,0,.06,0,.17-.27.25-.39-.05-.11-.07-.16C24.63,25.29,24.64,25.44,24.6,25.7Z" style="fill:#b53116"/><path d="M24.32,25.39a2.39,2.39,0,0,1,.12-.34L23.3,24.9a3,3,0,0,0,1.24.83C24.42,25.72,24.3,25.52,24.32,25.39Z" style="fill:#b53116"/><path d="M24.59,25.75a.09.09,0,0,1,0-.05s0,0-.05,0Z" style="fill:#b53116"/><path d="M24.83,25.1l-.39-.05a2.39,2.39,0,0,0-.12.34c0,.13.1.33.22.34h0s0,0,.05,0c0-.26,0-.41.24-.59Z" style="fill:#b53116"/><path d="M44.39,25.08l.23,0-.13-.26a2.14,2.14,0,0,1-.09.27Z" style="fill:#b53116"/><path d="M44.23,25.4l.17.26s0,0,.06,0a1.13,1.13,0,0,0-.14-.48Z" style="fill:#b53116"/><path d="M44.51,25.73Z" style="fill:#b53116"/><path d="M44.73,25.39a.32.32,0,0,1-.22.34,3.05,3.05,0,0,0,1.25-.83l-1.14.15A2.13,2.13,0,0,1,44.73,25.39Z" style="fill:#b53116"/><path d="M44.47,25.75l0,0a.09.09,0,0,1,0,0A.09.09,0,0,0,44.47,25.75Z" style="fill:#b53116"/><path d="M44.73,25.39a2.13,2.13,0,0,0-.11-.34l-.23,0-.07.14a1.13,1.13,0,0,1,.14.48.09.09,0,0,0,0,0h0A.32.32,0,0,0,44.73,25.39Z" style="fill:#b53116"/><path d="M33.54,53.81c-1.44-.05-2.74-.16-3.9-.31.13.38.27.76.41,1.14l4.73,10.9V53.83C34.37,53.83,34,53.83,33.54,53.81Z" style="fill:#d8e2ef"/><path d="M28.22,48.91c.41,1.54.9,3.09,1.42,4.59,1.16.15,2.46.26,3.9.31.43,0,.83,0,1.24,0V46.91h0l-2.85,4.66Z" style="fill:#d8e2ef"/><path d="M28.71,46.76l.92-.43,1.31-.58a3,3,0,0,0,.23-1h-1.1L27.68,46.7v0Z" style="fill:#fff"/><path d="M29.63,46.33l-.92.43,6.07.15V44.76H31.17a3,3,0,0,1-.23,1Z" style="fill:#fff"/><path d="M27.69,46.73c0,.15.06.3.1.46.32-.16.63-.3.92-.43Z" style="fill:#fff"/><path d="M31.93,51.57l2.85-4.66-6.07-.15c-.29.13-.6.27-.92.43.13.57.27,1.14.43,1.72Z" style="fill:#fff"/><path d="M42.2,46.72h-.27l.2.16A1.22,1.22,0,0,1,42.2,46.72Z" style="fill:#d8e2ef"/><path d="M34.82,65.35l.25-.46,5-11.41a36.54,36.54,0,0,1-5.33.35V65.54l.09-.21Z" style="fill:#d8e2ef"/><path d="M41.66,48.68l-.9.65c0,.91,0,1.79-.12,2.66C41,50.9,41.36,49.79,41.66,48.68Z" style="fill:#d8e2ef"/><path d="M34.78,53.83a36.54,36.54,0,0,0,5.33-.35l.07-.16c.15-.44.31-.88.46-1.33.07-.87.11-1.75.12-2.66l-3.12,2.24-2.86-4.66h0Z" style="fill:#d8e2ef"/><path d="M40.11,46.78l1.82-.05-2.44-2H38.1l0,.37A4.34,4.34,0,0,1,40.11,46.78Z" style="fill:#fff"/><path d="M40,46.7l.13.08h0a4.34,4.34,0,0,0-2-1.65l.06.72C38.78,46.11,39.37,46.39,40,46.7Z" style="fill:#fff"/><path d="M38.13,45.13l0-.37h-1A6.14,6.14,0,0,1,38.13,45.13Z" style="fill:#fff"/><path d="M34.78,46.91l5.3-.13L40,46.7c-.58-.31-1.17-.59-1.76-.85l-.06-.72a6.14,6.14,0,0,0-1-.37H34.78v2.15Z" style="fill:#fff"/><path d="M40.13,46.8c.6.33,1.19.66,1.77,1l.21-.86s0,0,0-.06l-.2-.16-1.82.05Z" style="fill:#fff"/><path d="M40.13,46.8l0,0h0Z" style="fill:#fff"/><path d="M40.76,49.33l.9-.65.24-.87c-.58-.35-1.17-.68-1.77-1a4.49,4.49,0,0,1,.63,2.42Z" style="fill:#fff"/><path d="M34.78,46.91l2.86,4.66,3.12-2.24v-.11a4.49,4.49,0,0,0-.63-2.42l-.05,0Z" style="fill:#fff"/><path d="M24.53,60.84c.68-1.08,1.48-2.31,1.48-2.31s-.66-.18-2.54-.8c-.34,1.15-.68,2.3-1,3.46q-.63,2.43-1.17,4.89c-.07.31-.12.62-.19.92a34.75,34.75,0,0,0,11,2.72,45,45,0,0,1-3.09-6.53C26.12,62.17,24.09,61.53,24.53,60.84Z" style="fill:#d9a155"/><path d="M20.28,50.5a4.5,4.5,0,0,1,1,.44,3.14,3.14,0,0,1,.45-.42c0-.07,0-.15,0-.22A5.28,5.28,0,0,1,23,48.36a6.35,6.35,0,0,0-4.64,2A4.66,4.66,0,0,1,20.28,50.5Z" style="fill:#d9a155"/><path d="M34.66,65.35l0,0,.16.26v0Z" style="fill:#d9a155"/><path d="M29.07,63.19a45,45,0,0,0,3.09,6.53h.25a1.23,1.23,0,0,1,.5,0h0c.55,0,1.1,0,1.66,0V65.31C32.62,64.43,30.7,63.75,29.07,63.19Z" style="fill:#d9a155"/><path d="M21.76,50.52a3.14,3.14,0,0,0-.45.42l.32.2A6.19,6.19,0,0,1,21.76,50.52Z" style="fill:#d9a155"/><path d="M32.41,69.73l.5,0h0A1.23,1.23,0,0,0,32.41,69.73Z" style="fill:#ba823a"/><path d="M47.57,60.76c-.33-1-.69-1.93-1-2.9-2.24.7-3,.89-3,.89s.76,1.24,1.41,2.32c.54.88-2.93,1.6-7.23,3.15A44.35,44.35,0,0,1,35,69.76v.07c.55,0,1.1,0,1.65,0,0,0,0,0,0,0a1.5,1.5,0,0,1,.63,0,34.57,34.57,0,0,0,12.11-3c-.11-.38-.21-.76-.32-1.13Q48.38,63.15,47.57,60.76Z" style="fill:#d9a155"/><path d="M49,49.94a4.94,4.94,0,0,1,.82-.21,13,13,0,0,0-3.44-1.2,5.57,5.57,0,0,1,1.37,2.1A5.41,5.41,0,0,1,49,49.94Z" style="fill:#d9a155"/><path d="M35,69.76a44.35,44.35,0,0,0,2.71-5.54c-.88.31-1.79.67-2.71,1.06Z" style="fill:#d9a155"/><path d="M34.78,65.54v0l.19-.3,0,0Z" style="fill:#d9a155"/><path d="M36.66,69.77s0,0,0,0l.64-.05A1.5,1.5,0,0,0,36.66,69.77Z" style="fill:#ba823a"/><path d="M34.62,65.33l0,0v4.51h.21V65.59Z" style="fill:#b0772b"/><path d="M35,69.83h0v-.07Z" style="fill:#b0772b"/><path d="M35,65.28h0l-.19.3v4.24H35l0-.07Z" style="fill:#b0772b"/><path d="M17.26,59.85A4.81,4.81,0,0,1,14.85,58a5.1,5.1,0,0,1-.7-1.81,5.36,5.36,0,0,1,.06-2h0c-.33,1.77-.63,3.55-.89,5.32-.13.88-.22,1.76-.33,2.63a34.59,34.59,0,0,0,4.88,3.31c-.07-.48-.14-1-.17-1.54C17.61,62.55,17.43,61.2,17.26,59.85Z" style="fill:#d9a155"/><path d="M22.49,61.19c.3-1.16.64-2.31,1-3.46l-.16,0a3.58,3.58,0,0,1-.25.42,4.92,4.92,0,0,1-1.35,1.26,5.09,5.09,0,0,1-3.71.71,4.52,4.52,0,0,1-.74-.22c.17,1.35.35,2.7.43,4,0,.55.1,1.06.17,1.54A35.48,35.48,0,0,0,21.13,67c.07-.3.12-.61.19-.92Q21.86,63.62,22.49,61.19Z" style="fill:#d9a155"/><path d="M18.27,50.47l.13-.13a4.69,4.69,0,0,0-1.89.62,5,5,0,0,0-1.44,1.31,5.25,5.25,0,0,0-.86,1.85h0l2.66.63A6.2,6.2,0,0,1,18.27,50.47Z" style="fill:#d9a155"/><path d="M16.87,54.75l4.79,1.13a12.52,12.52,0,0,1-.05-4.66L21.25,51s.05,0,.06-.06a4.5,4.5,0,0,0-1-.44,4.66,4.66,0,0,0-1.88-.16l-.13.13A6.2,6.2,0,0,0,16.87,54.75Z" style="fill:#d9a155"/><path d="M21.31,50.94s0,0-.06.06l.36.22s0-.06,0-.08Z" style="fill:#d9a155"/><path d="M14.15,56.15a5.1,5.1,0,0,0,.7,1.81,4.81,4.81,0,0,0,2.41,1.89,35.86,35.86,0,0,1-.39-5.1l-2.66-.63A5.36,5.36,0,0,0,14.15,56.15Z" style="fill:#d9a155"/><path d="M21.66,55.88l-4.79-1.13a35.86,35.86,0,0,0,.39,5.1,4.52,4.52,0,0,0,.74.22,5.09,5.09,0,0,0,3.71-.71,4.92,4.92,0,0,0,1.35-1.26,3.58,3.58,0,0,0,.25-.42l-.65-.21C22.2,57.31,21.87,56.7,21.66,55.88Z" style="fill:#d9a155"/><path d="M55.34,53.13h0a5.2,5.2,0,0,1,.2,2A4.87,4.87,0,0,1,55,57a4.79,4.79,0,0,1-2.45,2.13c0,.62,0,1.3,0,2.09a17,17,0,0,1-.56,4.2,34.68,34.68,0,0,0,5.36-3.69c-.21-1.12-.42-2.24-.66-3.36Q56,55.75,55.34,53.13Z" style="fill:#d9a155"/><path d="M52.51,59.13a5,5,0,0,1-.54.2,5.13,5.13,0,0,1-3.75-.45,4.83,4.83,0,0,1-1.39-1.11l-.3.09c.35,1,.71,1.93,1,2.9q.81,2.39,1.51,4.8c.11.37.21.75.32,1.13.85-.39,1.69-.81,2.51-1.27a17,17,0,0,0,.56-4.2C52.47,60.43,52.49,59.75,52.51,59.13Z" style="fill:#d9a155"/><path d="M52,51.84A7.41,7.41,0,0,1,52.65,54l2.68-.84h0a5.13,5.13,0,0,0-1-1.79,4.94,4.94,0,0,0-1.53-1.2,4.7,4.7,0,0,0-3-.41A4.72,4.72,0,0,1,52,51.84Z" style="fill:#d9a155"/><path d="M47.78,50.63l0,.07A13.06,13.06,0,0,1,48,55.41L52.65,54A7.41,7.41,0,0,0,52,51.84a4.72,4.72,0,0,0-2.19-2.11,4.94,4.94,0,0,0-.82.21A5.41,5.41,0,0,0,47.78,50.63Z" style="fill:#d9a155"/><path d="M52.51,59.13A4.79,4.79,0,0,0,55,57a4.87,4.87,0,0,0,.57-1.85,5.2,5.2,0,0,0-.2-2L52.65,54A39.9,39.9,0,0,1,52.51,59.13Z" style="fill:#d9a155"/><path d="M52.65,54,48,55.41c-.18,1.21-.57,2.16-1.18,2.35h0a4.83,4.83,0,0,0,1.39,1.11,5.13,5.13,0,0,0,3.75.45,5,5,0,0,0,.54-.2A39.9,39.9,0,0,0,52.65,54Z" style="fill:#d9a155"/><path d="M24.14,49c.66-.36,1.37-.73,2.08-1.08l.39-.19-.13-.09.25-.2c0-.08.07-.15.1-.23l-.23-.54h.51a4.45,4.45,0,0,1,.38-.48c-.68-.89-3,.51-4.45,2.13a4.66,4.66,0,0,1,.7.06Z" style="fill:#b0772b"/><path d="M26.83,47.24c0,.08-.07.15-.1.23l.15-.13Z" style="fill:#b0772b"/><path d="M27.64,46.73l0,0a.44.44,0,0,1,0-.1,1.06,1.06,0,0,0-.17-.37,4.45,4.45,0,0,0-.38.48Z" style="fill:#b0772b"/><path d="M30.05,54.64l-.5-1.15c-1.07-.14-2-.32-2.86-.5l8,12.36,0,0A103.63,103.63,0,0,1,30.05,54.64Z" style="fill:#b0772b"/><path d="M26.43,49.22a4.9,4.9,0,0,1,.21-1.44l0,0-.39.19c-.71.35-1.42.72-2.08,1.08l2.47,3.84A36.12,36.12,0,0,1,26.43,49.22Z" style="fill:#b0772b"/><path d="M27.26,48.23l-.62-.45a4.9,4.9,0,0,0-.21,1.44,36.12,36.12,0,0,0,.18,3.65l.08.12c.84.18,1.79.36,2.86.5Z" style="fill:#b0772b"/><path d="M26.6,46.7l.23.54a5.36,5.36,0,0,1,.28-.53Z" style="fill:#b0772b"/><path d="M27.64,46.73l-.53,0a5.36,5.36,0,0,0-.28.53l.05.1Z" style="fill:#b0772b"/><path d="M30.05,54.64c-.14-.38-.28-.76-.41-1.14h-.09Z" style="fill:#b0772b"/><path d="M27.26,48.23l2.29,5.26h.09c-.52-1.5-1-3-1.42-4.59Z" style="fill:#b0772b"/><path d="M26.73,47.47l-.25.2.13.09,0,0C26.68,47.65,26.7,47.55,26.73,47.47Z" style="fill:#b0772b"/><path d="M27.68,46.7l0,0h.05Z" style="fill:#b0772b"/><path d="M27,47.58l-.1-.24-.15.13c0,.08-.05.18-.08.27Z" style="fill:#b0772b"/><path d="M26.65,47.74l0,0,0,0Z" style="fill:#b0772b"/><path d="M27,47.58l-.33.16v0l.62.45Z" style="fill:#b0772b"/><path d="M27,47.58l.81-.39c0-.16-.07-.31-.1-.46h-.05l-.76.61Z" style="fill:#b0772b"/><path d="M28.22,48.91c-.16-.58-.3-1.15-.43-1.72l-.81.39.28.65Z" style="fill:#b0772b"/><path d="M21.76,50.52A17.84,17.84,0,0,1,24.14,49l-.4-.61a4.66,4.66,0,0,0-.7-.06,5.28,5.28,0,0,0-1.23,1.94C21.79,50.37,21.78,50.45,21.76,50.52Z" style="fill:#b0772b"/><path d="M24.88,52.53a18.15,18.15,0,0,1-2.77-1.05,5,5,0,0,1,1.15,1.33,4.86,4.86,0,0,1,.65,1.72,4.51,4.51,0,0,1-.07,1.86h0c-.13.44-.24.89-.37,1.33,1.88.62,2.54.8,2.54.8s-.8,1.23-1.48,2.31c-.44.69,1.59,1.33,4.54,2.35A41,41,0,0,1,26.62,53C26,52.83,25.4,52.68,24.88,52.53Z" style="fill:#b0772b"/><path d="M26.69,53l-.07,0a41,41,0,0,0,2.45,10.22c1.63.56,3.55,1.24,5.5,2.12v-.07l0,.09,0,0Z" style="fill:#b0772b"/><path d="M22.11,51.48a18.15,18.15,0,0,0,2.77,1.05c.52.15,1.1.3,1.74.44,0,0,0-.07,0-.1L24.14,49a17.84,17.84,0,0,0-2.38,1.49,6.19,6.19,0,0,0-.13.62A5.22,5.22,0,0,1,22.11,51.48Z" style="fill:#b0772b"/><path d="M26.62,53l.07,0-.08-.12S26.62,52.94,26.62,53Z" style="fill:#b0772b"/><path d="M34.57,65.31l0,0,0-.09Z" style="fill:#b0772b"/><path d="M23.84,56.4a4.5,4.5,0,0,1-.53,1.28l.16,0c.13-.44.24-.89.37-1.33Z" style="fill:#b0772b"/><path d="M23.84,56.39a4.51,4.51,0,0,0,.07-1.86,4.86,4.86,0,0,0-.65-1.72,5,5,0,0,0-1.15-1.33l-.5-.26a12.52,12.52,0,0,0,.05,4.66l2.18.52Z" style="fill:#b0772b"/><path d="M21.63,51.14s0,0,0,.08l.5.26A5.22,5.22,0,0,0,21.63,51.14Z" style="fill:#b0772b"/><path d="M21.66,55.88c.21.82.54,1.43,1,1.59l.65.21a4.5,4.5,0,0,0,.53-1.28Z" style="fill:#b0772b"/><path d="M42.78,47.42l.3.25-.6.43,0,.06.79.49c.62.4,1.18.79,1.69,1.14l.88-1.37.59.11c-1.49-1.59-3.66-2.87-4.21-1.81l.9,0Z" style="fill:#b0772b"/><path d="M39.75,57.84l3.16-4.91c-.71.17-1.51.34-2.4.48A41.24,41.24,0,0,1,39.75,57.84Z" style="fill:#b0772b"/><path d="M40.12,53.47a103.49,103.49,0,0,1-5,11.42l-.2.44.06,0,4.82-7.47a41.24,41.24,0,0,0,.76-4.43Z" style="fill:#b0772b"/><path d="M40.51,53.41c.89-.14,1.69-.31,2.4-.48l2-3.14c-.51-.35-1.07-.74-1.69-1.14l-.79-.49-1.84,4.16C40.59,52.69,40.55,53.05,40.51,53.41Z" style="fill:#b0772b"/><path d="M40.12,53.47l.39-.06c0-.36.08-.72.11-1.09l-.44,1Z" style="fill:#b0772b"/><path d="M42.46,48.16l0-.06,0,0Z" style="fill:#b0772b"/><path d="M42.78,47.42l.32-.72-.9,0a1.22,1.22,0,0,0-.07.17Z" style="fill:#b0772b"/><path d="M34.87,65.33l.2-.44-.25.46Z" style="fill:#b0772b"/><path d="M41.66,48.68c-.3,1.11-.65,2.22-1,3.31,0,.11,0,.22,0,.33l1.84-4.16,0,0Z" style="fill:#b0772b"/><path d="M40.62,52.32c0-.11,0-.22,0-.33-.15.45-.31.89-.46,1.33Z" style="fill:#b0772b"/><polygon points="43.08 47.67 42.78 47.42 42.48 48.1 43.08 47.67" style="fill:#b0772b"/><path d="M42.48,48.1l.3-.68-.65-.53s0,0,0,.06l-.21.86.53.33Z" style="fill:#b0772b"/><path d="M42.43,48.14l-.53-.33-.24.87Z" style="fill:#b0772b"/><path d="M45.88,56.08h0a4.51,4.51,0,0,1-.19-1.85,5.08,5.08,0,0,1,.52-1.77,5.51,5.51,0,0,1,.5-.79,19.13,19.13,0,0,1-2.32.87c-.44.13-.94.27-1.48.4l-3.16,4.91a43.6,43.6,0,0,1-2,6.38c4.3-1.55,7.77-2.27,7.23-3.15-.65-1.08-1.41-2.32-1.41-2.32s.76-.19,3-.89c-.22-.59-.42-1.2-.65-1.78Z" style="fill:#b0772b"/><path d="M44.94,49.79c1,.73,1.79,1.3,2.08,1.53a5.57,5.57,0,0,1,.76-.69,5.57,5.57,0,0,0-1.37-2.1l-.59-.11Z" style="fill:#b0772b"/><path d="M34.93,65.31l0,0,0-.05v0c.92-.39,1.83-.75,2.71-1.06a43.6,43.6,0,0,0,2-6.38Z" style="fill:#b0772b"/><path d="M44.39,52.53a19.13,19.13,0,0,0,2.32-.87c.09-.12.21-.23.31-.34-.29-.23-1-.8-2.08-1.53l-2,3.14C43.45,52.8,44,52.66,44.39,52.53Z" style="fill:#b0772b"/><path d="M35,65.29h0v0Z" style="fill:#b0772b"/><path d="M45.88,56.08h0c.23.58.43,1.19.65,1.78l.3-.09,0-.05A4.62,4.62,0,0,1,45.88,56.08Z" style="fill:#b0772b"/><path d="M46.71,51.66a5.51,5.51,0,0,0-.5.79,5.08,5.08,0,0,0-.52,1.77,4.51,4.51,0,0,0,.19,1.85h0L48,55.41a13.06,13.06,0,0,0-.21-4.71l0-.07a5.57,5.57,0,0,0-.76.69l.15.11S47,51.52,46.71,51.66Z" style="fill:#b0772b"/><path d="M47.17,51.43,47,51.32c-.1.11-.22.22-.31.34C47,51.52,47.17,51.43,47.17,51.43Z" style="fill:#b0772b"/><path d="M48,55.41l-2.14.67a4.62,4.62,0,0,0,.91,1.64l0,.05h0C47.45,57.57,47.84,56.62,48,55.41Z" style="fill:#b0772b"/></svg>