<svg xmlns="http://www.w3.org/2000/svg" xmlns:xlink="http://www.w3.org/1999/xlink" viewBox="0 0 69.83 69.83"><defs><clipPath id="a"><circle cx="34.98" cy="34.92" r="34.92" style="fill:none"/></clipPath><linearGradient id="b" x1="16.08" y1="59.63" x2="27.86" y2="59.63" gradientUnits="userSpaceOnUse"><stop offset="0" stop-color="#5b413f"/><stop offset="0.25" stop-color="#543734"/><stop offset="0.51" stop-color="#523430"/><stop offset="0.87" stop-color="#4d312d"/><stop offset="1" stop-color="#4a2f2b"/></linearGradient><linearGradient id="c" x1="41.23" y1="59.71" x2="53.11" y2="59.71" xlink:href="#b"/></defs><title>portrait-lost_1</title><circle cx="34.92" cy="34.92" r="34.92" style="fill:#dff4fb"/><g style="clip-path:url(#a)"><path d="M41.71,50.27h0v1.53c0,.17,0,.34,0,.5a9.82,9.82,0,0,1-.15,1.14,9,9,0,0,1-.39,1.42l-.1.27,0,.06a1.08,1.08,0,0,1-.08.19l0,.08-.08.17s0,0,0,.08-.07.16-.11.23l-.11.2-.09.17a.64.64,0,0,0-.08.14.61.61,0,0,1-.07.1.57.57,0,0,1-.08.13l0,0-.09.14-.22.33a.83.83,0,0,0-.08.12l-.08.1-.18.23-.08.1c-.22.27-.45.53-.68.77l-.14.14s0,0,0,0a1.14,1.14,0,0,1-.11.11c-.18.18-.36.35-.55.51l-.15.13c-.42.36-.84.67-1.24.95l-.15.1c-.4.26-.78.49-1.13.68l-.18.11-.19.09-.11.06-.76.37-.24.1h0l-.08,0-.06,0h0l-.27-.11-.14-.07,0,0c-.29-.13-.68-.32-1.12-.57L31.86,61c-.23-.13-.48-.28-.74-.45h0a16.09,16.09,0,0,1-1.48-1.1l-.13-.12c-.24-.21-.48-.43-.71-.66l-.21-.21-.09-.1a8.55,8.55,0,0,1-.67-.78l-.13-.17-.09-.11L27.43,57l-.09-.14a.57.57,0,0,1-.08-.13l-.11-.16-.09-.15L27,56.35l-.14-.25L26.78,56h0l-.06-.12-.06-.12-.08-.17c0-.06,0-.11-.07-.17s0,0,0-.08l-.07-.18-.09-.23a10.33,10.33,0,0,1-.4-1.43,8.07,8.07,0,0,1-.14-1.14h0c0-.17,0-.33,0-.5V50.28h16Z" style="fill:#facaa7"/><path d="M41.15,54.87c-1.82,5-7.42,7.05-7.42,7.05s-5.6-2.08-7.42-7a29.37,29.37,0,0,0,7.42.88A28.89,28.89,0,0,0,41.15,54.87Z" style="fill:#fff"/><path d="M48.92,57.11s-5.79,2.75-16.22,2.42-14.61-2.86-14.61-2.86c1.14-1.29,8-4.11,10.27-5l.74-.29c.32-.1,1.15-8,1.15-8h7.67l.83,8.1.74.29A49.88,49.88,0,0,1,48.92,57.11Z" style="fill:#fcc490"/><path d="M38.21,45.91c-2.55,1.07-6.12,2.17-8.64,3.29.34-2.37.71-5.85.71-5.85H38Z" style="fill:#eda672"/><path d="M21.15,23.35c-.52,3.52.56,13.48,3.93,17.22s6.87,5,9.21,5.12,7.7-3,10.34-7.43c3.19-5.34,2.91-15.47,2.25-19.4s-7.3-7.58-13.66-6.55S22.46,14.56,21.15,23.35Z" style="fill:#fcc490"/><path d="M35.73,33.91a6.87,6.87,0,0,0-3.32-.11,1.21,1.21,0,0,0-.43.14c-.13.08-.09.24,0,.36a4.39,4.39,0,0,0,1.34,1,1.44,1.44,0,0,0,.6.18,1.55,1.55,0,0,0,.87-.37C35.19,34.75,36,34.29,35.73,33.91Z" style="fill:#eda672"/><path d="M46,30.44a2.19,2.19,0,0,1,1.14-.85,1.62,1.62,0,0,1,1.39.2,1.89,1.89,0,0,1,.68,1.64,5.23,5.23,0,0,1-.51,1.76,5.29,5.29,0,0,1-1.5,2.25,2,2,0,0,1-2.51,0Z" style="fill:#fcc490"/><path d="M22,30.44a2.13,2.13,0,0,0-1.13-.85,1.62,1.62,0,0,0-1.39.2,1.89,1.89,0,0,0-.68,1.64,5.23,5.23,0,0,0,.51,1.76,5.29,5.29,0,0,0,1.5,2.25,2,2,0,0,0,2.5,0Z" style="fill:#fcc490"/><path d="M29.7,21.88a14.22,14.22,0,0,0-5.85-.9A16,16,0,0,1,24,23.83a18.36,18.36,0,0,1,5.65.87l.81-2.43-.67.23Z" style="fill:#603b22"/><path d="M38,21.78a14.09,14.09,0,0,1,5.87-.69,16.86,16.86,0,0,0-.27,2.84,18.49,18.49,0,0,0-5.68.66l-.72-2.46.66.26Z" style="fill:#603b22"/><path d="M20.63,27l1.54,16.37s4.62,4,6.13,4.11,11.75.52,13.37,0a13.52,13.52,0,0,0,4.58-3.82c0-.29,1.43-17.61,1.43-17.61L45.8,24.91s.56,10-.77,10.31S23.09,36.49,22.8,35s-.54-8.39-.54-8.39Z" style="fill:#7c5133"/><path d="M35.28,56.55a5.77,5.77,0,0,1-2.23.16,1.61,1.61,0,0,1-1.39-.82A1.42,1.42,0,0,1,32,54.52c.31-.37.75-.6,1.06-1a7.07,7.07,0,0,0,1.16,2.37c.24-.77.54-1.6.78-2.37a3.36,3.36,0,0,1,1.13,1,1.31,1.31,0,0,1,.1,1.44A1.7,1.7,0,0,1,35.28,56.55Z" style="fill:#f2f2f2"/><path d="M35.66,40.27a9.6,9.6,0,0,1-3.21,0A2.15,2.15,0,0,0,34,40.8,3,3,0,0,0,35.66,40.27Z" style="fill:#4c0c0a"/><path d="M38.57,39.3l.16,0,.17-.68a.38.38,0,0,0,0-.15.13.13,0,0,0-.08-.12c-.12,0-.22.12-.32.15a.78.78,0,0,1-.37,0,25.32,25.32,0,0,0-3.09-.52,9,9,0,0,0-4,.55,3.1,3.1,0,0,1-1.11.26c-.2,0-.3-.37-.39-.28,0,.5.06,1.17.22,1s.06,0,.1-.22a11.65,11.65,0,0,1,8.3-.33C38.35,39,38.6,39.07,38.57,39.3Z" style="fill:#4c0c0a"/><path d="M22.55,12A27.75,27.75,0,0,1,39.13,7.65c6.79.41,9.87,7.74,9.81,8.5C48.7,19.58,47.6,32.54,46.84,32S46.2,18.78,45.2,18.28,44,22.69,43.55,22.77s-1.08-3.84-1.8-4.33-3.22-.18-3.94.15-.73,4.84-1.13,4.84-.59-4.43-1.07-4.92-2.49-.12-3.74-.25c-.28,0-.88,4.46-1.16,4.43s-1.22-3.76-1.47-4c-1.47-1.46-3.26-1.4-4.82-2.07,0,0-.05,4.53-.33,4.53s-1-2.06-1-2.06-1,14.36-1.41,13S18.47,17.49,19,14.75,21.22,11.24,22.55,12Z" style="fill:#5b3b24"/><path d="M22.07,41.42s2.16,2.25,2.66,2.71,2-.21,2.5.25.25,1.91.92,2.12,3.46-1.58,4.08-1.33.67,1.29,1.46,1.46,1.09-1.05,1.84-.92,1.75,1.21,2.83,1.17,2-1.42,2.67-1.38,1.41.58,1.87.5,1.58-1.79,2-2a.77.77,0,0,1,.84.21S43.41,47,41.67,47.46a25.22,25.22,0,0,1-4.8.23c-.41,0-.27.22-.41.22s-.06-.2-.35-.2c-1,0-2.86-.06-3.83-.09-.22,0-.21.18-.31.18s-.09-.18-.43-.2c-.79-.05-2.07-.07-2.66-.1-.2,0,0,.33-.27.35s-.22-.35-.38-.37c-1.39-.15-6.06-4.13-6.06-4.13Z" style="fill:#5b3b24"/><path d="M28.12,46.92s-.32,1-.12,1.45c.34.68.76.52.47-.52C28.29,47.18,28.24,46.37,28.12,46.92Z" style="fill:#9ad8e8"/><path d="M28.6,27.06a2.51,2.51,0,0,1,1.94,1.62,4.09,4.09,0,0,1-.82,3.2,2.39,2.39,0,0,1-1.27.63,4,4,0,0,1-2.76-.4,3.12,3.12,0,0,1-1-2,3,3,0,0,1,.13-1.77,3.81,3.81,0,0,1,2.61-1.5Z" style="fill:#fff"/><path d="M26.38,31a2.14,2.14,0,0,1-.12-2.47,1.83,1.83,0,0,1,.75-.68,1.47,1.47,0,0,1,1-.09A1.6,1.6,0,0,1,29,29a2.22,2.22,0,0,1-.67,2.29,1.44,1.44,0,0,1-1.08.3A1.49,1.49,0,0,1,26.38,31Z" style="fill:#4c0c0a"/><path d="M39.26,27.06a2.51,2.51,0,0,0-1.94,1.62,4.09,4.09,0,0,0,.82,3.2,2.39,2.39,0,0,0,1.27.63,4,4,0,0,0,2.76-.4,3.12,3.12,0,0,0,1-2,3,3,0,0,0-.13-1.77,3.81,3.81,0,0,0-2.61-1.5Z" style="fill:#fff"/><path d="M41.48,31a2.14,2.14,0,0,0,.12-2.47,1.83,1.83,0,0,0-.75-.68,1.47,1.47,0,0,0-1.05-.09,1.6,1.6,0,0,0-1,1.22,2.22,2.22,0,0,0,.67,2.29,1.43,1.43,0,0,0,1.08.3A1.49,1.49,0,0,0,41.48,31Z" style="fill:#4c0c0a"/><path d="M24.38,29.53a3.25,3.25,0,0,1,2.09-2.24,3.61,3.61,0,0,1,2.59,0,2.81,2.81,0,0,1,1.4,1.59c.1.26.38.22.41.07a3.12,3.12,0,0,0-2.48-2.69,3.87,3.87,0,0,0-4,1.71,2.45,2.45,0,0,0-.4,1.21C24,29.61,24.33,29.77,24.38,29.53Z" style="fill:#d39766"/><path d="M43.32,29.53a3.21,3.21,0,0,0-2.08-2.24,3.61,3.61,0,0,0-2.59,0,2.81,2.81,0,0,0-1.4,1.59c-.1.26-.38.22-.41.07a3.11,3.11,0,0,1,2.48-2.69,3.87,3.87,0,0,1,4,1.71,2.45,2.45,0,0,1,.4,1.21C43.73,29.61,43.38,29.77,43.32,29.53Z" style="fill:#d39766"/><path d="M47.51,67.51,45.13,50.17,34.85,52.25l-9.77-2.08L22.64,67.58a35,35,0,0,0,24.87-.07Z" style="fill:#ededed"/><path d="M36.81,69.79C36.09,61.8,35,51.87,35,51.87h-.91s-.81,9.91-1.45,17.88c.77,0,1.54.08,2.31.08S36.2,69.82,36.81,69.79Z" style="fill:#473c35"/><path d="M31.59,52a28.28,28.28,0,0,1,5.8,0s-1.85,3.76-2.9,4.15C34.49,56.17,31.64,53.81,31.59,52Z" style="fill:#473c35"/><path d="M29.22,48.63s.53,2.13,5.58,3.25a53.77,53.77,0,0,1-4.56,5s-3-4.85-3-7.16Z" style="fill:#dbdbdb"/><path d="M34.8,51.88A51.72,51.72,0,0,0,39,57.16s1.77-4.64,2.43-7.31c0,0-1.78-1.15-2.39-1.43A7.59,7.59,0,0,1,34.8,51.88Z" style="fill:#dbdbdb"/><path d="M48.56,67.09c-.18-7.78-.32-13.58-.32-13.58l-1.57-.36c-2.09,6.34-12,13.67-12,13.67-5.54-5-11.29-16-11.29-16l-2.13.9c0,.77.29,7.25.61,15.52a35,35,0,0,0,26.74-.17Z" style="fill:#b53116"/><path d="M22,50.16a5.65,5.65,0,0,0-5.58,5.39l-.32,8.71A34.48,34.48,0,0,0,27.86,69.1L27,50.15Z" style="fill:url(#b)"/><path d="M47.19,50.16H42.05l-.82,19.12a34.65,34.65,0,0,0,11.88-4.51l-.34-9.21A5.65,5.65,0,0,0,47.19,50.16Z" style="fill:url(#c)"/><path d="M21.92,50.16l2.14,9.67,2.66-.64-1.94,3.7.8,5.65c1,.27,1.92.5,2.91.68l-.44-19.89Z" style="fill:#69423d"/><path d="M42.42,59.19l2.66.64,2.14-9.67-6.35-.66-.34,19.89c1-.16,2-.37,3-.62l.84-5.88Z" style="fill:#69423d"/><path d="M12.51,57.31c-.21,1.3-.39,2.59-.57,3.89a34.73,34.73,0,0,0,8.84,5.64c.54-2.49,1.13-5,1.81-7.41Z" style="fill:#69423d"/><path d="M18.72,53.45a4.86,4.86,0,0,0-3.9.57,5.13,5.13,0,0,0-1.52,7.21,5,5,0,0,0,3.32,2.1,5.35,5.35,0,0,0,3.83-.8,5,5,0,0,0,2.14-3.1,4.83,4.83,0,0,0-.71-3.68A5.49,5.49,0,0,0,18.72,53.45Z" style="fill:#69423d"/><path d="M47.44,58.58c.73,2.68,1.34,5.4,1.88,8.14A35.06,35.06,0,0,0,58.14,61c-.18-1.47-.37-2.94-.6-4.41Z" style="fill:#69423d"/><path d="M51.38,52.65a4.87,4.87,0,0,1,3.9.61,5.13,5.13,0,0,1,1.44,7.22,5,5,0,0,1-3.34,2.07,5.31,5.31,0,0,1-3.83-.85,5,5,0,0,1-2.11-3.12,4.88,4.88,0,0,1,.75-3.66A5.54,5.54,0,0,1,51.38,52.65Z" style="fill:#69423d"/><path d="M36.27,28.89l-.11,0-1.33-.38a3.59,3.59,0,0,0-1.95,0l-1.33.38a.41.41,0,0,1-.52-.29.42.42,0,0,1,.28-.52l1.34-.38a4.29,4.29,0,0,1,2.41,0l1.33.38a.43.43,0,0,1,.29.52A.42.42,0,0,1,36.27,28.89Z" style="fill:#372b36"/><path d="M22.75,30.33H21.16a.42.42,0,0,1-.42-.42.42.42,0,0,1,.42-.42h1.49A3.33,3.33,0,0,0,22.75,30.33Z" style="fill:#372b36"/><path d="M45.21,29.32H46.7a.42.42,0,1,1,0,.84H45.18Z" style="fill:#372b36"/><path d="M27.26,24.75A4.66,4.66,0,0,0,22.6,29.4h0a4.94,4.94,0,0,0,.08.87,4.66,4.66,0,1,0,4.58-5.53Zm0,8.31a3.65,3.65,0,0,1-3.55-2.78,3.57,3.57,0,0,1-.1-.87h0a3.65,3.65,0,1,1,3.65,3.66Z" style="fill:#372b36"/><path d="M45.22,29.06a4.72,4.72,0,1,0,0,.89,4,4,0,0,0,0-.6A2.71,2.71,0,0,0,45.22,29.06Zm-4.71,4a3.7,3.7,0,1,1,3.69-4,2.71,2.71,0,0,1,0,.29,4,4,0,0,1-.05.6A3.7,3.7,0,0,1,40.51,33.05Z" style="fill:#372b36"/><path d="M29.71,8.82c-.52.11-3,1.21-.41,1.39s9.39.31,9.56,2.4,1.75,3.27,1.69,1.8-.64-2.19.45-1.6,3.27,1.76,3.35,3.72,1.2,3,1.51,1.52,2.67-4.17,2.54-1.78,1,4.19,1.29,2.57S49.27,15.6,51,15.36s-1-.22-2.5-1.37-2.4-5.08-8-6.07C35.17,7,32.77,8.15,29.71,8.82Z" style="fill:#9ad8e8;opacity:0.6900000000000001"/><path d="M36.44,47.4s-.23,1.63.22,1.34S36.53,46.89,36.44,47.4Z" style="fill:#9ad8e8"/></g></svg>