<svg xmlns="http://www.w3.org/2000/svg" viewBox="0 0 683 131"><title>welcome-back</title><rect width="683" height="131" style="fill:#fff"/><path d="M497.35,60.6q8.29.54,11.65,3.82t3.48,10.24q.13,6.82.2,12.72t-.07,12.72q-.27,10.32-4.15,15.4t-13.52,5.09H469.36V15.21h26.78q7.64,0,11.52,3.75t3.88,10.71q0,3.61.07,7.9t-.07,7.9a22.85,22.85,0,0,1-1.14,7,11.52,11.52,0,0,1-2.74,4.42,10.05,10.05,0,0,1-4.35,2.41,30.68,30.68,0,0,1-6,1ZM486,54.44h4.42a4.26,4.26,0,0,0,3-1.2,6.39,6.39,0,0,0,1.54-4.13,25.62,25.62,0,0,0,.27-3.93V35.73a21.69,21.69,0,0,0-.27-3.8A3.44,3.44,0,0,0,493.33,29a7.18,7.18,0,0,0-3.21-.67H486Zm0,53.43h4.42a5.45,5.45,0,0,0,3.28-1.14c1-.76,1.62-2.16,1.8-4.22a51.79,51.79,0,0,0,.27-6.42V77a39.61,39.61,0,0,0-.27-5.82A4.23,4.23,0,0,0,493.73,68a5.79,5.79,0,0,0-3.34-1H486Z" style="fill:#d22c20"/><path d="M156.87,120.59V16.66h16.77V107h19.94v13.6Z" style="fill:#d22c20"/><path d="M555.93,15.21l10.72,105.38H549.37l-.67-12.86H536.79l-.94,12.86H518.71l13-105.38ZM547.1,95.55l-3.22-64.94h-.13l-5.22,64.94Z" style="fill:#d22c20"/><path d="M243,84.9V98.71a26.2,26.2,0,0,1-1.43,8.94,19.47,19.47,0,0,1-4.17,6.89,18.45,18.45,0,0,1-6.64,4.47,23.13,23.13,0,0,1-8.73,1.58,34,34,0,0,1-8.72-1,15.88,15.88,0,0,1-6.65-3.52,15.52,15.52,0,0,1-4.16-6.64A32.8,32.8,0,0,1,201,98.84V37.1q0-9.9,5.6-15.83T222,15.35a36.05,36.05,0,0,1,8.73,1,15.26,15.26,0,0,1,6.64,3.46,15.52,15.52,0,0,1,4.17,6.7A33.5,33.5,0,0,1,243,37.1V50.65H227.21V34.89q0-6.78-5-6.78c-3.3,0-4.95,2.26-4.95,6.76v66.19q0,6.76,4.95,6.76c3.3,0,5-2.25,5-6.77V84.9Z" style="fill:#d22c20"/><path d="M615.85,84.44v14a26.56,26.56,0,0,1-1.45,9,19.73,19.73,0,0,1-4.22,7,19,19,0,0,1-6.73,4.53,23.32,23.32,0,0,1-8.84,1.6,34,34,0,0,1-8.83-1.06,16,16,0,0,1-6.73-3.56,15.63,15.63,0,0,1-4.22-6.73,33.22,33.22,0,0,1-1.45-10.68V36q0-10,5.67-16t15.56-6a36.44,36.44,0,0,1,8.84,1,15.44,15.44,0,0,1,6.73,3.5,15.71,15.71,0,0,1,4.22,6.79A33.9,33.9,0,0,1,615.85,36V49.75h-16v-16q0-6.85-5-6.86t-5,6.85v67q0,6.85,5,6.85c3.34,0,5-2.28,5-6.86V84.44Z" style="fill:#d22c20"/><path d="M642.75,65.91v54.68H625.92V14.6h16.83V61.07H643L654.47,14.6h17.1L658.38,60.66l12.79,59.93H653.53L643,65.91Z" style="fill:#d22c20"/><path d="M111.3,17.28h36.89V30.93H127.84V62.3h20.35V75.42H127.84v32h20.35v13.13H111.3Z" style="fill:#d22c20"/><path d="M380,15.81h37.41V29.66H396.8V61.47h20.63V74.78H396.8v32.5h20.63v13.31H380Z" style="fill:#d22c20"/><path d="M290.4,20.53q-3.94-5.14-13.57-5.15h-8.67q-9.63,0-13.57,5.15t-3.94,15.3v64.31q0,10.29,3.94,15.37t13.57,5.08h8.67q9.63,0,13.57-5.08t4-15.37V35.83Q294.35,25.67,290.4,20.53Zm-12.9,82c0,2-.56,3.46-1.67,4.21a5.79,5.79,0,0,1-3.27,1.14h-.12a5.84,5.84,0,0,1-3.28-1.14c-1.11-.75-1.67-2.16-1.67-4.21V32.36a3.42,3.42,0,0,1,1.61-3.14,6.2,6.2,0,0,1,3.34-1h.12a6.23,6.23,0,0,1,3.34,1,3.42,3.42,0,0,1,1.6,3.14Z" style="fill:#d22c20"/><polygon points="16.81 17.48 27.29 120.59 37.42 120.59 37.42 120.59 53.68 120.59 57.93 82.16 61.92 32.55 62.05 32.55 64.44 80.71 66.77 108.01 66.77 108.01 66.78 108.17 67.84 120.59 84.33 120.59 84.33 120.59 94.83 120.59 105.31 17.48 88.54 17.48 88.63 17.49 87.82 28.87 87.75 30.06 87.73 30.06 84.62 73.52 83.04 105.52 82.93 105.52 82.93 106.83 73.85 17.48 50.13 17.48 39.19 106.24 39.19 105.52 39.08 105.52 37.5 73.52 34.39 30.06 34.37 30.06 34.3 28.87 33.49 17.49 33.58 17.48 16.81 17.48" style="fill:#d22c20"/><polygon points="373.25 120.59 362.53 16.09 353.75 16.09 353.75 16.04 345.1 16.07 340.99 54.96 337.18 105.17 337.05 105.17 334.49 56.45 332.07 28.84 332.06 28.84 332.06 28.68 330.95 16.12 316.16 16.17 316.16 16.29 313.79 16.29 300.59 120.13 317.9 120.05 321.3 81.75 325.32 120.45 349.01 120.37 353.6 81.52 355.94 120.44 373.25 120.59" style="fill:#d22c20"/></svg>