<svg xmlns="http://www.w3.org/2000/svg" xmlns:xlink="http://www.w3.org/1999/xlink" viewBox="0 0 332.11 848.17"><defs><clipPath id="a"><path d="M210.87,101.44v.06c-.1.36-1.77.89-2.14,1a38.89,38.89,0,0,1-5.63,1.11c-28.22,4.14-71.94,1.48-76.12-1.62l-.16-.18c.87-4.83,52.68-6.34,74.28-3.51C206.71,99,210.37,100,210.87,101.44Z" style="fill:#a81a16"/></clipPath><linearGradient id="b" x1="-182.75" y1="288.95" x2="-148.36" y2="288.95" gradientTransform="matrix(1, 0, 0, -1, 460.49, 577.9)" gradientUnits="userSpaceOnUse"><stop offset="0.01" stop-color="#d22c20"/><stop offset="0.31" stop-color="#e7342e"/><stop offset="0.51" stop-color="#ef3733"/><stop offset="0.72" stop-color="#e6332d"/><stop offset="1" stop-color="#d22c20"/></linearGradient><linearGradient id="c" x1="311.62" y1="329.93" x2="278.86" y2="329.93" gradientUnits="userSpaceOnUse"><stop offset="0.05" stop-color="#d3d2d2"/><stop offset="0.37" stop-color="#9a9a9c"/><stop offset="0.64" stop-color="#9a9a9c"/><stop offset="1" stop-color="#d1d6d5"/></linearGradient><linearGradient id="d" x1="307.23" y1="337.17" x2="283.44" y2="337.17" xlink:href="#c"/><linearGradient id="e" x1="307.23" y1="344.42" x2="283.44" y2="344.42" xlink:href="#c"/><linearGradient id="f" x1="307.23" y1="351.66" x2="283.44" y2="351.66" xlink:href="#c"/><linearGradient id="g" x1="307.23" y1="358.9" x2="283.44" y2="358.9" xlink:href="#c"/><linearGradient id="h" x1="311.62" y1="366.15" x2="278.86" y2="366.15" xlink:href="#c"/><linearGradient id="i" x1="307.38" y1="373.39" x2="283.59" y2="373.39" xlink:href="#c"/><linearGradient id="j" x1="307.38" y1="380.63" x2="283.59" y2="380.63" xlink:href="#c"/><linearGradient id="k" x1="307.38" y1="387.88" x2="283.59" y2="387.88" xlink:href="#c"/><linearGradient id="l" x1="307.38" y1="395.12" x2="283.59" y2="395.12" xlink:href="#c"/><linearGradient id="m" x1="311.78" y1="402.37" x2="279.01" y2="402.37" xlink:href="#c"/><linearGradient id="n" x1="307.23" y1="409.61" x2="283.44" y2="409.61" xlink:href="#c"/><linearGradient id="o" x1="307.23" y1="416.85" x2="283.44" y2="416.85" xlink:href="#c"/><linearGradient id="p" x1="307.23" y1="424.1" x2="283.44" y2="424.1" xlink:href="#c"/><linearGradient id="q" x1="307.23" y1="431.34" x2="283.44" y2="431.34" xlink:href="#c"/><linearGradient id="r" x1="311.62" y1="438.58" x2="278.86" y2="438.58" xlink:href="#c"/><linearGradient id="s" x1="307.23" y1="445.83" x2="283.44" y2="445.83" xlink:href="#c"/><linearGradient id="t" x1="307.23" y1="453.07" x2="283.44" y2="453.07" xlink:href="#c"/><linearGradient id="u" x1="307.23" y1="460.31" x2="283.44" y2="460.31" xlink:href="#c"/><linearGradient id="v" x1="307.23" y1="467.56" x2="283.44" y2="467.56" xlink:href="#c"/><linearGradient id="w" x1="311.62" y1="474.8" x2="278.86" y2="474.8" xlink:href="#c"/><linearGradient id="x" x1="311.62" y1="221.51" x2="278.86" y2="221.51" xlink:href="#c"/><linearGradient id="y" x1="307.23" y1="228.75" x2="283.44" y2="228.75" xlink:href="#c"/><linearGradient id="z" x1="307.23" y1="235.99" x2="283.44" y2="235.99" xlink:href="#c"/><linearGradient id="aa" x1="307.23" y1="243.24" x2="283.44" y2="243.24" xlink:href="#c"/><linearGradient id="ab" x1="307.23" y1="250.48" x2="283.44" y2="250.48" xlink:href="#c"/><linearGradient id="ac" x1="311.62" y1="257.73" x2="278.86" y2="257.73" xlink:href="#c"/><linearGradient id="ad" x1="307.38" y1="264.97" x2="283.59" y2="264.97" xlink:href="#c"/><linearGradient id="ae" x1="307.38" y1="272.21" x2="283.59" y2="272.21" xlink:href="#c"/><linearGradient id="af" x1="307.38" y1="279.46" x2="283.59" y2="279.46" xlink:href="#c"/><linearGradient id="ag" x1="307.38" y1="286.7" x2="283.59" y2="286.7" xlink:href="#c"/><linearGradient id="ah" x1="311.78" y1="293.94" x2="279.01" y2="293.94" xlink:href="#c"/><linearGradient id="ai" x1="307.23" y1="301.19" x2="283.44" y2="301.19" xlink:href="#c"/><linearGradient id="aj" x1="307.23" y1="308.43" x2="283.44" y2="308.43" xlink:href="#c"/><linearGradient id="ak" x1="307.23" y1="315.67" x2="283.44" y2="315.67" xlink:href="#c"/><linearGradient id="al" x1="307.23" y1="322.92" x2="283.44" y2="322.92" xlink:href="#c"/><linearGradient id="am" x1="311.62" y1="330.16" x2="278.86" y2="330.16" xlink:href="#c"/><linearGradient id="an" x1="307.23" y1="337.4" x2="283.44" y2="337.4" xlink:href="#c"/><linearGradient id="ao" x1="307.23" y1="344.65" x2="283.44" y2="344.65" xlink:href="#c"/><linearGradient id="ap" x1="307.23" y1="351.89" x2="283.44" y2="351.89" xlink:href="#c"/><linearGradient id="aq" x1="307.23" y1="359.13" x2="283.44" y2="359.13" xlink:href="#c"/><linearGradient id="ar" x1="311.62" y1="366.38" x2="278.86" y2="366.38" xlink:href="#c"/><linearGradient id="as" x1="311.62" y1="113.09" x2="278.86" y2="113.09" xlink:href="#c"/><linearGradient id="at" x1="307.23" y1="120.33" x2="283.44" y2="120.33" xlink:href="#c"/><linearGradient id="au" x1="307.23" y1="127.57" x2="283.44" y2="127.57" xlink:href="#c"/><linearGradient id="av" x1="307.23" y1="134.82" x2="283.44" y2="134.82" xlink:href="#c"/><linearGradient id="aw" x1="307.23" y1="142.06" x2="283.44" y2="142.06" xlink:href="#c"/><linearGradient id="ax" x1="311.62" y1="149.3" x2="278.86" y2="149.3" xlink:href="#c"/><linearGradient id="ay" x1="307.38" y1="156.55" x2="283.59" y2="156.55" xlink:href="#c"/><linearGradient id="az" x1="307.38" y1="163.79" x2="283.59" y2="163.79" xlink:href="#c"/><linearGradient id="ba" x1="307.38" y1="171.03" x2="283.59" y2="171.03" xlink:href="#c"/><linearGradient id="bb" x1="307.38" y1="178.28" x2="283.59" y2="178.28" xlink:href="#c"/><linearGradient id="bc" x1="311.78" y1="185.52" x2="279.01" y2="185.52" xlink:href="#c"/><linearGradient id="bd" x1="307.23" y1="192.76" x2="283.44" y2="192.76" xlink:href="#c"/><linearGradient id="be" x1="307.23" y1="200.01" x2="283.44" y2="200.01" xlink:href="#c"/><linearGradient id="bf" x1="307.23" y1="207.25" x2="283.44" y2="207.25" xlink:href="#c"/><linearGradient id="bg" x1="307.23" y1="214.49" x2="283.44" y2="214.49" xlink:href="#c"/><linearGradient id="bh" x1="311.62" y1="221.74" x2="278.86" y2="221.74" xlink:href="#c"/><linearGradient id="bi" x1="307.23" y1="228.98" x2="283.44" y2="228.98" xlink:href="#c"/><linearGradient id="bj" x1="307.23" y1="236.23" x2="283.44" y2="236.23" xlink:href="#c"/><linearGradient id="bk" x1="307.23" y1="243.47" x2="283.44" y2="243.47" xlink:href="#c"/><linearGradient id="bl" x1="307.23" y1="250.71" x2="283.44" y2="250.71" xlink:href="#c"/><linearGradient id="bm" x1="311.62" y1="257.96" x2="278.86" y2="257.96" xlink:href="#c"/><clipPath id="bn"><rect x="286.53" y="112.37" width="17.37" height="371.86" style="fill:none"/></clipPath><linearGradient id="bo" x1="275.18" y1="486.08" x2="315.97" y2="486.08" gradientUnits="userSpaceOnUse"><stop offset="0.01" stop-color="#d22c20"/><stop offset="0.26" stop-color="#e2322b"/><stop offset="0.51" stop-color="#ef3733"/><stop offset="1" stop-color="#d22c20"/></linearGradient><linearGradient id="bp" x1="-368.75" y1="288.95" x2="-334.36" y2="288.95" gradientTransform="translate(392.71)" xlink:href="#b"/><linearGradient id="bq" x1="497.62" y1="329.93" x2="464.86" y2="329.93" gradientTransform="matrix(-1, 0, 0, 1, 522.09, 0)" xlink:href="#c"/><linearGradient id="br" x1="493.23" y1="337.17" x2="469.44" y2="337.17" gradientTransform="matrix(-1, 0, 0, 1, 522.09, 0)" xlink:href="#c"/><linearGradient id="bs" x1="493.23" y1="344.42" x2="469.44" y2="344.42" gradientTransform="matrix(-1, 0, 0, 1, 522.09, 0)" xlink:href="#c"/><linearGradient id="bt" x1="493.23" y1="351.66" x2="469.44" y2="351.66" gradientTransform="matrix(-1, 0, 0, 1, 522.09, 0)" xlink:href="#c"/><linearGradient id="bu" x1="493.23" y1="358.9" x2="469.44" y2="358.9" gradientTransform="matrix(-1, 0, 0, 1, 522.09, 0)" xlink:href="#c"/><linearGradient id="bv" x1="497.62" y1="366.15" x2="464.86" y2="366.15" gradientTransform="matrix(-1, 0, 0, 1, 522.09, 0)" xlink:href="#c"/><linearGradient id="bw" x1="493.38" y1="373.39" x2="469.59" y2="373.39" gradientTransform="matrix(-1, 0, 0, 1, 522.09, 0)" xlink:href="#c"/><linearGradient id="bx" x1="493.38" y1="380.63" x2="469.59" y2="380.63" gradientTransform="matrix(-1, 0, 0, 1, 522.09, 0)" xlink:href="#c"/><linearGradient id="by" x1="493.38" y1="387.88" x2="469.59" y2="387.88" gradientTransform="matrix(-1, 0, 0, 1, 522.09, 0)" xlink:href="#c"/><linearGradient id="bz" x1="493.38" y1="395.12" x2="469.59" y2="395.12" gradientTransform="matrix(-1, 0, 0, 1, 522.09, 0)" xlink:href="#c"/><linearGradient id="ca" x1="497.78" y1="402.37" x2="465.01" y2="402.37" gradientTransform="matrix(-1, 0, 0, 1, 522.09, 0)" xlink:href="#c"/><linearGradient id="cb" x1="493.23" y1="409.61" x2="469.44" y2="409.61" gradientTransform="matrix(-1, 0, 0, 1, 522.09, 0)" xlink:href="#c"/><linearGradient id="cc" x1="493.23" y1="416.85" x2="469.44" y2="416.85" gradientTransform="matrix(-1, 0, 0, 1, 522.09, 0)" xlink:href="#c"/><linearGradient id="cd" x1="493.23" y1="424.1" x2="469.44" y2="424.1" gradientTransform="matrix(-1, 0, 0, 1, 522.09, 0)" xlink:href="#c"/><linearGradient id="ce" x1="493.23" y1="431.34" x2="469.44" y2="431.34" gradientTransform="matrix(-1, 0, 0, 1, 522.09, 0)" xlink:href="#c"/><linearGradient id="cf" x1="497.62" y1="438.58" x2="464.86" y2="438.58" gradientTransform="matrix(-1, 0, 0, 1, 522.09, 0)" xlink:href="#c"/><linearGradient id="cg" x1="493.23" y1="445.83" x2="469.44" y2="445.83" gradientTransform="matrix(-1, 0, 0, 1, 522.09, 0)" xlink:href="#c"/><linearGradient id="ch" x1="493.23" y1="453.07" x2="469.44" y2="453.07" gradientTransform="matrix(-1, 0, 0, 1, 522.09, 0)" xlink:href="#c"/><linearGradient id="ci" x1="493.23" y1="460.31" x2="469.44" y2="460.31" gradientTransform="matrix(-1, 0, 0, 1, 522.09, 0)" xlink:href="#c"/><linearGradient id="cj" x1="493.23" y1="467.56" x2="469.44" y2="467.56" gradientTransform="matrix(-1, 0, 0, 1, 522.09, 0)" xlink:href="#c"/><linearGradient id="ck" x1="497.62" y1="474.8" x2="464.86" y2="474.8" gradientTransform="matrix(-1, 0, 0, 1, 522.09, 0)" xlink:href="#c"/><linearGradient id="cl" x1="497.62" y1="221.51" x2="464.86" y2="221.51" gradientTransform="matrix(-1, 0, 0, 1, 522.09, 0)" xlink:href="#c"/><linearGradient id="cm" x1="493.23" y1="228.75" x2="469.44" y2="228.75" gradientTransform="matrix(-1, 0, 0, 1, 522.09, 0)" xlink:href="#c"/><linearGradient id="cn" x1="493.23" y1="235.99" x2="469.44" y2="235.99" gradientTransform="matrix(-1, 0, 0, 1, 522.09, 0)" xlink:href="#c"/><linearGradient id="co" x1="493.23" y1="243.24" x2="469.44" y2="243.24" gradientTransform="matrix(-1, 0, 0, 1, 522.09, 0)" xlink:href="#c"/><linearGradient id="cp" x1="493.23" y1="250.48" x2="469.44" y2="250.48" gradientTransform="matrix(-1, 0, 0, 1, 522.09, 0)" xlink:href="#c"/><linearGradient id="cq" x1="497.62" y1="257.73" x2="464.86" y2="257.73" gradientTransform="matrix(-1, 0, 0, 1, 522.09, 0)" xlink:href="#c"/><linearGradient id="cr" x1="493.38" y1="264.97" x2="469.59" y2="264.97" gradientTransform="matrix(-1, 0, 0, 1, 522.09, 0)" xlink:href="#c"/><linearGradient id="cs" x1="493.38" y1="272.21" x2="469.59" y2="272.21" gradientTransform="matrix(-1, 0, 0, 1, 522.09, 0)" xlink:href="#c"/><linearGradient id="ct" x1="493.38" y1="279.46" x2="469.59" y2="279.46" gradientTransform="matrix(-1, 0, 0, 1, 522.09, 0)" xlink:href="#c"/><linearGradient id="cu" x1="493.38" y1="286.7" x2="469.59" y2="286.7" gradientTransform="matrix(-1, 0, 0, 1, 522.09, 0)" xlink:href="#c"/><linearGradient id="cv" x1="497.78" y1="293.94" x2="465.01" y2="293.94" gradientTransform="matrix(-1, 0, 0, 1, 522.09, 0)" xlink:href="#c"/><linearGradient id="cw" x1="493.23" y1="301.19" x2="469.44" y2="301.19" gradientTransform="matrix(-1, 0, 0, 1, 522.09, 0)" xlink:href="#c"/><linearGradient id="cx" x1="493.23" y1="308.43" x2="469.44" y2="308.43" gradientTransform="matrix(-1, 0, 0, 1, 522.09, 0)" xlink:href="#c"/><linearGradient id="cy" x1="493.23" y1="315.67" x2="469.44" y2="315.67" gradientTransform="matrix(-1, 0, 0, 1, 522.09, 0)" xlink:href="#c"/><linearGradient id="cz" x1="493.23" y1="322.92" x2="469.44" y2="322.92" gradientTransform="matrix(-1, 0, 0, 1, 522.09, 0)" xlink:href="#c"/><linearGradient id="da" x1="497.62" y1="330.16" x2="464.86" y2="330.16" gradientTransform="matrix(-1, 0, 0, 1, 522.09, 0)" xlink:href="#c"/><linearGradient id="db" x1="493.23" y1="337.4" x2="469.44" y2="337.4" gradientTransform="matrix(-1, 0, 0, 1, 522.09, 0)" xlink:href="#c"/><linearGradient id="dc" x1="493.23" y1="344.65" x2="469.44" y2="344.65" gradientTransform="matrix(-1, 0, 0, 1, 522.09, 0)" xlink:href="#c"/><linearGradient id="dd" x1="493.23" y1="351.89" x2="469.44" y2="351.89" gradientTransform="matrix(-1, 0, 0, 1, 522.09, 0)" xlink:href="#c"/><linearGradient id="de" x1="493.23" y1="359.13" x2="469.44" y2="359.13" gradientTransform="matrix(-1, 0, 0, 1, 522.09, 0)" xlink:href="#c"/><linearGradient id="df" x1="497.62" y1="366.38" x2="464.86" y2="366.38" gradientTransform="matrix(-1, 0, 0, 1, 522.09, 0)" xlink:href="#c"/><linearGradient id="dg" x1="497.62" y1="113.09" x2="464.86" y2="113.09" gradientTransform="matrix(-1, 0, 0, 1, 522.09, 0)" xlink:href="#c"/><linearGradient id="dh" x1="493.23" y1="120.33" x2="469.44" y2="120.33" gradientTransform="matrix(-1, 0, 0, 1, 522.09, 0)" xlink:href="#c"/><linearGradient id="di" x1="493.23" y1="127.57" x2="469.44" y2="127.57" gradientTransform="matrix(-1, 0, 0, 1, 522.09, 0)" xlink:href="#c"/><linearGradient id="dj" x1="493.23" y1="134.82" x2="469.44" y2="134.82" gradientTransform="matrix(-1, 0, 0, 1, 522.09, 0)" xlink:href="#c"/><linearGradient id="dk" x1="493.23" y1="142.06" x2="469.44" y2="142.06" gradientTransform="matrix(-1, 0, 0, 1, 522.09, 0)" xlink:href="#c"/><linearGradient id="dl" x1="497.62" y1="149.3" x2="464.86" y2="149.3" gradientTransform="matrix(-1, 0, 0, 1, 522.09, 0)" xlink:href="#c"/><linearGradient id="dm" x1="493.38" y1="156.55" x2="469.59" y2="156.55" gradientTransform="matrix(-1, 0, 0, 1, 522.09, 0)" xlink:href="#c"/><linearGradient id="dn" x1="493.38" y1="163.79" x2="469.59" y2="163.79" gradientTransform="matrix(-1, 0, 0, 1, 522.09, 0)" xlink:href="#c"/><linearGradient id="do" x1="493.38" y1="171.03" x2="469.59" y2="171.03" gradientTransform="matrix(-1, 0, 0, 1, 522.09, 0)" xlink:href="#c"/><linearGradient id="dp" x1="493.38" y1="178.28" x2="469.59" y2="178.28" gradientTransform="matrix(-1, 0, 0, 1, 522.09, 0)" xlink:href="#c"/><linearGradient id="dq" x1="497.78" y1="185.52" x2="465.01" y2="185.52" gradientTransform="matrix(-1, 0, 0, 1, 522.09, 0)" xlink:href="#c"/><linearGradient id="dr" x1="493.23" y1="192.76" x2="469.44" y2="192.76" gradientTransform="matrix(-1, 0, 0, 1, 522.09, 0)" xlink:href="#c"/><linearGradient id="ds" x1="493.23" y1="200.01" x2="469.44" y2="200.01" gradientTransform="matrix(-1, 0, 0, 1, 522.09, 0)" xlink:href="#c"/><linearGradient id="dt" x1="493.23" y1="207.25" x2="469.44" y2="207.25" gradientTransform="matrix(-1, 0, 0, 1, 522.09, 0)" xlink:href="#c"/><linearGradient id="du" x1="493.23" y1="214.49" x2="469.44" y2="214.49" gradientTransform="matrix(-1, 0, 0, 1, 522.09, 0)" xlink:href="#c"/><linearGradient id="dv" x1="497.62" y1="221.74" x2="464.86" y2="221.74" gradientTransform="matrix(-1, 0, 0, 1, 522.09, 0)" xlink:href="#c"/><linearGradient id="dw" x1="493.23" y1="228.98" x2="469.44" y2="228.98" gradientTransform="matrix(-1, 0, 0, 1, 522.09, 0)" xlink:href="#c"/><linearGradient id="dx" x1="493.23" y1="236.23" x2="469.44" y2="236.23" gradientTransform="matrix(-1, 0, 0, 1, 522.09, 0)" xlink:href="#c"/><linearGradient id="dy" x1="493.23" y1="243.47" x2="469.44" y2="243.47" gradientTransform="matrix(-1, 0, 0, 1, 522.09, 0)" xlink:href="#c"/><linearGradient id="dz" x1="493.23" y1="250.71" x2="469.44" y2="250.71" gradientTransform="matrix(-1, 0, 0, 1, 522.09, 0)" xlink:href="#c"/><linearGradient id="ea" x1="497.62" y1="257.96" x2="464.86" y2="257.96" gradientTransform="matrix(-1, 0, 0, 1, 522.09, 0)" xlink:href="#c"/><clipPath id="eb"><rect x="32.2" y="112.37" width="17.37" height="371.86" transform="translate(81.77 596.6) rotate(-180)" style="fill:none"/></clipPath><linearGradient id="ec" x1="461.18" y1="486.08" x2="501.97" y2="486.08" gradientTransform="matrix(1, 0, 0, -1, -441.06, 972.17)" xlink:href="#bo"/></defs><title>woman-9</title><g style="isolation:isolate"><polygon points="98.24 519.65 85.33 519.65 82.67 464.07 100.9 464.07 98.24 519.65" style="fill:#a2a2a2"/><rect x="82.67" y="448.64" width="18.24" height="7.71" style="fill:#bdbdbd"/><rect x="82.67" y="456.36" width="18.24" height="7.71" style="fill:#696969"/><polygon points="250.9 519.65 238 519.65 235.32 464.07 253.56 464.07 250.9 519.65" style="fill:#a2a2a2"/><rect x="235.32" y="448.64" width="18.24" height="7.71" style="fill:#bdbdbd"/><rect x="235.32" y="456.36" width="18.24" height="7.71" style="fill:#696969"/><rect x="71" y="439.51" width="194" height="12.99" style="fill:#9e6741"/><rect x="14.65" y="125.24" width="308.13" height="9.26" rx="2.8" ry="2.8" style="fill:#8e8e8e"/><path d="M322.73,129.32h-308v-2.06a2.37,2.37,0,0,1,2.59-2h303a2.28,2.28,0,0,1,2.51,2S322.67,129.28,322.73,129.32Z" style="fill:#a8a8a8"/><path d="M212.15,100.37l0,.17,0,.15a2.14,2.14,0,0,1-1.17,1l-.38.08,0-.09.24-.16v-.06c-2.55-6.55-71.5-5-82.21-1.06-1.67.69-1.61,1-1.84,1.39h0l-.39-.08a1.66,1.66,0,0,1-.84-.81v-.16c.24-1.22,3.23-1.89,4.37-2.17,21.58-4.7,66.51-2.21,76.11-.48C207.93,98.43,211.56,99.13,212.15,100.37Z" style="fill:#e26d6d"/><path d="M210.87,101.44v.06c-.1.36-1.77.89-2.14,1a38.89,38.89,0,0,1-5.63,1.11c-28.22,4.14-71.94,1.48-76.12-1.62l-.16-.18c.87-4.83,52.68-6.34,74.28-3.51C206.71,99,210.37,100,210.87,101.44Z" style="fill:#a81a16"/><g style="clip-path:url(#a)"><path d="M183.44,95.2v19.59l35.5-12.55S192,91.71,183.44,95.2Z" style="fill:#a81a16;opacity:0.30000000000000004;mix-blend-mode:multiply"/><path d="M147.56,109.56l-1-16.3S123.7,95,123.5,100.63,147.56,109.56,147.56,109.56Z" style="fill:#a81a16;opacity:0.30000000000000004;mix-blend-mode:multiply"/></g><path d="M258.24,0H234.07a42.15,42.15,0,0,0-42,42v.08h10.38a31.78,31.78,0,0,1,31.67-30.92h24.13a31.78,31.78,0,0,1,31.69,31.69V74.56c0,.1,0,.2,0,.3h10.37V42A42.15,42.15,0,0,0,258.24,0Z" style="fill:#d22c20"/><polygon points="192.47 42.43 191.71 48.03 194.25 50.43 200.81 49.6 202 44.51 201.39 40.74 201.55 39.96 192.99 39.96 192.47 42.43" style="fill:#d22c20"/><path d="M203.21,40h-3.08c0,.34-.06.67-.07,1h-5.72c0-.34,0-.68,0-1h-3.08c0,.34,0,.68,0,1H190v6.88a3.72,3.72,0,0,0,3.73,3.73h6.5A3.71,3.71,0,0,0,204,47.84V41h-.82C203.15,40.63,203.19,40.3,203.21,40Zm-2.32,4.56v3.33a.66.66,0,0,1-.66.66h-6.5a.69.69,0,0,1-.47-.19.66.66,0,0,1-.19-.46V44.05h7.82Z" style="fill:#d22c20"/><rect x="191.3" y="40.02" width="11.84" height="0.97" transform="translate(394.45 81.01) rotate(180)" style="fill:#a81a16"/><rect x="289.84" y="68.47" width="10.64" height="0.89" transform="translate(590.33 137.84) rotate(-180)" style="fill:#a81a16"/><rect x="275.15" y="92.76" width="40.83" height="400.07" transform="translate(591.13 585.59) rotate(-180)" style="fill:#d22c20"/><ellipse cx="295.56" cy="94.09" rx="20.46" ry="21.68" style="fill:#d22c20"/><polygon points="275.39 90.96 315.74 90.83 315.35 89.14 275.74 89.14 275.39 90.96" style="fill:#a81a16"/><rect x="277.75" y="90.95" width="34.39" height="395.99" transform="translate(589.88 577.9) rotate(-180)" style="fill:url(#b)"/><rect x="278.61" y="329.14" width="33.91" height="1.59" style="fill:url(#c)"/><rect x="283.26" y="336.38" width="24.62" height="1.59" style="fill:url(#d)"/><rect x="283.26" y="343.62" width="24.62" height="1.59" style="fill:url(#e)"/><rect x="283.26" y="350.87" width="24.62" height="1.59" style="fill:url(#f)"/><rect x="283.26" y="358.11" width="24.62" height="1.59" style="fill:url(#g)"/><rect x="278.61" y="365.35" width="33.91" height="1.59" style="fill:url(#h)"/><rect x="283.41" y="372.6" width="24.62" height="1.59" style="fill:url(#i)"/><rect x="283.41" y="379.84" width="24.62" height="1.59" style="fill:url(#j)"/><rect x="283.41" y="387.08" width="24.62" height="1.59" style="fill:url(#k)"/><rect x="283.41" y="394.33" width="24.62" height="1.59" style="fill:url(#l)"/><rect x="278.77" y="401.57" width="33.91" height="1.59" style="fill:url(#m)"/><rect x="283.26" y="408.81" width="24.62" height="1.59" style="fill:url(#n)"/><rect x="283.26" y="416.06" width="24.62" height="1.59" style="fill:url(#o)"/><rect x="283.26" y="423.3" width="24.62" height="1.59" style="fill:url(#p)"/><rect x="283.26" y="430.54" width="24.62" height="1.59" style="fill:url(#q)"/><rect x="278.61" y="437.79" width="33.91" height="1.59" style="fill:url(#r)"/><rect x="283.26" y="445.03" width="24.62" height="1.59" style="fill:url(#s)"/><rect x="283.26" y="452.28" width="24.62" height="1.59" style="fill:url(#t)"/><rect x="283.26" y="459.52" width="24.62" height="1.59" style="fill:url(#u)"/><rect x="283.26" y="466.76" width="24.62" height="1.59" style="fill:url(#v)"/><rect x="278.61" y="474.01" width="33.91" height="1.59" style="fill:url(#w)"/><rect x="278.61" y="220.71" width="33.91" height="1.59" style="fill:url(#x)"/><rect x="283.26" y="227.96" width="24.62" height="1.59" style="fill:url(#y)"/><rect x="283.26" y="235.2" width="24.62" height="1.59" style="fill:url(#z)"/><rect x="283.26" y="242.44" width="24.62" height="1.59" style="fill:url(#aa)"/><rect x="283.26" y="249.69" width="24.62" height="1.59" style="fill:url(#ab)"/><rect x="278.61" y="256.93" width="33.91" height="1.59" style="fill:url(#ac)"/><rect x="283.41" y="264.17" width="24.62" height="1.59" style="fill:url(#ad)"/><rect x="283.41" y="271.42" width="24.62" height="1.59" style="fill:url(#ae)"/><rect x="283.41" y="278.66" width="24.62" height="1.59" style="fill:url(#af)"/><rect x="283.41" y="285.9" width="24.62" height="1.59" style="fill:url(#ag)"/><rect x="278.77" y="293.15" width="33.91" height="1.59" style="fill:url(#ah)"/><rect x="283.26" y="300.39" width="24.62" height="1.59" style="fill:url(#ai)"/><rect x="283.26" y="307.64" width="24.62" height="1.59" style="fill:url(#aj)"/><rect x="283.26" y="314.88" width="24.62" height="1.59" style="fill:url(#ak)"/><rect x="283.26" y="322.12" width="24.62" height="1.59" style="fill:url(#al)"/><rect x="278.61" y="329.37" width="33.91" height="1.59" style="fill:url(#am)"/><rect x="283.26" y="336.61" width="24.62" height="1.59" style="fill:url(#an)"/><rect x="283.26" y="343.85" width="24.62" height="1.59" style="fill:url(#ao)"/><rect x="283.26" y="351.1" width="24.62" height="1.59" style="fill:url(#ap)"/><rect x="283.26" y="358.34" width="24.62" height="1.59" style="fill:url(#aq)"/><rect x="278.61" y="365.58" width="33.91" height="1.59" style="fill:url(#ar)"/><rect x="278.61" y="112.29" width="33.91" height="1.59" style="fill:url(#as)"/><rect x="283.26" y="119.53" width="24.62" height="1.59" style="fill:url(#at)"/><rect x="283.26" y="126.78" width="24.62" height="1.59" style="fill:url(#au)"/><rect x="283.26" y="134.02" width="24.62" height="1.59" style="fill:url(#av)"/><rect x="283.26" y="141.26" width="24.62" height="1.59" style="fill:url(#aw)"/><rect x="278.61" y="148.51" width="33.91" height="1.59" style="fill:url(#ax)"/><rect x="283.41" y="155.75" width="24.62" height="1.59" style="fill:url(#ay)"/><rect x="283.41" y="163" width="24.62" height="1.59" style="fill:url(#az)"/><rect x="283.41" y="170.24" width="24.62" height="1.59" style="fill:url(#ba)"/><rect x="283.41" y="177.48" width="24.62" height="1.59" style="fill:url(#bb)"/><rect x="278.77" y="184.73" width="33.91" height="1.59" style="fill:url(#bc)"/><rect x="283.26" y="191.97" width="24.62" height="1.59" style="fill:url(#bd)"/><rect x="283.26" y="199.21" width="24.62" height="1.59" style="fill:url(#be)"/><rect x="283.26" y="206.46" width="24.62" height="1.59" style="fill:url(#bf)"/><rect x="283.26" y="213.7" width="24.62" height="1.59" style="fill:url(#bg)"/><rect x="278.61" y="220.94" width="33.91" height="1.59" style="fill:url(#bh)"/><rect x="283.26" y="228.19" width="24.62" height="1.59" style="fill:url(#bi)"/><rect x="283.26" y="235.43" width="24.62" height="1.59" style="fill:url(#bj)"/><rect x="283.26" y="242.67" width="24.62" height="1.59" style="fill:url(#bk)"/><rect x="283.26" y="249.92" width="24.62" height="1.59" style="fill:url(#bl)"/><rect x="278.61" y="257.16" width="33.91" height="1.59" style="fill:url(#bm)"/><path d="M303.89,484.22V107.58c0-5.46-3.79-9.92-8.42-9.92h-.56c-4.63,0-8.41,4.46-8.41,9.92l0,376.64Z" style="fill:#9be0ff"/><g style="clip-path:url(#bn)"><rect x="286.45" y="149.99" width="17.57" height="370.41" style="fill:#fff"/><path d="M109.31,334.94H480.68a0,0,0,0,1,0,0v6.22a0,0,0,0,1,0,0H109.31a0,0,0,0,1,0,0v-6.24A0,0,0,0,1,109.31,334.94Z" transform="translate(-43.05 633.06) rotate(-90)" style="fill:#8e8e8e"/><path d="M294.63,152.38V523.64h-1.39c-.76,0-1.38-1.4-1.38-3.12V155.38c0-1.72,0-3,0-3Z" style="fill:#a8a8a8"/><rect x="286.51" y="149.5" width="17.39" height="2.07" style="fill:#a8a8a8"/><rect x="286.5" y="151.54" width="17.38" height="2.07" style="fill:#8e8e8e"/></g><rect x="271.93" y="487.48" width="47.36" height="11.37" transform="translate(591.22 986.33) rotate(-180)" style="fill:#d22c20"/><path d="M259.3,519.5c.71-15.38,16.73-27.67,36.4-27.67s35.69,12.29,36.41,27.67Z" style="fill:#d22c20"/><rect x="272.19" y="495.46" width="46.57" height="3.19" transform="translate(590.95 994.12) rotate(-180)" style="fill:#a81a16"/><rect x="275.18" y="484.33" width="40.79" height="3.5" style="fill:url(#bo)"/><path d="M77.85,0H102a42.15,42.15,0,0,1,42,42v.08H133.68A31.79,31.79,0,0,0,102,11.19H77.87A31.79,31.79,0,0,0,46.18,42.88V74.56c0,.1,0,.2,0,.3H35.83V42A42.15,42.15,0,0,1,77.85,0Z" style="fill:#d22c20"/><polygon points="143.62 42.43 144.38 48.03 141.85 50.43 135.28 49.6 134.1 44.51 134.7 40.74 134.54 39.96 143.11 39.96 143.62 42.43" style="fill:#d22c20"/><path d="M133,41h-.82v6.87A3.72,3.72,0,0,0,135,51.48a3.63,3.63,0,0,0,.87.1h6.5a3.74,3.74,0,0,0,3.74-3.73V41h-1.28c0-.34,0-.68-.05-1H141.7c0,.34,0,.68.05,1H136c0-.34,0-.67-.07-1h-3.09C132.91,40.3,133,40.63,133,41Zm2.25,3.08H143v3.81a.66.66,0,0,1-.19.46.67.67,0,0,1-.47.19h-6.5a.65.65,0,0,1-.65-.66v-3.8Z" style="fill:#d22c20"/><rect x="132.95" y="40.02" width="11.84" height="0.97" style="fill:#a81a16"/><rect x="35.61" y="68.47" width="10.64" height="0.89" style="fill:#a81a16"/><rect x="20.11" y="92.76" width="40.83" height="400.07" style="fill:#d22c20"/><ellipse cx="40.53" cy="94.09" rx="20.46" ry="21.68" style="fill:#d22c20"/><polygon points="60.71 90.96 20.35 90.83 20.75 89.14 60.35 89.14 60.71 90.96" style="fill:#a81a16"/><rect x="23.96" y="90.95" width="34.39" height="395.99" style="fill:url(#bp)"/><rect x="23.58" y="329.14" width="33.91" height="1.59" style="fill:url(#bq)"/><rect x="28.22" y="336.38" width="24.62" height="1.59" style="fill:url(#br)"/><rect x="28.22" y="343.62" width="24.62" height="1.59" style="fill:url(#bs)"/><rect x="28.22" y="350.87" width="24.62" height="1.59" style="fill:url(#bt)"/><rect x="28.22" y="358.11" width="24.62" height="1.59" style="fill:url(#bu)"/><rect x="23.58" y="365.35" width="33.91" height="1.59" style="fill:url(#bv)"/><rect x="28.07" y="372.6" width="24.62" height="1.59" style="fill:url(#bw)"/><rect x="28.07" y="379.84" width="24.62" height="1.59" style="fill:url(#bx)"/><rect x="28.07" y="387.08" width="24.62" height="1.59" style="fill:url(#by)"/><rect x="28.07" y="394.33" width="24.62" height="1.59" style="fill:url(#bz)"/><rect x="23.42" y="401.57" width="33.91" height="1.59" style="fill:url(#ca)"/><rect x="28.22" y="408.81" width="24.62" height="1.59" style="fill:url(#cb)"/><rect x="28.22" y="416.06" width="24.62" height="1.59" style="fill:url(#cc)"/><rect x="28.22" y="423.3" width="24.62" height="1.59" style="fill:url(#cd)"/><rect x="28.22" y="430.54" width="24.62" height="1.59" style="fill:url(#ce)"/><rect x="23.58" y="437.79" width="33.91" height="1.59" style="fill:url(#cf)"/><rect x="28.22" y="445.03" width="24.62" height="1.59" style="fill:url(#cg)"/><rect x="28.22" y="452.28" width="24.62" height="1.59" style="fill:url(#ch)"/><rect x="28.22" y="459.52" width="24.62" height="1.59" style="fill:url(#ci)"/><rect x="28.22" y="466.76" width="24.62" height="1.59" style="fill:url(#cj)"/><rect x="23.58" y="474.01" width="33.91" height="1.59" style="fill:url(#ck)"/><rect x="23.58" y="220.71" width="33.91" height="1.59" style="fill:url(#cl)"/><rect x="28.22" y="227.96" width="24.62" height="1.59" style="fill:url(#cm)"/><rect x="28.22" y="235.2" width="24.62" height="1.59" style="fill:url(#cn)"/><rect x="28.22" y="242.44" width="24.62" height="1.59" style="fill:url(#co)"/><rect x="28.22" y="249.69" width="24.62" height="1.59" style="fill:url(#cp)"/><rect x="23.58" y="256.93" width="33.91" height="1.59" style="fill:url(#cq)"/><rect x="28.07" y="264.17" width="24.62" height="1.59" style="fill:url(#cr)"/><rect x="28.07" y="271.42" width="24.62" height="1.59" style="fill:url(#cs)"/><rect x="28.07" y="278.66" width="24.62" height="1.59" style="fill:url(#ct)"/><rect x="28.07" y="285.9" width="24.62" height="1.59" style="fill:url(#cu)"/><rect x="23.42" y="293.15" width="33.91" height="1.59" style="fill:url(#cv)"/><rect x="28.22" y="300.39" width="24.62" height="1.59" style="fill:url(#cw)"/><rect x="28.22" y="307.64" width="24.62" height="1.59" style="fill:url(#cx)"/><rect x="28.22" y="314.88" width="24.62" height="1.59" style="fill:url(#cy)"/><rect x="28.22" y="322.12" width="24.62" height="1.59" style="fill:url(#cz)"/><rect x="23.58" y="329.37" width="33.91" height="1.59" style="fill:url(#da)"/><rect x="28.22" y="336.61" width="24.62" height="1.59" style="fill:url(#db)"/><rect x="28.22" y="343.85" width="24.62" height="1.59" style="fill:url(#dc)"/><rect x="28.22" y="351.1" width="24.62" height="1.59" style="fill:url(#dd)"/><rect x="28.22" y="358.34" width="24.62" height="1.59" style="fill:url(#de)"/><rect x="23.58" y="365.58" width="33.91" height="1.59" style="fill:url(#df)"/><rect x="23.58" y="112.29" width="33.91" height="1.59" style="fill:url(#dg)"/><rect x="28.22" y="119.53" width="24.62" height="1.59" style="fill:url(#dh)"/><rect x="28.22" y="126.78" width="24.62" height="1.59" style="fill:url(#di)"/><rect x="28.22" y="134.02" width="24.62" height="1.59" style="fill:url(#dj)"/><rect x="28.22" y="141.26" width="24.62" height="1.59" style="fill:url(#dk)"/><rect x="23.58" y="148.51" width="33.91" height="1.59" style="fill:url(#dl)"/><rect x="28.07" y="155.75" width="24.62" height="1.59" style="fill:url(#dm)"/><rect x="28.07" y="163" width="24.62" height="1.59" style="fill:url(#dn)"/><rect x="28.07" y="170.24" width="24.62" height="1.59" style="fill:url(#do)"/><rect x="28.07" y="177.48" width="24.62" height="1.59" style="fill:url(#dp)"/><rect x="23.42" y="184.73" width="33.91" height="1.59" style="fill:url(#dq)"/><rect x="28.22" y="191.97" width="24.62" height="1.59" style="fill:url(#dr)"/><rect x="28.22" y="199.21" width="24.62" height="1.59" style="fill:url(#ds)"/><rect x="28.22" y="206.46" width="24.62" height="1.59" style="fill:url(#dt)"/><rect x="28.22" y="213.7" width="24.62" height="1.59" style="fill:url(#du)"/><rect x="23.58" y="220.94" width="33.91" height="1.59" style="fill:url(#dv)"/><rect x="28.22" y="228.19" width="24.62" height="1.59" style="fill:url(#dw)"/><rect x="28.22" y="235.43" width="24.62" height="1.59" style="fill:url(#dx)"/><rect x="28.22" y="242.67" width="24.62" height="1.59" style="fill:url(#dy)"/><rect x="28.22" y="249.92" width="24.62" height="1.59" style="fill:url(#dz)"/><rect x="23.58" y="257.16" width="33.91" height="1.59" style="fill:url(#ea)"/><path d="M32.2,484.22V107.58c0-5.46,3.79-9.92,8.42-9.92h.56c4.63,0,8.42,4.46,8.42,9.92l0,376.64Z" style="fill:#9be0ff"/><g style="clip-path:url(#eb)"><rect x="32.08" y="148.99" width="17.57" height="370.41" transform="translate(81.72 668.39) rotate(-180)" style="fill:#fff"/><path d="M-144.6,333.94H226.78a0,0,0,0,1,0,0v6.22a0,0,0,0,1,0,0H-144.6a0,0,0,0,1,0,0v-6.24A0,0,0,0,1-144.6,333.94Z" transform="translate(-295.97 378.15) rotate(-90)" style="fill:#8e8e8e"/><path d="M41.46,151.38V522.64h1.39c.77,0,1.39-1.4,1.39-3.12V154.38c0-1.72,0-3,0-3Z" style="fill:#a8a8a8"/><rect x="32.2" y="148.5" width="17.39" height="2.07" transform="translate(81.79 299.07) rotate(-180)" style="fill:#a8a8a8"/><rect x="32.21" y="150.54" width="17.38" height="2.07" transform="translate(81.8 303.16) rotate(-180)" style="fill:#8e8e8e"/></g><rect x="16.8" y="487.48" width="47.36" height="11.37" style="fill:#d22c20"/><path d="M76.79,519.5c-.71-15.38-16.73-27.67-36.4-27.67S4.7,504.12,4,519.5Z" style="fill:#d22c20"/><rect x="17.33" y="495.46" width="46.57" height="3.19" style="fill:#a81a16"/><rect x="20.12" y="484.33" width="40.79" height="3.5" transform="translate(81.04 972.17) rotate(-180)" style="fill:url(#ec)"/><rect y="474.17" width="112.67" height="374" style="fill:none"/><path d="M163.92,370.65a59.69,59.69,0,0,1-8.76-30.21c0-7.79,10.22-6.86,10.22-6.86s10.22-.93,10.22,6.86a59.69,59.69,0,0,1-8.76,30.21c-.87,1.45-1.45,2.25-1.45,2.25v0S164.79,372.1,163.92,370.65Z" style="fill:#fff"/><path d="M184.76,343.6a23.19,23.19,0,0,1-4,1.57A47.11,47.11,0,0,1,165.3,347,49.57,49.57,0,0,1,153,345.16a19.26,19.26,0,0,1-5.17-2.17c.78-1.05,4-2.81,7.09-4.36,1.8-.9,3.58-1.73,4.86-2.31,1.06-.48,1.78-.79,1.87-.82a12.78,12.78,0,0,0,.54-3c.4-3.34.85-8.24.85-8.24h8l.31,3.6.68,7.8c.84.37,1.68.79,2.51,1.23,1.66.87,3.27,1.85,4.71,2.78C182.4,341.73,184.76,343.6,184.76,343.6Z" style="fill:#ffceaa"/><path d="M171.26,327.83q-4.59,2.28-9.12,4.64c.4-3.34.85-8.24.85-8.24h8Z" style="fill:#eda672"/><path d="M148.88,296.09c-.74,5,.79,19,5.53,24.23s9.67,7.08,13,7.21,10.82-4.25,14.54-10.47c4.49-7.5,4.1-21.76,3.17-27.29s-10.27-10.67-19.22-9.22S150.72,283.71,148.88,296.09Z" style="fill:#ffceaa"/><path d="M169.4,311c-.92-.47-3-.43-4.68-.16a1.63,1.63,0,0,0-.61.2c-.17.12-.11.33,0,.51a6.54,6.54,0,0,0,1.89,1.33,1.61,1.61,0,0,0,2.07-.27C168.63,312.13,169.76,311.49,169.4,311Z" style="fill:#eda672"/><path d="M133.19,299.22a3.18,3.18,0,0,0,1.59-1.39,4.58,4.58,0,0,1,.67-.9,1.58,1.58,0,0,0,.37-.67,4.62,4.62,0,0,1,3.78-3.45,1,1,0,0,0,.86-1,4.68,4.68,0,0,1,4.67-4.63h.05a1.39,1.39,0,0,0,1.22-.66,6.85,6.85,0,0,1,4.12-2.64c1.59,0,3.37-1.67,3.87-2.55,1.11-2,2.32-1.94,9.29-4h0a4.11,4.11,0,0,1,2.81.39,1.39,1.39,0,0,0,1,.13,5.07,5.07,0,0,1,3.87.58,1.41,1.41,0,0,0,1.15.14,5.09,5.09,0,0,1,3.94.39,4.82,4.82,0,0,0,2.55.59,4.47,4.47,0,0,1,3.8,1.85,4.75,4.75,0,0,0,1.52,1.37,5.69,5.69,0,0,1,1.14.86,4.94,4.94,0,0,0,2.21,1.25,5.47,5.47,0,0,1,3.89,3.79,4.9,4.9,0,0,0,2.58,3.08,5.48,5.48,0,0,1,2.75,3.08,5,5,0,0,0,1.28,1.94,4.55,4.55,0,0,1,1.45,3.47,5.05,5.05,0,0,0,.49,2.29,6.37,6.37,0,0,1-1.52,7.51,5,5,0,0,0-1.64,3.27,8.57,8.57,0,0,1-6.14,7.46,5,5,0,0,0-2,1.1,11.22,11.22,0,0,1-9.16,2.91,4.92,4.92,0,0,0-2.9.5,21.09,21.09,0,0,1-5.57,1.85l0-.53c9.68-4.82,13.76-12.41,14.09-22.72v-.27a4.45,4.45,0,0,1-3.38-4.31,4.79,4.79,0,0,1,.07-.77,5.05,5.05,0,0,1-4.39-5,4.82,4.82,0,0,1,.08-.86,5,5,0,0,1-7.76-3.31,5,5,0,0,1-8.34-3.38,4.26,4.26,0,0,1-3.43,1.74,4.31,4.31,0,0,1-.88-.09,4.44,4.44,0,0,1,.18,1.22,4.66,4.66,0,0,1-3,4.35,4.65,4.65,0,0,1-3.6,4.12,4.64,4.64,0,0,1-1.77,3.33,20.42,20.42,0,0,0-.08,3.23c1,8.82,4.61,18.13,13.78,22.58l0,.54a22.45,22.45,0,0,1-4.25-1.7,5,5,0,0,0-2.81-.5,11.26,11.26,0,0,1-7.18-1.57,3.15,3.15,0,0,0-1.71-.47,8.49,8.49,0,0,1-6.86-3.29,3.21,3.21,0,0,0-1.35-1,6.33,6.33,0,0,1-4-5,3.22,3.22,0,0,0-1-1.87,4.58,4.58,0,0,1-1.42-3.05,3.23,3.23,0,0,0-.79-1.91,4.66,4.66,0,0,1,1.78-7.39Z" style="fill:#d5532c"/><path d="M158.87,302.06c1.87.41,2.8,1.26,2.5,4.3a2.92,2.92,0,0,1-.5,1.61,5.36,5.36,0,0,1-1.41.87c-1.22.63-3,1.36-4.22.62a4.1,4.1,0,0,1-1.9-3.1,4,4,0,0,1,.19-2.48c.68-1.28,2.24-1.75,3.65-2.1Z" style="fill:#fff"/><path d="M156.49,307a1.86,1.86,0,0,1-.09-2,1.35,1.35,0,0,1,.56-.55,1,1,0,0,1,.79-.07,1.26,1.26,0,0,1,.71,1,1.88,1.88,0,0,1-.5,1.85,1,1,0,0,1-.8.25A1.11,1.11,0,0,1,156.49,307Z" style="fill:#4c0c0a"/><path d="M153,305.55a4.5,4.5,0,0,1,2.93-3.13,5,5,0,0,1,3.63,0,3.93,3.93,0,0,1,2,2.24c.14.36.53.31.58.09a4.38,4.38,0,0,0-3.47-3.77,5.43,5.43,0,0,0-5.64,2.4,3.52,3.52,0,0,0-.56,1.69C152.38,305.66,152.87,305.89,153,305.55Z" style="fill:#eda672"/><path d="M153.05,304.73l-2.2.12a4.16,4.16,0,0,0,2,.84C152.88,305.27,152.8,305.06,153.05,304.73Z" style="fill:#eda672"/><path d="M173.61,302.06c-1.87.41-2.8,1.26-2.5,4.3a2.92,2.92,0,0,0,.5,1.61,5.36,5.36,0,0,0,1.41.87c1.23.63,2.95,1.36,4.22.62a4.1,4.1,0,0,0,1.9-3.1,4,4,0,0,0-.19-2.48c-.68-1.28-2.24-1.75-3.65-2.1Z" style="fill:#fff"/><path d="M176,307a1.84,1.84,0,0,0,.09-2,1.39,1.39,0,0,0-.55-.55,1,1,0,0,0-.78-.07,1.28,1.28,0,0,0-.71,1,1.85,1.85,0,0,0,.49,1.83,1,1,0,0,0,.8.25A1.08,1.08,0,0,0,176,307Z" style="fill:#4c0c0a"/><path d="M179.53,305.55a4.5,4.5,0,0,0-2.93-3.13,5,5,0,0,0-3.63,0,3.93,3.93,0,0,0-2,2.24c-.14.36-.53.31-.58.09a4.38,4.38,0,0,1,3.48-3.77,5.42,5.42,0,0,1,5.63,2.4,3.52,3.52,0,0,1,.56,1.69C180.1,305.66,179.61,305.89,179.53,305.55Z" style="fill:#eda672"/><path d="M179.43,304.73l2.2.12a4.16,4.16,0,0,1-2,.84C179.6,305.27,179.68,305.06,179.43,304.73Z" style="fill:#eda672"/><path d="M177.81,298.76a35.59,35.59,0,0,0-6.24-4.82,5.92,5.92,0,0,1,6.24,4.82Z" style="fill:#d5532c"/><path d="M154.16,298.89a35.49,35.49,0,0,1,6.25-4.81,5.94,5.94,0,0,0-4,1.21A6,6,0,0,0,154.16,298.89Z" style="fill:#d5532c"/><path d="M162.53,317.44s.4-1.72,1.33-2.18a6.5,6.5,0,0,1,6,.11,3.57,3.57,0,0,1,1.1,2.1Z" style="fill:#aa4c3f"/><path d="M162.13,321.24s0,2,.85,2.77,1.74,1.15,3.76,1.19a5.9,5.9,0,0,0,3.89-1.07c.76-.76.76-3.1.76-3.1Z" style="fill:#aa4c3f"/><path d="M170.81,322.9a6,6,0,0,1-4,1.11c-2.23,0-3.51-.53-4.26-1.38-.48-.53-.46-1.82-.34-3.15a6,6,0,0,1,.84-3.11,1.94,1.94,0,0,1,.47-.44,1.49,1.49,0,0,1,.67-.29c1-.16,1.26.21,2.62.21s1.63-.37,2.63-.21a1.61,1.61,0,0,1,.5.18,1.7,1.7,0,0,1,.57.54,6.79,6.79,0,0,1,.8,3.09C171.44,320.93,171.52,322.28,170.81,322.9Z" style="fill:#4c0c0a"/><path d="M163.5,322.79a3.8,3.8,0,0,1,2.6-1.5,4.49,4.49,0,0,1,3.09.67c.37.26.69.62.6,1a20.61,20.61,0,0,1-5.87.33c-.2,0-.44-.06-.5-.21A.32.32,0,0,1,163.5,322.79Z" style="fill:#b2543f"/><path d="M170.49,316.36a.58.58,0,0,1-.17.18,2.43,2.43,0,0,1-1,.44,17.67,17.67,0,0,1-4.47.09,3.69,3.69,0,0,1-1.66-.57,1,1,0,0,1-.15-.13,2,2,0,0,1,.32-.33l.09-.06.06-.05,0,0,.05,0a1.38,1.38,0,0,1,.59-.24c1-.16,1.26.21,2.62.21s1.63-.37,2.63-.21a1.61,1.61,0,0,1,.5.18l.08.05h0l.13.1,0,0A1.87,1.87,0,0,1,170.49,316.36Z" style="fill:#fff"/><path d="M170.81,322.9c-.76.71-2,1.11-4,1.11-2.23,0-3.55-.5-4.26-1.38a2,2,0,0,1,.21-.2.57.57,0,0,1,.13-.08.74.74,0,0,1,.29-.12,2.15,2.15,0,0,1,1.11.16,10.38,10.38,0,0,0,5.25,0,1.19,1.19,0,0,1,.91,0l.14.11a.5.5,0,0,1,.08.12A2.69,2.69,0,0,1,170.81,322.9Z" style="fill:#fff"/><path d="M185.1,303.15h-1.46c0-.24,0-.48,0-.74v-.69l-.64-.28h0a8,8,0,0,0-1-.36c-.33-.11-.65-.2-1-.28a16.57,16.57,0,0,0-2-.39,19,19,0,0,0-4-.17,9.32,9.32,0,0,0-1,.1,9,9,0,0,0-1,.19,9.11,9.11,0,0,0-2,.71,8.25,8.25,0,0,0-1.72,1.16,6.56,6.56,0,0,0-1.35,1.63l-.08.13h-2.33l-.08-.13a6.56,6.56,0,0,0-1.35-1.63,8.25,8.25,0,0,0-1.72-1.16,9.11,9.11,0,0,0-1.95-.71,8.56,8.56,0,0,0-1-.19,9.32,9.32,0,0,0-1-.1,19.5,19.5,0,0,0-5.95.56c-.33.08-.65.17-1,.28a8,8,0,0,0-1,.36h0l-.64.28v.69c0,.27,0,.5,0,.74H148.4a.57.57,0,0,0-.57.56v.54a.57.57,0,0,0,.57.56H150a.59.59,0,0,0,.26-.07,5.91,5.91,0,0,0,.19.69,9,9,0,0,0,.56,1.43,8.42,8.42,0,0,0,.83,1.33,7.55,7.55,0,0,0,1.14,1.12,3.41,3.41,0,0,0,.67.45,6.85,6.85,0,0,0,.71.37,6.74,6.74,0,0,0,1.5.43,6.49,6.49,0,0,0,1.51.14H158l.17,0,.68-.05c.44,0,1-.13,1.44-.2a12,12,0,0,0,1.43-.37,8.25,8.25,0,0,0,1.38-.58,5.33,5.33,0,0,0,2.23-2.16,4,4,0,0,0,.31-.77c0-.14.06-.28.08-.44v-.66H168v.66c0,.16,0,.3.08.44a4,4,0,0,0,.31.77,5.33,5.33,0,0,0,2.23,2.16,8.25,8.25,0,0,0,1.38.58,12,12,0,0,0,1.43.37c.47.07,1,.17,1.44.2l.68.05.17,0h.59a6.49,6.49,0,0,0,1.51-.14,6.74,6.74,0,0,0,1.5-.43,5.29,5.29,0,0,0,.71-.37,3.41,3.41,0,0,0,.67-.45,7.11,7.11,0,0,0,1.14-1.12,8.42,8.42,0,0,0,.83-1.33,9,9,0,0,0,.56-1.43c.07-.21.13-.43.18-.64l.11,0h1.62a.56.56,0,0,0,.56-.56v-.54A.56.56,0,0,0,185.1,303.15Zm-20.7,2.55a1.73,1.73,0,0,1-.29,1,3.88,3.88,0,0,1-1.72,1.49,6.4,6.4,0,0,1-1.16.42,10,10,0,0,1-1.23.27c-.43,0-.81.11-1.27.11l-.69,0h-.3l-.31,0a5.26,5.26,0,0,1-1.2-.16,5.08,5.08,0,0,1-1.1-.37,4.85,4.85,0,0,1-.49-.29,2.09,2.09,0,0,1-.45-.33,4.68,4.68,0,0,1-.77-.83,7.05,7.05,0,0,1-.56-1,6.29,6.29,0,0,1-.39-1.13,8.17,8.17,0,0,1-.22-1.2c0-.16,0-.33,0-.5l.12-.05q.4-.17.84-.3a16.3,16.3,0,0,1,1.73-.47,17.8,17.8,0,0,1,1.78-.28,15.15,15.15,0,0,1,1.8-.1,8.63,8.63,0,0,1,.89,0,8.39,8.39,0,0,1,.86.1,7.29,7.29,0,0,1,1.65.49,6.43,6.43,0,0,1,1.48.86,5.3,5.3,0,0,1,1.07,1.1Zm17-2a7,7,0,0,1-.22,1.2,6.29,6.29,0,0,1-.39,1.13,6.2,6.2,0,0,1-.56,1,4.68,4.68,0,0,1-.77.83,2.09,2.09,0,0,1-.45.33,4.85,4.85,0,0,1-.49.29,5.08,5.08,0,0,1-1.1.37,5.26,5.26,0,0,1-1.2.16l-.31,0h-.3l-.68,0c-.47,0-.85-.08-1.28-.11a10,10,0,0,1-1.23-.27,6.4,6.4,0,0,1-1.16-.42,3.88,3.88,0,0,1-1.72-1.49,1.73,1.73,0,0,1-.29-1l0-1.16a5.3,5.3,0,0,1,1.07-1.1,6.43,6.43,0,0,1,1.48-.86,7.29,7.29,0,0,1,1.65-.49,8.39,8.39,0,0,1,.86-.1,8.63,8.63,0,0,1,.89,0,15.15,15.15,0,0,1,1.8.1,17.8,17.8,0,0,1,1.78.28,16.3,16.3,0,0,1,1.73.47q.44.13.84.3l.13.05C181.43,303.33,181.42,303.5,181.4,303.66Z" style="fill:#b53116"/><path d="M137.06,384.1l-.28.26A1.18,1.18,0,0,1,137.06,384.1Z" style="fill:#754559;opacity:0.4;mix-blend-mode:multiply"/><path d="M171,506.62a8.84,8.84,0,0,0,.76-1.85H179l3.07,6.09,3.23,5.85,1.91,2.2-1.49.72-9.2-.85Z" style="fill:#ffceaa"/><path d="M171.31,512.09l2.2,14.08h2.12l.41-7.58s-1-4.7-1.65-5.38S171.31,512.09,171.31,512.09Z" style="fill:#59150c"/><path d="M171.51,506.62s2.1.91,3.34,4.58,2.24,7.58,5.29,7.58h6.67a6,6,0,0,1-2-2.38c-.57-1.44-2.77-5.54-2.77-5.54s3.39,5.82,4.29,6.63,3.63,1.57,4,2.91,1.67,5.77-3,5.77H178a3.22,3.22,0,0,1-1.86-2.48c-.43-2-1.57-7.15-2.57-9s-2.1-1.43-2.77-3.67S170.59,506,171.51,506.62Z" style="fill:#b53116"/><path d="M164.66,506.36a9.41,9.41,0,0,1-.76-1.85h-7.19l-3.07,6.09-3.23,5.85-1.91,2.2,1.49.72,9.2-.86Z" style="fill:#ffceaa"/><path d="M164.38,511.83l-2.21,14.08h-2.12l-.41-7.58s1-4.7,1.65-5.38S164.38,511.83,164.38,511.83Z" style="fill:#59150c"/><path d="M164.17,506.36s-2.09.9-3.33,4.57-2.24,7.58-5.3,7.58h-6.67a5.87,5.87,0,0,0,2-2.38c.58-1.43,2.77-5.53,2.77-5.53s-3.39,5.81-4.29,6.62-3.62,1.58-4,2.91-1.66,5.78,3,5.78h9.34a3.25,3.25,0,0,0,1.86-2.49c.43-2,1.57-7.15,2.58-9s2.09-1.43,2.76-3.67S165.09,505.71,164.17,506.36Z" style="fill:#b53116"/><path d="M188.84,451.58c0,1.9-10,2.32-22.11,2.32s-21.45.82-21.45-1.07,9.63-3.67,21.71-3.67S188.84,449.69,188.84,451.58Z" style="fill:#2c222d"/><path d="M171.83,504.87l-.89-30.95.65-52.64A6.34,6.34,0,0,1,178,415c3.5,0,10.58,4.25,10.7,10.08a149.77,149.77,0,0,1-1.9,22.94c-1.19,7.37-8.11,50.29-7.85,57.06A12.84,12.84,0,0,1,171.83,504.87Z" style="fill:#ffceaa"/><path d="M163.75,504.87l.46-30.95-.65-52.64a6.44,6.44,0,0,0-6.37-6.42c-3.5,0-10.62,1.8-12.58,5,0,0,.35,4.63,1.07,14.62.57,8,8.18,52.89,8.2,53,.65,6.24,3.27,10.63,2.62,17.3C156.5,504.75,159.05,505.94,163.75,504.87Z" style="fill:#ffceaa"/><path d="M187.74,450.65l-.42,3c-2.67-.75-12.6-1.19-16.11-.89l-.17-3.45Z" style="fill:#7f5d41"/><path d="M146.49,452.72l.23,1.94c2.68-.75,13.56-2,17.06-1.72v-3.13Z" style="fill:#7f5d41"/><path d="M138.46,412.9c-1.9,5.35-2.2,14.06-2.2,14.06.18,3.75,2.2,8.41,8.5,12.69l.48,13.31c5.35-1.66,18.53-2.32,22.59-2.37,4.65-.07,15.21,0,20.92,1.07l.95-12.13a12.66,12.66,0,0,0,9-12.42s-.23-8.74-3.09-14.57c-1.12-2.3-.59-1.56-3.68-9-6.05-3.73-12.91-6.27-24.85-6.27-12.09,0-18.77,3-24.84,7.34C139.4,411.66,140.36,407.55,138.46,412.9Z" style="fill:#3b2d3c"/><polygon points="167.08 337.15 167.08 363.72 155.4 336.85 167.08 337.15" style="fill:#d8e2ef"/><polygon points="167.08 334.08 167.08 337.15 163 343.8 155.23 338.23 160.36 334.08 167.08 334.08" style="fill:#fff"/><polygon points="167.08 337.15 167.08 363.72 178.94 336.85 167.08 337.15" style="fill:#d8e2ef"/><polygon points="167.08 334.08 167.08 337.15 171.15 343.8 178.92 338.23 173.79 334.08 167.08 334.08" style="fill:#fff"/><path d="M167.08,363.72v43.22s.76,8.75-.09,8.75-28.52-3-28.52-3,10-22,9.44-28.84l-1-11.5s-3.74-3-4.24-11.05c-.42-7-2.85-15.25.82-19.09a8.82,8.82,0,0,1,7.82-2.91Z" style="fill:#d9a155"/><path d="M147.8,371.06a14.55,14.55,0,0,0,8.82,1.46c5.53-.6,8.33-2.41,7.78-2.76s-5.65.91-10.4.35S144.28,368.3,147.8,371.06Z" style="fill:#ba823a"/><path d="M167.08,363.72v43.22s.12,8.67.36,8.67c.85,0,28.25-2.91,28.25-2.91s-8.4-21.91-8.28-28.75c.09-5,.18-11.5.18-11.5s4.73-6.78,4.73-14.89,1.07-9.48-.63-13.37-8.87-4.88-8.87-4.88Z" style="fill:#d9a155"/><path d="M186.35,371.06s-3.28,2.07-8.82,1.46-8.33-2.41-7.78-2.76,5.66.91,10.4.35S189.88,368.3,186.35,371.06Z" style="fill:#ba823a"/><polygon points="167.08 363.81 167.08 415.34 166.77 415.81 166.77 363.31 167.08 363.81" style="fill:#b0772b"/><polygon points="167.08 363.81 167.08 415.34 167.38 415.81 167.38 363.31 167.08 363.81" style="fill:#b0772b"/><polygon points="133.26 417.5 132.39 414.39 134.98 409.64 140.06 408.22 142.4 416.59 133.26 417.5" style="fill:#ffceaa"/><path d="M137.11,417.08a3.81,3.81,0,1,1,2.64-4.7A3.82,3.82,0,0,1,137.11,417.08Z" style="fill:#ffceaa"/><path d="M138,420.15a3.82,3.82,0,1,1,2.64-4.71A3.82,3.82,0,0,1,138,420.15Z" style="fill:#ffceaa"/><path d="M139.52,416.41a3.82,3.82,0,1,1,2.65-4.71A3.81,3.81,0,0,1,139.52,416.41Z" style="fill:#ffceaa"/><rect x="132.87" y="406.5" width="7.63" height="7.68" transform="translate(-106.07 52.39) rotate(-15.72)" style="fill:#ffceaa"/><path d="M142.06,415.19c-1.61-1.87-2.51-3.76-2-4.2s2.23.75,3.84,2.62,2.5,3.76,2,4.2S143.66,417.06,142.06,415.19Z" style="fill:#ffceaa"/><path d="M141.17,418.53c-1-3.52-1.29-6.54-.68-6.71s1.91,2.57,2.9,6.09,1.29,6.54.69,6.71S142.16,422.05,141.17,418.53Z" style="fill:#ffceaa"/><path d="M139.28,420.3c-1.06-3.79-1.44-7-.83-7.2s2,2.79,3.05,6.58,1.43,7,.82,7.21S140.34,424.1,139.28,420.3Z" style="fill:#ffceaa"/><path d="M136.92,420.43c-1-3.52-1.29-6.54-.68-6.71s1.91,2.57,2.9,6.09,1.3,6.54.69,6.71S137.91,424,136.92,420.43Z" style="fill:#ffceaa"/><path d="M134.18,419.17c-.87-3.11-1.09-5.79-.48-6s1.83,2.23,2.7,5.34,1.08,5.8.47,6S135.05,422.28,134.18,419.17Z" style="fill:#ffceaa"/><path d="M139.19,404.74c-.66.26.21,1.28.5,2.15s.57,2,.57,2l-7.46,1.8L132,407.8Z" style="fill:#ededed"/><path d="M139.72,406.9l-.17-.73c0-.12,0-.26,0-.39l0-.39c0-.26,0-.54,0-.81V402.9c0-.28,0-.57,0-.85s0-.57,0-.87l.05-.87c.14-2.32.4-4.68.74-7s.73-4.73,1.18-7.09.95-4.71,1.5-7.05,1.13-4.68,1.76-7,1.29-4.62,2-6.91,1.45-4.56,2.24-6.81,1.62-4.47,2.5-6.66L138,347.37q-1,3.72-1.9,7.46c-.58,2.49-1.1,5-1.58,7.48s-.91,5-1.31,7.51-.73,5-1,7.53-.56,5-.76,7.59-.36,5.08-.43,7.64-.09,5.15,0,7.79l0,1c0,.33.05.67.08,1s0,.66.09,1l.11,1,0,.26,0,.26.07.52c0,.35.1.7.18,1.06l.1.54,0,.27,0,.14,0,.14.28,1.13Z" style="fill:#d9a155"/><path d="M147.07,342.94a6.73,6.73,0,0,0-5.41.22,7,7,0,0,0-2.2,1.68,7.26,7.26,0,0,0-1.77,5.42,7,7,0,0,0,.78,2.64,6.84,6.84,0,0,0,4.22,3.38,7.24,7.24,0,0,0,5.36-.57,6.86,6.86,0,0,0,2.07-1.63,6.63,6.63,0,0,0,1.32-2.33,6.72,6.72,0,0,0,.31-2.65,7,7,0,0,0-.71-2.52A7.4,7.4,0,0,0,147.07,342.94Z" style="fill:#d9a155"/><polygon points="200.55 418.13 201.43 415.02 198.83 410.27 193.76 408.84 191.41 417.22 200.55 418.13" style="fill:#ffceaa"/><path d="M196.71,417.71a3.81,3.81,0,1,0-2.65-4.7A3.81,3.81,0,0,0,196.71,417.71Z" style="fill:#ffceaa"/><path d="M195.85,420.77a3.81,3.81,0,1,0-2.64-4.7A3.81,3.81,0,0,0,195.85,420.77Z" style="fill:#ffceaa"/><path d="M194.29,417a3.81,3.81,0,1,0-2.64-4.7A3.82,3.82,0,0,0,194.29,417Z" style="fill:#ffceaa"/><rect x="193.29" y="407.15" width="7.68" height="7.63" transform="translate(-251.88 489.37) rotate(-74.28)" style="fill:#ffceaa"/><path d="M191.76,415.82c1.6-1.88,2.5-3.76,2-4.2s-2.24.75-3.84,2.62-2.5,3.76-2,4.2S190.16,417.69,191.76,415.82Z" style="fill:#ffceaa"/><path d="M192.64,419.16c1-3.53,1.3-6.55.69-6.72s-1.92,2.57-2.9,6.09-1.3,6.55-.69,6.72S191.66,422.68,192.64,419.16Z" style="fill:#ffceaa"/><path d="M194.54,420.93c1.06-3.79,1.43-7,.82-7.2s-2,2.79-3,6.58-1.43,7-.82,7.2S193.47,424.72,194.54,420.93Z" style="fill:#ffceaa"/><path d="M196.89,421.06c1-3.52,1.3-6.54.69-6.71s-1.92,2.57-2.91,6.09-1.29,6.54-.68,6.71S195.9,424.58,196.89,421.06Z" style="fill:#ffceaa"/><path d="M199.63,419.8c.88-3.11,1.09-5.79.48-6s-1.82,2.23-2.69,5.34-1.09,5.79-.48,6S198.76,422.91,199.63,419.8Z" style="fill:#ffceaa"/><path d="M194.65,405.23c.66.27-.23,1.45-.52,2.32s-.56,1.8-.56,1.8l7.47,1.8.8-2.85Z" style="fill:#ededed"/><path d="M194.12,407.5l.15-.7c0-.12,0-.26,0-.39l0-.4c0-.25,0-.53,0-.81v-1.67c0-.28,0-.57,0-.86l0-.86,0-.87c-.14-2.32-.41-4.68-.74-7s-.73-4.73-1.19-7.09-.94-4.71-1.49-7.05-1.13-4.68-1.76-7-1.3-4.63-2-6.92-1.46-4.56-2.25-6.8-1.62-4.47-2.49-6.66L195.82,348q1,3.72,1.9,7.46c.57,2.49,1.09,5,1.58,7.48s.91,5,1.31,7.5.73,5,1,7.54.55,5,.76,7.58.35,5.09.43,7.65.09,5.15,0,7.79l-.06,1c0,.33-.05.67-.07,1s0,.66-.09,1l-.11,1,0,.25,0,.27-.08.52c0,.35-.09.69-.17,1.06l-.1.54-.06.27,0,.14,0,.14-.28,1.13Z" style="fill:#d9a155"/><path d="M186.75,343.57a6.77,6.77,0,0,1,5.41.21,7,7,0,0,1,2.2,1.69A7.42,7.42,0,0,1,195.8,348a7.53,7.53,0,0,1,.33,2.88,7.09,7.09,0,0,1-.79,2.65,6.86,6.86,0,0,1-4.22,3.38,7.35,7.35,0,0,1-5.36-.57,7.47,7.47,0,0,1-2.07-1.63,6.76,6.76,0,0,1-1.31-2.33,6.54,6.54,0,0,1-.31-2.65,7.1,7.1,0,0,1,.71-2.53A7.35,7.35,0,0,1,186.75,343.57Z" style="fill:#d9a155"/><path d="M149.79,352.21c3.58,1.19,4.77,1.52,4.77,1.52s-1.14,1.76-2.11,3.3,6.64,2.87,14.51,6.46c0,0-7.38-14.27-10.05-26.78-.65-3.06-7.48,2.14-8.34,5.27C147.57,345.65,147.86,351.57,149.79,352.21Z" style="fill:#b0772b"/><path d="M184.28,352.64c-3.55,1.11-4.73,1.41-4.73,1.41s1.09,1.76,2,3.3-6.6,2.72-14.44,6.11c0,0,7.54-13.95,10.39-26.25.7-3,7.35,2.25,8.14,5.36C186.59,346.2,186.2,352,184.28,352.64Z" style="fill:#b0772b"/><path d="M189.86,439.32l3.17-4.9a41.25,41.25,0,0,0,5.59-5.23s-1,4.4-3.09,6.65A16.38,16.38,0,0,1,189.86,439.32Z" style="fill:#2c222d"/><path d="M145.36,439.68l-3.09-4.55a54.93,54.93,0,0,1-5.67-5.59s1,4.4,3.09,6.66A16.38,16.38,0,0,0,145.36,439.68Z" style="fill:#2c222d"/></g></svg>