<svg xmlns="http://www.w3.org/2000/svg" xmlns:xlink="http://www.w3.org/1999/xlink" viewBox="0 0 332.11 848.17"><defs><clipPath id="a"><path d="M210.87,101.44v.06c-.1.36-1.77.89-2.14,1a38.89,38.89,0,0,1-5.63,1.11c-28.22,4.14-71.94,1.48-76.12-1.62l-.16-.18c.87-4.83,52.68-6.34,74.28-3.51C206.71,99,210.37,100,210.87,101.44Z" style="fill:#a81a16"/></clipPath><linearGradient id="b" x1="-182.75" y1="288.95" x2="-148.36" y2="288.95" gradientTransform="matrix(1, 0, 0, -1, 460.49, 577.9)" gradientUnits="userSpaceOnUse"><stop offset="0.01" stop-color="#d22c20"/><stop offset="0.31" stop-color="#e7342e"/><stop offset="0.51" stop-color="#ef3733"/><stop offset="0.72" stop-color="#e6332d"/><stop offset="1" stop-color="#d22c20"/></linearGradient><linearGradient id="c" x1="311.62" y1="329.93" x2="278.86" y2="329.93" gradientUnits="userSpaceOnUse"><stop offset="0.05" stop-color="#d3d2d2"/><stop offset="0.37" stop-color="#9a9a9c"/><stop offset="0.64" stop-color="#9a9a9c"/><stop offset="1" stop-color="#d1d6d5"/></linearGradient><linearGradient id="d" x1="307.23" y1="337.17" x2="283.44" y2="337.17" xlink:href="#c"/><linearGradient id="e" x1="307.23" y1="344.42" x2="283.44" y2="344.42" xlink:href="#c"/><linearGradient id="f" x1="307.23" y1="351.66" x2="283.44" y2="351.66" xlink:href="#c"/><linearGradient id="g" x1="307.23" y1="358.9" x2="283.44" y2="358.9" xlink:href="#c"/><linearGradient id="h" x1="311.62" y1="366.15" x2="278.86" y2="366.15" xlink:href="#c"/><linearGradient id="i" x1="307.38" y1="373.39" x2="283.59" y2="373.39" xlink:href="#c"/><linearGradient id="j" x1="307.38" y1="380.63" x2="283.59" y2="380.63" xlink:href="#c"/><linearGradient id="k" x1="307.38" y1="387.88" x2="283.59" y2="387.88" xlink:href="#c"/><linearGradient id="l" x1="307.38" y1="395.12" x2="283.59" y2="395.12" xlink:href="#c"/><linearGradient id="m" x1="311.78" y1="402.37" x2="279.01" y2="402.37" xlink:href="#c"/><linearGradient id="n" x1="307.23" y1="409.61" x2="283.44" y2="409.61" xlink:href="#c"/><linearGradient id="o" x1="307.23" y1="416.85" x2="283.44" y2="416.85" xlink:href="#c"/><linearGradient id="p" x1="307.23" y1="424.1" x2="283.44" y2="424.1" xlink:href="#c"/><linearGradient id="q" x1="307.23" y1="431.34" x2="283.44" y2="431.34" xlink:href="#c"/><linearGradient id="r" x1="311.62" y1="438.58" x2="278.86" y2="438.58" xlink:href="#c"/><linearGradient id="s" x1="307.23" y1="445.83" x2="283.44" y2="445.83" xlink:href="#c"/><linearGradient id="t" x1="307.23" y1="453.07" x2="283.44" y2="453.07" xlink:href="#c"/><linearGradient id="u" x1="307.23" y1="460.31" x2="283.44" y2="460.31" xlink:href="#c"/><linearGradient id="v" x1="307.23" y1="467.56" x2="283.44" y2="467.56" xlink:href="#c"/><linearGradient id="w" x1="311.62" y1="474.8" x2="278.86" y2="474.8" xlink:href="#c"/><linearGradient id="x" x1="311.62" y1="221.51" x2="278.86" y2="221.51" xlink:href="#c"/><linearGradient id="y" x1="307.23" y1="228.75" x2="283.44" y2="228.75" xlink:href="#c"/><linearGradient id="z" x1="307.23" y1="235.99" x2="283.44" y2="235.99" xlink:href="#c"/><linearGradient id="aa" x1="307.23" y1="243.24" x2="283.44" y2="243.24" xlink:href="#c"/><linearGradient id="ab" x1="307.23" y1="250.48" x2="283.44" y2="250.48" xlink:href="#c"/><linearGradient id="ac" x1="311.62" y1="257.73" x2="278.86" y2="257.73" xlink:href="#c"/><linearGradient id="ad" x1="307.38" y1="264.97" x2="283.59" y2="264.97" xlink:href="#c"/><linearGradient id="ae" x1="307.38" y1="272.21" x2="283.59" y2="272.21" xlink:href="#c"/><linearGradient id="af" x1="307.38" y1="279.46" x2="283.59" y2="279.46" xlink:href="#c"/><linearGradient id="ag" x1="307.38" y1="286.7" x2="283.59" y2="286.7" xlink:href="#c"/><linearGradient id="ah" x1="311.78" y1="293.94" x2="279.01" y2="293.94" xlink:href="#c"/><linearGradient id="ai" x1="307.23" y1="301.19" x2="283.44" y2="301.19" xlink:href="#c"/><linearGradient id="aj" x1="307.23" y1="308.43" x2="283.44" y2="308.43" xlink:href="#c"/><linearGradient id="ak" x1="307.23" y1="315.67" x2="283.44" y2="315.67" xlink:href="#c"/><linearGradient id="al" x1="307.23" y1="322.92" x2="283.44" y2="322.92" xlink:href="#c"/><linearGradient id="am" x1="311.62" y1="330.16" x2="278.86" y2="330.16" xlink:href="#c"/><linearGradient id="an" x1="307.23" y1="337.4" x2="283.44" y2="337.4" xlink:href="#c"/><linearGradient id="ao" x1="307.23" y1="344.65" x2="283.44" y2="344.65" xlink:href="#c"/><linearGradient id="ap" x1="307.23" y1="351.89" x2="283.44" y2="351.89" xlink:href="#c"/><linearGradient id="aq" x1="307.23" y1="359.13" x2="283.44" y2="359.13" xlink:href="#c"/><linearGradient id="ar" x1="311.62" y1="366.38" x2="278.86" y2="366.38" xlink:href="#c"/><linearGradient id="as" x1="311.62" y1="113.09" x2="278.86" y2="113.09" xlink:href="#c"/><linearGradient id="at" x1="307.23" y1="120.33" x2="283.44" y2="120.33" xlink:href="#c"/><linearGradient id="au" x1="307.23" y1="127.57" x2="283.44" y2="127.57" xlink:href="#c"/><linearGradient id="av" x1="307.23" y1="134.82" x2="283.44" y2="134.82" xlink:href="#c"/><linearGradient id="aw" x1="307.23" y1="142.06" x2="283.44" y2="142.06" xlink:href="#c"/><linearGradient id="ax" x1="311.62" y1="149.3" x2="278.86" y2="149.3" xlink:href="#c"/><linearGradient id="ay" x1="307.38" y1="156.55" x2="283.59" y2="156.55" xlink:href="#c"/><linearGradient id="az" x1="307.38" y1="163.79" x2="283.59" y2="163.79" xlink:href="#c"/><linearGradient id="ba" x1="307.38" y1="171.03" x2="283.59" y2="171.03" xlink:href="#c"/><linearGradient id="bb" x1="307.38" y1="178.28" x2="283.59" y2="178.28" xlink:href="#c"/><linearGradient id="bc" x1="311.78" y1="185.52" x2="279.01" y2="185.52" xlink:href="#c"/><linearGradient id="bd" x1="307.23" y1="192.76" x2="283.44" y2="192.76" xlink:href="#c"/><linearGradient id="be" x1="307.23" y1="200.01" x2="283.44" y2="200.01" xlink:href="#c"/><linearGradient id="bf" x1="307.23" y1="207.25" x2="283.44" y2="207.25" xlink:href="#c"/><linearGradient id="bg" x1="307.23" y1="214.49" x2="283.44" y2="214.49" xlink:href="#c"/><linearGradient id="bh" x1="311.62" y1="221.74" x2="278.86" y2="221.74" xlink:href="#c"/><linearGradient id="bi" x1="307.23" y1="228.98" x2="283.44" y2="228.98" xlink:href="#c"/><linearGradient id="bj" x1="307.23" y1="236.23" x2="283.44" y2="236.23" xlink:href="#c"/><linearGradient id="bk" x1="307.23" y1="243.47" x2="283.44" y2="243.47" xlink:href="#c"/><linearGradient id="bl" x1="307.23" y1="250.71" x2="283.44" y2="250.71" xlink:href="#c"/><linearGradient id="bm" x1="311.62" y1="257.96" x2="278.86" y2="257.96" xlink:href="#c"/><clipPath id="bn"><rect x="286.53" y="112.37" width="17.37" height="371.86" style="fill:none"/></clipPath><linearGradient id="bo" x1="275.18" y1="486.08" x2="315.97" y2="486.08" gradientUnits="userSpaceOnUse"><stop offset="0.01" stop-color="#d22c20"/><stop offset="0.26" stop-color="#e2322b"/><stop offset="0.51" stop-color="#ef3733"/><stop offset="1" stop-color="#d22c20"/></linearGradient><linearGradient id="bp" x1="-368.75" y1="288.95" x2="-334.36" y2="288.95" gradientTransform="translate(392.71)" xlink:href="#b"/><linearGradient id="bq" x1="497.62" y1="329.93" x2="464.86" y2="329.93" gradientTransform="matrix(-1, 0, 0, 1, 522.09, 0)" xlink:href="#c"/><linearGradient id="br" x1="493.23" y1="337.17" x2="469.44" y2="337.17" gradientTransform="matrix(-1, 0, 0, 1, 522.09, 0)" xlink:href="#c"/><linearGradient id="bs" x1="493.23" y1="344.42" x2="469.44" y2="344.42" gradientTransform="matrix(-1, 0, 0, 1, 522.09, 0)" xlink:href="#c"/><linearGradient id="bt" x1="493.23" y1="351.66" x2="469.44" y2="351.66" gradientTransform="matrix(-1, 0, 0, 1, 522.09, 0)" xlink:href="#c"/><linearGradient id="bu" x1="493.23" y1="358.9" x2="469.44" y2="358.9" gradientTransform="matrix(-1, 0, 0, 1, 522.09, 0)" xlink:href="#c"/><linearGradient id="bv" x1="497.62" y1="366.15" x2="464.86" y2="366.15" gradientTransform="matrix(-1, 0, 0, 1, 522.09, 0)" xlink:href="#c"/><linearGradient id="bw" x1="493.38" y1="373.39" x2="469.59" y2="373.39" gradientTransform="matrix(-1, 0, 0, 1, 522.09, 0)" xlink:href="#c"/><linearGradient id="bx" x1="493.38" y1="380.63" x2="469.59" y2="380.63" gradientTransform="matrix(-1, 0, 0, 1, 522.09, 0)" xlink:href="#c"/><linearGradient id="by" x1="493.38" y1="387.88" x2="469.59" y2="387.88" gradientTransform="matrix(-1, 0, 0, 1, 522.09, 0)" xlink:href="#c"/><linearGradient id="bz" x1="493.38" y1="395.12" x2="469.59" y2="395.12" gradientTransform="matrix(-1, 0, 0, 1, 522.09, 0)" xlink:href="#c"/><linearGradient id="ca" x1="497.78" y1="402.37" x2="465.01" y2="402.37" gradientTransform="matrix(-1, 0, 0, 1, 522.09, 0)" xlink:href="#c"/><linearGradient id="cb" x1="493.23" y1="409.61" x2="469.44" y2="409.61" gradientTransform="matrix(-1, 0, 0, 1, 522.09, 0)" xlink:href="#c"/><linearGradient id="cc" x1="493.23" y1="416.85" x2="469.44" y2="416.85" gradientTransform="matrix(-1, 0, 0, 1, 522.09, 0)" xlink:href="#c"/><linearGradient id="cd" x1="493.23" y1="424.1" x2="469.44" y2="424.1" gradientTransform="matrix(-1, 0, 0, 1, 522.09, 0)" xlink:href="#c"/><linearGradient id="ce" x1="493.23" y1="431.34" x2="469.44" y2="431.34" gradientTransform="matrix(-1, 0, 0, 1, 522.09, 0)" xlink:href="#c"/><linearGradient id="cf" x1="497.62" y1="438.58" x2="464.86" y2="438.58" gradientTransform="matrix(-1, 0, 0, 1, 522.09, 0)" xlink:href="#c"/><linearGradient id="cg" x1="493.23" y1="445.83" x2="469.44" y2="445.83" gradientTransform="matrix(-1, 0, 0, 1, 522.09, 0)" xlink:href="#c"/><linearGradient id="ch" x1="493.23" y1="453.07" x2="469.44" y2="453.07" gradientTransform="matrix(-1, 0, 0, 1, 522.09, 0)" xlink:href="#c"/><linearGradient id="ci" x1="493.23" y1="460.31" x2="469.44" y2="460.31" gradientTransform="matrix(-1, 0, 0, 1, 522.09, 0)" xlink:href="#c"/><linearGradient id="cj" x1="493.23" y1="467.56" x2="469.44" y2="467.56" gradientTransform="matrix(-1, 0, 0, 1, 522.09, 0)" xlink:href="#c"/><linearGradient id="ck" x1="497.62" y1="474.8" x2="464.86" y2="474.8" gradientTransform="matrix(-1, 0, 0, 1, 522.09, 0)" xlink:href="#c"/><linearGradient id="cl" x1="497.62" y1="221.51" x2="464.86" y2="221.51" gradientTransform="matrix(-1, 0, 0, 1, 522.09, 0)" xlink:href="#c"/><linearGradient id="cm" x1="493.23" y1="228.75" x2="469.44" y2="228.75" gradientTransform="matrix(-1, 0, 0, 1, 522.09, 0)" xlink:href="#c"/><linearGradient id="cn" x1="493.23" y1="235.99" x2="469.44" y2="235.99" gradientTransform="matrix(-1, 0, 0, 1, 522.09, 0)" xlink:href="#c"/><linearGradient id="co" x1="493.23" y1="243.24" x2="469.44" y2="243.24" gradientTransform="matrix(-1, 0, 0, 1, 522.09, 0)" xlink:href="#c"/><linearGradient id="cp" x1="493.23" y1="250.48" x2="469.44" y2="250.48" gradientTransform="matrix(-1, 0, 0, 1, 522.09, 0)" xlink:href="#c"/><linearGradient id="cq" x1="497.62" y1="257.73" x2="464.86" y2="257.73" gradientTransform="matrix(-1, 0, 0, 1, 522.09, 0)" xlink:href="#c"/><linearGradient id="cr" x1="493.38" y1="264.97" x2="469.59" y2="264.97" gradientTransform="matrix(-1, 0, 0, 1, 522.09, 0)" xlink:href="#c"/><linearGradient id="cs" x1="493.38" y1="272.21" x2="469.59" y2="272.21" gradientTransform="matrix(-1, 0, 0, 1, 522.09, 0)" xlink:href="#c"/><linearGradient id="ct" x1="493.38" y1="279.46" x2="469.59" y2="279.46" gradientTransform="matrix(-1, 0, 0, 1, 522.09, 0)" xlink:href="#c"/><linearGradient id="cu" x1="493.38" y1="286.7" x2="469.59" y2="286.7" gradientTransform="matrix(-1, 0, 0, 1, 522.09, 0)" xlink:href="#c"/><linearGradient id="cv" x1="497.78" y1="293.94" x2="465.01" y2="293.94" gradientTransform="matrix(-1, 0, 0, 1, 522.09, 0)" xlink:href="#c"/><linearGradient id="cw" x1="493.23" y1="301.19" x2="469.44" y2="301.19" gradientTransform="matrix(-1, 0, 0, 1, 522.09, 0)" xlink:href="#c"/><linearGradient id="cx" x1="493.23" y1="308.43" x2="469.44" y2="308.43" gradientTransform="matrix(-1, 0, 0, 1, 522.09, 0)" xlink:href="#c"/><linearGradient id="cy" x1="493.23" y1="315.67" x2="469.44" y2="315.67" gradientTransform="matrix(-1, 0, 0, 1, 522.09, 0)" xlink:href="#c"/><linearGradient id="cz" x1="493.23" y1="322.92" x2="469.44" y2="322.92" gradientTransform="matrix(-1, 0, 0, 1, 522.09, 0)" xlink:href="#c"/><linearGradient id="da" x1="497.62" y1="330.16" x2="464.86" y2="330.16" gradientTransform="matrix(-1, 0, 0, 1, 522.09, 0)" xlink:href="#c"/><linearGradient id="db" x1="493.23" y1="337.4" x2="469.44" y2="337.4" gradientTransform="matrix(-1, 0, 0, 1, 522.09, 0)" xlink:href="#c"/><linearGradient id="dc" x1="493.23" y1="344.65" x2="469.44" y2="344.65" gradientTransform="matrix(-1, 0, 0, 1, 522.09, 0)" xlink:href="#c"/><linearGradient id="dd" x1="493.23" y1="351.89" x2="469.44" y2="351.89" gradientTransform="matrix(-1, 0, 0, 1, 522.09, 0)" xlink:href="#c"/><linearGradient id="de" x1="493.23" y1="359.13" x2="469.44" y2="359.13" gradientTransform="matrix(-1, 0, 0, 1, 522.09, 0)" xlink:href="#c"/><linearGradient id="df" x1="497.62" y1="366.38" x2="464.86" y2="366.38" gradientTransform="matrix(-1, 0, 0, 1, 522.09, 0)" xlink:href="#c"/><linearGradient id="dg" x1="497.62" y1="113.09" x2="464.86" y2="113.09" gradientTransform="matrix(-1, 0, 0, 1, 522.09, 0)" xlink:href="#c"/><linearGradient id="dh" x1="493.23" y1="120.33" x2="469.44" y2="120.33" gradientTransform="matrix(-1, 0, 0, 1, 522.09, 0)" xlink:href="#c"/><linearGradient id="di" x1="493.23" y1="127.57" x2="469.44" y2="127.57" gradientTransform="matrix(-1, 0, 0, 1, 522.09, 0)" xlink:href="#c"/><linearGradient id="dj" x1="493.23" y1="134.82" x2="469.44" y2="134.82" gradientTransform="matrix(-1, 0, 0, 1, 522.09, 0)" xlink:href="#c"/><linearGradient id="dk" x1="493.23" y1="142.06" x2="469.44" y2="142.06" gradientTransform="matrix(-1, 0, 0, 1, 522.09, 0)" xlink:href="#c"/><linearGradient id="dl" x1="497.62" y1="149.3" x2="464.86" y2="149.3" gradientTransform="matrix(-1, 0, 0, 1, 522.09, 0)" xlink:href="#c"/><linearGradient id="dm" x1="493.38" y1="156.55" x2="469.59" y2="156.55" gradientTransform="matrix(-1, 0, 0, 1, 522.09, 0)" xlink:href="#c"/><linearGradient id="dn" x1="493.38" y1="163.79" x2="469.59" y2="163.79" gradientTransform="matrix(-1, 0, 0, 1, 522.09, 0)" xlink:href="#c"/><linearGradient id="do" x1="493.38" y1="171.03" x2="469.59" y2="171.03" gradientTransform="matrix(-1, 0, 0, 1, 522.09, 0)" xlink:href="#c"/><linearGradient id="dp" x1="493.38" y1="178.28" x2="469.59" y2="178.28" gradientTransform="matrix(-1, 0, 0, 1, 522.09, 0)" xlink:href="#c"/><linearGradient id="dq" x1="497.78" y1="185.52" x2="465.01" y2="185.52" gradientTransform="matrix(-1, 0, 0, 1, 522.09, 0)" xlink:href="#c"/><linearGradient id="dr" x1="493.23" y1="192.76" x2="469.44" y2="192.76" gradientTransform="matrix(-1, 0, 0, 1, 522.09, 0)" xlink:href="#c"/><linearGradient id="ds" x1="493.23" y1="200.01" x2="469.44" y2="200.01" gradientTransform="matrix(-1, 0, 0, 1, 522.09, 0)" xlink:href="#c"/><linearGradient id="dt" x1="493.23" y1="207.25" x2="469.44" y2="207.25" gradientTransform="matrix(-1, 0, 0, 1, 522.09, 0)" xlink:href="#c"/><linearGradient id="du" x1="493.23" y1="214.49" x2="469.44" y2="214.49" gradientTransform="matrix(-1, 0, 0, 1, 522.09, 0)" xlink:href="#c"/><linearGradient id="dv" x1="497.62" y1="221.74" x2="464.86" y2="221.74" gradientTransform="matrix(-1, 0, 0, 1, 522.09, 0)" xlink:href="#c"/><linearGradient id="dw" x1="493.23" y1="228.98" x2="469.44" y2="228.98" gradientTransform="matrix(-1, 0, 0, 1, 522.09, 0)" xlink:href="#c"/><linearGradient id="dx" x1="493.23" y1="236.23" x2="469.44" y2="236.23" gradientTransform="matrix(-1, 0, 0, 1, 522.09, 0)" xlink:href="#c"/><linearGradient id="dy" x1="493.23" y1="243.47" x2="469.44" y2="243.47" gradientTransform="matrix(-1, 0, 0, 1, 522.09, 0)" xlink:href="#c"/><linearGradient id="dz" x1="493.23" y1="250.71" x2="469.44" y2="250.71" gradientTransform="matrix(-1, 0, 0, 1, 522.09, 0)" xlink:href="#c"/><linearGradient id="ea" x1="497.62" y1="257.96" x2="464.86" y2="257.96" gradientTransform="matrix(-1, 0, 0, 1, 522.09, 0)" xlink:href="#c"/><clipPath id="eb"><rect x="32.2" y="112.37" width="17.37" height="371.86" transform="translate(81.77 596.6) rotate(-180)" style="fill:none"/></clipPath><linearGradient id="ec" x1="461.18" y1="486.08" x2="501.97" y2="486.08" gradientTransform="matrix(1, 0, 0, -1, -441.06, 972.17)" xlink:href="#bo"/></defs><title>woman-1_1</title><g style="isolation:isolate"><polygon points="98.24 519.65 85.33 519.65 82.67 464.07 100.9 464.07 98.24 519.65" style="fill:#a2a2a2"/><rect x="82.67" y="448.64" width="18.24" height="7.71" style="fill:#bdbdbd"/><rect x="82.67" y="456.36" width="18.24" height="7.71" style="fill:#696969"/><polygon points="250.9 519.65 238 519.65 235.32 464.07 253.56 464.07 250.9 519.65" style="fill:#a2a2a2"/><rect x="235.32" y="448.64" width="18.24" height="7.71" style="fill:#bdbdbd"/><rect x="235.32" y="456.36" width="18.24" height="7.71" style="fill:#696969"/><rect x="71" y="439.51" width="194" height="12.99" style="fill:#9e6741"/><rect x="14.65" y="125.24" width="308.13" height="9.26" rx="2.8" ry="2.8" style="fill:#8e8e8e"/><path d="M322.73,129.32h-308v-2.06a2.37,2.37,0,0,1,2.59-2h303a2.28,2.28,0,0,1,2.51,2S322.67,129.28,322.73,129.32Z" style="fill:#a8a8a8"/><path d="M212.15,100.37l0,.17,0,.15a2.14,2.14,0,0,1-1.17,1l-.38.08,0-.09.24-.16v-.06c-2.55-6.55-71.5-5-82.21-1.06-1.67.69-1.61,1-1.84,1.39h0l-.39-.08a1.66,1.66,0,0,1-.84-.81v-.16c.24-1.22,3.23-1.89,4.37-2.17,21.58-4.7,66.51-2.21,76.11-.48C207.93,98.43,211.56,99.13,212.15,100.37Z" style="fill:#e26d6d"/><path d="M210.87,101.44v.06c-.1.36-1.77.89-2.14,1a38.89,38.89,0,0,1-5.63,1.11c-28.22,4.14-71.94,1.48-76.12-1.62l-.16-.18c.87-4.83,52.68-6.34,74.28-3.51C206.71,99,210.37,100,210.87,101.44Z" style="fill:#a81a16"/><g style="clip-path:url(#a)"><path d="M183.44,95.2v19.59l35.5-12.55S192,91.71,183.44,95.2Z" style="fill:#a81a16;opacity:0.30000000000000004;mix-blend-mode:multiply"/><path d="M147.56,109.56l-1-16.3S123.7,95,123.5,100.63,147.56,109.56,147.56,109.56Z" style="fill:#a81a16;opacity:0.30000000000000004;mix-blend-mode:multiply"/></g><path d="M258.24,0H234.07a42.15,42.15,0,0,0-42,42v.08h10.38a31.78,31.78,0,0,1,31.67-30.92h24.13a31.78,31.78,0,0,1,31.69,31.69V74.56c0,.1,0,.2,0,.3h10.37V42A42.15,42.15,0,0,0,258.24,0Z" style="fill:#d22c20"/><polygon points="192.47 42.43 191.71 48.03 194.25 50.43 200.81 49.6 202 44.51 201.39 40.74 201.55 39.96 192.99 39.96 192.47 42.43" style="fill:#d22c20"/><path d="M203.21,40h-3.08c0,.34-.06.67-.07,1h-5.72c0-.34,0-.68,0-1h-3.08c0,.34,0,.68,0,1H190v6.88a3.72,3.72,0,0,0,3.73,3.73h6.5A3.71,3.71,0,0,0,204,47.84V41h-.82C203.15,40.63,203.19,40.3,203.21,40Zm-2.32,4.56v3.33a.66.66,0,0,1-.66.66h-6.5a.69.69,0,0,1-.47-.19.66.66,0,0,1-.19-.46V44.05h7.82Z" style="fill:#d22c20"/><rect x="191.3" y="40.02" width="11.84" height="0.97" transform="translate(394.45 81.01) rotate(180)" style="fill:#a81a16"/><rect x="289.84" y="68.47" width="10.64" height="0.89" transform="translate(590.33 137.84) rotate(-180)" style="fill:#a81a16"/><rect x="275.15" y="92.76" width="40.83" height="400.07" transform="translate(591.13 585.59) rotate(-180)" style="fill:#d22c20"/><ellipse cx="295.56" cy="94.09" rx="20.46" ry="21.68" style="fill:#d22c20"/><polygon points="275.39 90.96 315.74 90.83 315.35 89.14 275.74 89.14 275.39 90.96" style="fill:#a81a16"/><rect x="277.75" y="90.95" width="34.39" height="395.99" transform="translate(589.88 577.9) rotate(-180)" style="fill:url(#b)"/><rect x="278.61" y="329.14" width="33.91" height="1.59" style="fill:url(#c)"/><rect x="283.26" y="336.38" width="24.62" height="1.59" style="fill:url(#d)"/><rect x="283.26" y="343.62" width="24.62" height="1.59" style="fill:url(#e)"/><rect x="283.26" y="350.87" width="24.62" height="1.59" style="fill:url(#f)"/><rect x="283.26" y="358.11" width="24.62" height="1.59" style="fill:url(#g)"/><rect x="278.61" y="365.35" width="33.91" height="1.59" style="fill:url(#h)"/><rect x="283.41" y="372.6" width="24.62" height="1.59" style="fill:url(#i)"/><rect x="283.41" y="379.84" width="24.62" height="1.59" style="fill:url(#j)"/><rect x="283.41" y="387.08" width="24.62" height="1.59" style="fill:url(#k)"/><rect x="283.41" y="394.33" width="24.62" height="1.59" style="fill:url(#l)"/><rect x="278.77" y="401.57" width="33.91" height="1.59" style="fill:url(#m)"/><rect x="283.26" y="408.81" width="24.62" height="1.59" style="fill:url(#n)"/><rect x="283.26" y="416.06" width="24.62" height="1.59" style="fill:url(#o)"/><rect x="283.26" y="423.3" width="24.62" height="1.59" style="fill:url(#p)"/><rect x="283.26" y="430.54" width="24.62" height="1.59" style="fill:url(#q)"/><rect x="278.61" y="437.79" width="33.91" height="1.59" style="fill:url(#r)"/><rect x="283.26" y="445.03" width="24.62" height="1.59" style="fill:url(#s)"/><rect x="283.26" y="452.28" width="24.62" height="1.59" style="fill:url(#t)"/><rect x="283.26" y="459.52" width="24.62" height="1.59" style="fill:url(#u)"/><rect x="283.26" y="466.76" width="24.62" height="1.59" style="fill:url(#v)"/><rect x="278.61" y="474.01" width="33.91" height="1.59" style="fill:url(#w)"/><rect x="278.61" y="220.71" width="33.91" height="1.59" style="fill:url(#x)"/><rect x="283.26" y="227.96" width="24.62" height="1.59" style="fill:url(#y)"/><rect x="283.26" y="235.2" width="24.62" height="1.59" style="fill:url(#z)"/><rect x="283.26" y="242.44" width="24.62" height="1.59" style="fill:url(#aa)"/><rect x="283.26" y="249.69" width="24.62" height="1.59" style="fill:url(#ab)"/><rect x="278.61" y="256.93" width="33.91" height="1.59" style="fill:url(#ac)"/><rect x="283.41" y="264.17" width="24.62" height="1.59" style="fill:url(#ad)"/><rect x="283.41" y="271.42" width="24.62" height="1.59" style="fill:url(#ae)"/><rect x="283.41" y="278.66" width="24.62" height="1.59" style="fill:url(#af)"/><rect x="283.41" y="285.9" width="24.62" height="1.59" style="fill:url(#ag)"/><rect x="278.77" y="293.15" width="33.91" height="1.59" style="fill:url(#ah)"/><rect x="283.26" y="300.39" width="24.62" height="1.59" style="fill:url(#ai)"/><rect x="283.26" y="307.64" width="24.62" height="1.59" style="fill:url(#aj)"/><rect x="283.26" y="314.88" width="24.62" height="1.59" style="fill:url(#ak)"/><rect x="283.26" y="322.12" width="24.62" height="1.59" style="fill:url(#al)"/><rect x="278.61" y="329.37" width="33.91" height="1.59" style="fill:url(#am)"/><rect x="283.26" y="336.61" width="24.62" height="1.59" style="fill:url(#an)"/><rect x="283.26" y="343.85" width="24.62" height="1.59" style="fill:url(#ao)"/><rect x="283.26" y="351.1" width="24.62" height="1.59" style="fill:url(#ap)"/><rect x="283.26" y="358.34" width="24.62" height="1.59" style="fill:url(#aq)"/><rect x="278.61" y="365.58" width="33.91" height="1.59" style="fill:url(#ar)"/><rect x="278.61" y="112.29" width="33.91" height="1.59" style="fill:url(#as)"/><rect x="283.26" y="119.53" width="24.62" height="1.59" style="fill:url(#at)"/><rect x="283.26" y="126.78" width="24.62" height="1.59" style="fill:url(#au)"/><rect x="283.26" y="134.02" width="24.62" height="1.59" style="fill:url(#av)"/><rect x="283.26" y="141.26" width="24.62" height="1.59" style="fill:url(#aw)"/><rect x="278.61" y="148.51" width="33.91" height="1.59" style="fill:url(#ax)"/><rect x="283.41" y="155.75" width="24.62" height="1.59" style="fill:url(#ay)"/><rect x="283.41" y="163" width="24.62" height="1.59" style="fill:url(#az)"/><rect x="283.41" y="170.24" width="24.62" height="1.59" style="fill:url(#ba)"/><rect x="283.41" y="177.48" width="24.62" height="1.59" style="fill:url(#bb)"/><rect x="278.77" y="184.73" width="33.91" height="1.59" style="fill:url(#bc)"/><rect x="283.26" y="191.97" width="24.62" height="1.59" style="fill:url(#bd)"/><rect x="283.26" y="199.21" width="24.62" height="1.59" style="fill:url(#be)"/><rect x="283.26" y="206.46" width="24.62" height="1.59" style="fill:url(#bf)"/><rect x="283.26" y="213.7" width="24.62" height="1.59" style="fill:url(#bg)"/><rect x="278.61" y="220.94" width="33.91" height="1.59" style="fill:url(#bh)"/><rect x="283.26" y="228.19" width="24.62" height="1.59" style="fill:url(#bi)"/><rect x="283.26" y="235.43" width="24.62" height="1.59" style="fill:url(#bj)"/><rect x="283.26" y="242.67" width="24.62" height="1.59" style="fill:url(#bk)"/><rect x="283.26" y="249.92" width="24.62" height="1.59" style="fill:url(#bl)"/><rect x="278.61" y="257.16" width="33.91" height="1.59" style="fill:url(#bm)"/><path d="M303.89,484.22V107.58c0-5.46-3.79-9.92-8.42-9.92h-.56c-4.63,0-8.41,4.46-8.41,9.92l0,376.64Z" style="fill:#9be0ff"/><g style="clip-path:url(#bn)"><rect x="286.45" y="438.99" width="17.57" height="370.41" style="fill:#fff"/><path d="M109.31,623.94H480.68a0,0,0,0,1,0,0v6.22a0,0,0,0,1,0,0H109.31a0,0,0,0,1,0,0v-6.24A0,0,0,0,1,109.31,623.94Z" transform="translate(-332.05 922.06) rotate(-90)" style="fill:#8e8e8e"/><path d="M294.63,441.38V812.64h-1.39c-.76,0-1.38-1.4-1.38-3.12V444.38c0-1.72,0-3,0-3Z" style="fill:#a8a8a8"/><rect x="286.51" y="438.5" width="17.39" height="2.07" style="fill:#a8a8a8"/><rect x="286.5" y="440.54" width="17.38" height="2.07" style="fill:#8e8e8e"/></g><rect x="271.93" y="487.48" width="47.36" height="11.37" transform="translate(591.22 986.33) rotate(-180)" style="fill:#d22c20"/><path d="M259.3,519.5c.71-15.38,16.73-27.67,36.4-27.67s35.69,12.29,36.41,27.67Z" style="fill:#d22c20"/><rect x="272.19" y="495.46" width="46.57" height="3.19" transform="translate(590.95 994.12) rotate(-180)" style="fill:#a81a16"/><rect x="275.18" y="484.33" width="40.79" height="3.5" style="fill:url(#bo)"/><path d="M77.85,0H102a42.15,42.15,0,0,1,42,42v.08H133.68A31.79,31.79,0,0,0,102,11.19H77.87A31.79,31.79,0,0,0,46.18,42.88V74.56c0,.1,0,.2,0,.3H35.83V42A42.15,42.15,0,0,1,77.85,0Z" style="fill:#d22c20"/><polygon points="143.62 42.43 144.38 48.03 141.85 50.43 135.28 49.6 134.1 44.51 134.7 40.74 134.54 39.96 143.11 39.96 143.62 42.43" style="fill:#d22c20"/><path d="M133,41h-.82v6.87A3.72,3.72,0,0,0,135,51.48a3.63,3.63,0,0,0,.87.1h6.5a3.74,3.74,0,0,0,3.74-3.73V41h-1.28c0-.34,0-.68-.05-1H141.7c0,.34,0,.68.05,1H136c0-.34,0-.67-.07-1h-3.09C132.91,40.3,133,40.63,133,41Zm2.25,3.08H143v3.81a.66.66,0,0,1-.19.46.67.67,0,0,1-.47.19h-6.5a.65.65,0,0,1-.65-.66v-3.8Z" style="fill:#d22c20"/><rect x="132.95" y="40.02" width="11.84" height="0.97" style="fill:#a81a16"/><rect x="35.61" y="68.47" width="10.64" height="0.89" style="fill:#a81a16"/><rect x="20.11" y="92.76" width="40.83" height="400.07" style="fill:#d22c20"/><ellipse cx="40.53" cy="94.09" rx="20.46" ry="21.68" style="fill:#d22c20"/><polygon points="60.71 90.96 20.35 90.83 20.75 89.14 60.35 89.14 60.71 90.96" style="fill:#a81a16"/><rect x="23.96" y="90.95" width="34.39" height="395.99" style="fill:url(#bp)"/><rect x="23.58" y="329.14" width="33.91" height="1.59" style="fill:url(#bq)"/><rect x="28.22" y="336.38" width="24.62" height="1.59" style="fill:url(#br)"/><rect x="28.22" y="343.62" width="24.62" height="1.59" style="fill:url(#bs)"/><rect x="28.22" y="350.87" width="24.62" height="1.59" style="fill:url(#bt)"/><rect x="28.22" y="358.11" width="24.62" height="1.59" style="fill:url(#bu)"/><rect x="23.58" y="365.35" width="33.91" height="1.59" style="fill:url(#bv)"/><rect x="28.07" y="372.6" width="24.62" height="1.59" style="fill:url(#bw)"/><rect x="28.07" y="379.84" width="24.62" height="1.59" style="fill:url(#bx)"/><rect x="28.07" y="387.08" width="24.62" height="1.59" style="fill:url(#by)"/><rect x="28.07" y="394.33" width="24.62" height="1.59" style="fill:url(#bz)"/><rect x="23.42" y="401.57" width="33.91" height="1.59" style="fill:url(#ca)"/><rect x="28.22" y="408.81" width="24.62" height="1.59" style="fill:url(#cb)"/><rect x="28.22" y="416.06" width="24.62" height="1.59" style="fill:url(#cc)"/><rect x="28.22" y="423.3" width="24.62" height="1.59" style="fill:url(#cd)"/><rect x="28.22" y="430.54" width="24.62" height="1.59" style="fill:url(#ce)"/><rect x="23.58" y="437.79" width="33.91" height="1.59" style="fill:url(#cf)"/><rect x="28.22" y="445.03" width="24.62" height="1.59" style="fill:url(#cg)"/><rect x="28.22" y="452.28" width="24.62" height="1.59" style="fill:url(#ch)"/><rect x="28.22" y="459.52" width="24.62" height="1.59" style="fill:url(#ci)"/><rect x="28.22" y="466.76" width="24.62" height="1.59" style="fill:url(#cj)"/><rect x="23.58" y="474.01" width="33.91" height="1.59" style="fill:url(#ck)"/><rect x="23.58" y="220.71" width="33.91" height="1.59" style="fill:url(#cl)"/><rect x="28.22" y="227.96" width="24.62" height="1.59" style="fill:url(#cm)"/><rect x="28.22" y="235.2" width="24.62" height="1.59" style="fill:url(#cn)"/><rect x="28.22" y="242.44" width="24.62" height="1.59" style="fill:url(#co)"/><rect x="28.22" y="249.69" width="24.62" height="1.59" style="fill:url(#cp)"/><rect x="23.58" y="256.93" width="33.91" height="1.59" style="fill:url(#cq)"/><rect x="28.07" y="264.17" width="24.62" height="1.59" style="fill:url(#cr)"/><rect x="28.07" y="271.42" width="24.62" height="1.59" style="fill:url(#cs)"/><rect x="28.07" y="278.66" width="24.62" height="1.59" style="fill:url(#ct)"/><rect x="28.07" y="285.9" width="24.62" height="1.59" style="fill:url(#cu)"/><rect x="23.42" y="293.15" width="33.91" height="1.59" style="fill:url(#cv)"/><rect x="28.22" y="300.39" width="24.62" height="1.59" style="fill:url(#cw)"/><rect x="28.22" y="307.64" width="24.62" height="1.59" style="fill:url(#cx)"/><rect x="28.22" y="314.88" width="24.62" height="1.59" style="fill:url(#cy)"/><rect x="28.22" y="322.12" width="24.62" height="1.59" style="fill:url(#cz)"/><rect x="23.58" y="329.37" width="33.91" height="1.59" style="fill:url(#da)"/><rect x="28.22" y="336.61" width="24.62" height="1.59" style="fill:url(#db)"/><rect x="28.22" y="343.85" width="24.62" height="1.59" style="fill:url(#dc)"/><rect x="28.22" y="351.1" width="24.62" height="1.59" style="fill:url(#dd)"/><rect x="28.22" y="358.34" width="24.62" height="1.59" style="fill:url(#de)"/><rect x="23.58" y="365.58" width="33.91" height="1.59" style="fill:url(#df)"/><rect x="23.58" y="112.29" width="33.91" height="1.59" style="fill:url(#dg)"/><rect x="28.22" y="119.53" width="24.62" height="1.59" style="fill:url(#dh)"/><rect x="28.22" y="126.78" width="24.62" height="1.59" style="fill:url(#di)"/><rect x="28.22" y="134.02" width="24.62" height="1.59" style="fill:url(#dj)"/><rect x="28.22" y="141.26" width="24.62" height="1.59" style="fill:url(#dk)"/><rect x="23.58" y="148.51" width="33.91" height="1.59" style="fill:url(#dl)"/><rect x="28.07" y="155.75" width="24.62" height="1.59" style="fill:url(#dm)"/><rect x="28.07" y="163" width="24.62" height="1.59" style="fill:url(#dn)"/><rect x="28.07" y="170.24" width="24.62" height="1.59" style="fill:url(#do)"/><rect x="28.07" y="177.48" width="24.62" height="1.59" style="fill:url(#dp)"/><rect x="23.42" y="184.73" width="33.91" height="1.59" style="fill:url(#dq)"/><rect x="28.22" y="191.97" width="24.62" height="1.59" style="fill:url(#dr)"/><rect x="28.22" y="199.21" width="24.62" height="1.59" style="fill:url(#ds)"/><rect x="28.22" y="206.46" width="24.62" height="1.59" style="fill:url(#dt)"/><rect x="28.22" y="213.7" width="24.62" height="1.59" style="fill:url(#du)"/><rect x="23.58" y="220.94" width="33.91" height="1.59" style="fill:url(#dv)"/><rect x="28.22" y="228.19" width="24.62" height="1.59" style="fill:url(#dw)"/><rect x="28.22" y="235.43" width="24.62" height="1.59" style="fill:url(#dx)"/><rect x="28.22" y="242.67" width="24.62" height="1.59" style="fill:url(#dy)"/><rect x="28.22" y="249.92" width="24.62" height="1.59" style="fill:url(#dz)"/><rect x="23.58" y="257.16" width="33.91" height="1.59" style="fill:url(#ea)"/><path d="M32.2,484.22V107.58c0-5.46,3.79-9.92,8.42-9.92h.56c4.63,0,8.42,4.46,8.42,9.92l0,376.64Z" style="fill:#9be0ff"/><g style="clip-path:url(#eb)"><rect x="32.08" y="437.99" width="17.57" height="370.41" transform="translate(81.72 1246.39) rotate(-180)" style="fill:#fff"/><path d="M-144.6,622.94H226.78a0,0,0,0,1,0,0v6.22a0,0,0,0,1,0,0H-144.6a0,0,0,0,1,0,0v-6.24a0,0,0,0,1,0,0Z" transform="translate(-584.97 667.15) rotate(-90)" style="fill:#8e8e8e"/><path d="M41.46,440.38V811.64h1.39c.77,0,1.39-1.4,1.39-3.12V443.38c0-1.72,0-3,0-3Z" style="fill:#a8a8a8"/><rect x="32.2" y="437.5" width="17.39" height="2.07" transform="translate(81.79 877.07) rotate(-180)" style="fill:#a8a8a8"/><rect x="32.21" y="439.54" width="17.38" height="2.07" transform="translate(81.8 881.16) rotate(-180)" style="fill:#8e8e8e"/></g><rect x="16.8" y="487.48" width="47.36" height="11.37" style="fill:#d22c20"/><path d="M76.79,519.5c-.71-15.38-16.73-27.67-36.4-27.67S4.7,504.12,4,519.5Z" style="fill:#d22c20"/><rect x="17.33" y="495.46" width="46.57" height="3.19" style="fill:#a81a16"/><rect x="20.12" y="484.33" width="40.79" height="3.5" transform="translate(81.04 972.17) rotate(-180)" style="fill:url(#ec)"/><rect y="474.17" width="112.67" height="374" style="fill:none"/><path d="M169.67,296l-.18,0-2-.62a5.08,5.08,0,0,0-2.89,0l-2,.62a.61.61,0,0,1-.77-.46.67.67,0,0,1,.43-.83l2-.61a6.1,6.1,0,0,1,3.59,0l2,.61a.69.69,0,0,1,.43.83A.64.64,0,0,1,169.67,296Z" style="fill:#372b36"/><path d="M148.43,298.25h-2.52a.67.67,0,0,1,0-1.34h2.35A5.33,5.33,0,0,0,148.43,298.25Z" style="fill:#372b36"/><path d="M184.18,296.64h2.38a.67.67,0,1,1,0,1.34h-2.43Z" style="fill:#372b36"/><circle cx="155.61" cy="296.67" r="6.85" style="fill:none;stroke:#372b36;stroke-miterlimit:10"/><circle cx="176.7" cy="296.67" r="6.85" style="fill:none;stroke:#372b36;stroke-miterlimit:10"/><path d="M164,370.65c-2.84-4.62-8.77-16-8.77-30.23,0-7.8,10.23-6.87,10.23-6.87s10.23-.93,10.23,6.87c0,14.23-5.93,25.61-8.76,30.23-.88,1.45-1.46,2.25-1.46,2.25v0S164.82,372.1,164,370.65Z" style="fill:#fff"/><path d="M184.81,343.58a23.12,23.12,0,0,1-4,1.57A46.84,46.84,0,0,1,165.34,347,49.68,49.68,0,0,1,153,345.14a19,19,0,0,1-5.18-2.18c.79-1,4-2.81,7.1-4.36,1.8-.9,3.59-1.72,4.87-2.3,1.06-.49,1.78-.8,1.87-.83a13.74,13.74,0,0,0,.53-3c.41-3.34.86-8.25.86-8.25h8l.32,3.61.68,7.81c.84.37,1.68.78,2.51,1.22,1.66.87,3.27,1.85,4.72,2.78C182.44,341.71,184.81,343.58,184.81,343.58Z" style="fill:#ffceaa"/><path d="M171.3,327.8q-4.59,2.26-9.14,4.64c.41-3.34.86-8.25.86-8.25h8Z" style="fill:#eda672"/><path d="M148.89,296c-.73,5,.8,19,5.54,24.26s9.68,7.08,13,7.21S178.25,323.24,182,317c4.49-7.51,4.1-21.79,3.17-27.32S174.86,279,165.9,280.47,150.74,283.63,148.89,296Z" style="fill:#ffceaa"/><path d="M169.43,310.9c-.91-.47-3-.43-4.68-.16a1.63,1.63,0,0,0-.61.2c-.17.11-.11.33,0,.51a6.54,6.54,0,0,0,1.89,1.33,2.14,2.14,0,0,0,.86.25,2,2,0,0,0,1.21-.52C168.67,312.08,169.79,311.44,169.43,310.9Z" style="fill:#eda672"/><path d="M133.19,299.16a3.24,3.24,0,0,0,1.6-1.39,4.17,4.17,0,0,1,.66-.9,1.62,1.62,0,0,0,.37-.68,4.63,4.63,0,0,1,3.78-3.45,1,1,0,0,0,.87-1,4.67,4.67,0,0,1,4.67-4.63h.05a1.44,1.44,0,0,0,1.22-.66,6.85,6.85,0,0,1,4.13-2.65c1.59,0,3.37-1.67,3.87-2.56,1.11-2,2.32-1.94,9.3-4h0a4.11,4.11,0,0,1,2.81.4,1.44,1.44,0,0,0,1,.12,5.14,5.14,0,0,1,3.88.58,1.4,1.4,0,0,0,1.15.14,5.09,5.09,0,0,1,3.94.4,4.93,4.93,0,0,0,2.55.58,4.51,4.51,0,0,1,3.81,1.86,4.75,4.75,0,0,0,1.52,1.37,5.69,5.69,0,0,1,1.14.86,4.92,4.92,0,0,0,2.22,1.25,5.46,5.46,0,0,1,3.88,3.79,5,5,0,0,0,2.59,3.09,5.48,5.48,0,0,1,2.75,3.08,5,5,0,0,0,1.28,1.94,4.57,4.57,0,0,1,1.46,3.48,4.81,4.81,0,0,0,.49,2.29,6.38,6.38,0,0,1-1.52,7.51,5,5,0,0,0-1.65,3.28,8.55,8.55,0,0,1-6.15,7.46,5.13,5.13,0,0,0-2,1.11,11.23,11.23,0,0,1-9.16,2.91,5,5,0,0,0-2.91.5,21.09,21.09,0,0,1-5.57,1.85l-.05-.53c9.68-4.82,13.77-12.42,14.1-22.74v-.27a4.47,4.47,0,0,1-3.39-4.32,4.9,4.9,0,0,1,.08-.77,5,5,0,0,1-4.39-5,6,6,0,0,1,.07-.86,5,5,0,0,1-2.8.86,5.06,5.06,0,0,1-5-4.18,5,5,0,0,1-3.31,1.25,5,5,0,0,1-5-4.62,4.19,4.19,0,0,1-4.31,1.64,5,5,0,0,1,.18,1.22,4.68,4.68,0,0,1-3,4.36,4.65,4.65,0,0,1-3.6,4.12,4.67,4.67,0,0,1-1.77,3.34,19.26,19.26,0,0,0-.08,3.23c.95,8.83,4.61,18.15,13.79,22.6l0,.54a21.89,21.89,0,0,1-4.26-1.7,5,5,0,0,0-2.81-.5,11.14,11.14,0,0,1-7.18-1.58,3.24,3.24,0,0,0-1.72-.46,8.53,8.53,0,0,1-6.86-3.29,3.16,3.16,0,0,0-1.36-1,6.35,6.35,0,0,1-4-5,3.22,3.22,0,0,0-1-1.87,4.64,4.64,0,0,1-1.43-3,3.13,3.13,0,0,0-.78-1.91,4.67,4.67,0,0,1,1.78-7.4Z" style="fill:#d5532c"/><path d="M158.93,301.81a3.49,3.49,0,0,1,2.73,2.28c.26.77,0,3.46-1.15,4.51a3.47,3.47,0,0,1-1.79.9c-1.17.13-2.95.22-3.9-.57a4.38,4.38,0,0,1-1.45-2.8,4.14,4.14,0,0,1,.19-2.49c.69-1.28,2.26-1.76,3.67-2.11Z" style="fill:#fff"/><path d="M155.8,307.34a3,3,0,0,1-.18-3.48,2.74,2.74,0,0,1,1.06-1,2.08,2.08,0,0,1,1.49-.12,2.21,2.21,0,0,1,1.34,1.72,3.08,3.08,0,0,1-.94,3.22,2.05,2.05,0,0,1-1.52.44A2.07,2.07,0,0,1,155.8,307.34Z" style="fill:#4c0c0a"/><path d="M153,305.32a4.51,4.51,0,0,1,3-3.15,5,5,0,0,1,3.64,0,3.94,3.94,0,0,1,2,2.26c.14.36.53.31.58.08a4.4,4.4,0,0,0-3.5-3.79,5.48,5.48,0,0,0-5.66,2.42,3.52,3.52,0,0,0-.56,1.7C152.41,305.43,152.9,305.66,153,305.32Z" style="fill:#eda672"/><path d="M153.08,304.49l-2.2.13a4,4,0,0,0,2,.83C152.91,305,152.83,304.82,153.08,304.49Z" style="fill:#eda672"/><path d="M173.75,301.81a3.49,3.49,0,0,0-2.73,2.28c-.27.77,0,3.46,1.15,4.51a3.44,3.44,0,0,0,1.79.9c1.16.13,2.94.22,3.9-.57a4.37,4.37,0,0,0,1.44-2.8,4.06,4.06,0,0,0-.18-2.49c-.69-1.28-2.26-1.76-3.68-2.11Z" style="fill:#fff"/><path d="M176.88,307.34a3,3,0,0,0,.17-3.48,2.64,2.64,0,0,0-1.05-1,2.08,2.08,0,0,0-1.49-.12,2.25,2.25,0,0,0-1.35,1.72,3.1,3.1,0,0,0,.94,3.22,2,2,0,0,0,1.52.44A2.1,2.1,0,0,0,176.88,307.34Z" style="fill:#4c0c0a"/><path d="M179.69,305.32a4.5,4.5,0,0,0-2.94-3.15,5.05,5.05,0,0,0-3.65,0,3.92,3.92,0,0,0-2,2.26c-.14.36-.53.31-.58.08a4.4,4.4,0,0,1,3.49-3.79,5.47,5.47,0,0,1,5.66,2.42,3.45,3.45,0,0,1,.57,1.7C180.26,305.43,179.77,305.66,179.69,305.32Z" style="fill:#eda672"/><path d="M179.59,304.49l2.21.13a4,4,0,0,1-2,.83C179.76,305,179.85,304.82,179.59,304.49Z" style="fill:#eda672"/><path d="M179,297a35.49,35.49,0,0,0-7.81-1.14A5.92,5.92,0,0,1,179,297Z" style="fill:#d5532c"/><path d="M153.27,297a35.49,35.49,0,0,1,7.81-1.14,5.93,5.93,0,0,0-7.81,1.14Z" style="fill:#d5532c"/><path d="M173.35,317.8l-.29-.89c-.25-.46-.25.62-.52.82a3.52,3.52,0,0,1-.89.44l-2.65,1c-1.17.91,2.72-.68,3.62-1.24.17-.1.45-.13.54,0C173.46,318.53,173.54,318.18,173.35,317.8Z" style="fill:#aa4c3f"/><path d="M164.42,319.18l-2.61-1.12a3.34,3.34,0,0,1-.87-.48c-.26-.21-.22-1.29-.49-.84l-.33.88c-.2.37-.13.72.19.18.09-.15.38-.11.54,0C161.73,318.4,165.55,320.14,164.42,319.18Z" style="fill:#aa4c3f"/><path d="M164.93,320.8a4.21,4.21,0,0,0,3.53.23,7.26,7.26,0,0,0,3.59-2.95l-4.23-.48a16.47,16.47,0,0,0-2.22-.07c-.88,0-4,.56-4,.56A9.33,9.33,0,0,0,164.93,320.8Z" style="fill:#aa4c3f"/><path d="M161.39,318a10.64,10.64,0,0,1,2.53-1.26,8.79,8.79,0,0,1,3-.45,8.67,8.67,0,0,1,2.71.48,15,15,0,0,1,2.6,1.21c.32.33-2.51.73-5.14.75C164.16,318.74,161,318.34,161.39,318Z" style="fill:#aa4c3f"/><path d="M185.15,303.09h-1.46c0-.24,0-.48,0-.74v-.69l-.64-.28h0c-.37-.16-.67-.26-1-.37l-1-.28c-.65-.16-1.31-.29-2-.39s-1.32-.15-2-.19a19,19,0,0,0-2,0,9.32,9.32,0,0,0-1,.1c-.34,0-.68.12-1,.18a9.14,9.14,0,0,0-1.95.72,8,8,0,0,0-1.72,1.16A6.59,6.59,0,0,0,168.1,304l-.08.14h-2.33l-.08-.14a6.56,6.56,0,0,0-1.35-1.63,8.25,8.25,0,0,0-1.72-1.16,9.14,9.14,0,0,0-1.95-.72c-.34-.06-.68-.15-1-.18a8.85,8.85,0,0,0-1-.1,18.75,18.75,0,0,0-2,0c-.67,0-1.34.09-2,.19s-1.32.23-2,.39l-1,.28c-.33.11-.63.21-1,.37h0l-.64.28v.69c0,.26,0,.5,0,.74h-1.62a.56.56,0,0,0-.56.56v.54a.56.56,0,0,0,.56.56H150a.59.59,0,0,0,.26-.07q.08.35.18.69a9.26,9.26,0,0,0,.57,1.43,8,8,0,0,0,.83,1.33,6.77,6.77,0,0,0,1.14,1.13,3,3,0,0,0,.67.44,4.37,4.37,0,0,0,.71.37,6.27,6.27,0,0,0,1.5.44,7.11,7.11,0,0,0,1.52.14h.75l.69-.05c.44,0,1-.14,1.44-.2a14.11,14.11,0,0,0,1.42-.37,8.05,8.05,0,0,0,1.39-.59,5.27,5.27,0,0,0,2.23-2.16,3.45,3.45,0,0,0,.31-.77,4.16,4.16,0,0,0,.08-.43v-.67H168v.67a2.5,2.5,0,0,0,.09.43,3.42,3.42,0,0,0,.3.77,5.24,5.24,0,0,0,2.24,2.16A8.3,8.3,0,0,0,172,310a14.29,14.29,0,0,0,1.43.37c.47.06,1,.17,1.44.2l.68.05h.76a7,7,0,0,0,1.51-.14,6.35,6.35,0,0,0,1.51-.44,4.37,4.37,0,0,0,.71-.37,3.16,3.16,0,0,0,.66-.44,6.83,6.83,0,0,0,1.15-1.13,8,8,0,0,0,.83-1.33,8.32,8.32,0,0,0,.56-1.43c.07-.21.13-.43.18-.64l.11,0h1.62a.56.56,0,0,0,.56-.56v-.54A.56.56,0,0,0,185.15,303.09Zm-20.71,2.56a1.73,1.73,0,0,1-.3,1,3.88,3.88,0,0,1-1.72,1.49,7.28,7.28,0,0,1-1.16.43,9.72,9.72,0,0,1-1.24.26c-.43,0-.8.11-1.27.12l-.68,0h-.31l-.3,0a5.11,5.11,0,0,1-1.2-.17,5.17,5.17,0,0,1-1.11-.37,2.74,2.74,0,0,1-.49-.29,1.8,1.8,0,0,1-.45-.33,5,5,0,0,1-.77-.82,7.17,7.17,0,0,1-.56-1,6.29,6.29,0,0,1-.39-1.13,7,7,0,0,1-.22-1.2c0-.16,0-.33-.05-.5l.13-.05q.41-.17.84-.3a16.3,16.3,0,0,1,1.73-.47,16.18,16.18,0,0,1,3.59-.38,8.34,8.34,0,0,1,.88,0,6.26,6.26,0,0,1,.87.1,8,8,0,0,1,1.65.48,6.85,6.85,0,0,1,1.48.87,5.3,5.3,0,0,1,1.07,1.1Zm17-2a8.17,8.17,0,0,1-.22,1.2,7,7,0,0,1-.95,2.15,5,5,0,0,1-.78.82,1.63,1.63,0,0,1-.45.33,2.18,2.18,0,0,1-.49.29,4.91,4.91,0,0,1-1.1.37,5.26,5.26,0,0,1-1.2.17l-.31,0h-.3l-.68,0c-.47,0-.85-.08-1.28-.12a10.5,10.5,0,0,1-1.24-.26,7.54,7.54,0,0,1-1.15-.43,4,4,0,0,1-1.73-1.49,1.72,1.72,0,0,1-.29-1l0-1.17a5.35,5.35,0,0,1,1.08-1.1,6.85,6.85,0,0,1,1.48-.87,7.81,7.81,0,0,1,1.65-.48,6.3,6.3,0,0,1,.86-.1,8.63,8.63,0,0,1,.89,0,17.64,17.64,0,0,1,1.8.09,17.38,17.38,0,0,1,1.78.29,17.16,17.16,0,0,1,1.74.47q.42.13.84.3l.12.05C181.48,303.27,181.47,303.44,181.45,303.6Z" style="fill:#b53116"/><path d="M137.06,384.12a2.32,2.32,0,0,0-.27.26A1.12,1.12,0,0,1,137.06,384.12Z" style="fill:#754559;opacity:0.4;mix-blend-mode:multiply"/><path d="M171,506.68a8.7,8.7,0,0,0,.77-1.85h7.19l3.08,6.1,3.23,5.85,1.91,2.2-1.49.73-9.21-.86Z" style="fill:#ffceaa"/><path d="M171.26,512.16l2.21,14.09h2.12l.41-7.59s-1-4.7-1.65-5.38S171.26,512.16,171.26,512.16Z" style="fill:#59150c"/><path d="M171.46,506.68s2.1.91,3.34,4.58,2.25,7.59,5.3,7.59h6.68a6,6,0,0,1-2-2.38c-.58-1.44-2.77-5.54-2.77-5.54s3.39,5.82,4.29,6.63,3.63,1.57,4,2.91,1.67,5.78-3,5.78H178a3.23,3.23,0,0,1-1.86-2.49c-.43-2-1.57-7.15-2.58-9s-2.1-1.44-2.76-3.68S170.54,506,171.46,506.68Z" style="fill:#b53116"/><path d="M164.61,506.42a8.92,8.92,0,0,1-.77-1.85h-7.19l-3.08,6.09-3.23,5.86-1.91,2.2,1.49.72,9.21-.86Z" style="fill:#ffceaa"/><path d="M164.32,511.89,162.11,526H160l-.41-7.59s1-4.71,1.66-5.39S164.32,511.89,164.32,511.89Z" style="fill:#59150c"/><path d="M164.12,506.42s-2.1.9-3.34,4.58-2.24,7.58-5.3,7.58H148.8a5.85,5.85,0,0,0,2-2.38c.57-1.43,2.76-5.54,2.76-5.54s-3.38,5.82-4.29,6.64-3.63,1.57-4,2.91-1.67,5.78,3,5.78h9.35a3.25,3.25,0,0,0,1.86-2.49c.43-2,1.58-7.16,2.58-9s2.1-1.43,2.77-3.67S165,505.77,164.12,506.42Z" style="fill:#b53116"/><path d="M188.89,451.66c0,1.9-10,2.32-22.13,2.32s-21.47.83-21.47-1.07,9.64-3.67,21.74-3.67S188.89,449.77,188.89,451.66Z" style="fill:#2c222d"/><path d="M171.79,504.93l-.9-31,.65-52.69A6.35,6.35,0,0,1,178,415c3.5,0,10.59,4.26,10.71,10.09a150.14,150.14,0,0,1-1.9,23c-1.19,7.37-8.12,50.33-7.85,57.11A12.77,12.77,0,0,1,171.79,504.93Z" style="fill:#ffceaa"/><path d="M163.69,504.93l.47-31-.66-52.69a6.44,6.44,0,0,0-6.37-6.43c-3.51,0-10.63,1.8-12.59,5,0,0,.35,4.64,1.07,14.64.57,8,8.19,52.94,8.21,53,.65,6.25,3.27,10.65,2.62,17.32C156.44,504.81,159,506,163.69,504.93Z" style="fill:#ffceaa"/><path d="M187.79,450.73l-.42,3c-2.67-.75-12.61-1.19-16.12-.89l-.18-3.45Z" style="fill:#7f5d41"/><path d="M146.5,452.8l.24,1.95c2.67-.75,13.56-2,17.07-1.72v-3.14Z" style="fill:#7f5d41"/><path d="M138.47,413c-1.91,5.35-2.2,14.07-2.2,14.07.17,3.76,2.2,8.42,8.5,12.7l.48,13.33c5.35-1.67,18.55-2.33,22.61-2.38,4.66-.07,15.23,0,20.94,1.07l.95-12.14a12.67,12.67,0,0,0,9.05-12.43s-.24-8.75-3.1-14.58c-1.12-2.3-.59-1.57-3.68-9-6.06-3.73-12.92-6.27-24.88-6.27s-18.79,3-24.87,7.35C139.41,411.7,140.37,407.59,138.47,413Z" style="fill:#3b2d3c"/><polygon points="167.11 337.13 167.11 363.72 155.42 336.83 167.11 337.13" style="fill:#d8e2ef"/><polygon points="167.11 334.05 167.11 337.13 163.03 343.78 155.25 338.21 160.38 334.05 167.11 334.05" style="fill:#fff"/><polygon points="167.11 337.13 167.11 363.72 178.99 336.83 167.11 337.13" style="fill:#d8e2ef"/><polygon points="167.11 334.05 167.11 337.13 171.19 343.78 178.97 338.21 173.83 334.05 167.11 334.05" style="fill:#fff"/><path d="M167.11,363.72V407s.77,8.76-.08,8.76-28.56-3-28.56-3,10-22.05,9.46-28.87l-1-11.51s-3.75-3-4.25-11.07c-.43-7-2.86-15.26.82-19.1a8.83,8.83,0,0,1,7.83-2.91Z" style="fill:#d9a155"/><path d="M147.82,371.06s3.28,2.07,8.82,1.47,8.34-2.42,7.79-2.76-5.66.9-10.41.34S144.29,368.3,147.82,371.06Z" style="fill:#ba823a"/><path d="M167.11,363.72V407s.12,8.67.36,8.67c.85,0,28.28-2.9,28.28-2.9s-8.41-21.94-8.29-28.78c.09-5,.18-11.51.18-11.51s4.73-6.79,4.73-14.91,1.08-9.49-.62-13.38-8.88-4.88-8.88-4.88Z" style="fill:#d9a155"/><path d="M186.4,371.06a14.59,14.59,0,0,1-8.82,1.47c-5.54-.6-8.34-2.42-7.79-2.76s5.66.9,10.4.34S189.93,368.3,186.4,371.06Z" style="fill:#ba823a"/><polygon points="167.11 363.8 167.11 415.39 166.8 415.86 166.8 363.3 167.11 363.8" style="fill:#b0772b"/><polygon points="167.11 363.8 167.11 415.39 167.42 415.86 167.42 363.3 167.11 363.8" style="fill:#b0772b"/><polygon points="133.26 417.55 132.39 414.44 134.99 409.68 140.06 408.26 142.41 416.64 133.26 417.55" style="fill:#ffceaa"/><path d="M137.11,417.13a3.82,3.82,0,1,1,2.65-4.71A3.82,3.82,0,0,1,137.11,417.13Z" style="fill:#ffceaa"/><path d="M138,420.2a3.82,3.82,0,1,1,2.65-4.71A3.82,3.82,0,0,1,138,420.2Z" style="fill:#ffceaa"/><path d="M139.53,416.46a3.82,3.82,0,1,1,2.65-4.71A3.82,3.82,0,0,1,139.53,416.46Z" style="fill:#ffceaa"/><rect x="132.87" y="406.54" width="7.63" height="7.69" transform="translate(-106.08 52.39) rotate(-15.72)" style="fill:#ffceaa"/><path d="M142.06,415.24c-1.6-1.88-2.5-3.77-2-4.2s2.23.74,3.84,2.62,2.5,3.76,2,4.2S143.67,417.11,142.06,415.24Z" style="fill:#ffceaa"/><path d="M141.18,418.58c-1-3.53-1.3-6.55-.69-6.72s1.92,2.57,2.91,6.1,1.3,6.54.69,6.71S142.17,422.1,141.18,418.58Z" style="fill:#ffceaa"/><path d="M139.29,420.36c-1.07-3.8-1.44-7-.83-7.21s2,2.79,3,6.58,1.44,7,.83,7.22S140.35,424.15,139.29,420.36Z" style="fill:#ffceaa"/><path d="M136.93,420.49c-1-3.53-1.3-6.55-.69-6.72s1.92,2.57,2.91,6.09,1.29,6.55.68,6.72S137.92,424,136.93,420.49Z" style="fill:#ffceaa"/><path d="M134.18,419.23c-.87-3.12-1.09-5.8-.48-6s1.83,2.24,2.7,5.35,1.09,5.8.48,6S135.05,422.34,134.18,419.23Z" style="fill:#ffceaa"/><path d="M139.19,404.77c-.66.27.22,1.29.5,2.16s.58,2,.58,2l-7.47,1.8-.81-2.86Z" style="fill:#ededed"/><path d="M139.73,406.94l-.18-.73c0-.12,0-.26,0-.39l0-.4c0-.25,0-.53,0-.81l0-.41v-1.26c0-.28,0-.57,0-.86s0-.57,0-.86l.05-.87c.14-2.33.4-4.69.73-7.06s.74-4.73,1.19-7.09,1-4.71,1.5-7.06,1.13-4.68,1.76-7,1.3-4.63,2-6.93,1.46-4.56,2.25-6.81,1.62-4.47,2.5-6.66L138,347.35q-1,3.73-1.9,7.47t-1.58,7.49c-.48,2.5-.91,5-1.31,7.51s-.73,5-1,7.55-.56,5-.76,7.58-.36,5.09-.44,7.66-.08,5.15.05,7.8l0,1c0,.33.05.67.08,1s0,.67.08,1l.12,1,0,.25,0,.27.08.52c0,.35.1.69.17,1.06l.11.54,0,.27,0,.14,0,.14.28,1.13Z" style="fill:#d9a155"/><path d="M147.08,342.92a6.77,6.77,0,0,0-5.41.21,7.08,7.08,0,0,0-2.21,1.69,7.42,7.42,0,0,0-1.44,2.53,7.61,7.61,0,0,0-.33,2.89,7.09,7.09,0,0,0,.79,2.65,6.82,6.82,0,0,0,4.22,3.38,7.27,7.27,0,0,0,5.37-.57,7.12,7.12,0,0,0,2.07-1.63,6.74,6.74,0,0,0,1.32-2.34,6.5,6.5,0,0,0,.3-2.65,7,7,0,0,0-.71-2.52A7.37,7.37,0,0,0,147.08,342.92Z" style="fill:#d9a155"/><polygon points="200.62 418.18 201.49 415.07 198.9 410.31 193.82 408.88 191.47 417.27 200.62 418.18" style="fill:#ffceaa"/><path d="M196.77,417.76a3.82,3.82,0,1,0-2.65-4.71A3.82,3.82,0,0,0,196.77,417.76Z" style="fill:#ffceaa"/><path d="M195.91,420.83a3.82,3.82,0,1,0-2.65-4.71A3.82,3.82,0,0,0,195.91,420.83Z" style="fill:#ffceaa"/><path d="M194.35,417.08a3.82,3.82,0,1,0-2.64-4.7A3.82,3.82,0,0,0,194.35,417.08Z" style="fill:#ffceaa"/><rect x="193.35" y="407.19" width="7.69" height="7.63" transform="matrix(0.27, -0.96, 0.96, 0.27, -251.87, 489.46)" style="fill:#ffceaa"/><path d="M191.82,415.86c1.6-1.87,2.5-3.76,2-4.19s-2.23.74-3.84,2.62-2.5,3.76-2,4.2S190.21,417.74,191.82,415.86Z" style="fill:#ffceaa"/><path d="M192.7,419.21c1-3.53,1.3-6.55.69-6.72s-1.92,2.57-2.91,6.09-1.3,6.55-.69,6.72S191.71,422.73,192.7,419.21Z" style="fill:#ffceaa"/><path d="M194.6,421c1.06-3.79,1.43-7,.82-7.21s-2,2.8-3,6.59-1.44,7-.83,7.21S193.53,424.78,194.6,421Z" style="fill:#ffceaa"/><path d="M197,421.11c1-3.52,1.3-6.54.69-6.71s-1.92,2.57-2.91,6.09-1.29,6.55-.68,6.72S196,424.64,197,421.11Z" style="fill:#ffceaa"/><path d="M199.7,419.85c.87-3.11,1.09-5.8.48-6s-1.83,2.24-2.7,5.35-1.09,5.8-.48,6S198.83,423,199.7,419.85Z" style="fill:#ffceaa"/><path d="M194.71,405.27c.66.27-.23,1.45-.52,2.32s-.56,1.8-.56,1.8l7.47,1.81.81-2.86Z" style="fill:#ededed"/><path d="M194.17,407.54l.16-.71c0-.11,0-.26,0-.38l0-.4c0-.26,0-.53,0-.81l0-.41v-1.26c0-.28,0-.58,0-.86s0-.57,0-.86l0-.87c-.15-2.33-.41-4.69-.74-7.06s-.74-4.73-1.19-7.09-1-4.71-1.5-7.06-1.13-4.68-1.76-7-1.29-4.64-2-6.93-1.46-4.56-2.25-6.81-1.62-4.47-2.5-6.67L195.88,348c.69,2.49,1.31,5,1.9,7.47s1.1,5,1.58,7.49.91,5,1.31,7.51.74,5,1,7.54.56,5.05.76,7.59.36,5.09.44,7.66.08,5.15,0,7.79l-.05,1c0,.33-.05.67-.08,1s0,.67-.08,1l-.12,1,0,.25,0,.26-.08.53c0,.35-.1.69-.17,1.06l-.11.54-.05.27,0,.14,0,.14-.28,1.13Z" style="fill:#d9a155"/><path d="M186.8,343.54a6.77,6.77,0,0,1,5.41.22,6.94,6.94,0,0,1,2.21,1.69,7.26,7.26,0,0,1,1.77,5.42,7,7,0,0,1-.79,2.64,6.84,6.84,0,0,1-4.22,3.39,7.26,7.26,0,0,1-7.44-2.21,6.6,6.6,0,0,1-1.32-2.33,6.52,6.52,0,0,1-.3-2.65,7,7,0,0,1,.71-2.52A7.35,7.35,0,0,1,186.8,343.54Z" style="fill:#d9a155"/><path d="M149.81,352.2c3.58,1.19,4.77,1.52,4.77,1.52s-1.14,1.76-2.11,3.3,6.65,2.88,14.53,6.46c0,0-7.39-14.28-10.07-26.8-.65-3.06-7.48,2.14-8.34,5.28C147.58,345.63,147.87,351.55,149.81,352.2Z" style="fill:#b0772b"/><path d="M184.33,352.62c-3.56,1.12-4.74,1.42-4.74,1.42s1.1,1.76,2,3.3-6.61,2.72-14.45,6.12c0,0,7.54-14,10.4-26.28.69-3,7.35,2.25,8.14,5.36C186.64,346.18,186.25,352,184.33,352.62Z" style="fill:#b0772b"/><path d="M189.92,439.39l3.17-4.91a40.64,40.64,0,0,0,5.59-5.23s-1,4.4-3.09,6.66A16.47,16.47,0,0,1,189.92,439.39Z" style="fill:#2c222d"/><path d="M145.37,439.75l-3.1-4.55a54.18,54.18,0,0,1-5.66-5.59s.95,4.4,3.09,6.66A16.38,16.38,0,0,0,145.37,439.75Z" style="fill:#2c222d"/></g></svg>