<svg xmlns="http://www.w3.org/2000/svg" xmlns:xlink="http://www.w3.org/1999/xlink" viewBox="0 0 332.11 848.17"><defs><clipPath id="a"><path d="M210.87,101.44v.06c-.1.36-1.77.89-2.14,1a38.89,38.89,0,0,1-5.63,1.11c-28.22,4.14-71.94,1.48-76.12-1.62l-.16-.18c.87-4.83,52.68-6.34,74.28-3.51C206.71,99,210.37,100,210.87,101.44Z" style="fill:#a81a16"/></clipPath><linearGradient id="b" x1="-182.75" y1="288.95" x2="-148.36" y2="288.95" gradientTransform="matrix(1, 0, 0, -1, 460.49, 577.9)" gradientUnits="userSpaceOnUse"><stop offset="0.01" stop-color="#d22c20"/><stop offset="0.31" stop-color="#e7342e"/><stop offset="0.51" stop-color="#ef3733"/><stop offset="0.72" stop-color="#e6332d"/><stop offset="1" stop-color="#d22c20"/></linearGradient><linearGradient id="c" x1="311.62" y1="329.93" x2="278.86" y2="329.93" gradientUnits="userSpaceOnUse"><stop offset="0.05" stop-color="#d3d2d2"/><stop offset="0.37" stop-color="#9a9a9c"/><stop offset="0.64" stop-color="#9a9a9c"/><stop offset="1" stop-color="#d1d6d5"/></linearGradient><linearGradient id="d" x1="307.23" y1="337.17" x2="283.44" y2="337.17" xlink:href="#c"/><linearGradient id="e" x1="307.23" y1="344.42" x2="283.44" y2="344.42" xlink:href="#c"/><linearGradient id="f" x1="307.23" y1="351.66" x2="283.44" y2="351.66" xlink:href="#c"/><linearGradient id="g" x1="307.23" y1="358.9" x2="283.44" y2="358.9" xlink:href="#c"/><linearGradient id="h" x1="311.62" y1="366.15" x2="278.86" y2="366.15" xlink:href="#c"/><linearGradient id="i" x1="307.38" y1="373.39" x2="283.59" y2="373.39" xlink:href="#c"/><linearGradient id="j" x1="307.38" y1="380.63" x2="283.59" y2="380.63" xlink:href="#c"/><linearGradient id="k" x1="307.38" y1="387.88" x2="283.59" y2="387.88" xlink:href="#c"/><linearGradient id="l" x1="307.38" y1="395.12" x2="283.59" y2="395.12" xlink:href="#c"/><linearGradient id="m" x1="311.78" y1="402.37" x2="279.01" y2="402.37" xlink:href="#c"/><linearGradient id="n" x1="307.23" y1="409.61" x2="283.44" y2="409.61" xlink:href="#c"/><linearGradient id="o" x1="307.23" y1="416.85" x2="283.44" y2="416.85" xlink:href="#c"/><linearGradient id="p" x1="307.23" y1="424.1" x2="283.44" y2="424.1" xlink:href="#c"/><linearGradient id="q" x1="307.23" y1="431.34" x2="283.44" y2="431.34" xlink:href="#c"/><linearGradient id="r" x1="311.62" y1="438.58" x2="278.86" y2="438.58" xlink:href="#c"/><linearGradient id="s" x1="307.23" y1="445.83" x2="283.44" y2="445.83" xlink:href="#c"/><linearGradient id="t" x1="307.23" y1="453.07" x2="283.44" y2="453.07" xlink:href="#c"/><linearGradient id="u" x1="307.23" y1="460.31" x2="283.44" y2="460.31" xlink:href="#c"/><linearGradient id="v" x1="307.23" y1="467.56" x2="283.44" y2="467.56" xlink:href="#c"/><linearGradient id="w" x1="311.62" y1="474.8" x2="278.86" y2="474.8" xlink:href="#c"/><linearGradient id="x" x1="311.62" y1="221.51" x2="278.86" y2="221.51" xlink:href="#c"/><linearGradient id="y" x1="307.23" y1="228.75" x2="283.44" y2="228.75" xlink:href="#c"/><linearGradient id="z" x1="307.23" y1="235.99" x2="283.44" y2="235.99" xlink:href="#c"/><linearGradient id="aa" x1="307.23" y1="243.24" x2="283.44" y2="243.24" xlink:href="#c"/><linearGradient id="ab" x1="307.23" y1="250.48" x2="283.44" y2="250.48" xlink:href="#c"/><linearGradient id="ac" x1="311.62" y1="257.73" x2="278.86" y2="257.73" xlink:href="#c"/><linearGradient id="ad" x1="307.38" y1="264.97" x2="283.59" y2="264.97" xlink:href="#c"/><linearGradient id="ae" x1="307.38" y1="272.21" x2="283.59" y2="272.21" xlink:href="#c"/><linearGradient id="af" x1="307.38" y1="279.46" x2="283.59" y2="279.46" xlink:href="#c"/><linearGradient id="ag" x1="307.38" y1="286.7" x2="283.59" y2="286.7" xlink:href="#c"/><linearGradient id="ah" x1="311.78" y1="293.94" x2="279.01" y2="293.94" xlink:href="#c"/><linearGradient id="ai" x1="307.23" y1="301.19" x2="283.44" y2="301.19" xlink:href="#c"/><linearGradient id="aj" x1="307.23" y1="308.43" x2="283.44" y2="308.43" xlink:href="#c"/><linearGradient id="ak" x1="307.23" y1="315.67" x2="283.44" y2="315.67" xlink:href="#c"/><linearGradient id="al" x1="307.23" y1="322.92" x2="283.44" y2="322.92" xlink:href="#c"/><linearGradient id="am" x1="311.62" y1="330.16" x2="278.86" y2="330.16" xlink:href="#c"/><linearGradient id="an" x1="307.23" y1="337.4" x2="283.44" y2="337.4" xlink:href="#c"/><linearGradient id="ao" x1="307.23" y1="344.65" x2="283.44" y2="344.65" xlink:href="#c"/><linearGradient id="ap" x1="307.23" y1="351.89" x2="283.44" y2="351.89" xlink:href="#c"/><linearGradient id="aq" x1="307.23" y1="359.13" x2="283.44" y2="359.13" xlink:href="#c"/><linearGradient id="ar" x1="311.62" y1="366.38" x2="278.86" y2="366.38" xlink:href="#c"/><linearGradient id="as" x1="311.62" y1="113.09" x2="278.86" y2="113.09" xlink:href="#c"/><linearGradient id="at" x1="307.23" y1="120.33" x2="283.44" y2="120.33" xlink:href="#c"/><linearGradient id="au" x1="307.23" y1="127.57" x2="283.44" y2="127.57" xlink:href="#c"/><linearGradient id="av" x1="307.23" y1="134.82" x2="283.44" y2="134.82" xlink:href="#c"/><linearGradient id="aw" x1="307.23" y1="142.06" x2="283.44" y2="142.06" xlink:href="#c"/><linearGradient id="ax" x1="311.62" y1="149.3" x2="278.86" y2="149.3" xlink:href="#c"/><linearGradient id="ay" x1="307.38" y1="156.55" x2="283.59" y2="156.55" xlink:href="#c"/><linearGradient id="az" x1="307.38" y1="163.79" x2="283.59" y2="163.79" xlink:href="#c"/><linearGradient id="ba" x1="307.38" y1="171.03" x2="283.59" y2="171.03" xlink:href="#c"/><linearGradient id="bb" x1="307.38" y1="178.28" x2="283.59" y2="178.28" xlink:href="#c"/><linearGradient id="bc" x1="311.78" y1="185.52" x2="279.01" y2="185.52" xlink:href="#c"/><linearGradient id="bd" x1="307.23" y1="192.76" x2="283.44" y2="192.76" xlink:href="#c"/><linearGradient id="be" x1="307.23" y1="200.01" x2="283.44" y2="200.01" xlink:href="#c"/><linearGradient id="bf" x1="307.23" y1="207.25" x2="283.44" y2="207.25" xlink:href="#c"/><linearGradient id="bg" x1="307.23" y1="214.49" x2="283.44" y2="214.49" xlink:href="#c"/><linearGradient id="bh" x1="311.62" y1="221.74" x2="278.86" y2="221.74" xlink:href="#c"/><linearGradient id="bi" x1="307.23" y1="228.98" x2="283.44" y2="228.98" xlink:href="#c"/><linearGradient id="bj" x1="307.23" y1="236.23" x2="283.44" y2="236.23" xlink:href="#c"/><linearGradient id="bk" x1="307.23" y1="243.47" x2="283.44" y2="243.47" xlink:href="#c"/><linearGradient id="bl" x1="307.23" y1="250.71" x2="283.44" y2="250.71" xlink:href="#c"/><linearGradient id="bm" x1="311.62" y1="257.96" x2="278.86" y2="257.96" xlink:href="#c"/><clipPath id="bn"><rect x="286.53" y="112.37" width="17.37" height="371.86" style="fill:none"/></clipPath><linearGradient id="bo" x1="275.18" y1="486.08" x2="315.97" y2="486.08" gradientUnits="userSpaceOnUse"><stop offset="0.01" stop-color="#d22c20"/><stop offset="0.26" stop-color="#e2322b"/><stop offset="0.51" stop-color="#ef3733"/><stop offset="1" stop-color="#d22c20"/></linearGradient><linearGradient id="bp" x1="-368.75" y1="288.95" x2="-334.36" y2="288.95" gradientTransform="translate(392.71)" xlink:href="#b"/><linearGradient id="bq" x1="497.62" y1="329.93" x2="464.86" y2="329.93" gradientTransform="matrix(-1, 0, 0, 1, 522.09, 0)" xlink:href="#c"/><linearGradient id="br" x1="493.23" y1="337.17" x2="469.44" y2="337.17" gradientTransform="matrix(-1, 0, 0, 1, 522.09, 0)" xlink:href="#c"/><linearGradient id="bs" x1="493.23" y1="344.42" x2="469.44" y2="344.42" gradientTransform="matrix(-1, 0, 0, 1, 522.09, 0)" xlink:href="#c"/><linearGradient id="bt" x1="493.23" y1="351.66" x2="469.44" y2="351.66" gradientTransform="matrix(-1, 0, 0, 1, 522.09, 0)" xlink:href="#c"/><linearGradient id="bu" x1="493.23" y1="358.9" x2="469.44" y2="358.9" gradientTransform="matrix(-1, 0, 0, 1, 522.09, 0)" xlink:href="#c"/><linearGradient id="bv" x1="497.62" y1="366.15" x2="464.86" y2="366.15" gradientTransform="matrix(-1, 0, 0, 1, 522.09, 0)" xlink:href="#c"/><linearGradient id="bw" x1="493.38" y1="373.39" x2="469.59" y2="373.39" gradientTransform="matrix(-1, 0, 0, 1, 522.09, 0)" xlink:href="#c"/><linearGradient id="bx" x1="493.38" y1="380.63" x2="469.59" y2="380.63" gradientTransform="matrix(-1, 0, 0, 1, 522.09, 0)" xlink:href="#c"/><linearGradient id="by" x1="493.38" y1="387.88" x2="469.59" y2="387.88" gradientTransform="matrix(-1, 0, 0, 1, 522.09, 0)" xlink:href="#c"/><linearGradient id="bz" x1="493.38" y1="395.12" x2="469.59" y2="395.12" gradientTransform="matrix(-1, 0, 0, 1, 522.09, 0)" xlink:href="#c"/><linearGradient id="ca" x1="497.78" y1="402.37" x2="465.01" y2="402.37" gradientTransform="matrix(-1, 0, 0, 1, 522.09, 0)" xlink:href="#c"/><linearGradient id="cb" x1="493.23" y1="409.61" x2="469.44" y2="409.61" gradientTransform="matrix(-1, 0, 0, 1, 522.09, 0)" xlink:href="#c"/><linearGradient id="cc" x1="493.23" y1="416.85" x2="469.44" y2="416.85" gradientTransform="matrix(-1, 0, 0, 1, 522.09, 0)" xlink:href="#c"/><linearGradient id="cd" x1="493.23" y1="424.1" x2="469.44" y2="424.1" gradientTransform="matrix(-1, 0, 0, 1, 522.09, 0)" xlink:href="#c"/><linearGradient id="ce" x1="493.23" y1="431.34" x2="469.44" y2="431.34" gradientTransform="matrix(-1, 0, 0, 1, 522.09, 0)" xlink:href="#c"/><linearGradient id="cf" x1="497.62" y1="438.58" x2="464.86" y2="438.58" gradientTransform="matrix(-1, 0, 0, 1, 522.09, 0)" xlink:href="#c"/><linearGradient id="cg" x1="493.23" y1="445.83" x2="469.44" y2="445.83" gradientTransform="matrix(-1, 0, 0, 1, 522.09, 0)" xlink:href="#c"/><linearGradient id="ch" x1="493.23" y1="453.07" x2="469.44" y2="453.07" gradientTransform="matrix(-1, 0, 0, 1, 522.09, 0)" xlink:href="#c"/><linearGradient id="ci" x1="493.23" y1="460.31" x2="469.44" y2="460.31" gradientTransform="matrix(-1, 0, 0, 1, 522.09, 0)" xlink:href="#c"/><linearGradient id="cj" x1="493.23" y1="467.56" x2="469.44" y2="467.56" gradientTransform="matrix(-1, 0, 0, 1, 522.09, 0)" xlink:href="#c"/><linearGradient id="ck" x1="497.62" y1="474.8" x2="464.86" y2="474.8" gradientTransform="matrix(-1, 0, 0, 1, 522.09, 0)" xlink:href="#c"/><linearGradient id="cl" x1="497.62" y1="221.51" x2="464.86" y2="221.51" gradientTransform="matrix(-1, 0, 0, 1, 522.09, 0)" xlink:href="#c"/><linearGradient id="cm" x1="493.23" y1="228.75" x2="469.44" y2="228.75" gradientTransform="matrix(-1, 0, 0, 1, 522.09, 0)" xlink:href="#c"/><linearGradient id="cn" x1="493.23" y1="235.99" x2="469.44" y2="235.99" gradientTransform="matrix(-1, 0, 0, 1, 522.09, 0)" xlink:href="#c"/><linearGradient id="co" x1="493.23" y1="243.24" x2="469.44" y2="243.24" gradientTransform="matrix(-1, 0, 0, 1, 522.09, 0)" xlink:href="#c"/><linearGradient id="cp" x1="493.23" y1="250.48" x2="469.44" y2="250.48" gradientTransform="matrix(-1, 0, 0, 1, 522.09, 0)" xlink:href="#c"/><linearGradient id="cq" x1="497.62" y1="257.73" x2="464.86" y2="257.73" gradientTransform="matrix(-1, 0, 0, 1, 522.09, 0)" xlink:href="#c"/><linearGradient id="cr" x1="493.38" y1="264.97" x2="469.59" y2="264.97" gradientTransform="matrix(-1, 0, 0, 1, 522.09, 0)" xlink:href="#c"/><linearGradient id="cs" x1="493.38" y1="272.21" x2="469.59" y2="272.21" gradientTransform="matrix(-1, 0, 0, 1, 522.09, 0)" xlink:href="#c"/><linearGradient id="ct" x1="493.38" y1="279.46" x2="469.59" y2="279.46" gradientTransform="matrix(-1, 0, 0, 1, 522.09, 0)" xlink:href="#c"/><linearGradient id="cu" x1="493.38" y1="286.7" x2="469.59" y2="286.7" gradientTransform="matrix(-1, 0, 0, 1, 522.09, 0)" xlink:href="#c"/><linearGradient id="cv" x1="497.78" y1="293.94" x2="465.01" y2="293.94" gradientTransform="matrix(-1, 0, 0, 1, 522.09, 0)" xlink:href="#c"/><linearGradient id="cw" x1="493.23" y1="301.19" x2="469.44" y2="301.19" gradientTransform="matrix(-1, 0, 0, 1, 522.09, 0)" xlink:href="#c"/><linearGradient id="cx" x1="493.23" y1="308.43" x2="469.44" y2="308.43" gradientTransform="matrix(-1, 0, 0, 1, 522.09, 0)" xlink:href="#c"/><linearGradient id="cy" x1="493.23" y1="315.67" x2="469.44" y2="315.67" gradientTransform="matrix(-1, 0, 0, 1, 522.09, 0)" xlink:href="#c"/><linearGradient id="cz" x1="493.23" y1="322.92" x2="469.44" y2="322.92" gradientTransform="matrix(-1, 0, 0, 1, 522.09, 0)" xlink:href="#c"/><linearGradient id="da" x1="497.62" y1="330.16" x2="464.86" y2="330.16" gradientTransform="matrix(-1, 0, 0, 1, 522.09, 0)" xlink:href="#c"/><linearGradient id="db" x1="493.23" y1="337.4" x2="469.44" y2="337.4" gradientTransform="matrix(-1, 0, 0, 1, 522.09, 0)" xlink:href="#c"/><linearGradient id="dc" x1="493.23" y1="344.65" x2="469.44" y2="344.65" gradientTransform="matrix(-1, 0, 0, 1, 522.09, 0)" xlink:href="#c"/><linearGradient id="dd" x1="493.23" y1="351.89" x2="469.44" y2="351.89" gradientTransform="matrix(-1, 0, 0, 1, 522.09, 0)" xlink:href="#c"/><linearGradient id="de" x1="493.23" y1="359.13" x2="469.44" y2="359.13" gradientTransform="matrix(-1, 0, 0, 1, 522.09, 0)" xlink:href="#c"/><linearGradient id="df" x1="497.62" y1="366.38" x2="464.86" y2="366.38" gradientTransform="matrix(-1, 0, 0, 1, 522.09, 0)" xlink:href="#c"/><linearGradient id="dg" x1="497.62" y1="113.09" x2="464.86" y2="113.09" gradientTransform="matrix(-1, 0, 0, 1, 522.09, 0)" xlink:href="#c"/><linearGradient id="dh" x1="493.23" y1="120.33" x2="469.44" y2="120.33" gradientTransform="matrix(-1, 0, 0, 1, 522.09, 0)" xlink:href="#c"/><linearGradient id="di" x1="493.23" y1="127.57" x2="469.44" y2="127.57" gradientTransform="matrix(-1, 0, 0, 1, 522.09, 0)" xlink:href="#c"/><linearGradient id="dj" x1="493.23" y1="134.82" x2="469.44" y2="134.82" gradientTransform="matrix(-1, 0, 0, 1, 522.09, 0)" xlink:href="#c"/><linearGradient id="dk" x1="493.23" y1="142.06" x2="469.44" y2="142.06" gradientTransform="matrix(-1, 0, 0, 1, 522.09, 0)" xlink:href="#c"/><linearGradient id="dl" x1="497.62" y1="149.3" x2="464.86" y2="149.3" gradientTransform="matrix(-1, 0, 0, 1, 522.09, 0)" xlink:href="#c"/><linearGradient id="dm" x1="493.38" y1="156.55" x2="469.59" y2="156.55" gradientTransform="matrix(-1, 0, 0, 1, 522.09, 0)" xlink:href="#c"/><linearGradient id="dn" x1="493.38" y1="163.79" x2="469.59" y2="163.79" gradientTransform="matrix(-1, 0, 0, 1, 522.09, 0)" xlink:href="#c"/><linearGradient id="do" x1="493.38" y1="171.03" x2="469.59" y2="171.03" gradientTransform="matrix(-1, 0, 0, 1, 522.09, 0)" xlink:href="#c"/><linearGradient id="dp" x1="493.38" y1="178.28" x2="469.59" y2="178.28" gradientTransform="matrix(-1, 0, 0, 1, 522.09, 0)" xlink:href="#c"/><linearGradient id="dq" x1="497.78" y1="185.52" x2="465.01" y2="185.52" gradientTransform="matrix(-1, 0, 0, 1, 522.09, 0)" xlink:href="#c"/><linearGradient id="dr" x1="493.23" y1="192.76" x2="469.44" y2="192.76" gradientTransform="matrix(-1, 0, 0, 1, 522.09, 0)" xlink:href="#c"/><linearGradient id="ds" x1="493.23" y1="200.01" x2="469.44" y2="200.01" gradientTransform="matrix(-1, 0, 0, 1, 522.09, 0)" xlink:href="#c"/><linearGradient id="dt" x1="493.23" y1="207.25" x2="469.44" y2="207.25" gradientTransform="matrix(-1, 0, 0, 1, 522.09, 0)" xlink:href="#c"/><linearGradient id="du" x1="493.23" y1="214.49" x2="469.44" y2="214.49" gradientTransform="matrix(-1, 0, 0, 1, 522.09, 0)" xlink:href="#c"/><linearGradient id="dv" x1="497.62" y1="221.74" x2="464.86" y2="221.74" gradientTransform="matrix(-1, 0, 0, 1, 522.09, 0)" xlink:href="#c"/><linearGradient id="dw" x1="493.23" y1="228.98" x2="469.44" y2="228.98" gradientTransform="matrix(-1, 0, 0, 1, 522.09, 0)" xlink:href="#c"/><linearGradient id="dx" x1="493.23" y1="236.23" x2="469.44" y2="236.23" gradientTransform="matrix(-1, 0, 0, 1, 522.09, 0)" xlink:href="#c"/><linearGradient id="dy" x1="493.23" y1="243.47" x2="469.44" y2="243.47" gradientTransform="matrix(-1, 0, 0, 1, 522.09, 0)" xlink:href="#c"/><linearGradient id="dz" x1="493.23" y1="250.71" x2="469.44" y2="250.71" gradientTransform="matrix(-1, 0, 0, 1, 522.09, 0)" xlink:href="#c"/><linearGradient id="ea" x1="497.62" y1="257.96" x2="464.86" y2="257.96" gradientTransform="matrix(-1, 0, 0, 1, 522.09, 0)" xlink:href="#c"/><clipPath id="eb"><rect x="32.2" y="112.37" width="17.37" height="371.86" transform="translate(81.77 596.6) rotate(-180)" style="fill:none"/></clipPath><linearGradient id="ec" x1="461.18" y1="486.08" x2="501.97" y2="486.08" gradientTransform="matrix(1, 0, 0, -1, -441.06, 972.17)" xlink:href="#bo"/></defs><title>woman-7</title><g style="isolation:isolate"><polygon points="98.24 519.65 85.33 519.65 82.67 464.07 100.9 464.07 98.24 519.65" style="fill:#a2a2a2"/><rect x="82.67" y="448.64" width="18.24" height="7.71" style="fill:#bdbdbd"/><rect x="82.67" y="456.36" width="18.24" height="7.71" style="fill:#696969"/><polygon points="250.9 519.65 238 519.65 235.32 464.07 253.56 464.07 250.9 519.65" style="fill:#a2a2a2"/><rect x="235.32" y="448.64" width="18.24" height="7.71" style="fill:#bdbdbd"/><rect x="235.32" y="456.36" width="18.24" height="7.71" style="fill:#696969"/><rect x="71" y="439.51" width="194" height="12.99" style="fill:#9e6741"/><rect x="14.65" y="125.24" width="308.13" height="9.26" rx="2.8" ry="2.8" style="fill:#8e8e8e"/><path d="M322.73,129.32h-308v-2.06a2.37,2.37,0,0,1,2.59-2h303a2.28,2.28,0,0,1,2.51,2S322.67,129.28,322.73,129.32Z" style="fill:#a8a8a8"/><path d="M212.15,100.37l0,.17,0,.15a2.14,2.14,0,0,1-1.17,1l-.38.08,0-.09.24-.16v-.06c-2.55-6.55-71.5-5-82.21-1.06-1.67.69-1.61,1-1.84,1.39h0l-.39-.08a1.66,1.66,0,0,1-.84-.81v-.16c.24-1.22,3.23-1.89,4.37-2.17,21.58-4.7,66.51-2.21,76.11-.48C207.93,98.43,211.56,99.13,212.15,100.37Z" style="fill:#e26d6d"/><path d="M210.87,101.44v.06c-.1.36-1.77.89-2.14,1a38.89,38.89,0,0,1-5.63,1.11c-28.22,4.14-71.94,1.48-76.12-1.62l-.16-.18c.87-4.83,52.68-6.34,74.28-3.51C206.71,99,210.37,100,210.87,101.44Z" style="fill:#a81a16"/><g style="clip-path:url(#a)"><path d="M183.44,95.2v19.59l35.5-12.55S192,91.71,183.44,95.2Z" style="fill:#a81a16;opacity:0.30000000000000004;mix-blend-mode:multiply"/><path d="M147.56,109.56l-1-16.3S123.7,95,123.5,100.63,147.56,109.56,147.56,109.56Z" style="fill:#a81a16;opacity:0.30000000000000004;mix-blend-mode:multiply"/></g><path d="M258.24,0H234.07a42.15,42.15,0,0,0-42,42v.08h10.38a31.78,31.78,0,0,1,31.67-30.92h24.13a31.78,31.78,0,0,1,31.69,31.69V74.56c0,.1,0,.2,0,.3h10.37V42A42.15,42.15,0,0,0,258.24,0Z" style="fill:#d22c20"/><polygon points="192.47 42.43 191.71 48.03 194.25 50.43 200.81 49.6 202 44.51 201.39 40.74 201.55 39.96 192.99 39.96 192.47 42.43" style="fill:#d22c20"/><path d="M203.21,40h-3.08c0,.34-.06.67-.07,1h-5.72c0-.34,0-.68,0-1h-3.08c0,.34,0,.68,0,1H190v6.88a3.72,3.72,0,0,0,3.73,3.73h6.5A3.71,3.71,0,0,0,204,47.84V41h-.82C203.15,40.63,203.19,40.3,203.21,40Zm-2.32,4.56v3.33a.66.66,0,0,1-.66.66h-6.5a.69.69,0,0,1-.47-.19.66.66,0,0,1-.19-.46V44.05h7.82Z" style="fill:#d22c20"/><rect x="191.3" y="40.02" width="11.84" height="0.97" transform="translate(394.45 81.01) rotate(180)" style="fill:#a81a16"/><rect x="289.84" y="68.47" width="10.64" height="0.89" transform="translate(590.33 137.84) rotate(-180)" style="fill:#a81a16"/><rect x="275.15" y="92.76" width="40.83" height="400.07" transform="translate(591.13 585.59) rotate(-180)" style="fill:#d22c20"/><ellipse cx="295.56" cy="94.09" rx="20.46" ry="21.68" style="fill:#d22c20"/><polygon points="275.39 90.96 315.74 90.83 315.35 89.14 275.74 89.14 275.39 90.96" style="fill:#a81a16"/><rect x="277.75" y="90.95" width="34.39" height="395.99" transform="translate(589.88 577.9) rotate(-180)" style="fill:url(#b)"/><rect x="278.61" y="329.14" width="33.91" height="1.59" style="fill:url(#c)"/><rect x="283.26" y="336.38" width="24.62" height="1.59" style="fill:url(#d)"/><rect x="283.26" y="343.62" width="24.62" height="1.59" style="fill:url(#e)"/><rect x="283.26" y="350.87" width="24.62" height="1.59" style="fill:url(#f)"/><rect x="283.26" y="358.11" width="24.62" height="1.59" style="fill:url(#g)"/><rect x="278.61" y="365.35" width="33.91" height="1.59" style="fill:url(#h)"/><rect x="283.41" y="372.6" width="24.62" height="1.59" style="fill:url(#i)"/><rect x="283.41" y="379.84" width="24.62" height="1.59" style="fill:url(#j)"/><rect x="283.41" y="387.08" width="24.62" height="1.59" style="fill:url(#k)"/><rect x="283.41" y="394.33" width="24.62" height="1.59" style="fill:url(#l)"/><rect x="278.77" y="401.57" width="33.91" height="1.59" style="fill:url(#m)"/><rect x="283.26" y="408.81" width="24.62" height="1.59" style="fill:url(#n)"/><rect x="283.26" y="416.06" width="24.62" height="1.59" style="fill:url(#o)"/><rect x="283.26" y="423.3" width="24.62" height="1.59" style="fill:url(#p)"/><rect x="283.26" y="430.54" width="24.62" height="1.59" style="fill:url(#q)"/><rect x="278.61" y="437.79" width="33.91" height="1.59" style="fill:url(#r)"/><rect x="283.26" y="445.03" width="24.62" height="1.59" style="fill:url(#s)"/><rect x="283.26" y="452.28" width="24.62" height="1.59" style="fill:url(#t)"/><rect x="283.26" y="459.52" width="24.62" height="1.59" style="fill:url(#u)"/><rect x="283.26" y="466.76" width="24.62" height="1.59" style="fill:url(#v)"/><rect x="278.61" y="474.01" width="33.91" height="1.59" style="fill:url(#w)"/><rect x="278.61" y="220.71" width="33.91" height="1.59" style="fill:url(#x)"/><rect x="283.26" y="227.96" width="24.62" height="1.59" style="fill:url(#y)"/><rect x="283.26" y="235.2" width="24.62" height="1.59" style="fill:url(#z)"/><rect x="283.26" y="242.44" width="24.62" height="1.59" style="fill:url(#aa)"/><rect x="283.26" y="249.69" width="24.62" height="1.59" style="fill:url(#ab)"/><rect x="278.61" y="256.93" width="33.91" height="1.59" style="fill:url(#ac)"/><rect x="283.41" y="264.17" width="24.62" height="1.59" style="fill:url(#ad)"/><rect x="283.41" y="271.42" width="24.62" height="1.59" style="fill:url(#ae)"/><rect x="283.41" y="278.66" width="24.62" height="1.59" style="fill:url(#af)"/><rect x="283.41" y="285.9" width="24.62" height="1.59" style="fill:url(#ag)"/><rect x="278.77" y="293.15" width="33.91" height="1.59" style="fill:url(#ah)"/><rect x="283.26" y="300.39" width="24.62" height="1.59" style="fill:url(#ai)"/><rect x="283.26" y="307.64" width="24.62" height="1.59" style="fill:url(#aj)"/><rect x="283.26" y="314.88" width="24.62" height="1.59" style="fill:url(#ak)"/><rect x="283.26" y="322.12" width="24.62" height="1.59" style="fill:url(#al)"/><rect x="278.61" y="329.37" width="33.91" height="1.59" style="fill:url(#am)"/><rect x="283.26" y="336.61" width="24.62" height="1.59" style="fill:url(#an)"/><rect x="283.26" y="343.85" width="24.62" height="1.59" style="fill:url(#ao)"/><rect x="283.26" y="351.1" width="24.62" height="1.59" style="fill:url(#ap)"/><rect x="283.26" y="358.34" width="24.62" height="1.59" style="fill:url(#aq)"/><rect x="278.61" y="365.58" width="33.91" height="1.59" style="fill:url(#ar)"/><rect x="278.61" y="112.29" width="33.91" height="1.59" style="fill:url(#as)"/><rect x="283.26" y="119.53" width="24.62" height="1.59" style="fill:url(#at)"/><rect x="283.26" y="126.78" width="24.62" height="1.59" style="fill:url(#au)"/><rect x="283.26" y="134.02" width="24.62" height="1.59" style="fill:url(#av)"/><rect x="283.26" y="141.26" width="24.62" height="1.59" style="fill:url(#aw)"/><rect x="278.61" y="148.51" width="33.91" height="1.59" style="fill:url(#ax)"/><rect x="283.41" y="155.75" width="24.62" height="1.59" style="fill:url(#ay)"/><rect x="283.41" y="163" width="24.62" height="1.59" style="fill:url(#az)"/><rect x="283.41" y="170.24" width="24.62" height="1.59" style="fill:url(#ba)"/><rect x="283.41" y="177.48" width="24.62" height="1.59" style="fill:url(#bb)"/><rect x="278.77" y="184.73" width="33.91" height="1.59" style="fill:url(#bc)"/><rect x="283.26" y="191.97" width="24.62" height="1.59" style="fill:url(#bd)"/><rect x="283.26" y="199.21" width="24.62" height="1.59" style="fill:url(#be)"/><rect x="283.26" y="206.46" width="24.62" height="1.59" style="fill:url(#bf)"/><rect x="283.26" y="213.7" width="24.62" height="1.59" style="fill:url(#bg)"/><rect x="278.61" y="220.94" width="33.91" height="1.59" style="fill:url(#bh)"/><rect x="283.26" y="228.19" width="24.62" height="1.59" style="fill:url(#bi)"/><rect x="283.26" y="235.43" width="24.62" height="1.59" style="fill:url(#bj)"/><rect x="283.26" y="242.67" width="24.62" height="1.59" style="fill:url(#bk)"/><rect x="283.26" y="249.92" width="24.62" height="1.59" style="fill:url(#bl)"/><rect x="278.61" y="257.16" width="33.91" height="1.59" style="fill:url(#bm)"/><path d="M303.89,484.22V107.58c0-5.46-3.79-9.92-8.42-9.92h-.56c-4.63,0-8.41,4.46-8.41,9.92l0,376.64Z" style="fill:#9be0ff"/><g style="clip-path:url(#bn)"><rect x="286.45" y="222.99" width="17.57" height="370.41" style="fill:#fff"/><path d="M109.31,407.94H480.68a0,0,0,0,1,0,0v6.22a0,0,0,0,1,0,0H109.31a0,0,0,0,1,0,0v-6.24A0,0,0,0,1,109.31,407.94Z" transform="translate(-116.05 706.06) rotate(-90)" style="fill:#8e8e8e"/><path d="M294.63,225.38V596.64h-1.39c-.76,0-1.38-1.4-1.38-3.12V228.38c0-1.72,0-3,0-3Z" style="fill:#a8a8a8"/><rect x="286.51" y="222.5" width="17.39" height="2.07" style="fill:#a8a8a8"/><rect x="286.5" y="224.54" width="17.38" height="2.07" style="fill:#8e8e8e"/></g><rect x="271.93" y="487.48" width="47.36" height="11.37" transform="translate(591.22 986.33) rotate(-180)" style="fill:#d22c20"/><path d="M259.3,519.5c.71-15.38,16.73-27.67,36.4-27.67s35.69,12.29,36.41,27.67Z" style="fill:#d22c20"/><rect x="272.19" y="495.46" width="46.57" height="3.19" transform="translate(590.95 994.12) rotate(-180)" style="fill:#a81a16"/><rect x="275.18" y="484.33" width="40.79" height="3.5" style="fill:url(#bo)"/><path d="M77.85,0H102a42.15,42.15,0,0,1,42,42v.08H133.68A31.79,31.79,0,0,0,102,11.19H77.87A31.79,31.79,0,0,0,46.18,42.88V74.56c0,.1,0,.2,0,.3H35.83V42A42.15,42.15,0,0,1,77.85,0Z" style="fill:#d22c20"/><polygon points="143.62 42.43 144.38 48.03 141.85 50.43 135.28 49.6 134.1 44.51 134.7 40.74 134.54 39.96 143.11 39.96 143.62 42.43" style="fill:#d22c20"/><path d="M133,41h-.82v6.87A3.72,3.72,0,0,0,135,51.48a3.63,3.63,0,0,0,.87.1h6.5a3.74,3.74,0,0,0,3.74-3.73V41h-1.28c0-.34,0-.68-.05-1H141.7c0,.34,0,.68.05,1H136c0-.34,0-.67-.07-1h-3.09C132.91,40.3,133,40.63,133,41Zm2.25,3.08H143v3.81a.66.66,0,0,1-.19.46.67.67,0,0,1-.47.19h-6.5a.65.65,0,0,1-.65-.66v-3.8Z" style="fill:#d22c20"/><rect x="132.95" y="40.02" width="11.84" height="0.97" style="fill:#a81a16"/><rect x="35.61" y="68.47" width="10.64" height="0.89" style="fill:#a81a16"/><rect x="20.11" y="92.76" width="40.83" height="400.07" style="fill:#d22c20"/><ellipse cx="40.53" cy="94.09" rx="20.46" ry="21.68" style="fill:#d22c20"/><polygon points="60.71 90.96 20.35 90.83 20.75 89.14 60.35 89.14 60.71 90.96" style="fill:#a81a16"/><rect x="23.96" y="90.95" width="34.39" height="395.99" style="fill:url(#bp)"/><rect x="23.58" y="329.14" width="33.91" height="1.59" style="fill:url(#bq)"/><rect x="28.22" y="336.38" width="24.62" height="1.59" style="fill:url(#br)"/><rect x="28.22" y="343.62" width="24.62" height="1.59" style="fill:url(#bs)"/><rect x="28.22" y="350.87" width="24.62" height="1.59" style="fill:url(#bt)"/><rect x="28.22" y="358.11" width="24.62" height="1.59" style="fill:url(#bu)"/><rect x="23.58" y="365.35" width="33.91" height="1.59" style="fill:url(#bv)"/><rect x="28.07" y="372.6" width="24.62" height="1.59" style="fill:url(#bw)"/><rect x="28.07" y="379.84" width="24.62" height="1.59" style="fill:url(#bx)"/><rect x="28.07" y="387.08" width="24.62" height="1.59" style="fill:url(#by)"/><rect x="28.07" y="394.33" width="24.62" height="1.59" style="fill:url(#bz)"/><rect x="23.42" y="401.57" width="33.91" height="1.59" style="fill:url(#ca)"/><rect x="28.22" y="408.81" width="24.62" height="1.59" style="fill:url(#cb)"/><rect x="28.22" y="416.06" width="24.62" height="1.59" style="fill:url(#cc)"/><rect x="28.22" y="423.3" width="24.62" height="1.59" style="fill:url(#cd)"/><rect x="28.22" y="430.54" width="24.62" height="1.59" style="fill:url(#ce)"/><rect x="23.58" y="437.79" width="33.91" height="1.59" style="fill:url(#cf)"/><rect x="28.22" y="445.03" width="24.62" height="1.59" style="fill:url(#cg)"/><rect x="28.22" y="452.28" width="24.62" height="1.59" style="fill:url(#ch)"/><rect x="28.22" y="459.52" width="24.62" height="1.59" style="fill:url(#ci)"/><rect x="28.22" y="466.76" width="24.62" height="1.59" style="fill:url(#cj)"/><rect x="23.58" y="474.01" width="33.91" height="1.59" style="fill:url(#ck)"/><rect x="23.58" y="220.71" width="33.91" height="1.59" style="fill:url(#cl)"/><rect x="28.22" y="227.96" width="24.62" height="1.59" style="fill:url(#cm)"/><rect x="28.22" y="235.2" width="24.62" height="1.59" style="fill:url(#cn)"/><rect x="28.22" y="242.44" width="24.62" height="1.59" style="fill:url(#co)"/><rect x="28.22" y="249.69" width="24.62" height="1.59" style="fill:url(#cp)"/><rect x="23.58" y="256.93" width="33.91" height="1.59" style="fill:url(#cq)"/><rect x="28.07" y="264.17" width="24.62" height="1.59" style="fill:url(#cr)"/><rect x="28.07" y="271.42" width="24.62" height="1.59" style="fill:url(#cs)"/><rect x="28.07" y="278.66" width="24.62" height="1.59" style="fill:url(#ct)"/><rect x="28.07" y="285.9" width="24.62" height="1.59" style="fill:url(#cu)"/><rect x="23.42" y="293.15" width="33.91" height="1.59" style="fill:url(#cv)"/><rect x="28.22" y="300.39" width="24.62" height="1.59" style="fill:url(#cw)"/><rect x="28.22" y="307.64" width="24.62" height="1.59" style="fill:url(#cx)"/><rect x="28.22" y="314.88" width="24.62" height="1.59" style="fill:url(#cy)"/><rect x="28.22" y="322.12" width="24.62" height="1.59" style="fill:url(#cz)"/><rect x="23.58" y="329.37" width="33.91" height="1.59" style="fill:url(#da)"/><rect x="28.22" y="336.61" width="24.62" height="1.59" style="fill:url(#db)"/><rect x="28.22" y="343.85" width="24.62" height="1.59" style="fill:url(#dc)"/><rect x="28.22" y="351.1" width="24.62" height="1.59" style="fill:url(#dd)"/><rect x="28.22" y="358.34" width="24.62" height="1.59" style="fill:url(#de)"/><rect x="23.58" y="365.58" width="33.91" height="1.59" style="fill:url(#df)"/><rect x="23.58" y="112.29" width="33.91" height="1.59" style="fill:url(#dg)"/><rect x="28.22" y="119.53" width="24.62" height="1.59" style="fill:url(#dh)"/><rect x="28.22" y="126.78" width="24.62" height="1.59" style="fill:url(#di)"/><rect x="28.22" y="134.02" width="24.62" height="1.59" style="fill:url(#dj)"/><rect x="28.22" y="141.26" width="24.62" height="1.59" style="fill:url(#dk)"/><rect x="23.58" y="148.51" width="33.91" height="1.59" style="fill:url(#dl)"/><rect x="28.07" y="155.75" width="24.62" height="1.59" style="fill:url(#dm)"/><rect x="28.07" y="163" width="24.62" height="1.59" style="fill:url(#dn)"/><rect x="28.07" y="170.24" width="24.62" height="1.59" style="fill:url(#do)"/><rect x="28.07" y="177.48" width="24.62" height="1.59" style="fill:url(#dp)"/><rect x="23.42" y="184.73" width="33.91" height="1.59" style="fill:url(#dq)"/><rect x="28.22" y="191.97" width="24.62" height="1.59" style="fill:url(#dr)"/><rect x="28.22" y="199.21" width="24.62" height="1.59" style="fill:url(#ds)"/><rect x="28.22" y="206.46" width="24.62" height="1.59" style="fill:url(#dt)"/><rect x="28.22" y="213.7" width="24.62" height="1.59" style="fill:url(#du)"/><rect x="23.58" y="220.94" width="33.91" height="1.59" style="fill:url(#dv)"/><rect x="28.22" y="228.19" width="24.62" height="1.59" style="fill:url(#dw)"/><rect x="28.22" y="235.43" width="24.62" height="1.59" style="fill:url(#dx)"/><rect x="28.22" y="242.67" width="24.62" height="1.59" style="fill:url(#dy)"/><rect x="28.22" y="249.92" width="24.62" height="1.59" style="fill:url(#dz)"/><rect x="23.58" y="257.16" width="33.91" height="1.59" style="fill:url(#ea)"/><path d="M32.2,484.22V107.58c0-5.46,3.79-9.92,8.42-9.92h.56c4.63,0,8.42,4.46,8.42,9.92l0,376.64Z" style="fill:#9be0ff"/><g style="clip-path:url(#eb)"><rect x="32.08" y="221.99" width="17.57" height="370.41" transform="translate(81.72 814.39) rotate(-180)" style="fill:#fff"/><path d="M-144.6,406.94H226.78a0,0,0,0,1,0,0v6.22a0,0,0,0,1,0,0H-144.6a0,0,0,0,1,0,0v-6.24A0,0,0,0,1-144.6,406.94Z" transform="translate(-368.97 451.15) rotate(-90)" style="fill:#8e8e8e"/><path d="M41.46,224.38V595.64h1.39c.77,0,1.39-1.4,1.39-3.12V227.38c0-1.72,0-3,0-3Z" style="fill:#a8a8a8"/><rect x="32.2" y="221.5" width="17.39" height="2.07" transform="translate(81.79 445.07) rotate(-180)" style="fill:#a8a8a8"/><rect x="32.21" y="223.54" width="17.38" height="2.07" transform="translate(81.8 449.16) rotate(-180)" style="fill:#8e8e8e"/></g><rect x="16.8" y="487.48" width="47.36" height="11.37" style="fill:#d22c20"/><path d="M76.79,519.5c-.71-15.38-16.73-27.67-36.4-27.67S4.7,504.12,4,519.5Z" style="fill:#d22c20"/><rect x="17.33" y="495.46" width="46.57" height="3.19" style="fill:#a81a16"/><rect x="20.12" y="484.33" width="40.79" height="3.5" transform="translate(81.04 972.17) rotate(-180)" style="fill:url(#ec)"/><rect y="474.17" width="112.67" height="374" style="fill:none"/><path d="M163.94,370.55c-2.83-4.62-8.74-16-8.74-30.15,0-7.78,10.2-6.85,10.2-6.85s10.2-.93,10.2,6.85c0,14.19-5.91,25.53-8.74,30.15-.87,1.44-1.45,2.24-1.45,2.24v0S164.81,372,163.94,370.55Z" style="fill:#fff"/><path d="M184.74,343.55a22.39,22.39,0,0,1-4,1.56,46.6,46.6,0,0,1-15.45,1.83A50,50,0,0,1,153,345.11a19,19,0,0,1-5.16-2.18c.79-1,4-2.8,7.08-4.34,1.8-.9,3.58-1.73,4.85-2.3l1.87-.83a13.73,13.73,0,0,0,.53-3c.41-3.33.85-8.23.85-8.23h8l.31,3.6.68,7.79c.84.37,1.67.78,2.5,1.22,1.66.87,3.27,1.84,4.71,2.77C182.39,341.68,184.74,343.55,184.74,343.55Z" style="fill:#ffceaa"/><path d="M171.27,327.81q-4.58,2.26-9.11,4.63c.41-3.33.85-8.23.85-8.23h8Z" style="fill:#eda672"/><path d="M149.19,296.36c-.74,4.94.79,18.93,5.52,24.19s9.65,7.06,12.94,7.19,10.81-4.24,14.52-10.44c4.48-7.49,4.08-21.73,3.16-27.25s-10.25-10.64-19.19-9.2S151,284,149.19,296.36Z" style="fill:#ffceaa"/><path d="M169.41,311c-.91-.47-3-.43-4.66-.16a1.52,1.52,0,0,0-.61.2c-.18.12-.12.33,0,.51a6.35,6.35,0,0,0,1.88,1.33,2.14,2.14,0,0,0,.85.25,2.09,2.09,0,0,0,1.22-.52C168.65,312.14,169.77,311.5,169.41,311Z" style="fill:#eda672"/><path d="M133.27,299.25a3.07,3.07,0,0,0,1.59-1.38,4.58,4.58,0,0,1,.67-.9,1.56,1.56,0,0,0,.36-.67,4.62,4.62,0,0,1,3.78-3.44,1,1,0,0,0,.86-1,4.66,4.66,0,0,1,4.66-4.62h.05a1.47,1.47,0,0,0,1.22-.66,6.84,6.84,0,0,1,4.11-2.64c1.59,0,3.36-1.66,3.86-2.55,1.11-2,2.31-1.93,9.27-4h0a4.11,4.11,0,0,1,2.81.4,1.42,1.42,0,0,0,1,.12,5.11,5.11,0,0,1,3.87.58,1.41,1.41,0,0,0,1.15.14,5.11,5.11,0,0,1,3.93.39,4.79,4.79,0,0,0,2.54.59,4.49,4.49,0,0,1,3.8,1.85,5.08,5.08,0,0,0,1.51,1.37,5,5,0,0,1,1.14.86,5,5,0,0,0,2.21,1.24,5.48,5.48,0,0,1,3.88,3.78,4.9,4.9,0,0,0,2.58,3.08,5.41,5.41,0,0,1,2.74,3.07,5,5,0,0,0,1.27,1.94,4.54,4.54,0,0,1,1.46,3.46,4.74,4.74,0,0,0,.49,2.28,6.36,6.36,0,0,1-1.52,7.5,5,5,0,0,0-1.64,3.27,8.54,8.54,0,0,1-6.13,7.44,5,5,0,0,0-2,1.1,11.2,11.2,0,0,1-9.14,2.9,5,5,0,0,0-2.9.5,20.84,20.84,0,0,1-5.55,1.85l-.05-.53c9.66-4.81,13.74-12.39,14.06-22.68v-.27a4.44,4.44,0,0,1-3.38-4.3,4.9,4.9,0,0,1,.08-.77,5,5,0,0,1-4.38-5,4.8,4.8,0,0,1,.08-.85,5,5,0,0,1-2.8.85,5,5,0,0,1-4.95-4.16,5,5,0,0,1-8.32-3.37,4.25,4.25,0,0,1-4.3,1.65,4.85,4.85,0,0,1,.18,1.21,4.67,4.67,0,0,1-3,4.35,4.64,4.64,0,0,1-3.59,4.1,4.63,4.63,0,0,1-1.77,3.33,21.52,21.52,0,0,0-.08,3.22c.95,8.81,4.61,18.1,13.75,22.54l0,.54a22.81,22.81,0,0,1-4.25-1.69,4.78,4.78,0,0,0-2.8-.5,11.14,11.14,0,0,1-7.16-1.58,3.23,3.23,0,0,0-1.71-.46,8.48,8.48,0,0,1-6.85-3.29,3.13,3.13,0,0,0-1.35-1,6.32,6.32,0,0,1-4-5,3.2,3.2,0,0,0-1-1.87,4.56,4.56,0,0,1-1.42-3,3.19,3.19,0,0,0-.78-1.91,4.65,4.65,0,0,1,1.77-7.38Z" style="fill:#d5532c"/><path d="M158.9,302.08c1.87.42,2.8,1.27,2.5,4.3a2.94,2.94,0,0,1-.5,1.61,5.33,5.33,0,0,1-1.41.86c-1.22.63-2.94,1.36-4.21.62a4.13,4.13,0,0,1-1.9-3.09,4.06,4.06,0,0,1,.19-2.47c.68-1.28,2.24-1.75,3.65-2.11Z" style="fill:#fff"/><path d="M156.53,307a1.84,1.84,0,0,1-.09-2,1.35,1.35,0,0,1,.56-.55,1,1,0,0,1,.78-.07,1.27,1.27,0,0,1,.72,1,1.88,1.88,0,0,1-.5,1.85,1,1,0,0,1-.81.24A1.1,1.1,0,0,1,156.53,307Z" style="fill:#4c0c0a"/><path d="M153,305.57a4.48,4.48,0,0,1,2.92-3.13,5,5,0,0,1,3.62,0,3.91,3.91,0,0,1,2,2.23c.14.36.53.31.58.09a4.36,4.36,0,0,0-3.47-3.76,5.4,5.4,0,0,0-5.62,2.4,3.29,3.29,0,0,0-.56,1.68C152.43,305.68,152.92,305.91,153,305.57Z" style="fill:#eda672"/><path d="M153.1,304.75l-2.2.13a4.11,4.11,0,0,0,2,.83C152.93,305.29,152.84,305.08,153.1,304.75Z" style="fill:#eda672"/><path d="M173.62,302.08c-1.87.42-2.8,1.27-2.5,4.3a2.94,2.94,0,0,0,.5,1.61,5.33,5.33,0,0,0,1.41.86c1.22.63,2.94,1.36,4.21.62a4.09,4.09,0,0,0,1.89-3.09,4,4,0,0,0-.18-2.47c-.68-1.28-2.24-1.75-3.65-2.11Z" style="fill:#fff"/><path d="M176,307a1.84,1.84,0,0,0,.09-2,1.53,1.53,0,0,0-.55-.55,1,1,0,0,0-.78-.06,1.21,1.21,0,0,0-.7,1,1.85,1.85,0,0,0,.49,1.83,1,1,0,0,0,.79.25A1.12,1.12,0,0,0,176,307Z" style="fill:#4c0c0a"/><path d="M179.52,305.57a4.48,4.48,0,0,0-2.92-3.13,5,5,0,0,0-3.62,0,3.87,3.87,0,0,0-2,2.23c-.14.36-.53.31-.58.09a4.36,4.36,0,0,1,3.47-3.76,5.4,5.4,0,0,1,5.62,2.4,3.39,3.39,0,0,1,.56,1.68C180.09,305.68,179.6,305.91,179.52,305.57Z" style="fill:#eda672"/><path d="M179.42,304.75l2.2.13a4.15,4.15,0,0,1-2,.83C179.59,305.29,179.67,305.08,179.42,304.75Z" style="fill:#eda672"/><path d="M177.81,298.79a36.33,36.33,0,0,0-6.23-4.81,5.92,5.92,0,0,1,6.23,4.81Z" style="fill:#d5532c"/><path d="M154.21,298.92a35.78,35.78,0,0,1,6.23-4.8,6,6,0,0,0-4,1.21A6,6,0,0,0,154.21,298.92Z" style="fill:#d5532c"/><path d="M185.08,303.17h-1.46c0-.23,0-.47,0-.74v-.68l-.63-.28h0c-.37-.16-.66-.26-1-.37s-.65-.19-1-.27a16.18,16.18,0,0,0-2-.39,18.89,18.89,0,0,0-4-.17,8.91,8.91,0,0,0-1,.1,8.56,8.56,0,0,0-1,.19,9.11,9.11,0,0,0-1.95.71,8.18,8.18,0,0,0-1.71,1.16,6.54,6.54,0,0,0-1.36,1.62l-.07.14h-2.33l-.08-.14a6.51,6.51,0,0,0-1.35-1.62,8,8,0,0,0-1.72-1.16,8.84,8.84,0,0,0-1.94-.71,8.56,8.56,0,0,0-1-.19,9.32,9.32,0,0,0-1-.1,18.83,18.83,0,0,0-4,.17,16.73,16.73,0,0,0-2,.39l-1,.27a10.24,10.24,0,0,0-1,.37h0l-.64.28v.68c0,.27,0,.51,0,.74h-1.61a.56.56,0,0,0-.56.56v.54a.56.56,0,0,0,.56.56h1.61a.59.59,0,0,0,.26-.07,5.91,5.91,0,0,0,.19.69,8.68,8.68,0,0,0,1.39,2.76,6.65,6.65,0,0,0,1.14,1.11,3.66,3.66,0,0,0,.66.45,5.34,5.34,0,0,0,.71.37,7.35,7.35,0,0,0,1.5.44,6.47,6.47,0,0,0,1.51.13H158l.17,0,.68-.05c.45,0,1-.13,1.45-.2a10.1,10.1,0,0,0,1.41-.37,7.21,7.21,0,0,0,1.38-.58,5.25,5.25,0,0,0,2.23-2.15,3.45,3.45,0,0,0,.31-.77c0-.14.06-.28.08-.44v-.66H168v.66a2.85,2.85,0,0,0,.09.44,4,4,0,0,0,.3.77,5.3,5.3,0,0,0,2.23,2.15,7.49,7.49,0,0,0,1.38.58,10.61,10.61,0,0,0,1.42.37c.48.07,1,.18,1.44.2l.68.05.17,0h.59a6.47,6.47,0,0,0,1.51-.13,7.54,7.54,0,0,0,1.5-.44,4.68,4.68,0,0,0,.7-.37,3.41,3.41,0,0,0,.67-.45,6.65,6.65,0,0,0,1.14-1.11,8.68,8.68,0,0,0,1.39-2.76c.07-.21.12-.43.17-.64l.12,0h1.61a.56.56,0,0,0,.56-.56v-.54A.56.56,0,0,0,185.08,303.17Zm-20.65,2.55a1.75,1.75,0,0,1-.29,1,3.91,3.91,0,0,1-1.72,1.48,6.43,6.43,0,0,1-1.16.43,9.94,9.94,0,0,1-1.23.26c-.43,0-.8.11-1.27.12l-.68,0h-.31l-.3,0a5.26,5.26,0,0,1-1.2-.17,5.08,5.08,0,0,1-1.1-.37,3.43,3.43,0,0,1-.49-.28,2.13,2.13,0,0,1-.45-.34,5.45,5.45,0,0,1-.77-.82,7.05,7.05,0,0,1-.56-1,6.26,6.26,0,0,1-.38-1.13,8,8,0,0,1-.23-1.2c0-.16,0-.33,0-.5l.13-.05.83-.3c.57-.18,1.15-.33,1.73-.46a17.84,17.84,0,0,1,1.78-.29,17.64,17.64,0,0,1,1.8-.09,8.34,8.34,0,0,1,.88,0,6.3,6.3,0,0,1,.86.1,7.81,7.81,0,0,1,1.65.48,7.32,7.32,0,0,1,1.48.86,5.5,5.5,0,0,1,1.06,1.1Zm17-2a6.86,6.86,0,0,1-.22,1.2,6.29,6.29,0,0,1-.39,1.13,6.2,6.2,0,0,1-.56,1,5,5,0,0,1-.77.82,1.9,1.9,0,0,1-.45.34,2.87,2.87,0,0,1-.48.28,6.47,6.47,0,0,1-2.3.54l-.31,0h-.3l-.68,0c-.47,0-.84-.09-1.27-.12a10.5,10.5,0,0,1-1.24-.26,6.62,6.62,0,0,1-1.15-.43,3.91,3.91,0,0,1-1.72-1.48,1.75,1.75,0,0,1-.29-1l0-1.16a5.85,5.85,0,0,1,1.07-1.1,6.81,6.81,0,0,1,1.48-.86,7.64,7.64,0,0,1,1.65-.48,6.12,6.12,0,0,1,.86-.1,8.34,8.34,0,0,1,.88,0,17.64,17.64,0,0,1,1.8.09,17.84,17.84,0,0,1,1.78.29c.58.13,1.16.28,1.73.46l.83.3.13.05C181.42,303.35,181.41,303.52,181.39,303.68Z" style="fill:#b53116"/><path d="M169.44,310.93c-.89-.46-2.95-.41-4.55-.15a1.46,1.46,0,0,0-.59.19c-.17.11-.11.32,0,.5a5.9,5.9,0,0,0,1.84,1.29,1.87,1.87,0,0,0,.83.25,2,2,0,0,0,1.18-.51C168.7,312.08,169.8,311.46,169.44,310.93Z" style="fill:#eda672"/><path d="M172.5,318.24a5,5,0,0,1-4.68,4.07c-5.75.4-7-4.44-7-4.44Z" style="fill:#aa4c3f"/><path d="M172.5,316.91s-1.09-1.6-5.83-1.6a9.31,9.31,0,0,0-5.44,1.48Z" style="fill:#aa4c3f"/><path d="M161.23,316.79a2.78,2.78,0,0,0-.5,1.27.66.66,0,0,0,.35.69,12.53,12.53,0,0,0,6.08,1.82,9.79,9.79,0,0,0,5-1.57c.68-.4.3-.28.57-.7s-.22-1.56-.47-1.51Z" style="fill:#4c0c0a"/><path d="M161.43,318.92c.92.86,2.61,1.65,5.73,1.65,2.62,0,4.14-.67,5-1.57.14-.58.06-1-.33-1.15.45-.2.51-.55.36-1.06H161.43c0,.49-.1.82.5,1C161.34,317.93,161.42,318.79,161.43,318.92Z" style="fill:#fff"/><path d="M161.08,318.76a3,3,0,0,0-.67,0,.59.59,0,0,0-.48.25c0,.08,0,.16-.07.24a.24.24,0,0,1-.16.18.21.21,0,0,1-.2-.11.6.6,0,0,1-.06-.23l-.05-.34a.65.65,0,0,1,0-.28c0-.09.15-.16.23-.12s.13.22.24.24.13,0,.18-.07a2.44,2.44,0,0,0,.63-.83c.07-.16.17-.31.26-.47l.14-.26c0-.06.15-.11.15-.18C161.19,317.46,161.12,318.08,161.08,318.76Z" style="fill:#4c0c0a"/><path d="M172.56,318.75a4.7,4.7,0,0,1,.68.06.63.63,0,0,1,.47.26,1,1,0,0,1,.07.24c0,.08.08.16.16.17a.21.21,0,0,0,.2-.11.6.6,0,0,0,.06-.23l.05-.34a.53.53,0,0,0,0-.28.18.18,0,0,0-.23-.11c-.1,0-.12.22-.24.24a.21.21,0,0,1-.17-.08,2.41,2.41,0,0,1-.64-.82c-.07-.17-.17-.32-.25-.48a2.15,2.15,0,0,1-.14-.26c0-.06-.12-.08-.12-.15C172.49,317.53,172.52,318.07,172.56,318.75Z" style="fill:#4c0c0a"/><path d="M137.14,384l-.28.26A1.18,1.18,0,0,1,137.14,384Z" style="fill:#754559;opacity:0.4;mix-blend-mode:multiply"/><path d="M171,506.78a9.41,9.41,0,0,0,.76-1.85h7.17L182,511l3.22,5.84,1.91,2.19-1.49.73-9.18-.86Z" style="fill:#ffceaa"/><path d="M171.23,512.24l2.21,14h2.11l.41-7.56s-1-4.7-1.65-5.38S171.23,512.24,171.23,512.24Z" style="fill:#59150c"/><path d="M171.44,506.78s2.09.9,3.33,4.56,2.23,7.57,5.28,7.57h6.66a5.87,5.87,0,0,1-2-2.38C184.14,515.1,182,511,182,511s3.38,5.81,4.28,6.61,3.62,1.57,4,2.91,1.66,5.76-2.95,5.76H178a3.22,3.22,0,0,1-1.85-2.48c-.43-2-1.57-7.14-2.57-9s-2.09-1.43-2.76-3.67S170.52,506.13,171.44,506.78Z" style="fill:#b53116"/><path d="M164.6,506.51a9.11,9.11,0,0,1-.76-1.84h-7.17l-3.07,6.08-3.22,5.84-1.91,2.19,1.49.72,9.18-.86Z" style="fill:#ffceaa"/><path d="M164.32,512,162.11,526H160l-.41-7.57s1-4.69,1.65-5.37S164.32,512,164.32,512Z" style="fill:#59150c"/><path d="M164.11,506.51s-2.09.91-3.33,4.57-2.23,7.56-5.28,7.56h-6.66a5.88,5.88,0,0,0,2-2.37c.57-1.43,2.76-5.52,2.76-5.52s-3.38,5.8-4.28,6.61-3.62,1.57-4,2.9-1.66,5.77,3,5.77h9.32a3.25,3.25,0,0,0,1.86-2.49c.43-2,1.57-7.13,2.57-9s2.09-1.42,2.76-3.66S165,505.87,164.11,506.51Z" style="fill:#b53116"/><path d="M188.81,451.32c0,1.89-10,2.32-22.07,2.32s-21.4.82-21.4-1.07S155,448.9,167,448.9,188.81,449.43,188.81,451.32Z" style="fill:#2c222d"/><path d="M171.76,505l-.9-30.89.66-52.54a6.32,6.32,0,0,1,6.4-6.25c3.49,0,10.57,4.25,10.69,10.06a151.84,151.84,0,0,1-1.9,22.9c-1.19,7.36-8.1,50.19-7.83,56.95A12.81,12.81,0,0,1,171.76,505Z" style="fill:#ffceaa"/><path d="M163.69,505l.46-30.89-.65-52.54a6.43,6.43,0,0,0-6.36-6.41c-3.49,0-10.6,1.79-12.55,5,0,0,.35,4.63,1.06,14.59.57,8,8.17,52.8,8.19,52.86.65,6.23,3.26,10.62,2.61,17.27C156.45,504.91,159,506.09,163.69,505Z" style="fill:#ffceaa"/><path d="M187.72,450.39l-.42,3c-2.67-.74-12.58-1.18-16.08-.89l-.17-3.44Z" style="fill:#7f5d41"/><path d="M146.54,452.46l.24,1.93c2.67-.74,13.53-2,17-1.71v-3.13Z" style="fill:#7f5d41"/><path d="M138.53,412.71c-1.89,5.34-2.19,14-2.19,14,.18,3.74,2.19,8.39,8.48,12.66l.48,13.29c5.34-1.66,18.49-2.32,22.54-2.37,4.64-.07,15.19,0,20.88,1.07l.95-12.11a12.63,12.63,0,0,0,9-12.4s-.24-8.72-3.08-14.53c-1.13-2.3-.6-1.57-3.68-9-6-3.72-12.88-6.26-24.8-6.26s-18.74,3-24.8,7.33C139.47,411.47,140.43,407.38,138.53,412.71Z" style="fill:#3b2d3c"/><polygon points="167.09 337.11 167.09 363.63 155.44 336.81 167.09 337.11" style="fill:#d8e2ef"/><polygon points="167.09 334.05 167.09 337.11 163.03 343.74 155.27 338.19 160.39 334.05 167.09 334.05" style="fill:#fff"/><polygon points="167.09 337.12 167.09 363.63 178.94 336.81 167.09 337.12" style="fill:#d8e2ef"/><polygon points="167.09 334.05 167.09 337.11 171.16 343.74 178.92 338.19 173.8 334.05 167.09 334.05" style="fill:#fff"/><path d="M167.09,363.63v43.14s.77,8.73-.08,8.73-28.47-3-28.47-3,10-22,9.43-28.79l-1-11.48s-3.73-2.95-4.23-11c-.43-6.94-2.85-15.22.82-19.05a8.79,8.79,0,0,1,7.8-2.9Z" style="fill:#d9a155"/><path d="M147.86,371s3.27,2.07,8.8,1.47,8.31-2.42,7.76-2.76-5.64.9-10.37.34S144.34,368.2,147.86,371Z" style="fill:#ba823a"/><path d="M167.09,363.63v43.14s.13,8.64.37,8.64c.85,0,28.19-2.89,28.19-2.89s-8.38-21.87-8.26-28.7c.09-5,.18-11.48.18-11.48s4.71-6.77,4.71-14.86,1.08-9.46-.62-13.35-8.85-4.86-8.85-4.86Z" style="fill:#d9a155"/><path d="M186.33,371a14.53,14.53,0,0,1-8.8,1.47c-5.52-.61-8.31-2.42-7.77-2.76s5.65.9,10.38.34S189.85,368.2,186.33,371Z" style="fill:#ba823a"/><polygon points="167.09 363.71 167.09 415.15 166.79 415.62 166.79 363.22 167.09 363.71" style="fill:#b0772b"/><polygon points="167.09 363.71 167.09 415.15 167.4 415.62 167.4 363.22 167.09 363.71" style="fill:#b0772b"/><polygon points="133.35 417.31 132.47 414.2 135.06 409.46 140.13 408.04 142.47 416.4 133.35 417.31" style="fill:#ffceaa"/><path d="M137.18,416.89a3.81,3.81,0,1,1,2.64-4.69A3.8,3.8,0,0,1,137.18,416.89Z" style="fill:#ffceaa"/><path d="M138,420a3.81,3.81,0,1,1,2.64-4.7A3.8,3.8,0,0,1,138,420Z" style="fill:#ffceaa"/><path d="M139.59,416.21a3.81,3.81,0,1,1,2.64-4.69A3.8,3.8,0,0,1,139.59,416.21Z" style="fill:#ffceaa"/><rect x="132.96" y="406.32" width="7.61" height="7.66" transform="translate(-106.02 52.4) rotate(-15.72)" style="fill:#ffceaa"/><path d="M142.12,415c-1.6-1.87-2.5-3.76-2-4.19s2.23.75,3.83,2.62,2.49,3.75,2,4.18S143.72,416.87,142.12,415Z" style="fill:#ffceaa"/><path d="M141.24,418.33c-1-3.51-1.29-6.53-.69-6.7s1.92,2.57,2.9,6.08,1.3,6.53.69,6.7S142.22,421.85,141.24,418.33Z" style="fill:#ffceaa"/><path d="M139.35,420.1c-1.06-3.78-1.43-7-.82-7.19s2,2.79,3,6.57,1.43,7,.83,7.19S140.41,423.89,139.35,420.1Z" style="fill:#ffceaa"/><path d="M137,420.23c-1-3.51-1.29-6.53-.69-6.7s1.92,2.57,2.9,6.08,1.3,6.53.69,6.7S138,423.75,137,420.23Z" style="fill:#ffceaa"/><path d="M134.26,419c-.87-3.11-1.08-5.79-.47-6s1.81,2.23,2.68,5.34,1.09,5.78.48,5.95S135.13,422.08,134.26,419Z" style="fill:#ffceaa"/><path d="M139.26,404.57c-.66.26.21,1.27.5,2.15s.57,2,.57,2l-7.45,1.8-.8-2.85Z" style="fill:#ededed"/><path d="M139.79,406.72l-.17-.73c0-.11,0-.25,0-.38l0-.4c0-.25,0-.53,0-.8v-1.67c0-.28,0-.57,0-.86s0-.57,0-.86l.05-.87c.14-2.32.4-4.67.73-7s.74-4.72,1.19-7.07,1-4.7,1.49-7,1.13-4.67,1.76-7,1.29-4.61,2-6.9,1.45-4.55,2.23-6.79,1.62-4.46,2.5-6.65l-13.42-4.37q-1,3.72-1.89,7.45c-.58,2.48-1.1,5-1.58,7.46s-.91,5-1.31,7.49-.73,5-1,7.53-.56,5-.76,7.56-.36,5.08-.44,7.64-.08,5.14.05,7.77l0,1c0,.33.05.67.08,1s0,.67.08,1l.12,1,0,.26,0,.26.08.52c0,.35.1.69.17,1.06l.1.54.06.27,0,.13,0,.14.28,1.14Z" style="fill:#d9a155"/><path d="M147.12,342.89a6.73,6.73,0,0,0-5.39.21,7,7,0,0,0-2.2,1.68,7.35,7.35,0,0,0-1.44,2.53,7.53,7.53,0,0,0-.33,2.88,7,7,0,0,0,.79,2.64,6.82,6.82,0,0,0,4.21,3.37,7.23,7.23,0,0,0,5.35-.57,7,7,0,0,0,2.06-1.63,6.63,6.63,0,0,0,1.62-5,7.18,7.18,0,0,0-.7-2.52A7.39,7.39,0,0,0,147.12,342.89Z" style="fill:#d9a155"/><polygon points="200.5 417.94 201.38 414.83 198.79 410.08 193.73 408.67 191.38 417.02 200.5 417.94" style="fill:#ffceaa"/><path d="M196.67,417.52a3.81,3.81,0,1,0-2.64-4.7A3.82,3.82,0,0,0,196.67,417.52Z" style="fill:#ffceaa"/><path d="M195.81,420.57a3.81,3.81,0,1,0-2.64-4.69A3.81,3.81,0,0,0,195.81,420.57Z" style="fill:#ffceaa"/><path d="M194.26,416.84a3.81,3.81,0,1,0-2.64-4.69A3.8,3.8,0,0,0,194.26,416.84Z" style="fill:#ffceaa"/><rect x="193.26" y="406.98" width="7.66" height="7.61" transform="translate(-251.73 489.19) rotate(-74.28)" style="fill:#ffceaa"/><path d="M191.73,415.62c1.6-1.87,2.5-3.75,2-4.18s-2.23.74-3.83,2.61-2.49,3.76-2,4.19S190.13,417.5,191.73,415.62Z" style="fill:#ffceaa"/><path d="M192.61,419c1-3.52,1.3-6.53.69-6.7s-1.91,2.56-2.9,6.08-1.29,6.53-.69,6.7S191.63,422.47,192.61,419Z" style="fill:#ffceaa"/><path d="M194.5,420.73c1.06-3.78,1.43-7,.82-7.19s-2,2.79-3,6.57-1.43,7-.82,7.19S193.44,424.51,194.5,420.73Z" style="fill:#ffceaa"/><path d="M196.85,420.86c1-3.51,1.3-6.53.69-6.7s-1.92,2.57-2.9,6.08-1.29,6.53-.69,6.7S195.87,424.37,196.85,420.86Z" style="fill:#ffceaa"/><path d="M199.59,419.6c.87-3.1,1.08-5.78.48-6s-1.82,2.23-2.69,5.33-1.09,5.79-.48,6S198.72,422.71,199.59,419.6Z" style="fill:#ffceaa"/><path d="M194.61,405.06c.66.27-.23,1.44-.51,2.31s-.56,1.8-.56,1.8L201,411l.8-2.85Z" style="fill:#ededed"/><path d="M194.08,407.33l.16-.71c0-.12,0-.26,0-.39l0-.39c0-.26,0-.53,0-.81v-1.67c0-.28,0-.57,0-.85s0-.57,0-.86l-.05-.87c-.14-2.32-.4-4.68-.73-7s-.74-4.72-1.19-7.07-.94-4.71-1.49-7.05-1.13-4.66-1.76-7-1.29-4.62-2-6.9-1.46-4.55-2.24-6.8-1.62-4.46-2.49-6.64l13.41-4.38c.69,2.48,1.31,5,1.89,7.45s1.1,5,1.59,7.47.9,5,1.3,7.49.73,5,1,7.52.55,5,.76,7.57.35,5.07.43,7.63.08,5.14,0,7.78l-.05,1c0,.33-.05.67-.07,1s-.05.66-.09,1l-.11,1,0,.25,0,.26-.08.53c-.05.34-.09.69-.17,1.05l-.1.54-.06.27,0,.14,0,.14-.28,1.13Z" style="fill:#d9a155"/><path d="M186.73,343.51a6.79,6.79,0,0,1,5.4.22,7.09,7.09,0,0,1,2.19,1.68,7.26,7.26,0,0,1,1.44,2.53,7.09,7.09,0,0,1-.45,5.52,6.84,6.84,0,0,1-4.22,3.37,7.24,7.24,0,0,1-5.34-.57,6.86,6.86,0,0,1-2.07-1.63,6.41,6.41,0,0,1-1.31-2.32,6.54,6.54,0,0,1-.31-2.65,7,7,0,0,1,.71-2.52A7.37,7.37,0,0,1,186.73,343.51Z" style="fill:#d9a155"/><path d="M149.84,352.14c3.57,1.19,4.76,1.52,4.76,1.52s-1.14,1.75-2.11,3.29,6.63,2.87,14.49,6.45c0,0-7.37-14.24-10-26.73-.65-3.05-7.46,2.14-8.32,5.26C147.62,345.59,147.91,351.5,149.84,352.14Z" style="fill:#b0772b"/><path d="M184.26,352.57c-3.54,1.11-4.72,1.41-4.72,1.41s1.09,1.75,2,3.29-6.59,2.71-14.41,6.1c0,0,7.52-13.92,10.37-26.2.7-3,7.33,2.24,8.12,5.35C186.57,346.14,186.18,352,184.26,352.57Z" style="fill:#b0772b"/><path d="M189.84,439.09l3.16-4.9a41.32,41.32,0,0,0,5.57-5.22s-.95,4.39-3.08,6.64A16.38,16.38,0,0,1,189.84,439.09Z" style="fill:#2c222d"/><path d="M145.42,439.44l-3.09-4.54a54.55,54.55,0,0,1-5.65-5.57s.95,4.39,3.08,6.64A16.27,16.27,0,0,0,145.42,439.44Z" style="fill:#2c222d"/></g></svg>