<svg xmlns="http://www.w3.org/2000/svg" xmlns:xlink="http://www.w3.org/1999/xlink" viewBox="0 0 332.11 848.17"><defs><linearGradient id="a" x1="-182.75" y1="288.95" x2="-148.36" y2="288.95" gradientTransform="matrix(1, 0, 0, -1, 460.49, 577.9)" gradientUnits="userSpaceOnUse"><stop offset="0.01" stop-color="#d22c20"/><stop offset="0.31" stop-color="#e7342e"/><stop offset="0.51" stop-color="#ef3733"/><stop offset="0.72" stop-color="#e6332d"/><stop offset="1" stop-color="#d22c20"/></linearGradient><linearGradient id="b" x1="311.62" y1="329.93" x2="278.86" y2="329.93" gradientUnits="userSpaceOnUse"><stop offset="0.05" stop-color="#d3d2d2"/><stop offset="0.37" stop-color="#9a9a9c"/><stop offset="0.64" stop-color="#9a9a9c"/><stop offset="1" stop-color="#d1d6d5"/></linearGradient><linearGradient id="c" x1="307.23" y1="337.17" x2="283.44" y2="337.17" xlink:href="#b"/><linearGradient id="d" x1="307.23" y1="344.42" x2="283.44" y2="344.42" xlink:href="#b"/><linearGradient id="e" x1="307.23" y1="351.66" x2="283.44" y2="351.66" xlink:href="#b"/><linearGradient id="f" x1="307.23" y1="358.9" x2="283.44" y2="358.9" xlink:href="#b"/><linearGradient id="g" x1="311.62" y1="366.15" x2="278.86" y2="366.15" xlink:href="#b"/><linearGradient id="h" x1="307.38" y1="373.39" x2="283.59" y2="373.39" xlink:href="#b"/><linearGradient id="i" x1="307.38" y1="380.63" x2="283.59" y2="380.63" xlink:href="#b"/><linearGradient id="j" x1="307.38" y1="387.88" x2="283.59" y2="387.88" xlink:href="#b"/><linearGradient id="k" x1="307.38" y1="395.12" x2="283.59" y2="395.12" xlink:href="#b"/><linearGradient id="l" x1="311.78" y1="402.37" x2="279.01" y2="402.37" xlink:href="#b"/><linearGradient id="m" x1="307.23" y1="409.61" x2="283.44" y2="409.61" xlink:href="#b"/><linearGradient id="n" x1="307.23" y1="416.85" x2="283.44" y2="416.85" xlink:href="#b"/><linearGradient id="o" x1="307.23" y1="424.1" x2="283.44" y2="424.1" xlink:href="#b"/><linearGradient id="p" x1="307.23" y1="431.34" x2="283.44" y2="431.34" xlink:href="#b"/><linearGradient id="q" x1="311.62" y1="438.58" x2="278.86" y2="438.58" xlink:href="#b"/><linearGradient id="r" x1="307.23" y1="445.83" x2="283.44" y2="445.83" xlink:href="#b"/><linearGradient id="s" x1="307.23" y1="453.07" x2="283.44" y2="453.07" xlink:href="#b"/><linearGradient id="t" x1="307.23" y1="460.31" x2="283.44" y2="460.31" xlink:href="#b"/><linearGradient id="u" x1="307.23" y1="467.56" x2="283.44" y2="467.56" xlink:href="#b"/><linearGradient id="v" x1="311.62" y1="474.8" x2="278.86" y2="474.8" xlink:href="#b"/><linearGradient id="w" x1="311.62" y1="221.51" x2="278.86" y2="221.51" xlink:href="#b"/><linearGradient id="x" x1="307.23" y1="228.75" x2="283.44" y2="228.75" xlink:href="#b"/><linearGradient id="y" x1="307.23" y1="235.99" x2="283.44" y2="235.99" xlink:href="#b"/><linearGradient id="z" x1="307.23" y1="243.24" x2="283.44" y2="243.24" xlink:href="#b"/><linearGradient id="aa" x1="307.23" y1="250.48" x2="283.44" y2="250.48" xlink:href="#b"/><linearGradient id="ab" x1="311.62" y1="257.73" x2="278.86" y2="257.73" xlink:href="#b"/><linearGradient id="ac" x1="307.38" y1="264.97" x2="283.59" y2="264.97" xlink:href="#b"/><linearGradient id="ad" x1="307.38" y1="272.21" x2="283.59" y2="272.21" xlink:href="#b"/><linearGradient id="ae" x1="307.38" y1="279.46" x2="283.59" y2="279.46" xlink:href="#b"/><linearGradient id="af" x1="307.38" y1="286.7" x2="283.59" y2="286.7" xlink:href="#b"/><linearGradient id="ag" x1="311.78" y1="293.94" x2="279.01" y2="293.94" xlink:href="#b"/><linearGradient id="ah" x1="307.23" y1="301.19" x2="283.44" y2="301.19" xlink:href="#b"/><linearGradient id="ai" x1="307.23" y1="308.43" x2="283.44" y2="308.43" xlink:href="#b"/><linearGradient id="aj" x1="307.23" y1="315.67" x2="283.44" y2="315.67" xlink:href="#b"/><linearGradient id="ak" x1="307.23" y1="322.92" x2="283.44" y2="322.92" xlink:href="#b"/><linearGradient id="al" x1="311.62" y1="330.16" x2="278.86" y2="330.16" xlink:href="#b"/><linearGradient id="am" x1="307.23" y1="337.4" x2="283.44" y2="337.4" xlink:href="#b"/><linearGradient id="an" x1="307.23" y1="344.65" x2="283.44" y2="344.65" xlink:href="#b"/><linearGradient id="ao" x1="307.23" y1="351.89" x2="283.44" y2="351.89" xlink:href="#b"/><linearGradient id="ap" x1="307.23" y1="359.13" x2="283.44" y2="359.13" xlink:href="#b"/><linearGradient id="aq" x1="311.62" y1="366.38" x2="278.86" y2="366.38" xlink:href="#b"/><linearGradient id="ar" x1="311.62" y1="113.09" x2="278.86" y2="113.09" xlink:href="#b"/><linearGradient id="as" x1="307.23" y1="120.33" x2="283.44" y2="120.33" xlink:href="#b"/><linearGradient id="at" x1="307.23" y1="127.57" x2="283.44" y2="127.57" xlink:href="#b"/><linearGradient id="au" x1="307.23" y1="134.82" x2="283.44" y2="134.82" xlink:href="#b"/><linearGradient id="av" x1="307.23" y1="142.06" x2="283.44" y2="142.06" xlink:href="#b"/><linearGradient id="aw" x1="311.62" y1="149.3" x2="278.86" y2="149.3" xlink:href="#b"/><linearGradient id="ax" x1="307.38" y1="156.55" x2="283.59" y2="156.55" xlink:href="#b"/><linearGradient id="ay" x1="307.38" y1="163.79" x2="283.59" y2="163.79" xlink:href="#b"/><linearGradient id="az" x1="307.38" y1="171.03" x2="283.59" y2="171.03" xlink:href="#b"/><linearGradient id="ba" x1="307.38" y1="178.28" x2="283.59" y2="178.28" xlink:href="#b"/><linearGradient id="bb" x1="311.78" y1="185.52" x2="279.01" y2="185.52" xlink:href="#b"/><linearGradient id="bc" x1="307.23" y1="192.76" x2="283.44" y2="192.76" xlink:href="#b"/><linearGradient id="bd" x1="307.23" y1="200.01" x2="283.44" y2="200.01" xlink:href="#b"/><linearGradient id="be" x1="307.23" y1="207.25" x2="283.44" y2="207.25" xlink:href="#b"/><linearGradient id="bf" x1="307.23" y1="214.49" x2="283.44" y2="214.49" xlink:href="#b"/><linearGradient id="bg" x1="311.62" y1="221.74" x2="278.86" y2="221.74" xlink:href="#b"/><linearGradient id="bh" x1="307.23" y1="228.98" x2="283.44" y2="228.98" xlink:href="#b"/><linearGradient id="bi" x1="307.23" y1="236.23" x2="283.44" y2="236.23" xlink:href="#b"/><linearGradient id="bj" x1="307.23" y1="243.47" x2="283.44" y2="243.47" xlink:href="#b"/><linearGradient id="bk" x1="307.23" y1="250.71" x2="283.44" y2="250.71" xlink:href="#b"/><linearGradient id="bl" x1="311.62" y1="257.96" x2="278.86" y2="257.96" xlink:href="#b"/><clipPath id="bm"><rect x="286.53" y="112.37" width="17.37" height="371.86" style="fill:none"/></clipPath><linearGradient id="bn" x1="275.18" y1="486.08" x2="315.97" y2="486.08" gradientUnits="userSpaceOnUse"><stop offset="0.01" stop-color="#d22c20"/><stop offset="0.26" stop-color="#e2322b"/><stop offset="0.51" stop-color="#ef3733"/><stop offset="1" stop-color="#d22c20"/></linearGradient><linearGradient id="bo" x1="-368.75" y1="288.95" x2="-334.36" y2="288.95" gradientTransform="translate(392.71)" xlink:href="#a"/><linearGradient id="bp" x1="497.62" y1="329.93" x2="464.86" y2="329.93" gradientTransform="matrix(-1, 0, 0, 1, 522.09, 0)" xlink:href="#b"/><linearGradient id="bq" x1="493.23" y1="337.17" x2="469.44" y2="337.17" gradientTransform="matrix(-1, 0, 0, 1, 522.09, 0)" xlink:href="#b"/><linearGradient id="br" x1="493.23" y1="344.42" x2="469.44" y2="344.42" gradientTransform="matrix(-1, 0, 0, 1, 522.09, 0)" xlink:href="#b"/><linearGradient id="bs" x1="493.23" y1="351.66" x2="469.44" y2="351.66" gradientTransform="matrix(-1, 0, 0, 1, 522.09, 0)" xlink:href="#b"/><linearGradient id="bt" x1="493.23" y1="358.9" x2="469.44" y2="358.9" gradientTransform="matrix(-1, 0, 0, 1, 522.09, 0)" xlink:href="#b"/><linearGradient id="bu" x1="497.62" y1="366.15" x2="464.86" y2="366.15" gradientTransform="matrix(-1, 0, 0, 1, 522.09, 0)" xlink:href="#b"/><linearGradient id="bv" x1="493.38" y1="373.39" x2="469.59" y2="373.39" gradientTransform="matrix(-1, 0, 0, 1, 522.09, 0)" xlink:href="#b"/><linearGradient id="bw" x1="493.38" y1="380.63" x2="469.59" y2="380.63" gradientTransform="matrix(-1, 0, 0, 1, 522.09, 0)" xlink:href="#b"/><linearGradient id="bx" x1="493.38" y1="387.88" x2="469.59" y2="387.88" gradientTransform="matrix(-1, 0, 0, 1, 522.09, 0)" xlink:href="#b"/><linearGradient id="by" x1="493.38" y1="395.12" x2="469.59" y2="395.12" gradientTransform="matrix(-1, 0, 0, 1, 522.09, 0)" xlink:href="#b"/><linearGradient id="bz" x1="497.78" y1="402.37" x2="465.01" y2="402.37" gradientTransform="matrix(-1, 0, 0, 1, 522.09, 0)" xlink:href="#b"/><linearGradient id="ca" x1="493.23" y1="409.61" x2="469.44" y2="409.61" gradientTransform="matrix(-1, 0, 0, 1, 522.09, 0)" xlink:href="#b"/><linearGradient id="cb" x1="493.23" y1="416.85" x2="469.44" y2="416.85" gradientTransform="matrix(-1, 0, 0, 1, 522.09, 0)" xlink:href="#b"/><linearGradient id="cc" x1="493.23" y1="424.1" x2="469.44" y2="424.1" gradientTransform="matrix(-1, 0, 0, 1, 522.09, 0)" xlink:href="#b"/><linearGradient id="cd" x1="493.23" y1="431.34" x2="469.44" y2="431.34" gradientTransform="matrix(-1, 0, 0, 1, 522.09, 0)" xlink:href="#b"/><linearGradient id="ce" x1="497.62" y1="438.58" x2="464.86" y2="438.58" gradientTransform="matrix(-1, 0, 0, 1, 522.09, 0)" xlink:href="#b"/><linearGradient id="cf" x1="493.23" y1="445.83" x2="469.44" y2="445.83" gradientTransform="matrix(-1, 0, 0, 1, 522.09, 0)" xlink:href="#b"/><linearGradient id="cg" x1="493.23" y1="453.07" x2="469.44" y2="453.07" gradientTransform="matrix(-1, 0, 0, 1, 522.09, 0)" xlink:href="#b"/><linearGradient id="ch" x1="493.23" y1="460.31" x2="469.44" y2="460.31" gradientTransform="matrix(-1, 0, 0, 1, 522.09, 0)" xlink:href="#b"/><linearGradient id="ci" x1="493.23" y1="467.56" x2="469.44" y2="467.56" gradientTransform="matrix(-1, 0, 0, 1, 522.09, 0)" xlink:href="#b"/><linearGradient id="cj" x1="497.62" y1="474.8" x2="464.86" y2="474.8" gradientTransform="matrix(-1, 0, 0, 1, 522.09, 0)" xlink:href="#b"/><linearGradient id="ck" x1="497.62" y1="221.51" x2="464.86" y2="221.51" gradientTransform="matrix(-1, 0, 0, 1, 522.09, 0)" xlink:href="#b"/><linearGradient id="cl" x1="493.23" y1="228.75" x2="469.44" y2="228.75" gradientTransform="matrix(-1, 0, 0, 1, 522.09, 0)" xlink:href="#b"/><linearGradient id="cm" x1="493.23" y1="235.99" x2="469.44" y2="235.99" gradientTransform="matrix(-1, 0, 0, 1, 522.09, 0)" xlink:href="#b"/><linearGradient id="cn" x1="493.23" y1="243.24" x2="469.44" y2="243.24" gradientTransform="matrix(-1, 0, 0, 1, 522.09, 0)" xlink:href="#b"/><linearGradient id="co" x1="493.23" y1="250.48" x2="469.44" y2="250.48" gradientTransform="matrix(-1, 0, 0, 1, 522.09, 0)" xlink:href="#b"/><linearGradient id="cp" x1="497.62" y1="257.73" x2="464.86" y2="257.73" gradientTransform="matrix(-1, 0, 0, 1, 522.09, 0)" xlink:href="#b"/><linearGradient id="cq" x1="493.38" y1="264.97" x2="469.59" y2="264.97" gradientTransform="matrix(-1, 0, 0, 1, 522.09, 0)" xlink:href="#b"/><linearGradient id="cr" x1="493.38" y1="272.21" x2="469.59" y2="272.21" gradientTransform="matrix(-1, 0, 0, 1, 522.09, 0)" xlink:href="#b"/><linearGradient id="cs" x1="493.38" y1="279.46" x2="469.59" y2="279.46" gradientTransform="matrix(-1, 0, 0, 1, 522.09, 0)" xlink:href="#b"/><linearGradient id="ct" x1="493.38" y1="286.7" x2="469.59" y2="286.7" gradientTransform="matrix(-1, 0, 0, 1, 522.09, 0)" xlink:href="#b"/><linearGradient id="cu" x1="497.78" y1="293.94" x2="465.01" y2="293.94" gradientTransform="matrix(-1, 0, 0, 1, 522.09, 0)" xlink:href="#b"/><linearGradient id="cv" x1="493.23" y1="301.19" x2="469.44" y2="301.19" gradientTransform="matrix(-1, 0, 0, 1, 522.09, 0)" xlink:href="#b"/><linearGradient id="cw" x1="493.23" y1="308.43" x2="469.44" y2="308.43" gradientTransform="matrix(-1, 0, 0, 1, 522.09, 0)" xlink:href="#b"/><linearGradient id="cx" x1="493.23" y1="315.67" x2="469.44" y2="315.67" gradientTransform="matrix(-1, 0, 0, 1, 522.09, 0)" xlink:href="#b"/><linearGradient id="cy" x1="493.23" y1="322.92" x2="469.44" y2="322.92" gradientTransform="matrix(-1, 0, 0, 1, 522.09, 0)" xlink:href="#b"/><linearGradient id="cz" x1="497.62" y1="330.16" x2="464.86" y2="330.16" gradientTransform="matrix(-1, 0, 0, 1, 522.09, 0)" xlink:href="#b"/><linearGradient id="da" x1="493.23" y1="337.4" x2="469.44" y2="337.4" gradientTransform="matrix(-1, 0, 0, 1, 522.09, 0)" xlink:href="#b"/><linearGradient id="db" x1="493.23" y1="344.65" x2="469.44" y2="344.65" gradientTransform="matrix(-1, 0, 0, 1, 522.09, 0)" xlink:href="#b"/><linearGradient id="dc" x1="493.23" y1="351.89" x2="469.44" y2="351.89" gradientTransform="matrix(-1, 0, 0, 1, 522.09, 0)" xlink:href="#b"/><linearGradient id="dd" x1="493.23" y1="359.13" x2="469.44" y2="359.13" gradientTransform="matrix(-1, 0, 0, 1, 522.09, 0)" xlink:href="#b"/><linearGradient id="de" x1="497.62" y1="366.38" x2="464.86" y2="366.38" gradientTransform="matrix(-1, 0, 0, 1, 522.09, 0)" xlink:href="#b"/><linearGradient id="df" x1="497.62" y1="113.09" x2="464.86" y2="113.09" gradientTransform="matrix(-1, 0, 0, 1, 522.09, 0)" xlink:href="#b"/><linearGradient id="dg" x1="493.23" y1="120.33" x2="469.44" y2="120.33" gradientTransform="matrix(-1, 0, 0, 1, 522.09, 0)" xlink:href="#b"/><linearGradient id="dh" x1="493.23" y1="127.57" x2="469.44" y2="127.57" gradientTransform="matrix(-1, 0, 0, 1, 522.09, 0)" xlink:href="#b"/><linearGradient id="di" x1="493.23" y1="134.82" x2="469.44" y2="134.82" gradientTransform="matrix(-1, 0, 0, 1, 522.09, 0)" xlink:href="#b"/><linearGradient id="dj" x1="493.23" y1="142.06" x2="469.44" y2="142.06" gradientTransform="matrix(-1, 0, 0, 1, 522.09, 0)" xlink:href="#b"/><linearGradient id="dk" x1="497.62" y1="149.3" x2="464.86" y2="149.3" gradientTransform="matrix(-1, 0, 0, 1, 522.09, 0)" xlink:href="#b"/><linearGradient id="dl" x1="493.38" y1="156.55" x2="469.59" y2="156.55" gradientTransform="matrix(-1, 0, 0, 1, 522.09, 0)" xlink:href="#b"/><linearGradient id="dm" x1="493.38" y1="163.79" x2="469.59" y2="163.79" gradientTransform="matrix(-1, 0, 0, 1, 522.09, 0)" xlink:href="#b"/><linearGradient id="dn" x1="493.38" y1="171.03" x2="469.59" y2="171.03" gradientTransform="matrix(-1, 0, 0, 1, 522.09, 0)" xlink:href="#b"/><linearGradient id="do" x1="493.38" y1="178.28" x2="469.59" y2="178.28" gradientTransform="matrix(-1, 0, 0, 1, 522.09, 0)" xlink:href="#b"/><linearGradient id="dp" x1="497.78" y1="185.52" x2="465.01" y2="185.52" gradientTransform="matrix(-1, 0, 0, 1, 522.09, 0)" xlink:href="#b"/><linearGradient id="dq" x1="493.23" y1="192.76" x2="469.44" y2="192.76" gradientTransform="matrix(-1, 0, 0, 1, 522.09, 0)" xlink:href="#b"/><linearGradient id="dr" x1="493.23" y1="200.01" x2="469.44" y2="200.01" gradientTransform="matrix(-1, 0, 0, 1, 522.09, 0)" xlink:href="#b"/><linearGradient id="ds" x1="493.23" y1="207.25" x2="469.44" y2="207.25" gradientTransform="matrix(-1, 0, 0, 1, 522.09, 0)" xlink:href="#b"/><linearGradient id="dt" x1="493.23" y1="214.49" x2="469.44" y2="214.49" gradientTransform="matrix(-1, 0, 0, 1, 522.09, 0)" xlink:href="#b"/><linearGradient id="du" x1="497.62" y1="221.74" x2="464.86" y2="221.74" gradientTransform="matrix(-1, 0, 0, 1, 522.09, 0)" xlink:href="#b"/><linearGradient id="dv" x1="493.23" y1="228.98" x2="469.44" y2="228.98" gradientTransform="matrix(-1, 0, 0, 1, 522.09, 0)" xlink:href="#b"/><linearGradient id="dw" x1="493.23" y1="236.23" x2="469.44" y2="236.23" gradientTransform="matrix(-1, 0, 0, 1, 522.09, 0)" xlink:href="#b"/><linearGradient id="dx" x1="493.23" y1="243.47" x2="469.44" y2="243.47" gradientTransform="matrix(-1, 0, 0, 1, 522.09, 0)" xlink:href="#b"/><linearGradient id="dy" x1="493.23" y1="250.71" x2="469.44" y2="250.71" gradientTransform="matrix(-1, 0, 0, 1, 522.09, 0)" xlink:href="#b"/><linearGradient id="dz" x1="497.62" y1="257.96" x2="464.86" y2="257.96" gradientTransform="matrix(-1, 0, 0, 1, 522.09, 0)" xlink:href="#b"/><clipPath id="ea"><rect x="32.2" y="112.37" width="17.37" height="371.86" transform="translate(81.77 596.6) rotate(-180)" style="fill:none"/></clipPath><linearGradient id="eb" x1="461.18" y1="486.08" x2="501.97" y2="486.08" gradientTransform="matrix(1, 0, 0, -1, -441.06, 972.17)" xlink:href="#bn"/><clipPath id="ec"><path d="M126.37,157.36v-.07c.1-.35,1.77-.91,2.13-1a40.63,40.63,0,0,1,5.61-1.19c28.17-4.5,71.92-2.41,76.14.63l.16.18c-.8,4.85-52.59,7-74.22,4.48C130.55,159.74,126.89,158.79,126.37,157.36Z" style="fill:#a81a16"/></clipPath><clipPath id="ed"><path d="M120.54,156.14a20.53,20.53,0,0,1,.59-4.29l.12-.23.16-.21a16,16,0,0,1,5.37-2.14c18.81-4.73,61.93-5.2,81.16-1.69,5.69,1.12,6.2,1.88,7.21,2.35l.29.44a22,22,0,0,1,.76,4.29C212.39,147.65,124.36,148.77,120.54,156.14Z" style="fill:#d22c20"/></clipPath><clipPath id="ee"><path d="M123.52,149.69c.4-2.38,11.63-74,11.89-75,5.07-15.65,59.05-17,62.86-.54.21,1.05,14.67,74.11,14.67,74.11C199.05,142.46,137.5,143.32,123.52,149.69Z" style="fill:#d22c20"/></clipPath></defs><title>woman-10</title><g style="isolation:isolate"><polygon points="98.24 519.65 85.33 519.65 82.67 464.07 100.9 464.07 98.24 519.65" style="fill:#a2a2a2"/><rect x="82.67" y="448.64" width="18.24" height="7.71" style="fill:#bdbdbd"/><rect x="82.67" y="456.36" width="18.24" height="7.71" style="fill:#696969"/><polygon points="250.9 519.65 238 519.65 235.32 464.07 253.56 464.07 250.9 519.65" style="fill:#a2a2a2"/><rect x="235.32" y="448.64" width="18.24" height="7.71" style="fill:#bdbdbd"/><rect x="235.32" y="456.36" width="18.24" height="7.71" style="fill:#696969"/><rect x="71" y="439.51" width="194" height="12.99" style="fill:#9e6741"/><rect x="14.65" y="125.24" width="308.13" height="9.26" rx="2.8" ry="2.8" style="fill:#8e8e8e"/><path d="M322.73,129.32h-308v-2.06a2.37,2.37,0,0,1,2.59-2h303a2.28,2.28,0,0,1,2.51,2S322.67,129.28,322.73,129.32Z" style="fill:#a8a8a8"/><path d="M258.24,0H234.07a42.15,42.15,0,0,0-42,42v.08h10.38a31.78,31.78,0,0,1,31.67-30.92h24.13a31.78,31.78,0,0,1,31.69,31.69V74.56c0,.1,0,.2,0,.3h10.37V42A42.15,42.15,0,0,0,258.24,0Z" style="fill:#d22c20"/><polygon points="192.47 42.43 191.71 48.03 194.25 50.43 200.81 49.6 202 44.51 201.39 40.74 201.55 39.96 192.99 39.96 192.47 42.43" style="fill:#d22c20"/><path d="M203.21,40h-3.08c0,.34-.06.67-.07,1h-5.72c0-.34,0-.68,0-1h-3.08c0,.34,0,.68,0,1H190v6.88a3.72,3.72,0,0,0,3.73,3.73h6.5A3.71,3.71,0,0,0,204,47.84V41h-.82C203.15,40.63,203.19,40.3,203.21,40Zm-2.32,4.56v3.33a.66.66,0,0,1-.66.66h-6.5a.69.69,0,0,1-.47-.19.66.66,0,0,1-.19-.46V44.05h7.82Z" style="fill:#d22c20"/><rect x="191.3" y="40.02" width="11.84" height="0.97" transform="translate(394.45 81.01) rotate(180)" style="fill:#a81a16"/><rect x="289.84" y="68.47" width="10.64" height="0.89" transform="translate(590.33 137.84) rotate(-180)" style="fill:#a81a16"/><rect x="275.15" y="92.76" width="40.83" height="400.07" transform="translate(591.13 585.59) rotate(-180)" style="fill:#d22c20"/><ellipse cx="295.56" cy="94.09" rx="20.46" ry="21.68" style="fill:#d22c20"/><polygon points="275.39 90.96 315.74 90.83 315.35 89.14 275.74 89.14 275.39 90.96" style="fill:#a81a16"/><rect x="277.75" y="90.95" width="34.39" height="395.99" transform="translate(589.88 577.9) rotate(-180)" style="fill:url(#a)"/><rect x="278.61" y="329.14" width="33.91" height="1.59" style="fill:url(#b)"/><rect x="283.26" y="336.38" width="24.62" height="1.59" style="fill:url(#c)"/><rect x="283.26" y="343.62" width="24.62" height="1.59" style="fill:url(#d)"/><rect x="283.26" y="350.87" width="24.62" height="1.59" style="fill:url(#e)"/><rect x="283.26" y="358.11" width="24.62" height="1.59" style="fill:url(#f)"/><rect x="278.61" y="365.35" width="33.91" height="1.59" style="fill:url(#g)"/><rect x="283.41" y="372.6" width="24.62" height="1.59" style="fill:url(#h)"/><rect x="283.41" y="379.84" width="24.62" height="1.59" style="fill:url(#i)"/><rect x="283.41" y="387.08" width="24.62" height="1.59" style="fill:url(#j)"/><rect x="283.41" y="394.33" width="24.62" height="1.59" style="fill:url(#k)"/><rect x="278.77" y="401.57" width="33.91" height="1.59" style="fill:url(#l)"/><rect x="283.26" y="408.81" width="24.62" height="1.59" style="fill:url(#m)"/><rect x="283.26" y="416.06" width="24.62" height="1.59" style="fill:url(#n)"/><rect x="283.26" y="423.3" width="24.62" height="1.59" style="fill:url(#o)"/><rect x="283.26" y="430.54" width="24.62" height="1.59" style="fill:url(#p)"/><rect x="278.61" y="437.79" width="33.91" height="1.59" style="fill:url(#q)"/><rect x="283.26" y="445.03" width="24.62" height="1.59" style="fill:url(#r)"/><rect x="283.26" y="452.28" width="24.62" height="1.59" style="fill:url(#s)"/><rect x="283.26" y="459.52" width="24.62" height="1.59" style="fill:url(#t)"/><rect x="283.26" y="466.76" width="24.62" height="1.59" style="fill:url(#u)"/><rect x="278.61" y="474.01" width="33.91" height="1.59" style="fill:url(#v)"/><rect x="278.61" y="220.71" width="33.91" height="1.59" style="fill:url(#w)"/><rect x="283.26" y="227.96" width="24.62" height="1.59" style="fill:url(#x)"/><rect x="283.26" y="235.2" width="24.62" height="1.59" style="fill:url(#y)"/><rect x="283.26" y="242.44" width="24.62" height="1.59" style="fill:url(#z)"/><rect x="283.26" y="249.69" width="24.62" height="1.59" style="fill:url(#aa)"/><rect x="278.61" y="256.93" width="33.91" height="1.59" style="fill:url(#ab)"/><rect x="283.41" y="264.17" width="24.62" height="1.59" style="fill:url(#ac)"/><rect x="283.41" y="271.42" width="24.62" height="1.59" style="fill:url(#ad)"/><rect x="283.41" y="278.66" width="24.62" height="1.59" style="fill:url(#ae)"/><rect x="283.41" y="285.9" width="24.62" height="1.59" style="fill:url(#af)"/><rect x="278.77" y="293.15" width="33.91" height="1.59" style="fill:url(#ag)"/><rect x="283.26" y="300.39" width="24.62" height="1.59" style="fill:url(#ah)"/><rect x="283.26" y="307.64" width="24.62" height="1.59" style="fill:url(#ai)"/><rect x="283.26" y="314.88" width="24.62" height="1.59" style="fill:url(#aj)"/><rect x="283.26" y="322.12" width="24.62" height="1.59" style="fill:url(#ak)"/><rect x="278.61" y="329.37" width="33.91" height="1.59" style="fill:url(#al)"/><rect x="283.26" y="336.61" width="24.62" height="1.59" style="fill:url(#am)"/><rect x="283.26" y="343.85" width="24.62" height="1.59" style="fill:url(#an)"/><rect x="283.26" y="351.1" width="24.62" height="1.59" style="fill:url(#ao)"/><rect x="283.26" y="358.34" width="24.62" height="1.59" style="fill:url(#ap)"/><rect x="278.61" y="365.58" width="33.91" height="1.59" style="fill:url(#aq)"/><rect x="278.61" y="112.29" width="33.91" height="1.59" style="fill:url(#ar)"/><rect x="283.26" y="119.53" width="24.62" height="1.59" style="fill:url(#as)"/><rect x="283.26" y="126.78" width="24.62" height="1.59" style="fill:url(#at)"/><rect x="283.26" y="134.02" width="24.62" height="1.59" style="fill:url(#au)"/><rect x="283.26" y="141.26" width="24.62" height="1.59" style="fill:url(#av)"/><rect x="278.61" y="148.51" width="33.91" height="1.59" style="fill:url(#aw)"/><rect x="283.41" y="155.75" width="24.62" height="1.59" style="fill:url(#ax)"/><rect x="283.41" y="163" width="24.62" height="1.59" style="fill:url(#ay)"/><rect x="283.41" y="170.24" width="24.62" height="1.59" style="fill:url(#az)"/><rect x="283.41" y="177.48" width="24.62" height="1.59" style="fill:url(#ba)"/><rect x="278.77" y="184.73" width="33.91" height="1.59" style="fill:url(#bb)"/><rect x="283.26" y="191.97" width="24.62" height="1.59" style="fill:url(#bc)"/><rect x="283.26" y="199.21" width="24.62" height="1.59" style="fill:url(#bd)"/><rect x="283.26" y="206.46" width="24.62" height="1.59" style="fill:url(#be)"/><rect x="283.26" y="213.7" width="24.62" height="1.59" style="fill:url(#bf)"/><rect x="278.61" y="220.94" width="33.91" height="1.59" style="fill:url(#bg)"/><rect x="283.26" y="228.19" width="24.62" height="1.59" style="fill:url(#bh)"/><rect x="283.26" y="235.43" width="24.62" height="1.59" style="fill:url(#bi)"/><rect x="283.26" y="242.67" width="24.62" height="1.59" style="fill:url(#bj)"/><rect x="283.26" y="249.92" width="24.62" height="1.59" style="fill:url(#bk)"/><rect x="278.61" y="257.16" width="33.91" height="1.59" style="fill:url(#bl)"/><path d="M303.89,484.22V107.58c0-5.46-3.79-9.92-8.42-9.92h-.56c-4.63,0-8.41,4.46-8.41,9.92l0,376.64Z" style="fill:#9be0ff"/><g style="clip-path:url(#bm)"><rect x="286.45" y="113.99" width="17.57" height="370.41" style="fill:#fff"/><path d="M109.31,298.94H480.68a0,0,0,0,1,0,0v6.22a0,0,0,0,1,0,0H109.31a0,0,0,0,1,0,0v-6.24A0,0,0,0,1,109.31,298.94Z" transform="translate(-7.05 597.06) rotate(-90)" style="fill:#8e8e8e"/><path d="M294.63,116.38V487.64h-1.39c-.76,0-1.38-1.4-1.38-3.12V119.38c0-1.72,0-3,0-3Z" style="fill:#a8a8a8"/><rect x="286.51" y="113.5" width="17.39" height="2.07" style="fill:#a8a8a8"/><rect x="286.5" y="115.54" width="17.38" height="2.07" style="fill:#8e8e8e"/></g><rect x="271.93" y="487.48" width="47.36" height="11.37" transform="translate(591.22 986.33) rotate(-180)" style="fill:#d22c20"/><path d="M259.3,519.5c.71-15.38,16.73-27.67,36.4-27.67s35.69,12.29,36.41,27.67Z" style="fill:#d22c20"/><rect x="272.19" y="495.46" width="46.57" height="3.19" transform="translate(590.95 994.12) rotate(-180)" style="fill:#a81a16"/><rect x="275.18" y="484.33" width="40.79" height="3.5" style="fill:url(#bn)"/><path d="M77.85,0H102a42.15,42.15,0,0,1,42,42v.08H133.68A31.79,31.79,0,0,0,102,11.19H77.87A31.79,31.79,0,0,0,46.18,42.88V74.56c0,.1,0,.2,0,.3H35.83V42A42.15,42.15,0,0,1,77.85,0Z" style="fill:#d22c20"/><polygon points="143.62 42.43 144.38 48.03 141.85 50.43 135.28 49.6 134.1 44.51 134.7 40.74 134.54 39.96 143.11 39.96 143.62 42.43" style="fill:#d22c20"/><path d="M133,41h-.82v6.87A3.72,3.72,0,0,0,135,51.48a3.63,3.63,0,0,0,.87.1h6.5a3.74,3.74,0,0,0,3.74-3.73V41h-1.28c0-.34,0-.68-.05-1H141.7c0,.34,0,.68.05,1H136c0-.34,0-.67-.07-1h-3.09C132.91,40.3,133,40.63,133,41Zm2.25,3.08H143v3.81a.66.66,0,0,1-.19.46.67.67,0,0,1-.47.19h-6.5a.65.65,0,0,1-.65-.66v-3.8Z" style="fill:#d22c20"/><rect x="132.95" y="40.02" width="11.84" height="0.97" style="fill:#a81a16"/><rect x="35.61" y="68.47" width="10.64" height="0.89" style="fill:#a81a16"/><rect x="20.11" y="92.76" width="40.83" height="400.07" style="fill:#d22c20"/><ellipse cx="40.53" cy="94.09" rx="20.46" ry="21.68" style="fill:#d22c20"/><polygon points="60.71 90.96 20.35 90.83 20.75 89.14 60.35 89.14 60.71 90.96" style="fill:#a81a16"/><rect x="23.96" y="90.95" width="34.39" height="395.99" style="fill:url(#bo)"/><rect x="23.58" y="329.14" width="33.91" height="1.59" style="fill:url(#bp)"/><rect x="28.22" y="336.38" width="24.62" height="1.59" style="fill:url(#bq)"/><rect x="28.22" y="343.62" width="24.62" height="1.59" style="fill:url(#br)"/><rect x="28.22" y="350.87" width="24.62" height="1.59" style="fill:url(#bs)"/><rect x="28.22" y="358.11" width="24.62" height="1.59" style="fill:url(#bt)"/><rect x="23.58" y="365.35" width="33.91" height="1.59" style="fill:url(#bu)"/><rect x="28.07" y="372.6" width="24.62" height="1.59" style="fill:url(#bv)"/><rect x="28.07" y="379.84" width="24.62" height="1.59" style="fill:url(#bw)"/><rect x="28.07" y="387.08" width="24.62" height="1.59" style="fill:url(#bx)"/><rect x="28.07" y="394.33" width="24.62" height="1.59" style="fill:url(#by)"/><rect x="23.42" y="401.57" width="33.91" height="1.59" style="fill:url(#bz)"/><rect x="28.22" y="408.81" width="24.62" height="1.59" style="fill:url(#ca)"/><rect x="28.22" y="416.06" width="24.62" height="1.59" style="fill:url(#cb)"/><rect x="28.22" y="423.3" width="24.62" height="1.59" style="fill:url(#cc)"/><rect x="28.22" y="430.54" width="24.62" height="1.59" style="fill:url(#cd)"/><rect x="23.58" y="437.79" width="33.91" height="1.59" style="fill:url(#ce)"/><rect x="28.22" y="445.03" width="24.62" height="1.59" style="fill:url(#cf)"/><rect x="28.22" y="452.28" width="24.62" height="1.59" style="fill:url(#cg)"/><rect x="28.22" y="459.52" width="24.62" height="1.59" style="fill:url(#ch)"/><rect x="28.22" y="466.76" width="24.62" height="1.59" style="fill:url(#ci)"/><rect x="23.58" y="474.01" width="33.91" height="1.59" style="fill:url(#cj)"/><rect x="23.58" y="220.71" width="33.91" height="1.59" style="fill:url(#ck)"/><rect x="28.22" y="227.96" width="24.62" height="1.59" style="fill:url(#cl)"/><rect x="28.22" y="235.2" width="24.62" height="1.59" style="fill:url(#cm)"/><rect x="28.22" y="242.44" width="24.62" height="1.59" style="fill:url(#cn)"/><rect x="28.22" y="249.69" width="24.62" height="1.59" style="fill:url(#co)"/><rect x="23.58" y="256.93" width="33.91" height="1.59" style="fill:url(#cp)"/><rect x="28.07" y="264.17" width="24.62" height="1.59" style="fill:url(#cq)"/><rect x="28.07" y="271.42" width="24.62" height="1.59" style="fill:url(#cr)"/><rect x="28.07" y="278.66" width="24.62" height="1.59" style="fill:url(#cs)"/><rect x="28.07" y="285.9" width="24.62" height="1.59" style="fill:url(#ct)"/><rect x="23.42" y="293.15" width="33.91" height="1.59" style="fill:url(#cu)"/><rect x="28.22" y="300.39" width="24.62" height="1.59" style="fill:url(#cv)"/><rect x="28.22" y="307.64" width="24.62" height="1.59" style="fill:url(#cw)"/><rect x="28.22" y="314.88" width="24.62" height="1.59" style="fill:url(#cx)"/><rect x="28.22" y="322.12" width="24.62" height="1.59" style="fill:url(#cy)"/><rect x="23.58" y="329.37" width="33.91" height="1.59" style="fill:url(#cz)"/><rect x="28.22" y="336.61" width="24.62" height="1.59" style="fill:url(#da)"/><rect x="28.22" y="343.85" width="24.62" height="1.59" style="fill:url(#db)"/><rect x="28.22" y="351.1" width="24.62" height="1.59" style="fill:url(#dc)"/><rect x="28.22" y="358.34" width="24.62" height="1.59" style="fill:url(#dd)"/><rect x="23.58" y="365.58" width="33.91" height="1.59" style="fill:url(#de)"/><rect x="23.58" y="112.29" width="33.91" height="1.59" style="fill:url(#df)"/><rect x="28.22" y="119.53" width="24.62" height="1.59" style="fill:url(#dg)"/><rect x="28.22" y="126.78" width="24.62" height="1.59" style="fill:url(#dh)"/><rect x="28.22" y="134.02" width="24.62" height="1.59" style="fill:url(#di)"/><rect x="28.22" y="141.26" width="24.62" height="1.59" style="fill:url(#dj)"/><rect x="23.58" y="148.51" width="33.91" height="1.59" style="fill:url(#dk)"/><rect x="28.07" y="155.75" width="24.62" height="1.59" style="fill:url(#dl)"/><rect x="28.07" y="163" width="24.62" height="1.59" style="fill:url(#dm)"/><rect x="28.07" y="170.24" width="24.62" height="1.59" style="fill:url(#dn)"/><rect x="28.07" y="177.48" width="24.62" height="1.59" style="fill:url(#do)"/><rect x="23.42" y="184.73" width="33.91" height="1.59" style="fill:url(#dp)"/><rect x="28.22" y="191.97" width="24.62" height="1.59" style="fill:url(#dq)"/><rect x="28.22" y="199.21" width="24.62" height="1.59" style="fill:url(#dr)"/><rect x="28.22" y="206.46" width="24.62" height="1.59" style="fill:url(#ds)"/><rect x="28.22" y="213.7" width="24.62" height="1.59" style="fill:url(#dt)"/><rect x="23.58" y="220.94" width="33.91" height="1.59" style="fill:url(#du)"/><rect x="28.22" y="228.19" width="24.62" height="1.59" style="fill:url(#dv)"/><rect x="28.22" y="235.43" width="24.62" height="1.59" style="fill:url(#dw)"/><rect x="28.22" y="242.67" width="24.62" height="1.59" style="fill:url(#dx)"/><rect x="28.22" y="249.92" width="24.62" height="1.59" style="fill:url(#dy)"/><rect x="23.58" y="257.16" width="33.91" height="1.59" style="fill:url(#dz)"/><path d="M32.2,484.22V107.58c0-5.46,3.79-9.92,8.42-9.92h.56c4.63,0,8.42,4.46,8.42,9.92l0,376.64Z" style="fill:#9be0ff"/><g style="clip-path:url(#ea)"><rect x="32.08" y="112.99" width="17.57" height="370.41" transform="translate(81.72 596.39) rotate(-180)" style="fill:#fff"/><path d="M-144.6,297.94H226.78a0,0,0,0,1,0,0v6.22a0,0,0,0,1,0,0H-144.6a0,0,0,0,1,0,0v-6.24A0,0,0,0,1-144.6,297.94Z" transform="translate(-259.97 342.15) rotate(-90)" style="fill:#8e8e8e"/><path d="M41.46,115.38V486.64h1.39c.77,0,1.39-1.4,1.39-3.12V118.38c0-1.72,0-3,0-3Z" style="fill:#a8a8a8"/><rect x="32.2" y="112.5" width="17.39" height="2.07" transform="translate(81.79 227.07) rotate(-180)" style="fill:#a8a8a8"/><rect x="32.21" y="114.54" width="17.38" height="2.07" transform="translate(81.8 231.16) rotate(-180)" style="fill:#8e8e8e"/></g><rect x="16.8" y="487.48" width="47.36" height="11.37" style="fill:#d22c20"/><path d="M76.79,519.5c-.71-15.38-16.73-27.67-36.4-27.67S4.7,504.12,4,519.5Z" style="fill:#d22c20"/><rect x="17.33" y="495.46" width="46.57" height="3.19" style="fill:#a81a16"/><rect x="20.12" y="484.33" width="40.79" height="3.5" transform="translate(81.04 972.17) rotate(-180)" style="fill:url(#eb)"/><path d="M125.1,158.44l0-.16,0-.16c.23-.51.61-.7,1.15-1l.38-.09v.1l-.25.15v.07c2.63,6.51,71.55,4,82.22,0,1.66-.7,1.6-1,1.81-1.41h0l.39.08a1.64,1.64,0,0,1,.84.8l0,.16c-.22,1.22-3.21,1.93-4.35,2.22-21.51,5-66.46,3.08-76.09,1.48C129.35,160.33,125.7,159.67,125.1,158.44Z" style="fill:#e26d6d"/><path d="M126.37,157.36v-.07c.1-.35,1.77-.91,2.13-1a40.63,40.63,0,0,1,5.61-1.19c28.17-4.5,71.92-2.41,76.14.63l.16.18c-.8,4.85-52.59,7-74.22,4.48C130.55,159.74,126.89,158.79,126.37,157.36Z" style="fill:#a81a16"/><g style="clip-path:url(#ec)"><path d="M153.87,163.24l-.25-19.59-35.33,13S145.38,166.84,153.87,163.24Z" style="fill:#a81a16;opacity:0.30000000000000004;mix-blend-mode:multiply"/><path d="M189.57,148.42l1.18,16.28s22.87-2,23-7.67S189.57,148.42,189.57,148.42Z" style="fill:#a81a16;opacity:0.30000000000000004;mix-blend-mode:multiply"/></g><path d="M121.64,157.92a.75.75,0,0,1,0-.36c.39-1.35,4.06-2.52,9.75-3.42,23.35-3.71,80.6-3.46,83.79,1.83l.05.17v.18l-.05.18.09.07-.27.34c-5.89,3.78-29,5.08-35.89,5.25,2.14-.16,31.92-1.39,32.61-5.2l0-.16a1.64,1.64,0,0,0-.84-.8l-.39-.08h0l-.3-.23c-13.23-4.91-74.22-3.12-83,1.15a2.55,2.55,0,0,1-.84.29c-.66.35-.95.54-1.15,1l0,.16,0,.16c.49,1,2.91,1.59,4.92,2,1.75.35,4,.55,6.24.81-1.66-.09-3.82-.29-3.9-.3C130,160.81,122.61,159.61,121.64,157.92Z" style="fill:#ff433e"/><path d="M126,162.63s-2.51,28.86-.38,32.82,4.07,5.75,4.46-1.26,4.64-19.06,4.84-9.35-.78,34,3.48,35.24,4.07-3.05,3.49-14,2.32-25.17,2.13-16.9,1.93,16,3.48,11.68-.19-7.73,1-12.58,5.81-9,5.42,4-1.16,25.72,2.13,26.25,3.1-2,2.9-10.42,2.33-15.47,2.13-6.48-1.55,23.92,1.55,24.28,2.71-1.08,1.74-7.2-1.74-15.28-1-17.08,4.25-7.55,4.64,9.35,2.52,17.44,4.45,15.11-2.71-10.79-1.35-22.84,4.45-22.83,4.26-8.63-.78,21.4,1.74,21.76,4.26-.36,3.68-7.2-.78-23.37,1.16-22.29,1,10.25,1.94,16.54,3.29,9.17,4.06,4.32-3.1-16.55-1.74-20,6-5.22,6.39,6.47-.39,20.86,2.13,21.76,4.84-.36,4.06-7-3.87-20.67-1.93-22.83,3.1-3.78,4.07,10.43,3.87,16.54,4.83,11.33-2.32-19.24-1.74-21,4.65-6.65,5.42,13.13-2.32,25.71,3.87,25.35c2.82-.17,1.17-5.76.58-15.47s-2.14-51.59-4.27-54.11c-1.14-1.35-15.21-2.4-32.06-2.76a378.81,378.81,0,0,0-42.31,2C124.49,156.31,126.22,157.24,126,162.63Z" style="fill:#87c9d8;opacity:0.85"/><path d="M128.62,163.5S130,207,132.36,210.37s5.16,6.24,4.65-5.75-2.84-34.76,1-37.4,5.16-4.55,5.94,3.6,4.38,12.22,4.9,5.27,4.39-16.78,4.65-4.31,8,26.13,8,16.06-3.1-15.11-2.07-19.9S171.34,154,171.6,164.1s-3.62,41.24,1.54,42,6.72-6.47,5.17-13.67-1.81-25.65-1-29.48,7.22-6,6.71.71-.52,12.23,1.8,12.47,3.1-.24,2.84-4.79-1-13.67,0-13.91,12.14-2.16,11.88,2.4-4.91,27.57-1.55,30.45,5.68,3.35,5.42-4.32-.26-23.25-.52-25.65-7.61-5.16-24.65-6.12S135.59,154.39,128.62,163.5Z" style="fill:#9ad8e8;opacity:0.79"/><path d="M189.66,196.71s-5.67,28-.77,30.44,8-6.71,6.2-15.82S190.18,192.39,189.66,196.71Z" style="fill:#9ad8e8"/><path d="M209.8,187.6s-3.87,16.3-.77,18,6.45.24,4.64-7.91S210.57,183.52,209.8,187.6Z" style="fill:#9ad8e8"/><path d="M146.56,192.87s-3.1,9.83-1,12,4.13.24,3.36-4.56S147.07,190.48,146.56,192.87Z" style="fill:#9ad8e8"/><path d="M118.94,211.81s-5.94,18.46-.78,18.7,5.68-5.51,4.13-11.27S119.19,209.41,118.94,211.81Z" style="fill:#9ad8e8"/><path d="M116.1,186.64s-3.1,9.83-1,10.55,4.13-1.44,3.36-5.52S116.1,184,116.1,186.64Z" style="fill:#9ad8e8"/><path d="M121.64,157.92a2.65,2.65,0,0,0,1,.8l-.61-.3a2.26,2.26,0,0,1-1.46-2.28c3.82-7.37,91.85-8.5,95.66-1.48a2,2,0,0,1-.79,1.89l-.46.36.18-.41.05-.18v-.18l-.05-.17c-4-6.57-91.52-5.37-93.54,1.59A.75.75,0,0,0,121.64,157.92Z" style="fill:#f23b36"/><path d="M121.41,151.41a3.52,3.52,0,0,0-.28.44,1.92,1.92,0,0,1,.25-.6c2.74-4.07,24.78-9.13,46.75-9.54s43.92,3.86,47,8a3.21,3.21,0,0,1,.33.74,5.43,5.43,0,0,0-.34-.56c-1-.48-1.63-1.33-8.18-2.53-20.13-3.38-63.06-2.71-81,2.11A15.13,15.13,0,0,0,121.41,151.41Z" style="fill:#a81a16"/><path d="M121.41,151.41a3.52,3.52,0,0,0-.28.44,1.92,1.92,0,0,1,.25-.6c5.48-8.14,87.56-9.86,93.78-1.5a3.21,3.21,0,0,1,.33.74,5.43,5.43,0,0,0-.34-.56c-1-.48-1.63-1.33-8.18-2.53-20.13-3.38-63.06-2.71-81,2.11A15.13,15.13,0,0,0,121.41,151.41Z" style="fill:#d22c20"/><path d="M197.71,72.34v.14a11,11,0,0,0-2.1-2.76C185.77,60.87,163,61,150,64.65c-9.18,2.76-11.73,5.81-13.05,7.21a12,12,0,0,0-1.24,2.06,7.74,7.74,0,0,1,1-2.07c9.29-13.1,48.74-14.34,59.57-1.79A13.52,13.52,0,0,1,197.71,72.34Z" style="fill:#a81a16"/><path d="M121.4,151.29l-.19.3a9.11,9.11,0,0,0-.42,1.9c0-.23.15-5.65.25-5.86l.06,0,2.78,0c-.33,2.12-.31,1.88-.36,2.14A4.32,4.32,0,0,0,121.4,151.29Z" style="fill:#a81a16"/><path d="M212.94,148.21s-.43-2.07-.43-2.09l2.76,0,.07,0c.11.39,0-.2.45,5.59a6.72,6.72,0,0,0-.45-1.6l-.19-.17v-.18A7.17,7.17,0,0,0,212.94,148.21Z" style="fill:#a81a16"/><path d="M120.54,156.14a20.53,20.53,0,0,1,.59-4.29l.12-.23.16-.21a16,16,0,0,1,5.37-2.14c18.81-4.73,61.93-5.2,81.16-1.69,5.69,1.12,6.2,1.88,7.21,2.35l.29.44a22,22,0,0,1,.76,4.29C212.39,147.65,124.36,148.77,120.54,156.14Z" style="fill:#d22c20"/><g style="clip-path:url(#ed)"><polygon points="141.51 152.67 142.56 143.99 116.15 150.93 117.78 162.07 141.51 152.67" style="fill:#a81a16"/></g><path d="M123.52,149.69c.4-2.38,11.63-74,11.89-75,5.07-15.65,59.05-17,62.86-.54.21,1.05,14.67,74.11,14.67,74.11C199.05,142.46,137.5,143.32,123.52,149.69Z" style="fill:#d22c20"/><g style="clip-path:url(#ee)"><path d="M146.11,148.06s0-.59.1-1.66c20.24-1.76,46.35-1.42,60.76,1,6.55,1.2,7.15,2,8.18,2.53a5.43,5.43,0,0,1,.34.56c-.05-.27-.34-1.52-.34-1.52-3.11-4.18-25-7.66-47-7.26a199.51,199.51,0,0,0-21.73,1.61c1-16.27,4.18-69,4.15-71.35,0-2.78,5.7-9.38,23.92-10.82s-48.57-5.28-48.57-5.28l-13,104.29Z" style="fill:#a81a16"/></g><rect y="474.17" width="112.67" height="374" style="fill:none"/><path d="M164,370.67c-2.84-4.63-8.78-16-8.78-30.26,0-7.8,10.24-6.87,10.24-6.87s10.24-.93,10.24,6.87c0,14.24-5.93,25.63-8.77,30.26-.88,1.45-1.45,2.25-1.45,2.25l0,0v0S164.9,372.12,164,370.67Z" style="fill:#fff"/><path d="M184.9,343.58a22.71,22.71,0,0,1-4,1.56,46.85,46.85,0,0,1-15.5,1.84A50.25,50.25,0,0,1,153,345.14a19,19,0,0,1-5.18-2.18c.79-1,4-2.81,7.1-4.36,1.81-.9,3.59-1.73,4.87-2.31l1.87-.83a12.78,12.78,0,0,0,.54-3c.41-3.35.86-8.26.86-8.26h8l.31,3.61.69,7.82c.83.37,1.67.78,2.51,1.22,1.66.87,3.27,1.85,4.72,2.79C182.54,341.7,184.9,343.58,184.9,343.58Z" style="fill:#ffceaa"/><path d="M171.38,327.78q-4.59,2.28-9.14,4.65c.41-3.35.86-8.26.86-8.26h8Z" style="fill:#eda672"/><path d="M149,296c-.73,5,.8,19,5.54,24.27s9.69,7.09,13,7.22,10.85-4.26,14.57-10.48c4.5-7.52,4.1-21.8,3.18-27.34S175,279,166,280.42,150.81,283.59,149,296Z" style="fill:#ffceaa"/><path d="M169.51,310.88c-.91-.48-3-.44-4.68-.16a1.45,1.45,0,0,0-.61.19c-.17.12-.11.33,0,.52a6.34,6.34,0,0,0,1.89,1.32,2,2,0,0,0,.86.26,2.16,2.16,0,0,0,1.22-.52C168.75,312.05,169.88,311.41,169.51,310.88Z" style="fill:#eda672"/><path d="M145.2,293.14s2.23-5.06,2.5-5.48a16.59,16.59,0,0,1,3.15-3.63c1.67-1.16,3.13-1.94,3.63-2.83,1.11-2,2.32-1.94,9.31-4h0a4.11,4.11,0,0,1,2.81.4c.32.17,3.75,0,4.9.71.35.2,7.13,2.53,8,3.72.41.56,2.64,2.53,3,2.86.62.61,6.19,4.53,8.33,15.36.82,4.12-3.74,28.9-5,29.41-2,.84-1.31-1.78-3.75-1.19-.74.18-1.54,2.23-2.32,2.21-1.73-.06-1.49-2.21-3-2.09-1,.08-.95,2.1-1.84,2.56-1.28.66-1.79-2.1-3.22-2l-.33-2.64c9.69-4.82,13.79-12.42,14.11-22.75v-.27c-1.94-.49-.93,3-1.38,3.11-.26.05-2-7.95-1.93-8.2-.39-1.49-.17-3.05-2.8-.82-.22.19.85-4.51-1.52-5s-2.28,1.47-3,1.47-2.29-4.19-4.78-4.8-2,1.26-3.32,1.26a5,5,0,0,1-5-4.64,4.27,4.27,0,0,1-3.44,1.75,4.32,4.32,0,0,1-.88-.1c.11.4-1.75,2.28-2,2.73-.89,1.78.08,4.56-.58,4.73s-.86-2.94-2.32-1.43a3.56,3.56,0,0,0-1,1.39c-.46,1.58.54,3.79-.13,4.06s-1.65-3.35-2.15,1.57a20.38,20.38,0,0,0-.09,3.23c1,8.84,4.62,18.16,13.81,22.62l-.17,2.05c-1.07-.19-1.82,3.06-2.8,2.56s-.12-3.87-2.08-3.87c-1.31,0-.24,2.27-2.32,2.39-.78,0-.42-2.53-2-2.59-1.79-.07-.59,2.62-2.68,2.67S142.21,297.07,145.2,293.14Z" style="fill:#c1472b"/><path d="M177.79,304.45a12,12,0,0,0-3.2.9,6.44,6.44,0,0,0-2.24,2.2c-.2.34-.55.35-.64.14-.54-1.08,1.17-2.91,3.06-3.78s4.9-1.18,5.45-.18C180.45,304.14,179.2,304.26,177.79,304.45Z" style="fill:#4c0c0a"/><path d="M178.45,306.58a11.74,11.74,0,0,0-3.31-.24,6.51,6.51,0,0,0-2.86,1.31c-.3.25-.63.15-.64-.09-.14-1.2,2.08-2.33,4.16-2.51s5,.55,5.18,1.67C181.06,307.19,179.84,306.88,178.45,306.58Z" style="fill:#4c0c0a"/><path d="M155.69,304.45a12,12,0,0,1,3.19.9,6.39,6.39,0,0,1,2.25,2.2c.19.34.54.35.63.14.54-1.08-1.16-2.91-3.06-3.78s-4.89-1.18-5.44-.18C153,304.14,154.27,304.26,155.69,304.45Z" style="fill:#4c0c0a"/><path d="M155,306.58a11.74,11.74,0,0,1,3.31-.24,6.41,6.41,0,0,1,2.86,1.31c.3.25.63.15.64-.09.15-1.2-2.08-2.33-4.16-2.51s-5,.55-5.18,1.67C152.42,307.19,153.63,306.88,155,306.58Z" style="fill:#4c0c0a"/><path d="M177.94,298.66a35.71,35.71,0,0,0-6.25-4.83,5.92,5.92,0,0,1,6.25,4.83Z" style="fill:#d5532c"/><path d="M154.26,298.79a35.36,35.36,0,0,1,6.26-4.82,5.94,5.94,0,0,0-6.26,4.82Z" style="fill:#d5532c"/><path d="M162.63,317.38s.41-1.73,1.34-2.2a6.54,6.54,0,0,1,6,.12,3.56,3.56,0,0,1,1.11,2.11Z" style="fill:#aa4c3f"/><path d="M162.24,321.18s0,2,.85,2.78,1.74,1.15,3.77,1.18a5.85,5.85,0,0,0,3.89-1.07c.76-.76.76-3.1.76-3.1Z" style="fill:#aa4c3f"/><path d="M170.93,322.84a6,6,0,0,1-4,1.12c-2.23,0-3.51-.54-4.27-1.39-.47-.53-.45-1.82-.33-3.15a6,6,0,0,1,.84-3.12,2.11,2.11,0,0,1,.46-.44,1.59,1.59,0,0,1,.67-.29c1-.16,1.27.21,2.63.21s1.64-.37,2.63-.21a1.65,1.65,0,0,1,.51.18,1.7,1.7,0,0,1,.57.54,6.83,6.83,0,0,1,.8,3.09C171.56,320.87,171.64,322.22,170.93,322.84Z" style="fill:#4c0c0a"/><path d="M163.61,322.73a3.77,3.77,0,0,1,2.6-1.5,4.52,4.52,0,0,1,3.1.67c.37.26.69.62.6,1a20.68,20.68,0,0,1-5.88.34c-.2,0-.44-.07-.5-.22A.32.32,0,0,1,163.61,322.73Z" style="fill:#b2543f"/><path d="M170.61,316.29a.58.58,0,0,1-.17.18,2.43,2.43,0,0,1-1,.44A16.87,16.87,0,0,1,165,317a3.69,3.69,0,0,1-1.66-.57.64.64,0,0,1-.15-.13,1.68,1.68,0,0,1,.32-.33l.08-.06.06-.05,0,0,.05,0a1.4,1.4,0,0,1,.58-.24c1-.16,1.27.21,2.63.21s1.64-.37,2.63-.21a1.65,1.65,0,0,1,.51.18l.08.05h0l.14.1,0,0A1.87,1.87,0,0,1,170.61,316.29Z" style="fill:#fff"/><path d="M170.93,322.84c-.76.72-2,1.12-4,1.12-2.23,0-3.55-.5-4.27-1.39a2.09,2.09,0,0,1,.22-.2.57.57,0,0,1,.13-.08.69.69,0,0,1,.29-.12,2.15,2.15,0,0,1,1.11.16,10.42,10.42,0,0,0,5.26,0,1.19,1.19,0,0,1,.91,0l.14.11a.5.5,0,0,1,.08.12A2.69,2.69,0,0,1,170.93,322.84Z" style="fill:#fff"/><path d="M185.24,303.06h-1.46c0-.24,0-.48,0-.75v-.68l-.64-.28h0c-.36-.15-.66-.25-1-.36l-1-.28a19.33,19.33,0,0,0-6-.56l-1,.1c-.34,0-.68.13-1,.19a9.06,9.06,0,0,0-1.94.72,8.06,8.06,0,0,0-1.73,1.16,6.59,6.59,0,0,0-1.36,1.63l-.07.14h-2.34l-.08-.14a6.56,6.56,0,0,0-1.35-1.63,8.06,8.06,0,0,0-1.73-1.16,9.06,9.06,0,0,0-1.94-.72c-.34-.06-.68-.16-1-.19l-1-.1a19.66,19.66,0,0,0-6,.56l-1,.28c-.33.11-.63.21-1,.36h0l-.64.28v.68c0,.27,0,.51,0,.75h-1.62a.56.56,0,0,0-.56.56v.54a.56.56,0,0,0,.56.56h1.62a.59.59,0,0,0,.26-.07q.07.35.18.69a9.26,9.26,0,0,0,.57,1.43,8.51,8.51,0,0,0,.83,1.34,7.17,7.17,0,0,0,1.15,1.12,3.34,3.34,0,0,0,.66.45,6.85,6.85,0,0,0,.71.37,7.44,7.44,0,0,0,1.51.44,6.47,6.47,0,0,0,1.51.13h.59l.17,0,.68-.05c.45,0,1-.13,1.45-.2a10.23,10.23,0,0,0,1.42-.37,8.35,8.35,0,0,0,1.39-.58,5.43,5.43,0,0,0,2.24-2.17,3.65,3.65,0,0,0,.3-.76,2,2,0,0,0,.08-.44v-.67h2.28V306a2.85,2.85,0,0,0,.09.44,3.65,3.65,0,0,0,.3.76,5.43,5.43,0,0,0,2.24,2.17,8.35,8.35,0,0,0,1.39.58,10.23,10.23,0,0,0,1.42.37c.48.07,1,.18,1.45.2l.68.05.17,0h.59a6.47,6.47,0,0,0,1.51-.13,7.44,7.44,0,0,0,1.51-.44,6.85,6.85,0,0,0,.71-.37,3.66,3.66,0,0,0,.66-.45,7.17,7.17,0,0,0,1.15-1.12,8.51,8.51,0,0,0,.83-1.34,8.32,8.32,0,0,0,.56-1.43c.07-.21.13-.43.18-.64l.11,0h1.62a.56.56,0,0,0,.56-.56v-.54A.56.56,0,0,0,185.24,303.06Zm-20.73,2.56a1.72,1.72,0,0,1-.29,1,4,4,0,0,1-1.72,1.5,7.26,7.26,0,0,1-1.16.42,12.39,12.39,0,0,1-1.24.27c-.43,0-.8.1-1.27.11l-.69,0h-.3l-.31,0a5.26,5.26,0,0,1-1.2-.16,4.47,4.47,0,0,1-1.1-.38,2.6,2.6,0,0,1-.49-.28,2.19,2.19,0,0,1-.46-.34,5.45,5.45,0,0,1-.77-.82,7.17,7.17,0,0,1-.56-1,6.29,6.29,0,0,1-.39-1.13,8.17,8.17,0,0,1-.22-1.2c0-.16,0-.33,0-.5l.12-.05.84-.3a17.16,17.16,0,0,1,1.74-.47,17.38,17.38,0,0,1,1.78-.29,17.64,17.64,0,0,1,1.8-.09,6.51,6.51,0,0,1,.89,0,6.3,6.3,0,0,1,.86.1,7.9,7.9,0,0,1,1.66.48,7.1,7.1,0,0,1,1.48.87,5.3,5.3,0,0,1,1.07,1.1Zm17-2.05a8.17,8.17,0,0,1-.22,1.2,7,7,0,0,1-.95,2.15,5,5,0,0,1-.78.82,1.9,1.9,0,0,1-.45.34,2.6,2.6,0,0,1-.49.28,4.47,4.47,0,0,1-1.1.38,5.26,5.26,0,0,1-1.2.16l-.31,0h-.3l-.69,0c-.47,0-.84-.08-1.27-.11a12.39,12.39,0,0,1-1.24-.27,7.26,7.26,0,0,1-1.16-.42,4,4,0,0,1-1.73-1.5,1.8,1.8,0,0,1-.29-1l0-1.17a5.3,5.3,0,0,1,1.07-1.1,7.1,7.1,0,0,1,1.48-.87,7.9,7.9,0,0,1,1.66-.48,6.3,6.3,0,0,1,.86-.1,6.45,6.45,0,0,1,.89,0,17.64,17.64,0,0,1,1.8.09,17.38,17.38,0,0,1,1.78.29,17.16,17.16,0,0,1,1.74.47l.84.3.12.05C181.57,303.24,181.56,303.41,181.54,303.57Z" style="fill:#b53116"/><path d="M137.13,384.14l-.28.26A1.18,1.18,0,0,1,137.13,384.14Z" style="fill:#754559;opacity:0.4;mix-blend-mode:multiply"/><path d="M138.53,413c-1.91,5.36-2.2,14.08-2.2,14.08.18,3.76,2.44,11.52,12.2,13.66L147,429.9a57.8,57.8,0,0,1,16.79-2.5l.36,12.68c.76,0,5.78-.51,7-.45l.53-11.88c3.84-.18,12.11-.42,16,1.52,0,0-1.43,10.45-1.49,10.51l3.69-.12a12.68,12.68,0,0,0,9.05-12.44s-.24-8.75-3.1-14.59c-1.12-2.3-.59-1.57-3.69-9.05-6.06-3.73-12.92-6.28-24.88-6.28s-18.81,3.05-24.89,7.35C139.47,411.74,140.43,407.63,138.53,413Z" style="fill:#3b2d3c"/><path d="M189,428.87c0,1.9-10.05,2.32-22.15,2.32s-21.48.83-21.48-1.07,9.65-3.68,21.75-3.68S189,427,189,428.87Z" style="fill:#2c222d"/><path d="M171.87,491.46l-.9-31,.66-52.73a6.34,6.34,0,0,1,6.42-6.26c3.51,0,10.61,4.25,10.73,10.09a150.36,150.36,0,0,1-1.91,23c-1.19,7.38-8.12,50.37-7.86,57.16A12.82,12.82,0,0,1,171.87,491.46Z" style="fill:#ffceaa"/><path d="M163.77,491.46l.46-31-.65-52.73a6.44,6.44,0,0,0-6.38-6.42c-3.5,0-10.63,1.79-12.6,5,0,0,.36,4.64,1.07,14.65.58,8,8.2,53,8.22,53,.65,6.25,3.27,10.65,2.62,17.33C156.51,491.34,159.07,492.53,163.77,491.46Z" style="fill:#ffceaa"/><path d="M187.89,427.22l-.42,3c-2.68-.74-12.62-1.19-16.14-.89l-.17-3.45Z" style="fill:#7f5d41"/><path d="M146.57,429.3l.23,1.94c2.68-.75,13.58-2,17.09-1.72v-3.14Z" style="fill:#7f5d41"/><path d="M138.53,413c-1.91,5.36-2.2,14.08-2.2,14.08.18,3.76,2.44,11.52,12.2,13.66L147,429.9a58.32,58.32,0,0,1,16.88-2.21h7.33c3.84-.18,12.55-.36,16.43,1.58,0,0-1.43,10.45-1.49,10.51l3.69-.12a12.68,12.68,0,0,0,9.05-12.44s-.24-8.75-3.1-14.59c-1.12-2.3-.59-1.57-3.69-9.05-6.06-3.73-12.92-6.28-24.88-6.28s-18.81,3.05-24.89,7.35C139.47,411.74,140.43,407.63,138.53,413Z" style="fill:#3b2d3c"/><polygon points="167.19 337.12 167.19 363.73 155.5 336.82 167.19 337.12" style="fill:#d8e2ef"/><polygon points="167.19 334.04 167.19 337.12 163.11 343.77 155.33 338.2 160.46 334.04 167.19 334.04" style="fill:#fff"/><polygon points="167.19 337.12 167.19 363.73 179.07 336.82 167.19 337.12" style="fill:#d8e2ef"/><polygon points="167.19 334.04 167.19 337.12 171.27 343.77 179.05 338.2 173.92 334.04 167.19 334.04" style="fill:#fff"/><path d="M167.19,363.73V407s.77,8.77-.08,8.77-28.58-3-28.58-3,10-22.06,9.47-28.89-1-11.52-1-11.52-3.74-3-4.24-11.07c-.43-7-2.86-15.28.82-19.11a8.83,8.83,0,0,1,7.83-2.92Z" style="fill:#d9a155"/><path d="M147.89,371.08s3.28,2.07,8.83,1.46,8.34-2.41,7.79-2.76-5.66.91-10.41.35S144.35,368.31,147.89,371.08Z" style="fill:#ba823a"/><path d="M167.19,363.73V407s.13,8.68.36,8.68c.86,0,28.3-2.91,28.3-2.91s-8.41-22-8.29-28.8c.09-5,.18-11.52.18-11.52s4.73-6.79,4.73-14.91,1.08-9.5-.62-13.4-8.89-4.88-8.89-4.88Z" style="fill:#d9a155"/><path d="M186.5,371.08s-3.29,2.07-8.84,1.46-8.34-2.41-7.79-2.76,5.66.91,10.41.35S190,368.31,186.5,371.08Z" style="fill:#ba823a"/><path d="M143.59,342.2a14.39,14.39,0,0,0-2.68,7.08,119.46,119.46,0,0,1,2.17,14.53c.14,1.6,1.52,7.19,3.93,8.53l.58,6.92s2.49,7.17,5.23,6.94,2.74-8,5.48-8.34-.72,3.93,2.62,4.05,1-8.93,4.59-9,.53,14.7,5.41,14.23,1.43-8.46,4.28-9.29,1.43,5.6,4.05,5.24.84-7.5,3.58-7.62,4.73,8.51,4.73,8.51.12-11.45.18-11.52c2.68-3.39,5.23-11.44,4.33-14s.82-10.46-.22-14.27-8.89-4.88-8.89-4.88l-15.73,25-15.81-25S146.15,338.57,143.59,342.2Z" style="fill:#c98f49"/><polygon points="167.19 363.67 167.19 400.4 166.88 400.74 166.88 363.31 167.19 363.67" style="fill:#b0772b"/><polygon points="167.19 363.67 167.19 400.4 167.5 400.74 167.5 363.31 167.19 363.67" style="fill:#b0772b"/><path d="M146.57,427.93l21-1-.38-24.44a65.73,65.73,0,0,0-10-1.2c-3.5,0-11.08,1.44-12.6,5s-1.52,5.09-.8,15.09C143.91,423,146,424.15,146.57,427.93Z" style="fill:#3b2d3c"/><path d="M187.47,426.86c.78-6.31,3-11.37,1.52-16.08-2.59-8.39-7.43-9.27-10.94-9.31a97.37,97.37,0,0,0-10.85,1l.18,23.1Z" style="fill:#3b2d3c"/><path d="M174.06,491.93a13.09,13.09,0,0,0,3.84,0Z" style="fill:#3b2d3c"/><polygon points="92.66 305.42 92.62 309.9 96.1 313.56 92.66 305.42" style="fill:#facaa7"/><path d="M96.25,301.9a3.56,3.56,0,1,0,3.52,3.59A3.55,3.55,0,0,0,96.25,301.9Z" style="fill:#facaa7"/><path d="M96.2,306.35a3.56,3.56,0,1,0,3.52,3.59A3.55,3.55,0,0,0,96.2,306.35Z" style="fill:#facaa7"/><path d="M98.54,306.37a3.56,3.56,0,1,0,3.52,3.59A3.56,3.56,0,0,0,98.54,306.37Z" style="fill:#facaa7"/><path d="M99.33,307.18a1.41,1.41,0,1,0,2.79.05l0-3.66a1.4,1.4,0,1,0-2.78-.05Z" style="fill:#facaa7"/><path d="M99.3,310.11a1.41,1.41,0,1,0,2.32,1.55l2.27-3.41a1.4,1.4,0,1,0-2.32-1.54Z" style="fill:#facaa7"/><path d="M101.37,307.39a1.4,1.4,0,1,0,2.61-1l-.63-1.7a1.4,1.4,0,1,0-2.61,1Z" style="fill:#facaa7"/><rect x="96.72" y="301.43" width="3.56" height="4.54" transform="translate(-206.15 399.24) rotate(-89.44)" style="fill:#facaa7"/><rect x="93.4" y="308.27" width="8.06" height="8" transform="translate(-215.69 406.96) rotate(-89.5)" style="fill:#facaa7"/><path d="M93.44,315.68a33.58,33.58,0,0,0,.5,8.39c.15.7.29,1.41.49,2.1l.15.53c0,.17.1.35.16.52l.34,1,.19.51.2.51.21.51c.07.17.15.34.22.5.15.34.3.67.46,1l.51,1c.17.33.37.64.55,1s.37.64.58.95l.61.92.65.89c.21.3.45.58.68.87s.46.57.7.84.49.55.73.82l.76.79a36.77,36.77,0,0,0,3.24,2.89,40.11,40.11,0,0,0,3.48,2.49c1.19.76,2.41,1.48,3.64,2.13s2.49,1.25,3.76,1.8a69.28,69.28,0,0,0,7.71,2.82c1.3.39,2.6.75,3.91,1.08s2.62.63,3.93.9c2.64.54,5.28,1,7.95,1.3l.91-14.8c-2.3,0-4.61-.14-6.89-.35-1.14-.1-2.28-.23-3.41-.38s-2.25-.33-3.36-.53a48.39,48.39,0,0,1-12.53-3.94,24,24,0,0,1-9.28-7.56l-.42-.61c-.13-.2-.25-.41-.38-.62l-.19-.32-.17-.32-.17-.33a3.24,3.24,0,0,1-.17-.32l-.31-.67a2.17,2.17,0,0,1-.15-.35l-.14-.34c-.2-.46-.34-.94-.51-1.41a25,25,0,0,1-1.07-6.15Z" style="fill:#d9a155"/><path d="M147.29,347.47a8.48,8.48,0,0,0-2-5.21,6.66,6.66,0,0,0-4.58-2.32,6.73,6.73,0,0,0-4.86,1.74c-1.35,1.2-.13,2.7-.41,4.73s1.12,3.34,2.32,4.82-.07,3.36,2,3.49a7.2,7.2,0,0,0,5.44-2A6.86,6.86,0,0,0,147.29,347.47Z" style="fill:#c98f49"/><path d="M127,338.66s.57,4.49,1.56,5.83a5.26,5.26,0,0,0,3.93,2.05c1.51.18,1,2.7,2.32,3,1.69.45,3.79,5,3.79,5l1.19.11,4.13-5.2-3.26-9.57Z" style="fill:#c98f49"/><polygon points="244.34 300.13 241.99 303.95 237.09 305.19 244.34 300.13" style="fill:#facaa7"/><path d="M243.18,295.25a3.55,3.55,0,1,1-4.89,1.16A3.55,3.55,0,0,1,243.18,295.25Z" style="fill:#facaa7"/><path d="M240.85,299a3.55,3.55,0,1,1-4.89,1.16A3.55,3.55,0,0,1,240.85,299Z" style="fill:#facaa7"/><path d="M238.86,297.8A3.56,3.56,0,1,1,234,299,3.55,3.55,0,0,1,238.86,297.8Z" style="fill:#facaa7"/><path d="M237.76,298.07a1.4,1.4,0,1,1-2.38-1.45l1.91-3.12a1.4,1.4,0,1,1,2.37,1.44Z" style="fill:#facaa7"/><path d="M236.22,300.56a1.4,1.4,0,1,1-2.78.08l-.1-4.09a1.4,1.4,0,1,1,2.78-.08Z" style="fill:#facaa7"/><path d="M235.92,297.16a1.5,1.5,0,0,1-2.1-.15,1.49,1.49,0,0,1,.41-2.06l1.44-1.1a1.4,1.4,0,1,1,1.69,2.21Z" style="fill:#facaa7"/><rect x="238.54" y="293.3" width="3.56" height="4.54" transform="translate(-137.38 345.11) rotate(-58.36)" style="fill:#facaa7"/><rect x="232.63" y="299.39" width="8.06" height="8" transform="translate(-145.82 345.32) rotate(-58.3)" style="fill:#facaa7"/><path d="M231.27,304.54a110.89,110.89,0,0,1-9,11.77c-1.64,1.85-3.29,3.68-5,5.45-.85.89-1.74,1.75-2.61,2.62-.44.44-.9.86-1.34,1.29s-.89.86-1.35,1.27l-1.37,1.26c-.45.42-.92.82-1.38,1.24-.91.83-1.86,1.63-2.8,2.44-1.89,1.59-3.8,3.16-5.75,4.69-3.89,3-7.9,5.95-12,8.65L195,358.45c5.12-2.5,10.71-8.4,14.49-12.1q2.83-2.78,5.56-5.66c.9-1,1.8-1.93,2.68-2.93.44-.49.89-1,1.32-1.48l1.31-1.49c.44-.5.86-1,1.28-1.52s.86-1,1.27-1.53c.84-1,1.68-2.05,2.49-3.11,1.64-2.08,3.19-4.24,4.72-6.42a120.15,120.15,0,0,0,8.23-13.73Z" style="fill:#d9a155"/><path d="M192.14,361.62a18.86,18.86,0,0,0,.29-2.45,12.59,12.59,0,0,0,4.68-1.9c1.15-1.89-.15-4.28-.67-6.22s-1.65-2.28-3.53-3.32,2.65-6.24.75-5.77-6.16,3.06-7.21,4.79a7.38,7.38,0,0,0-.84,5.6C186.06,354.23,190.38,360.39,192.14,361.62Z" style="fill:#c98f49"/><path d="M149.88,352.2c3.58,1.19,4.77,1.52,4.77,1.52s-1.14,1.76-2.11,3.31,6.65,2.88,14.54,6.46c0,0-7.4-14.29-10.07-26.82-.65-3.06-7.49,2.15-8.35,5.29C147.65,345.63,147.94,351.56,149.88,352.2Z" style="fill:#b0772b"/><path d="M184.42,352.63c-3.56,1.11-4.74,1.41-4.74,1.41s1.1,1.76,2,3.3-6.62,2.73-14.46,6.13c0,0,7.55-14,10.41-26.29.69-3,7.35,2.25,8.14,5.36C186.73,346.18,186.34,352,184.42,352.63Z" style="fill:#b0772b"/><path d="M190,439.45l3.17-4.91a40.82,40.82,0,0,0,5.6-5.24s-.95,4.41-3.09,6.67A16.47,16.47,0,0,1,190,439.45Z" style="fill:#2c222d"/><path d="M145.44,439.81l-3.1-4.56a53.88,53.88,0,0,1-5.67-5.59s1,4.4,3.09,6.67A16.47,16.47,0,0,0,145.44,439.81Z" style="fill:#2c222d"/><path d="M163.85,491.27s1.65,8.76,1.65,11.18.25,8-.22,8.42-2.35.37-5.17.37h-5.73s-1.26-.13-1.66-2.83a9.8,9.8,0,0,1,.15-3.33c1.2-6.05,3.39-12.9,3.39-12.9Z" style="fill:#b53116"/><path d="M156.55,490.84c-.39,3.31-1.9,8.6-2.2,10.84-.34,2.58,1.37,2.48,1.37,2.48h7.6c2.26,0,.88-10.44.45-13.32Z" style="fill:#ffceaa"/><path d="M171.77,491.67s-1.62,8.67-1.62,11.07-.26,7.87.21,8.33,2.33.36,5.12.36h5.67s1.25-.13,1.64-2.8a9.9,9.9,0,0,0-.14-3.3c-1.2-6-3.37-12.76-3.37-12.76Z" style="fill:#b53116"/><path d="M179,491.24h-7.14c-.43,2.85-1.8,13.18.44,13.18h7.52s1.69.11,1.36-2.45C180.88,499.75,179.39,494.52,179,491.24Z" style="fill:#ffceaa"/><path d="M143,365.4c.73,4.53,1.45-.09,1.16-4.1-.15-2.05-.45-4.7.06-4.93s.6,3.06,1.05,3.06c.89,0,1.06-2.62,1-3.48,0-1.1.11-14.74-1.07-15.34,0,0-.63.27-.85.4C143.83,341.32,140.09,347.75,143,365.4Z" style="fill:#9ad8e8"/><path d="M188.56,372.54a57,57,0,0,0,0,13.82c.89,8.17,3,16.2,1.78,18.43s-3,1-3.42-4.16-.59-14.72-.89-12.49.45,10-.89,10.41-1.19-3.42-.9-8.77,2.38-17.39,3.13-18.43S188.71,370,188.56,372.54Z" style="fill:#9ad8e8"/><path d="M162.05,277.3c-.74.17-4.61.69-1,1.8s12.93,3.53,12.48,6.5,1.35,5.11,1.75,3-.17-3.25,1.15-2.07,4,3.52,3.43,6.26.65,4.6,1.58,2.61,5.09-4.91,4.12-1.63-.06,6.14.94,4-.19-4.29,2.28-3.8c.6.12-.08-1.67-1.72-3.75s-2.74-6.9-10.23-10C168.62,276.79,164.6,276.75,162.05,277.3Z" style="fill:#9ad8e8;opacity:0.6900000000000001"/><path d="M167.45,276.91s8.89-10.84,4.88-14.81S167.94,271.15,167.45,276.91Z" style="fill:#fff"/><path d="M200,302.17s9.92,0,10.3-3.94S203.35,299.87,200,302.17Z" style="fill:#9ad8e8;opacity:0.79"/><path d="M153.37,276.46s-3.56-9.26-7.4-8.17S150,274.15,153.37,276.46Z" style="fill:#fff"/><path d="M194.11,288.55s20-23.81,17.83-13.55-10.78,10.92-13.13,13c1.07,1.6,0,3.47,4.6,2s25.92-1.11,20.2,1.78-20.88,3.08-25.86,1.54S189.41,289.15,194.11,288.55Z" style="fill:#9ad8e8;opacity:0.79"/><path d="M198.1,286.84s10.19-12.15,10.67-8.3S200.45,284.81,198.1,286.84Z" style="fill:#fff"/><path d="M206.64,292.7s15.44-1.52,10.85-.07S206.64,292.7,206.64,292.7Z" style="fill:#fff"/><path d="M206.13,284s-14.85,6.22-.21,5.24S177.18,295.48,206.13,284Z" style="fill:#9ad8e8;opacity:0.79"/><path d="M142.44,295.07c-2.72-1-10.53-4.32-19.93-3.12-5.13.65-4.11,5.29,4.07,4.69s14.37.35,13.84,3-22.82-1.88-27.41,3c-3,3.43,1.13,5.51,7.33,3s15.6-3.71,18.8-2.38,8.82,3.11,7.11-2.2S142.44,295.07,142.44,295.07Z" style="fill:#9ad8e8;opacity:0.79"/><path d="M122.27,301.37s-9.67,6-3.36,4.33S122.27,301.37,122.27,301.37Z" style="fill:#fff"/><path d="M134.43,296s-8.34-4.16-12.45-2.33C120.43,295.16,131,296,134.43,296Z" style="fill:#fff"/><path d="M185.92,271s9.43-21.61,13.44-17.34-7.36,10.49-4.73,14.06,4.54-1.88,11.21-7.5,19.43-11.15,13.3-4.72S199.26,270,195.78,275.07s-10.69,9.88-11.55,6.51S185.92,271,185.92,271Z" style="fill:#9ad8e8;opacity:0.79"/><path d="M189.6,265.7s5.6-10.69,9.76-12.09C199.36,253.61,194.46,262.92,189.6,265.7Z" style="fill:#fff"/><path d="M199.81,267.45S213.74,254,221,253C221.48,253.41,201.9,266.75,199.81,267.45Z" style="fill:#fff"/><path d="M186,272.6s-1.68,12,9.06.74C194.88,274.19,183.11,288.72,186,272.6Z" style="fill:#87c9d8;opacity:0.85"/><path d="M191.32,303.37s29.42,13,10.25,8.9c-9.09-2-9.1-6.17-10.17-7-.91.57-1.78.27-1.33,2.09.51,2.07-1.2,14.1-2.37,9.87-.94-3.37.12-10,1.12-12S191.23,301.68,191.32,303.37Z" style="fill:#9ad8e8;opacity:0.79"/><path d="M194,305.55s14.89,6.54,8.76,6.55C198,312.11,195.62,306.62,194,305.55Z" style="fill:#fff"/><path d="M188.72,309.28s-.29,8.34-.74,5.44A12.27,12.27,0,0,1,188.72,309.28Z" style="fill:#fff"/><path d="M192.57,306.4s-2.89-5.92-3.18,0C189,314,188.14,296.69,192.57,306.4Z" style="fill:#87c9d8;opacity:0.85"/><path d="M219.41,278.27s-10.9,5-5.64,6.36S226.47,276.45,219.41,278.27Z" style="fill:#9ad8e8"/><path d="M216,282.12s.54-3.12,4.63-2.88C221.32,279.92,216,282.12,216,282.12Z" style="fill:#fff"/><path d="M212.42,283.08s.57,4.5,8.9-1.13C221.32,282,216.17,285.65,212.42,283.08Z" style="fill:#87c9d8;opacity:0.85"/><path d="M184.28,258.45s-8,8.91-2.62,8.08S190,254,184.28,258.45Z" style="fill:#87c9d8;opacity:0.85"/><path d="M182.67,263.35s-.75-3.08,3.1-4.49C186.69,259.19,182.67,263.35,182.67,263.35Z" style="fill:#fff"/><path d="M179.33,266.21s2.33,3.91,7.72-4.59C187.05,261.62,183.81,267.07,179.33,266.21Z" style="fill:#87c9d8;opacity:0.85"/><path d="M213.89,305.15s-7.52-1.8-5.4,1S218.21,307,213.89,305.15Z" style="fill:#9ad8e8"/><path d="M210.61,305.75s1.52-1.38,3.5.37C214.21,306.75,210.61,305.75,210.61,305.75Z" style="fill:#fff"/><path d="M208,304.73s-1.5,2.52,5,3C212.94,307.7,208.85,307.54,208,304.73Z" style="fill:#9ad8e8"/><path d="M226,310.29s-10.6-2.55-7.61,1.41S232,312.94,226,310.29Z" style="fill:#9ad8e8;opacity:0.79"/><path d="M217.45,311s2.13-1.93,4.93.53C222.51,312.38,217.45,311,217.45,311Z" style="fill:#fff"/><path d="M217.59,310.17s-2.11,3.55,7,4.18C224.61,314.35,218.85,314.12,217.59,310.17Z" style="fill:#87c9d8;opacity:0.85"/><path d="M140.24,408.34s-5.56,9.87-4.65,12.79,2.41,2.12,3.21-2.14S141.32,406.36,140.24,408.34Z" style="fill:#9ad8e8"/><path d="M184.78,340.82s.05,8,2,6.27S184.89,338.3,184.78,340.82Z" style="fill:#9ad8e8"/></g></svg>