<svg xmlns="http://www.w3.org/2000/svg" xmlns:xlink="http://www.w3.org/1999/xlink" viewBox="0 0 332.11 848.17"><defs><clipPath id="a"><path d="M210.87,101.44v.06c-.1.36-1.77.89-2.14,1a38.89,38.89,0,0,1-5.63,1.11c-28.22,4.14-71.94,1.48-76.12-1.62l-.16-.18c.87-4.83,52.68-6.34,74.28-3.51C206.71,99,210.37,100,210.87,101.44Z" style="fill:#a81a16"/></clipPath><linearGradient id="b" x1="-182.75" y1="288.95" x2="-148.36" y2="288.95" gradientTransform="matrix(1, 0, 0, -1, 460.49, 577.9)" gradientUnits="userSpaceOnUse"><stop offset="0.01" stop-color="#d22c20"/><stop offset="0.31" stop-color="#e7342e"/><stop offset="0.51" stop-color="#ef3733"/><stop offset="0.72" stop-color="#e6332d"/><stop offset="1" stop-color="#d22c20"/></linearGradient><linearGradient id="c" x1="311.62" y1="329.93" x2="278.86" y2="329.93" gradientUnits="userSpaceOnUse"><stop offset="0.05" stop-color="#d3d2d2"/><stop offset="0.37" stop-color="#9a9a9c"/><stop offset="0.64" stop-color="#9a9a9c"/><stop offset="1" stop-color="#d1d6d5"/></linearGradient><linearGradient id="d" x1="307.23" y1="337.17" x2="283.44" y2="337.17" xlink:href="#c"/><linearGradient id="e" x1="307.23" y1="344.42" x2="283.44" y2="344.42" xlink:href="#c"/><linearGradient id="f" x1="307.23" y1="351.66" x2="283.44" y2="351.66" xlink:href="#c"/><linearGradient id="g" x1="307.23" y1="358.9" x2="283.44" y2="358.9" xlink:href="#c"/><linearGradient id="h" x1="311.62" y1="366.15" x2="278.86" y2="366.15" xlink:href="#c"/><linearGradient id="i" x1="307.38" y1="373.39" x2="283.59" y2="373.39" xlink:href="#c"/><linearGradient id="j" x1="307.38" y1="380.63" x2="283.59" y2="380.63" xlink:href="#c"/><linearGradient id="k" x1="307.38" y1="387.88" x2="283.59" y2="387.88" xlink:href="#c"/><linearGradient id="l" x1="307.38" y1="395.12" x2="283.59" y2="395.12" xlink:href="#c"/><linearGradient id="m" x1="311.78" y1="402.37" x2="279.01" y2="402.37" xlink:href="#c"/><linearGradient id="n" x1="307.23" y1="409.61" x2="283.44" y2="409.61" xlink:href="#c"/><linearGradient id="o" x1="307.23" y1="416.85" x2="283.44" y2="416.85" xlink:href="#c"/><linearGradient id="p" x1="307.23" y1="424.1" x2="283.44" y2="424.1" xlink:href="#c"/><linearGradient id="q" x1="307.23" y1="431.34" x2="283.44" y2="431.34" xlink:href="#c"/><linearGradient id="r" x1="311.62" y1="438.58" x2="278.86" y2="438.58" xlink:href="#c"/><linearGradient id="s" x1="307.23" y1="445.83" x2="283.44" y2="445.83" xlink:href="#c"/><linearGradient id="t" x1="307.23" y1="453.07" x2="283.44" y2="453.07" xlink:href="#c"/><linearGradient id="u" x1="307.23" y1="460.31" x2="283.44" y2="460.31" xlink:href="#c"/><linearGradient id="v" x1="307.23" y1="467.56" x2="283.44" y2="467.56" xlink:href="#c"/><linearGradient id="w" x1="311.62" y1="474.8" x2="278.86" y2="474.8" xlink:href="#c"/><linearGradient id="x" x1="311.62" y1="221.51" x2="278.86" y2="221.51" xlink:href="#c"/><linearGradient id="y" x1="307.23" y1="228.75" x2="283.44" y2="228.75" xlink:href="#c"/><linearGradient id="z" x1="307.23" y1="235.99" x2="283.44" y2="235.99" xlink:href="#c"/><linearGradient id="aa" x1="307.23" y1="243.24" x2="283.44" y2="243.24" xlink:href="#c"/><linearGradient id="ab" x1="307.23" y1="250.48" x2="283.44" y2="250.48" xlink:href="#c"/><linearGradient id="ac" x1="311.62" y1="257.73" x2="278.86" y2="257.73" xlink:href="#c"/><linearGradient id="ad" x1="307.38" y1="264.97" x2="283.59" y2="264.97" xlink:href="#c"/><linearGradient id="ae" x1="307.38" y1="272.21" x2="283.59" y2="272.21" xlink:href="#c"/><linearGradient id="af" x1="307.38" y1="279.46" x2="283.59" y2="279.46" xlink:href="#c"/><linearGradient id="ag" x1="307.38" y1="286.7" x2="283.59" y2="286.7" xlink:href="#c"/><linearGradient id="ah" x1="311.78" y1="293.94" x2="279.01" y2="293.94" xlink:href="#c"/><linearGradient id="ai" x1="307.23" y1="301.19" x2="283.44" y2="301.19" xlink:href="#c"/><linearGradient id="aj" x1="307.23" y1="308.43" x2="283.44" y2="308.43" xlink:href="#c"/><linearGradient id="ak" x1="307.23" y1="315.67" x2="283.44" y2="315.67" xlink:href="#c"/><linearGradient id="al" x1="307.23" y1="322.92" x2="283.44" y2="322.92" xlink:href="#c"/><linearGradient id="am" x1="311.62" y1="330.16" x2="278.86" y2="330.16" xlink:href="#c"/><linearGradient id="an" x1="307.23" y1="337.4" x2="283.44" y2="337.4" xlink:href="#c"/><linearGradient id="ao" x1="307.23" y1="344.65" x2="283.44" y2="344.65" xlink:href="#c"/><linearGradient id="ap" x1="307.23" y1="351.89" x2="283.44" y2="351.89" xlink:href="#c"/><linearGradient id="aq" x1="307.23" y1="359.13" x2="283.44" y2="359.13" xlink:href="#c"/><linearGradient id="ar" x1="311.62" y1="366.38" x2="278.86" y2="366.38" xlink:href="#c"/><linearGradient id="as" x1="311.62" y1="113.09" x2="278.86" y2="113.09" xlink:href="#c"/><linearGradient id="at" x1="307.23" y1="120.33" x2="283.44" y2="120.33" xlink:href="#c"/><linearGradient id="au" x1="307.23" y1="127.57" x2="283.44" y2="127.57" xlink:href="#c"/><linearGradient id="av" x1="307.23" y1="134.82" x2="283.44" y2="134.82" xlink:href="#c"/><linearGradient id="aw" x1="307.23" y1="142.06" x2="283.44" y2="142.06" xlink:href="#c"/><linearGradient id="ax" x1="311.62" y1="149.3" x2="278.86" y2="149.3" xlink:href="#c"/><linearGradient id="ay" x1="307.38" y1="156.55" x2="283.59" y2="156.55" xlink:href="#c"/><linearGradient id="az" x1="307.38" y1="163.79" x2="283.59" y2="163.79" xlink:href="#c"/><linearGradient id="ba" x1="307.38" y1="171.03" x2="283.59" y2="171.03" xlink:href="#c"/><linearGradient id="bb" x1="307.38" y1="178.28" x2="283.59" y2="178.28" xlink:href="#c"/><linearGradient id="bc" x1="311.78" y1="185.52" x2="279.01" y2="185.52" xlink:href="#c"/><linearGradient id="bd" x1="307.23" y1="192.76" x2="283.44" y2="192.76" xlink:href="#c"/><linearGradient id="be" x1="307.23" y1="200.01" x2="283.44" y2="200.01" xlink:href="#c"/><linearGradient id="bf" x1="307.23" y1="207.25" x2="283.44" y2="207.25" xlink:href="#c"/><linearGradient id="bg" x1="307.23" y1="214.49" x2="283.44" y2="214.49" xlink:href="#c"/><linearGradient id="bh" x1="311.62" y1="221.74" x2="278.86" y2="221.74" xlink:href="#c"/><linearGradient id="bi" x1="307.23" y1="228.98" x2="283.44" y2="228.98" xlink:href="#c"/><linearGradient id="bj" x1="307.23" y1="236.23" x2="283.44" y2="236.23" xlink:href="#c"/><linearGradient id="bk" x1="307.23" y1="243.47" x2="283.44" y2="243.47" xlink:href="#c"/><linearGradient id="bl" x1="307.23" y1="250.71" x2="283.44" y2="250.71" xlink:href="#c"/><linearGradient id="bm" x1="311.62" y1="257.96" x2="278.86" y2="257.96" xlink:href="#c"/><clipPath id="bn"><rect x="286.53" y="112.37" width="17.37" height="371.86" style="fill:none"/></clipPath><linearGradient id="bo" x1="275.18" y1="486.08" x2="315.97" y2="486.08" gradientUnits="userSpaceOnUse"><stop offset="0.01" stop-color="#d22c20"/><stop offset="0.26" stop-color="#e2322b"/><stop offset="0.51" stop-color="#ef3733"/><stop offset="1" stop-color="#d22c20"/></linearGradient><linearGradient id="bp" x1="-368.75" y1="288.95" x2="-334.36" y2="288.95" gradientTransform="translate(392.71)" xlink:href="#b"/><linearGradient id="bq" x1="497.62" y1="329.93" x2="464.86" y2="329.93" gradientTransform="matrix(-1, 0, 0, 1, 522.09, 0)" xlink:href="#c"/><linearGradient id="br" x1="493.23" y1="337.17" x2="469.44" y2="337.17" gradientTransform="matrix(-1, 0, 0, 1, 522.09, 0)" xlink:href="#c"/><linearGradient id="bs" x1="493.23" y1="344.42" x2="469.44" y2="344.42" gradientTransform="matrix(-1, 0, 0, 1, 522.09, 0)" xlink:href="#c"/><linearGradient id="bt" x1="493.23" y1="351.66" x2="469.44" y2="351.66" gradientTransform="matrix(-1, 0, 0, 1, 522.09, 0)" xlink:href="#c"/><linearGradient id="bu" x1="493.23" y1="358.9" x2="469.44" y2="358.9" gradientTransform="matrix(-1, 0, 0, 1, 522.09, 0)" xlink:href="#c"/><linearGradient id="bv" x1="497.62" y1="366.15" x2="464.86" y2="366.15" gradientTransform="matrix(-1, 0, 0, 1, 522.09, 0)" xlink:href="#c"/><linearGradient id="bw" x1="493.38" y1="373.39" x2="469.59" y2="373.39" gradientTransform="matrix(-1, 0, 0, 1, 522.09, 0)" xlink:href="#c"/><linearGradient id="bx" x1="493.38" y1="380.63" x2="469.59" y2="380.63" gradientTransform="matrix(-1, 0, 0, 1, 522.09, 0)" xlink:href="#c"/><linearGradient id="by" x1="493.38" y1="387.88" x2="469.59" y2="387.88" gradientTransform="matrix(-1, 0, 0, 1, 522.09, 0)" xlink:href="#c"/><linearGradient id="bz" x1="493.38" y1="395.12" x2="469.59" y2="395.12" gradientTransform="matrix(-1, 0, 0, 1, 522.09, 0)" xlink:href="#c"/><linearGradient id="ca" x1="497.78" y1="402.37" x2="465.01" y2="402.37" gradientTransform="matrix(-1, 0, 0, 1, 522.09, 0)" xlink:href="#c"/><linearGradient id="cb" x1="493.23" y1="409.61" x2="469.44" y2="409.61" gradientTransform="matrix(-1, 0, 0, 1, 522.09, 0)" xlink:href="#c"/><linearGradient id="cc" x1="493.23" y1="416.85" x2="469.44" y2="416.85" gradientTransform="matrix(-1, 0, 0, 1, 522.09, 0)" xlink:href="#c"/><linearGradient id="cd" x1="493.23" y1="424.1" x2="469.44" y2="424.1" gradientTransform="matrix(-1, 0, 0, 1, 522.09, 0)" xlink:href="#c"/><linearGradient id="ce" x1="493.23" y1="431.34" x2="469.44" y2="431.34" gradientTransform="matrix(-1, 0, 0, 1, 522.09, 0)" xlink:href="#c"/><linearGradient id="cf" x1="497.62" y1="438.58" x2="464.86" y2="438.58" gradientTransform="matrix(-1, 0, 0, 1, 522.09, 0)" xlink:href="#c"/><linearGradient id="cg" x1="493.23" y1="445.83" x2="469.44" y2="445.83" gradientTransform="matrix(-1, 0, 0, 1, 522.09, 0)" xlink:href="#c"/><linearGradient id="ch" x1="493.23" y1="453.07" x2="469.44" y2="453.07" gradientTransform="matrix(-1, 0, 0, 1, 522.09, 0)" xlink:href="#c"/><linearGradient id="ci" x1="493.23" y1="460.31" x2="469.44" y2="460.31" gradientTransform="matrix(-1, 0, 0, 1, 522.09, 0)" xlink:href="#c"/><linearGradient id="cj" x1="493.23" y1="467.56" x2="469.44" y2="467.56" gradientTransform="matrix(-1, 0, 0, 1, 522.09, 0)" xlink:href="#c"/><linearGradient id="ck" x1="497.62" y1="474.8" x2="464.86" y2="474.8" gradientTransform="matrix(-1, 0, 0, 1, 522.09, 0)" xlink:href="#c"/><linearGradient id="cl" x1="497.62" y1="221.51" x2="464.86" y2="221.51" gradientTransform="matrix(-1, 0, 0, 1, 522.09, 0)" xlink:href="#c"/><linearGradient id="cm" x1="493.23" y1="228.75" x2="469.44" y2="228.75" gradientTransform="matrix(-1, 0, 0, 1, 522.09, 0)" xlink:href="#c"/><linearGradient id="cn" x1="493.23" y1="235.99" x2="469.44" y2="235.99" gradientTransform="matrix(-1, 0, 0, 1, 522.09, 0)" xlink:href="#c"/><linearGradient id="co" x1="493.23" y1="243.24" x2="469.44" y2="243.24" gradientTransform="matrix(-1, 0, 0, 1, 522.09, 0)" xlink:href="#c"/><linearGradient id="cp" x1="493.23" y1="250.48" x2="469.44" y2="250.48" gradientTransform="matrix(-1, 0, 0, 1, 522.09, 0)" xlink:href="#c"/><linearGradient id="cq" x1="497.62" y1="257.73" x2="464.86" y2="257.73" gradientTransform="matrix(-1, 0, 0, 1, 522.09, 0)" xlink:href="#c"/><linearGradient id="cr" x1="493.38" y1="264.97" x2="469.59" y2="264.97" gradientTransform="matrix(-1, 0, 0, 1, 522.09, 0)" xlink:href="#c"/><linearGradient id="cs" x1="493.38" y1="272.21" x2="469.59" y2="272.21" gradientTransform="matrix(-1, 0, 0, 1, 522.09, 0)" xlink:href="#c"/><linearGradient id="ct" x1="493.38" y1="279.46" x2="469.59" y2="279.46" gradientTransform="matrix(-1, 0, 0, 1, 522.09, 0)" xlink:href="#c"/><linearGradient id="cu" x1="493.38" y1="286.7" x2="469.59" y2="286.7" gradientTransform="matrix(-1, 0, 0, 1, 522.09, 0)" xlink:href="#c"/><linearGradient id="cv" x1="497.78" y1="293.94" x2="465.01" y2="293.94" gradientTransform="matrix(-1, 0, 0, 1, 522.09, 0)" xlink:href="#c"/><linearGradient id="cw" x1="493.23" y1="301.19" x2="469.44" y2="301.19" gradientTransform="matrix(-1, 0, 0, 1, 522.09, 0)" xlink:href="#c"/><linearGradient id="cx" x1="493.23" y1="308.43" x2="469.44" y2="308.43" gradientTransform="matrix(-1, 0, 0, 1, 522.09, 0)" xlink:href="#c"/><linearGradient id="cy" x1="493.23" y1="315.67" x2="469.44" y2="315.67" gradientTransform="matrix(-1, 0, 0, 1, 522.09, 0)" xlink:href="#c"/><linearGradient id="cz" x1="493.23" y1="322.92" x2="469.44" y2="322.92" gradientTransform="matrix(-1, 0, 0, 1, 522.09, 0)" xlink:href="#c"/><linearGradient id="da" x1="497.62" y1="330.16" x2="464.86" y2="330.16" gradientTransform="matrix(-1, 0, 0, 1, 522.09, 0)" xlink:href="#c"/><linearGradient id="db" x1="493.23" y1="337.4" x2="469.44" y2="337.4" gradientTransform="matrix(-1, 0, 0, 1, 522.09, 0)" xlink:href="#c"/><linearGradient id="dc" x1="493.23" y1="344.65" x2="469.44" y2="344.65" gradientTransform="matrix(-1, 0, 0, 1, 522.09, 0)" xlink:href="#c"/><linearGradient id="dd" x1="493.23" y1="351.89" x2="469.44" y2="351.89" gradientTransform="matrix(-1, 0, 0, 1, 522.09, 0)" xlink:href="#c"/><linearGradient id="de" x1="493.23" y1="359.13" x2="469.44" y2="359.13" gradientTransform="matrix(-1, 0, 0, 1, 522.09, 0)" xlink:href="#c"/><linearGradient id="df" x1="497.62" y1="366.38" x2="464.86" y2="366.38" gradientTransform="matrix(-1, 0, 0, 1, 522.09, 0)" xlink:href="#c"/><linearGradient id="dg" x1="497.62" y1="113.09" x2="464.86" y2="113.09" gradientTransform="matrix(-1, 0, 0, 1, 522.09, 0)" xlink:href="#c"/><linearGradient id="dh" x1="493.23" y1="120.33" x2="469.44" y2="120.33" gradientTransform="matrix(-1, 0, 0, 1, 522.09, 0)" xlink:href="#c"/><linearGradient id="di" x1="493.23" y1="127.57" x2="469.44" y2="127.57" gradientTransform="matrix(-1, 0, 0, 1, 522.09, 0)" xlink:href="#c"/><linearGradient id="dj" x1="493.23" y1="134.82" x2="469.44" y2="134.82" gradientTransform="matrix(-1, 0, 0, 1, 522.09, 0)" xlink:href="#c"/><linearGradient id="dk" x1="493.23" y1="142.06" x2="469.44" y2="142.06" gradientTransform="matrix(-1, 0, 0, 1, 522.09, 0)" xlink:href="#c"/><linearGradient id="dl" x1="497.62" y1="149.3" x2="464.86" y2="149.3" gradientTransform="matrix(-1, 0, 0, 1, 522.09, 0)" xlink:href="#c"/><linearGradient id="dm" x1="493.38" y1="156.55" x2="469.59" y2="156.55" gradientTransform="matrix(-1, 0, 0, 1, 522.09, 0)" xlink:href="#c"/><linearGradient id="dn" x1="493.38" y1="163.79" x2="469.59" y2="163.79" gradientTransform="matrix(-1, 0, 0, 1, 522.09, 0)" xlink:href="#c"/><linearGradient id="do" x1="493.38" y1="171.03" x2="469.59" y2="171.03" gradientTransform="matrix(-1, 0, 0, 1, 522.09, 0)" xlink:href="#c"/><linearGradient id="dp" x1="493.38" y1="178.28" x2="469.59" y2="178.28" gradientTransform="matrix(-1, 0, 0, 1, 522.09, 0)" xlink:href="#c"/><linearGradient id="dq" x1="497.78" y1="185.52" x2="465.01" y2="185.52" gradientTransform="matrix(-1, 0, 0, 1, 522.09, 0)" xlink:href="#c"/><linearGradient id="dr" x1="493.23" y1="192.76" x2="469.44" y2="192.76" gradientTransform="matrix(-1, 0, 0, 1, 522.09, 0)" xlink:href="#c"/><linearGradient id="ds" x1="493.23" y1="200.01" x2="469.44" y2="200.01" gradientTransform="matrix(-1, 0, 0, 1, 522.09, 0)" xlink:href="#c"/><linearGradient id="dt" x1="493.23" y1="207.25" x2="469.44" y2="207.25" gradientTransform="matrix(-1, 0, 0, 1, 522.09, 0)" xlink:href="#c"/><linearGradient id="du" x1="493.23" y1="214.49" x2="469.44" y2="214.49" gradientTransform="matrix(-1, 0, 0, 1, 522.09, 0)" xlink:href="#c"/><linearGradient id="dv" x1="497.62" y1="221.74" x2="464.86" y2="221.74" gradientTransform="matrix(-1, 0, 0, 1, 522.09, 0)" xlink:href="#c"/><linearGradient id="dw" x1="493.23" y1="228.98" x2="469.44" y2="228.98" gradientTransform="matrix(-1, 0, 0, 1, 522.09, 0)" xlink:href="#c"/><linearGradient id="dx" x1="493.23" y1="236.23" x2="469.44" y2="236.23" gradientTransform="matrix(-1, 0, 0, 1, 522.09, 0)" xlink:href="#c"/><linearGradient id="dy" x1="493.23" y1="243.47" x2="469.44" y2="243.47" gradientTransform="matrix(-1, 0, 0, 1, 522.09, 0)" xlink:href="#c"/><linearGradient id="dz" x1="493.23" y1="250.71" x2="469.44" y2="250.71" gradientTransform="matrix(-1, 0, 0, 1, 522.09, 0)" xlink:href="#c"/><linearGradient id="ea" x1="497.62" y1="257.96" x2="464.86" y2="257.96" gradientTransform="matrix(-1, 0, 0, 1, 522.09, 0)" xlink:href="#c"/><clipPath id="eb"><rect x="32.2" y="112.37" width="17.37" height="371.86" transform="translate(81.77 596.6) rotate(-180)" style="fill:none"/></clipPath><linearGradient id="ec" x1="461.18" y1="486.08" x2="501.97" y2="486.08" gradientTransform="matrix(1, 0, 0, -1, -441.06, 972.17)" xlink:href="#bo"/></defs><title>woman-5</title><g style="isolation:isolate"><polygon points="98.24 519.65 85.33 519.65 82.67 464.07 100.9 464.07 98.24 519.65" style="fill:#a2a2a2"/><rect x="82.67" y="448.64" width="18.24" height="7.71" style="fill:#bdbdbd"/><rect x="82.67" y="456.36" width="18.24" height="7.71" style="fill:#696969"/><polygon points="250.9 519.65 238 519.65 235.32 464.07 253.56 464.07 250.9 519.65" style="fill:#a2a2a2"/><rect x="235.32" y="448.64" width="18.24" height="7.71" style="fill:#bdbdbd"/><rect x="235.32" y="456.36" width="18.24" height="7.71" style="fill:#696969"/><rect x="71" y="439.51" width="194" height="12.99" style="fill:#9e6741"/><rect x="14.65" y="125.24" width="308.13" height="9.26" rx="2.8" ry="2.8" style="fill:#8e8e8e"/><path d="M322.73,129.32h-308v-2.06a2.37,2.37,0,0,1,2.59-2h303a2.28,2.28,0,0,1,2.51,2S322.67,129.28,322.73,129.32Z" style="fill:#a8a8a8"/><path d="M212.15,100.37l0,.17,0,.15a2.14,2.14,0,0,1-1.17,1l-.38.08,0-.09.24-.16v-.06c-2.55-6.55-71.5-5-82.21-1.06-1.67.69-1.61,1-1.84,1.39h0l-.39-.08a1.66,1.66,0,0,1-.84-.81v-.16c.24-1.22,3.23-1.89,4.37-2.17,21.58-4.7,66.51-2.21,76.11-.48C207.93,98.43,211.56,99.13,212.15,100.37Z" style="fill:#e26d6d"/><path d="M210.87,101.44v.06c-.1.36-1.77.89-2.14,1a38.89,38.89,0,0,1-5.63,1.11c-28.22,4.14-71.94,1.48-76.12-1.62l-.16-.18c.87-4.83,52.68-6.34,74.28-3.51C206.71,99,210.37,100,210.87,101.44Z" style="fill:#a81a16"/><g style="clip-path:url(#a)"><path d="M183.44,95.2v19.59l35.5-12.55S192,91.71,183.44,95.2Z" style="fill:#a81a16;opacity:0.30000000000000004;mix-blend-mode:multiply"/><path d="M147.56,109.56l-1-16.3S123.7,95,123.5,100.63,147.56,109.56,147.56,109.56Z" style="fill:#a81a16;opacity:0.30000000000000004;mix-blend-mode:multiply"/></g><path d="M258.24,0H234.07a42.15,42.15,0,0,0-42,42v.08h10.38a31.78,31.78,0,0,1,31.67-30.92h24.13a31.78,31.78,0,0,1,31.69,31.69V74.56c0,.1,0,.2,0,.3h10.37V42A42.15,42.15,0,0,0,258.24,0Z" style="fill:#d22c20"/><polygon points="192.47 42.43 191.71 48.03 194.25 50.43 200.81 49.6 202 44.51 201.39 40.74 201.55 39.96 192.99 39.96 192.47 42.43" style="fill:#d22c20"/><path d="M203.21,40h-3.08c0,.34-.06.67-.07,1h-5.72c0-.34,0-.68,0-1h-3.08c0,.34,0,.68,0,1H190v6.88a3.72,3.72,0,0,0,3.73,3.73h6.5A3.71,3.71,0,0,0,204,47.84V41h-.82C203.15,40.63,203.19,40.3,203.21,40Zm-2.32,4.56v3.33a.66.66,0,0,1-.66.66h-6.5a.69.69,0,0,1-.47-.19.66.66,0,0,1-.19-.46V44.05h7.82Z" style="fill:#d22c20"/><rect x="191.3" y="40.02" width="11.84" height="0.97" transform="translate(394.45 81.01) rotate(180)" style="fill:#a81a16"/><rect x="289.84" y="68.47" width="10.64" height="0.89" transform="translate(590.33 137.84) rotate(-180)" style="fill:#a81a16"/><rect x="275.15" y="92.76" width="40.83" height="400.07" transform="translate(591.13 585.59) rotate(-180)" style="fill:#d22c20"/><ellipse cx="295.56" cy="94.09" rx="20.46" ry="21.68" style="fill:#d22c20"/><polygon points="275.39 90.96 315.74 90.83 315.35 89.14 275.74 89.14 275.39 90.96" style="fill:#a81a16"/><rect x="277.75" y="90.95" width="34.39" height="395.99" transform="translate(589.88 577.9) rotate(-180)" style="fill:url(#b)"/><rect x="278.61" y="329.14" width="33.91" height="1.59" style="fill:url(#c)"/><rect x="283.26" y="336.38" width="24.62" height="1.59" style="fill:url(#d)"/><rect x="283.26" y="343.62" width="24.62" height="1.59" style="fill:url(#e)"/><rect x="283.26" y="350.87" width="24.62" height="1.59" style="fill:url(#f)"/><rect x="283.26" y="358.11" width="24.62" height="1.59" style="fill:url(#g)"/><rect x="278.61" y="365.35" width="33.91" height="1.59" style="fill:url(#h)"/><rect x="283.41" y="372.6" width="24.62" height="1.59" style="fill:url(#i)"/><rect x="283.41" y="379.84" width="24.62" height="1.59" style="fill:url(#j)"/><rect x="283.41" y="387.08" width="24.62" height="1.59" style="fill:url(#k)"/><rect x="283.41" y="394.33" width="24.62" height="1.59" style="fill:url(#l)"/><rect x="278.77" y="401.57" width="33.91" height="1.59" style="fill:url(#m)"/><rect x="283.26" y="408.81" width="24.62" height="1.59" style="fill:url(#n)"/><rect x="283.26" y="416.06" width="24.62" height="1.59" style="fill:url(#o)"/><rect x="283.26" y="423.3" width="24.62" height="1.59" style="fill:url(#p)"/><rect x="283.26" y="430.54" width="24.62" height="1.59" style="fill:url(#q)"/><rect x="278.61" y="437.79" width="33.91" height="1.59" style="fill:url(#r)"/><rect x="283.26" y="445.03" width="24.62" height="1.59" style="fill:url(#s)"/><rect x="283.26" y="452.28" width="24.62" height="1.59" style="fill:url(#t)"/><rect x="283.26" y="459.52" width="24.62" height="1.59" style="fill:url(#u)"/><rect x="283.26" y="466.76" width="24.62" height="1.59" style="fill:url(#v)"/><rect x="278.61" y="474.01" width="33.91" height="1.59" style="fill:url(#w)"/><rect x="278.61" y="220.71" width="33.91" height="1.59" style="fill:url(#x)"/><rect x="283.26" y="227.96" width="24.62" height="1.59" style="fill:url(#y)"/><rect x="283.26" y="235.2" width="24.62" height="1.59" style="fill:url(#z)"/><rect x="283.26" y="242.44" width="24.62" height="1.59" style="fill:url(#aa)"/><rect x="283.26" y="249.69" width="24.62" height="1.59" style="fill:url(#ab)"/><rect x="278.61" y="256.93" width="33.91" height="1.59" style="fill:url(#ac)"/><rect x="283.41" y="264.17" width="24.62" height="1.59" style="fill:url(#ad)"/><rect x="283.41" y="271.42" width="24.62" height="1.59" style="fill:url(#ae)"/><rect x="283.41" y="278.66" width="24.62" height="1.59" style="fill:url(#af)"/><rect x="283.41" y="285.9" width="24.62" height="1.59" style="fill:url(#ag)"/><rect x="278.77" y="293.15" width="33.91" height="1.59" style="fill:url(#ah)"/><rect x="283.26" y="300.39" width="24.62" height="1.59" style="fill:url(#ai)"/><rect x="283.26" y="307.64" width="24.62" height="1.59" style="fill:url(#aj)"/><rect x="283.26" y="314.88" width="24.62" height="1.59" style="fill:url(#ak)"/><rect x="283.26" y="322.12" width="24.62" height="1.59" style="fill:url(#al)"/><rect x="278.61" y="329.37" width="33.91" height="1.59" style="fill:url(#am)"/><rect x="283.26" y="336.61" width="24.62" height="1.59" style="fill:url(#an)"/><rect x="283.26" y="343.85" width="24.62" height="1.59" style="fill:url(#ao)"/><rect x="283.26" y="351.1" width="24.62" height="1.59" style="fill:url(#ap)"/><rect x="283.26" y="358.34" width="24.62" height="1.59" style="fill:url(#aq)"/><rect x="278.61" y="365.58" width="33.91" height="1.59" style="fill:url(#ar)"/><rect x="278.61" y="112.29" width="33.91" height="1.59" style="fill:url(#as)"/><rect x="283.26" y="119.53" width="24.62" height="1.59" style="fill:url(#at)"/><rect x="283.26" y="126.78" width="24.62" height="1.59" style="fill:url(#au)"/><rect x="283.26" y="134.02" width="24.62" height="1.59" style="fill:url(#av)"/><rect x="283.26" y="141.26" width="24.62" height="1.59" style="fill:url(#aw)"/><rect x="278.61" y="148.51" width="33.91" height="1.59" style="fill:url(#ax)"/><rect x="283.41" y="155.75" width="24.62" height="1.59" style="fill:url(#ay)"/><rect x="283.41" y="163" width="24.62" height="1.59" style="fill:url(#az)"/><rect x="283.41" y="170.24" width="24.62" height="1.59" style="fill:url(#ba)"/><rect x="283.41" y="177.48" width="24.62" height="1.59" style="fill:url(#bb)"/><rect x="278.77" y="184.73" width="33.91" height="1.59" style="fill:url(#bc)"/><rect x="283.26" y="191.97" width="24.62" height="1.59" style="fill:url(#bd)"/><rect x="283.26" y="199.21" width="24.62" height="1.59" style="fill:url(#be)"/><rect x="283.26" y="206.46" width="24.62" height="1.59" style="fill:url(#bf)"/><rect x="283.26" y="213.7" width="24.62" height="1.59" style="fill:url(#bg)"/><rect x="278.61" y="220.94" width="33.91" height="1.59" style="fill:url(#bh)"/><rect x="283.26" y="228.19" width="24.62" height="1.59" style="fill:url(#bi)"/><rect x="283.26" y="235.43" width="24.62" height="1.59" style="fill:url(#bj)"/><rect x="283.26" y="242.67" width="24.62" height="1.59" style="fill:url(#bk)"/><rect x="283.26" y="249.92" width="24.62" height="1.59" style="fill:url(#bl)"/><rect x="278.61" y="257.16" width="33.91" height="1.59" style="fill:url(#bm)"/><path d="M303.89,484.22V107.58c0-5.46-3.79-9.92-8.42-9.92h-.56c-4.63,0-8.41,4.46-8.41,9.92l0,376.64Z" style="fill:#9be0ff"/><g style="clip-path:url(#bn)"><rect x="286.45" y="294.99" width="17.57" height="370.41" style="fill:#fff"/><path d="M109.31,479.94H480.68a0,0,0,0,1,0,0v6.22a0,0,0,0,1,0,0H109.31a0,0,0,0,1,0,0v-6.24A0,0,0,0,1,109.31,479.94Z" transform="translate(-188.05 778.06) rotate(-90)" style="fill:#8e8e8e"/><path d="M294.63,297.38V668.64h-1.39c-.76,0-1.38-1.4-1.38-3.12V300.38c0-1.72,0-3,0-3Z" style="fill:#a8a8a8"/><rect x="286.51" y="294.5" width="17.39" height="2.07" style="fill:#a8a8a8"/><rect x="286.5" y="296.54" width="17.38" height="2.07" style="fill:#8e8e8e"/></g><rect x="271.93" y="487.48" width="47.36" height="11.37" transform="translate(591.22 986.33) rotate(-180)" style="fill:#d22c20"/><path d="M259.3,519.5c.71-15.38,16.73-27.67,36.4-27.67s35.69,12.29,36.41,27.67Z" style="fill:#d22c20"/><rect x="272.19" y="495.46" width="46.57" height="3.19" transform="translate(590.95 994.12) rotate(-180)" style="fill:#a81a16"/><rect x="275.18" y="484.33" width="40.79" height="3.5" style="fill:url(#bo)"/><path d="M77.85,0H102a42.15,42.15,0,0,1,42,42v.08H133.68A31.79,31.79,0,0,0,102,11.19H77.87A31.79,31.79,0,0,0,46.18,42.88V74.56c0,.1,0,.2,0,.3H35.83V42A42.15,42.15,0,0,1,77.85,0Z" style="fill:#d22c20"/><polygon points="143.62 42.43 144.38 48.03 141.85 50.43 135.28 49.6 134.1 44.51 134.7 40.74 134.54 39.96 143.11 39.96 143.62 42.43" style="fill:#d22c20"/><path d="M133,41h-.82v6.87A3.72,3.72,0,0,0,135,51.48a3.63,3.63,0,0,0,.87.1h6.5a3.74,3.74,0,0,0,3.74-3.73V41h-1.28c0-.34,0-.68-.05-1H141.7c0,.34,0,.68.05,1H136c0-.34,0-.67-.07-1h-3.09C132.91,40.3,133,40.63,133,41Zm2.25,3.08H143v3.81a.66.66,0,0,1-.19.46.67.67,0,0,1-.47.19h-6.5a.65.65,0,0,1-.65-.66v-3.8Z" style="fill:#d22c20"/><rect x="132.95" y="40.02" width="11.84" height="0.97" style="fill:#a81a16"/><rect x="35.61" y="68.47" width="10.64" height="0.89" style="fill:#a81a16"/><rect x="20.11" y="92.76" width="40.83" height="400.07" style="fill:#d22c20"/><ellipse cx="40.53" cy="94.09" rx="20.46" ry="21.68" style="fill:#d22c20"/><polygon points="60.71 90.96 20.35 90.83 20.75 89.14 60.35 89.14 60.71 90.96" style="fill:#a81a16"/><rect x="23.96" y="90.95" width="34.39" height="395.99" style="fill:url(#bp)"/><rect x="23.58" y="329.14" width="33.91" height="1.59" style="fill:url(#bq)"/><rect x="28.22" y="336.38" width="24.62" height="1.59" style="fill:url(#br)"/><rect x="28.22" y="343.62" width="24.62" height="1.59" style="fill:url(#bs)"/><rect x="28.22" y="350.87" width="24.62" height="1.59" style="fill:url(#bt)"/><rect x="28.22" y="358.11" width="24.62" height="1.59" style="fill:url(#bu)"/><rect x="23.58" y="365.35" width="33.91" height="1.59" style="fill:url(#bv)"/><rect x="28.07" y="372.6" width="24.62" height="1.59" style="fill:url(#bw)"/><rect x="28.07" y="379.84" width="24.62" height="1.59" style="fill:url(#bx)"/><rect x="28.07" y="387.08" width="24.62" height="1.59" style="fill:url(#by)"/><rect x="28.07" y="394.33" width="24.62" height="1.59" style="fill:url(#bz)"/><rect x="23.42" y="401.57" width="33.91" height="1.59" style="fill:url(#ca)"/><rect x="28.22" y="408.81" width="24.62" height="1.59" style="fill:url(#cb)"/><rect x="28.22" y="416.06" width="24.62" height="1.59" style="fill:url(#cc)"/><rect x="28.22" y="423.3" width="24.62" height="1.59" style="fill:url(#cd)"/><rect x="28.22" y="430.54" width="24.62" height="1.59" style="fill:url(#ce)"/><rect x="23.58" y="437.79" width="33.91" height="1.59" style="fill:url(#cf)"/><rect x="28.22" y="445.03" width="24.62" height="1.59" style="fill:url(#cg)"/><rect x="28.22" y="452.28" width="24.62" height="1.59" style="fill:url(#ch)"/><rect x="28.22" y="459.52" width="24.62" height="1.59" style="fill:url(#ci)"/><rect x="28.22" y="466.76" width="24.62" height="1.59" style="fill:url(#cj)"/><rect x="23.58" y="474.01" width="33.91" height="1.59" style="fill:url(#ck)"/><rect x="23.58" y="220.71" width="33.91" height="1.59" style="fill:url(#cl)"/><rect x="28.22" y="227.96" width="24.62" height="1.59" style="fill:url(#cm)"/><rect x="28.22" y="235.2" width="24.62" height="1.59" style="fill:url(#cn)"/><rect x="28.22" y="242.44" width="24.62" height="1.59" style="fill:url(#co)"/><rect x="28.22" y="249.69" width="24.62" height="1.59" style="fill:url(#cp)"/><rect x="23.58" y="256.93" width="33.91" height="1.59" style="fill:url(#cq)"/><rect x="28.07" y="264.17" width="24.62" height="1.59" style="fill:url(#cr)"/><rect x="28.07" y="271.42" width="24.62" height="1.59" style="fill:url(#cs)"/><rect x="28.07" y="278.66" width="24.62" height="1.59" style="fill:url(#ct)"/><rect x="28.07" y="285.9" width="24.62" height="1.59" style="fill:url(#cu)"/><rect x="23.42" y="293.15" width="33.91" height="1.59" style="fill:url(#cv)"/><rect x="28.22" y="300.39" width="24.62" height="1.59" style="fill:url(#cw)"/><rect x="28.22" y="307.64" width="24.62" height="1.59" style="fill:url(#cx)"/><rect x="28.22" y="314.88" width="24.62" height="1.59" style="fill:url(#cy)"/><rect x="28.22" y="322.12" width="24.62" height="1.59" style="fill:url(#cz)"/><rect x="23.58" y="329.37" width="33.91" height="1.59" style="fill:url(#da)"/><rect x="28.22" y="336.61" width="24.62" height="1.59" style="fill:url(#db)"/><rect x="28.22" y="343.85" width="24.62" height="1.59" style="fill:url(#dc)"/><rect x="28.22" y="351.1" width="24.62" height="1.59" style="fill:url(#dd)"/><rect x="28.22" y="358.34" width="24.62" height="1.59" style="fill:url(#de)"/><rect x="23.58" y="365.58" width="33.91" height="1.59" style="fill:url(#df)"/><rect x="23.58" y="112.29" width="33.91" height="1.59" style="fill:url(#dg)"/><rect x="28.22" y="119.53" width="24.62" height="1.59" style="fill:url(#dh)"/><rect x="28.22" y="126.78" width="24.62" height="1.59" style="fill:url(#di)"/><rect x="28.22" y="134.02" width="24.62" height="1.59" style="fill:url(#dj)"/><rect x="28.22" y="141.26" width="24.62" height="1.59" style="fill:url(#dk)"/><rect x="23.58" y="148.51" width="33.91" height="1.59" style="fill:url(#dl)"/><rect x="28.07" y="155.75" width="24.62" height="1.59" style="fill:url(#dm)"/><rect x="28.07" y="163" width="24.62" height="1.59" style="fill:url(#dn)"/><rect x="28.07" y="170.24" width="24.62" height="1.59" style="fill:url(#do)"/><rect x="28.07" y="177.48" width="24.62" height="1.59" style="fill:url(#dp)"/><rect x="23.42" y="184.73" width="33.91" height="1.59" style="fill:url(#dq)"/><rect x="28.22" y="191.97" width="24.62" height="1.59" style="fill:url(#dr)"/><rect x="28.22" y="199.21" width="24.62" height="1.59" style="fill:url(#ds)"/><rect x="28.22" y="206.46" width="24.62" height="1.59" style="fill:url(#dt)"/><rect x="28.22" y="213.7" width="24.62" height="1.59" style="fill:url(#du)"/><rect x="23.58" y="220.94" width="33.91" height="1.59" style="fill:url(#dv)"/><rect x="28.22" y="228.19" width="24.62" height="1.59" style="fill:url(#dw)"/><rect x="28.22" y="235.43" width="24.62" height="1.59" style="fill:url(#dx)"/><rect x="28.22" y="242.67" width="24.62" height="1.59" style="fill:url(#dy)"/><rect x="28.22" y="249.92" width="24.62" height="1.59" style="fill:url(#dz)"/><rect x="23.58" y="257.16" width="33.91" height="1.59" style="fill:url(#ea)"/><path d="M32.2,484.22V107.58c0-5.46,3.79-9.92,8.42-9.92h.56c4.63,0,8.42,4.46,8.42,9.92l0,376.64Z" style="fill:#9be0ff"/><g style="clip-path:url(#eb)"><rect x="32.08" y="293.99" width="17.57" height="370.41" transform="translate(81.72 958.39) rotate(-180)" style="fill:#fff"/><path d="M-144.6,478.94H226.78a0,0,0,0,1,0,0v6.22a0,0,0,0,1,0,0H-144.6a0,0,0,0,1,0,0v-6.24a0,0,0,0,1,0,0Z" transform="translate(-440.97 523.15) rotate(-90)" style="fill:#8e8e8e"/><path d="M41.46,296.38V667.64h1.39c.77,0,1.39-1.4,1.39-3.12V299.38c0-1.72,0-3,0-3Z" style="fill:#a8a8a8"/><rect x="32.2" y="293.5" width="17.39" height="2.07" transform="translate(81.79 589.07) rotate(-180)" style="fill:#a8a8a8"/><rect x="32.21" y="295.54" width="17.38" height="2.07" transform="translate(81.8 593.16) rotate(-180)" style="fill:#8e8e8e"/></g><rect x="16.8" y="487.48" width="47.36" height="11.37" style="fill:#d22c20"/><path d="M76.79,519.5c-.71-15.38-16.73-27.67-36.4-27.67S4.7,504.12,4,519.5Z" style="fill:#d22c20"/><rect x="17.33" y="495.46" width="46.57" height="3.19" style="fill:#a81a16"/><rect x="20.12" y="484.33" width="40.79" height="3.5" transform="translate(81.04 972.17) rotate(-180)" style="fill:url(#ec)"/><rect y="474.17" width="112.67" height="374" style="fill:none"/><path d="M164,370.56c-2.83-4.62-8.75-16-8.75-30.17,0-7.78,10.21-6.85,10.21-6.85s10.21-.93,10.21,6.85c0,14.2-5.92,25.55-8.75,30.17-.87,1.44-1.45,2.24-1.45,2.24v0l0,0S164.82,372,164,370.56Z" style="fill:#fff"/><path d="M184.76,343.55a23.82,23.82,0,0,1-4,1.56,46.9,46.9,0,0,1-15.46,1.83A50,50,0,0,1,153,345.1a19.27,19.27,0,0,1-5.16-2.17c.78-1.05,4-2.8,7.08-4.35,1.8-.9,3.58-1.72,4.86-2.3l1.86-.83a12.77,12.77,0,0,0,.54-3c.41-3.34.85-8.23.85-8.23H171l.31,3.6.68,7.79c.84.37,1.68.78,2.5,1.22,1.66.87,3.27,1.85,4.71,2.78C182.4,341.68,184.76,343.55,184.76,343.55Z" style="fill:#ffceaa"/><path d="M171.28,327.8q-4.58,2.26-9.11,4.63c.41-3.34.85-8.23.85-8.23H171Z" style="fill:#eda672"/><path d="M148.93,296.1c-.74,4.94.79,18.93,5.52,24.19s9.66,7.08,13,7.21,10.81-4.25,14.53-10.46c4.48-7.49,4.08-21.73,3.16-27.26s-10.25-10.65-19.2-9.2S150.77,283.74,148.93,296.1Z" style="fill:#ffceaa"/><path d="M169.42,310.94c-.92-.47-3-.43-4.67-.16a1.63,1.63,0,0,0-.61.2c-.17.11-.11.33,0,.51a6.21,6.21,0,0,0,1.89,1.32,2,2,0,0,0,.85.26,2.1,2.1,0,0,0,1.21-.52C168.65,312.11,169.78,311.48,169.42,310.94Z" style="fill:#eda672"/><path d="M133.26,299.23a3.18,3.18,0,0,0,1.59-1.39,5,5,0,0,1,.66-.9,1.48,1.48,0,0,0,.37-.67,4.63,4.63,0,0,1,3.78-3.45,1,1,0,0,0,.86-1,4.67,4.67,0,0,1,4.67-4.63h.05a1.39,1.39,0,0,0,1.21-.66,6.85,6.85,0,0,1,4.12-2.64c1.58,0,3.36-1.66,3.86-2.55,1.11-2,2.32-1.93,9.28-4h0a4.13,4.13,0,0,1,2.81.4,1.42,1.42,0,0,0,1,.12,5.07,5.07,0,0,1,3.87.58,1.41,1.41,0,0,0,1.15.14,5.11,5.11,0,0,1,3.93.39,4.82,4.82,0,0,0,2.55.59,4.44,4.44,0,0,1,3.79,1.85,5.24,5.24,0,0,0,1.52,1.37,5.69,5.69,0,0,1,1.14.86,4.86,4.86,0,0,0,2.21,1.24,5.48,5.48,0,0,1,3.88,3.79,4.92,4.92,0,0,0,2.58,3.08,5.46,5.46,0,0,1,2.75,3.07,4.82,4.82,0,0,0,1.27,1.94,4.53,4.53,0,0,1,1.45,3.46,5,5,0,0,0,.49,2.29,6.38,6.38,0,0,1-1.51,7.5,4.94,4.94,0,0,0-1.65,3.27,8.52,8.52,0,0,1-6.13,7.44,4.89,4.89,0,0,0-2,1.11,11.25,11.25,0,0,1-9.14,2.9,4.92,4.92,0,0,0-2.9.5,21.39,21.39,0,0,1-5.56,1.85l-.05-.54c9.66-4.81,13.74-12.39,14.07-22.69a2.44,2.44,0,0,0,0-.27,4.43,4.43,0,0,1-3.37-4.3,3.94,3.94,0,0,1,.08-.77,5,5,0,0,1-4.39-5,4.71,4.71,0,0,1,.08-.85,5,5,0,0,1-7.75-3.32,5,5,0,0,1-8.32-3.36,4.28,4.28,0,0,1-4.31,1.64,4.44,4.44,0,0,1,.18,1.22,4.65,4.65,0,0,1-3,4.34,4.64,4.64,0,0,1-3.59,4.11,4.63,4.63,0,0,1-1.77,3.33,20.32,20.32,0,0,0-.08,3.22c.95,8.82,4.6,18.12,13.76,22.56l0,.53a21.76,21.76,0,0,1-4.25-1.69,4.93,4.93,0,0,0-2.8-.5,11.24,11.24,0,0,1-7.17-1.57,3.11,3.11,0,0,0-1.71-.47,8.5,8.5,0,0,1-6.85-3.28,3.08,3.08,0,0,0-1.35-1,6.3,6.3,0,0,1-4-5,3.2,3.2,0,0,0-1-1.86,4.58,4.58,0,0,1-1.42-3,3.25,3.25,0,0,0-.78-1.91,4.64,4.64,0,0,1,1.77-7.38Z" style="fill:#d5532c"/><path d="M158.94,301.87a3.49,3.49,0,0,1,2.72,2.27c.27.77,0,3.46-1.14,4.51a3.46,3.46,0,0,1-1.79.89c-1.16.14-2.94.22-3.89-.57a4.28,4.28,0,0,1-1.44-2.79,4,4,0,0,1,.18-2.48c.69-1.28,2.26-1.76,3.67-2.11Z" style="fill:#fff"/><path d="M155.82,307.39a3,3,0,0,1-.18-3.47,2.67,2.67,0,0,1,1.06-1,2,2,0,0,1,1.48-.12,2.21,2.21,0,0,1,1.34,1.72,3.08,3.08,0,0,1-.93,3.21,1.86,1.86,0,0,1-2.77-.38Z" style="fill:#4c0c0a"/><path d="M153,305.37a4.51,4.51,0,0,1,2.93-3.14,5,5,0,0,1,3.64,0,3.88,3.88,0,0,1,2,2.24c.14.36.53.31.58.09a4.37,4.37,0,0,0-3.48-3.78,5.43,5.43,0,0,0-5.65,2.41,3.45,3.45,0,0,0-.57,1.69C152.44,305.48,152.93,305.71,153,305.37Z" style="fill:#eda672"/><path d="M153.11,304.54l-2.2.13a4.13,4.13,0,0,0,2,.84C152.94,305.09,152.85,304.88,153.11,304.54Z" style="fill:#eda672"/><path d="M173.73,301.87a3.49,3.49,0,0,0-2.73,2.27c-.26.77,0,3.46,1.15,4.51a3.39,3.39,0,0,0,1.78.89c1.17.14,2.94.22,3.89-.57a4.33,4.33,0,0,0,1.45-2.79,4.1,4.1,0,0,0-.19-2.48c-.68-1.28-2.25-1.76-3.66-2.11Z" style="fill:#fff"/><path d="M176.85,307.39a3,3,0,0,0,.17-3.47,2.64,2.64,0,0,0-1.05-1,2.08,2.08,0,0,0-1.49-.12,2.23,2.23,0,0,0-1.34,1.72,3.08,3.08,0,0,0,.94,3.21,2,2,0,0,0,1.51.43A2,2,0,0,0,176.85,307.39Z" style="fill:#4c0c0a"/><path d="M179.66,305.37a4.52,4.52,0,0,0-2.94-3.14,5,5,0,0,0-3.64,0,3.88,3.88,0,0,0-2,2.24c-.14.36-.53.31-.58.09a4.38,4.38,0,0,1,3.49-3.78,5.42,5.42,0,0,1,5.64,2.41,3.45,3.45,0,0,1,.57,1.69C180.23,305.48,179.74,305.71,179.66,305.37Z" style="fill:#eda672"/><path d="M179.56,304.54l2.2.13a4.16,4.16,0,0,1-2,.84C179.73,305.09,179.81,304.88,179.56,304.54Z" style="fill:#eda672"/><path d="M177.82,298.76a36.33,36.33,0,0,0-6.23-4.81,5.92,5.92,0,0,1,6.23,4.81Z" style="fill:#d5532c"/><path d="M154.21,298.89a35.48,35.48,0,0,1,6.24-4.8,5.9,5.9,0,0,0-6.24,4.8Z" style="fill:#d5532c"/><path d="M160.15,318.33l.13.92c.16.49.35-.57.65-.71a3.37,3.37,0,0,1,.95-.28l2.77-.52c1.3-.68-2.78.18-3.75.57-.19.07-.47.05-.53-.12C160.17,317.6,160,317.92,160.15,318.33Z" style="fill:#aa4c3f"/><path d="M168.92,317.6l2.7.81a3.69,3.69,0,0,1,.92.37c.27.18.36,1.25.57.78l.22-.91c.16-.38,0-.73-.2-.16-.08.16-.36.16-.54.07C171.66,318.07,167.7,316.79,168.92,317.6Z" style="fill:#aa4c3f"/><path d="M165,320.76a4.49,4.49,0,0,0,3.5.22,5.6,5.6,0,0,0,3.33-2.75s-3-.55-4-.65a16.13,16.13,0,0,0-2.2-.07c-.87,0-3.87.59-3.87.59A8.71,8.71,0,0,0,165,320.76Z" style="fill:#aa4c3f"/><path d="M162,317.93a7.7,7.7,0,0,1,5-1.85,7.53,7.53,0,0,1,4.66,2.05c.32.33-1.93.55-4.53.56C164.19,318.71,161.63,318.22,162,317.93Z" style="fill:#aa4c3f"/><path d="M185.09,303.14h-1.45c0-.23,0-.47,0-.73v-.69l-.63-.28h0a8.77,8.77,0,0,0-1-.36c-.32-.11-.65-.2-1-.28a19.05,19.05,0,0,0-2-.39,18.83,18.83,0,0,0-4-.17,8.85,8.85,0,0,0-1,.1,8.56,8.56,0,0,0-1,.19,9.68,9.68,0,0,0-2,.71,8.65,8.65,0,0,0-1.72,1.16,6.56,6.56,0,0,0-1.35,1.63l-.08.13h-2.32l-.08-.13a6.56,6.56,0,0,0-1.35-1.63,8.65,8.65,0,0,0-1.72-1.16,9.68,9.68,0,0,0-1.95-.71,8.56,8.56,0,0,0-1-.19,8.85,8.85,0,0,0-1-.1,18.83,18.83,0,0,0-4,.17,19.05,19.05,0,0,0-2,.39c-.32.08-.65.17-1,.28a8.77,8.77,0,0,0-1,.36h0l-.64.28v.69c0,.26,0,.5,0,.74h-1.61a.57.57,0,0,0-.56.57v.53a.57.57,0,0,0,.56.57h1.61a.5.5,0,0,0,.26-.08,7,7,0,0,0,.18.69,9.26,9.26,0,0,0,.57,1.43,8.42,8.42,0,0,0,.83,1.33A6.71,6.71,0,0,0,153,309.3a3.66,3.66,0,0,0,.66.45,5.26,5.26,0,0,0,.71.36,6.27,6.27,0,0,0,1.5.44,6.49,6.49,0,0,0,1.51.14h.76l.68-.05c.44,0,1-.13,1.44-.2a12.37,12.37,0,0,0,1.42-.37,8.25,8.25,0,0,0,1.38-.58,5.33,5.33,0,0,0,2.23-2.16,3.42,3.42,0,0,0,.3-.77,2.5,2.5,0,0,0,.09-.43v-.67H168v.67a2.5,2.5,0,0,0,.09.43,3.42,3.42,0,0,0,.3.77,5.33,5.33,0,0,0,2.23,2.16,8.25,8.25,0,0,0,1.38.58,12.37,12.37,0,0,0,1.42.37c.48.07,1,.17,1.44.2l.69.05h.75a6.49,6.49,0,0,0,1.51-.14,6.27,6.27,0,0,0,1.5-.44,5.26,5.26,0,0,0,.71-.36,3.34,3.34,0,0,0,.66-.45,6.77,6.77,0,0,0,1.15-1.12,9.15,9.15,0,0,0,.82-1.33,8.36,8.36,0,0,0,.57-1.43c.07-.21.12-.42.17-.64a.42.42,0,0,0,.12,0h1.6a.57.57,0,0,0,.57-.57v-.53A.57.57,0,0,0,185.09,303.14Zm-20.66,2.56a1.72,1.72,0,0,1-.29,1,3.88,3.88,0,0,1-1.72,1.49,6.58,6.58,0,0,1-1.15.42,10.12,10.12,0,0,1-1.24.27c-.43,0-.8.11-1.27.11l-.68,0h-.3l-.31,0a5.26,5.26,0,0,1-1.2-.16,5.08,5.08,0,0,1-1.1-.37,3.5,3.5,0,0,1-.49-.29,2.09,2.09,0,0,1-.45-.33,5.45,5.45,0,0,1-.77-.82,7.17,7.17,0,0,1-.56-1,6.84,6.84,0,0,1-.39-1.13,9.1,9.1,0,0,1-.22-1.2c0-.16,0-.33,0-.49l.12-.06.84-.29a16.46,16.46,0,0,1,3.51-.75,15.15,15.15,0,0,1,1.8-.1,8.34,8.34,0,0,1,.88,0,8.08,8.08,0,0,1,.86.1,7.64,7.64,0,0,1,1.65.48,6.85,6.85,0,0,1,1.48.87,5.51,5.51,0,0,1,1.07,1.09Zm17-2.05a9.1,9.1,0,0,1-.22,1.2,6.84,6.84,0,0,1-.39,1.13,7.17,7.17,0,0,1-.56,1,5.45,5.45,0,0,1-.77.82,2.09,2.09,0,0,1-.45.33,3.5,3.5,0,0,1-.49.29,5.08,5.08,0,0,1-1.1.37,5.26,5.26,0,0,1-1.2.16l-.31,0h-.3l-.68,0c-.47,0-.84-.08-1.27-.11a10.54,10.54,0,0,1-1.24-.27,6.58,6.58,0,0,1-1.15-.42,3.88,3.88,0,0,1-1.72-1.49,1.72,1.72,0,0,1-.29-1l0-1.17a5.51,5.51,0,0,1,1.07-1.09,6.85,6.85,0,0,1,1.48-.87,7.64,7.64,0,0,1,1.65-.48,10.69,10.69,0,0,1,1.74-.13,15.15,15.15,0,0,1,1.8.1,16.46,16.46,0,0,1,3.51.75l.84.29.12.06C181.44,303.32,181.43,303.49,181.41,303.65Z" style="fill:#b53116"/><path d="M137.13,384a3.5,3.5,0,0,0-.28.25A1.41,1.41,0,0,1,137.13,384Z" style="fill:#754559;opacity:0.4;mix-blend-mode:multiply"/><path d="M171,506.68a9.35,9.35,0,0,0,.76-1.84h7.18l3.07,6.08,3.22,5.84L187.1,519l-1.49.73-9.19-.86Z" style="fill:#ffceaa"/><path d="M171.24,512.15l2.21,14.06h2.11l.41-7.57s-1-4.7-1.65-5.38S171.24,512.15,171.24,512.15Z" style="fill:#59150c"/><path d="M171.45,506.68s2.09.91,3.33,4.57,2.23,7.57,5.28,7.57h6.67a5.87,5.87,0,0,1-2-2.38c-.58-1.43-2.76-5.52-2.76-5.52s3.37,5.81,4.28,6.61,3.62,1.58,4,2.91,1.66,5.77-2.95,5.77H178a3.25,3.25,0,0,1-1.86-2.49c-.43-2-1.57-7.14-2.57-9s-2.09-1.43-2.76-3.67S170.53,506,171.45,506.68Z" style="fill:#b53116"/><path d="M164.61,506.42a8.92,8.92,0,0,1-.77-1.85h-7.17l-3.07,6.08-3.23,5.84-1.9,2.2,1.49.72,9.18-.85Z" style="fill:#ffceaa"/><path d="M164.32,511.88l-2.2,14.06H160l-.41-7.57s1-4.69,1.65-5.37S164.32,511.88,164.32,511.88Z" style="fill:#59150c"/><path d="M164.12,506.42s-2.1.9-3.33,4.57-2.24,7.57-5.29,7.57h-6.66a6,6,0,0,0,2-2.38c.57-1.43,2.76-5.53,2.76-5.53s-3.38,5.81-4.29,6.62-3.61,1.57-4,2.9-1.67,5.77,3,5.77h9.33a3.22,3.22,0,0,0,1.85-2.48c.43-2,1.57-7.14,2.57-9s2.1-1.43,2.76-3.66S165,505.77,164.12,506.42Z" style="fill:#b53116"/><path d="M188.83,451.38c0,1.89-10,2.31-22.08,2.31s-21.41.82-21.41-1.07S155,449,167,449,188.83,449.49,188.83,451.38Z" style="fill:#2c222d"/><path d="M171.77,504.93l-.9-30.91.65-52.57a6.34,6.34,0,0,1,6.41-6.25c3.5.05,10.58,4.25,10.69,10.07a150.47,150.47,0,0,1-1.89,22.91c-1.19,7.36-8.11,50.22-7.84,57A12.76,12.76,0,0,1,171.77,504.93Z" style="fill:#ffceaa"/><path d="M163.69,504.93l.46-30.91-.65-52.57a6.42,6.42,0,0,0-6.36-6.4c-3.49,0-10.6,1.79-12.56,5,0,0,.36,4.63,1.07,14.61.57,8,8.17,52.82,8.19,52.89.65,6.23,3.26,10.61,2.61,17.27C156.45,504.81,159,506,163.69,504.93Z" style="fill:#ffceaa"/><path d="M187.73,450.44l-.41,3c-2.67-.75-12.59-1.19-16.09-.89l-.18-3.44Z" style="fill:#7f5d41"/><path d="M146.54,452.51l.24,1.94c2.67-.74,13.53-2,17-1.71v-3.13Z" style="fill:#7f5d41"/><path d="M138.53,412.75c-1.9,5.34-2.2,14-2.2,14,.18,3.75,2.2,8.4,8.49,12.67l.47,13.3c5.34-1.66,18.51-2.32,22.56-2.38,4.64-.06,15.2,0,20.89,1.07l.95-12.11a12.64,12.64,0,0,0,9-12.4s-.24-8.73-3.09-14.55c-1.13-2.29-.6-1.56-3.68-9-6-3.72-12.89-6.26-24.81-6.26-12.08,0-18.75,3-24.82,7.33C139.47,411.51,140.42,407.41,138.53,412.75Z" style="fill:#3b2d3c"/><polygon points="167.1 337.11 167.1 363.64 155.44 336.81 167.1 337.11" style="fill:#d8e2ef"/><polygon points="167.1 334.04 167.1 337.11 163.03 343.74 155.27 338.18 160.39 334.04 167.1 334.04" style="fill:#fff"/><polygon points="167.1 337.11 167.1 363.64 178.95 336.81 167.1 337.11" style="fill:#d8e2ef"/><polygon points="167.1 334.04 167.1 337.11 171.17 343.74 178.93 338.18 173.81 334.04 167.1 334.04" style="fill:#fff"/><path d="M167.1,363.64V406.8s.77,8.74-.08,8.74-28.49-3-28.49-3,10-22,9.43-28.8-1-11.49-1-11.49-3.73-2.95-4.23-11c-.43-7-2.85-15.23.82-19.06a8.78,8.78,0,0,1,7.8-2.91Z" style="fill:#d9a155"/><path d="M147.85,371s3.28,2.07,8.81,1.47,8.32-2.42,7.77-2.76-5.65.9-10.38.34S144.33,368.21,147.85,371Z" style="fill:#ba823a"/><path d="M167.1,363.64V406.8s.13,8.65.36,8.65c.85,0,28.21-2.9,28.21-2.9s-8.38-21.88-8.26-28.71c.09-5,.18-11.49.18-11.49s4.72-6.77,4.72-14.87,1.07-9.47-.63-13.35-8.85-4.87-8.85-4.87Z" style="fill:#d9a155"/><path d="M186.35,371s-3.28,2.07-8.81,1.47-8.31-2.42-7.77-2.76,5.65.9,10.38.34S189.87,368.21,186.35,371Z" style="fill:#ba823a"/><polygon points="167.1 363.72 167.1 415.18 166.79 415.66 166.79 363.22 167.1 363.72" style="fill:#b0772b"/><polygon points="167.1 363.72 167.1 415.18 167.41 415.66 167.41 363.22 167.1 363.72" style="fill:#b0772b"/><polygon points="133.33 417.35 132.46 414.24 135.05 409.49 140.12 408.07 142.46 416.43 133.33 417.35" style="fill:#ffceaa"/><path d="M137.17,416.93a3.81,3.81,0,1,1,2.64-4.7A3.82,3.82,0,0,1,137.17,416.93Z" style="fill:#ffceaa"/><path d="M138,420a3.81,3.81,0,1,1,2.64-4.69A3.81,3.81,0,0,1,138,420Z" style="fill:#ffceaa"/><path d="M139.59,416.25a3.81,3.81,0,1,1,2.63-4.7A3.81,3.81,0,0,1,139.59,416.25Z" style="fill:#ffceaa"/><rect x="132.95" y="406.35" width="7.61" height="7.67" transform="translate(-106.03 52.4) rotate(-15.72)" style="fill:#ffceaa"/><path d="M142.11,415c-1.6-1.87-2.49-3.75-2-4.18s2.23.74,3.83,2.61,2.5,3.76,2,4.19S143.72,416.9,142.11,415Z" style="fill:#ffceaa"/><path d="M141.23,418.37c-1-3.52-1.29-6.53-.68-6.7s1.91,2.56,2.9,6.08,1.29,6.53.68,6.7S142.22,421.88,141.23,418.37Z" style="fill:#ffceaa"/><path d="M139.34,420.14c-1.06-3.78-1.43-7-.82-7.19s2,2.79,3,6.57,1.43,7,.82,7.2S140.4,423.93,139.34,420.14Z" style="fill:#ffceaa"/><path d="M137,420.27c-1-3.51-1.29-6.53-.69-6.7s1.92,2.56,2.9,6.08,1.3,6.53.69,6.7S138,423.79,137,420.27Z" style="fill:#ffceaa"/><path d="M134.25,419c-.87-3.1-1.08-5.78-.48-5.95s1.82,2.23,2.69,5.33,1.09,5.79.48,6S135.12,422.12,134.25,419Z" style="fill:#ffceaa"/><path d="M139.25,404.6c-.66.26.21,1.27.5,2.15s.57,2,.57,2l-7.45,1.8-.8-2.85Z" style="fill:#ededed"/><path d="M139.78,406.76l-.17-.73c0-.12,0-.26,0-.39l0-.4c0-.25,0-.53,0-.81v-1.67c0-.27,0-.57,0-.85l0-.86.05-.87c.14-2.32.41-4.68.74-7s.73-4.72,1.18-7.07.95-4.71,1.5-7.05,1.13-4.67,1.75-7,1.3-4.62,2-6.91,1.45-4.55,2.24-6.8,1.62-4.46,2.49-6.65l-13.42-4.37q-1,3.72-1.89,7.45c-.58,2.48-1.1,5-1.58,7.47s-.91,5-1.31,7.49-.73,5-1,7.53-.55,5-.76,7.57-.35,5.08-.43,7.64-.09,5.14,0,7.78l.06,1c0,.33,0,.67.07,1s.05.67.09,1l.11,1,0,.26,0,.26.08.52c.05.35.09.69.17,1.06l.1.54,0,.27,0,.13,0,.15.28,1.13Z" style="fill:#d9a155"/><path d="M147.12,342.88a6.75,6.75,0,0,0-5.4.22,7,7,0,0,0-2.2,1.68,7.26,7.26,0,0,0-1.44,2.53,7.53,7.53,0,0,0-.33,2.88,7,7,0,0,0,.79,2.64,6.86,6.86,0,0,0,4.21,3.38,7.27,7.27,0,0,0,5.35-.58,7,7,0,0,0,2.07-1.62,6.6,6.6,0,0,0,1.31-2.33,6.51,6.51,0,0,0,.31-2.65,6.94,6.94,0,0,0-.71-2.51A7.35,7.35,0,0,0,147.12,342.88Z" style="fill:#d9a155"/><polygon points="200.53 417.97 201.4 414.87 198.81 410.12 193.75 408.7 191.4 417.06 200.53 417.97" style="fill:#ffceaa"/><path d="M196.69,417.55a3.81,3.81,0,1,0-2.64-4.69A3.81,3.81,0,0,0,196.69,417.55Z" style="fill:#ffceaa"/><path d="M195.83,420.61a3.81,3.81,0,1,0-2.64-4.7A3.81,3.81,0,0,0,195.83,420.61Z" style="fill:#ffceaa"/><path d="M194.28,416.88a3.81,3.81,0,1,0-2.64-4.7A3.82,3.82,0,0,0,194.28,416.88Z" style="fill:#ffceaa"/><rect x="193.28" y="407.01" width="7.67" height="7.61" transform="translate(-251.74 489.24) rotate(-74.28)" style="fill:#ffceaa"/><path d="M191.75,415.66c1.6-1.87,2.5-3.76,2-4.19s-2.23.75-3.83,2.62-2.49,3.75-2,4.19S190.15,417.53,191.75,415.66Z" style="fill:#ffceaa"/><path d="M192.63,419c1-3.52,1.3-6.54.69-6.71s-1.91,2.57-2.9,6.08-1.29,6.54-.69,6.71S191.65,422.51,192.63,419Z" style="fill:#ffceaa"/><path d="M194.52,420.77c1.07-3.79,1.44-7,.83-7.2s-2,2.79-3,6.58-1.43,7-.82,7.19S193.46,424.55,194.52,420.77Z" style="fill:#ffceaa"/><path d="M196.87,420.9c1-3.52,1.3-6.53.69-6.7s-1.91,2.56-2.9,6.08-1.29,6.53-.68,6.7S195.89,424.41,196.87,420.9Z" style="fill:#ffceaa"/><path d="M199.61,419.64c.88-3.11,1.09-5.79.48-6s-1.82,2.23-2.69,5.34-1.08,5.79-.48,6S198.74,422.75,199.61,419.64Z" style="fill:#ffceaa"/><path d="M194.63,405.09c.66.27-.22,1.44-.51,2.32s-.56,1.79-.56,1.79L201,411l.8-2.84Z" style="fill:#ededed"/><path d="M194.1,407.36l.16-.71c0-.12,0-.26,0-.39l0-.39c0-.26,0-.53,0-.81l0-.41v-1.26c0-.28,0-.57,0-.85s0-.57,0-.86l-.05-.87c-.14-2.32-.4-4.68-.73-7s-.74-4.72-1.19-7.07-.94-4.71-1.49-7.05-1.13-4.67-1.76-7-1.29-4.62-2-6.9-1.45-4.56-2.24-6.8-1.62-4.46-2.49-6.65l13.42-4.38c.69,2.48,1.32,5,1.9,7.45s1.1,5,1.58,7.47.91,5,1.3,7.5.74,5,1,7.53.56,5,.76,7.57.36,5.07.44,7.64.08,5.14,0,7.78l-.05,1c0,.33-.05.66-.08,1s0,.66-.08,1l-.12,1,0,.25,0,.26-.08.53c-.05.34-.1.69-.17,1.06l-.11.54-.05.27,0,.13,0,.14-.28,1.13Z" style="fill:#d9a155"/><path d="M186.75,343.51a6.71,6.71,0,0,1,5.4.22,7,7,0,0,1,2.2,1.68,7.31,7.31,0,0,1,1.43,2.53,7.16,7.16,0,0,1,.33,2.88,7.08,7.08,0,0,1-.78,2.64,6.81,6.81,0,0,1-4.22,3.37,7.23,7.23,0,0,1-5.35-.57,7,7,0,0,1-2.06-1.63,6.5,6.5,0,0,1-1.32-2.32,6.72,6.72,0,0,1-.31-2.65,7,7,0,0,1,.71-2.52A7.35,7.35,0,0,1,186.75,343.51Z" style="fill:#d9a155"/><path d="M149.84,352.14c3.57,1.19,4.76,1.52,4.76,1.52s-1.14,1.76-2.11,3.29,6.64,2.88,14.5,6.45c0,0-7.38-14.24-10-26.74-.65-3.05-7.47,2.14-8.33,5.27C147.62,345.59,147.91,351.5,149.84,352.14Z" style="fill:#b0772b"/><path d="M184.28,352.57c-3.55,1.11-4.72,1.41-4.72,1.41s1.09,1.76,2,3.29-6.6,2.72-14.42,6.11c0,0,7.53-13.93,10.37-26.22.7-3,7.34,2.25,8.13,5.35C186.59,346.14,186.19,352,184.28,352.57Z" style="fill:#b0772b"/><path d="M189.86,439.13l3.16-4.89A40.8,40.8,0,0,0,198.6,429s-.95,4.4-3.09,6.65A16.27,16.27,0,0,1,189.86,439.13Z" style="fill:#2c222d"/><path d="M145.41,439.49,142.32,435a55.08,55.08,0,0,1-5.65-5.58s1,4.39,3.09,6.65A16.36,16.36,0,0,0,145.41,439.49Z" style="fill:#2c222d"/></g></svg>