<svg xmlns="http://www.w3.org/2000/svg" xmlns:xlink="http://www.w3.org/1999/xlink" viewBox="0 0 332.11 848.17"><defs><clipPath id="d"><path d="M210.87 101.44v.06c-.1.36-1.77.89-2.14 1a38.89 38.89 0 0 1-5.63 1.11c-28.22 4.14-71.94 1.48-76.12-1.62l-.16-.18c.87-4.83 52.68-6.34 74.28-3.51 5.61.7 9.27 1.7 9.77 3.14z" fill="#a81a16"/></clipPath><linearGradient id="b" x1="416.32" y1="288.95" x2="450.71" y2="288.95" gradientTransform="matrix(1 0 0 -1 -138.58 577.9)" gradientUnits="userSpaceOnUse"><stop offset=".01" stop-color="#d22c20"/><stop offset=".31" stop-color="#e7342e"/><stop offset=".51" stop-color="#ef3733"/><stop offset=".72" stop-color="#e6332d"/><stop offset="1" stop-color="#d22c20"/></linearGradient><linearGradient id="a" x1="311.62" y1="329.93" x2="278.86" y2="329.93" gradientUnits="userSpaceOnUse"><stop offset=".05" stop-color="#d3d2d2"/><stop offset=".37" stop-color="#9a9a9c"/><stop offset=".64" stop-color="#9a9a9c"/><stop offset="1" stop-color="#d1d6d5"/></linearGradient><linearGradient id="e" x1="307.23" y1="337.17" x2="283.44" y2="337.17" xlink:href="#a"/><linearGradient id="f" x1="307.23" y1="344.42" x2="283.44" y2="344.42" xlink:href="#a"/><linearGradient id="g" x1="307.23" y1="351.66" x2="283.44" y2="351.66" xlink:href="#a"/><linearGradient id="h" x1="307.23" y1="358.9" x2="283.44" y2="358.9" xlink:href="#a"/><linearGradient id="i" x1="311.62" y1="366.15" x2="278.86" y2="366.15" xlink:href="#a"/><linearGradient id="j" x1="307.38" y1="373.39" x2="283.59" y2="373.39" xlink:href="#a"/><linearGradient id="k" x1="307.38" y1="380.63" x2="283.59" y2="380.63" xlink:href="#a"/><linearGradient id="l" x1="307.38" y1="387.88" x2="283.59" y2="387.88" xlink:href="#a"/><linearGradient id="m" x1="307.38" y1="395.12" x2="283.59" y2="395.12" xlink:href="#a"/><linearGradient id="n" x1="311.78" y1="402.37" x2="279.01" y2="402.37" xlink:href="#a"/><linearGradient id="o" x1="307.23" y1="409.61" x2="283.44" y2="409.61" xlink:href="#a"/><linearGradient id="p" x1="307.23" y1="416.85" x2="283.44" y2="416.85" xlink:href="#a"/><linearGradient id="q" x1="307.23" y1="424.1" x2="283.44" y2="424.1" xlink:href="#a"/><linearGradient id="r" x1="307.23" y1="431.34" x2="283.44" y2="431.34" xlink:href="#a"/><linearGradient id="s" x1="311.62" y1="438.58" x2="278.86" y2="438.58" xlink:href="#a"/><linearGradient id="t" x1="307.23" y1="445.83" x2="283.44" y2="445.83" xlink:href="#a"/><linearGradient id="u" x1="307.23" y1="453.07" x2="283.44" y2="453.07" xlink:href="#a"/><linearGradient id="v" x1="307.23" y1="460.31" x2="283.44" y2="460.31" xlink:href="#a"/><linearGradient id="w" x1="307.23" y1="467.56" x2="283.44" y2="467.56" xlink:href="#a"/><linearGradient id="x" x1="311.62" y1="474.8" x2="278.86" y2="474.8" xlink:href="#a"/><linearGradient id="y" x1="311.62" y1="221.51" x2="278.86" y2="221.51" xlink:href="#a"/><linearGradient id="z" x1="307.23" y1="228.75" x2="283.44" y2="228.75" xlink:href="#a"/><linearGradient id="A" x1="307.23" y1="235.99" x2="283.44" y2="235.99" xlink:href="#a"/><linearGradient id="B" x1="307.23" y1="243.24" x2="283.44" y2="243.24" xlink:href="#a"/><linearGradient id="C" x1="307.23" y1="250.48" x2="283.44" y2="250.48" xlink:href="#a"/><linearGradient id="D" x1="311.62" y1="257.73" x2="278.86" y2="257.73" xlink:href="#a"/><linearGradient id="E" x1="307.38" y1="264.97" x2="283.59" y2="264.97" xlink:href="#a"/><linearGradient id="F" x1="307.38" y1="272.21" x2="283.59" y2="272.21" xlink:href="#a"/><linearGradient id="G" x1="307.38" y1="279.46" x2="283.59" y2="279.46" xlink:href="#a"/><linearGradient id="H" x1="307.38" y1="286.7" x2="283.59" y2="286.7" xlink:href="#a"/><linearGradient id="I" x1="311.78" y1="293.94" x2="279.01" y2="293.94" xlink:href="#a"/><linearGradient id="J" x1="307.23" y1="301.19" x2="283.44" y2="301.19" xlink:href="#a"/><linearGradient id="K" x1="307.23" y1="308.43" x2="283.44" y2="308.43" xlink:href="#a"/><linearGradient id="L" x1="307.23" y1="315.67" x2="283.44" y2="315.67" xlink:href="#a"/><linearGradient id="M" x1="307.23" y1="322.92" x2="283.44" y2="322.92" xlink:href="#a"/><linearGradient id="N" x1="311.62" y1="330.16" x2="278.86" y2="330.16" xlink:href="#a"/><linearGradient id="O" x1="307.23" y1="337.4" x2="283.44" y2="337.4" xlink:href="#a"/><linearGradient id="P" x1="307.23" y1="344.65" x2="283.44" y2="344.65" xlink:href="#a"/><linearGradient id="Q" x1="307.23" y1="351.89" x2="283.44" y2="351.89" xlink:href="#a"/><linearGradient id="R" x1="307.23" y1="359.13" x2="283.44" y2="359.13" xlink:href="#a"/><linearGradient id="S" x1="311.62" y1="366.38" x2="278.86" y2="366.38" xlink:href="#a"/><linearGradient id="T" x1="311.62" y1="113.09" x2="278.86" y2="113.09" xlink:href="#a"/><linearGradient id="U" x1="307.23" y1="120.33" x2="283.44" y2="120.33" xlink:href="#a"/><linearGradient id="V" x1="307.23" y1="127.57" x2="283.44" y2="127.57" xlink:href="#a"/><linearGradient id="W" x1="307.23" y1="134.82" x2="283.44" y2="134.82" xlink:href="#a"/><linearGradient id="X" x1="307.23" y1="142.06" x2="283.44" y2="142.06" xlink:href="#a"/><linearGradient id="Y" x1="311.62" y1="149.3" x2="278.86" y2="149.3" xlink:href="#a"/><linearGradient id="Z" x1="307.38" y1="156.55" x2="283.59" y2="156.55" xlink:href="#a"/><linearGradient id="aa" x1="307.38" y1="163.79" x2="283.59" y2="163.79" xlink:href="#a"/><linearGradient id="ab" x1="307.38" y1="171.03" x2="283.59" y2="171.03" xlink:href="#a"/><linearGradient id="ac" x1="307.38" y1="178.28" x2="283.59" y2="178.28" xlink:href="#a"/><linearGradient id="ad" x1="311.78" y1="185.52" x2="279.01" y2="185.52" xlink:href="#a"/><linearGradient id="ae" x1="307.23" y1="192.76" x2="283.44" y2="192.76" xlink:href="#a"/><linearGradient id="af" x1="307.23" y1="200.01" x2="283.44" y2="200.01" xlink:href="#a"/><linearGradient id="ag" x1="307.23" y1="207.25" x2="283.44" y2="207.25" xlink:href="#a"/><linearGradient id="ah" x1="307.23" y1="214.49" x2="283.44" y2="214.49" xlink:href="#a"/><linearGradient id="ai" x1="311.62" y1="221.74" x2="278.86" y2="221.74" xlink:href="#a"/><linearGradient id="aj" x1="307.23" y1="228.98" x2="283.44" y2="228.98" xlink:href="#a"/><linearGradient id="ak" x1="307.23" y1="236.23" x2="283.44" y2="236.23" xlink:href="#a"/><linearGradient id="al" x1="307.23" y1="243.47" x2="283.44" y2="243.47" xlink:href="#a"/><linearGradient id="am" x1="307.23" y1="250.71" x2="283.44" y2="250.71" xlink:href="#a"/><linearGradient id="an" x1="311.62" y1="257.96" x2="278.86" y2="257.96" xlink:href="#a"/><clipPath id="ao"><path fill="none" d="M286.53 112.37h17.37v371.86h-17.37z"/></clipPath><linearGradient id="c" x1="275.18" y1="486.08" x2="315.97" y2="486.08" gradientUnits="userSpaceOnUse"><stop offset=".01" stop-color="#d22c20"/><stop offset=".26" stop-color="#e2322b"/><stop offset=".51" stop-color="#ef3733"/><stop offset="1" stop-color="#d22c20"/></linearGradient><linearGradient id="ap" x1="-368.75" y1="288.95" x2="-334.36" y2="288.95" gradientTransform="translate(392.71)" xlink:href="#b"/><linearGradient id="aq" x1="1096.7" y1="329.93" x2="1063.93" y2="329.93" gradientTransform="matrix(-1 0 0 1 1121.17 0)" xlink:href="#a"/><linearGradient id="ar" x1="1092.3" y1="337.17" x2="1068.51" y2="337.17" gradientTransform="matrix(-1 0 0 1 1121.17 0)" xlink:href="#a"/><linearGradient id="as" x1="1092.3" y1="344.42" x2="1068.51" y2="344.42" gradientTransform="matrix(-1 0 0 1 1121.17 0)" xlink:href="#a"/><linearGradient id="at" x1="1092.3" y1="351.66" x2="1068.51" y2="351.66" gradientTransform="matrix(-1 0 0 1 1121.17 0)" xlink:href="#a"/><linearGradient id="au" x1="1092.3" y1="358.9" x2="1068.51" y2="358.9" gradientTransform="matrix(-1 0 0 1 1121.17 0)" xlink:href="#a"/><linearGradient id="av" x1="1096.7" y1="366.15" x2="1063.93" y2="366.15" gradientTransform="matrix(-1 0 0 1 1121.17 0)" xlink:href="#a"/><linearGradient id="aw" x1="1092.45" y1="373.39" x2="1068.66" y2="373.39" gradientTransform="matrix(-1 0 0 1 1121.17 0)" xlink:href="#a"/><linearGradient id="ax" x1="1092.45" y1="380.63" x2="1068.66" y2="380.63" gradientTransform="matrix(-1 0 0 1 1121.17 0)" xlink:href="#a"/><linearGradient id="ay" x1="1092.45" y1="387.88" x2="1068.66" y2="387.88" gradientTransform="matrix(-1 0 0 1 1121.17 0)" xlink:href="#a"/><linearGradient id="az" x1="1092.45" y1="395.12" x2="1068.66" y2="395.12" gradientTransform="matrix(-1 0 0 1 1121.17 0)" xlink:href="#a"/><linearGradient id="aA" x1="1096.85" y1="402.37" x2="1064.09" y2="402.37" gradientTransform="matrix(-1 0 0 1 1121.17 0)" xlink:href="#a"/><linearGradient id="aB" x1="1092.3" y1="409.61" x2="1068.51" y2="409.61" gradientTransform="matrix(-1 0 0 1 1121.17 0)" xlink:href="#a"/><linearGradient id="aC" x1="1092.3" y1="416.85" x2="1068.51" y2="416.85" gradientTransform="matrix(-1 0 0 1 1121.17 0)" xlink:href="#a"/><linearGradient id="aD" x1="1092.3" y1="424.1" x2="1068.51" y2="424.1" gradientTransform="matrix(-1 0 0 1 1121.17 0)" xlink:href="#a"/><linearGradient id="aE" x1="1092.3" y1="431.34" x2="1068.51" y2="431.34" gradientTransform="matrix(-1 0 0 1 1121.17 0)" xlink:href="#a"/><linearGradient id="aF" x1="1096.7" y1="438.58" x2="1063.93" y2="438.58" gradientTransform="matrix(-1 0 0 1 1121.17 0)" xlink:href="#a"/><linearGradient id="aG" x1="1092.3" y1="445.83" x2="1068.51" y2="445.83" gradientTransform="matrix(-1 0 0 1 1121.17 0)" xlink:href="#a"/><linearGradient id="aH" x1="1092.3" y1="453.07" x2="1068.51" y2="453.07" gradientTransform="matrix(-1 0 0 1 1121.17 0)" xlink:href="#a"/><linearGradient id="aI" x1="1092.3" y1="460.31" x2="1068.51" y2="460.31" gradientTransform="matrix(-1 0 0 1 1121.17 0)" xlink:href="#a"/><linearGradient id="aJ" x1="1092.3" y1="467.56" x2="1068.51" y2="467.56" gradientTransform="matrix(-1 0 0 1 1121.17 0)" xlink:href="#a"/><linearGradient id="aK" x1="1096.7" y1="474.8" x2="1063.93" y2="474.8" gradientTransform="matrix(-1 0 0 1 1121.17 0)" xlink:href="#a"/><linearGradient id="aL" x1="1096.7" y1="221.51" x2="1063.93" y2="221.51" gradientTransform="matrix(-1 0 0 1 1121.17 0)" xlink:href="#a"/><linearGradient id="aM" x1="1092.3" y1="228.75" x2="1068.51" y2="228.75" gradientTransform="matrix(-1 0 0 1 1121.17 0)" xlink:href="#a"/><linearGradient id="aN" x1="1092.3" y1="235.99" x2="1068.51" y2="235.99" gradientTransform="matrix(-1 0 0 1 1121.17 0)" xlink:href="#a"/><linearGradient id="aO" x1="1092.3" y1="243.24" x2="1068.51" y2="243.24" gradientTransform="matrix(-1 0 0 1 1121.17 0)" xlink:href="#a"/><linearGradient id="aP" x1="1092.3" y1="250.48" x2="1068.51" y2="250.48" gradientTransform="matrix(-1 0 0 1 1121.17 0)" xlink:href="#a"/><linearGradient id="aQ" x1="1096.7" y1="257.73" x2="1063.93" y2="257.73" gradientTransform="matrix(-1 0 0 1 1121.17 0)" xlink:href="#a"/><linearGradient id="aR" x1="1092.45" y1="264.97" x2="1068.66" y2="264.97" gradientTransform="matrix(-1 0 0 1 1121.17 0)" xlink:href="#a"/><linearGradient id="aS" x1="1092.45" y1="272.21" x2="1068.66" y2="272.21" gradientTransform="matrix(-1 0 0 1 1121.17 0)" xlink:href="#a"/><linearGradient id="aT" x1="1092.45" y1="279.46" x2="1068.66" y2="279.46" gradientTransform="matrix(-1 0 0 1 1121.17 0)" xlink:href="#a"/><linearGradient id="aU" x1="1092.45" y1="286.7" x2="1068.66" y2="286.7" gradientTransform="matrix(-1 0 0 1 1121.17 0)" xlink:href="#a"/><linearGradient id="aV" x1="1096.85" y1="293.94" x2="1064.09" y2="293.94" gradientTransform="matrix(-1 0 0 1 1121.17 0)" xlink:href="#a"/><linearGradient id="aW" x1="1092.3" y1="301.19" x2="1068.51" y2="301.19" gradientTransform="matrix(-1 0 0 1 1121.17 0)" xlink:href="#a"/><linearGradient id="aX" x1="1092.3" y1="308.43" x2="1068.51" y2="308.43" gradientTransform="matrix(-1 0 0 1 1121.17 0)" xlink:href="#a"/><linearGradient id="aY" x1="1092.3" y1="315.67" x2="1068.51" y2="315.67" gradientTransform="matrix(-1 0 0 1 1121.17 0)" xlink:href="#a"/><linearGradient id="aZ" x1="1092.3" y1="322.92" x2="1068.51" y2="322.92" gradientTransform="matrix(-1 0 0 1 1121.17 0)" xlink:href="#a"/><linearGradient id="ba" x1="1096.7" y1="330.16" x2="1063.93" y2="330.16" gradientTransform="matrix(-1 0 0 1 1121.17 0)" xlink:href="#a"/><linearGradient id="bb" x1="1092.3" y1="337.4" x2="1068.51" y2="337.4" gradientTransform="matrix(-1 0 0 1 1121.17 0)" xlink:href="#a"/><linearGradient id="bc" x1="1092.3" y1="344.65" x2="1068.51" y2="344.65" gradientTransform="matrix(-1 0 0 1 1121.17 0)" xlink:href="#a"/><linearGradient id="bd" x1="1092.3" y1="351.89" x2="1068.51" y2="351.89" gradientTransform="matrix(-1 0 0 1 1121.17 0)" xlink:href="#a"/><linearGradient id="be" x1="1092.3" y1="359.13" x2="1068.51" y2="359.13" gradientTransform="matrix(-1 0 0 1 1121.17 0)" xlink:href="#a"/><linearGradient id="bf" x1="1096.7" y1="366.38" x2="1063.93" y2="366.38" gradientTransform="matrix(-1 0 0 1 1121.17 0)" xlink:href="#a"/><linearGradient id="bg" x1="1096.7" y1="113.09" x2="1063.93" y2="113.09" gradientTransform="matrix(-1 0 0 1 1121.17 0)" xlink:href="#a"/><linearGradient id="bh" x1="1092.3" y1="120.33" x2="1068.51" y2="120.33" gradientTransform="matrix(-1 0 0 1 1121.17 0)" xlink:href="#a"/><linearGradient id="bi" x1="1092.3" y1="127.57" x2="1068.51" y2="127.57" gradientTransform="matrix(-1 0 0 1 1121.17 0)" xlink:href="#a"/><linearGradient id="bj" x1="1092.3" y1="134.82" x2="1068.51" y2="134.82" gradientTransform="matrix(-1 0 0 1 1121.17 0)" xlink:href="#a"/><linearGradient id="bk" x1="1092.3" y1="142.06" x2="1068.51" y2="142.06" gradientTransform="matrix(-1 0 0 1 1121.17 0)" xlink:href="#a"/><linearGradient id="bl" x1="1096.7" y1="149.3" x2="1063.93" y2="149.3" gradientTransform="matrix(-1 0 0 1 1121.17 0)" xlink:href="#a"/><linearGradient id="bm" x1="1092.45" y1="156.55" x2="1068.66" y2="156.55" gradientTransform="matrix(-1 0 0 1 1121.17 0)" xlink:href="#a"/><linearGradient id="bn" x1="1092.45" y1="163.79" x2="1068.66" y2="163.79" gradientTransform="matrix(-1 0 0 1 1121.17 0)" xlink:href="#a"/><linearGradient id="bo" x1="1092.45" y1="171.03" x2="1068.66" y2="171.03" gradientTransform="matrix(-1 0 0 1 1121.17 0)" xlink:href="#a"/><linearGradient id="bp" x1="1092.45" y1="178.28" x2="1068.66" y2="178.28" gradientTransform="matrix(-1 0 0 1 1121.17 0)" xlink:href="#a"/><linearGradient id="bq" x1="1096.85" y1="185.52" x2="1064.09" y2="185.52" gradientTransform="matrix(-1 0 0 1 1121.17 0)" xlink:href="#a"/><linearGradient id="br" x1="1092.3" y1="192.76" x2="1068.51" y2="192.76" gradientTransform="matrix(-1 0 0 1 1121.17 0)" xlink:href="#a"/><linearGradient id="bs" x1="1092.3" y1="200.01" x2="1068.51" y2="200.01" gradientTransform="matrix(-1 0 0 1 1121.17 0)" xlink:href="#a"/><linearGradient id="bt" x1="1092.3" y1="207.25" x2="1068.51" y2="207.25" gradientTransform="matrix(-1 0 0 1 1121.17 0)" xlink:href="#a"/><linearGradient id="bu" x1="1092.3" y1="214.49" x2="1068.51" y2="214.49" gradientTransform="matrix(-1 0 0 1 1121.17 0)" xlink:href="#a"/><linearGradient id="bv" x1="1096.7" y1="221.74" x2="1063.93" y2="221.74" gradientTransform="matrix(-1 0 0 1 1121.17 0)" xlink:href="#a"/><linearGradient id="bw" x1="1092.3" y1="228.98" x2="1068.51" y2="228.98" gradientTransform="matrix(-1 0 0 1 1121.17 0)" xlink:href="#a"/><linearGradient id="bx" x1="1092.3" y1="236.23" x2="1068.51" y2="236.23" gradientTransform="matrix(-1 0 0 1 1121.17 0)" xlink:href="#a"/><linearGradient id="by" x1="1092.3" y1="243.47" x2="1068.51" y2="243.47" gradientTransform="matrix(-1 0 0 1 1121.17 0)" xlink:href="#a"/><linearGradient id="bz" x1="1092.3" y1="250.71" x2="1068.51" y2="250.71" gradientTransform="matrix(-1 0 0 1 1121.17 0)" xlink:href="#a"/><linearGradient id="bA" x1="1096.7" y1="257.96" x2="1063.93" y2="257.96" gradientTransform="matrix(-1 0 0 1 1121.17 0)" xlink:href="#a"/><clipPath id="bB"><path transform="rotate(-180 40.885 298.3)" fill="none" d="M32.2 112.37h17.37v371.86H32.2z"/></clipPath><linearGradient id="bC" x1="1060.25" y1="486.08" x2="1101.04" y2="486.08" gradientTransform="matrix(1 0 0 -1 -1040.13 972.17)" xlink:href="#c"/></defs><g style="isolation:isolate"><path fill="#a2a2a2" d="M98.24 519.65H85.33l-2.66-55.58h18.23l-2.66 55.58z"/><path fill="#bdbdbd" d="M82.67 448.64h18.24v7.71H82.67z"/><path fill="#696969" d="M82.67 456.36h18.24v7.71H82.67z"/><path fill="#a2a2a2" d="M250.9 519.65H238l-2.68-55.58h18.24l-2.66 55.58z"/><path fill="#bdbdbd" d="M235.32 448.64h18.24v7.71h-18.24z"/><path fill="#696969" d="M235.32 456.36h18.24v7.71h-18.24z"/><path fill="#9e6741" d="M71 439.51h194v12.99H71z"/><rect x="14.65" y="125.24" width="308.13" height="9.26" rx="2.8" ry="2.8" fill="#8e8e8e"/><path d="M322.73 129.32h-308v-2.06a2.37 2.37 0 0 1 2.59-2h303a2.28 2.28 0 0 1 2.51 2s-.16 2.02-.1 2.06z" fill="#a8a8a8"/><path d="M212.15 100.37v.32a2.14 2.14 0 0 1-1.17 1l-.38.08v-.09l.24-.16v-.06c-2.55-6.55-71.5-5-82.21-1.06-1.67.69-1.61 1-1.84 1.39l-.39-.08a1.66 1.66 0 0 1-.84-.81v-.16c.24-1.22 3.23-1.89 4.37-2.17 21.58-4.7 66.51-2.21 76.11-.48 1.89.34 5.52 1.04 6.11 2.28z" fill="#e26d6d"/><path d="M210.87 101.44v.06c-.1.36-1.77.89-2.14 1a38.89 38.89 0 0 1-5.63 1.11c-28.22 4.14-71.94 1.48-76.12-1.62l-.16-.18c.87-4.83 52.68-6.34 74.28-3.51 5.61.7 9.27 1.7 9.77 3.14z" fill="#a81a16"/><g clip-path="url(#d)" fill="#a81a16"><path d="M183.44 95.2v19.59l35.5-12.55S192 91.71 183.44 95.2zm-35.88 14.36l-1-16.3S123.7 95 123.5 100.63s24.06 8.93 24.06 8.93z" style="mix-blend-mode:multiply" opacity=".3"/></g><path d="M258.24 0h-24.17a42.15 42.15 0 0 0-42 42v.08h10.38a31.78 31.78 0 0 1 31.67-30.92h24.13a31.78 31.78 0 0 1 31.69 31.69v32.01h10.37V42a42.15 42.15 0 0 0-42.07-42z" fill="#d22c20"/><path fill="#d22c20" d="M192.47 42.43l-.76 5.6 2.54 2.4 6.56-.83 1.19-5.09-.61-3.77.16-.78h-8.56l-.52 2.47z"/><path d="M203.21 40h-3.08c0 .34-.06.67-.07 1h-5.72v-1h-3.08v1H190v6.88a3.72 3.72 0 0 0 3.73 3.73h6.5a3.71 3.71 0 0 0 3.77-3.77V41h-.82c-.03-.37.01-.7.03-1zm-2.32 4.56v3.33a.66.66 0 0 1-.66.66h-6.5a.69.69 0 0 1-.47-.19.66.66 0 0 1-.19-.46v-3.85h7.82z" fill="#d22c20"/><path fill="#a81a16" d="M203.15 40.99h-11.84v-.97h11.84zm97.34 28.38h-10.64v-.89h10.64z"/><path fill="#d22c20" d="M315.98 492.83h-40.83V92.76h40.83z"/><ellipse cx="295.56" cy="94.09" rx="20.46" ry="21.68" fill="#d22c20"/><path fill="#a81a16" d="M275.39 90.96l40.35-.13-.39-1.69h-39.61l-.35 1.82z"/><path transform="rotate(-180 294.94 288.95)" fill="url(#b)" d="M277.75 90.95h34.39v395.99h-34.39z"/><path fill="url(#a)" d="M278.61 329.14h33.91v1.59h-33.91z"/><path fill="url(#e)" d="M283.26 336.38h24.62v1.59h-24.62z"/><path fill="url(#f)" d="M283.26 343.62h24.62v1.59h-24.62z"/><path fill="url(#g)" d="M283.26 350.87h24.62v1.59h-24.62z"/><path fill="url(#h)" d="M283.26 358.11h24.62v1.59h-24.62z"/><path fill="url(#i)" d="M278.61 365.35h33.91v1.59h-33.91z"/><path fill="url(#j)" d="M283.41 372.6h24.62v1.59h-24.62z"/><path fill="url(#k)" d="M283.41 379.84h24.62v1.59h-24.62z"/><path fill="url(#l)" d="M283.41 387.08h24.62v1.59h-24.62z"/><path fill="url(#m)" d="M283.41 394.33h24.62v1.59h-24.62z"/><path fill="url(#n)" d="M278.77 401.57h33.91v1.59h-33.91z"/><path fill="url(#o)" d="M283.26 408.81h24.62v1.59h-24.62z"/><path fill="url(#p)" d="M283.26 416.06h24.62v1.59h-24.62z"/><path fill="url(#q)" d="M283.26 423.3h24.62v1.59h-24.62z"/><path fill="url(#r)" d="M283.26 430.54h24.62v1.59h-24.62z"/><path fill="url(#s)" d="M278.61 437.79h33.91v1.59h-33.91z"/><path fill="url(#t)" d="M283.26 445.03h24.62v1.59h-24.62z"/><path fill="url(#u)" d="M283.26 452.28h24.62v1.59h-24.62z"/><path fill="url(#v)" d="M283.26 459.52h24.62v1.59h-24.62z"/><path fill="url(#w)" d="M283.26 466.76h24.62v1.59h-24.62z"/><path fill="url(#x)" d="M278.61 474.01h33.91v1.59h-33.91z"/><path fill="url(#y)" d="M278.61 220.71h33.91v1.59h-33.91z"/><path fill="url(#z)" d="M283.26 227.96h24.62v1.59h-24.62z"/><path fill="url(#A)" d="M283.26 235.2h24.62v1.59h-24.62z"/><path fill="url(#B)" d="M283.26 242.44h24.62v1.59h-24.62z"/><path fill="url(#C)" d="M283.26 249.69h24.62v1.59h-24.62z"/><path fill="url(#D)" d="M278.61 256.93h33.91v1.59h-33.91z"/><path fill="url(#E)" d="M283.41 264.17h24.62v1.59h-24.62z"/><path fill="url(#F)" d="M283.41 271.42h24.62v1.59h-24.62z"/><path fill="url(#G)" d="M283.41 278.66h24.62v1.59h-24.62z"/><path fill="url(#H)" d="M283.41 285.9h24.62v1.59h-24.62z"/><path fill="url(#I)" d="M278.77 293.15h33.91v1.59h-33.91z"/><path fill="url(#J)" d="M283.26 300.39h24.62v1.59h-24.62z"/><path fill="url(#K)" d="M283.26 307.64h24.62v1.59h-24.62z"/><path fill="url(#L)" d="M283.26 314.88h24.62v1.59h-24.62z"/><path fill="url(#M)" d="M283.26 322.12h24.62v1.59h-24.62z"/><path fill="url(#N)" d="M278.61 329.37h33.91v1.59h-33.91z"/><path fill="url(#O)" d="M283.26 336.61h24.62v1.59h-24.62z"/><path fill="url(#P)" d="M283.26 343.85h24.62v1.59h-24.62z"/><path fill="url(#Q)" d="M283.26 351.1h24.62v1.59h-24.62z"/><path fill="url(#R)" d="M283.26 358.34h24.62v1.59h-24.62z"/><path fill="url(#S)" d="M278.61 365.58h33.91v1.59h-33.91z"/><path fill="url(#T)" d="M278.61 112.29h33.91v1.59h-33.91z"/><path fill="url(#U)" d="M283.26 119.53h24.62v1.59h-24.62z"/><path fill="url(#V)" d="M283.26 126.78h24.62v1.59h-24.62z"/><path fill="url(#W)" d="M283.26 134.02h24.62v1.59h-24.62z"/><path fill="url(#X)" d="M283.26 141.26h24.62v1.59h-24.62z"/><path fill="url(#Y)" d="M278.61 148.51h33.91v1.59h-33.91z"/><path fill="url(#Z)" d="M283.41 155.75h24.62v1.59h-24.62z"/><path fill="url(#aa)" d="M283.41 163h24.62v1.59h-24.62z"/><path fill="url(#ab)" d="M283.41 170.24h24.62v1.59h-24.62z"/><path fill="url(#ac)" d="M283.41 177.48h24.62v1.59h-24.62z"/><path fill="url(#ad)" d="M278.77 184.73h33.91v1.59h-33.91z"/><path fill="url(#ae)" d="M283.26 191.97h24.62v1.59h-24.62z"/><path fill="url(#af)" d="M283.26 199.21h24.62v1.59h-24.62z"/><path fill="url(#ag)" d="M283.26 206.46h24.62v1.59h-24.62z"/><path fill="url(#ah)" d="M283.26 213.7h24.62v1.59h-24.62z"/><path fill="url(#ai)" d="M278.61 220.94h33.91v1.59h-33.91z"/><path fill="url(#aj)" d="M283.26 228.19h24.62v1.59h-24.62z"/><path fill="url(#ak)" d="M283.26 235.43h24.62v1.59h-24.62z"/><path fill="url(#al)" d="M283.26 242.67h24.62v1.59h-24.62z"/><path fill="url(#am)" d="M283.26 249.92h24.62v1.59h-24.62z"/><path fill="url(#an)" d="M278.61 257.16h33.91v1.59h-33.91z"/><path d="M303.89 484.22V107.58c0-5.46-3.79-9.92-8.42-9.92h-.56c-4.63 0-8.41 4.46-8.41 9.92v376.64z" fill="#9be0ff"/><g clip-path="url(#ao)"><path fill="#fff" d="M286.45 438.99h17.57V809.4h-17.57z"/><path d="M291.89 812.75V441.38h6.22v371.37h-6.24.02z" fill="#8e8e8e"/><path d="M294.63 441.38v371.26h-1.39c-.76 0-1.38-1.4-1.38-3.12V441.38zm-8.12-2.88h17.39v2.07h-17.39z" fill="#a8a8a8"/><path fill="#8e8e8e" d="M286.5 440.54h17.38v2.07H286.5z"/></g><path fill="#d22c20" d="M319.29 498.85h-47.36v-11.37h47.36z"/><path d="M259.3 519.5c.71-15.38 16.73-27.67 36.4-27.67s35.69 12.29 36.41 27.67z" fill="#d22c20"/><path fill="#a81a16" d="M318.76 498.66h-46.57v-3.19h46.57z"/><path fill="url(#c)" d="M275.18 484.33h40.79v3.5h-40.79z"/><path d="M77.85 0H102a42.15 42.15 0 0 1 42 42v.08h-10.32A31.79 31.79 0 0 0 102 11.19H77.87a31.79 31.79 0 0 0-31.69 31.69v31.98H35.83V42A42.15 42.15 0 0 1 77.85 0z" fill="#d22c20"/><path fill="#d22c20" d="M143.62 42.43l.76 5.6-2.53 2.4-6.57-.83-1.18-5.09.6-3.77-.16-.78h8.57l.51 2.47z"/><path d="M133 41h-.82v6.87a3.72 3.72 0 0 0 2.82 3.61 3.63 3.63 0 0 0 .87.1h6.5a3.74 3.74 0 0 0 3.74-3.73V41h-1.28c0-.34 0-.68-.05-1h-3.08c0 .34 0 .68.05 1H136c0-.34 0-.67-.07-1h-3.09c.07.3.16.63.16 1zm2.25 3.08H143v3.81a.66.66 0 0 1-.19.46.67.67 0 0 1-.47.19h-6.5a.65.65 0 0 1-.65-.66v-3.8z" fill="#d22c20"/><path fill="#a81a16" d="M132.95 40.02h11.84v.97h-11.84zM35.61 68.47h10.64v.89H35.61z"/><path fill="#d22c20" d="M20.11 92.76h40.83v400.07H20.11z"/><ellipse cx="40.53" cy="94.09" rx="20.46" ry="21.68" fill="#d22c20"/><path fill="#a81a16" d="M60.71 90.96l-40.36-.13.4-1.69h39.6l.36 1.82z"/><path fill="url(#ap)" d="M23.96 90.95h34.39v395.99H23.96z"/><path fill="url(#aq)" d="M23.58 329.14h33.91v1.59H23.58z"/><path fill="url(#ar)" d="M28.22 336.38h24.62v1.59H28.22z"/><path fill="url(#as)" d="M28.22 343.62h24.62v1.59H28.22z"/><path fill="url(#at)" d="M28.22 350.87h24.62v1.59H28.22z"/><path fill="url(#au)" d="M28.22 358.11h24.62v1.59H28.22z"/><path fill="url(#av)" d="M23.58 365.35h33.91v1.59H23.58z"/><path fill="url(#aw)" d="M28.07 372.6h24.62v1.59H28.07z"/><path fill="url(#ax)" d="M28.07 379.84h24.62v1.59H28.07z"/><path fill="url(#ay)" d="M28.07 387.08h24.62v1.59H28.07z"/><path fill="url(#az)" d="M28.07 394.33h24.62v1.59H28.07z"/><path fill="url(#aA)" d="M23.42 401.57h33.91v1.59H23.42z"/><path fill="url(#aB)" d="M28.22 408.81h24.62v1.59H28.22z"/><path fill="url(#aC)" d="M28.22 416.06h24.62v1.59H28.22z"/><path fill="url(#aD)" d="M28.22 423.3h24.62v1.59H28.22z"/><path fill="url(#aE)" d="M28.22 430.54h24.62v1.59H28.22z"/><path fill="url(#aF)" d="M23.58 437.79h33.91v1.59H23.58z"/><path fill="url(#aG)" d="M28.22 445.03h24.62v1.59H28.22z"/><path fill="url(#aH)" d="M28.22 452.28h24.62v1.59H28.22z"/><path fill="url(#aI)" d="M28.22 459.52h24.62v1.59H28.22z"/><path fill="url(#aJ)" d="M28.22 466.76h24.62v1.59H28.22z"/><path fill="url(#aK)" d="M23.58 474.01h33.91v1.59H23.58z"/><path fill="url(#aL)" d="M23.58 220.71h33.91v1.59H23.58z"/><path fill="url(#aM)" d="M28.22 227.96h24.62v1.59H28.22z"/><path fill="url(#aN)" d="M28.22 235.2h24.62v1.59H28.22z"/><path fill="url(#aO)" d="M28.22 242.44h24.62v1.59H28.22z"/><path fill="url(#aP)" d="M28.22 249.69h24.62v1.59H28.22z"/><path fill="url(#aQ)" d="M23.58 256.93h33.91v1.59H23.58z"/><path fill="url(#aR)" d="M28.07 264.17h24.62v1.59H28.07z"/><path fill="url(#aS)" d="M28.07 271.42h24.62v1.59H28.07z"/><path fill="url(#aT)" d="M28.07 278.66h24.62v1.59H28.07z"/><path fill="url(#aU)" d="M28.07 285.9h24.62v1.59H28.07z"/><path fill="url(#aV)" d="M23.42 293.15h33.91v1.59H23.42z"/><path fill="url(#aW)" d="M28.22 300.39h24.62v1.59H28.22z"/><path fill="url(#aX)" d="M28.22 307.64h24.62v1.59H28.22z"/><path fill="url(#aY)" d="M28.22 314.88h24.62v1.59H28.22z"/><path fill="url(#aZ)" d="M28.22 322.12h24.62v1.59H28.22z"/><path fill="url(#ba)" d="M23.58 329.37h33.91v1.59H23.58z"/><path fill="url(#bb)" d="M28.22 336.61h24.62v1.59H28.22z"/><path fill="url(#bc)" d="M28.22 343.85h24.62v1.59H28.22z"/><path fill="url(#bd)" d="M28.22 351.1h24.62v1.59H28.22z"/><path fill="url(#be)" d="M28.22 358.34h24.62v1.59H28.22z"/><path fill="url(#bf)" d="M23.58 365.58h33.91v1.59H23.58z"/><path fill="url(#bg)" d="M23.58 112.29h33.91v1.59H23.58z"/><path fill="url(#bh)" d="M28.22 119.53h24.62v1.59H28.22z"/><path fill="url(#bi)" d="M28.22 126.78h24.62v1.59H28.22z"/><path fill="url(#bj)" d="M28.22 134.02h24.62v1.59H28.22z"/><path fill="url(#bk)" d="M28.22 141.26h24.62v1.59H28.22z"/><path fill="url(#bl)" d="M23.58 148.51h33.91v1.59H23.58z"/><path fill="url(#bm)" d="M28.07 155.75h24.62v1.59H28.07z"/><path fill="url(#bn)" d="M28.07 163h24.62v1.59H28.07z"/><path fill="url(#bo)" d="M28.07 170.24h24.62v1.59H28.07z"/><path fill="url(#bp)" d="M28.07 177.48h24.62v1.59H28.07z"/><path fill="url(#bq)" d="M23.42 184.73h33.91v1.59H23.42z"/><path fill="url(#br)" d="M28.22 191.97h24.62v1.59H28.22z"/><path fill="url(#bs)" d="M28.22 199.21h24.62v1.59H28.22z"/><path fill="url(#bt)" d="M28.22 206.46h24.62v1.59H28.22z"/><path fill="url(#bu)" d="M28.22 213.7h24.62v1.59H28.22z"/><path fill="url(#bv)" d="M23.58 220.94h33.91v1.59H23.58z"/><path fill="url(#bw)" d="M28.22 228.19h24.62v1.59H28.22z"/><path fill="url(#bx)" d="M28.22 235.43h24.62v1.59H28.22z"/><path fill="url(#by)" d="M28.22 242.67h24.62v1.59H28.22z"/><path fill="url(#bz)" d="M28.22 249.92h24.62v1.59H28.22z"/><path fill="url(#bA)" d="M23.58 257.16h33.91v1.59H23.58z"/><path d="M32.2 484.22V107.58c0-5.46 3.79-9.92 8.42-9.92h.56c4.63 0 8.42 4.46 8.42 9.92v376.64z" fill="#9be0ff"/><g clip-path="url(#bB)"><path fill="#fff" d="M49.64 808.4H32.07V437.99h17.57z"/><path d="M37.97 811.75V440.37h6.22v371.38h-6.24z" fill="#8e8e8e"/><path d="M41.46 440.38v371.26h1.39c.77 0 1.39-1.4 1.39-3.12V440.38zm8.13-.81H32.2v-2.07h17.39z" fill="#a8a8a8"/><path fill="#8e8e8e" d="M49.59 441.62H32.21v-2.07h17.38z"/></g><path fill="#d22c20" d="M16.8 487.48h47.36v11.37H16.8z"/><path d="M76.79 519.5c-.71-15.38-16.73-27.67-36.4-27.67S4.7 504.12 4 519.5z" fill="#d22c20"/><path fill="#a81a16" d="M17.33 495.46H63.9v3.19H17.33z"/><path transform="rotate(-180 40.52 486.085)" fill="url(#bC)" d="M20.12 484.33h40.79v3.5H20.12z"/><path fill="none" d="M0 474.17h112.67v374H0z"/><path d="M132 469.33s-1.46 7.68-.93 7.95 1.46-.27 1.46-.27.19 5.9.79 6.09l2.12.67s-1.06 5.82-.4 6a8.81 8.81 0 0 1 2.25 1.72s-.06 3.31.27 3.31 2.78.53 2.78.53-.73 3.11 0 3.44a27.28 27.28 0 0 0 3.15.86l2.28 3.64 6.35.2 1.38-4.45s1.8-1.84 2.33-2.24-1.19-3.31-1.19-3.31a21.31 21.31 0 0 1 .79-2.12c.33-.66-1.85-3.57-1.85-3.57s.79-1.66 1.06-2.38-1.72-4.51-1.72-4.51 1.32-.33 1.45-1.19-2.78-3.44-2.78-3.44a17.75 17.75 0 0 0 1.06-2.78c.13-.8-3.18-4.44-3.18-4.44z" fill="#fff"/><path d="M155.3 500.49c-.05-2.25-.22-4.22-.6-2.87s-1.78 1.39-2.51 1.32a23.27 23.27 0 0 0-4.07-.33c-.58 0-2.62.81-3.34.61s-1.61-1.17-2-1c-1.29.78-10.4 10.67-10.4 10.67l-.23.25.63 3.12.58 2.87a13 13 0 0 0 1.19.19l5.53-.74 3.23-1.56 12-5.8v-6.76z" fill="#161616"/><path d="M132 513.24v.35a.84.84 0 0 1 0-.33z" fill="#e2e2de"/><path d="M143.76 512.25a1.16 1.16 0 0 1-.41.8c-.9.89-3 1.71-3.74 2.39h-3.84c-.43 0-.83-.05-1.18-.09s-.85-.12-1.19-.19a4.82 4.82 0 0 1-1.55-.59l-.19-.29a3.92 3.92 0 0 1-.57-2 4.84 4.84 0 0 1 .19-1.38 4.67 4.67 0 0 1 .91-1.7l.23-.25a5.9 5.9 0 0 1 3.56-1.67 9 9 0 0 1 1.19-.08 8.46 8.46 0 0 1 3 .53 5.17 5.17 0 0 1 3.54 4 4.53 4.53 0 0 1 .05.52z"/><path d="M149.62 509.1a17.72 17.72 0 0 1-5.89 2.63 19.14 19.14 0 0 1-4.61.56h-2.38c-3.73 0-5-.78-5.46-1.41a4.84 4.84 0 0 0-.19 1.38v1.29a1.26 1.26 0 0 0 .42.71 2 2 0 0 0 .34.27 4.82 4.82 0 0 0 1.55.59c.34.07.74.14 1.19.19s.89.07 1.38.09c1.29 0 2.6.06 2.6.06a20.29 20.29 0 0 0 11.48-3.46l4.16-2.87a2.43 2.43 0 0 0 1.09-1.9v-2.07z"/><path d="M205.59 469.33s1.45 7.68.92 7.95-1.45-.27-1.45-.27-.2 5.9-.8 6.09l-2.12.67s1.06 5.82.4 6a8.81 8.81 0 0 0-2.25 1.72s.07 3.31-.27 3.31-2.78.53-2.78.53.73 3.11 0 3.44a26.75 26.75 0 0 1-3.15.86l-2.28 3.64-6.35.2-1.37-4.47s-1.81-1.84-2.34-2.24 1.19-3.31 1.19-3.31a21.31 21.31 0 0 0-.79-2.12c-.33-.66 1.85-3.57 1.85-3.57s-.79-1.66-1.06-2.38 1.72-4.51 1.72-4.51-1.32-.33-1.45-1.19 2.78-3.44 2.78-3.44a17.75 17.75 0 0 1-1.06-2.78c-.13-.8 3.18-4.44 3.18-4.44z" fill="#fff"/><path d="M182.05 500.18c0-2.25.22-4.22.61-2.87.23 1.38 1.78 1.39 2.5 1.32a23.35 23.35 0 0 1 4.07-.33c.58 0 2.62.81 3.34.6s1.61-1.16 2-.95c1.29.78 10.41 10.67 10.41 10.67l.22.25-.63 3.12-.58 2.86a9.77 9.77 0 0 1-1.19.2l-5.53-.74-3.27-1.56-11.94-5.75v-6.77z" fill="#161616"/><path d="M205.38 512.94v.33a.78.78 0 0 0 0-.32z" fill="#e2e2de"/><path d="M193.59 512a1.19 1.19 0 0 0 .42.8c.9.89 3 1.71 3.73 2.38h3.84c.43 0 .83 0 1.18-.08a9.77 9.77 0 0 0 1.19-.2 4.75 4.75 0 0 0 1.56-.59l.18-.29a4 4 0 0 0 .58-2 4.85 4.85 0 0 0-.2-1.38 4.67 4.67 0 0 0-.91-1.7l-.22-.25a5.93 5.93 0 0 0-3.57-1.67 8.87 8.87 0 0 0-1.18-.08 8.48 8.48 0 0 0-3 .53 5.17 5.17 0 0 0-3.54 4 4.53 4.53 0 0 0-.06.53z"/><path d="M187.73 508.8a18 18 0 0 0 5.89 2.63 19.14 19.14 0 0 0 4.61.56h2.39c3.72 0 5-.78 5.45-1.41a4.85 4.85 0 0 1 .2 1.38v1.3a1.39 1.39 0 0 1-.42.71 2.34 2.34 0 0 1-.34.26 4.75 4.75 0 0 1-1.56.59 9.77 9.77 0 0 1-1.19.2c-.41 0-.89.06-1.37.08-1.3.06-2.61.07-2.61.07a20.29 20.29 0 0 1-11.48-3.48l-4.16-2.87a2.42 2.42 0 0 1-1.08-1.9.15.15 0 0 1 0-.07v-2z"/><path d="M201.53 414.81c-.19-2.27-.72-1.86-.72-1.86-20.14 6.72-62.22.27-62.22.27s-.59-2.54-.37.66c27.05 5.12 43.54 3.29 63.31.93z" fill="#ca2026"/><path d="M201.53 412.34c-.19-2.27-.72-1.86-.72-1.86-20.14 6.72-62.22.27-62.22.27s-.59-2.54-.37.66c27.05 5.13 43.54 3.29 63.31.93z" fill="#fff"/><path d="M201.53 409.87c-.19-2.27-.72-1.86-.72-1.86-20.14 6.72-62.22.27-62.22.27s-.59-2.54-.37.66c27.05 5.12 43.54 3.29 63.31.93z" fill="#ca2026"/><path d="M140.74 409.29l-2-5v-5.78l.06-1c.16-2.69.47-5.42.85-8.15s.86-5.47 1.38-8.2 1.1-5.46 1.73-8.17 1.31-5.42 2-8.1 1.5-5.36 2.31-8 1.69-5.28 2.6-7.88 1.88-5.17 2.89-7.71l-18.26-4.95c-.79 2.88-7.49 36.39-8.57 41.55-1.19 5.66-1.19 14.6-1.09 17.38s1.09 9.23 2.08 11.52 2 4.37 2 4.37z"/><path d="M147.64 419.91c1.59-4.39-3-9.9-7.1-11.88-3.91-1.66-6.09-2-11.32 2.51-.86.8-1.79 2.39-1.84 5.27-.12 6.45 4.87 10.34 4.45 7.92s.08-2.44.08-2.44 0 1.84 2.71 4 3.34 1.29 3.34 1.29c3.17 2.39 2.27-2.17 2.27-2.17s3 4.13 3.15.46.79-8.9.79-8.9c-.89 4.88 3.47 3.94 3.47 3.94z" fill="#fff"/><path d="M146.24 330.35a8.9 8.9 0 0 0-7.14.28 9.24 9.24 0 0 0-2.91 2.23 9.57 9.57 0 0 0-1.9 3.34 9.86 9.86 0 0 0-.44 3.81 9.25 9.25 0 0 0 1 3.49 9.06 9.06 0 0 0 5.57 4.47 9.65 9.65 0 0 0 7.08-.76 9.22 9.22 0 0 0 2.73-2.15 8.94 8.94 0 0 0 2.15-6.58 9.33 9.33 0 0 0-.94-3.33 9.75 9.75 0 0 0-5.2-4.8z"/><path fill="#ca2026" d="M125.05 380.34l15.62 1.85.27-1.05-15.66-1.91-.23 1.11z"/><path fill="#fff" d="M125.49 378.31l15.41 1.95.24-.93-15.33-2.21-.32 1.19z"/><path fill="#ca2026" d="M126.04 376.26l15.17 2.2.25-.93-15.02-2.44-.4 1.17z"/><path d="M201.07 409.15l2-4.94a3.27 3.27 0 0 0 0-.45v-5.33l-.06-1c-.16-2.69-.46-5.42-.85-8.16s-.85-5.47-1.37-8.2-1.1-5.45-1.74-8.16-1.3-5.42-2-8.1-1.5-5.36-2.32-8-1.68-5.28-2.59-7.88-1.88-5.17-2.89-7.71l18.25-4.95c.8 2.88 7.49 36.39 8.58 41.54 1.19 5.66 1.19 14.6 1.09 17.38s-1.09 9.24-2.09 11.52-2 4.37-2 4.37z"/><path d="M194.17 419.78c-1.59-4.4 3-9.9 7.09-11.89 3.91-1.65 6.09-2 11.33 2.52.86.8 1.78 2.38 1.84 5.27.12 6.45-4.87 10.34-4.45 7.92s-.09-2.45-.09-2.45 0 1.85-2.71 4.06-3.34 1.29-3.34 1.29c-3.17 2.39-2.26-2.17-2.26-2.17s-3 4.13-3.15.46-.8-8.9-.8-8.9c.89 4.82-3.46 3.89-3.46 3.89z" fill="#fff"/><path d="M195.57 330.22a8.9 8.9 0 0 1 7.14.28 9.32 9.32 0 0 1 2.91 2.23 9.55 9.55 0 0 1 2.33 7.15 9.42 9.42 0 0 1-1 3.49 9.08 9.08 0 0 1-5.58 4.47 9.62 9.62 0 0 1-7.07-.76 9.43 9.43 0 0 1-2.74-2.15 8.83 8.83 0 0 1-1.74-3.08 8.61 8.61 0 0 1-.4-3.5 9.32 9.32 0 0 1 .93-3.33 9.73 9.73 0 0 1 5.22-4.8z"/><path fill="#ca2026" d="M216.75 380.21l-15.62 1.84-.26-1.04 15.65-1.91.23 1.11z"/><path fill="#fff" d="M216.32 378.18l-15.41 1.95-.25-.93 15.33-2.21.33 1.19z"/><path fill="#ca2026" d="M215.77 376.13l-15.17 2.2-.25-.93 15.02-2.44.4 1.17z"/><path d="M180.46 262l12.66-4.41c2.65-1 12.9 4.06 12 6.75-2.91 9.27-6.09 20.33-16.74 26-6.2-17.07-7.92-28.34-7.92-28.34z" fill="#161616"/><path d="M181.26 266.06l15.1-6.47c2.72-1.16 8.36 2.8 7.55 5.5-2.28 7.65-5.16 17.18-15.48 25.21-6.25-17.03-7.17-24.24-7.17-24.24z" fill="#fff"/><path d="M182.66 279.07s13.07-16.75 15.51-12.74c2.83 4.67-15.51 12.74-15.51 12.74z" fill="#161616"/><path d="M193.19 257.41c-6.29 1.87 7 12.71 12.11 13.44 4.92.7 2.09-5.79 2.09-7.65s-12.67-6.2-14.2-5.79zm-39.81 5.21l-20.75-9.46a3.55 3.55 0 0 0-5 3.75c1.41 9.45 5.32 26.78 15.47 33.32 7.63-16.47 10.28-27.61 10.28-27.61z" fill="#161616"/><path d="M152.24 266.65l-18.61-9.87c-2.61-1.38-4.72-.95-4.5 1.86.58 7.76 3.47 25.1 14 31.59 7.6-16.47 9.11-23.58 9.11-23.58z" fill="#fff"/><path d="M149.78 279.51s-11.66-17.77-14.42-14c-3.2 4.49 14.42 14 14.42 14z" fill="#161616"/><path d="M210.33 305.14c.55-7.69-8.21-17.34-8.21-17.34-2.64-8.74-3.44-11.92-10.06-18.81s-15-10.22-22.18-10.22h-2.6c-7.19 0-16.66 1.35-25.8 13-3.09 3.94-5.46 9-6.49 17.21 0 0-9 7.28-8.87 16 .16 10.75 16.68 28.6 43 28.2 27.58-.38 40.55-18.64 41.21-28.04z" fill="#1c1c1c"/><path d="M198.15 291.5c-1.46-.92-2.78-5.95-2.78-5.95s-3.13-18.48-17.48-17.75c-4.85.25-6.32 4.74-9.6 4.84-3.27-.1-4.74-4.59-9.6-4.84-14.34-.73-17.47 17.75-17.47 17.75s-1.32 5-2.78 5.95c-4.6 2.9-8.61 5.43-8.74 13s14 25.23 39.39 25.19S207 312 206.89 304.48s-4.14-10.08-8.74-12.98z" fill="#fff"/><path d="M184.52 290.61a4.51 4.51 0 1 0-4.51 4.52 4.51 4.51 0 0 0 4.51-4.52z" fill="#278fc3"/><path d="M182.59 290.61a2.58 2.58 0 1 0-2.58 2.58 2.57 2.57 0 0 0 2.58-2.58z" fill="#1c1c1c"/><path d="M189.23 287c1 3.1-.86 5.08-5.07 6.45s-8.34.6-8.93-.79c-.89-2.07-.4-8.45 6-9 5.2-.49 7.4 1.49 8 3.34z" fill="none" stroke="#000" stroke-miterlimit="10"/><path d="M152.73 290.5a4.51 4.51 0 1 1 4.51 4.51 4.51 4.51 0 0 1-4.51-4.51z" fill="#278fc3"/><path d="M154.66 290.5a2.58 2.58 0 1 1 2.58 2.58 2.57 2.57 0 0 1-2.58-2.58z" fill="#1c1c1c"/><path d="M147.74 287c-1 3.1.85 5.08 5.06 6.45s8.34.6 8.94-.79c.88-2.07.4-8.45-6-9-5.21-.49-7.41 1.49-8 3.34z" fill="none" stroke="#000" stroke-miterlimit="10"/><path d="M188 282.18a60.24 60.24 0 0 0-11.62-6.58 10 10 0 0 1 11.62 6.58zm-41.15.43a60.23 60.23 0 0 1 11.28-7.15 10 10 0 0 0-11.28 7.15z"/><path d="M151.28 307.26c1.44 2.89 1.9 9.73 16.18 9.93 15.73.22 15.48-6.85 16.92-9.74z" fill="#fff" stroke="#000" stroke-miterlimit="10"/><path d="M154.31 313.75c0-.07-3.11.28-3.23.3a1.07 1.07 0 0 0-.85.45 3 3 0 0 0-.12.43.41.41 0 0 1-.3.3.34.34 0 0 1-.35-.19 1.08 1.08 0 0 1-.11-.4c0-.21-.06-.41-.08-.62a.85.85 0 0 1 0-.5.33.33 0 0 1 .4-.2c.19.09.23.39.43.43a.38.38 0 0 0 .31-.14c.46-.4-.79-3-1.19-3.58-.17-.27 2.63 1.55 2.78 1.27l.26-.47c.05-.11.27-.2.27-.32-.05 1.21 1.85 2.03 1.78 3.24zm28.05-1.09c0-.07 2.9.8 3 .82a1 1 0 0 1 .84.45 2.92 2.92 0 0 1 .13.42.42.42 0 0 0 .29.31.35.35 0 0 0 .35-.19 1 1 0 0 0 .12-.41c0-.2 0-.4.08-.61a1.05 1.05 0 0 0 0-.5.34.34 0 0 0-.41-.2c-.19.09-.22.39-.42.43a.41.41 0 0 1-.34-.18c-.45-.4.81-2.37 1.41-3.16.19-.26-2.84 1.12-3 .84s-.17-.3-.25-.46-.2-.16-.21-.28c.05 1.25-1.66 1.51-1.59 2.72z"/><path d="M188.35 303.55s.8-2.62-3.26-7.57-10.25-8.45-15.61-8.45h-2.75c-5.36 0-12.32 4.17-16.52 9.4a14.84 14.84 0 0 0-2.9 7.95c1.52 4.84 3.45 7.13 4.43 7.74s6.07.17 9.07-.72a31.85 31.85 0 0 1 7.68-1.2c2.93-.25 6.59.62 9 1.13s6.41.7 7.28.13c1.93-1.26 3.33-4.46 3.58-8.41z" fill="#fff" stroke="#000" stroke-miterlimit="10"/><path d="M174.61 295a11.32 11.32 0 0 0-2.5-1.08 10.65 10.65 0 0 0-6.83 0 11.32 11.32 0 0 0-2.5 1.08 6.45 6.45 0 0 0-2.86 5.78 5.36 5.36 0 0 0 .75 2.82c1 1.3 2.34-.55 4.22.15 1.48.55 1.4 2.2 3.82 2.25 2.17 0 2.12-2.29 3.95-2.76s2.46 1.49 4.06.36c.86-.61.91-2 .87-2.74a7.46 7.46 0 0 0-2.98-5.86z" fill="#1c1c1c"/></g></svg>