<svg xmlns="http://www.w3.org/2000/svg" xmlns:xlink="http://www.w3.org/1999/xlink" viewBox="0 0 322.79 848.17"><defs><clipPath id="b"><path d="M210.87 101.44v.06c-.1.36-1.77.89-2.14 1a38.89 38.89 0 0 1-5.63 1.11c-28.22 4.14-71.94 1.48-76.12-1.62l-.16-.18c.87-4.83 52.68-6.34 74.28-3.51 5.61.7 9.27 1.7 9.77 3.14z" fill="#a81a16"/></clipPath><linearGradient id="c" x1="-368.75" y1="288.95" x2="-334.36" y2="288.95" gradientTransform="translate(392.71)" gradientUnits="userSpaceOnUse"><stop offset=".01" stop-color="#d22c20"/><stop offset=".31" stop-color="#e7342e"/><stop offset=".51" stop-color="#ef3733"/><stop offset=".72" stop-color="#e6332d"/><stop offset="1" stop-color="#d22c20"/></linearGradient><linearGradient id="a" x1="497.62" y1="329.93" x2="464.86" y2="329.93" gradientTransform="matrix(-1 0 0 1 522.09 0)" gradientUnits="userSpaceOnUse"><stop offset=".05" stop-color="#d3d2d2"/><stop offset=".37" stop-color="#9a9a9c"/><stop offset=".64" stop-color="#9a9a9c"/><stop offset="1" stop-color="#d1d6d5"/></linearGradient><linearGradient id="d" x1="493.23" y1="337.17" x2="469.44" y2="337.17" xlink:href="#a"/><linearGradient id="e" x1="493.23" y1="344.42" x2="469.44" y2="344.42" xlink:href="#a"/><linearGradient id="f" x1="493.23" y1="351.66" x2="469.44" y2="351.66" xlink:href="#a"/><linearGradient id="g" x1="493.23" y1="358.9" x2="469.44" y2="358.9" xlink:href="#a"/><linearGradient id="h" x1="497.62" y1="366.15" x2="464.86" y2="366.15" xlink:href="#a"/><linearGradient id="i" x1="493.38" y1="373.39" x2="469.59" y2="373.39" xlink:href="#a"/><linearGradient id="j" x1="493.38" y1="380.63" x2="469.59" y2="380.63" xlink:href="#a"/><linearGradient id="k" x1="493.38" y1="387.88" x2="469.59" y2="387.88" xlink:href="#a"/><linearGradient id="l" x1="493.38" y1="395.12" x2="469.59" y2="395.12" xlink:href="#a"/><linearGradient id="m" x1="497.78" y1="402.37" x2="465.01" y2="402.37" xlink:href="#a"/><linearGradient id="n" x1="493.23" y1="409.61" x2="469.44" y2="409.61" xlink:href="#a"/><linearGradient id="o" x1="493.23" y1="416.85" x2="469.44" y2="416.85" xlink:href="#a"/><linearGradient id="p" x1="493.23" y1="424.1" x2="469.44" y2="424.1" xlink:href="#a"/><linearGradient id="q" x1="493.23" y1="431.34" x2="469.44" y2="431.34" xlink:href="#a"/><linearGradient id="r" x1="497.62" y1="438.58" x2="464.86" y2="438.58" xlink:href="#a"/><linearGradient id="s" x1="493.23" y1="445.83" x2="469.44" y2="445.83" xlink:href="#a"/><linearGradient id="t" x1="493.23" y1="453.07" x2="469.44" y2="453.07" xlink:href="#a"/><linearGradient id="u" x1="493.23" y1="460.31" x2="469.44" y2="460.31" xlink:href="#a"/><linearGradient id="v" x1="493.23" y1="467.56" x2="469.44" y2="467.56" xlink:href="#a"/><linearGradient id="w" x1="497.62" y1="474.8" x2="464.86" y2="474.8" xlink:href="#a"/><linearGradient id="x" x1="497.62" y1="221.51" x2="464.86" y2="221.51" xlink:href="#a"/><linearGradient id="y" x1="493.23" y1="228.75" x2="469.44" y2="228.75" xlink:href="#a"/><linearGradient id="z" x1="493.23" y1="235.99" x2="469.44" y2="235.99" xlink:href="#a"/><linearGradient id="A" x1="493.23" y1="243.24" x2="469.44" y2="243.24" xlink:href="#a"/><linearGradient id="B" x1="493.23" y1="250.48" x2="469.44" y2="250.48" xlink:href="#a"/><linearGradient id="C" x1="497.62" y1="257.73" x2="464.86" y2="257.73" xlink:href="#a"/><linearGradient id="D" x1="493.38" y1="264.97" x2="469.59" y2="264.97" xlink:href="#a"/><linearGradient id="E" x1="493.38" y1="272.21" x2="469.59" y2="272.21" xlink:href="#a"/><linearGradient id="F" x1="493.38" y1="279.46" x2="469.59" y2="279.46" xlink:href="#a"/><linearGradient id="G" x1="493.38" y1="286.7" x2="469.59" y2="286.7" xlink:href="#a"/><linearGradient id="H" x1="497.78" y1="293.94" x2="465.01" y2="293.94" xlink:href="#a"/><linearGradient id="I" x1="493.23" y1="301.19" x2="469.44" y2="301.19" xlink:href="#a"/><linearGradient id="J" x1="493.23" y1="308.43" x2="469.44" y2="308.43" xlink:href="#a"/><linearGradient id="K" x1="493.23" y1="315.67" x2="469.44" y2="315.67" xlink:href="#a"/><linearGradient id="L" x1="493.23" y1="322.92" x2="469.44" y2="322.92" xlink:href="#a"/><linearGradient id="M" x1="497.62" y1="330.16" x2="464.86" y2="330.16" xlink:href="#a"/><linearGradient id="N" x1="493.23" y1="337.4" x2="469.44" y2="337.4" xlink:href="#a"/><linearGradient id="O" x1="493.23" y1="344.65" x2="469.44" y2="344.65" xlink:href="#a"/><linearGradient id="P" x1="493.23" y1="351.89" x2="469.44" y2="351.89" xlink:href="#a"/><linearGradient id="Q" x1="493.23" y1="359.13" x2="469.44" y2="359.13" xlink:href="#a"/><linearGradient id="R" x1="497.62" y1="366.38" x2="464.86" y2="366.38" xlink:href="#a"/><linearGradient id="S" x1="497.62" y1="113.09" x2="464.86" y2="113.09" xlink:href="#a"/><linearGradient id="T" x1="493.23" y1="120.33" x2="469.44" y2="120.33" xlink:href="#a"/><linearGradient id="U" x1="493.23" y1="127.57" x2="469.44" y2="127.57" xlink:href="#a"/><linearGradient id="V" x1="493.23" y1="134.82" x2="469.44" y2="134.82" xlink:href="#a"/><linearGradient id="W" x1="493.23" y1="142.06" x2="469.44" y2="142.06" xlink:href="#a"/><linearGradient id="X" x1="497.62" y1="149.3" x2="464.86" y2="149.3" xlink:href="#a"/><linearGradient id="Y" x1="493.38" y1="156.55" x2="469.59" y2="156.55" xlink:href="#a"/><linearGradient id="Z" x1="493.38" y1="163.79" x2="469.59" y2="163.79" xlink:href="#a"/><linearGradient id="aa" x1="493.38" y1="171.03" x2="469.59" y2="171.03" xlink:href="#a"/><linearGradient id="ab" x1="493.38" y1="178.28" x2="469.59" y2="178.28" xlink:href="#a"/><linearGradient id="ac" x1="497.78" y1="185.52" x2="465.01" y2="185.52" xlink:href="#a"/><linearGradient id="ad" x1="493.23" y1="192.76" x2="469.44" y2="192.76" xlink:href="#a"/><linearGradient id="ae" x1="493.23" y1="200.01" x2="469.44" y2="200.01" xlink:href="#a"/><linearGradient id="af" x1="493.23" y1="207.25" x2="469.44" y2="207.25" xlink:href="#a"/><linearGradient id="ag" x1="493.23" y1="214.49" x2="469.44" y2="214.49" xlink:href="#a"/><linearGradient id="ah" x1="497.62" y1="221.74" x2="464.86" y2="221.74" xlink:href="#a"/><linearGradient id="ai" x1="493.23" y1="228.98" x2="469.44" y2="228.98" xlink:href="#a"/><linearGradient id="aj" x1="493.23" y1="236.23" x2="469.44" y2="236.23" xlink:href="#a"/><linearGradient id="ak" x1="493.23" y1="243.47" x2="469.44" y2="243.47" xlink:href="#a"/><linearGradient id="al" x1="493.23" y1="250.71" x2="469.44" y2="250.71" xlink:href="#a"/><linearGradient id="am" x1="497.62" y1="257.96" x2="464.86" y2="257.96" xlink:href="#a"/><clipPath id="an"><path transform="rotate(-180 40.885 298.3)" fill="none" d="M32.2 112.37h17.37v371.86H32.2z"/></clipPath><linearGradient id="ao" x1="461.18" y1="486.08" x2="501.97" y2="486.08" gradientTransform="matrix(1 0 0 -1 -441.06 972.17)" gradientUnits="userSpaceOnUse"><stop offset=".01" stop-color="#d22c20"/><stop offset=".26" stop-color="#e2322b"/><stop offset=".51" stop-color="#ef3733"/><stop offset="1" stop-color="#d22c20"/></linearGradient></defs><g style="isolation:isolate"><path fill="#a2a2a2" d="M98.24 519.65H85.33l-2.66-55.58h18.23l-2.66 55.58z"/><path fill="#bdbdbd" d="M82.67 448.64h18.24v7.71H82.67z"/><path fill="#696969" d="M82.67 456.36h18.24v7.71H82.67z"/><path fill="#a2a2a2" d="M250.9 519.65H238l-2.68-55.58h18.24l-2.66 55.58z"/><path fill="#bdbdbd" d="M235.32 448.64h18.24v7.71h-18.24z"/><path fill="#696969" d="M235.32 456.36h18.24v7.71h-18.24z"/><path fill="#9e6741" d="M71 439.51h194v12.99H71z"/><rect x="14.65" y="125.24" width="308.13" height="9.26" rx="2.8" ry="2.8" fill="#8e8e8e"/><path d="M322.73 129.32h-308v-2.06a2.37 2.37 0 0 1 2.59-2h303a2.28 2.28 0 0 1 2.51 2s-.16 2.02-.1 2.06z" fill="#a8a8a8"/><path d="M212.15 100.37v.32a2.14 2.14 0 0 1-1.17 1l-.38.08v-.09l.24-.16v-.06c-2.55-6.55-71.5-5-82.21-1.06-1.67.69-1.61 1-1.84 1.39l-.39-.08a1.66 1.66 0 0 1-.84-.81v-.16c.24-1.22 3.23-1.89 4.37-2.17 21.58-4.7 66.51-2.21 76.11-.48 1.89.34 5.52 1.04 6.11 2.28z" fill="#e26d6d"/><path d="M210.87 101.44v.06c-.1.36-1.77.89-2.14 1a38.89 38.89 0 0 1-5.63 1.11c-28.22 4.14-71.94 1.48-76.12-1.62l-.16-.18c.87-4.83 52.68-6.34 74.28-3.51 5.61.7 9.27 1.7 9.77 3.14z" fill="#a81a16"/><g clip-path="url(#b)" fill="#a81a16"><path d="M183.44 95.2v19.59l35.5-12.55S192 91.71 183.44 95.2zm-35.88 14.36l-1-16.3S123.7 95 123.5 100.63s24.06 8.93 24.06 8.93z" style="mix-blend-mode:multiply" opacity=".3"/></g><path d="M77.85 0H102a42.15 42.15 0 0 1 42 42v.08h-10.32A31.79 31.79 0 0 0 102 11.19H77.87a31.79 31.79 0 0 0-31.69 31.69v31.98H35.83V42A42.15 42.15 0 0 1 77.85 0z" fill="#d22c20"/><path fill="#d22c20" d="M143.62 42.43l.76 5.6-2.53 2.4-6.57-.83-1.18-5.09.6-3.77-.16-.78h8.57l.51 2.47z"/><path d="M133 41h-.82v6.87a3.72 3.72 0 0 0 2.82 3.61 3.63 3.63 0 0 0 .87.1h6.5a3.74 3.74 0 0 0 3.74-3.73V41h-1.28c0-.34 0-.68-.05-1h-3.08c0 .34 0 .68.05 1H136c0-.34 0-.67-.07-1h-3.09c.07.3.16.63.16 1zm2.25 3.08H143v3.81a.66.66 0 0 1-.19.46.67.67 0 0 1-.47.19h-6.5a.65.65 0 0 1-.65-.66v-3.8z" fill="#d22c20"/><path fill="#a81a16" d="M132.95 40.02h11.84v.97h-11.84zM35.61 68.47h10.64v.89H35.61z"/><path fill="#d22c20" d="M20.11 92.76h40.83v400.07H20.11z"/><ellipse cx="40.53" cy="94.09" rx="20.46" ry="21.68" fill="#d22c20"/><path fill="#a81a16" d="M60.71 90.96l-40.36-.13.4-1.69h39.6l.36 1.82z"/><path fill="url(#c)" d="M23.96 90.95h34.39v395.99H23.96z"/><path fill="url(#a)" d="M23.58 329.14h33.91v1.59H23.58z"/><path fill="url(#d)" d="M28.22 336.38h24.62v1.59H28.22z"/><path fill="url(#e)" d="M28.22 343.62h24.62v1.59H28.22z"/><path fill="url(#f)" d="M28.22 350.87h24.62v1.59H28.22z"/><path fill="url(#g)" d="M28.22 358.11h24.62v1.59H28.22z"/><path fill="url(#h)" d="M23.58 365.35h33.91v1.59H23.58z"/><path fill="url(#i)" d="M28.07 372.6h24.62v1.59H28.07z"/><path fill="url(#j)" d="M28.07 379.84h24.62v1.59H28.07z"/><path fill="url(#k)" d="M28.07 387.08h24.62v1.59H28.07z"/><path fill="url(#l)" d="M28.07 394.33h24.62v1.59H28.07z"/><path fill="url(#m)" d="M23.42 401.57h33.91v1.59H23.42z"/><path fill="url(#n)" d="M28.22 408.81h24.62v1.59H28.22z"/><path fill="url(#o)" d="M28.22 416.06h24.62v1.59H28.22z"/><path fill="url(#p)" d="M28.22 423.3h24.62v1.59H28.22z"/><path fill="url(#q)" d="M28.22 430.54h24.62v1.59H28.22z"/><path fill="url(#r)" d="M23.58 437.79h33.91v1.59H23.58z"/><path fill="url(#s)" d="M28.22 445.03h24.62v1.59H28.22z"/><path fill="url(#t)" d="M28.22 452.28h24.62v1.59H28.22z"/><path fill="url(#u)" d="M28.22 459.52h24.62v1.59H28.22z"/><path fill="url(#v)" d="M28.22 466.76h24.62v1.59H28.22z"/><path fill="url(#w)" d="M23.58 474.01h33.91v1.59H23.58z"/><path fill="url(#x)" d="M23.58 220.71h33.91v1.59H23.58z"/><path fill="url(#y)" d="M28.22 227.96h24.62v1.59H28.22z"/><path fill="url(#z)" d="M28.22 235.2h24.62v1.59H28.22z"/><path fill="url(#A)" d="M28.22 242.44h24.62v1.59H28.22z"/><path fill="url(#B)" d="M28.22 249.69h24.62v1.59H28.22z"/><path fill="url(#C)" d="M23.58 256.93h33.91v1.59H23.58z"/><path fill="url(#D)" d="M28.07 264.17h24.62v1.59H28.07z"/><path fill="url(#E)" d="M28.07 271.42h24.62v1.59H28.07z"/><path fill="url(#F)" d="M28.07 278.66h24.62v1.59H28.07z"/><path fill="url(#G)" d="M28.07 285.9h24.62v1.59H28.07z"/><path fill="url(#H)" d="M23.42 293.15h33.91v1.59H23.42z"/><path fill="url(#I)" d="M28.22 300.39h24.62v1.59H28.22z"/><path fill="url(#J)" d="M28.22 307.64h24.62v1.59H28.22z"/><path fill="url(#K)" d="M28.22 314.88h24.62v1.59H28.22z"/><path fill="url(#L)" d="M28.22 322.12h24.62v1.59H28.22z"/><path fill="url(#M)" d="M23.58 329.37h33.91v1.59H23.58z"/><path fill="url(#N)" d="M28.22 336.61h24.62v1.59H28.22z"/><path fill="url(#O)" d="M28.22 343.85h24.62v1.59H28.22z"/><path fill="url(#P)" d="M28.22 351.1h24.62v1.59H28.22z"/><path fill="url(#Q)" d="M28.22 358.34h24.62v1.59H28.22z"/><path fill="url(#R)" d="M23.58 365.58h33.91v1.59H23.58z"/><path fill="url(#S)" d="M23.58 112.29h33.91v1.59H23.58z"/><path fill="url(#T)" d="M28.22 119.53h24.62v1.59H28.22z"/><path fill="url(#U)" d="M28.22 126.78h24.62v1.59H28.22z"/><path fill="url(#V)" d="M28.22 134.02h24.62v1.59H28.22z"/><path fill="url(#W)" d="M28.22 141.26h24.62v1.59H28.22z"/><path fill="url(#X)" d="M23.58 148.51h33.91v1.59H23.58z"/><path fill="url(#Y)" d="M28.07 155.75h24.62v1.59H28.07z"/><path fill="url(#Z)" d="M28.07 163h24.62v1.59H28.07z"/><path fill="url(#aa)" d="M28.07 170.24h24.62v1.59H28.07z"/><path fill="url(#ab)" d="M28.07 177.48h24.62v1.59H28.07z"/><path fill="url(#ac)" d="M23.42 184.73h33.91v1.59H23.42z"/><path fill="url(#ad)" d="M28.22 191.97h24.62v1.59H28.22z"/><path fill="url(#ae)" d="M28.22 199.21h24.62v1.59H28.22z"/><path fill="url(#af)" d="M28.22 206.46h24.62v1.59H28.22z"/><path fill="url(#ag)" d="M28.22 213.7h24.62v1.59H28.22z"/><path fill="url(#ah)" d="M23.58 220.94h33.91v1.59H23.58z"/><path fill="url(#ai)" d="M28.22 228.19h24.62v1.59H28.22z"/><path fill="url(#aj)" d="M28.22 235.43h24.62v1.59H28.22z"/><path fill="url(#ak)" d="M28.22 242.67h24.62v1.59H28.22z"/><path fill="url(#al)" d="M28.22 249.92h24.62v1.59H28.22z"/><path fill="url(#am)" d="M23.58 257.16h33.91v1.59H23.58z"/><path d="M32.2 484.22V107.58c0-5.46 3.79-9.92 8.42-9.92h.56c4.63 0 8.42 4.46 8.42 9.92v376.64z" fill="#9be0ff"/><g clip-path="url(#an)"><path fill="#fff" d="M49.64 808.4H32.07V437.99h17.57z"/><path d="M37.97 811.75V440.37h6.22v371.38h-6.24z" fill="#8e8e8e"/><path d="M41.46 440.38v371.26h1.39c.77 0 1.39-1.4 1.39-3.12V440.38zm8.13-.81H32.2v-2.07h17.39z" fill="#a8a8a8"/><path fill="#8e8e8e" d="M49.59 441.62H32.21v-2.07h17.38z"/></g><path fill="#d22c20" d="M16.8 487.48h47.36v11.37H16.8z"/><path d="M76.79 519.5c-.71-15.38-16.73-27.67-36.4-27.67S4.7 504.12 4 519.5z" fill="#d22c20"/><path fill="#a81a16" d="M17.33 495.46H63.9v3.19H17.33z"/><path transform="rotate(-180 40.52 486.085)" fill="url(#ao)" d="M20.12 484.33h40.79v3.5H20.12z"/><path fill="none" d="M0 474.17h112.67v374H0z"/></g></svg>