<svg xmlns="http://www.w3.org/2000/svg" xmlns:xlink="http://www.w3.org/1999/xlink" viewBox="0 0 332.11 848.17"><defs><clipPath id="e"><path d="M210.87 101.44v.06c-.1.36-1.77.89-2.14 1a38.89 38.89 0 0 1-5.63 1.11c-28.22 4.14-71.94 1.48-76.12-1.62l-.16-.18c.87-4.83 52.68-6.34 74.28-3.51 5.61.7 9.27 1.7 9.77 3.14z" fill="#a81a16"/></clipPath><linearGradient id="b" x1="-182.75" y1="288.95" x2="-148.36" y2="288.95" gradientTransform="matrix(1 0 0 -1 460.49 577.9)" gradientUnits="userSpaceOnUse"><stop offset=".01" stop-color="#d22c20"/><stop offset=".31" stop-color="#e7342e"/><stop offset=".51" stop-color="#ef3733"/><stop offset=".72" stop-color="#e6332d"/><stop offset="1" stop-color="#d22c20"/></linearGradient><linearGradient id="a" x1="311.62" y1="329.93" x2="278.86" y2="329.93" gradientUnits="userSpaceOnUse"><stop offset=".05" stop-color="#d3d2d2"/><stop offset=".37" stop-color="#9a9a9c"/><stop offset=".64" stop-color="#9a9a9c"/><stop offset="1" stop-color="#d1d6d5"/></linearGradient><linearGradient id="f" x1="307.23" y1="337.17" x2="283.44" y2="337.17" xlink:href="#a"/><linearGradient id="g" x1="307.23" y1="344.42" x2="283.44" y2="344.42" xlink:href="#a"/><linearGradient id="h" x1="307.23" y1="351.66" x2="283.44" y2="351.66" xlink:href="#a"/><linearGradient id="i" x1="307.23" y1="358.9" x2="283.44" y2="358.9" xlink:href="#a"/><linearGradient id="j" x1="311.62" y1="366.15" x2="278.86" y2="366.15" xlink:href="#a"/><linearGradient id="k" x1="307.38" y1="373.39" x2="283.59" y2="373.39" xlink:href="#a"/><linearGradient id="l" x1="307.38" y1="380.63" x2="283.59" y2="380.63" xlink:href="#a"/><linearGradient id="m" x1="307.38" y1="387.88" x2="283.59" y2="387.88" xlink:href="#a"/><linearGradient id="n" x1="307.38" y1="395.12" x2="283.59" y2="395.12" xlink:href="#a"/><linearGradient id="o" x1="311.78" y1="402.37" x2="279.01" y2="402.37" xlink:href="#a"/><linearGradient id="p" x1="307.23" y1="409.61" x2="283.44" y2="409.61" xlink:href="#a"/><linearGradient id="q" x1="307.23" y1="416.85" x2="283.44" y2="416.85" xlink:href="#a"/><linearGradient id="r" x1="307.23" y1="424.1" x2="283.44" y2="424.1" xlink:href="#a"/><linearGradient id="s" x1="307.23" y1="431.34" x2="283.44" y2="431.34" xlink:href="#a"/><linearGradient id="t" x1="311.62" y1="438.58" x2="278.86" y2="438.58" xlink:href="#a"/><linearGradient id="u" x1="307.23" y1="445.83" x2="283.44" y2="445.83" xlink:href="#a"/><linearGradient id="v" x1="307.23" y1="453.07" x2="283.44" y2="453.07" xlink:href="#a"/><linearGradient id="w" x1="307.23" y1="460.31" x2="283.44" y2="460.31" xlink:href="#a"/><linearGradient id="x" x1="307.23" y1="467.56" x2="283.44" y2="467.56" xlink:href="#a"/><linearGradient id="y" x1="311.62" y1="474.8" x2="278.86" y2="474.8" xlink:href="#a"/><linearGradient id="z" x1="311.62" y1="221.51" x2="278.86" y2="221.51" xlink:href="#a"/><linearGradient id="A" x1="307.23" y1="228.75" x2="283.44" y2="228.75" xlink:href="#a"/><linearGradient id="B" x1="307.23" y1="235.99" x2="283.44" y2="235.99" xlink:href="#a"/><linearGradient id="C" x1="307.23" y1="243.24" x2="283.44" y2="243.24" xlink:href="#a"/><linearGradient id="D" x1="307.23" y1="250.48" x2="283.44" y2="250.48" xlink:href="#a"/><linearGradient id="E" x1="311.62" y1="257.73" x2="278.86" y2="257.73" xlink:href="#a"/><linearGradient id="F" x1="307.38" y1="264.97" x2="283.59" y2="264.97" xlink:href="#a"/><linearGradient id="G" x1="307.38" y1="272.21" x2="283.59" y2="272.21" xlink:href="#a"/><linearGradient id="H" x1="307.38" y1="279.46" x2="283.59" y2="279.46" xlink:href="#a"/><linearGradient id="I" x1="307.38" y1="286.7" x2="283.59" y2="286.7" xlink:href="#a"/><linearGradient id="J" x1="311.78" y1="293.94" x2="279.01" y2="293.94" xlink:href="#a"/><linearGradient id="K" x1="307.23" y1="301.19" x2="283.44" y2="301.19" xlink:href="#a"/><linearGradient id="L" x1="307.23" y1="308.43" x2="283.44" y2="308.43" xlink:href="#a"/><linearGradient id="M" x1="307.23" y1="315.67" x2="283.44" y2="315.67" xlink:href="#a"/><linearGradient id="N" x1="307.23" y1="322.92" x2="283.44" y2="322.92" xlink:href="#a"/><linearGradient id="O" x1="311.62" y1="330.16" x2="278.86" y2="330.16" xlink:href="#a"/><linearGradient id="P" x1="307.23" y1="337.4" x2="283.44" y2="337.4" xlink:href="#a"/><linearGradient id="Q" x1="307.23" y1="344.65" x2="283.44" y2="344.65" xlink:href="#a"/><linearGradient id="R" x1="307.23" y1="351.89" x2="283.44" y2="351.89" xlink:href="#a"/><linearGradient id="S" x1="307.23" y1="359.13" x2="283.44" y2="359.13" xlink:href="#a"/><linearGradient id="T" x1="311.62" y1="366.38" x2="278.86" y2="366.38" xlink:href="#a"/><linearGradient id="U" x1="311.62" y1="113.09" x2="278.86" y2="113.09" xlink:href="#a"/><linearGradient id="V" x1="307.23" y1="120.33" x2="283.44" y2="120.33" xlink:href="#a"/><linearGradient id="W" x1="307.23" y1="127.57" x2="283.44" y2="127.57" xlink:href="#a"/><linearGradient id="X" x1="307.23" y1="134.82" x2="283.44" y2="134.82" xlink:href="#a"/><linearGradient id="Y" x1="307.23" y1="142.06" x2="283.44" y2="142.06" xlink:href="#a"/><linearGradient id="Z" x1="311.62" y1="149.3" x2="278.86" y2="149.3" xlink:href="#a"/><linearGradient id="aa" x1="307.38" y1="156.55" x2="283.59" y2="156.55" xlink:href="#a"/><linearGradient id="ab" x1="307.38" y1="163.79" x2="283.59" y2="163.79" xlink:href="#a"/><linearGradient id="ac" x1="307.38" y1="171.03" x2="283.59" y2="171.03" xlink:href="#a"/><linearGradient id="ad" x1="307.38" y1="178.28" x2="283.59" y2="178.28" xlink:href="#a"/><linearGradient id="ae" x1="311.78" y1="185.52" x2="279.01" y2="185.52" xlink:href="#a"/><linearGradient id="af" x1="307.23" y1="192.76" x2="283.44" y2="192.76" xlink:href="#a"/><linearGradient id="ag" x1="307.23" y1="200.01" x2="283.44" y2="200.01" xlink:href="#a"/><linearGradient id="ah" x1="307.23" y1="207.25" x2="283.44" y2="207.25" xlink:href="#a"/><linearGradient id="ai" x1="307.23" y1="214.49" x2="283.44" y2="214.49" xlink:href="#a"/><linearGradient id="aj" x1="311.62" y1="221.74" x2="278.86" y2="221.74" xlink:href="#a"/><linearGradient id="ak" x1="307.23" y1="228.98" x2="283.44" y2="228.98" xlink:href="#a"/><linearGradient id="al" x1="307.23" y1="236.23" x2="283.44" y2="236.23" xlink:href="#a"/><linearGradient id="am" x1="307.23" y1="243.47" x2="283.44" y2="243.47" xlink:href="#a"/><linearGradient id="an" x1="307.23" y1="250.71" x2="283.44" y2="250.71" xlink:href="#a"/><linearGradient id="ao" x1="311.62" y1="257.96" x2="278.86" y2="257.96" xlink:href="#a"/><clipPath id="ap"><path fill="none" d="M286.53 112.37h17.37v371.86h-17.37z"/></clipPath><linearGradient id="c" x1="275.18" y1="486.08" x2="315.97" y2="486.08" gradientUnits="userSpaceOnUse"><stop offset=".01" stop-color="#d22c20"/><stop offset=".26" stop-color="#e2322b"/><stop offset=".51" stop-color="#ef3733"/><stop offset="1" stop-color="#d22c20"/></linearGradient><linearGradient id="aq" x1="-368.75" y1="288.95" x2="-334.36" y2="288.95" gradientTransform="translate(392.71)" xlink:href="#b"/><linearGradient id="ar" x1="497.62" y1="329.93" x2="464.86" y2="329.93" gradientTransform="matrix(-1 0 0 1 522.09 0)" xlink:href="#a"/><linearGradient id="as" x1="493.23" y1="337.17" x2="469.44" y2="337.17" gradientTransform="matrix(-1 0 0 1 522.09 0)" xlink:href="#a"/><linearGradient id="at" x1="493.23" y1="344.42" x2="469.44" y2="344.42" gradientTransform="matrix(-1 0 0 1 522.09 0)" xlink:href="#a"/><linearGradient id="au" x1="493.23" y1="351.66" x2="469.44" y2="351.66" gradientTransform="matrix(-1 0 0 1 522.09 0)" xlink:href="#a"/><linearGradient id="av" x1="493.23" y1="358.9" x2="469.44" y2="358.9" gradientTransform="matrix(-1 0 0 1 522.09 0)" xlink:href="#a"/><linearGradient id="aw" x1="497.62" y1="366.15" x2="464.86" y2="366.15" gradientTransform="matrix(-1 0 0 1 522.09 0)" xlink:href="#a"/><linearGradient id="ax" x1="493.38" y1="373.39" x2="469.59" y2="373.39" gradientTransform="matrix(-1 0 0 1 522.09 0)" xlink:href="#a"/><linearGradient id="ay" x1="493.38" y1="380.63" x2="469.59" y2="380.63" gradientTransform="matrix(-1 0 0 1 522.09 0)" xlink:href="#a"/><linearGradient id="az" x1="493.38" y1="387.88" x2="469.59" y2="387.88" gradientTransform="matrix(-1 0 0 1 522.09 0)" xlink:href="#a"/><linearGradient id="aA" x1="493.38" y1="395.12" x2="469.59" y2="395.12" gradientTransform="matrix(-1 0 0 1 522.09 0)" xlink:href="#a"/><linearGradient id="aB" x1="497.78" y1="402.37" x2="465.01" y2="402.37" gradientTransform="matrix(-1 0 0 1 522.09 0)" xlink:href="#a"/><linearGradient id="aC" x1="493.23" y1="409.61" x2="469.44" y2="409.61" gradientTransform="matrix(-1 0 0 1 522.09 0)" xlink:href="#a"/><linearGradient id="aD" x1="493.23" y1="416.85" x2="469.44" y2="416.85" gradientTransform="matrix(-1 0 0 1 522.09 0)" xlink:href="#a"/><linearGradient id="aE" x1="493.23" y1="424.1" x2="469.44" y2="424.1" gradientTransform="matrix(-1 0 0 1 522.09 0)" xlink:href="#a"/><linearGradient id="aF" x1="493.23" y1="431.34" x2="469.44" y2="431.34" gradientTransform="matrix(-1 0 0 1 522.09 0)" xlink:href="#a"/><linearGradient id="aG" x1="497.62" y1="438.58" x2="464.86" y2="438.58" gradientTransform="matrix(-1 0 0 1 522.09 0)" xlink:href="#a"/><linearGradient id="aH" x1="493.23" y1="445.83" x2="469.44" y2="445.83" gradientTransform="matrix(-1 0 0 1 522.09 0)" xlink:href="#a"/><linearGradient id="aI" x1="493.23" y1="453.07" x2="469.44" y2="453.07" gradientTransform="matrix(-1 0 0 1 522.09 0)" xlink:href="#a"/><linearGradient id="aJ" x1="493.23" y1="460.31" x2="469.44" y2="460.31" gradientTransform="matrix(-1 0 0 1 522.09 0)" xlink:href="#a"/><linearGradient id="aK" x1="493.23" y1="467.56" x2="469.44" y2="467.56" gradientTransform="matrix(-1 0 0 1 522.09 0)" xlink:href="#a"/><linearGradient id="aL" x1="497.62" y1="474.8" x2="464.86" y2="474.8" gradientTransform="matrix(-1 0 0 1 522.09 0)" xlink:href="#a"/><linearGradient id="aM" x1="497.62" y1="221.51" x2="464.86" y2="221.51" gradientTransform="matrix(-1 0 0 1 522.09 0)" xlink:href="#a"/><linearGradient id="aN" x1="493.23" y1="228.75" x2="469.44" y2="228.75" gradientTransform="matrix(-1 0 0 1 522.09 0)" xlink:href="#a"/><linearGradient id="aO" x1="493.23" y1="235.99" x2="469.44" y2="235.99" gradientTransform="matrix(-1 0 0 1 522.09 0)" xlink:href="#a"/><linearGradient id="aP" x1="493.23" y1="243.24" x2="469.44" y2="243.24" gradientTransform="matrix(-1 0 0 1 522.09 0)" xlink:href="#a"/><linearGradient id="aQ" x1="493.23" y1="250.48" x2="469.44" y2="250.48" gradientTransform="matrix(-1 0 0 1 522.09 0)" xlink:href="#a"/><linearGradient id="aR" x1="497.62" y1="257.73" x2="464.86" y2="257.73" gradientTransform="matrix(-1 0 0 1 522.09 0)" xlink:href="#a"/><linearGradient id="aS" x1="493.38" y1="264.97" x2="469.59" y2="264.97" gradientTransform="matrix(-1 0 0 1 522.09 0)" xlink:href="#a"/><linearGradient id="aT" x1="493.38" y1="272.21" x2="469.59" y2="272.21" gradientTransform="matrix(-1 0 0 1 522.09 0)" xlink:href="#a"/><linearGradient id="aU" x1="493.38" y1="279.46" x2="469.59" y2="279.46" gradientTransform="matrix(-1 0 0 1 522.09 0)" xlink:href="#a"/><linearGradient id="aV" x1="493.38" y1="286.7" x2="469.59" y2="286.7" gradientTransform="matrix(-1 0 0 1 522.09 0)" xlink:href="#a"/><linearGradient id="aW" x1="497.78" y1="293.94" x2="465.01" y2="293.94" gradientTransform="matrix(-1 0 0 1 522.09 0)" xlink:href="#a"/><linearGradient id="aX" x1="493.23" y1="301.19" x2="469.44" y2="301.19" gradientTransform="matrix(-1 0 0 1 522.09 0)" xlink:href="#a"/><linearGradient id="aY" x1="493.23" y1="308.43" x2="469.44" y2="308.43" gradientTransform="matrix(-1 0 0 1 522.09 0)" xlink:href="#a"/><linearGradient id="aZ" x1="493.23" y1="315.67" x2="469.44" y2="315.67" gradientTransform="matrix(-1 0 0 1 522.09 0)" xlink:href="#a"/><linearGradient id="ba" x1="493.23" y1="322.92" x2="469.44" y2="322.92" gradientTransform="matrix(-1 0 0 1 522.09 0)" xlink:href="#a"/><linearGradient id="bb" x1="497.62" y1="330.16" x2="464.86" y2="330.16" gradientTransform="matrix(-1 0 0 1 522.09 0)" xlink:href="#a"/><linearGradient id="bc" x1="493.23" y1="337.4" x2="469.44" y2="337.4" gradientTransform="matrix(-1 0 0 1 522.09 0)" xlink:href="#a"/><linearGradient id="bd" x1="493.23" y1="344.65" x2="469.44" y2="344.65" gradientTransform="matrix(-1 0 0 1 522.09 0)" xlink:href="#a"/><linearGradient id="be" x1="493.23" y1="351.89" x2="469.44" y2="351.89" gradientTransform="matrix(-1 0 0 1 522.09 0)" xlink:href="#a"/><linearGradient id="bf" x1="493.23" y1="359.13" x2="469.44" y2="359.13" gradientTransform="matrix(-1 0 0 1 522.09 0)" xlink:href="#a"/><linearGradient id="bg" x1="497.62" y1="366.38" x2="464.86" y2="366.38" gradientTransform="matrix(-1 0 0 1 522.09 0)" xlink:href="#a"/><linearGradient id="bh" x1="497.62" y1="113.09" x2="464.86" y2="113.09" gradientTransform="matrix(-1 0 0 1 522.09 0)" xlink:href="#a"/><linearGradient id="bi" x1="493.23" y1="120.33" x2="469.44" y2="120.33" gradientTransform="matrix(-1 0 0 1 522.09 0)" xlink:href="#a"/><linearGradient id="bj" x1="493.23" y1="127.57" x2="469.44" y2="127.57" gradientTransform="matrix(-1 0 0 1 522.09 0)" xlink:href="#a"/><linearGradient id="bk" x1="493.23" y1="134.82" x2="469.44" y2="134.82" gradientTransform="matrix(-1 0 0 1 522.09 0)" xlink:href="#a"/><linearGradient id="bl" x1="493.23" y1="142.06" x2="469.44" y2="142.06" gradientTransform="matrix(-1 0 0 1 522.09 0)" xlink:href="#a"/><linearGradient id="bm" x1="497.62" y1="149.3" x2="464.86" y2="149.3" gradientTransform="matrix(-1 0 0 1 522.09 0)" xlink:href="#a"/><linearGradient id="bn" x1="493.38" y1="156.55" x2="469.59" y2="156.55" gradientTransform="matrix(-1 0 0 1 522.09 0)" xlink:href="#a"/><linearGradient id="bo" x1="493.38" y1="163.79" x2="469.59" y2="163.79" gradientTransform="matrix(-1 0 0 1 522.09 0)" xlink:href="#a"/><linearGradient id="bp" x1="493.38" y1="171.03" x2="469.59" y2="171.03" gradientTransform="matrix(-1 0 0 1 522.09 0)" xlink:href="#a"/><linearGradient id="bq" x1="493.38" y1="178.28" x2="469.59" y2="178.28" gradientTransform="matrix(-1 0 0 1 522.09 0)" xlink:href="#a"/><linearGradient id="br" x1="497.78" y1="185.52" x2="465.01" y2="185.52" gradientTransform="matrix(-1 0 0 1 522.09 0)" xlink:href="#a"/><linearGradient id="bs" x1="493.23" y1="192.76" x2="469.44" y2="192.76" gradientTransform="matrix(-1 0 0 1 522.09 0)" xlink:href="#a"/><linearGradient id="bt" x1="493.23" y1="200.01" x2="469.44" y2="200.01" gradientTransform="matrix(-1 0 0 1 522.09 0)" xlink:href="#a"/><linearGradient id="bu" x1="493.23" y1="207.25" x2="469.44" y2="207.25" gradientTransform="matrix(-1 0 0 1 522.09 0)" xlink:href="#a"/><linearGradient id="bv" x1="493.23" y1="214.49" x2="469.44" y2="214.49" gradientTransform="matrix(-1 0 0 1 522.09 0)" xlink:href="#a"/><linearGradient id="bw" x1="497.62" y1="221.74" x2="464.86" y2="221.74" gradientTransform="matrix(-1 0 0 1 522.09 0)" xlink:href="#a"/><linearGradient id="bx" x1="493.23" y1="228.98" x2="469.44" y2="228.98" gradientTransform="matrix(-1 0 0 1 522.09 0)" xlink:href="#a"/><linearGradient id="by" x1="493.23" y1="236.23" x2="469.44" y2="236.23" gradientTransform="matrix(-1 0 0 1 522.09 0)" xlink:href="#a"/><linearGradient id="bz" x1="493.23" y1="243.47" x2="469.44" y2="243.47" gradientTransform="matrix(-1 0 0 1 522.09 0)" xlink:href="#a"/><linearGradient id="bA" x1="493.23" y1="250.71" x2="469.44" y2="250.71" gradientTransform="matrix(-1 0 0 1 522.09 0)" xlink:href="#a"/><linearGradient id="bB" x1="497.62" y1="257.96" x2="464.86" y2="257.96" gradientTransform="matrix(-1 0 0 1 522.09 0)" xlink:href="#a"/><clipPath id="bC"><path transform="rotate(-180 40.885 298.3)" fill="none" d="M32.2 112.37h17.37v371.86H32.2z"/></clipPath><linearGradient id="bD" x1="461.18" y1="486.08" x2="501.97" y2="486.08" gradientTransform="matrix(1 0 0 -1 -441.06 972.17)" xlink:href="#c"/><linearGradient id="d" x1="135.27" y1="376.49" x2="158.55" y2="376.49" gradientUnits="userSpaceOnUse"><stop offset="0" stop-color="#5b413f"/><stop offset=".25" stop-color="#543734"/><stop offset=".51" stop-color="#523430"/><stop offset=".87" stop-color="#4d312d"/><stop offset="1" stop-color="#4a2f2b"/></linearGradient><linearGradient id="bE" x1="176.08" y1="376.49" x2="199.36" y2="376.49" xlink:href="#d"/><clipPath id="bF"><path d="M133.72 408.33l-.2-.85a3.27 3.27 0 0 1 0-.45v-5.33l.06-1c.16-2.69.47-5.42.85-8.16s.85-5.47 1.37-8.2 1.1-5.46 1.74-8.17 1.31-5.42 2-8.1 1.49-5.36 2.31-8 1.69-5.28 2.6-7.89 1.88-5.17 2.89-7.71l-15.56-5.07q-1.2 4.32-2.2 8.64c-.67 2.88-1.27 5.77-1.84 8.66s-1 5.79-1.51 8.69-.85 5.82-1.2 8.73-.65 5.84-.88 8.78-.41 5.89-.51 8.86-.09 6 .06 9l.06 1.15c0 .38.06.77.08 1.16s.06.77.11 1.17l.13 1.18v.6l.09.61c.06.4.12.8.2 1.23l.12.62.06.31v.33l.33 1.31z" fill="none"/></clipPath><clipPath id="bG"><path d="M200.29 406.84l.18-.82v-.9c0-.3 0-.62.05-.94v-3.94l-.06-1c-.16-2.69-.47-5.42-.85-8.16s-.86-5.47-1.38-8.2-1.1-5.46-1.73-8.17-1.31-5.41-2-8.1-1.5-5.36-2.32-8-1.68-5.28-2.59-7.88-1.88-5.18-2.89-7.71l15.56-5.08c.8 2.88 1.52 5.76 2.2 8.64s1.27 5.77 1.83 8.67 1.06 5.79 1.51 8.69.85 5.81 1.21 8.73.64 5.84.88 8.77.41 5.89.5 8.86.1 6 0 9l-.06 1.15c0 .38-.06.78-.09 1.16s-.05.77-.1 1.17L210 404v.29l-.05.3-.09.61c-.06.4-.11.8-.2 1.23l-.12.62-.06.32v.32L209 409z" fill="none"/></clipPath></defs><g style="isolation:isolate"><path fill="#a2a2a2" d="M98.24 519.65H85.33l-2.66-55.58h18.23l-2.66 55.58z"/><path fill="#bdbdbd" d="M82.67 448.64h18.24v7.71H82.67z"/><path fill="#696969" d="M82.67 456.36h18.24v7.71H82.67z"/><path fill="#a2a2a2" d="M250.9 519.65H238l-2.68-55.58h18.24l-2.66 55.58z"/><path fill="#bdbdbd" d="M235.32 448.64h18.24v7.71h-18.24z"/><path fill="#696969" d="M235.32 456.36h18.24v7.71h-18.24z"/><path fill="#9e6741" d="M71 439.51h194v12.99H71z"/><rect x="14.65" y="125.24" width="308.13" height="9.26" rx="2.8" ry="2.8" fill="#8e8e8e"/><path d="M322.73 129.32h-308v-2.06a2.37 2.37 0 0 1 2.59-2h303a2.28 2.28 0 0 1 2.51 2s-.16 2.02-.1 2.06z" fill="#a8a8a8"/><path d="M212.15 100.37v.32a2.14 2.14 0 0 1-1.17 1l-.38.08v-.09l.24-.16v-.06c-2.55-6.55-71.5-5-82.21-1.06-1.67.69-1.61 1-1.84 1.39l-.39-.08a1.66 1.66 0 0 1-.84-.81v-.16c.24-1.22 3.23-1.89 4.37-2.17 21.58-4.7 66.51-2.21 76.11-.48 1.89.34 5.52 1.04 6.11 2.28z" fill="#e26d6d"/><path d="M210.87 101.44v.06c-.1.36-1.77.89-2.14 1a38.89 38.89 0 0 1-5.63 1.11c-28.22 4.14-71.94 1.48-76.12-1.62l-.16-.18c.87-4.83 52.68-6.34 74.28-3.51 5.61.7 9.27 1.7 9.77 3.14z" fill="#a81a16"/><g clip-path="url(#e)" fill="#a81a16"><path d="M183.44 95.2v19.59l35.5-12.55S192 91.71 183.44 95.2zm-35.88 14.36l-1-16.3S123.7 95 123.5 100.63s24.06 8.93 24.06 8.93z" style="mix-blend-mode:multiply" opacity=".3"/></g><path d="M258.24 0h-24.17a42.15 42.15 0 0 0-42 42v.08h10.38a31.78 31.78 0 0 1 31.67-30.92h24.13a31.78 31.78 0 0 1 31.69 31.69v32.01h10.37V42a42.15 42.15 0 0 0-42.07-42z" fill="#d22c20"/><path fill="#d22c20" d="M192.47 42.43l-.76 5.6 2.54 2.4 6.56-.83 1.19-5.09-.61-3.77.16-.78h-8.56l-.52 2.47z"/><path d="M203.21 40h-3.08c0 .34-.06.67-.07 1h-5.72v-1h-3.08v1H190v6.88a3.72 3.72 0 0 0 3.73 3.73h6.5a3.71 3.71 0 0 0 3.77-3.77V41h-.82c-.03-.37.01-.7.03-1zm-2.32 4.56v3.33a.66.66 0 0 1-.66.66h-6.5a.69.69 0 0 1-.47-.19.66.66 0 0 1-.19-.46v-3.85h7.82z" fill="#d22c20"/><path fill="#a81a16" d="M203.15 40.99h-11.84v-.97h11.84zm97.34 28.38h-10.64v-.89h10.64z"/><path fill="#d22c20" d="M315.98 492.83h-40.83V92.76h40.83z"/><ellipse cx="295.56" cy="94.09" rx="20.46" ry="21.68" fill="#d22c20"/><path fill="#a81a16" d="M275.39 90.96l40.35-.13-.39-1.69h-39.61l-.35 1.82z"/><path transform="rotate(-180 294.94 288.95)" fill="url(#b)" d="M277.75 90.95h34.39v395.99h-34.39z"/><path fill="url(#a)" d="M278.61 329.14h33.91v1.59h-33.91z"/><path fill="url(#f)" d="M283.26 336.38h24.62v1.59h-24.62z"/><path fill="url(#g)" d="M283.26 343.62h24.62v1.59h-24.62z"/><path fill="url(#h)" d="M283.26 350.87h24.62v1.59h-24.62z"/><path fill="url(#i)" d="M283.26 358.11h24.62v1.59h-24.62z"/><path fill="url(#j)" d="M278.61 365.35h33.91v1.59h-33.91z"/><path fill="url(#k)" d="M283.41 372.6h24.62v1.59h-24.62z"/><path fill="url(#l)" d="M283.41 379.84h24.62v1.59h-24.62z"/><path fill="url(#m)" d="M283.41 387.08h24.62v1.59h-24.62z"/><path fill="url(#n)" d="M283.41 394.33h24.62v1.59h-24.62z"/><path fill="url(#o)" d="M278.77 401.57h33.91v1.59h-33.91z"/><path fill="url(#p)" d="M283.26 408.81h24.62v1.59h-24.62z"/><path fill="url(#q)" d="M283.26 416.06h24.62v1.59h-24.62z"/><path fill="url(#r)" d="M283.26 423.3h24.62v1.59h-24.62z"/><path fill="url(#s)" d="M283.26 430.54h24.62v1.59h-24.62z"/><path fill="url(#t)" d="M278.61 437.79h33.91v1.59h-33.91z"/><path fill="url(#u)" d="M283.26 445.03h24.62v1.59h-24.62z"/><path fill="url(#v)" d="M283.26 452.28h24.62v1.59h-24.62z"/><path fill="url(#w)" d="M283.26 459.52h24.62v1.59h-24.62z"/><path fill="url(#x)" d="M283.26 466.76h24.62v1.59h-24.62z"/><path fill="url(#y)" d="M278.61 474.01h33.91v1.59h-33.91z"/><path fill="url(#z)" d="M278.61 220.71h33.91v1.59h-33.91z"/><path fill="url(#A)" d="M283.26 227.96h24.62v1.59h-24.62z"/><path fill="url(#B)" d="M283.26 235.2h24.62v1.59h-24.62z"/><path fill="url(#C)" d="M283.26 242.44h24.62v1.59h-24.62z"/><path fill="url(#D)" d="M283.26 249.69h24.62v1.59h-24.62z"/><path fill="url(#E)" d="M278.61 256.93h33.91v1.59h-33.91z"/><path fill="url(#F)" d="M283.41 264.17h24.62v1.59h-24.62z"/><path fill="url(#G)" d="M283.41 271.42h24.62v1.59h-24.62z"/><path fill="url(#H)" d="M283.41 278.66h24.62v1.59h-24.62z"/><path fill="url(#I)" d="M283.41 285.9h24.62v1.59h-24.62z"/><path fill="url(#J)" d="M278.77 293.15h33.91v1.59h-33.91z"/><path fill="url(#K)" d="M283.26 300.39h24.62v1.59h-24.62z"/><path fill="url(#L)" d="M283.26 307.64h24.62v1.59h-24.62z"/><path fill="url(#M)" d="M283.26 314.88h24.62v1.59h-24.62z"/><path fill="url(#N)" d="M283.26 322.12h24.62v1.59h-24.62z"/><path fill="url(#O)" d="M278.61 329.37h33.91v1.59h-33.91z"/><path fill="url(#P)" d="M283.26 336.61h24.62v1.59h-24.62z"/><path fill="url(#Q)" d="M283.26 343.85h24.62v1.59h-24.62z"/><path fill="url(#R)" d="M283.26 351.1h24.62v1.59h-24.62z"/><path fill="url(#S)" d="M283.26 358.34h24.62v1.59h-24.62z"/><path fill="url(#T)" d="M278.61 365.58h33.91v1.59h-33.91z"/><path fill="url(#U)" d="M278.61 112.29h33.91v1.59h-33.91z"/><path fill="url(#V)" d="M283.26 119.53h24.62v1.59h-24.62z"/><path fill="url(#W)" d="M283.26 126.78h24.62v1.59h-24.62z"/><path fill="url(#X)" d="M283.26 134.02h24.62v1.59h-24.62z"/><path fill="url(#Y)" d="M283.26 141.26h24.62v1.59h-24.62z"/><path fill="url(#Z)" d="M278.61 148.51h33.91v1.59h-33.91z"/><path fill="url(#aa)" d="M283.41 155.75h24.62v1.59h-24.62z"/><path fill="url(#ab)" d="M283.41 163h24.62v1.59h-24.62z"/><path fill="url(#ac)" d="M283.41 170.24h24.62v1.59h-24.62z"/><path fill="url(#ad)" d="M283.41 177.48h24.62v1.59h-24.62z"/><path fill="url(#ae)" d="M278.77 184.73h33.91v1.59h-33.91z"/><path fill="url(#af)" d="M283.26 191.97h24.62v1.59h-24.62z"/><path fill="url(#ag)" d="M283.26 199.21h24.62v1.59h-24.62z"/><path fill="url(#ah)" d="M283.26 206.46h24.62v1.59h-24.62z"/><path fill="url(#ai)" d="M283.26 213.7h24.62v1.59h-24.62z"/><path fill="url(#aj)" d="M278.61 220.94h33.91v1.59h-33.91z"/><path fill="url(#ak)" d="M283.26 228.19h24.62v1.59h-24.62z"/><path fill="url(#al)" d="M283.26 235.43h24.62v1.59h-24.62z"/><path fill="url(#am)" d="M283.26 242.67h24.62v1.59h-24.62z"/><path fill="url(#an)" d="M283.26 249.92h24.62v1.59h-24.62z"/><path fill="url(#ao)" d="M278.61 257.16h33.91v1.59h-33.91z"/><path d="M303.89 484.22V107.58c0-5.46-3.79-9.92-8.42-9.92h-.56c-4.63 0-8.41 4.46-8.41 9.92v376.64z" fill="#9be0ff"/><g clip-path="url(#ap)"><path fill="#fff" d="M286.45 185.99h17.57V556.4h-17.57z"/><path d="M291.89 559.75V188.38h6.22v371.37h-6.24.02z" fill="#8e8e8e"/><path d="M294.63 188.38v371.26h-1.39c-.76 0-1.38-1.4-1.38-3.12V188.38zm-8.12-2.88h17.39v2.07h-17.39z" fill="#a8a8a8"/><path fill="#8e8e8e" d="M286.5 187.54h17.38v2.07H286.5z"/></g><path fill="#d22c20" d="M319.29 498.85h-47.36v-11.37h47.36z"/><path d="M259.3 519.5c.71-15.38 16.73-27.67 36.4-27.67s35.69 12.29 36.41 27.67z" fill="#d22c20"/><path fill="#a81a16" d="M318.76 498.66h-46.57v-3.19h46.57z"/><path fill="url(#c)" d="M275.18 484.33h40.79v3.5h-40.79z"/><path d="M77.85 0H102a42.15 42.15 0 0 1 42 42v.08h-10.32A31.79 31.79 0 0 0 102 11.19H77.87a31.79 31.79 0 0 0-31.69 31.69v31.98H35.83V42A42.15 42.15 0 0 1 77.85 0z" fill="#d22c20"/><path fill="#d22c20" d="M143.62 42.43l.76 5.6-2.53 2.4-6.57-.83-1.18-5.09.6-3.77-.16-.78h8.57l.51 2.47z"/><path d="M133 41h-.82v6.87a3.72 3.72 0 0 0 2.82 3.61 3.63 3.63 0 0 0 .87.1h6.5a3.74 3.74 0 0 0 3.74-3.73V41h-1.28c0-.34 0-.68-.05-1h-3.08c0 .34 0 .68.05 1H136c0-.34 0-.67-.07-1h-3.09c.07.3.16.63.16 1zm2.25 3.08H143v3.81a.66.66 0 0 1-.19.46.67.67 0 0 1-.47.19h-6.5a.65.65 0 0 1-.65-.66v-3.8z" fill="#d22c20"/><path fill="#a81a16" d="M132.95 40.02h11.84v.97h-11.84zM35.61 68.47h10.64v.89H35.61z"/><path fill="#d22c20" d="M20.11 92.76h40.83v400.07H20.11z"/><ellipse cx="40.53" cy="94.09" rx="20.46" ry="21.68" fill="#d22c20"/><path fill="#a81a16" d="M60.71 90.96l-40.36-.13.4-1.69h39.6l.36 1.82z"/><path fill="url(#aq)" d="M23.96 90.95h34.39v395.99H23.96z"/><path fill="url(#ar)" d="M23.58 329.14h33.91v1.59H23.58z"/><path fill="url(#as)" d="M28.22 336.38h24.62v1.59H28.22z"/><path fill="url(#at)" d="M28.22 343.62h24.62v1.59H28.22z"/><path fill="url(#au)" d="M28.22 350.87h24.62v1.59H28.22z"/><path fill="url(#av)" d="M28.22 358.11h24.62v1.59H28.22z"/><path fill="url(#aw)" d="M23.58 365.35h33.91v1.59H23.58z"/><path fill="url(#ax)" d="M28.07 372.6h24.62v1.59H28.07z"/><path fill="url(#ay)" d="M28.07 379.84h24.62v1.59H28.07z"/><path fill="url(#az)" d="M28.07 387.08h24.62v1.59H28.07z"/><path fill="url(#aA)" d="M28.07 394.33h24.62v1.59H28.07z"/><path fill="url(#aB)" d="M23.42 401.57h33.91v1.59H23.42z"/><path fill="url(#aC)" d="M28.22 408.81h24.62v1.59H28.22z"/><path fill="url(#aD)" d="M28.22 416.06h24.62v1.59H28.22z"/><path fill="url(#aE)" d="M28.22 423.3h24.62v1.59H28.22z"/><path fill="url(#aF)" d="M28.22 430.54h24.62v1.59H28.22z"/><path fill="url(#aG)" d="M23.58 437.79h33.91v1.59H23.58z"/><path fill="url(#aH)" d="M28.22 445.03h24.62v1.59H28.22z"/><path fill="url(#aI)" d="M28.22 452.28h24.62v1.59H28.22z"/><path fill="url(#aJ)" d="M28.22 459.52h24.62v1.59H28.22z"/><path fill="url(#aK)" d="M28.22 466.76h24.62v1.59H28.22z"/><path fill="url(#aL)" d="M23.58 474.01h33.91v1.59H23.58z"/><path fill="url(#aM)" d="M23.58 220.71h33.91v1.59H23.58z"/><path fill="url(#aN)" d="M28.22 227.96h24.62v1.59H28.22z"/><path fill="url(#aO)" d="M28.22 235.2h24.62v1.59H28.22z"/><path fill="url(#aP)" d="M28.22 242.44h24.62v1.59H28.22z"/><path fill="url(#aQ)" d="M28.22 249.69h24.62v1.59H28.22z"/><path fill="url(#aR)" d="M23.58 256.93h33.91v1.59H23.58z"/><path fill="url(#aS)" d="M28.07 264.17h24.62v1.59H28.07z"/><path fill="url(#aT)" d="M28.07 271.42h24.62v1.59H28.07z"/><path fill="url(#aU)" d="M28.07 278.66h24.62v1.59H28.07z"/><path fill="url(#aV)" d="M28.07 285.9h24.62v1.59H28.07z"/><path fill="url(#aW)" d="M23.42 293.15h33.91v1.59H23.42z"/><path fill="url(#aX)" d="M28.22 300.39h24.62v1.59H28.22z"/><path fill="url(#aY)" d="M28.22 307.64h24.62v1.59H28.22z"/><path fill="url(#aZ)" d="M28.22 314.88h24.62v1.59H28.22z"/><path fill="url(#ba)" d="M28.22 322.12h24.62v1.59H28.22z"/><path fill="url(#bb)" d="M23.58 329.37h33.91v1.59H23.58z"/><path fill="url(#bc)" d="M28.22 336.61h24.62v1.59H28.22z"/><path fill="url(#bd)" d="M28.22 343.85h24.62v1.59H28.22z"/><path fill="url(#be)" d="M28.22 351.1h24.62v1.59H28.22z"/><path fill="url(#bf)" d="M28.22 358.34h24.62v1.59H28.22z"/><path fill="url(#bg)" d="M23.58 365.58h33.91v1.59H23.58z"/><path fill="url(#bh)" d="M23.58 112.29h33.91v1.59H23.58z"/><path fill="url(#bi)" d="M28.22 119.53h24.62v1.59H28.22z"/><path fill="url(#bj)" d="M28.22 126.78h24.62v1.59H28.22z"/><path fill="url(#bk)" d="M28.22 134.02h24.62v1.59H28.22z"/><path fill="url(#bl)" d="M28.22 141.26h24.62v1.59H28.22z"/><path fill="url(#bm)" d="M23.58 148.51h33.91v1.59H23.58z"/><path fill="url(#bn)" d="M28.07 155.75h24.62v1.59H28.07z"/><path fill="url(#bo)" d="M28.07 163h24.62v1.59H28.07z"/><path fill="url(#bp)" d="M28.07 170.24h24.62v1.59H28.07z"/><path fill="url(#bq)" d="M28.07 177.48h24.62v1.59H28.07z"/><path fill="url(#br)" d="M23.42 184.73h33.91v1.59H23.42z"/><path fill="url(#bs)" d="M28.22 191.97h24.62v1.59H28.22z"/><path fill="url(#bt)" d="M28.22 199.21h24.62v1.59H28.22z"/><path fill="url(#bu)" d="M28.22 206.46h24.62v1.59H28.22z"/><path fill="url(#bv)" d="M28.22 213.7h24.62v1.59H28.22z"/><path fill="url(#bw)" d="M23.58 220.94h33.91v1.59H23.58z"/><path fill="url(#bx)" d="M28.22 228.19h24.62v1.59H28.22z"/><path fill="url(#by)" d="M28.22 235.43h24.62v1.59H28.22z"/><path fill="url(#bz)" d="M28.22 242.67h24.62v1.59H28.22z"/><path fill="url(#bA)" d="M28.22 249.92h24.62v1.59H28.22z"/><path fill="url(#bB)" d="M23.58 257.16h33.91v1.59H23.58z"/><path d="M32.2 484.22V107.58c0-5.46 3.79-9.92 8.42-9.92h.56c4.63 0 8.42 4.46 8.42 9.92v376.64z" fill="#9be0ff"/><g clip-path="url(#bC)"><path fill="#fff" d="M49.64 555.4H32.07V184.99h17.57z"/><path d="M37.97 558.75V187.37h6.22v371.38h-6.24.02z" fill="#8e8e8e"/><path d="M41.46 187.38v371.26h1.39c.77 0 1.39-1.4 1.39-3.12V187.38zm8.13-.81H32.2v-2.07h17.39z" fill="#a8a8a8"/><path fill="#8e8e8e" d="M49.59 188.62H32.21v-2.07h17.38z"/></g><path fill="#d22c20" d="M16.8 487.48h47.36v11.37H16.8z"/><path d="M76.79 519.5c-.71-15.38-16.73-27.67-36.4-27.67S4.7 504.12 4 519.5z" fill="#d22c20"/><path fill="#a81a16" d="M17.33 495.46H63.9v3.19H17.33z"/><path transform="rotate(-180 40.52 486.085)" fill="url(#bD)" d="M20.12 484.33h40.79v3.5H20.12z"/><path fill="none" d="M0 474.17h112.67v374H0z"/><path d="M190 340.83s-9.19 4.36-25.74 3.84-23.2-4.53-23.2-4.53c1.81-2.06 12.66-6.54 16.3-8l1.17-.46c.51-.17 1.84-12.71 1.84-12.71h12.17l1.32 12.86c.39.15.79.3 1.18.47a77.9 77.9 0 0 1 14.96 8.53z" fill="#925930"/><path d="M173 323c-4 1.71-9.71 3.46-13.71 5.23.54-3.76 1.13-9.29 1.13-9.29h12.17z" fill="#7c4825"/><path d="M145.91 287.24c-.83 5.58.89 21.39 6.24 27.33s10.91 8 14.62 8.13 12.22-4.79 16.41-11.8c5.07-8.47 4.62-24.55 3.58-30.79s-11.59-12-21.69-10.4-17.07 3.56-19.16 17.53z" fill="#925930"/><path d="M185.3 298.49a3.44 3.44 0 0 1 1.81-1.35 2.56 2.56 0 0 1 2.2.32 3 3 0 0 1 1.08 2.6 8.48 8.48 0 0 1-.81 2.8 8.61 8.61 0 0 1-2.38 3.57 3.14 3.14 0 0 1-4 0zm-38.08 0a3.44 3.44 0 0 0-1.81-1.35 2.56 2.56 0 0 0-2.2.32 3 3 0 0 0-1.08 2.6 8.25 8.25 0 0 0 .81 2.8 8.52 8.52 0 0 0 2.38 3.57 3.14 3.14 0 0 0 4 0z" fill="#925930"/><path d="M169.47 304.1c-1-.53-3.4-.48-5.24-.18a1.75 1.75 0 0 0-.69.22c-.19.13-.13.37 0 .58a6.87 6.87 0 0 0 2.11 1.48 2.19 2.19 0 0 0 1 .29 2.33 2.33 0 0 0 1.36-.59c.6-.48 1.86-1.2 1.46-1.8z" fill="#7c4825"/><path d="M148.12 269.36s13.57-9.44 28.91-8.87 14.47 8.55 14.38 9.74c-.38 5.4-3.82 23.25-5 30.69l-2.59-21.66s-22 2-32.73-2.64c0 0 1.6 5.85 1.16 5.85a21.2 21.2 0 0 1-3.26-2l-2.22 20.41s-5.06-22.92-4.28-27.22 3.51-5.5 5.63-4.3z" fill="#3d2718"/><path d="M157.39 280.67a22.58 22.58 0 0 0-8 5 24.88 24.88 0 0 1 3.15 3.26 29.43 29.43 0 0 1 7.7-4.8l-1.54-3.77-.57 1zm17.3-.01a22.43 22.43 0 0 1 8 5 24.27 24.27 0 0 0-3.16 3.25 29.31 29.31 0 0 0-7.69-4.83l1.56-3.76.56 1z" fill="#2e1c10"/><path d="M145.09 293l2.43 26s7.35 6.43 9.74 6.52 18.66.83 21.23 0 7.26-5.6 7.26-6.06 2.27-28 2.27-28l-3-1.77s.89 15.94-1.22 16.37-34.83 2-35.29-.4-.86-13.32-.86-13.32z" fill="#3d2718"/><path d="M157.76 293.34c2.14.47 3.2 1.44 2.86 4.9a3.47 3.47 0 0 1-.57 1.84 6.07 6.07 0 0 1-1.62 1c-1.39.72-3.35 1.55-4.8.7a4.69 4.69 0 0 1-2.17-3.53 4.59 4.59 0 0 1 .22-2.82c.77-1.46 2.56-2 4.16-2.4z" fill="#fff"/><path d="M155.06 299a2.12 2.12 0 0 1-.11-2.28 1.62 1.62 0 0 1 .64-.63 1.18 1.18 0 0 1 .9-.08 1.44 1.44 0 0 1 .81 1.13 2.12 2.12 0 0 1-.57 2.11 1.15 1.15 0 0 1-.92.28 1.22 1.22 0 0 1-.75-.53z" fill="#2e1c10"/><path d="M151 297.32a5.11 5.11 0 0 1 3.34-3.57 5.74 5.74 0 0 1 4.14 0 4.46 4.46 0 0 1 2.23 2.55c.16.41.61.36.66.1a5 5 0 0 0-4-4.3 6.19 6.19 0 0 0-6.42 2.75 3.91 3.91 0 0 0-.64 1.92c.06.68.62.93.69.55z" fill="#7c4825"/><path d="M174.57 293.34c-2.14.47-3.19 1.44-2.86 4.9a3.48 3.48 0 0 0 .58 1.84 6 6 0 0 0 1.61 1c1.39.72 3.36 1.55 4.8.7a5.68 5.68 0 0 0 2-6.35c-.78-1.46-2.56-2-4.17-2.4z" fill="#fff"/><path d="M177.27 299a2.1 2.1 0 0 0 .1-2.26 1.63 1.63 0 0 0-.63-.62 1.15 1.15 0 0 0-.89-.08 1.45 1.45 0 0 0-.8 1.12 2.09 2.09 0 0 0 .56 2.08 1.17 1.17 0 0 0 .91.29 1.26 1.26 0 0 0 .75-.53z" fill="#2e1c10"/><path d="M181.31 297.32a5.09 5.09 0 0 0-3.34-3.57 5.71 5.71 0 0 0-4.13 0 4.44 4.44 0 0 0-2.24 2.55c-.16.41-.61.36-.66.1a5 5 0 0 1 4-4.3 6.19 6.19 0 0 1 6.42 2.75 3.81 3.81 0 0 1 .64 1.92c0 .68-.6.93-.69.55z" fill="#7c4825"/><path d="M160.57 312c-.09 0-.18 0-.22.06a16 16 0 0 0-.07 2.35.6.6 0 0 1 .29.07 10.38 10.38 0 0 0 6.73 1.71 11.56 11.56 0 0 0 5.8-2l.29-.17a5.69 5.69 0 0 0-.31-2.4z" fill="#0f0202"/><path d="M160.57 314.44c1.1 1 3.09 1.82 6.73 1.71 3-.1 4.79-.94 5.79-2 .15-.68 0-1.15-.42-1.32.51-.25.57-.67.37-1.25l-12.55.4c0 .57-.08 1 .62 1.14-.68.16-.55 1.16-.54 1.32z" fill="#fff"/><path d="M160.28 314.38a4.37 4.37 0 0 0-.78 0 .7.7 0 0 0-.55.31 2.86 2.86 0 0 0-.07.28.3.3 0 0 1-.18.21.24.24 0 0 1-.24-.12.79.79 0 0 1-.08-.26l-.07-.4a.74.74 0 0 1 0-.33.22.22 0 0 1 .26-.14c.12.06.15.25.28.27s.15 0 .21-.09a3 3 0 0 0 .71-1 4.3 4.3 0 0 1 .28-.57l.15-.3a1.55 1.55 0 0 0 .14-.29l-.06 2.43zm13.12-.38a4.07 4.07 0 0 1 .79 0 .69.69 0 0 1 .56.28 2.29 2.29 0 0 1 .09.28.26.26 0 0 0 .2.19.23.23 0 0 0 .22-.13.64.64 0 0 0 .07-.27v-.4a.61.61 0 0 0 0-.33.2.2 0 0 0-.26-.12c-.12.06-.14.26-.27.29s-.15 0-.21-.09a2.76 2.76 0 0 1-.77-.93 5.89 5.89 0 0 0-.32-.54c0-.1-.11-.2-.17-.3s-.15-.19-.15-.27z" fill="#0c0704"/><path fill="#473c35" d="M141.98 495.71l-.06 7.84h8.7l.28-8.36-8.92.52z"/><path d="M151.35 503.55c0-2.13-.19-4-.51-2.72s-1.5 1.32-2.11 1.25a17.48 17.48 0 0 0-3.43-.32c-.49 0-2.21.77-2.82.58s-1.35-1.11-1.65-.91c-1.09.74-8.76 10.09-8.76 10.09l-.19.24.53 3 .48 2.71a9.19 9.19 0 0 0 1 .19l4.66-.7 2.71-1.48 10.08-5.48v-6.4z" fill="#6b391d"/><path d="M131.69 515.61v.33a.73.73 0 0 1 0-.31z" fill="#e2e2de"/><path d="M141.47 501.56s.41-.62.83-.58l3.65.42a.6.6 0 0 1 .3 1l-7.88 8.34a13.54 13.54 0 0 1-4.26 0z" fill="#7c4124"/><path d="M141.63 514.68a1.19 1.19 0 0 1-.36.75c-.75.84-2.51 1.62-3.14 2.26h-3.24l-1-.08a9.19 9.19 0 0 1-1-.19 3.81 3.81 0 0 1-1.3-.56c-.06-.09-.11-.18-.16-.27a4 4 0 0 1-.48-1.88 5.06 5.06 0 0 1 .16-1.31 4.53 4.53 0 0 1 .77-1.61l.19-.24a4.79 4.79 0 0 1 3-1.57 6.43 6.43 0 0 1 1-.08 6.31 6.31 0 0 1 2.55.51 4.75 4.75 0 0 1 3 3.8 4.19 4.19 0 0 1 .01.47z" fill="#512915"/><path d="M146.56 511.7a14.11 14.11 0 0 1-5 2.48 14.43 14.43 0 0 1-3.89.53h-2c-3.14 0-4.23-.74-4.6-1.34a5.06 5.06 0 0 0-.16 1.31v1.22a1.34 1.34 0 0 0 .35.68 1.85 1.85 0 0 0 .29.24 3.81 3.81 0 0 0 1.3.56 9.19 9.19 0 0 0 1 .19l1.16.08c1.09 0 2.19.06 2.19.06a15.76 15.76 0 0 0 9.68-3.3l3.5-2.71a2.34 2.34 0 0 0 .91-1.79.17.17 0 0 0 0-.07V508z" fill="#7c4124"/><path fill="#473c35" d="M190.77 496.69l-.26 7.84-8.69-.36.06-8.36 8.89.88z"/><path d="M181.05 504.34c0-2.13.18-4 .5-2.72s1.5 1.32 2.11 1.25a18.37 18.37 0 0 1 3.44-.31c.48 0 2.2.77 2.81.57s1.35-1.1 1.65-.9c1.09.74 8.76 10.09 8.76 10.09l.2.23-.52 2.95-.49 2.72a9.63 9.63 0 0 1-1 .18l-4.67-.7-2.71-1.48-10.07-5.48v-6.4z" fill="#6b391d"/><path d="M200.7 516.4v.33a.74.74 0 0 0 0-.31z" fill="#e2e2de"/><path d="M190.92 502.35s-.41-.62-.82-.57l-3.66.42a.59.59 0 0 0-.3 1l7.88 8.35a13.54 13.54 0 0 0 4.26 0z" fill="#7c4124"/><path d="M190.76 515.47a1.15 1.15 0 0 0 .36.75c.75.85 2.51 1.62 3.14 2.26h3.24a10.28 10.28 0 0 0 2-.26 3.72 3.72 0 0 0 1.3-.56 2.54 2.54 0 0 0 .16-.28 3.92 3.92 0 0 0 .48-1.88 5.17 5.17 0 0 0-.16-1.31 4.55 4.55 0 0 0-.76-1.6l-.2-.24a4.8 4.8 0 0 0-3-1.58 6.36 6.36 0 0 0-1-.07 6.48 6.48 0 0 0-2.55.5 4.77 4.77 0 0 0-3 3.81 3.91 3.91 0 0 0-.01.46z" fill="#512915"/><path d="M185.83 512.49a14.32 14.32 0 0 0 8.85 3h2c3.14 0 4.23-.74 4.6-1.34a5.17 5.17 0 0 1 .16 1.31v1.22a1.23 1.23 0 0 1-.35.68 1.87 1.87 0 0 1-.29.25 3.72 3.72 0 0 1-1.3.56 9.63 9.63 0 0 1-1 .18c-.35 0-.76.06-1.17.08-1.09.06-2.19.06-2.19.06a15.81 15.81 0 0 1-9.68-3.29l-3.5-2.72a2.34 2.34 0 0 1-.91-1.79v-2z" fill="#7c4124"/><path d="M166.39 415.31l.31 20.23c0 .07-.14 5.76-.2 5.76-6.26.16-17.71 0-26.36-1.76a84.66 84.66 0 0 0 1.49 13.61c1.36 6.13 10.27 44.79 10.27 44.79 0 .42-.59.54-1.47.82a8.86 8.86 0 0 1-1.09.32 15 15 0 0 1-2.56.08h-2.48a24.63 24.63 0 0 1-3.28-.32s-28.51-64.07-22.56-72.69c4-5.77 12.32-6.56 19.27-5.37.58.1-.48-5.49-.48-5.49h29.18z" fill="#ab7348"/><path d="M166.57 432.39l-.13 9a147 147 0 0 1-26.36-1.89s-.1 7.75 1.39 13.11 10.43 45.35 10.43 45.35c0 .42-.62.54-1.49.82-3.42-13.64-17.65-56.32-17.25-61.07.54-5.56 33.41-5.32 33.41-5.32z" fill="#9e6946"/><path d="M166.41 415.31v20.28s-.06 5.68 0 5.68c1.89-.15 6.26.39 25.73-1.79a16.61 16.61 0 0 1-.2 10.79c-2.12 5.83-11 47.67-11 47.67h.05c0 .42.54.79 1.42 1.07a8.06 8.06 0 0 0 1 .26 15.09 15.09 0 0 0 2.65.22 16.32 16.32 0 0 0 2.31-.16c1.66-.26 3.25-.46 3.25-.47l.43-1.27s28.28-62.8 22.33-71.42c-4-5.77-12.32-6.56-19.27-5.37-.58.1.48-5.49.48-5.49h-29.18z" fill="#ab7348"/><path d="M166.52 432.31l-.27 9.06c8.65-.1 4.22-.5 26.47-1.89 0 0 .1 7.75-1.39 13.11s-10.44 45.35-10.44 45.35h.05c0 .42.54.79 1.42 1.07 3.41-13.64 17.72-56.57 17.32-61.32-.58-5.54-33.16-5.38-33.16-5.38z" fill="#9e6946"/><path d="M178.66 330.08v2a3.15 3.15 0 0 1 0 .47v.8a15.08 15.08 0 0 1-.23 1.82 14.71 14.71 0 0 1-.62 2.26c-.06.14-.11.28-.16.42l-.05.1-.12.3-.06.13c0 .09-.08.18-.13.27a1.12 1.12 0 0 1-.05.13l-.19.37c0 .1-.11.2-.16.31l-.15.27a2.53 2.53 0 0 0-.13.22l-.1.17a2.39 2.39 0 0 0-.13.21l-.15.22c-.11.18-.23.36-.35.53l-.14.18-.12.17c-.09.13-.19.25-.29.37l-.12.16c-.35.42-.71.83-1.08 1.22l-.23.22-.17.17c-.29.28-.58.55-.87.8l-.25.22a24.61 24.61 0 0 1-2 1.5l-.24.16c-.63.43-1.24.79-1.78 1.1l-.3.16-.29.15-.18.1c-.5.25-.91.44-1.22.58l-.38.16-.14.05h-.13l-.44-.18-.22-.1a.11.11 0 0 0-.07 0c-.46-.21-1.07-.52-1.78-.91l-.33-.19c-.37-.22-.77-.46-1.18-.73a26.93 26.93 0 0 1-2.36-1.75l-.21-.18c-.38-.34-.76-.69-1.13-1.06l-.32-.33-.15-.16a16.16 16.16 0 0 1-1.07-1.24l-.2-.27-.14-.18-.29-.41-.15-.23-.13-.2c-.06-.08-.11-.17-.17-.26s-.1-.16-.14-.24l-.1-.17c-.07-.13-.15-.26-.22-.4s-.09-.16-.12-.23c0-.06-.06-.13-.1-.2l-.09-.18-.12-.27a1.59 1.59 0 0 1-.12-.27l-.06-.12-.12-.29c0-.13-.09-.25-.14-.37a16.09 16.09 0 0 1-.63-2.27 15.08 15.08 0 0 1-.23-1.82v-3.23h25.41z" fill="#925930"/><path d="M177.77 337.4c-2.9 7.9-11.82 11.22-11.82 11.22s-8.91-3.31-11.81-11.21a50.38 50.38 0 0 0 23.63 0z" fill="#925930"/><path fill="#ededed" d="M196.28 418.92l-56.42-1.2 12.32-87.81 15.56 3.31 16.36-3.31 12.18 89.01z"/><path d="M166.58 332.62s-3.58 43.55-3.47 44.13 2.67 3.92 3.74 4.06c.66.1 4.53-3.08 4.94-4 .78-1.73-3.77-44.21-3.77-44.21z" fill="#473c35"/><path d="M162.54 332.86s6.64-.62 9.25 0c0 0-2.95 6-4.62 6.6 0 0-4.54-3.76-4.63-6.6z" fill="#473c35"/><path d="M158.78 327.46s.84 3.38 8.88 5.17a84.79 84.79 0 0 1-7.27 8s-4.75-7.72-4.72-11.4zm8.88 5.17a84.54 84.54 0 0 0 6.61 8.41s2.83-7.38 3.88-11.64c0 0-2.84-1.83-3.8-2.27a12.13 12.13 0 0 1-6.69 5.5z" fill="#dbdbdb"/><path d="M149.42 331s9.15 17.48 18 25.44c0 0 15.83-11.66 19.17-21.75l2.5.57s1.82 77 1.94 85c0 0-20.35 4.48-41.58 0 0 0-3.2-84.19-3.4-87.84z" fill="#b53116"/><path d="M155.24 329.89h-8a9 9 0 0 0-8.89 8.58l-3.09 84.25a.34.34 0 0 0 .34.36h2.29c6.36 0 20.65 0 20.65-20.26z" fill="url(#d)"/><path d="M179.19 329.89h8.19a9 9 0 0 1 8.89 8.58l3.09 84.25a.34.34 0 0 1-.34.36h-2.29c-6.36 0-20.65 0-20.65-20.26z" fill="url(#bE)"/><path d="M140 358.88c-.1 1.7.12 11.57 1.72 14.33s9.43 1.85 10-2.38-.28-12.22-.28-12.22-7.77.02-11.44.27z" fill="#442b28"/><path fill="#69423d" d="M147.16 329.9l9.75-1.33 1.55 69.38-6.76-47.78 3.09-5.9-4.23 1.02-3.4-15.39zm40.27 0l-10.11-1.05-1.19 69.1 6.75-47.78-3.09-5.9 4.24 1.02 3.4-15.39z"/><path fill="#925930" d="M126.24 420.61l-1.01-3.61 3.01-5.5 5.87-1.65 2.72 9.7-10.59 1.06z"/><path d="M130.7 420.12a4.42 4.42 0 1 1 3.06-5.45 4.42 4.42 0 0 1-3.06 5.45z" fill="#925930"/><path d="M131.69 423.67a4.42 4.42 0 1 1 3.06-5.45 4.43 4.43 0 0 1-3.06 5.45z" fill="#925930"/><path d="M133.49 419.34a4.42 4.42 0 1 1 3.06-5.45 4.43 4.43 0 0 1-3.06 5.45z" fill="#925930"/><path fill="#925930" d="M124.03 408.282l8.477-2.384 2.4 8.535-8.476 2.384z"/><path d="M136.42 417.92c-1.85-2.17-2.89-4.35-2.31-4.85s2.59.86 4.45 3 2.89 4.36 2.31 4.86-2.59-.84-4.45-3.01z" fill="#925930"/><path d="M135.4 421.79c-1.14-4.08-1.5-7.57-.79-7.77s2.21 3 3.36 7.05 1.5 7.58.79 7.77-2.22-2.97-3.36-7.05z" fill="#925930"/><path d="M133.13 423.57c-1.19-4.24-1.58-7.87-.88-8.06s2.26 3.1 3.45 7.34l.15.56c1.19 4.23 1.59 7.86.88 8.06s-2.25-3.11-3.44-7.34z" fill="#925930"/><path d="M130.48 424c-1.14-4.08-1.5-7.58-.79-7.77s2.22 3 3.36 7 1.5 7.57.79 7.77-2.21-2.93-3.36-7z" fill="#925930"/><path d="M127.31 422.54c-1-3.6-1.26-6.71-.56-6.91s2.11 2.59 3.12 6.19 1.26 6.71.55 6.91-2.1-2.59-3.11-6.19z" fill="#925930"/><path d="M133.1 405.82c-.76.31.25 1.48.58 2.5s.66 2.27.66 2.27l-8.64 2.09-.93-3.31z" fill="#ededed"/><path d="M133.72 408.33l-.2-.85a3.27 3.27 0 0 1 0-.45v-5.33l.06-1c.16-2.69.47-5.42.85-8.16s.85-5.47 1.37-8.2 1.1-5.46 1.74-8.17 1.31-5.42 2-8.1 1.49-5.36 2.31-8 1.69-5.28 2.6-7.89 1.88-5.17 2.89-7.71l-15.56-5.07q-1.2 4.32-2.2 8.64c-.67 2.88-1.27 5.77-1.84 8.66s-1 5.79-1.51 8.69-.85 5.82-1.2 8.73-.65 5.84-.88 8.78-.41 5.89-.51 8.86-.09 6 .06 9l.06 1.15c0 .38.06.77.08 1.16s.06.77.11 1.17l.13 1.18v.6l.09.61c.06.4.12.8.2 1.23l.12.62.06.31v.33l.33 1.31z" fill="#69423d"/><path d="M142.23 334.26a7.82 7.82 0 0 0-6.26.25 8.3 8.3 0 0 0-2.56 1.95 8.42 8.42 0 0 0-2 6.27 8 8 0 0 0 .91 3.06 7.9 7.9 0 0 0 4.88 3.92 8.47 8.47 0 0 0 6.21-.66 8.16 8.16 0 0 0 2.39-1.89 7.58 7.58 0 0 0 1.53-2.7 7.69 7.69 0 0 0 .36-3.07 8.2 8.2 0 0 0-.83-2.92 8.53 8.53 0 0 0-4.63-4.21z" fill="#69423d"/><g clip-path="url(#bF)"><ellipse cx="124.23" cy="383.72" rx="7.81" ry="3.97" transform="rotate(-87.2 124.232 383.721)" fill="#ab7348"/></g><path fill="#925930" d="M207.74 419.15l1.01-3.6-3-5.51-5.87-1.65-2.72 9.7 10.58 1.06z"/><path d="M203.29 418.66a4.42 4.42 0 1 0-3.06-5.44 4.42 4.42 0 0 0 3.06 5.44z" fill="#925930"/><path d="M202.3 422.21a4.42 4.42 0 1 0-3.07-5.45 4.41 4.41 0 0 0 3.07 5.45z" fill="#925930"/><path d="M200.49 417.88a4.42 4.42 0 1 0-3.06-5.45 4.42 4.42 0 0 0 3.06 5.45z" fill="#925930"/><path fill="#925930" d="M198.314 413.922l2.409-8.557 8.5 2.392-2.41 8.558z"/><path d="M197.56 416.47c1.86-2.17 2.9-4.36 2.31-4.86s-2.58.86-4.44 3-2.9 4.36-2.31 4.86 2.58-.83 4.44-3z" fill="#925930"/><path d="M198.58 420.33c1.15-4.07 1.51-7.57.8-7.77s-2.22 3-3.36 7.05-1.5 7.58-.8 7.78 2.22-2.98 3.36-7.06zm2.27 1.78c1.19-4.24 1.59-7.86.88-8.06s-2.25 3.1-3.44 7.34l-.16.56c-1.19 4.24-1.58 7.87-.88 8.06s2.26-3.1 3.45-7.34z" fill="#925930"/><path d="M203.5 422.54c1.15-4.08 1.5-7.57.8-7.77s-2.22 3-3.36 7.05-1.51 7.58-.8 7.77 2.22-2.97 3.36-7.05z" fill="#925930"/><path d="M206.68 421.08c1-3.6 1.26-6.71.55-6.91s-2.11 2.59-3.12 6.19-1.25 6.71-.55 6.91 2.11-2.59 3.12-6.19z" fill="#925930"/><path d="M200.9 404.21c.77.31-.26 1.67-.59 2.69s-.65 2.08-.65 2.08l8.64 2.09.93-3.3z" fill="#ededed"/><path d="M200.29 406.84l.18-.82v-.9c0-.3 0-.62.05-.94v-3.94l-.06-1c-.16-2.69-.47-5.42-.85-8.16s-.86-5.47-1.38-8.2-1.1-5.46-1.73-8.17-1.31-5.41-2-8.1-1.5-5.36-2.32-8-1.68-5.28-2.59-7.88-1.88-5.18-2.89-7.71l15.56-5.08c.8 2.88 1.52 5.76 2.2 8.64s1.27 5.77 1.83 8.67 1.06 5.79 1.51 8.69.85 5.81 1.21 8.73.64 5.84.88 8.77.41 5.89.5 8.86.1 6 0 9l-.06 1.15c0 .38-.06.78-.09 1.16s-.05.77-.1 1.17L210 404v.29l-.05.3-.09.61c-.06.4-.11.8-.2 1.23l-.12.62-.06.32v.32L209 409z" fill="#69423d"/><path d="M191.76 332.8a7.86 7.86 0 0 1 6.26.25 8.3 8.3 0 0 1 2.55 1.95 8.42 8.42 0 0 1 2.05 6.28 8.29 8.29 0 0 1-.91 3.06 7.91 7.91 0 0 1-4.89 3.91 8.4 8.4 0 0 1-6.2-.66 8.17 8.17 0 0 1-2.4-1.89 7.86 7.86 0 0 1-1.88-5.76 8.07 8.07 0 0 1 .82-2.92 8.57 8.57 0 0 1 4.6-4.22z" fill="#69423d"/><g clip-path="url(#bG)"><ellipse cx="210.06" cy="382.13" rx="3.97" ry="7.81" transform="rotate(-2.73 210.288 382.508)" fill="#ab7348"/></g><path d="M169.67 296h-.18l-2-.62a5.08 5.08 0 0 0-2.89 0l-2 .62a.61.61 0 0 1-.77-.46.67.67 0 0 1 .43-.83l2-.61a6.1 6.1 0 0 1 3.59 0l2 .61a.69.69 0 0 1 .43.83.64.64 0 0 1-.61.46zm-21.24 2.25h-2.52a.67.67 0 0 1 0-1.34h2.35a5.33 5.33 0 0 0 .17 1.34zm35.75-1.61h2.38a.67.67 0 1 1 0 1.34h-2.43z" fill="#372b36"/><circle cx="155.61" cy="296.67" r="6.85" fill="none" stroke="#372b36" stroke-miterlimit="10"/><circle cx="176.7" cy="296.67" r="6.85" fill="none" stroke="#372b36" stroke-miterlimit="10"/></g></svg>