<svg xmlns="http://www.w3.org/2000/svg" xmlns:xlink="http://www.w3.org/1999/xlink" viewBox="0 0 332.11 848.17"><defs><linearGradient id="b" x1="-182.75" y1="288.95" x2="-148.36" y2="288.95" gradientTransform="matrix(1 0 0 -1 460.49 577.9)" gradientUnits="userSpaceOnUse"><stop offset=".01" stop-color="#d22c20"/><stop offset=".31" stop-color="#e7342e"/><stop offset=".51" stop-color="#ef3733"/><stop offset=".72" stop-color="#e6332d"/><stop offset="1" stop-color="#d22c20"/></linearGradient><linearGradient id="a" x1="311.62" y1="329.93" x2="278.86" y2="329.93" gradientUnits="userSpaceOnUse"><stop offset=".05" stop-color="#d3d2d2"/><stop offset=".37" stop-color="#9a9a9c"/><stop offset=".64" stop-color="#9a9a9c"/><stop offset="1" stop-color="#d1d6d5"/></linearGradient><linearGradient id="e" x1="307.23" y1="337.17" x2="283.44" y2="337.17" xlink:href="#a"/><linearGradient id="f" x1="307.23" y1="344.42" x2="283.44" y2="344.42" xlink:href="#a"/><linearGradient id="g" x1="307.23" y1="351.66" x2="283.44" y2="351.66" xlink:href="#a"/><linearGradient id="h" x1="307.23" y1="358.9" x2="283.44" y2="358.9" xlink:href="#a"/><linearGradient id="i" x1="311.62" y1="366.15" x2="278.86" y2="366.15" xlink:href="#a"/><linearGradient id="j" x1="307.38" y1="373.39" x2="283.59" y2="373.39" xlink:href="#a"/><linearGradient id="k" x1="307.38" y1="380.63" x2="283.59" y2="380.63" xlink:href="#a"/><linearGradient id="l" x1="307.38" y1="387.88" x2="283.59" y2="387.88" xlink:href="#a"/><linearGradient id="m" x1="307.38" y1="395.12" x2="283.59" y2="395.12" xlink:href="#a"/><linearGradient id="n" x1="311.78" y1="402.37" x2="279.01" y2="402.37" xlink:href="#a"/><linearGradient id="o" x1="307.23" y1="409.61" x2="283.44" y2="409.61" xlink:href="#a"/><linearGradient id="p" x1="307.23" y1="416.85" x2="283.44" y2="416.85" xlink:href="#a"/><linearGradient id="q" x1="307.23" y1="424.1" x2="283.44" y2="424.1" xlink:href="#a"/><linearGradient id="r" x1="307.23" y1="431.34" x2="283.44" y2="431.34" xlink:href="#a"/><linearGradient id="s" x1="311.62" y1="438.58" x2="278.86" y2="438.58" xlink:href="#a"/><linearGradient id="t" x1="307.23" y1="445.83" x2="283.44" y2="445.83" xlink:href="#a"/><linearGradient id="u" x1="307.23" y1="453.07" x2="283.44" y2="453.07" xlink:href="#a"/><linearGradient id="v" x1="307.23" y1="460.31" x2="283.44" y2="460.31" xlink:href="#a"/><linearGradient id="w" x1="307.23" y1="467.56" x2="283.44" y2="467.56" xlink:href="#a"/><linearGradient id="x" x1="311.62" y1="474.8" x2="278.86" y2="474.8" xlink:href="#a"/><linearGradient id="y" x1="311.62" y1="221.51" x2="278.86" y2="221.51" xlink:href="#a"/><linearGradient id="z" x1="307.23" y1="228.75" x2="283.44" y2="228.75" xlink:href="#a"/><linearGradient id="A" x1="307.23" y1="235.99" x2="283.44" y2="235.99" xlink:href="#a"/><linearGradient id="B" x1="307.23" y1="243.24" x2="283.44" y2="243.24" xlink:href="#a"/><linearGradient id="C" x1="307.23" y1="250.48" x2="283.44" y2="250.48" xlink:href="#a"/><linearGradient id="D" x1="311.62" y1="257.73" x2="278.86" y2="257.73" xlink:href="#a"/><linearGradient id="E" x1="307.38" y1="264.97" x2="283.59" y2="264.97" xlink:href="#a"/><linearGradient id="F" x1="307.38" y1="272.21" x2="283.59" y2="272.21" xlink:href="#a"/><linearGradient id="G" x1="307.38" y1="279.46" x2="283.59" y2="279.46" xlink:href="#a"/><linearGradient id="H" x1="307.38" y1="286.7" x2="283.59" y2="286.7" xlink:href="#a"/><linearGradient id="I" x1="311.78" y1="293.94" x2="279.01" y2="293.94" xlink:href="#a"/><linearGradient id="J" x1="307.23" y1="301.19" x2="283.44" y2="301.19" xlink:href="#a"/><linearGradient id="K" x1="307.23" y1="308.43" x2="283.44" y2="308.43" xlink:href="#a"/><linearGradient id="L" x1="307.23" y1="315.67" x2="283.44" y2="315.67" xlink:href="#a"/><linearGradient id="M" x1="307.23" y1="322.92" x2="283.44" y2="322.92" xlink:href="#a"/><linearGradient id="N" x1="311.62" y1="330.16" x2="278.86" y2="330.16" xlink:href="#a"/><linearGradient id="O" x1="307.23" y1="337.4" x2="283.44" y2="337.4" xlink:href="#a"/><linearGradient id="P" x1="307.23" y1="344.65" x2="283.44" y2="344.65" xlink:href="#a"/><linearGradient id="Q" x1="307.23" y1="351.89" x2="283.44" y2="351.89" xlink:href="#a"/><linearGradient id="R" x1="307.23" y1="359.13" x2="283.44" y2="359.13" xlink:href="#a"/><linearGradient id="S" x1="311.62" y1="366.38" x2="278.86" y2="366.38" xlink:href="#a"/><linearGradient id="T" x1="311.62" y1="113.09" x2="278.86" y2="113.09" xlink:href="#a"/><linearGradient id="U" x1="307.23" y1="120.33" x2="283.44" y2="120.33" xlink:href="#a"/><linearGradient id="V" x1="307.23" y1="127.57" x2="283.44" y2="127.57" xlink:href="#a"/><linearGradient id="W" x1="307.23" y1="134.82" x2="283.44" y2="134.82" xlink:href="#a"/><linearGradient id="X" x1="307.23" y1="142.06" x2="283.44" y2="142.06" xlink:href="#a"/><linearGradient id="Y" x1="311.62" y1="149.3" x2="278.86" y2="149.3" xlink:href="#a"/><linearGradient id="Z" x1="307.38" y1="156.55" x2="283.59" y2="156.55" xlink:href="#a"/><linearGradient id="aa" x1="307.38" y1="163.79" x2="283.59" y2="163.79" xlink:href="#a"/><linearGradient id="ab" x1="307.38" y1="171.03" x2="283.59" y2="171.03" xlink:href="#a"/><linearGradient id="ac" x1="307.38" y1="178.28" x2="283.59" y2="178.28" xlink:href="#a"/><linearGradient id="ad" x1="311.78" y1="185.52" x2="279.01" y2="185.52" xlink:href="#a"/><linearGradient id="ae" x1="307.23" y1="192.76" x2="283.44" y2="192.76" xlink:href="#a"/><linearGradient id="af" x1="307.23" y1="200.01" x2="283.44" y2="200.01" xlink:href="#a"/><linearGradient id="ag" x1="307.23" y1="207.25" x2="283.44" y2="207.25" xlink:href="#a"/><linearGradient id="ah" x1="307.23" y1="214.49" x2="283.44" y2="214.49" xlink:href="#a"/><linearGradient id="ai" x1="311.62" y1="221.74" x2="278.86" y2="221.74" xlink:href="#a"/><linearGradient id="aj" x1="307.23" y1="228.98" x2="283.44" y2="228.98" xlink:href="#a"/><linearGradient id="ak" x1="307.23" y1="236.23" x2="283.44" y2="236.23" xlink:href="#a"/><linearGradient id="al" x1="307.23" y1="243.47" x2="283.44" y2="243.47" xlink:href="#a"/><linearGradient id="am" x1="307.23" y1="250.71" x2="283.44" y2="250.71" xlink:href="#a"/><linearGradient id="an" x1="311.62" y1="257.96" x2="278.86" y2="257.96" xlink:href="#a"/><clipPath id="ao"><path fill="none" d="M286.53 112.37h17.37v371.86h-17.37z"/></clipPath><linearGradient id="c" x1="275.18" y1="486.08" x2="315.97" y2="486.08" gradientUnits="userSpaceOnUse"><stop offset=".01" stop-color="#d22c20"/><stop offset=".26" stop-color="#e2322b"/><stop offset=".51" stop-color="#ef3733"/><stop offset="1" stop-color="#d22c20"/></linearGradient><linearGradient id="ap" x1="-368.75" y1="288.95" x2="-334.36" y2="288.95" gradientTransform="translate(392.71)" xlink:href="#b"/><linearGradient id="aq" x1="497.62" y1="329.93" x2="464.86" y2="329.93" gradientTransform="matrix(-1 0 0 1 522.09 0)" xlink:href="#a"/><linearGradient id="ar" x1="493.23" y1="337.17" x2="469.44" y2="337.17" gradientTransform="matrix(-1 0 0 1 522.09 0)" xlink:href="#a"/><linearGradient id="as" x1="493.23" y1="344.42" x2="469.44" y2="344.42" gradientTransform="matrix(-1 0 0 1 522.09 0)" xlink:href="#a"/><linearGradient id="at" x1="493.23" y1="351.66" x2="469.44" y2="351.66" gradientTransform="matrix(-1 0 0 1 522.09 0)" xlink:href="#a"/><linearGradient id="au" x1="493.23" y1="358.9" x2="469.44" y2="358.9" gradientTransform="matrix(-1 0 0 1 522.09 0)" xlink:href="#a"/><linearGradient id="av" x1="497.62" y1="366.15" x2="464.86" y2="366.15" gradientTransform="matrix(-1 0 0 1 522.09 0)" xlink:href="#a"/><linearGradient id="aw" x1="493.38" y1="373.39" x2="469.59" y2="373.39" gradientTransform="matrix(-1 0 0 1 522.09 0)" xlink:href="#a"/><linearGradient id="ax" x1="493.38" y1="380.63" x2="469.59" y2="380.63" gradientTransform="matrix(-1 0 0 1 522.09 0)" xlink:href="#a"/><linearGradient id="ay" x1="493.38" y1="387.88" x2="469.59" y2="387.88" gradientTransform="matrix(-1 0 0 1 522.09 0)" xlink:href="#a"/><linearGradient id="az" x1="493.38" y1="395.12" x2="469.59" y2="395.12" gradientTransform="matrix(-1 0 0 1 522.09 0)" xlink:href="#a"/><linearGradient id="aA" x1="497.78" y1="402.37" x2="465.01" y2="402.37" gradientTransform="matrix(-1 0 0 1 522.09 0)" xlink:href="#a"/><linearGradient id="aB" x1="493.23" y1="409.61" x2="469.44" y2="409.61" gradientTransform="matrix(-1 0 0 1 522.09 0)" xlink:href="#a"/><linearGradient id="aC" x1="493.23" y1="416.85" x2="469.44" y2="416.85" gradientTransform="matrix(-1 0 0 1 522.09 0)" xlink:href="#a"/><linearGradient id="aD" x1="493.23" y1="424.1" x2="469.44" y2="424.1" gradientTransform="matrix(-1 0 0 1 522.09 0)" xlink:href="#a"/><linearGradient id="aE" x1="493.23" y1="431.34" x2="469.44" y2="431.34" gradientTransform="matrix(-1 0 0 1 522.09 0)" xlink:href="#a"/><linearGradient id="aF" x1="497.62" y1="438.58" x2="464.86" y2="438.58" gradientTransform="matrix(-1 0 0 1 522.09 0)" xlink:href="#a"/><linearGradient id="aG" x1="493.23" y1="445.83" x2="469.44" y2="445.83" gradientTransform="matrix(-1 0 0 1 522.09 0)" xlink:href="#a"/><linearGradient id="aH" x1="493.23" y1="453.07" x2="469.44" y2="453.07" gradientTransform="matrix(-1 0 0 1 522.09 0)" xlink:href="#a"/><linearGradient id="aI" x1="493.23" y1="460.31" x2="469.44" y2="460.31" gradientTransform="matrix(-1 0 0 1 522.09 0)" xlink:href="#a"/><linearGradient id="aJ" x1="493.23" y1="467.56" x2="469.44" y2="467.56" gradientTransform="matrix(-1 0 0 1 522.09 0)" xlink:href="#a"/><linearGradient id="aK" x1="497.62" y1="474.8" x2="464.86" y2="474.8" gradientTransform="matrix(-1 0 0 1 522.09 0)" xlink:href="#a"/><linearGradient id="aL" x1="497.62" y1="221.51" x2="464.86" y2="221.51" gradientTransform="matrix(-1 0 0 1 522.09 0)" xlink:href="#a"/><linearGradient id="aM" x1="493.23" y1="228.75" x2="469.44" y2="228.75" gradientTransform="matrix(-1 0 0 1 522.09 0)" xlink:href="#a"/><linearGradient id="aN" x1="493.23" y1="235.99" x2="469.44" y2="235.99" gradientTransform="matrix(-1 0 0 1 522.09 0)" xlink:href="#a"/><linearGradient id="aO" x1="493.23" y1="243.24" x2="469.44" y2="243.24" gradientTransform="matrix(-1 0 0 1 522.09 0)" xlink:href="#a"/><linearGradient id="aP" x1="493.23" y1="250.48" x2="469.44" y2="250.48" gradientTransform="matrix(-1 0 0 1 522.09 0)" xlink:href="#a"/><linearGradient id="aQ" x1="497.62" y1="257.73" x2="464.86" y2="257.73" gradientTransform="matrix(-1 0 0 1 522.09 0)" xlink:href="#a"/><linearGradient id="aR" x1="493.38" y1="264.97" x2="469.59" y2="264.97" gradientTransform="matrix(-1 0 0 1 522.09 0)" xlink:href="#a"/><linearGradient id="aS" x1="493.38" y1="272.21" x2="469.59" y2="272.21" gradientTransform="matrix(-1 0 0 1 522.09 0)" xlink:href="#a"/><linearGradient id="aT" x1="493.38" y1="279.46" x2="469.59" y2="279.46" gradientTransform="matrix(-1 0 0 1 522.09 0)" xlink:href="#a"/><linearGradient id="aU" x1="493.38" y1="286.7" x2="469.59" y2="286.7" gradientTransform="matrix(-1 0 0 1 522.09 0)" xlink:href="#a"/><linearGradient id="aV" x1="497.78" y1="293.94" x2="465.01" y2="293.94" gradientTransform="matrix(-1 0 0 1 522.09 0)" xlink:href="#a"/><linearGradient id="aW" x1="493.23" y1="301.19" x2="469.44" y2="301.19" gradientTransform="matrix(-1 0 0 1 522.09 0)" xlink:href="#a"/><linearGradient id="aX" x1="493.23" y1="308.43" x2="469.44" y2="308.43" gradientTransform="matrix(-1 0 0 1 522.09 0)" xlink:href="#a"/><linearGradient id="aY" x1="493.23" y1="315.67" x2="469.44" y2="315.67" gradientTransform="matrix(-1 0 0 1 522.09 0)" xlink:href="#a"/><linearGradient id="aZ" x1="493.23" y1="322.92" x2="469.44" y2="322.92" gradientTransform="matrix(-1 0 0 1 522.09 0)" xlink:href="#a"/><linearGradient id="ba" x1="497.62" y1="330.16" x2="464.86" y2="330.16" gradientTransform="matrix(-1 0 0 1 522.09 0)" xlink:href="#a"/><linearGradient id="bb" x1="493.23" y1="337.4" x2="469.44" y2="337.4" gradientTransform="matrix(-1 0 0 1 522.09 0)" xlink:href="#a"/><linearGradient id="bc" x1="493.23" y1="344.65" x2="469.44" y2="344.65" gradientTransform="matrix(-1 0 0 1 522.09 0)" xlink:href="#a"/><linearGradient id="bd" x1="493.23" y1="351.89" x2="469.44" y2="351.89" gradientTransform="matrix(-1 0 0 1 522.09 0)" xlink:href="#a"/><linearGradient id="be" x1="493.23" y1="359.13" x2="469.44" y2="359.13" gradientTransform="matrix(-1 0 0 1 522.09 0)" xlink:href="#a"/><linearGradient id="bf" x1="497.62" y1="366.38" x2="464.86" y2="366.38" gradientTransform="matrix(-1 0 0 1 522.09 0)" xlink:href="#a"/><linearGradient id="bg" x1="497.62" y1="113.09" x2="464.86" y2="113.09" gradientTransform="matrix(-1 0 0 1 522.09 0)" xlink:href="#a"/><linearGradient id="bh" x1="493.23" y1="120.33" x2="469.44" y2="120.33" gradientTransform="matrix(-1 0 0 1 522.09 0)" xlink:href="#a"/><linearGradient id="bi" x1="493.23" y1="127.57" x2="469.44" y2="127.57" gradientTransform="matrix(-1 0 0 1 522.09 0)" xlink:href="#a"/><linearGradient id="bj" x1="493.23" y1="134.82" x2="469.44" y2="134.82" gradientTransform="matrix(-1 0 0 1 522.09 0)" xlink:href="#a"/><linearGradient id="bk" x1="493.23" y1="142.06" x2="469.44" y2="142.06" gradientTransform="matrix(-1 0 0 1 522.09 0)" xlink:href="#a"/><linearGradient id="bl" x1="497.62" y1="149.3" x2="464.86" y2="149.3" gradientTransform="matrix(-1 0 0 1 522.09 0)" xlink:href="#a"/><linearGradient id="bm" x1="493.38" y1="156.55" x2="469.59" y2="156.55" gradientTransform="matrix(-1 0 0 1 522.09 0)" xlink:href="#a"/><linearGradient id="bn" x1="493.38" y1="163.79" x2="469.59" y2="163.79" gradientTransform="matrix(-1 0 0 1 522.09 0)" xlink:href="#a"/><linearGradient id="bo" x1="493.38" y1="171.03" x2="469.59" y2="171.03" gradientTransform="matrix(-1 0 0 1 522.09 0)" xlink:href="#a"/><linearGradient id="bp" x1="493.38" y1="178.28" x2="469.59" y2="178.28" gradientTransform="matrix(-1 0 0 1 522.09 0)" xlink:href="#a"/><linearGradient id="bq" x1="497.78" y1="185.52" x2="465.01" y2="185.52" gradientTransform="matrix(-1 0 0 1 522.09 0)" xlink:href="#a"/><linearGradient id="br" x1="493.23" y1="192.76" x2="469.44" y2="192.76" gradientTransform="matrix(-1 0 0 1 522.09 0)" xlink:href="#a"/><linearGradient id="bs" x1="493.23" y1="200.01" x2="469.44" y2="200.01" gradientTransform="matrix(-1 0 0 1 522.09 0)" xlink:href="#a"/><linearGradient id="bt" x1="493.23" y1="207.25" x2="469.44" y2="207.25" gradientTransform="matrix(-1 0 0 1 522.09 0)" xlink:href="#a"/><linearGradient id="bu" x1="493.23" y1="214.49" x2="469.44" y2="214.49" gradientTransform="matrix(-1 0 0 1 522.09 0)" xlink:href="#a"/><linearGradient id="bv" x1="497.62" y1="221.74" x2="464.86" y2="221.74" gradientTransform="matrix(-1 0 0 1 522.09 0)" xlink:href="#a"/><linearGradient id="bw" x1="493.23" y1="228.98" x2="469.44" y2="228.98" gradientTransform="matrix(-1 0 0 1 522.09 0)" xlink:href="#a"/><linearGradient id="bx" x1="493.23" y1="236.23" x2="469.44" y2="236.23" gradientTransform="matrix(-1 0 0 1 522.09 0)" xlink:href="#a"/><linearGradient id="by" x1="493.23" y1="243.47" x2="469.44" y2="243.47" gradientTransform="matrix(-1 0 0 1 522.09 0)" xlink:href="#a"/><linearGradient id="bz" x1="493.23" y1="250.71" x2="469.44" y2="250.71" gradientTransform="matrix(-1 0 0 1 522.09 0)" xlink:href="#a"/><linearGradient id="bA" x1="497.62" y1="257.96" x2="464.86" y2="257.96" gradientTransform="matrix(-1 0 0 1 522.09 0)" xlink:href="#a"/><clipPath id="bB"><path transform="rotate(-180 40.885 298.3)" fill="none" d="M32.2 112.37h17.37v371.86H32.2z"/></clipPath><linearGradient id="bC" x1="461.18" y1="486.08" x2="501.97" y2="486.08" gradientTransform="matrix(1 0 0 -1 -441.06 972.17)" xlink:href="#c"/><clipPath id="bD"><path d="M126.37 157.36v-.07c.1-.35 1.77-.91 2.13-1a40.63 40.63 0 0 1 5.61-1.19c28.17-4.5 71.92-2.41 76.14.63l.16.18c-.8 4.85-52.59 7-74.22 4.48-5.64-.65-9.3-1.6-9.82-3.03z" fill="#a81a16"/></clipPath><clipPath id="bE"><path d="M120.54 156.14a20.53 20.53 0 0 1 .59-4.29l.12-.23.16-.21a16 16 0 0 1 5.37-2.14c18.81-4.73 61.93-5.2 81.16-1.69 5.69 1.12 6.2 1.88 7.21 2.35l.29.44a22 22 0 0 1 .76 4.29c-3.81-7.01-91.84-5.89-95.66 1.48z" fill="#d22c20"/></clipPath><clipPath id="bF"><path d="M123.52 149.69c.4-2.38 11.63-74 11.89-75 5.07-15.65 59.05-17 62.86-.54.21 1.05 14.67 74.11 14.67 74.11-13.89-5.8-75.44-4.94-89.42 1.43z" fill="#d22c20"/></clipPath><clipPath id="bG"><path d="M149.07 330.89s9.1 17.37 17.86 25.28c0 0 15.73-11.59 19-21.61l2.48.56s1.81 76.49 1.93 84.49c0 0-20.23 4.45-41.32 0 0 0-3.18-83.67-3.38-87.29z" fill="none"/></clipPath><linearGradient id="d" x1="135.01" y1="376.13" x2="158.15" y2="376.13" gradientUnits="userSpaceOnUse"><stop offset="0" stop-color="#5b413f"/><stop offset=".25" stop-color="#543734"/><stop offset=".51" stop-color="#523430"/><stop offset=".87" stop-color="#4d312d"/><stop offset="1" stop-color="#4a2f2b"/></linearGradient><linearGradient id="bH" x1="175.56" y1="376.13" x2="198.7" y2="376.13" xlink:href="#d"/><clipPath id="bI"><path fill="none" d="M146.82 329.83l9.69-1.33 1.54 68.96-6.71-47.49 3.07-5.86-4.21 1.02-3.38-15.3z"/></clipPath><clipPath id="bJ"><path fill="none" d="M186.84 329.83l-10.05-1.05-1.17 68.68 6.71-47.49-3.08-5.86 4.21 1.02 3.38-15.3z"/></clipPath><clipPath id="bK"><path d="M86.55 305.68a37 37 0 0 0 .55 9.32c.17.77.32 1.56.55 2.33l.16.58c0 .19.1.39.17.58l.38 1.14.21.57.23.57.22.56c.08.19.17.38.25.56l.51 1.11.57 1.08c.18.37.4.71.6 1.07s.41.7.64 1l.68 1 .72 1c.24.33.5.64.75 1s.51.63.78.93l.81.91.84.87a41.67 41.67 0 0 0 3.58 3.21c1.25 1 2.53 1.91 3.85 2.75s2.67 1.64 4 2.35 2.76 1.39 4.16 2a76 76 0 0 0 8.53 3.12c1.44.44 2.88.83 4.33 1.2s2.9.69 4.36 1c2.92.6 5.84 1.07 8.79 1.44l1-16.38c-2.54 0-5.09-.16-7.62-.38-1.27-.12-2.52-.26-3.78-.43s-2.49-.36-3.72-.59a53.25 53.25 0 0 1-13.87-4.36 26.48 26.48 0 0 1-10.28-8.37l-.46-.67-.42-.69-.21-.35-.19-.36-.19-.36c-.07-.12-.13-.24-.19-.36l-.34-.74a3.17 3.17 0 0 1-.17-.38l-.15-.38c-.22-.51-.38-1-.57-1.57a27.72 27.72 0 0 1-1.18-6.81z" fill="none"/></clipPath><clipPath id="bL"><path d="M237.7 288.47a124.2 124.2 0 0 1-9.91 13c-1.82 2.05-3.65 4.08-5.57 6-.95 1-1.93 2-2.9 2.91-.48.48-1 .95-1.48 1.42s-1 .95-1.49 1.41l-1.52 1.39c-.5.47-1 .92-1.53 1.38-1 .91-2.06 1.8-3.09 2.7-2.1 1.76-4.21 3.5-6.37 5.19-4.31 3.37-8.75 6.58-13.29 9.58l6.95 14.71c4-1.51 11.86-9.36 16.05-13.46 2.09-2 4.13-4.14 6.15-6.27 1-1.07 2-2.14 3-3.23.49-.55 1-1.09 1.46-1.64l1.45-1.66c.48-.55.95-1.12 1.42-1.68s.95-1.12 1.41-1.69c.92-1.15 1.85-2.28 2.75-3.45 1.81-2.3 3.54-4.7 5.23-7.1a133.18 133.18 0 0 0 9.1-15.21z" fill="none"/></clipPath></defs><g style="isolation:isolate"><path fill="#a2a2a2" d="M98.24 519.65H85.33l-2.66-55.58h18.23l-2.66 55.58z"/><path fill="#bdbdbd" d="M82.67 448.64h18.24v7.71H82.67z"/><path fill="#696969" d="M82.67 456.36h18.24v7.71H82.67z"/><path fill="#a2a2a2" d="M250.9 519.65H238l-2.68-55.58h18.24l-2.66 55.58z"/><path fill="#bdbdbd" d="M235.32 448.64h18.24v7.71h-18.24z"/><path fill="#696969" d="M235.32 456.36h18.24v7.71h-18.24z"/><path fill="#9e6741" d="M71 439.51h194v12.99H71z"/><rect x="14.65" y="125.24" width="308.13" height="9.26" rx="2.8" ry="2.8" fill="#8e8e8e"/><path d="M322.73 129.32h-308v-2.06a2.37 2.37 0 0 1 2.59-2h303a2.28 2.28 0 0 1 2.51 2s-.16 2.02-.1 2.06z" fill="#a8a8a8"/><path d="M258.24 0h-24.17a42.15 42.15 0 0 0-42 42v.08h10.38a31.78 31.78 0 0 1 31.67-30.92h24.13a31.78 31.78 0 0 1 31.69 31.69v32.01h10.37V42a42.15 42.15 0 0 0-42.07-42z" fill="#d22c20"/><path fill="#d22c20" d="M192.47 42.43l-.76 5.6 2.54 2.4 6.56-.83 1.19-5.09-.61-3.77.16-.78h-8.56l-.52 2.47z"/><path d="M203.21 40h-3.08c0 .34-.06.67-.07 1h-5.72v-1h-3.08v1H190v6.88a3.72 3.72 0 0 0 3.73 3.73h6.5a3.71 3.71 0 0 0 3.77-3.77V41h-.82c-.03-.37.01-.7.03-1zm-2.32 4.56v3.33a.66.66 0 0 1-.66.66h-6.5a.69.69 0 0 1-.47-.19.66.66 0 0 1-.19-.46v-3.85h7.82z" fill="#d22c20"/><path fill="#a81a16" d="M203.15 40.99h-11.84v-.97h11.84zm97.34 28.38h-10.64v-.89h10.64z"/><path fill="#d22c20" d="M315.98 492.83h-40.83V92.76h40.83z"/><ellipse cx="295.56" cy="94.09" rx="20.46" ry="21.68" fill="#d22c20"/><path fill="#a81a16" d="M275.39 90.96l40.35-.13-.39-1.69h-39.61l-.35 1.82z"/><path transform="rotate(-180 294.94 288.95)" fill="url(#b)" d="M277.75 90.95h34.39v395.99h-34.39z"/><path fill="url(#a)" d="M278.61 329.14h33.91v1.59h-33.91z"/><path fill="url(#e)" d="M283.26 336.38h24.62v1.59h-24.62z"/><path fill="url(#f)" d="M283.26 343.62h24.62v1.59h-24.62z"/><path fill="url(#g)" d="M283.26 350.87h24.62v1.59h-24.62z"/><path fill="url(#h)" d="M283.26 358.11h24.62v1.59h-24.62z"/><path fill="url(#i)" d="M278.61 365.35h33.91v1.59h-33.91z"/><path fill="url(#j)" d="M283.41 372.6h24.62v1.59h-24.62z"/><path fill="url(#k)" d="M283.41 379.84h24.62v1.59h-24.62z"/><path fill="url(#l)" d="M283.41 387.08h24.62v1.59h-24.62z"/><path fill="url(#m)" d="M283.41 394.33h24.62v1.59h-24.62z"/><path fill="url(#n)" d="M278.77 401.57h33.91v1.59h-33.91z"/><path fill="url(#o)" d="M283.26 408.81h24.62v1.59h-24.62z"/><path fill="url(#p)" d="M283.26 416.06h24.62v1.59h-24.62z"/><path fill="url(#q)" d="M283.26 423.3h24.62v1.59h-24.62z"/><path fill="url(#r)" d="M283.26 430.54h24.62v1.59h-24.62z"/><path fill="url(#s)" d="M278.61 437.79h33.91v1.59h-33.91z"/><path fill="url(#t)" d="M283.26 445.03h24.62v1.59h-24.62z"/><path fill="url(#u)" d="M283.26 452.28h24.62v1.59h-24.62z"/><path fill="url(#v)" d="M283.26 459.52h24.62v1.59h-24.62z"/><path fill="url(#w)" d="M283.26 466.76h24.62v1.59h-24.62z"/><path fill="url(#x)" d="M278.61 474.01h33.91v1.59h-33.91z"/><path fill="url(#y)" d="M278.61 220.71h33.91v1.59h-33.91z"/><path fill="url(#z)" d="M283.26 227.96h24.62v1.59h-24.62z"/><path fill="url(#A)" d="M283.26 235.2h24.62v1.59h-24.62z"/><path fill="url(#B)" d="M283.26 242.44h24.62v1.59h-24.62z"/><path fill="url(#C)" d="M283.26 249.69h24.62v1.59h-24.62z"/><path fill="url(#D)" d="M278.61 256.93h33.91v1.59h-33.91z"/><path fill="url(#E)" d="M283.41 264.17h24.62v1.59h-24.62z"/><path fill="url(#F)" d="M283.41 271.42h24.62v1.59h-24.62z"/><path fill="url(#G)" d="M283.41 278.66h24.62v1.59h-24.62z"/><path fill="url(#H)" d="M283.41 285.9h24.62v1.59h-24.62z"/><path fill="url(#I)" d="M278.77 293.15h33.91v1.59h-33.91z"/><path fill="url(#J)" d="M283.26 300.39h24.62v1.59h-24.62z"/><path fill="url(#K)" d="M283.26 307.64h24.62v1.59h-24.62z"/><path fill="url(#L)" d="M283.26 314.88h24.62v1.59h-24.62z"/><path fill="url(#M)" d="M283.26 322.12h24.62v1.59h-24.62z"/><path fill="url(#N)" d="M278.61 329.37h33.91v1.59h-33.91z"/><path fill="url(#O)" d="M283.26 336.61h24.62v1.59h-24.62z"/><path fill="url(#P)" d="M283.26 343.85h24.62v1.59h-24.62z"/><path fill="url(#Q)" d="M283.26 351.1h24.62v1.59h-24.62z"/><path fill="url(#R)" d="M283.26 358.34h24.62v1.59h-24.62z"/><path fill="url(#S)" d="M278.61 365.58h33.91v1.59h-33.91z"/><path fill="url(#T)" d="M278.61 112.29h33.91v1.59h-33.91z"/><path fill="url(#U)" d="M283.26 119.53h24.62v1.59h-24.62z"/><path fill="url(#V)" d="M283.26 126.78h24.62v1.59h-24.62z"/><path fill="url(#W)" d="M283.26 134.02h24.62v1.59h-24.62z"/><path fill="url(#X)" d="M283.26 141.26h24.62v1.59h-24.62z"/><path fill="url(#Y)" d="M278.61 148.51h33.91v1.59h-33.91z"/><path fill="url(#Z)" d="M283.41 155.75h24.62v1.59h-24.62z"/><path fill="url(#aa)" d="M283.41 163h24.62v1.59h-24.62z"/><path fill="url(#ab)" d="M283.41 170.24h24.62v1.59h-24.62z"/><path fill="url(#ac)" d="M283.41 177.48h24.62v1.59h-24.62z"/><path fill="url(#ad)" d="M278.77 184.73h33.91v1.59h-33.91z"/><path fill="url(#ae)" d="M283.26 191.97h24.62v1.59h-24.62z"/><path fill="url(#af)" d="M283.26 199.21h24.62v1.59h-24.62z"/><path fill="url(#ag)" d="M283.26 206.46h24.62v1.59h-24.62z"/><path fill="url(#ah)" d="M283.26 213.7h24.62v1.59h-24.62z"/><path fill="url(#ai)" d="M278.61 220.94h33.91v1.59h-33.91z"/><path fill="url(#aj)" d="M283.26 228.19h24.62v1.59h-24.62z"/><path fill="url(#ak)" d="M283.26 235.43h24.62v1.59h-24.62z"/><path fill="url(#al)" d="M283.26 242.67h24.62v1.59h-24.62z"/><path fill="url(#am)" d="M283.26 249.92h24.62v1.59h-24.62z"/><path fill="url(#an)" d="M278.61 257.16h33.91v1.59h-33.91z"/><path d="M303.89 484.22V107.58c0-5.46-3.79-9.92-8.42-9.92h-.56c-4.63 0-8.41 4.46-8.41 9.92v376.64z" fill="#9be0ff"/><g clip-path="url(#ao)"><path fill="#fff" d="M286.45 113.99h17.57V484.4h-17.57z"/><path d="M291.89 487.75V116.38h6.22v371.37h-6.24.02z" fill="#8e8e8e"/><path d="M294.63 116.38v371.26h-1.39c-.76 0-1.38-1.4-1.38-3.12V116.38zm-8.12-2.88h17.39v2.07h-17.39z" fill="#a8a8a8"/><path fill="#8e8e8e" d="M286.5 115.54h17.38v2.07H286.5z"/></g><path fill="#d22c20" d="M319.29 498.85h-47.36v-11.37h47.36z"/><path d="M259.3 519.5c.71-15.38 16.73-27.67 36.4-27.67s35.69 12.29 36.41 27.67z" fill="#d22c20"/><path fill="#a81a16" d="M318.76 498.66h-46.57v-3.19h46.57z"/><path fill="url(#c)" d="M275.18 484.33h40.79v3.5h-40.79z"/><path d="M77.85 0H102a42.15 42.15 0 0 1 42 42v.08h-10.32A31.79 31.79 0 0 0 102 11.19H77.87a31.79 31.79 0 0 0-31.69 31.69v31.98H35.83V42A42.15 42.15 0 0 1 77.85 0z" fill="#d22c20"/><path fill="#d22c20" d="M143.62 42.43l.76 5.6-2.53 2.4-6.57-.83-1.18-5.09.6-3.77-.16-.78h8.57l.51 2.47z"/><path d="M133 41h-.82v6.87a3.72 3.72 0 0 0 2.82 3.61 3.63 3.63 0 0 0 .87.1h6.5a3.74 3.74 0 0 0 3.74-3.73V41h-1.28c0-.34 0-.68-.05-1h-3.08c0 .34 0 .68.05 1H136c0-.34 0-.67-.07-1h-3.09c.07.3.16.63.16 1zm2.25 3.08H143v3.81a.66.66 0 0 1-.19.46.67.67 0 0 1-.47.19h-6.5a.65.65 0 0 1-.65-.66v-3.8z" fill="#d22c20"/><path fill="#a81a16" d="M132.95 40.02h11.84v.97h-11.84zM35.61 68.47h10.64v.89H35.61z"/><path fill="#d22c20" d="M20.11 92.76h40.83v400.07H20.11z"/><ellipse cx="40.53" cy="94.09" rx="20.46" ry="21.68" fill="#d22c20"/><path fill="#a81a16" d="M60.71 90.96l-40.36-.13.4-1.69h39.6l.36 1.82z"/><path fill="url(#ap)" d="M23.96 90.95h34.39v395.99H23.96z"/><path fill="url(#aq)" d="M23.58 329.14h33.91v1.59H23.58z"/><path fill="url(#ar)" d="M28.22 336.38h24.62v1.59H28.22z"/><path fill="url(#as)" d="M28.22 343.62h24.62v1.59H28.22z"/><path fill="url(#at)" d="M28.22 350.87h24.62v1.59H28.22z"/><path fill="url(#au)" d="M28.22 358.11h24.62v1.59H28.22z"/><path fill="url(#av)" d="M23.58 365.35h33.91v1.59H23.58z"/><path fill="url(#aw)" d="M28.07 372.6h24.62v1.59H28.07z"/><path fill="url(#ax)" d="M28.07 379.84h24.62v1.59H28.07z"/><path fill="url(#ay)" d="M28.07 387.08h24.62v1.59H28.07z"/><path fill="url(#az)" d="M28.07 394.33h24.62v1.59H28.07z"/><path fill="url(#aA)" d="M23.42 401.57h33.91v1.59H23.42z"/><path fill="url(#aB)" d="M28.22 408.81h24.62v1.59H28.22z"/><path fill="url(#aC)" d="M28.22 416.06h24.62v1.59H28.22z"/><path fill="url(#aD)" d="M28.22 423.3h24.62v1.59H28.22z"/><path fill="url(#aE)" d="M28.22 430.54h24.62v1.59H28.22z"/><path fill="url(#aF)" d="M23.58 437.79h33.91v1.59H23.58z"/><path fill="url(#aG)" d="M28.22 445.03h24.62v1.59H28.22z"/><path fill="url(#aH)" d="M28.22 452.28h24.62v1.59H28.22z"/><path fill="url(#aI)" d="M28.22 459.52h24.62v1.59H28.22z"/><path fill="url(#aJ)" d="M28.22 466.76h24.62v1.59H28.22z"/><path fill="url(#aK)" d="M23.58 474.01h33.91v1.59H23.58z"/><path fill="url(#aL)" d="M23.58 220.71h33.91v1.59H23.58z"/><path fill="url(#aM)" d="M28.22 227.96h24.62v1.59H28.22z"/><path fill="url(#aN)" d="M28.22 235.2h24.62v1.59H28.22z"/><path fill="url(#aO)" d="M28.22 242.44h24.62v1.59H28.22z"/><path fill="url(#aP)" d="M28.22 249.69h24.62v1.59H28.22z"/><path fill="url(#aQ)" d="M23.58 256.93h33.91v1.59H23.58z"/><path fill="url(#aR)" d="M28.07 264.17h24.62v1.59H28.07z"/><path fill="url(#aS)" d="M28.07 271.42h24.62v1.59H28.07z"/><path fill="url(#aT)" d="M28.07 278.66h24.62v1.59H28.07z"/><path fill="url(#aU)" d="M28.07 285.9h24.62v1.59H28.07z"/><path fill="url(#aV)" d="M23.42 293.15h33.91v1.59H23.42z"/><path fill="url(#aW)" d="M28.22 300.39h24.62v1.59H28.22z"/><path fill="url(#aX)" d="M28.22 307.64h24.62v1.59H28.22z"/><path fill="url(#aY)" d="M28.22 314.88h24.62v1.59H28.22z"/><path fill="url(#aZ)" d="M28.22 322.12h24.62v1.59H28.22z"/><path fill="url(#ba)" d="M23.58 329.37h33.91v1.59H23.58z"/><path fill="url(#bb)" d="M28.22 336.61h24.62v1.59H28.22z"/><path fill="url(#bc)" d="M28.22 343.85h24.62v1.59H28.22z"/><path fill="url(#bd)" d="M28.22 351.1h24.62v1.59H28.22z"/><path fill="url(#be)" d="M28.22 358.34h24.62v1.59H28.22z"/><path fill="url(#bf)" d="M23.58 365.58h33.91v1.59H23.58z"/><path fill="url(#bg)" d="M23.58 112.29h33.91v1.59H23.58z"/><path fill="url(#bh)" d="M28.22 119.53h24.62v1.59H28.22z"/><path fill="url(#bi)" d="M28.22 126.78h24.62v1.59H28.22z"/><path fill="url(#bj)" d="M28.22 134.02h24.62v1.59H28.22z"/><path fill="url(#bk)" d="M28.22 141.26h24.62v1.59H28.22z"/><path fill="url(#bl)" d="M23.58 148.51h33.91v1.59H23.58z"/><path fill="url(#bm)" d="M28.07 155.75h24.62v1.59H28.07z"/><path fill="url(#bn)" d="M28.07 163h24.62v1.59H28.07z"/><path fill="url(#bo)" d="M28.07 170.24h24.62v1.59H28.07z"/><path fill="url(#bp)" d="M28.07 177.48h24.62v1.59H28.07z"/><path fill="url(#bq)" d="M23.42 184.73h33.91v1.59H23.42z"/><path fill="url(#br)" d="M28.22 191.97h24.62v1.59H28.22z"/><path fill="url(#bs)" d="M28.22 199.21h24.62v1.59H28.22z"/><path fill="url(#bt)" d="M28.22 206.46h24.62v1.59H28.22z"/><path fill="url(#bu)" d="M28.22 213.7h24.62v1.59H28.22z"/><path fill="url(#bv)" d="M23.58 220.94h33.91v1.59H23.58z"/><path fill="url(#bw)" d="M28.22 228.19h24.62v1.59H28.22z"/><path fill="url(#bx)" d="M28.22 235.43h24.62v1.59H28.22z"/><path fill="url(#by)" d="M28.22 242.67h24.62v1.59H28.22z"/><path fill="url(#bz)" d="M28.22 249.92h24.62v1.59H28.22z"/><path fill="url(#bA)" d="M23.58 257.16h33.91v1.59H23.58z"/><path d="M32.2 484.22V107.58c0-5.46 3.79-9.92 8.42-9.92h.56c4.63 0 8.42 4.46 8.42 9.92v376.64z" fill="#9be0ff"/><g clip-path="url(#bB)"><path fill="#fff" d="M49.64 483.4H32.07V112.99h17.57z"/><path d="M37.97 486.75V115.37h6.22v371.38h-6.24.02z" fill="#8e8e8e"/><path d="M41.46 115.38v371.26h1.39c.77 0 1.39-1.4 1.39-3.12V115.38zm8.13-.81H32.2v-2.07h17.39z" fill="#a8a8a8"/><path fill="#8e8e8e" d="M49.59 116.62H32.21v-2.07h17.38z"/></g><path fill="#d22c20" d="M16.8 487.48h47.36v11.37H16.8z"/><path d="M76.79 519.5c-.71-15.38-16.73-27.67-36.4-27.67S4.7 504.12 4 519.5z" fill="#d22c20"/><path fill="#a81a16" d="M17.33 495.46H63.9v3.19H17.33z"/><path transform="rotate(-180 40.52 486.085)" fill="url(#bC)" d="M20.12 484.33h40.79v3.5H20.12z"/><path d="M125.1 158.44v-.32c.23-.51.61-.7 1.15-1l.38-.09v.1l-.25.15v.07c2.63 6.51 71.55 4 82.22 0 1.66-.7 1.6-1 1.81-1.41l.39.08a1.64 1.64 0 0 1 .84.8v.16c-.22 1.22-3.21 1.93-4.35 2.22-21.51 5-66.46 3.08-76.09 1.48-1.85-.35-5.5-1.01-6.1-2.24z" fill="#e26d6d"/><path d="M126.37 157.36v-.07c.1-.35 1.77-.91 2.13-1a40.63 40.63 0 0 1 5.61-1.19c28.17-4.5 71.92-2.41 76.14.63l.16.18c-.8 4.85-52.59 7-74.22 4.48-5.64-.65-9.3-1.6-9.82-3.03z" fill="#a81a16"/><g clip-path="url(#bD)" fill="#a81a16"><path d="M153.87 163.24l-.25-19.59-35.33 13s27.09 10.19 35.58 6.59zm35.7-14.82l1.18 16.28s22.87-2 23-7.67-24.18-8.61-24.18-8.61z" style="mix-blend-mode:multiply" opacity=".3"/></g><path d="M121.64 157.92a.75.75 0 0 1 0-.36c.39-1.35 4.06-2.52 9.75-3.42 23.35-3.71 80.6-3.46 83.79 1.83l.05.17v.18l-.05.18.09.07-.27.34c-5.89 3.78-29 5.08-35.89 5.25 2.14-.16 31.92-1.39 32.61-5.2v-.16a1.64 1.64 0 0 0-.84-.8l-.39-.08-.3-.23c-13.23-4.91-74.22-3.12-83 1.15a2.55 2.55 0 0 1-.84.29c-.66.35-.95.54-1.15 1v.32c.49 1 2.91 1.59 4.92 2 1.75.35 4 .55 6.24.81-1.66-.09-3.82-.29-3.9-.3-2.46-.15-9.85-1.35-10.82-3.04z" fill="#ff433e"/><path d="M126 162.63s-2.51 28.86-.38 32.82 4.07 5.75 4.46-1.26 4.64-19.06 4.84-9.35-.78 34 3.48 35.24 4.07-3.05 3.49-14 2.32-25.17 2.13-16.9 1.93 16 3.48 11.68-.19-7.73 1-12.58 5.81-9 5.42 4-1.16 25.72 2.13 26.25 3.1-2 2.9-10.42 2.33-15.47 2.13-6.48-1.55 23.92 1.55 24.28 2.71-1.08 1.74-7.2-1.74-15.28-1-17.08 4.25-7.55 4.64 9.35 2.52 17.44 4.45 15.11-2.71-10.79-1.35-22.84 4.45-22.83 4.26-8.63-.78 21.4 1.74 21.76 4.26-.36 3.68-7.2-.78-23.37 1.16-22.29 1 10.25 1.94 16.54 3.29 9.17 4.06 4.32-3.1-16.55-1.74-20 6-5.22 6.39 6.47-.39 20.86 2.13 21.76 4.84-.36 4.06-7-3.87-20.67-1.93-22.83 3.1-3.78 4.07 10.43 3.87 16.54 4.83 11.33-2.32-19.24-1.74-21 4.65-6.65 5.42 13.13-2.32 25.71 3.87 25.35c2.82-.17 1.17-5.76.58-15.47s-2.14-51.59-4.27-54.11c-1.14-1.35-15.21-2.4-32.06-2.76a378.81 378.81 0 0 0-42.31 2c-10.76 1.26-9.03 2.19-9.25 7.58z" fill="#87c9d8" opacity=".85"/><path d="M128.62 163.5s1.38 43.5 3.74 46.87 5.16 6.24 4.65-5.75-2.84-34.76 1-37.4 5.16-4.55 5.94 3.6 4.38 12.22 4.9 5.27 4.39-16.78 4.65-4.31 8 26.13 8 16.06-3.1-15.11-2.07-19.9 11.91-13.94 12.17-3.84-3.62 41.24 1.54 42 6.72-6.47 5.17-13.67-1.81-25.65-1-29.48 7.22-6 6.71.71-.52 12.23 1.8 12.47 3.1-.24 2.84-4.79-1-13.67 0-13.91 12.14-2.16 11.88 2.4-4.91 27.57-1.55 30.45 5.68 3.35 5.42-4.32-.26-23.25-.52-25.65-7.61-5.16-24.65-6.12-43.65.2-50.62 9.31z" fill="#9ad8e8" opacity=".79"/><path d="M189.66 196.71s-5.67 28-.77 30.44 8-6.71 6.2-15.82-4.91-18.94-5.43-14.62zm20.14-9.11s-3.87 16.3-.77 18 6.45.24 4.64-7.91-3.1-14.17-3.87-10.09zm-63.24 5.27s-3.1 9.83-1 12 4.13.24 3.36-4.56-1.85-9.83-2.36-7.44zm-27.62 18.94s-5.94 18.46-.78 18.7 5.68-5.51 4.13-11.27-3.1-9.83-3.35-7.43zm-2.84-25.17s-3.1 9.83-1 10.55 4.13-1.44 3.36-5.52-2.36-7.67-2.36-5.03z" fill="#9ad8e8"/><path d="M121.64 157.92a2.65 2.65 0 0 0 1 .8l-.61-.3a2.26 2.26 0 0 1-1.46-2.28c3.82-7.37 91.85-8.5 95.66-1.48a2 2 0 0 1-.79 1.89l-.46.36.18-.41.05-.18v-.18l-.05-.17c-4-6.57-91.52-5.37-93.54 1.59a.75.75 0 0 0 .02.36z" fill="#f23b36"/><path d="M121.41 151.41a3.52 3.52 0 0 0-.28.44 1.92 1.92 0 0 1 .25-.6c2.74-4.07 24.78-9.13 46.75-9.54s43.92 3.86 47 8a3.21 3.21 0 0 1 .33.74 5.43 5.43 0 0 0-.34-.56c-1-.48-1.63-1.33-8.18-2.53-20.13-3.38-63.06-2.71-81 2.11a15.13 15.13 0 0 0-4.53 1.94z" fill="#a81a16"/><path d="M121.41 151.41a3.52 3.52 0 0 0-.28.44 1.92 1.92 0 0 1 .25-.6c5.48-8.14 87.56-9.86 93.78-1.5a3.21 3.21 0 0 1 .33.74 5.43 5.43 0 0 0-.34-.56c-1-.48-1.63-1.33-8.18-2.53-20.13-3.38-63.06-2.71-81 2.11a15.13 15.13 0 0 0-4.56 1.9z" fill="#d22c20"/><path d="M197.71 72.34v.14a11 11 0 0 0-2.1-2.76C185.77 60.87 163 61 150 64.65c-9.18 2.76-11.73 5.81-13.05 7.21a12 12 0 0 0-1.24 2.06 7.74 7.74 0 0 1 1-2.07c9.29-13.1 48.74-14.34 59.57-1.79a13.52 13.52 0 0 1 1.43 2.28zm-76.31 78.95l-.19.3a9.11 9.11 0 0 0-.42 1.9c0-.23.15-5.65.25-5.86h2.84c-.33 2.12-.31 1.88-.36 2.14a4.32 4.32 0 0 0-2.12 1.52zm91.54-3.08s-.43-2.07-.43-2.09h2.83c.11.39 0-.2.45 5.59a6.72 6.72 0 0 0-.45-1.6l-.19-.17v-.18a7.17 7.17 0 0 0-2.21-1.55z" fill="#a81a16"/><path d="M120.54 156.14a20.53 20.53 0 0 1 .59-4.29l.12-.23.16-.21a16 16 0 0 1 5.37-2.14c18.81-4.73 61.93-5.2 81.16-1.69 5.69 1.12 6.2 1.88 7.21 2.35l.29.44a22 22 0 0 1 .76 4.29c-3.81-7.01-91.84-5.89-95.66 1.48z" fill="#d22c20"/><g clip-path="url(#bE)"><path fill="#a81a16" d="M141.51 152.67l1.05-8.68-26.41 6.94 1.63 11.14 23.73-9.4z"/></g><path d="M123.52 149.69c.4-2.38 11.63-74 11.89-75 5.07-15.65 59.05-17 62.86-.54.21 1.05 14.67 74.11 14.67 74.11-13.89-5.8-75.44-4.94-89.42 1.43z" fill="#d22c20"/><g clip-path="url(#bF)"><path d="M146.11 148.06s0-.59.1-1.66c20.24-1.76 46.35-1.42 60.76 1 6.55 1.2 7.15 2 8.18 2.53a5.43 5.43 0 0 1 .34.56c-.05-.27-.34-1.52-.34-1.52-3.11-4.18-25-7.66-47-7.26a199.51 199.51 0 0 0-21.73 1.61c1-16.27 4.18-69 4.15-71.35 0-2.78 5.7-9.38 23.92-10.82s-48.57-5.28-48.57-5.28l-13 104.29z" fill="#a81a16"/></g><path fill="none" d="M0 474.17h112.67v374H0z"/><path fill="#473c35" d="M260.88 484.9l5.05 5.49-8.41 5.29-4.74-7.71 8.1-3.07z"/><path d="M255.72 494.83l5.1 8.46 1 1.67a.67.67 0 0 0 .62.31l.73-.36 22-13.27a.66.66 0 0 0 .23-.9l-.89-1.47-.16-.25c-.52-.74-1.35-1.3-3.75-1.08h-.18l-6.71.66-1.69.17-6.4.07z" fill="#78411d"/><path d="M280.48 488a21 21 0 0 1-9.06 2.94s-5.89 1-8.14-2.75c-.38-.61.29-1.08.65-.6 3.46 2.35 16.52.41 16.52.41z" fill="#6b391d"/><path d="M260.78 503.23v.06l1 1.67a.67.67 0 0 0 .62.31.49.49 0 0 0 .28-.09l22.46-13.54a.66.66 0 0 0 .23-.9l-1-1.73z" fill="#492915"/><path d="M190.09 341.09s-9.23 4.37-25.85 3.85-23.24-4.55-23.24-4.55c1.82-2.07 12.71-6.57 16.36-8l1.18-.46c.52-.17 1.85-12.77 1.85-12.77h12.22l1.32 12.92 1.19.47a78.55 78.55 0 0 1 14.97 8.54z" fill="#925930"/><path d="M173 323.23c-4.07 1.71-9.76 3.46-13.78 5.25.55-3.78 1.14-9.34 1.14-9.34h12.22z" fill="#7c4825"/><path d="M145.83 287.27c-.84 5.61.89 21.48 6.26 27.45s11 8 14.69 8.17 12.27-4.82 16.48-11.86c5.08-8.5 4.63-24.65 3.59-30.92s-11.64-12.11-21.78-10.44-17.15 3.58-19.24 17.6z" fill="#925930"/><path d="M169.07 304.11c-1-.54-3.43-.49-5.29-.18a1.7 1.7 0 0 0-.69.22c-.2.13-.13.38-.05.58a6.89 6.89 0 0 0 2.14 1.5 2.19 2.19 0 0 0 1 .29 2.36 2.36 0 0 0 1.38-.59c.64-.49 1.92-1.22 1.51-1.82z" fill="#7c4825"/><path d="M185.38 298.58a3.49 3.49 0 0 1 1.82-1.37 2.58 2.58 0 0 1 2.21.33 3 3 0 0 1 1.08 2.6 8.23 8.23 0 0 1-.81 2.82 8.51 8.51 0 0 1-2.39 3.58 3.15 3.15 0 0 1-4 0zm-38.24 0a3.43 3.43 0 0 0-1.81-1.37 2.58 2.58 0 0 0-2.21.33 3 3 0 0 0-1.09 2.6 8.24 8.24 0 0 0 .82 2.82 8.42 8.42 0 0 0 2.39 3.58 3.14 3.14 0 0 0 4 0z" fill="#925930"/><path d="M158.11 282.84a22.58 22.58 0 0 0-8.81 3.35 24.9 24.9 0 0 1 2.47 3.82 29.38 29.38 0 0 1 8.52-3.25l-.8-4-.74.85zm15.79.06a22.58 22.58 0 0 1 8.87 3.18 25.17 25.17 0 0 0-2.39 3.87 29.57 29.57 0 0 0-8.58-3.08l.71-4c.26.27.51.55.77.83z" fill="#603b22"/><path d="M145 293.06l2.44 26.08s7.37 6.46 9.78 6.56 18.73.83 21.31 0 7.29-5.63 7.29-6.09 2.29-28.07 2.29-28.07l-3-1.79s.9 16-1.22 16.45-35 2-35.43-.41-.87-13.38-.87-13.38z" fill="#3d2718"/><path d="M148.05 269.32a43.92 43.92 0 0 1 26.22-6.89c10.74.65 15.61 12.26 15.52 13.46-.39 5.42-2.13 25.92-3.32 25.12s-1-21-2.6-21.75-2 7-2.61 7.1-1.71-6.08-2.85-6.85-5.08-.29-6.23.24-1.15 7.65-1.79 7.65-.93-7-1.69-7.77-3.95-.2-5.92-.4c-.44 0-1.4 7-1.83 7s-1.94-6-2.33-6.34c-2.32-2.32-5.16-2.22-7.62-3.28 0 0-.08 7.17-.52 7.17s-1.59-3.26-1.59-3.26-1.51 22.72-2.23 20.49-5.08-23-4.29-27.33 3.57-5.56 5.68-4.36z" fill="#68442b"/><path d="M148.05 269.32a43.92 43.92 0 0 1 26.22-6.89c10.74.65 15.61 12.26 15.52 13.46-.39 5.42-2.13 25.92-3.32 25.12s-1-21-2.6-21.75-2 7-2.61 7.1-1.71-6.08-2.85-6.85-5.08-.29-6.23.24-1.15 7.65-1.79 7.65-.93-7-1.69-7.77-3.95-.2-5.92-.4c-.44 0-1.4 7-1.83 7s-1.94-6-2.33-6.34c-2.32-2.32-5.16-2.22-7.62-3.28 0 0-.08 7.17-.52 7.17s-1.59-3.26-1.59-3.26-1.51 22.72-2.23 20.49-5.08-23-4.29-27.33 3.57-5.56 5.68-4.36z" fill="#301f13"/><path d="M168.35 340.19a9 9 0 0 1-3.55.25 2.56 2.56 0 0 1-2.22-1.31 2.25 2.25 0 0 1 .56-2.17c.5-.6 1.19-.95 1.69-1.56a11 11 0 0 0 1.86 3.79c.37-1.23.85-2.55 1.23-3.79a5.39 5.39 0 0 1 1.8 1.59 2.07 2.07 0 0 1 .16 2.29 2.71 2.71 0 0 1-1.53.91z" fill="#f2f2f2"/><path d="M159.43 299.31a3.74 3.74 0 0 0-4.31-.86 10.28 10.28 0 0 1 4.31.86zm13.24 0a3.85 3.85 0 0 1 2-1.13 3.76 3.76 0 0 1 2.29.27 10.31 10.31 0 0 0-4.29.86z" fill="#6d4021"/><path fill="#473c35" d="M99.82 494.24l-2.14 7.99 8.9 2.31 2.5-8.47-9.26-1.83z"/><path d="M107.32 504.73c.52-2.19.87-4.14.2-2.92a1.79 1.79 0 0 1-2.49.73 18 18 0 0 0-3.42-1.24c-.5-.13-2.46.21-3-.15s-1.1-1.49-1.45-1.37c-1.31.47-11.64 8-11.64 8l-.26.19-.26 3.16-.23 2.87a9.26 9.26 0 0 0 1 .45l5 .52 3.16-.79 11.75-2.94v-.07l1.7-6.47z" fill="#6b391d"/><path d="M84 511.86l-.09.34a.76.76 0 0 1 .08-.32z" fill="#e2e2de"/><path d="M97.75 500.08s.58-.52 1-.37l3.62 1.4a.62.62 0 0 1 0 1.06l-10.27 6.45a14.28 14.28 0 0 1-4.34-1.17z" fill="#7c4124"/><path d="M94.43 513.54a1.23 1.23 0 0 1-.56.68c-1 .66-3 1-3.81 1.47l-3.31-.85c-.37-.12-.7-.23-1-.35a9.26 9.26 0 0 1-1-.45 4.34 4.34 0 0 1-1.19-.92l-.09-.32a4.44 4.44 0 0 1 0-2 5.42 5.42 0 0 1 .51-1.29 4.7 4.7 0 0 1 1.25-1.51l.26-.19A5.13 5.13 0 0 1 89 507a8.18 8.18 0 0 1 1 .19 6.89 6.89 0 0 1 2.48 1.19 5 5 0 0 1 2 4.69 4.64 4.64 0 0 1-.05.47z" fill="#512915"/><path d="M100.27 511.8a15.26 15.26 0 0 1-5.73 1.2 15.59 15.59 0 0 1-4.12-.49l-1.66-.43-.39-.11c-3.21-.83-4.13-1.87-4.35-2.58a5.42 5.42 0 0 0-.51 1.29l-.33 1.32a1.4 1.4 0 0 0 .19.79 2.35 2.35 0 0 0 .22.33 4.34 4.34 0 0 0 1.19.92 9.26 9.26 0 0 0 1 .45c.34.13.75.26 1.17.39 1.1.34 2.23.64 2.23.64a16.69 16.69 0 0 0 10.76-.8l4.3-1.85a2.48 2.48 0 0 0 1.41-1.59.19.19 0 0 0 0-.07l.51-1.94z" fill="#7c4124"/><path d="M167 417.22l.33 21.38c0 .08.08 3.44-.53 3.42-1.84-.07-22.87 0-37.71 6 0 0-5.43 10.71-8.53 16.3-3.88 7-12.27 35-12.27 35a6.79 6.79 0 0 1-2.36-.26c-.34-.08-1.4-.48-1.85-.61-.8-.21-1.57-.46-2.44-.7s-1.4-.44-1.86-.6c-1-.33-1.21-.14-1.21-.77 0 0 4.17-48.22 12.24-55.79 5.52-5.18 18.46-17.07 26.22-19.49.59-.18 0-6.38 0-6.38l22.67 2.47z" fill="#ab7348"/><path d="M166.13 432.84l-.52 9.18c-12.55-.65-35.51 4.2-36.67 6.27-1.33 2.37-7.57 14.36-9.83 19.53-3 7-10.8 31.43-10.8 31.43a3.54 3.54 0 0 0-1.87 0c3.88-21.08 11.66-46.13 14.93-51.67 5.05-8.58 44.76-14.74 44.76-14.74z" fill="#9e6946"/><path d="M250.05 463.76c2.14 3.43 4.19 6.88 6.18 10.34q1.5 2.59 3 5.21l1.45 2.62.73 1.34a2.91 2.91 0 0 1 .18.35l.18.33.34.68c.43.68-.9 2.31-3 3.77l-.46.3a12.07 12.07 0 0 1-3.62 1.66c-.77.17-1.34.12-1.54-.2a.44.44 0 0 1-.06-.16l-.31-.43-.21-.28-.1-.15v-.06l-.84-1.12-1.97-2.33c-1.17-1.54-2.37-3.07-3.57-4.6-2.39-3-4.82-6-7.28-8.95-1.23-1.45-2.47-2.88-3.72-4.26l-.47-.52-.46-.5-.94-1c-.31-.35-.62-.65-.92-1l-.93-.93c-.07-.08-.15-.14-.22-.21l-.22-.2-.45-.41-.44-.41-.11-.1h-.06l-.11-.07-.11-.08a.4.4 0 0 0-.13-.09l-.37-.24-.18-.13h-.06l-.12-.07-.46-.28c-.29-.19-.66-.4-1-.6l-.52-.3-.57-.3c-.73-.41-1.54-.81-2.32-1.22-3.23-1.61-6.67-3.17-10.18-4.67s-7.07-2.95-10.67-4.36c-1.81-.72-3.63-1.42-5.45-2.12l-25.61-5.87-5.45-.14-.9-23.28 27.69-3.55.87 6.74h.05l1.36.73q2.66 1.41 5.31 2.87 2.39 1.29 4.75 2.61 2.91 1.62 5.81 3.27 5.26 3 10.48 6.17c3.48 2.12 6.94 4.32 10.41 6.72.87.62 1.73 1.22 2.61 1.89l.66.49.66.52c.44.35.88.68 1.33 1.07s.89.73 1.37 1.18l.7.65c.12.1.25.24.37.36l.38.39.38.39a1.66 1.66 0 0 0 .18.19l.13.17.53.65 1.05 1.3.95 1.28c.32.43.64.86.93 1.29l.9 1.28.44.64.43.64c1.15 1.68 2.27 3.39 3.32 5.1z" fill="#ab7348"/><path d="M165.73 432.72l.1 9c8.66-.1 21.35 3.18 32.38 6.24 0 0 27.78 11.09 32 14.74 9.7 8.37 23.51 27.77 23.51 27.77 0 .41 1-.68 1.86-.4-8.37-33.88-51.93-49.13-55.8-51.94-5.78-4.28-34.05-5.41-34.05-5.41z" fill="#9e6946"/><path fill="#f2dcce" d="M195.64 418.29l-56.07-1.18 12.24-87.27 15.46 3.29 16.27-3.29 12.1 88.45z"/><path d="M166.12 332.53s-3.56 43.28-3.45 43.86 2.66 3.89 3.72 4c.66.09 4.5-3.07 4.91-4 .78-1.71-3.75-43.93-3.75-43.93z" fill="#473c35"/><path d="M162.11 332.77s6.59-.61 9.19 0c0 0-2.94 6-4.6 6.56 0 0-4.5-3.74-4.59-6.56z" fill="#473c35"/><path d="M149.07 330.89s9.1 17.37 17.86 25.28c0 0 15.73-11.59 19-21.61l2.48.56s1.81 76.49 1.93 84.49c0 0-20.23 4.45-41.32 0 0 0-3.18-83.67-3.38-87.29z" fill="#b53116"/><g clip-path="url(#bG)"><path d="M140 335.84s-.65 43.71 3.62 44.88 2.91-7.54 6.92-5.47 7.41 8.75 14.14 9.39 8-15.74 12.75-15.22 2.18 8.34 7.22 8.6.23-10.75 2-11.27 1.94 1 5 1 2.2-18 2.2-18l-3.83-16.12a12.05 12.05 0 0 0-4.54-1.63c-2.36-.23-32.31 1.25-36.6 1.27s-8.88 2.57-8.88 2.57z" fill="#a02a17"/></g><path d="M158.37 327.4s.83 3.36 8.82 5.14a83.73 83.73 0 0 1-7.22 7.91s-4.72-7.67-4.69-11.33zm8.82 5.14a83.27 83.27 0 0 0 6.58 8.36s2.8-7.34 3.85-11.57c0 0-2.82-1.81-3.78-2.26a12 12 0 0 1-6.65 5.47z" fill="#dbdbdb"/><path d="M154.85 329.81h-7.93a8.94 8.94 0 0 0-8.84 8.52L135 422.08a.33.33 0 0 0 .33.36h2.28c6.32 0 20.52 0 20.53-20.13z" fill="url(#d)"/><path d="M178.66 329.81h8.13a8.94 8.94 0 0 1 8.84 8.52l3.07 83.73a.34.34 0 0 1-.34.36h-2.27c-6.33 0-20.53 0-20.53-20.13z" fill="url(#bH)"/><path d="M195.92 347.47l-3.1-15.2a6.68 6.68 0 0 0-3.95-2 43.58 43.58 0 0 0-11.24-.15v39.1c4.64.66 2 9.77 7 10s.1-13.74 3.56-13.94c2.57-.14 3.13 4.85 6.23 4.85s1.5-22.66 1.5-22.66zm-56.26 11.16c-.1 1.68.11 11.5 1.71 14.24s9.37 1.84 10-2.36-.29-12.15-.29-12.15-7.72.02-11.42.27z" fill="#442b28"/><path d="M155.53 330.13l-9.91.06c-4.3 0-7.09 3.63-7.09 3.63s-4 57.94 2.86 59.23c4.35.82 4.4-19.67 8.41-17.6a22.2 22.2 0 0 1 5.52 3.56z" fill="#442b28"/><path fill="#69423d" d="M146.82 329.83l9.69-1.33 1.54 68.96-6.71-47.49 3.07-5.86-4.21 1.02-3.38-15.3z"/><g clip-path="url(#bI)"><path d="M140 334s-2.66 56 1.61 57.18 6-17.37 10-15.3 4.67 6.88 11.39 7.53 6.47-15.14 11.25-14.62 2.46 6.73 7.51 7 3.1-10.34 4.91-10.86 1.94 1 5 1 2.2-18 2.2-18l-3.83-16.12-33.33-3.43c-2.36-.23-5.72 1.43-10 1.45S140 334 140 334z" fill="#5e3a38"/></g><path fill="#69423d" d="M186.84 329.83l-10.05-1.05-1.17 68.68 6.71-47.49-3.08-5.86 4.21 1.02 3.38-15.3z"/><g clip-path="url(#bJ)"><path d="M193.93 347.93l-3.83-16.12a4.21 4.21 0 0 0-3.27-2.11 95.18 95.18 0 0 0-10.09-.85l-.61 40.88a2.49 2.49 0 0 1 1.6-.41c4.79.51 2.4 9.43 7.45 9.69s-.3-13.62 1.51-14.14 1.94 1 5 1 2.24-17.94 2.24-17.94z" fill="#5e3a38"/></g><path fill="#925930" d="M85.69 294.33l-.05 4.96 3.85 4.05-3.8-9.01z"/><path d="M89.65 290.43a3.94 3.94 0 1 0 3.9 4 3.93 3.93 0 0 0-3.9-4z" fill="#925930"/><path d="M89.6 295.35a3.94 3.94 0 1 0 3.9 4 3.93 3.93 0 0 0-3.9-4z" fill="#925930"/><path d="M92.19 295.37a3.94 3.94 0 1 0 3.9 4 3.94 3.94 0 0 0-3.9-4z" fill="#925930"/><path d="M93.07 296.28a1.55 1.55 0 1 0 3.08 0l.06-4.05a1.55 1.55 0 1 0-3.08 0z" fill="#925930"/><path d="M93 299.52a1.55 1.55 0 1 0 2.56 1.71l2.51-3.77a1.55 1.55 0 1 0-2.56-1.71z" fill="#925930"/><path d="M95.33 296.5a1.55 1.55 0 1 0 2.89-1.07l-.7-1.88a1.55 1.55 0 1 0-2.89 1.08z" fill="#925930"/><path fill="#925930" d="M89.618 294.368l.038-3.94 5.02.049-.039 3.94zm-3.124 11.952l.077-8.92 8.86.077-.078 8.92z"/><path d="M95.42 303.85V306c0 1.06-.15 2.35-.15 2.35l-8.75-1.22v-3.2s8.9-.04 8.9-.08z" fill="#ededed"/><path d="M86.5 305.69a37.45 37.45 0 0 0 .6 9.28c.17.77.32 1.56.55 2.33l.16.58c0 .19.1.39.17.58l.38 1.14.21.57.23.57.22.56c.08.19.17.38.25.56l.51 1.11.57 1.08c.18.37.4.71.6 1.07s.41.7.64 1l.68 1 .72 1c.24.33.5.64.75 1s.51.63.78.93l.81.91.84.87a41.67 41.67 0 0 0 3.58 3.21c1.25 1 2.53 1.91 3.85 2.75s2.67 1.64 4 2.35 2.76 1.39 4.16 2a76 76 0 0 0 8.53 3.12c1.44.44 2.88.83 4.33 1.2s2.9.69 4.36 1c2.92.6 5.84 1.07 8.79 1.44l1-16.38c-2.54 0-5.09-.16-7.62-.38-1.27-.12-2.52-.26-3.78-.43s-2.49-.36-3.72-.59a53.25 53.25 0 0 1-13.87-4.36 26.48 26.48 0 0 1-10.28-8.37l-.46-.67-.42-.69-.21-.35-.19-.36-.19-.36c-.07-.12-.13-.24-.19-.36l-.34-.74a3.17 3.17 0 0 1-.17-.38l-.15-.38c-.22-.51-.38-1-.57-1.57a27.72 27.72 0 0 1-1.18-6.81z" fill="#69423d"/><path d="M146.17 340.88a9.31 9.31 0 0 0-2.28-5.77 7.19 7.19 0 0 0-10.44-.64c-1.5 1.32-.15 3-.46 5.23s1.24 3.7 2.57 5.34-.08 3.72 2.26 3.86a8 8 0 0 0 6-2.2 7.62 7.62 0 0 0 2.35-5.82z" fill="#5e3a38"/><path d="M123.7 331.12s.64 5 1.72 6.46a5.86 5.86 0 0 0 4.36 2.27c1.68.2 1.15 3 2.57 3.36 1.87.5 4.2 5.54 4.2 5.54l1.31.12 4.57-5.76-3.61-10.59z" fill="#5e3a38"/><g clip-path="url(#bK)"><ellipse cx="100.66" cy="336.82" rx="3.95" ry="7.78" transform="rotate(-48.21 100.667 336.823)" fill="#ab7348"/></g><path fill="#925930" d="M252.16 283.59l-2.6 4.22-5.42 1.38 8.02-5.6z"/><path d="M250.88 278.18a3.94 3.94 0 1 1-5.41 1.29 3.94 3.94 0 0 1 5.41-1.29z" fill="#925930"/><path d="M248.3 282.37a3.94 3.94 0 1 1-5.41 1.28 3.93 3.93 0 0 1 5.41-1.28z" fill="#925930"/><path d="M246.1 281a3.94 3.94 0 1 1-5.42 1.29 3.94 3.94 0 0 1 5.42-1.29z" fill="#925930"/><path d="M244.88 281.31a1.56 1.56 0 1 1-2.64-1.61l2.11-3.46a1.55 1.55 0 1 1 2.63 1.61z" fill="#925930"/><path d="M243.18 284.07a1.55 1.55 0 1 1-3.08.08l-.12-4.53a1.55 1.55 0 1 1 3.08-.08z" fill="#925930"/><path d="M242.84 280.3a1.55 1.55 0 1 1-1.87-2.45l1.59-1.22a1.55 1.55 0 1 1 1.87 2.45z" fill="#925930"/><path fill="#925930" d="M244.542 278.886l2.066-3.354 4.274 2.634-2.067 3.354zm-6.995 9.788l4.687-7.59 7.538 4.656-4.687 7.59z"/><path d="M238.83 286.5s-.76 1.39-1.32 2.27-1.16 2-1.16 2l7.95 4.12 1.68-3s.23-.27.2-.31-7.3-5.11-7.35-5.08z" fill="#ededed"/><path d="M237.7 288.47a124.2 124.2 0 0 1-9.91 13c-1.82 2.05-3.65 4.08-5.57 6-.95 1-1.93 2-2.9 2.91-.48.48-1 .95-1.48 1.42s-1 .95-1.49 1.41l-1.52 1.39c-.5.47-1 .92-1.53 1.38-1 .91-2.06 1.8-3.09 2.7-2.1 1.76-4.21 3.5-6.37 5.19-4.31 3.37-8.75 6.58-13.29 9.58l6.95 14.65c5.67-2.77 11.86-9.3 16.05-13.4 2.09-2 4.13-4.14 6.15-6.27 1-1.07 2-2.14 3-3.23.49-.55 1-1.09 1.46-1.64l1.45-1.66c.48-.55.95-1.12 1.42-1.68s.95-1.12 1.41-1.69c.92-1.15 1.85-2.28 2.75-3.45 1.81-2.3 3.54-4.7 5.23-7.1a133.18 133.18 0 0 0 9.1-15.21z" fill="#69423d"/><path d="M189 344.75a7.76 7.76 0 0 0 5.29 3.39c2.1.33 1 .3 2.89-1.1s1.28-3.38 1.51-5.47-.74-2.88-2.17-4.62 1.88-4.68-.16-4.95a7.87 7.87 0 0 0-5.81 1.51 7.79 7.79 0 0 0-3 5.17 8.79 8.79 0 0 0 1.45 6.07z" fill="#5e3a38"/><g clip-path="url(#bL)"><ellipse cx="227.22" cy="321.99" rx="7.78" ry="3.95" transform="rotate(-45 227.223 321.991)" fill="#ab7348"/></g><path d="M172.82 318.7c-1.19.88-3 1.44-6 1.44-3.34 0-5.28-.69-6.41-1.79-.71-.68-.68-2.34-.5-4.05.24-2.26.67-3.37 1.26-4a2.83 2.83 0 0 1 .7-.56 2.45 2.45 0 0 1 1-.38c1.49-.21 1.9.28 3.94.28s2.46-.49 4-.28a2.7 2.7 0 0 1 .76.24 2.5 2.5 0 0 1 .86.69 8.07 8.07 0 0 1 1.2 4c.14 1.88.26 3.61-.81 4.41z" fill="#4c0c0a"/><path d="M161.83 318.56a6 6 0 0 1 3.9-1.93 7.57 7.57 0 0 1 4.66.87c.55.32 1 .79.9 1.28a36.22 36.22 0 0 1-8.84.43c-.3 0-.66-.08-.74-.28s.02-.26.12-.37z" fill="#af3f3f"/><path d="M172.35 310.28a1.19 1.19 0 0 1-.26.23 3.85 3.85 0 0 1-1.52.57 30.32 30.32 0 0 1-6.72.11 6.16 6.16 0 0 1-2.5-.73 1.37 1.37 0 0 1-.23-.17 2.68 2.68 0 0 1 .48-.42l.13-.09h.21a2.49 2.49 0 0 1 .89-.31c1.49-.21 1.9.28 3.94.28s2.46-.49 4-.28a2.7 2.7 0 0 1 .76.24l.11.06a1.13 1.13 0 0 1 .2.13 2.34 2.34 0 0 1 .51.38zm.47 8.42c-1.15.92-3 1.44-6 1.44-3.34 0-5.34-.65-6.41-1.79a2.85 2.85 0 0 1 .33-.25 1.18 1.18 0 0 1 .19-.11 1.57 1.57 0 0 1 .43-.15 3.74 3.74 0 0 1 1.68.2 18.16 18.16 0 0 0 7.9-.05 2.1 2.1 0 0 1 1.36 0 1.1 1.1 0 0 1 .21.14l.13.15a3 3 0 0 1 .18.42z" fill="#fff"/><path d="M178.28 295.58a13.57 13.57 0 0 0-3.54 1 7.12 7.12 0 0 0-2.48 2.44c-.22.38-.6.39-.7.15-.6-1.19 1.29-3.21 3.38-4.18s5.42-1.3 6-.2c.29.46-1.09.59-2.66.79z" fill="#2e1c10"/><path d="M179 297.94a13.61 13.61 0 0 0-3.67-.26 7.21 7.21 0 0 0-3.16 1.45c-.34.28-.7.16-.71-.09-.16-1.33 2.3-2.59 4.6-2.79s5.54.61 5.74 1.86c.1.52-1.24.17-2.8-.17zm-25.18-2.36a13.49 13.49 0 0 1 3.53 1 7.16 7.16 0 0 1 2.49 2.44c.22.38.6.39.7.15.6-1.19-1.29-3.21-3.39-4.18s-5.42-1.3-6-.2c-.28.46 1.1.59 2.67.79z" fill="#2e1c10"/><path d="M153.08 297.94a13.56 13.56 0 0 1 3.66-.26 7.26 7.26 0 0 1 3.17 1.45c.33.28.7.16.71-.09.16-1.33-2.3-2.59-4.61-2.79s-5.54.61-5.73 1.86c-.09.52 1.26.17 2.8-.17z" fill="#2e1c10"/><path d="M136.88 357.28s-3 19.42-1.41 24.25 3 7.25 3.27.85-.73-15.35-.12-16.56 1.69-1.57 1.57 3.51-.85 17 .72 15.71 1.81-3.39 1.45-9.31 2.39-8.93 2.15-6.64 1.44 4.61 1.81 1.71-4.27-12.45-5-13.15c-.38-.39-.89-1-1.84-2.11-1.19-1.4-1.65-1.69-2.36-1.62s-.24.46-.24 3.36zm42.56-24.59a64.5 64.5 0 0 0 0 15.33c1 9.07 3.3 18 2 20.44s-3.3 1.15-3.79-4.62-.66-16.31-1-13.84.5 11-1 11.54-1.32-3.79-1-9.73 2.64-19.28 3.46-20.43 1.5-1.49 1.33 1.31z" fill="#9ad8e8"/><path d="M159.14 264.25c-.82.17-4.8 1.91-.65 2.19s14.85.5 15.13 3.81 2.76 5.17 2.67 2.85-1-3.46.71-2.53 5.17 2.78 5.3 5.88 1.89 4.79 2.38 2.4 4.23-6.6 4-2.81 1.51 6.63 2 4.06-.67-5.12 2.09-5.51-1.66-.34-4-2.16-3.78-8-12.66-9.61c-8.34-1.49-12.11.37-16.97 1.43z" fill="#9ad8e8" opacity=".69"/><path d="M166.06 253.55s9.86-12 5.41-16.41-4.87 10.03-5.41 16.41z" fill="#fff"/><path d="M201.74 272.87s11 0 11.41-4.37-7.67 1.81-11.41 4.37z" fill="#9ad8e8" opacity=".79"/><path d="M150.45 253.05s-3.95-10.26-8.21-9.06 4.47 6.5 8.21 9.06z" fill="#fff"/><path d="M195.62 266.47s22.18-26.41 19.77-15-11.95 12.11-14.55 14.36c1.18 1.78 0 3.86 5.1 2.25s28.73-1.24 22.4 2-23.17 3.42-28.68 1.71-9.25-4.66-4.04-5.32z" fill="#9ad8e8" opacity=".79"/><path d="M188.58 270.11s11.29-13.47 11.83-9.21-9.23 6.95-11.83 9.21zm10.65 7.68s17.12-1.69 12-.08-12 .08-12 .08z" fill="#fff"/><path d="M181.8 251.09s10.45-24 14.9-19.22-8.16 11.63-5.25 15.59 5-2.08 12.43-8.31 21.55-12.36 14.75-5.24-22 16.15-25.9 21.76-11.85 11-12.81 7.22 1.88-11.8 1.88-11.8zm-41.29 22.6c-3-1.06-11.68-4.78-22.11-3.46-5.69.72-4.55 5.87 4.51 5.2s15.94.39 15.35 3.36-25.3-2.09-30.39 3.37c-3.37 3.79 1.26 6.1 8.13 3.3s17.29-4.12 20.85-2.64 9.77 3.44 7.87-2.44-4.21-6.69-4.21-6.69z" fill="#9ad8e8" opacity=".79"/><path d="M116 280.68s-10.72 6.65-3.73 4.8 3.73-4.8 3.73-4.8zm13.45-5.97s-9.25-4.61-13.81-2.58c-1.72 1.66 9.96 2.59 13.81 2.58zm56.43-29.43s6.2-11.86 10.82-13.41c0 0-5.44 10.32-10.82 13.41zm11.32 1.94s15.44-15 23.5-16c.53.43-21.19 15.22-23.5 16z" fill="#fff"/><path d="M181.85 252.93s-1.87 13.26 10.05.82c-.17.94-13.22 17.06-10.05-.82z" fill="#87c9d8" opacity=".85"/><path d="M209 261.41s-16.46 6.9-.23 5.8-31.92 6.93.23-5.8zm-19 21.29s32.63 14.45 11.37 9.87c-10.07-2.17-10.09-6.84-11.27-7.82-1 .63-2 .3-1.48 2.32.57 2.29-1.33 15.63-2.63 10.94-1-3.74.14-11.06 1.24-13.27s2.63-3.92 2.77-2.04z" fill="#9ad8e8" opacity=".79"/><path d="M192.91 285.11s16.52 7.26 9.72 7.27c-5.25.01-7.91-6.08-9.72-7.27zm-5.83 4.14s-.33 9.25-.83 6a13.61 13.61 0 0 1 .83-6z" fill="#fff"/><path d="M191.35 286.06s-3.21-6.57-3.54 0c-.42 8.46-1.38-10.77 3.54 0z" fill="#87c9d8" opacity=".85"/><path d="M215.49 250.34s-12.09 5.51-6.25 7.06 14.08-9.08 6.25-7.06z" fill="#9ad8e8"/><path d="M211.68 254.61s.6-3.46 5.14-3.19c.78.74-5.14 3.19-5.14 3.19z" fill="#fff"/><path d="M207 256s.63 5 9.88-1.25c.02.04-5.69 4.15-9.88 1.25zm-22.28-22.91s-8.88 9.87-2.91 9 9.29-13.99 2.91-9z" fill="#87c9d8" opacity=".85"/><path d="M182.94 238.51s-.84-3.41 3.43-5c1.02.4-3.43 5-3.43 5z" fill="#fff"/><path d="M179.24 241.69s2.57 4.33 8.55-5.09c0 0-3.59 6.05-8.55 5.09z" fill="#87c9d8" opacity=".85"/><path d="M208.26 289s-8.34-2-6 1.11 10.79 1 6-1.11z" fill="#9ad8e8"/><path d="M204.63 289.68s1.68-1.52 3.88.42c.1.69-3.88-.42-3.88-.42z" fill="#fff"/><path d="M201.68 288.56s-1.66 2.79 5.53 3.29c0 0-4.54-.18-5.53-3.29z" fill="#9ad8e8"/><path d="M230.92 290.57s-11.75-2.82-8.43 1.56 15.19 1.38 8.43-1.56z" fill="#9ad8e8" opacity=".79"/><path d="M221.5 291.32s2.37-2.14 5.47.59c.14.98-5.47-.59-5.47-.59z" fill="#fff"/><path d="M221.66 290.43s-2.34 3.94 7.79 4.64c0 0-6.4-.26-7.79-4.64z" fill="#87c9d8" opacity=".85"/><path d="M136.23 396.76s-6 14.5-4.26 18.37 3.68 2.51 4.06-3.48 1.36-17.79.2-14.89zM195 403s-2 14.35 2 11.82-1.15-16.35-2-11.82z" fill="#9ad8e8"/><path fill="none" d="M67.4 489.25h70.36v34.49H67.4z"/><path d="M169.67 296h-.18l-2-.62a5.08 5.08 0 0 0-2.89 0l-2 .62a.61.61 0 0 1-.77-.46.67.67 0 0 1 .43-.83l2-.61a6.1 6.1 0 0 1 3.59 0l2 .61a.69.69 0 0 1 .43.83.64.64 0 0 1-.61.46zm-21.24 2.25h-2.52a.67.67 0 0 1 0-1.34h2.35a5.33 5.33 0 0 0 .17 1.34zm35.75-1.61h2.38a.67.67 0 1 1 0 1.34h-2.43z" fill="#372b36"/><circle cx="155.61" cy="296.67" r="6.85" fill="none" stroke="#372b36" stroke-miterlimit="10"/><circle cx="176.7" cy="296.67" r="6.85" fill="none" stroke="#372b36" stroke-miterlimit="10"/></g></svg>