<svg xmlns="http://www.w3.org/2000/svg" xmlns:xlink="http://www.w3.org/1999/xlink" viewBox="0 0 332.11 848.17"><defs><clipPath id="e"><path d="M210.87 101.44v.06c-.1.36-1.77.89-2.14 1a38.89 38.89 0 0 1-5.63 1.11c-28.22 4.14-71.94 1.48-76.12-1.62l-.16-.18c.87-4.83 52.68-6.34 74.28-3.51 5.61.7 9.27 1.7 9.77 3.14z" fill="#a81a16"/></clipPath><linearGradient id="b" x1="-182.75" y1="288.95" x2="-148.36" y2="288.95" gradientTransform="matrix(1 0 0 -1 460.49 577.9)" gradientUnits="userSpaceOnUse"><stop offset=".01" stop-color="#d22c20"/><stop offset=".31" stop-color="#e7342e"/><stop offset=".51" stop-color="#ef3733"/><stop offset=".72" stop-color="#e6332d"/><stop offset="1" stop-color="#d22c20"/></linearGradient><linearGradient id="a" x1="311.62" y1="329.93" x2="278.86" y2="329.93" gradientUnits="userSpaceOnUse"><stop offset=".05" stop-color="#d3d2d2"/><stop offset=".37" stop-color="#9a9a9c"/><stop offset=".64" stop-color="#9a9a9c"/><stop offset="1" stop-color="#d1d6d5"/></linearGradient><linearGradient id="f" x1="307.23" y1="337.17" x2="283.44" y2="337.17" xlink:href="#a"/><linearGradient id="g" x1="307.23" y1="344.42" x2="283.44" y2="344.42" xlink:href="#a"/><linearGradient id="h" x1="307.23" y1="351.66" x2="283.44" y2="351.66" xlink:href="#a"/><linearGradient id="i" x1="307.23" y1="358.9" x2="283.44" y2="358.9" xlink:href="#a"/><linearGradient id="j" x1="311.62" y1="366.15" x2="278.86" y2="366.15" xlink:href="#a"/><linearGradient id="k" x1="307.38" y1="373.39" x2="283.59" y2="373.39" xlink:href="#a"/><linearGradient id="l" x1="307.38" y1="380.63" x2="283.59" y2="380.63" xlink:href="#a"/><linearGradient id="m" x1="307.38" y1="387.88" x2="283.59" y2="387.88" xlink:href="#a"/><linearGradient id="n" x1="307.38" y1="395.12" x2="283.59" y2="395.12" xlink:href="#a"/><linearGradient id="o" x1="311.78" y1="402.37" x2="279.01" y2="402.37" xlink:href="#a"/><linearGradient id="p" x1="307.23" y1="409.61" x2="283.44" y2="409.61" xlink:href="#a"/><linearGradient id="q" x1="307.23" y1="416.85" x2="283.44" y2="416.85" xlink:href="#a"/><linearGradient id="r" x1="307.23" y1="424.1" x2="283.44" y2="424.1" xlink:href="#a"/><linearGradient id="s" x1="307.23" y1="431.34" x2="283.44" y2="431.34" xlink:href="#a"/><linearGradient id="t" x1="311.62" y1="438.58" x2="278.86" y2="438.58" xlink:href="#a"/><linearGradient id="u" x1="307.23" y1="445.83" x2="283.44" y2="445.83" xlink:href="#a"/><linearGradient id="v" x1="307.23" y1="453.07" x2="283.44" y2="453.07" xlink:href="#a"/><linearGradient id="w" x1="307.23" y1="460.31" x2="283.44" y2="460.31" xlink:href="#a"/><linearGradient id="x" x1="307.23" y1="467.56" x2="283.44" y2="467.56" xlink:href="#a"/><linearGradient id="y" x1="311.62" y1="474.8" x2="278.86" y2="474.8" xlink:href="#a"/><linearGradient id="z" x1="311.62" y1="221.51" x2="278.86" y2="221.51" xlink:href="#a"/><linearGradient id="A" x1="307.23" y1="228.75" x2="283.44" y2="228.75" xlink:href="#a"/><linearGradient id="B" x1="307.23" y1="235.99" x2="283.44" y2="235.99" xlink:href="#a"/><linearGradient id="C" x1="307.23" y1="243.24" x2="283.44" y2="243.24" xlink:href="#a"/><linearGradient id="D" x1="307.23" y1="250.48" x2="283.44" y2="250.48" xlink:href="#a"/><linearGradient id="E" x1="311.62" y1="257.73" x2="278.86" y2="257.73" xlink:href="#a"/><linearGradient id="F" x1="307.38" y1="264.97" x2="283.59" y2="264.97" xlink:href="#a"/><linearGradient id="G" x1="307.38" y1="272.21" x2="283.59" y2="272.21" xlink:href="#a"/><linearGradient id="H" x1="307.38" y1="279.46" x2="283.59" y2="279.46" xlink:href="#a"/><linearGradient id="I" x1="307.38" y1="286.7" x2="283.59" y2="286.7" xlink:href="#a"/><linearGradient id="J" x1="311.78" y1="293.94" x2="279.01" y2="293.94" xlink:href="#a"/><linearGradient id="K" x1="307.23" y1="301.19" x2="283.44" y2="301.19" xlink:href="#a"/><linearGradient id="L" x1="307.23" y1="308.43" x2="283.44" y2="308.43" xlink:href="#a"/><linearGradient id="M" x1="307.23" y1="315.67" x2="283.44" y2="315.67" xlink:href="#a"/><linearGradient id="N" x1="307.23" y1="322.92" x2="283.44" y2="322.92" xlink:href="#a"/><linearGradient id="O" x1="311.62" y1="330.16" x2="278.86" y2="330.16" xlink:href="#a"/><linearGradient id="P" x1="307.23" y1="337.4" x2="283.44" y2="337.4" xlink:href="#a"/><linearGradient id="Q" x1="307.23" y1="344.65" x2="283.44" y2="344.65" xlink:href="#a"/><linearGradient id="R" x1="307.23" y1="351.89" x2="283.44" y2="351.89" xlink:href="#a"/><linearGradient id="S" x1="307.23" y1="359.13" x2="283.44" y2="359.13" xlink:href="#a"/><linearGradient id="T" x1="311.62" y1="366.38" x2="278.86" y2="366.38" xlink:href="#a"/><linearGradient id="U" x1="311.62" y1="113.09" x2="278.86" y2="113.09" xlink:href="#a"/><linearGradient id="V" x1="307.23" y1="120.33" x2="283.44" y2="120.33" xlink:href="#a"/><linearGradient id="W" x1="307.23" y1="127.57" x2="283.44" y2="127.57" xlink:href="#a"/><linearGradient id="X" x1="307.23" y1="134.82" x2="283.44" y2="134.82" xlink:href="#a"/><linearGradient id="Y" x1="307.23" y1="142.06" x2="283.44" y2="142.06" xlink:href="#a"/><linearGradient id="Z" x1="311.62" y1="149.3" x2="278.86" y2="149.3" xlink:href="#a"/><linearGradient id="aa" x1="307.38" y1="156.55" x2="283.59" y2="156.55" xlink:href="#a"/><linearGradient id="ab" x1="307.38" y1="163.79" x2="283.59" y2="163.79" xlink:href="#a"/><linearGradient id="ac" x1="307.38" y1="171.03" x2="283.59" y2="171.03" xlink:href="#a"/><linearGradient id="ad" x1="307.38" y1="178.28" x2="283.59" y2="178.28" xlink:href="#a"/><linearGradient id="ae" x1="311.78" y1="185.52" x2="279.01" y2="185.52" xlink:href="#a"/><linearGradient id="af" x1="307.23" y1="192.76" x2="283.44" y2="192.76" xlink:href="#a"/><linearGradient id="ag" x1="307.23" y1="200.01" x2="283.44" y2="200.01" xlink:href="#a"/><linearGradient id="ah" x1="307.23" y1="207.25" x2="283.44" y2="207.25" xlink:href="#a"/><linearGradient id="ai" x1="307.23" y1="214.49" x2="283.44" y2="214.49" xlink:href="#a"/><linearGradient id="aj" x1="311.62" y1="221.74" x2="278.86" y2="221.74" xlink:href="#a"/><linearGradient id="ak" x1="307.23" y1="228.98" x2="283.44" y2="228.98" xlink:href="#a"/><linearGradient id="al" x1="307.23" y1="236.23" x2="283.44" y2="236.23" xlink:href="#a"/><linearGradient id="am" x1="307.23" y1="243.47" x2="283.44" y2="243.47" xlink:href="#a"/><linearGradient id="an" x1="307.23" y1="250.71" x2="283.44" y2="250.71" xlink:href="#a"/><linearGradient id="ao" x1="311.62" y1="257.96" x2="278.86" y2="257.96" xlink:href="#a"/><clipPath id="ap"><path fill="none" d="M286.53 112.37h17.37v371.86h-17.37z"/></clipPath><linearGradient id="c" x1="275.18" y1="486.08" x2="315.97" y2="486.08" gradientUnits="userSpaceOnUse"><stop offset=".01" stop-color="#d22c20"/><stop offset=".26" stop-color="#e2322b"/><stop offset=".51" stop-color="#ef3733"/><stop offset="1" stop-color="#d22c20"/></linearGradient><linearGradient id="aq" x1="-368.75" y1="288.95" x2="-334.36" y2="288.95" gradientTransform="translate(392.71)" xlink:href="#b"/><linearGradient id="ar" x1="497.62" y1="329.93" x2="464.86" y2="329.93" gradientTransform="matrix(-1 0 0 1 522.09 0)" xlink:href="#a"/><linearGradient id="as" x1="493.23" y1="337.17" x2="469.44" y2="337.17" gradientTransform="matrix(-1 0 0 1 522.09 0)" xlink:href="#a"/><linearGradient id="at" x1="493.23" y1="344.42" x2="469.44" y2="344.42" gradientTransform="matrix(-1 0 0 1 522.09 0)" xlink:href="#a"/><linearGradient id="au" x1="493.23" y1="351.66" x2="469.44" y2="351.66" gradientTransform="matrix(-1 0 0 1 522.09 0)" xlink:href="#a"/><linearGradient id="av" x1="493.23" y1="358.9" x2="469.44" y2="358.9" gradientTransform="matrix(-1 0 0 1 522.09 0)" xlink:href="#a"/><linearGradient id="aw" x1="497.62" y1="366.15" x2="464.86" y2="366.15" gradientTransform="matrix(-1 0 0 1 522.09 0)" xlink:href="#a"/><linearGradient id="ax" x1="493.38" y1="373.39" x2="469.59" y2="373.39" gradientTransform="matrix(-1 0 0 1 522.09 0)" xlink:href="#a"/><linearGradient id="ay" x1="493.38" y1="380.63" x2="469.59" y2="380.63" gradientTransform="matrix(-1 0 0 1 522.09 0)" xlink:href="#a"/><linearGradient id="az" x1="493.38" y1="387.88" x2="469.59" y2="387.88" gradientTransform="matrix(-1 0 0 1 522.09 0)" xlink:href="#a"/><linearGradient id="aA" x1="493.38" y1="395.12" x2="469.59" y2="395.12" gradientTransform="matrix(-1 0 0 1 522.09 0)" xlink:href="#a"/><linearGradient id="aB" x1="497.78" y1="402.37" x2="465.01" y2="402.37" gradientTransform="matrix(-1 0 0 1 522.09 0)" xlink:href="#a"/><linearGradient id="aC" x1="493.23" y1="409.61" x2="469.44" y2="409.61" gradientTransform="matrix(-1 0 0 1 522.09 0)" xlink:href="#a"/><linearGradient id="aD" x1="493.23" y1="416.85" x2="469.44" y2="416.85" gradientTransform="matrix(-1 0 0 1 522.09 0)" xlink:href="#a"/><linearGradient id="aE" x1="493.23" y1="424.1" x2="469.44" y2="424.1" gradientTransform="matrix(-1 0 0 1 522.09 0)" xlink:href="#a"/><linearGradient id="aF" x1="493.23" y1="431.34" x2="469.44" y2="431.34" gradientTransform="matrix(-1 0 0 1 522.09 0)" xlink:href="#a"/><linearGradient id="aG" x1="497.62" y1="438.58" x2="464.86" y2="438.58" gradientTransform="matrix(-1 0 0 1 522.09 0)" xlink:href="#a"/><linearGradient id="aH" x1="493.23" y1="445.83" x2="469.44" y2="445.83" gradientTransform="matrix(-1 0 0 1 522.09 0)" xlink:href="#a"/><linearGradient id="aI" x1="493.23" y1="453.07" x2="469.44" y2="453.07" gradientTransform="matrix(-1 0 0 1 522.09 0)" xlink:href="#a"/><linearGradient id="aJ" x1="493.23" y1="460.31" x2="469.44" y2="460.31" gradientTransform="matrix(-1 0 0 1 522.09 0)" xlink:href="#a"/><linearGradient id="aK" x1="493.23" y1="467.56" x2="469.44" y2="467.56" gradientTransform="matrix(-1 0 0 1 522.09 0)" xlink:href="#a"/><linearGradient id="aL" x1="497.62" y1="474.8" x2="464.86" y2="474.8" gradientTransform="matrix(-1 0 0 1 522.09 0)" xlink:href="#a"/><linearGradient id="aM" x1="497.62" y1="221.51" x2="464.86" y2="221.51" gradientTransform="matrix(-1 0 0 1 522.09 0)" xlink:href="#a"/><linearGradient id="aN" x1="493.23" y1="228.75" x2="469.44" y2="228.75" gradientTransform="matrix(-1 0 0 1 522.09 0)" xlink:href="#a"/><linearGradient id="aO" x1="493.23" y1="235.99" x2="469.44" y2="235.99" gradientTransform="matrix(-1 0 0 1 522.09 0)" xlink:href="#a"/><linearGradient id="aP" x1="493.23" y1="243.24" x2="469.44" y2="243.24" gradientTransform="matrix(-1 0 0 1 522.09 0)" xlink:href="#a"/><linearGradient id="aQ" x1="493.23" y1="250.48" x2="469.44" y2="250.48" gradientTransform="matrix(-1 0 0 1 522.09 0)" xlink:href="#a"/><linearGradient id="aR" x1="497.62" y1="257.73" x2="464.86" y2="257.73" gradientTransform="matrix(-1 0 0 1 522.09 0)" xlink:href="#a"/><linearGradient id="aS" x1="493.38" y1="264.97" x2="469.59" y2="264.97" gradientTransform="matrix(-1 0 0 1 522.09 0)" xlink:href="#a"/><linearGradient id="aT" x1="493.38" y1="272.21" x2="469.59" y2="272.21" gradientTransform="matrix(-1 0 0 1 522.09 0)" xlink:href="#a"/><linearGradient id="aU" x1="493.38" y1="279.46" x2="469.59" y2="279.46" gradientTransform="matrix(-1 0 0 1 522.09 0)" xlink:href="#a"/><linearGradient id="aV" x1="493.38" y1="286.7" x2="469.59" y2="286.7" gradientTransform="matrix(-1 0 0 1 522.09 0)" xlink:href="#a"/><linearGradient id="aW" x1="497.78" y1="293.94" x2="465.01" y2="293.94" gradientTransform="matrix(-1 0 0 1 522.09 0)" xlink:href="#a"/><linearGradient id="aX" x1="493.23" y1="301.19" x2="469.44" y2="301.19" gradientTransform="matrix(-1 0 0 1 522.09 0)" xlink:href="#a"/><linearGradient id="aY" x1="493.23" y1="308.43" x2="469.44" y2="308.43" gradientTransform="matrix(-1 0 0 1 522.09 0)" xlink:href="#a"/><linearGradient id="aZ" x1="493.23" y1="315.67" x2="469.44" y2="315.67" gradientTransform="matrix(-1 0 0 1 522.09 0)" xlink:href="#a"/><linearGradient id="ba" x1="493.23" y1="322.92" x2="469.44" y2="322.92" gradientTransform="matrix(-1 0 0 1 522.09 0)" xlink:href="#a"/><linearGradient id="bb" x1="497.62" y1="330.16" x2="464.86" y2="330.16" gradientTransform="matrix(-1 0 0 1 522.09 0)" xlink:href="#a"/><linearGradient id="bc" x1="493.23" y1="337.4" x2="469.44" y2="337.4" gradientTransform="matrix(-1 0 0 1 522.09 0)" xlink:href="#a"/><linearGradient id="bd" x1="493.23" y1="344.65" x2="469.44" y2="344.65" gradientTransform="matrix(-1 0 0 1 522.09 0)" xlink:href="#a"/><linearGradient id="be" x1="493.23" y1="351.89" x2="469.44" y2="351.89" gradientTransform="matrix(-1 0 0 1 522.09 0)" xlink:href="#a"/><linearGradient id="bf" x1="493.23" y1="359.13" x2="469.44" y2="359.13" gradientTransform="matrix(-1 0 0 1 522.09 0)" xlink:href="#a"/><linearGradient id="bg" x1="497.62" y1="366.38" x2="464.86" y2="366.38" gradientTransform="matrix(-1 0 0 1 522.09 0)" xlink:href="#a"/><linearGradient id="bh" x1="497.62" y1="113.09" x2="464.86" y2="113.09" gradientTransform="matrix(-1 0 0 1 522.09 0)" xlink:href="#a"/><linearGradient id="bi" x1="493.23" y1="120.33" x2="469.44" y2="120.33" gradientTransform="matrix(-1 0 0 1 522.09 0)" xlink:href="#a"/><linearGradient id="bj" x1="493.23" y1="127.57" x2="469.44" y2="127.57" gradientTransform="matrix(-1 0 0 1 522.09 0)" xlink:href="#a"/><linearGradient id="bk" x1="493.23" y1="134.82" x2="469.44" y2="134.82" gradientTransform="matrix(-1 0 0 1 522.09 0)" xlink:href="#a"/><linearGradient id="bl" x1="493.23" y1="142.06" x2="469.44" y2="142.06" gradientTransform="matrix(-1 0 0 1 522.09 0)" xlink:href="#a"/><linearGradient id="bm" x1="497.62" y1="149.3" x2="464.86" y2="149.3" gradientTransform="matrix(-1 0 0 1 522.09 0)" xlink:href="#a"/><linearGradient id="bn" x1="493.38" y1="156.55" x2="469.59" y2="156.55" gradientTransform="matrix(-1 0 0 1 522.09 0)" xlink:href="#a"/><linearGradient id="bo" x1="493.38" y1="163.79" x2="469.59" y2="163.79" gradientTransform="matrix(-1 0 0 1 522.09 0)" xlink:href="#a"/><linearGradient id="bp" x1="493.38" y1="171.03" x2="469.59" y2="171.03" gradientTransform="matrix(-1 0 0 1 522.09 0)" xlink:href="#a"/><linearGradient id="bq" x1="493.38" y1="178.28" x2="469.59" y2="178.28" gradientTransform="matrix(-1 0 0 1 522.09 0)" xlink:href="#a"/><linearGradient id="br" x1="497.78" y1="185.52" x2="465.01" y2="185.52" gradientTransform="matrix(-1 0 0 1 522.09 0)" xlink:href="#a"/><linearGradient id="bs" x1="493.23" y1="192.76" x2="469.44" y2="192.76" gradientTransform="matrix(-1 0 0 1 522.09 0)" xlink:href="#a"/><linearGradient id="bt" x1="493.23" y1="200.01" x2="469.44" y2="200.01" gradientTransform="matrix(-1 0 0 1 522.09 0)" xlink:href="#a"/><linearGradient id="bu" x1="493.23" y1="207.25" x2="469.44" y2="207.25" gradientTransform="matrix(-1 0 0 1 522.09 0)" xlink:href="#a"/><linearGradient id="bv" x1="493.23" y1="214.49" x2="469.44" y2="214.49" gradientTransform="matrix(-1 0 0 1 522.09 0)" xlink:href="#a"/><linearGradient id="bw" x1="497.62" y1="221.74" x2="464.86" y2="221.74" gradientTransform="matrix(-1 0 0 1 522.09 0)" xlink:href="#a"/><linearGradient id="bx" x1="493.23" y1="228.98" x2="469.44" y2="228.98" gradientTransform="matrix(-1 0 0 1 522.09 0)" xlink:href="#a"/><linearGradient id="by" x1="493.23" y1="236.23" x2="469.44" y2="236.23" gradientTransform="matrix(-1 0 0 1 522.09 0)" xlink:href="#a"/><linearGradient id="bz" x1="493.23" y1="243.47" x2="469.44" y2="243.47" gradientTransform="matrix(-1 0 0 1 522.09 0)" xlink:href="#a"/><linearGradient id="bA" x1="493.23" y1="250.71" x2="469.44" y2="250.71" gradientTransform="matrix(-1 0 0 1 522.09 0)" xlink:href="#a"/><linearGradient id="bB" x1="497.62" y1="257.96" x2="464.86" y2="257.96" gradientTransform="matrix(-1 0 0 1 522.09 0)" xlink:href="#a"/><clipPath id="bC"><path transform="rotate(-180 40.885 298.3)" fill="none" d="M32.2 112.37h17.37v371.86H32.2z"/></clipPath><linearGradient id="bD" x1="461.18" y1="486.08" x2="501.97" y2="486.08" gradientTransform="matrix(1 0 0 -1 -441.06 972.17)" xlink:href="#c"/><linearGradient id="d" x1="135.25" y1="376.47" x2="158.53" y2="376.47" gradientUnits="userSpaceOnUse"><stop offset="0" stop-color="#5b413f"/><stop offset=".25" stop-color="#543734"/><stop offset=".51" stop-color="#523430"/><stop offset=".87" stop-color="#4d312d"/><stop offset="1" stop-color="#4a2f2b"/></linearGradient><linearGradient id="bE" x1="176.05" y1="376.47" x2="199.33" y2="376.47" xlink:href="#d"/><clipPath id="bF"><path d="M133.7 408.31l-.21-.85v-5.78l.05-1c.17-2.69.47-5.42.86-8.15s.85-5.48 1.37-8.21 1.1-5.45 1.73-8.16 1.31-5.42 2-8.11 1.5-5.35 2.32-8 1.68-5.28 2.59-7.89 1.88-5.17 2.89-7.71l-15.56-5.07q-1.19 4.32-2.19 8.64t-1.84 8.66q-.83 4.33-1.51 8.69c-.46 2.91-.85 5.82-1.2 8.73s-.65 5.84-.89 8.78-.41 5.88-.5 8.85-.1 6 .05 9l.06 1.15.09 1.16c0 .39.06.77.1 1.17l.13 1.19v.6l.09.6c.06.4.11.8.2 1.23l.12.63.06.31v.32l.33 1.31z" fill="none"/></clipPath><clipPath id="bG"><path d="M200.26 406.82l.18-.81v-.91c0-.3 0-.62.05-.94v-3.94l-.05-1c-.17-2.69-.47-5.43-.85-8.16s-.86-5.47-1.38-8.2-1.1-5.46-1.73-8.17-1.31-5.42-2-8.1-1.5-5.36-2.32-8-1.68-5.28-2.59-7.88-1.88-5.18-2.89-7.71l15.56-5.08q1.19 4.32 2.2 8.64c.66 2.89 1.27 5.77 1.83 8.67s1.05 5.79 1.51 8.69.85 5.81 1.21 8.72.64 5.84.88 8.78.41 5.89.5 8.86.1 6-.05 9l-.06 1.15c0 .38-.06.77-.09 1.16s-.06.77-.1 1.17l-.13 1.18v.6l-.09.6c-.06.41-.11.81-.2 1.23l-.12.63-.06.31v.32L209 409z" fill="none"/></clipPath></defs><g style="isolation:isolate"><path fill="#a2a2a2" d="M98.24 519.65H85.33l-2.66-55.58h18.23l-2.66 55.58z"/><path fill="#bdbdbd" d="M82.67 448.64h18.24v7.71H82.67z"/><path fill="#696969" d="M82.67 456.36h18.24v7.71H82.67z"/><path fill="#a2a2a2" d="M250.9 519.65H238l-2.68-55.58h18.24l-2.66 55.58z"/><path fill="#bdbdbd" d="M235.32 448.64h18.24v7.71h-18.24z"/><path fill="#696969" d="M235.32 456.36h18.24v7.71h-18.24z"/><path fill="#9e6741" d="M71 439.51h194v12.99H71z"/><rect x="14.65" y="125.24" width="308.13" height="9.26" rx="2.8" ry="2.8" fill="#8e8e8e"/><path d="M322.73 129.32h-308v-2.06a2.37 2.37 0 0 1 2.59-2h303a2.28 2.28 0 0 1 2.51 2s-.16 2.02-.1 2.06z" fill="#a8a8a8"/><path d="M212.15 100.37v.32a2.14 2.14 0 0 1-1.17 1l-.38.08v-.09l.24-.16v-.06c-2.55-6.55-71.5-5-82.21-1.06-1.67.69-1.61 1-1.84 1.39l-.39-.08a1.66 1.66 0 0 1-.84-.81v-.16c.24-1.22 3.23-1.89 4.37-2.17 21.58-4.7 66.51-2.21 76.11-.48 1.89.34 5.52 1.04 6.11 2.28z" fill="#e26d6d"/><path d="M210.87 101.44v.06c-.1.36-1.77.89-2.14 1a38.89 38.89 0 0 1-5.63 1.11c-28.22 4.14-71.94 1.48-76.12-1.62l-.16-.18c.87-4.83 52.68-6.34 74.28-3.51 5.61.7 9.27 1.7 9.77 3.14z" fill="#a81a16"/><g clip-path="url(#e)" fill="#a81a16"><path d="M183.44 95.2v19.59l35.5-12.55S192 91.71 183.44 95.2zm-35.88 14.36l-1-16.3S123.7 95 123.5 100.63s24.06 8.93 24.06 8.93z" style="mix-blend-mode:multiply" opacity=".3"/></g><path d="M258.24 0h-24.17a42.15 42.15 0 0 0-42 42v.08h10.38a31.78 31.78 0 0 1 31.67-30.92h24.13a31.78 31.78 0 0 1 31.69 31.69v32.01h10.37V42a42.15 42.15 0 0 0-42.07-42z" fill="#d22c20"/><path fill="#d22c20" d="M192.47 42.43l-.76 5.6 2.54 2.4 6.56-.83 1.19-5.09-.61-3.77.16-.78h-8.56l-.52 2.47z"/><path d="M203.21 40h-3.08c0 .34-.06.67-.07 1h-5.72v-1h-3.08v1H190v6.88a3.72 3.72 0 0 0 3.73 3.73h6.5a3.71 3.71 0 0 0 3.77-3.77V41h-.82c-.03-.37.01-.7.03-1zm-2.32 4.56v3.33a.66.66 0 0 1-.66.66h-6.5a.69.69 0 0 1-.47-.19.66.66 0 0 1-.19-.46v-3.85h7.82z" fill="#d22c20"/><path fill="#a81a16" d="M203.15 40.99h-11.84v-.97h11.84zm97.34 28.38h-10.64v-.89h10.64z"/><path fill="#d22c20" d="M315.98 492.83h-40.83V92.76h40.83z"/><ellipse cx="295.56" cy="94.09" rx="20.46" ry="21.68" fill="#d22c20"/><path fill="#a81a16" d="M275.39 90.96l40.35-.13-.39-1.69h-39.61l-.35 1.82z"/><path transform="rotate(-180 294.94 288.95)" fill="url(#b)" d="M277.75 90.95h34.39v395.99h-34.39z"/><path fill="url(#a)" d="M278.61 329.14h33.91v1.59h-33.91z"/><path fill="url(#f)" d="M283.26 336.38h24.62v1.59h-24.62z"/><path fill="url(#g)" d="M283.26 343.62h24.62v1.59h-24.62z"/><path fill="url(#h)" d="M283.26 350.87h24.62v1.59h-24.62z"/><path fill="url(#i)" d="M283.26 358.11h24.62v1.59h-24.62z"/><path fill="url(#j)" d="M278.61 365.35h33.91v1.59h-33.91z"/><path fill="url(#k)" d="M283.41 372.6h24.62v1.59h-24.62z"/><path fill="url(#l)" d="M283.41 379.84h24.62v1.59h-24.62z"/><path fill="url(#m)" d="M283.41 387.08h24.62v1.59h-24.62z"/><path fill="url(#n)" d="M283.41 394.33h24.62v1.59h-24.62z"/><path fill="url(#o)" d="M278.77 401.57h33.91v1.59h-33.91z"/><path fill="url(#p)" d="M283.26 408.81h24.62v1.59h-24.62z"/><path fill="url(#q)" d="M283.26 416.06h24.62v1.59h-24.62z"/><path fill="url(#r)" d="M283.26 423.3h24.62v1.59h-24.62z"/><path fill="url(#s)" d="M283.26 430.54h24.62v1.59h-24.62z"/><path fill="url(#t)" d="M278.61 437.79h33.91v1.59h-33.91z"/><path fill="url(#u)" d="M283.26 445.03h24.62v1.59h-24.62z"/><path fill="url(#v)" d="M283.26 452.28h24.62v1.59h-24.62z"/><path fill="url(#w)" d="M283.26 459.52h24.62v1.59h-24.62z"/><path fill="url(#x)" d="M283.26 466.76h24.62v1.59h-24.62z"/><path fill="url(#y)" d="M278.61 474.01h33.91v1.59h-33.91z"/><path fill="url(#z)" d="M278.61 220.71h33.91v1.59h-33.91z"/><path fill="url(#A)" d="M283.26 227.96h24.62v1.59h-24.62z"/><path fill="url(#B)" d="M283.26 235.2h24.62v1.59h-24.62z"/><path fill="url(#C)" d="M283.26 242.44h24.62v1.59h-24.62z"/><path fill="url(#D)" d="M283.26 249.69h24.62v1.59h-24.62z"/><path fill="url(#E)" d="M278.61 256.93h33.91v1.59h-33.91z"/><path fill="url(#F)" d="M283.41 264.17h24.62v1.59h-24.62z"/><path fill="url(#G)" d="M283.41 271.42h24.62v1.59h-24.62z"/><path fill="url(#H)" d="M283.41 278.66h24.62v1.59h-24.62z"/><path fill="url(#I)" d="M283.41 285.9h24.62v1.59h-24.62z"/><path fill="url(#J)" d="M278.77 293.15h33.91v1.59h-33.91z"/><path fill="url(#K)" d="M283.26 300.39h24.62v1.59h-24.62z"/><path fill="url(#L)" d="M283.26 307.64h24.62v1.59h-24.62z"/><path fill="url(#M)" d="M283.26 314.88h24.62v1.59h-24.62z"/><path fill="url(#N)" d="M283.26 322.12h24.62v1.59h-24.62z"/><path fill="url(#O)" d="M278.61 329.37h33.91v1.59h-33.91z"/><path fill="url(#P)" d="M283.26 336.61h24.62v1.59h-24.62z"/><path fill="url(#Q)" d="M283.26 343.85h24.62v1.59h-24.62z"/><path fill="url(#R)" d="M283.26 351.1h24.62v1.59h-24.62z"/><path fill="url(#S)" d="M283.26 358.34h24.62v1.59h-24.62z"/><path fill="url(#T)" d="M278.61 365.58h33.91v1.59h-33.91z"/><path fill="url(#U)" d="M278.61 112.29h33.91v1.59h-33.91z"/><path fill="url(#V)" d="M283.26 119.53h24.62v1.59h-24.62z"/><path fill="url(#W)" d="M283.26 126.78h24.62v1.59h-24.62z"/><path fill="url(#X)" d="M283.26 134.02h24.62v1.59h-24.62z"/><path fill="url(#Y)" d="M283.26 141.26h24.62v1.59h-24.62z"/><path fill="url(#Z)" d="M278.61 148.51h33.91v1.59h-33.91z"/><path fill="url(#aa)" d="M283.41 155.75h24.62v1.59h-24.62z"/><path fill="url(#ab)" d="M283.41 163h24.62v1.59h-24.62z"/><path fill="url(#ac)" d="M283.41 170.24h24.62v1.59h-24.62z"/><path fill="url(#ad)" d="M283.41 177.48h24.62v1.59h-24.62z"/><path fill="url(#ae)" d="M278.77 184.73h33.91v1.59h-33.91z"/><path fill="url(#af)" d="M283.26 191.97h24.62v1.59h-24.62z"/><path fill="url(#ag)" d="M283.26 199.21h24.62v1.59h-24.62z"/><path fill="url(#ah)" d="M283.26 206.46h24.62v1.59h-24.62z"/><path fill="url(#ai)" d="M283.26 213.7h24.62v1.59h-24.62z"/><path fill="url(#aj)" d="M278.61 220.94h33.91v1.59h-33.91z"/><path fill="url(#ak)" d="M283.26 228.19h24.62v1.59h-24.62z"/><path fill="url(#al)" d="M283.26 235.43h24.62v1.59h-24.62z"/><path fill="url(#am)" d="M283.26 242.67h24.62v1.59h-24.62z"/><path fill="url(#an)" d="M283.26 249.92h24.62v1.59h-24.62z"/><path fill="url(#ao)" d="M278.61 257.16h33.91v1.59h-33.91z"/><path d="M303.89 484.22V107.58c0-5.46-3.79-9.92-8.42-9.92h-.56c-4.63 0-8.41 4.46-8.41 9.92v376.64z" fill="#9be0ff"/><g clip-path="url(#ap)"><path fill="#fff" d="M286.45 149.99h17.57V520.4h-17.57z"/><path d="M291.89 523.75V152.38h6.22v371.37h-6.24.02z" fill="#8e8e8e"/><path d="M294.63 152.38v371.26h-1.39c-.76 0-1.38-1.4-1.38-3.12V152.38zm-8.12-2.88h17.39v2.07h-17.39z" fill="#a8a8a8"/><path fill="#8e8e8e" d="M286.5 151.54h17.38v2.07H286.5z"/></g><path fill="#d22c20" d="M319.29 498.85h-47.36v-11.37h47.36z"/><path d="M259.3 519.5c.71-15.38 16.73-27.67 36.4-27.67s35.69 12.29 36.41 27.67z" fill="#d22c20"/><path fill="#a81a16" d="M318.76 498.66h-46.57v-3.19h46.57z"/><path fill="url(#c)" d="M275.18 484.33h40.79v3.5h-40.79z"/><path d="M77.85 0H102a42.15 42.15 0 0 1 42 42v.08h-10.32A31.79 31.79 0 0 0 102 11.19H77.87a31.79 31.79 0 0 0-31.69 31.69v31.98H35.83V42A42.15 42.15 0 0 1 77.85 0z" fill="#d22c20"/><path fill="#d22c20" d="M143.62 42.43l.76 5.6-2.53 2.4-6.57-.83-1.18-5.09.6-3.77-.16-.78h8.57l.51 2.47z"/><path d="M133 41h-.82v6.87a3.72 3.72 0 0 0 2.82 3.61 3.63 3.63 0 0 0 .87.1h6.5a3.74 3.74 0 0 0 3.74-3.73V41h-1.28c0-.34 0-.68-.05-1h-3.08c0 .34 0 .68.05 1H136c0-.34 0-.67-.07-1h-3.09c.07.3.16.63.16 1zm2.25 3.08H143v3.81a.66.66 0 0 1-.19.46.67.67 0 0 1-.47.19h-6.5a.65.65 0 0 1-.65-.66v-3.8z" fill="#d22c20"/><path fill="#a81a16" d="M132.95 40.02h11.84v.97h-11.84zM35.61 68.47h10.64v.89H35.61z"/><path fill="#d22c20" d="M20.11 92.76h40.83v400.07H20.11z"/><ellipse cx="40.53" cy="94.09" rx="20.46" ry="21.68" fill="#d22c20"/><path fill="#a81a16" d="M60.71 90.96l-40.36-.13.4-1.69h39.6l.36 1.82z"/><path fill="url(#aq)" d="M23.96 90.95h34.39v395.99H23.96z"/><path fill="url(#ar)" d="M23.58 329.14h33.91v1.59H23.58z"/><path fill="url(#as)" d="M28.22 336.38h24.62v1.59H28.22z"/><path fill="url(#at)" d="M28.22 343.62h24.62v1.59H28.22z"/><path fill="url(#au)" d="M28.22 350.87h24.62v1.59H28.22z"/><path fill="url(#av)" d="M28.22 358.11h24.62v1.59H28.22z"/><path fill="url(#aw)" d="M23.58 365.35h33.91v1.59H23.58z"/><path fill="url(#ax)" d="M28.07 372.6h24.62v1.59H28.07z"/><path fill="url(#ay)" d="M28.07 379.84h24.62v1.59H28.07z"/><path fill="url(#az)" d="M28.07 387.08h24.62v1.59H28.07z"/><path fill="url(#aA)" d="M28.07 394.33h24.62v1.59H28.07z"/><path fill="url(#aB)" d="M23.42 401.57h33.91v1.59H23.42z"/><path fill="url(#aC)" d="M28.22 408.81h24.62v1.59H28.22z"/><path fill="url(#aD)" d="M28.22 416.06h24.62v1.59H28.22z"/><path fill="url(#aE)" d="M28.22 423.3h24.62v1.59H28.22z"/><path fill="url(#aF)" d="M28.22 430.54h24.62v1.59H28.22z"/><path fill="url(#aG)" d="M23.58 437.79h33.91v1.59H23.58z"/><path fill="url(#aH)" d="M28.22 445.03h24.62v1.59H28.22z"/><path fill="url(#aI)" d="M28.22 452.28h24.62v1.59H28.22z"/><path fill="url(#aJ)" d="M28.22 459.52h24.62v1.59H28.22z"/><path fill="url(#aK)" d="M28.22 466.76h24.62v1.59H28.22z"/><path fill="url(#aL)" d="M23.58 474.01h33.91v1.59H23.58z"/><path fill="url(#aM)" d="M23.58 220.71h33.91v1.59H23.58z"/><path fill="url(#aN)" d="M28.22 227.96h24.62v1.59H28.22z"/><path fill="url(#aO)" d="M28.22 235.2h24.62v1.59H28.22z"/><path fill="url(#aP)" d="M28.22 242.44h24.62v1.59H28.22z"/><path fill="url(#aQ)" d="M28.22 249.69h24.62v1.59H28.22z"/><path fill="url(#aR)" d="M23.58 256.93h33.91v1.59H23.58z"/><path fill="url(#aS)" d="M28.07 264.17h24.62v1.59H28.07z"/><path fill="url(#aT)" d="M28.07 271.42h24.62v1.59H28.07z"/><path fill="url(#aU)" d="M28.07 278.66h24.62v1.59H28.07z"/><path fill="url(#aV)" d="M28.07 285.9h24.62v1.59H28.07z"/><path fill="url(#aW)" d="M23.42 293.15h33.91v1.59H23.42z"/><path fill="url(#aX)" d="M28.22 300.39h24.62v1.59H28.22z"/><path fill="url(#aY)" d="M28.22 307.64h24.62v1.59H28.22z"/><path fill="url(#aZ)" d="M28.22 314.88h24.62v1.59H28.22z"/><path fill="url(#ba)" d="M28.22 322.12h24.62v1.59H28.22z"/><path fill="url(#bb)" d="M23.58 329.37h33.91v1.59H23.58z"/><path fill="url(#bc)" d="M28.22 336.61h24.62v1.59H28.22z"/><path fill="url(#bd)" d="M28.22 343.85h24.62v1.59H28.22z"/><path fill="url(#be)" d="M28.22 351.1h24.62v1.59H28.22z"/><path fill="url(#bf)" d="M28.22 358.34h24.62v1.59H28.22z"/><path fill="url(#bg)" d="M23.58 365.58h33.91v1.59H23.58z"/><path fill="url(#bh)" d="M23.58 112.29h33.91v1.59H23.58z"/><path fill="url(#bi)" d="M28.22 119.53h24.62v1.59H28.22z"/><path fill="url(#bj)" d="M28.22 126.78h24.62v1.59H28.22z"/><path fill="url(#bk)" d="M28.22 134.02h24.62v1.59H28.22z"/><path fill="url(#bl)" d="M28.22 141.26h24.62v1.59H28.22z"/><path fill="url(#bm)" d="M23.58 148.51h33.91v1.59H23.58z"/><path fill="url(#bn)" d="M28.07 155.75h24.62v1.59H28.07z"/><path fill="url(#bo)" d="M28.07 163h24.62v1.59H28.07z"/><path fill="url(#bp)" d="M28.07 170.24h24.62v1.59H28.07z"/><path fill="url(#bq)" d="M28.07 177.48h24.62v1.59H28.07z"/><path fill="url(#br)" d="M23.42 184.73h33.91v1.59H23.42z"/><path fill="url(#bs)" d="M28.22 191.97h24.62v1.59H28.22z"/><path fill="url(#bt)" d="M28.22 199.21h24.62v1.59H28.22z"/><path fill="url(#bu)" d="M28.22 206.46h24.62v1.59H28.22z"/><path fill="url(#bv)" d="M28.22 213.7h24.62v1.59H28.22z"/><path fill="url(#bw)" d="M23.58 220.94h33.91v1.59H23.58z"/><path fill="url(#bx)" d="M28.22 228.19h24.62v1.59H28.22z"/><path fill="url(#by)" d="M28.22 235.43h24.62v1.59H28.22z"/><path fill="url(#bz)" d="M28.22 242.67h24.62v1.59H28.22z"/><path fill="url(#bA)" d="M28.22 249.92h24.62v1.59H28.22z"/><path fill="url(#bB)" d="M23.58 257.16h33.91v1.59H23.58z"/><path d="M32.2 484.22V107.58c0-5.46 3.79-9.92 8.42-9.92h.56c4.63 0 8.42 4.46 8.42 9.92v376.64z" fill="#9be0ff"/><g clip-path="url(#bC)"><path fill="#fff" d="M49.64 519.4H32.07V148.99h17.57z"/><path d="M37.97 522.75V151.37h6.22v371.38h-6.24.02z" fill="#8e8e8e"/><path d="M41.46 151.38v371.26h1.39c.77 0 1.39-1.4 1.39-3.12V151.38zm8.13-.81H32.2v-2.07h17.39z" fill="#a8a8a8"/><path fill="#8e8e8e" d="M49.59 152.62H32.21v-2.07h17.38z"/></g><path fill="#d22c20" d="M16.8 487.48h47.36v11.37H16.8z"/><path d="M76.79 519.5c-.71-15.38-16.73-27.67-36.4-27.67S4.7 504.12 4 519.5z" fill="#d22c20"/><path fill="#a81a16" d="M17.33 495.46H63.9v3.19H17.33z"/><path transform="rotate(-180 40.52 486.085)" fill="url(#bD)" d="M20.12 484.33h40.79v3.5H20.12z"/><path fill="none" d="M0 474.17h112.67v374H0z"/><path d="M190 340.82s-9.19 4.36-25.74 3.84-23.26-4.53-23.26-4.53c1.81-2.06 12.65-6.54 16.29-8l1.18-.46c.51-.17 1.83-12.71 1.83-12.71h12.2l1.32 12.87c.39.14.79.3 1.18.46a77.9 77.9 0 0 1 15 8.53z" fill="#925930"/><path d="M173 323c-4 1.71-9.71 3.45-13.71 5.23.54-3.77 1.13-9.3 1.13-9.3h12.17z" fill="#7c4825"/><path d="M145.89 287.23c-.84 5.59.89 21.39 6.23 27.33s10.91 8 14.63 8.14 12.21-4.8 16.4-11.81c5.07-8.46 4.62-24.55 3.58-30.78s-11.59-12-21.69-10.4-17.04 3.56-19.15 17.52z" fill="#925930"/><path d="M185.27 298.49a3.46 3.46 0 0 1 1.81-1.36 2.56 2.56 0 0 1 2.2.33 3 3 0 0 1 1.08 2.59 8.34 8.34 0 0 1-.81 2.8 8.55 8.55 0 0 1-2.38 3.57 3.14 3.14 0 0 1-4 0zm-38.08 0a3.47 3.47 0 0 0-1.8-1.36 2.55 2.55 0 0 0-2.2.33 3 3 0 0 0-1.08 2.59 7.91 7.91 0 0 0 .81 2.8 8.36 8.36 0 0 0 2.38 3.57 3.12 3.12 0 0 0 4 0z" fill="#925930"/><path d="M169.44 304.1c-1-.54-3.4-.49-5.24-.18a1.8 1.8 0 0 0-.69.22c-.19.13-.12.37 0 .57a7 7 0 0 0 2.11 1.49 2.49 2.49 0 0 0 1 .29 2.42 2.42 0 0 0 1.37-.59c.59-.49 1.85-1.2 1.45-1.8z" fill="#7c4825"/><path d="M148.09 269.36s13.57-9.44 28.91-8.86 14.47 8.54 14.38 9.73c-.38 5.4-3.82 23.24-5 30.68l-2.59-21.66s-22 2-32.73-2.63c0 0 1.6 5.85 1.16 5.85a21.2 21.2 0 0 1-3.26-2l-2.22 20.4s-5.06-22.91-4.27-27.21 3.53-5.5 5.62-4.3z" fill="#3d2718"/><path d="M157.37 280.67a22.49 22.49 0 0 0-8 5 24.81 24.81 0 0 1 3.14 3.26 29.06 29.06 0 0 1 7.71-4.8l-1.55-3.77-.57 1zm17.3-.01a22.48 22.48 0 0 1 8 5 24.8 24.8 0 0 0-3.16 3.24 29.38 29.38 0 0 0-7.69-4.82l1.56-3.76.57 1z" fill="#2e1c10"/><path d="M145.07 293l2.43 26s7.34 6.43 9.73 6.53 18.66.82 21.23 0 7.26-5.61 7.26-6.07 2.28-27.98 2.28-27.98l-3-1.78s.89 15.94-1.22 16.38-34.82 2-35.28-.4-.86-13.33-.86-13.33z" fill="#3d2718"/><path d="M157.74 293.34c2.13.47 3.19 1.44 2.85 4.9a3.35 3.35 0 0 1-.57 1.83 6.49 6.49 0 0 1-1.61 1c-1.39.71-3.36 1.54-4.81.7a5.69 5.69 0 0 1-1.95-6.35c.78-1.46 2.56-2 4.16-2.4z" fill="#fff"/><path d="M155 299a2.12 2.12 0 0 1-.11-2.28 1.68 1.68 0 0 1 .64-.63 1.14 1.14 0 0 1 .9-.08 1.44 1.44 0 0 1 .81 1.13 2.14 2.14 0 0 1-.56 2.11 1.18 1.18 0 0 1-.92.28 1.26 1.26 0 0 1-.76-.53z" fill="#4c0c0a"/><path d="M151 297.32a5.1 5.1 0 0 1 3.33-3.58 5.69 5.69 0 0 1 4.14 0 4.39 4.39 0 0 1 2.23 2.55c.16.41.61.35.67.1a5 5 0 0 0-4-4.3 6.2 6.2 0 0 0-6.41 2.74 3.93 3.93 0 0 0-.65 1.92c.04.69.59.95.69.57z" fill="#7c4825"/><path d="M174.54 293.34c-2.13.47-3.19 1.44-2.86 4.9a3.45 3.45 0 0 0 .58 1.83 6.31 6.31 0 0 0 1.61 1c1.39.71 3.36 1.54 4.8.7a5.68 5.68 0 0 0 2-6.35c-.78-1.46-2.56-2-4.17-2.4z" fill="#fff"/><path d="M177.24 299a2.08 2.08 0 0 0 .1-2.25 1.57 1.57 0 0 0-.63-.62 1.11 1.11 0 0 0-.89-.08 1.42 1.42 0 0 0-.8 1.11 2.11 2.11 0 0 0 .56 2.09 1.13 1.13 0 0 0 .91.28 1.22 1.22 0 0 0 .75-.53z" fill="#4c0c0a"/><path d="M181.28 297.32a5.12 5.12 0 0 0-3.34-3.58 5.66 5.66 0 0 0-4.13 0 4.44 4.44 0 0 0-2.24 2.55c-.16.41-.6.35-.66.1a5 5 0 0 1 4-4.3 6.2 6.2 0 0 1 6.42 2.74 3.81 3.81 0 0 1 .64 1.92c-.04.69-.6.95-.69.57z" fill="#7c4825"/><path d="M172.09 317.76c-1.15.86-3 1.4-5.86 1.4-3.24 0-5.12-.67-6.22-1.73-.68-.67-.66-2.27-.48-3.93.23-2.2.65-3.26 1.22-3.89a2.74 2.74 0 0 1 .68-.55 2.54 2.54 0 0 1 1-.36c1.45-.2 1.85.27 3.83.27s2.38-.47 3.83-.27a2.77 2.77 0 0 1 .74.23 2.37 2.37 0 0 1 .83.67 7.71 7.71 0 0 1 1.17 3.85c.17 1.86.3 3.55-.74 4.31z" fill="#4c0c0a"/><path d="M161.43 317.63a5.83 5.83 0 0 1 3.79-1.88 7.47 7.47 0 0 1 4.51.85c.54.31 1 .77.88 1.24a35.06 35.06 0 0 1-8.57.42c-.29 0-.64-.08-.73-.27s.03-.25.12-.36z" fill="#af3f3f"/><path d="M171.63 309.6a.78.78 0 0 1-.25.22 3.92 3.92 0 0 1-1.47.56 29.12 29.12 0 0 1-6.52.1 6 6 0 0 1-2.42-.7 1.28 1.28 0 0 1-.22-.17 2.94 2.94 0 0 1 .46-.41l.13-.08.09-.06h.08a2.42 2.42 0 0 1 .85-.3c1.45-.2 1.85.27 3.83.27s2.38-.47 3.83-.27a2.77 2.77 0 0 1 .74.23l.11.06a.82.82 0 0 1 .2.12 2.21 2.21 0 0 1 .56.43zm.46 8.16c-1.11.9-3 1.4-5.86 1.4-3.24 0-5.18-.63-6.22-1.73a3.92 3.92 0 0 1 .32-.25l.18-.1a1.46 1.46 0 0 1 .43-.15 3.63 3.63 0 0 1 1.62.2 17.68 17.68 0 0 0 7.66-.05 2 2 0 0 1 1.32 0 1 1 0 0 1 .2.14l.13.15c.13.14.13.27.22.39z" fill="#fff"/><path fill="#473c35" d="M141.96 495.69l-.07 7.83h8.7l.29-8.35-8.92.52z"/><path d="M151.32 503.52c0-2.13-.19-4-.51-2.72s-1.5 1.32-2.11 1.25a17.38 17.38 0 0 0-3.43-.31c-.49 0-2.2.77-2.81.57s-1.36-1.1-1.65-.9c-1.09.73-8.77 10.08-8.77 10.08l-.19.24.53 2.94.49 2.71a7.44 7.44 0 0 0 1 .19l4.67-.7 2.71-1.48 10.07-5.48v-6.4z" fill="#6b391d"/><path d="M131.67 515.58v.33a.73.73 0 0 1 0-.31z" fill="#e2e2de"/><path d="M141.45 501.53s.41-.62.82-.57l3.66.41a.6.6 0 0 1 .3 1l-7.88 8.34a13.25 13.25 0 0 1-4.26 0z" fill="#7c4124"/><path d="M141.6 514.65a1.15 1.15 0 0 1-.35.75c-.76.85-2.52 1.62-3.15 2.26h-3.23l-1-.08a7.44 7.44 0 0 1-1-.19 3.78 3.78 0 0 1-1.31-.56l-.16-.27a4.19 4.19 0 0 1-.48-1.88 5.11 5.11 0 0 1 .17-1.31 4.55 4.55 0 0 1 .76-1.6l.19-.24a4.81 4.81 0 0 1 3-1.57 6.53 6.53 0 0 1 1-.08 6.31 6.31 0 0 1 2.55.51 4.74 4.74 0 0 1 3 3.8c0 .13.01.29.01.46z" fill="#512915"/><path d="M146.54 511.67a14.2 14.2 0 0 1-5 2.48 14.49 14.49 0 0 1-3.89.53h-2c-3.14 0-4.23-.74-4.59-1.34a5.11 5.11 0 0 0-.17 1.31v1.22a1.29 1.29 0 0 0 .36.68 1.74 1.74 0 0 0 .28.24 3.78 3.78 0 0 0 1.31.56 7.44 7.44 0 0 0 1 .19l1.16.08c1.09.05 2.2.06 2.2.06a15.8 15.8 0 0 0 9.67-3.29l3.5-2.72a2.35 2.35 0 0 0 .92-1.79v-2z" fill="#7c4124"/><path fill="#473c35" d="M190.74 496.67l-.25 7.83-8.7-.36.06-8.36 8.89.89z"/><path d="M181 504.32c0-2.13.18-4 .51-2.72s1.49 1.33 2.1 1.26a17.51 17.51 0 0 1 3.44-.32c.48 0 2.2.77 2.81.58s1.35-1.11 1.65-.91c1.09.74 8.76 10.09 8.76 10.09l.19.24-.53 3-.48 2.71a9.38 9.38 0 0 1-1 .18l-4.66-.7-2.71-1.48-10.08-5.53v-6.39z" fill="#6b391d"/><path d="M200.67 516.37v.33a1 1 0 0 0 0-.31z" fill="#e2e2de"/><path d="M190.89 502.33s-.41-.62-.82-.58l-3.66.42a.59.59 0 0 0-.3 1l7.88 8.35a13.54 13.54 0 0 0 4.26 0z" fill="#7c4124"/><path d="M190.73 515.44a1.15 1.15 0 0 0 .36.75c.75.85 2.51 1.62 3.14 2.26h3.24a10.55 10.55 0 0 0 2-.26 3.81 3.81 0 0 0 1.3-.56c.06-.09.11-.18.16-.27a4 4 0 0 0 .48-1.88 5.17 5.17 0 0 0-.16-1.31 4.48 4.48 0 0 0-.77-1.6l-.19-.24a4.8 4.8 0 0 0-3-1.58 6.36 6.36 0 0 0-1-.07 6.48 6.48 0 0 0-2.55.5 4.78 4.78 0 0 0-3 3.81 4 4 0 0 0-.01.45z" fill="#512915"/><path d="M185.8 512.46a14.44 14.44 0 0 0 8.85 3h2c3.14 0 4.23-.74 4.6-1.34a5.17 5.17 0 0 1 .16 1.31v1.21a1.3 1.3 0 0 1-.35.68 1.87 1.87 0 0 1-.29.25 3.81 3.81 0 0 1-1.3.56 9.38 9.38 0 0 1-1 .18c-.34 0-.75.06-1.16.08-1.09.06-2.19.06-2.19.06a15.81 15.81 0 0 1-9.68-3.29l-3.49-2.71a2.35 2.35 0 0 1-.92-1.79v-2z" fill="#7c4124"/><path d="M166.36 415.29l.31 20.23c0 .07-.14 5.76-.2 5.76-6.25.16-17.71 0-26.35-1.76a84.66 84.66 0 0 0 1.49 13.61c1.36 6.13 10.27 44.79 10.27 44.79 0 .41-.59.54-1.47.81a8.37 8.37 0 0 1-1.09.32 14 14 0 0 1-2.56.08c-.83 0-1.78.05-2.48 0a25.12 25.12 0 0 1-3.28-.32s-28.5-64.06-22.55-72.68c4-5.76 12.32-6.56 19.27-5.37.58.1-.48-5.49-.48-5.49h29.17z" fill="#ab7348"/><path d="M166.54 432.37l-.13 9a145.84 145.84 0 0 1-26.36-1.88s-.1 7.75 1.39 13.11 10.44 45.35 10.44 45.35c0 .41-.61.54-1.49.81-3.41-13.64-17.64-56.31-17.24-61.06.52-5.57 33.39-5.33 33.39-5.33z" fill="#9e6946"/><path d="M166.38 415.29v20.28s-.06 5.68 0 5.68c1.89-.15 6.26.39 25.73-1.79a16.61 16.61 0 0 1-.2 10.79c-2.12 5.83-11 47.67-11 47.67 0 .41.54.79 1.42 1.06a8.06 8.06 0 0 0 1 .26 15.56 15.56 0 0 0 5 .06c1.66-.26 3.25-.45 3.25-.47l.43-1.27s28.27-62.79 22.32-71.41c-4-5.76-12.31-6.56-19.26-5.37-.58.1.48-5.49.48-5.49h-29.17z" fill="#ab7348"/><path d="M166.5 432.29l-.27 9c8.64-.09 4.21-.49 26.46-1.88 0 0 .1 7.75-1.39 13.11s-10.43 45.35-10.43 45.35c0 .41.54.79 1.42 1.06 3.41-13.63 17.71-56.56 17.31-61.31-.53-5.49-33.1-5.33-33.1-5.33z" fill="#9e6946"/><path d="M178.63 330.07v3.24a15.08 15.08 0 0 1-.23 1.82 14.41 14.41 0 0 1-.62 2.26c-.06.14-.11.28-.16.42s0 .07-.05.1l-.12.3-.06.13-.12.28-.06.12c-.06.12-.12.25-.19.37l-.16.31-.15.27-.13.22-.1.17-.13.21-.15.23-.35.52-.13.18-.13.17c-.09.13-.19.25-.29.37l-.12.16c-.35.43-.71.83-1.08 1.22l-.22.23-.17.17c-.29.28-.58.55-.87.8l-.25.22a23 23 0 0 1-2 1.5l-.23.16c-.64.43-1.24.79-1.79 1.1l-.3.16-.29.15-.18.1c-.49.25-.91.44-1.22.58l-.37.16h-.06l-.13.05h-.14l-.43-.18-.23-.1h-.07c-.46-.21-1.07-.51-1.78-.91l-.33-.19c-.37-.22-.77-.46-1.17-.73a26.86 26.86 0 0 1-2.35-1.75l-.22-.18c-.38-.33-.76-.68-1.13-1.06-.11-.1-.21-.22-.32-.33l-.15-.15c-.37-.4-.72-.81-1.06-1.25l-.21-.27-.14-.18-.28-.41-.16-.23-.13-.2-.16-.26-.15-.24-.09-.16c-.08-.14-.16-.27-.23-.41l-.12-.23-.1-.2-.09-.19c-.05-.09-.09-.18-.13-.27l-.12-.27-.05-.12-.12-.29c0-.12-.1-.25-.14-.37a13.52 13.52 0 0 1-.63-2.27 13.11 13.11 0 0 1-.23-1.82v-3.23h25.41z" fill="#925930"/><path d="M177.74 337.39c-2.89 7.9-11.81 11.22-11.81 11.22s-8.93-3.31-11.81-11.21a50.34 50.34 0 0 0 23.62 0z" fill="#925930"/><path fill="#ededed" d="M196.25 418.9l-56.41-1.19 12.32-87.81 15.55 3.31 16.36-3.31 12.18 89z"/><path d="M166.55 332.61s-3.58 43.55-3.47 44.13 2.67 3.92 3.75 4.06c.65.09 4.52-3.08 4.93-4 .78-1.72-3.77-44.2-3.77-44.2z" fill="#473c35"/><path d="M162.52 332.85s6.63-.61 9.24 0c0 0-2.95 6-4.62 6.6 0 0-4.54-3.76-4.62-6.6z" fill="#473c35"/><path d="M158.75 327.45s.84 3.39 8.88 5.17a85.66 85.66 0 0 1-7.26 8s-4.76-7.71-4.73-11.4zm8.88 5.17a84.54 84.54 0 0 0 6.61 8.41s2.83-7.38 3.88-11.64c0 0-2.84-1.82-3.8-2.27a12.09 12.09 0 0 1-6.69 5.5z" fill="#dbdbdb"/><path d="M149.4 331s9.15 17.48 18 25.44c0 0 15.83-11.66 19.17-21.75l2.5.57s1.82 76.95 1.94 85c0 0-20.35 4.48-41.57 0 0 0-3.21-84.19-3.41-87.83z" fill="#b53116"/><path d="M155.21 329.88h-8a9 9 0 0 0-8.89 8.57l-3.09 84.24a.34.34 0 0 0 .34.36h2.28c6.37 0 20.66 0 20.66-20.25z" fill="url(#d)"/><path d="M179.16 329.88h8.19a9 9 0 0 1 8.89 8.57l3.09 84.24a.34.34 0 0 1-.34.36h-2.29c-6.36 0-20.65 0-20.65-20.25z" fill="url(#bE)"/><path d="M139.93 358.87c-.1 1.69.11 11.57 1.72 14.33s9.42 1.85 10-2.38-.29-12.22-.29-12.22-7.71.02-11.43.27z" fill="#442b28"/><path fill="#69423d" d="M147.13 329.89l9.75-1.33 1.55 69.38-6.75-47.78 3.09-5.9-4.24 1.02-3.4-15.39zm40.27 0l-10.11-1.05-1.19 69.1 6.75-47.78-3.08-5.9 4.23 1.02 3.4-15.39z"/><path fill="#925930" d="M126.22 420.59l-1.01-3.61 3-5.5 5.87-1.65 2.72 9.7-10.58 1.06z"/><path d="M130.67 420.1a4.42 4.42 0 1 1 3.06-5.44 4.41 4.41 0 0 1-3.06 5.44z" fill="#925930"/><path d="M131.67 423.65a4.42 4.42 0 1 1 3.06-5.45 4.42 4.42 0 0 1-3.06 5.45z" fill="#925930"/><path d="M133.47 419.32a4.42 4.42 0 1 1 3.06-5.45 4.42 4.42 0 0 1-3.06 5.45z" fill="#925930"/><path fill="#925930" d="M124.725 409.21l8.5-2.392 2.408 8.557-8.5 2.392z"/><path d="M136.4 417.91c-1.86-2.17-2.9-4.36-2.31-4.86s2.58.86 4.44 3 2.9 4.36 2.31 4.86-2.58-.83-4.44-3z" fill="#925930"/><path d="M135.38 421.77c-1.15-4.07-1.5-7.57-.8-7.77s2.22 3 3.36 7.05 1.5 7.58.8 7.77-2.22-2.97-3.36-7.05z" fill="#925930"/><path d="M133.11 423.55c-1.19-4.24-1.58-7.86-.88-8.06s2.26 3.1 3.44 7.34l.16.56c1.19 4.23 1.58 7.86.88 8.06s-2.26-3.11-3.45-7.34z" fill="#925930"/><path d="M130.46 424c-1.14-4.08-1.5-7.57-.8-7.77s2.22 3 3.37 7.05 1.5 7.57.79 7.77-2.22-2.99-3.36-7.05z" fill="#925930"/><path d="M127.28 422.52c-1-3.6-1.26-6.71-.55-6.91s2.11 2.59 3.12 6.19 1.26 6.71.55 6.91-2.11-2.59-3.12-6.19z" fill="#925930"/><path d="M133.08 405.81c-.77.3.25 1.48.58 2.49s.66 2.27.66 2.27l-8.64 2.09-.93-3.3z" fill="#ededed"/><path d="M133.7 408.31l-.21-.85v-5.78l.05-1c.17-2.69.47-5.42.86-8.15s.85-5.48 1.37-8.21 1.1-5.45 1.73-8.16 1.31-5.42 2-8.11 1.5-5.35 2.32-8 1.68-5.28 2.59-7.89 1.88-5.17 2.89-7.71l-15.56-5.07q-1.19 4.32-2.19 8.64t-1.84 8.66q-.83 4.33-1.51 8.69c-.46 2.91-.85 5.82-1.2 8.73s-.65 5.84-.89 8.78-.41 5.88-.5 8.85-.1 6 .05 9l.06 1.15.09 1.16c0 .39.06.77.1 1.17l.13 1.19v.6l.09.6c.06.4.11.8.2 1.23l.12.63.06.31v.32l.33 1.31z" fill="#69423d"/><path d="M142.2 334.25a7.82 7.82 0 0 0-6.26.25 8.3 8.3 0 0 0-2.55 1.95 8.41 8.41 0 0 0-2 6.27 8.47 8.47 0 0 0 .91 3.07 7.94 7.94 0 0 0 4.89 3.91 8.45 8.45 0 0 0 6.2-.66 8.34 8.34 0 0 0 2.4-1.89 7.86 7.86 0 0 0 1.88-5.76 8.18 8.18 0 0 0-.82-2.93 8.59 8.59 0 0 0-4.65-4.21z" fill="#69423d"/><g clip-path="url(#bF)"><ellipse cx="124.21" cy="383.7" rx="7.81" ry="3.97" transform="rotate(-87.2 124.21 383.701)" fill="#ab7348"/></g><path fill="#925930" d="M207.71 419.13l1.01-3.6-3-5.51-5.87-1.64-2.72 9.69 10.58 1.06z"/><path d="M203.26 418.64a4.41 4.41 0 1 0-3.06-5.44 4.4 4.4 0 0 0 3.06 5.44z" fill="#925930"/><path d="M202.26 422.19a4.42 4.42 0 1 0-3.06-5.45 4.42 4.42 0 0 0 3.06 5.45z" fill="#925930"/><path d="M200.46 417.86a4.42 4.42 0 1 0-3.06-5.45 4.42 4.42 0 0 0 3.06 5.45z" fill="#925930"/><path fill="#925930" d="M198.296 413.908l2.409-8.557 8.5 2.392-2.409 8.558z"/><path d="M197.53 416.45c1.86-2.17 2.9-4.35 2.31-4.86s-2.58.87-4.44 3-2.9 4.35-2.31 4.85 2.58-.82 4.44-2.99z" fill="#925930"/><path d="M198.55 420.32c1.15-4.08 1.5-7.58.8-7.78s-2.22 3-3.36 7.06-1.5 7.57-.8 7.77 2.22-2.98 3.36-7.05z" fill="#925930"/><path d="M200.82 422.09c1.19-4.23 1.59-7.86.88-8.06s-2.26 3.11-3.44 7.34l-.16.56c-1.19 4.24-1.58 7.87-.88 8.06s2.26-3.1 3.45-7.34z" fill="#925930"/><path d="M203.47 422.52c1.14-4.07 1.5-7.57.8-7.77s-2.22 3-3.37 7.05-1.5 7.58-.79 7.77 2.22-2.97 3.36-7.05z" fill="#925930"/><path d="M206.65 421.06c1-3.6 1.26-6.7.55-6.9s-2.11 2.58-3.12 6.18-1.26 6.71-.55 6.91 2.11-2.58 3.12-6.19z" fill="#925930"/><path d="M200.87 404.2c.77.31-.26 1.67-.59 2.68s-.65 2.09-.65 2.09l8.64 2.08.93-3.3z" fill="#ededed"/><path d="M200.26 406.82l.18-.81v-.91c0-.3 0-.62.05-.94v-3.94l-.05-1c-.17-2.69-.47-5.43-.85-8.16s-.86-5.47-1.38-8.2-1.1-5.46-1.73-8.17-1.31-5.42-2-8.1-1.5-5.36-2.32-8-1.68-5.28-2.59-7.88-1.88-5.18-2.89-7.71l15.56-5.08q1.19 4.32 2.2 8.64c.66 2.89 1.27 5.77 1.83 8.67s1.05 5.79 1.51 8.69.85 5.81 1.21 8.72.64 5.84.88 8.78.41 5.89.5 8.86.1 6-.05 9l-.06 1.15c0 .38-.06.77-.09 1.16s-.06.77-.1 1.17l-.13 1.18v.6l-.09.6c-.06.41-.11.81-.2 1.23l-.12.63-.06.31v.32L209 409z" fill="#69423d"/><path d="M191.73 332.8a7.82 7.82 0 0 1 6.26.25 8 8 0 0 1 2.55 1.95 8.46 8.46 0 0 1 1.67 2.93 8.57 8.57 0 0 1 .38 3.34 8.18 8.18 0 0 1-.91 3.06 7.91 7.91 0 0 1-4.89 3.91 8.4 8.4 0 0 1-6.2-.66 8.17 8.17 0 0 1-2.4-1.89 7.82 7.82 0 0 1-1.88-5.76 8.13 8.13 0 0 1 .82-2.92 8.55 8.55 0 0 1 4.6-4.21z" fill="#69423d"/><g clip-path="url(#bG)"><ellipse cx="210.03" cy="382.11" rx="3.97" ry="7.81" transform="translate(-17.98 10.45)" fill="#ab7348"/></g><path d="M169.67 296h-.18l-2-.62a5.08 5.08 0 0 0-2.89 0l-2 .62a.61.61 0 0 1-.77-.46.67.67 0 0 1 .43-.83l2-.61a6.1 6.1 0 0 1 3.59 0l2 .61a.69.69 0 0 1 .43.83.64.64 0 0 1-.61.46zm-21.24 2.25h-2.52a.67.67 0 0 1 0-1.34h2.35a5.33 5.33 0 0 0 .17 1.34zm35.75-1.61h2.38a.67.67 0 1 1 0 1.34h-2.43z" fill="#372b36"/><circle cx="155.61" cy="296.67" r="6.85" fill="none" stroke="#372b36" stroke-miterlimit="10"/><circle cx="176.7" cy="296.67" r="6.85" fill="none" stroke="#372b36" stroke-miterlimit="10"/></g></svg>