<svg xmlns="http://www.w3.org/2000/svg" viewBox="0 0 69.83 69.83"><path d="M46.69 29.19zm-.23.73l.09-.27zm.54-1.8c.08-.32.15-.64.21-1-.11.35-.21.68-.21 1zm-3.15 6.57a18.77 18.77 0 0 1-3.94 3.52 16.85 16.85 0 0 0 3.94-3.52zm-5.04 4.19l.19-.08z" fill="#dff4fb"/><path d="M13.31 59.44c.26-1.77.56-3.55.89-5.32a5.25 5.25 0 0 1 .86-1.85A5 5 0 0 1 16.51 51a4.69 4.69 0 0 1 1.89-.62 6.35 6.35 0 0 1 4.64-2c1.47-1.62 3.77-3 4.45-2.13a6.25 6.25 0 0 1 3.71-1.72c0-.27.08-.56.12-.88.16-1.33.33-3 .45-4.22v.37a15.84 15.84 0 0 1-3-1.19 3.44 3.44 0 0 0-2-.35 7.82 7.82 0 0 1-5-1.11 2.21 2.21 0 0 0-1.2-.32 6 6 0 0 1-4.81-2.31 2.08 2.08 0 0 0-1-.7A4.46 4.46 0 0 1 12 30.29a2.27 2.27 0 0 0-.67-1.29 3.2 3.2 0 0 1-1-2.14 2.25 2.25 0 0 0-.55-1.34 3.26 3.26 0 0 1 1.22-5.2 2.26 2.26 0 0 0 1.12-1 3.18 3.18 0 0 1 .46-.63 1.15 1.15 0 0 0 .26-.47 3.24 3.24 0 0 1 2.65-2.42.72.72 0 0 0 .61-.7 3.27 3.27 0 0 1 3.27-3.25 1 1 0 0 0 .86-.46 4.82 4.82 0 0 1 2.89-1.85 3.92 3.92 0 0 0 2.71-1.79c.77-1.4 1.62-1.36 6.51-2.82a2.86 2.86 0 0 1 2 .28 1 1 0 0 0 .71.09 3.57 3.57 0 0 1 2.72.4 1 1 0 0 0 .81.1 3.54 3.54 0 0 1 2.76.28 3.56 3.56 0 0 0 1.78.41 3.12 3.12 0 0 1 2.67 1.3 3.47 3.47 0 0 0 1.06 1 3.89 3.89 0 0 1 .8.6 3.38 3.38 0 0 0 1.55.87 3.84 3.84 0 0 1 2.8 2.65 3.45 3.45 0 0 0 1.81 2.16 3.87 3.87 0 0 1 1.93 2.16 3.43 3.43 0 0 0 .89 1.36 3.19 3.19 0 0 1 1 2.43 3.39 3.39 0 0 0 .34 1.6 4.49 4.49 0 0 1-1.06 5.27 3.41 3.41 0 0 0-1.15 2.29 6 6 0 0 1-4.31 5.23 3.51 3.51 0 0 0-1.38.78 7.88 7.88 0 0 1-6.42 2 3.44 3.44 0 0 0-2 .36 14.65 14.65 0 0 1-3.9 1.29v-.37l.55-.3-.57.28.08.9.38 4.38h1.39l2.44 2h.27c.55-1.06 2.72.22 4.21 1.81a13 13 0 0 1 3.44 1.2 4.7 4.7 0 0 1 3 .41 4.94 4.94 0 0 1 1.53 1.2 5.13 5.13 0 0 1 1 1.79q.69 2.61 1.27 5.24c.24 1.12.45 2.24.66 3.36a34.92 34.92 0 1 0-44.4.33c.09-.87.18-1.75.31-2.63z" fill="#dff4fb"/><path d="M35.07 64.89a103.49 103.49 0 0 0 5-11.42zM27.66 46.6a.44.44 0 0 0 0 .1l2.39-1.94h1.1v-.25a6.25 6.25 0 0 0-3.71 1.72 1.06 1.06 0 0 1 .22.37zm7.04 18.77l.12.19-4.73-10.9a103.63 103.63 0 0 0 4.61 10.71z" fill="#fff"/><path d="M34.78 65.54l.15-.23h-.06z" fill="#fff"/><path d="M33.59 44.41a11 11 0 0 1 3.56.35h1l-.38-4.38Q34.5 42 31.32 43.63c0 .32-.08.61-.12.88a10.94 10.94 0 0 1 2.39-.1zm1.19 2.5z" fill="#ffceaa"/><path d="M34.78 44.76h2.37a11 11 0 0 0-3.56-.35 10.94 10.94 0 0 0-2.39.1v.25zm5.33 8.72l.06-.15z" fill="#ffceaa"/><path d="M37.64 39.48a6.65 6.65 0 0 1-2.65.69 9.77 9.77 0 0 1-3.22-.76c-.12 1.21-.29 2.89-.45 4.22q3.18-1.66 6.4-3.25z" fill="#eda672"/><path d="M42.06 23.94a3.68 3.68 0 0 0-2.63.73 3.62 3.62 0 0 0-1 1.51c-.08.26-.33.28-.39.13a3.31 3.31 0 0 1 1.9-3 3.41 3.41 0 0 1 4 .57 3.61 3.61 0 0 1 .58.89 3.2 3.2 0 0 0 .18-.52 5.91 5.91 0 0 0 .15-.84 2 2 0 0 0 0-.35h-.08c-.2-.08-.39-.15-.59-.21a10 10 0 0 0-1.18-.34c-.41-.09-.82-.15-1.24-.2s-.81-.07-1.27-.07h-.62c-.2 0-.4 0-.6.07a5.73 5.73 0 0 0-1.16.34 4.73 4.73 0 0 0-1 .61 4.19 4.19 0 0 0-.75.77v.82a1.21 1.21 0 0 0 .21.69 2.79 2.79 0 0 0 1.2 1 4.45 4.45 0 0 0 .82.3 7.7 7.7 0 0 0 .86.18 8.18 8.18 0 0 0 .89.08h.6s.06 0 0 0h.27a3.28 3.28 0 0 0 .84-.11 3.33 3.33 0 0 0 .77-.26 4 4 0 0 0 .35-.2 1.43 1.43 0 0 0 .31-.24 3.64 3.64 0 0 0 .54-.57c.08-.13.16-.25.23-.38a2.87 2.87 0 0 0-2.19-1.4zm-3.43 2.42a2.31 2.31 0 0 1 1.25-.7 2.35 2.35 0 0 1 1.43.16 6.49 6.49 0 0 0-2.68.54zm-6.45-3.08a4.73 4.73 0 0 0-1-.61 5.73 5.73 0 0 0-1.18-.34c-.2 0-.4-.06-.6-.07h-.62c-.46 0-.83 0-1.27.07s-.83.11-1.24.2a10.47 10.47 0 0 0-1.22.33c-.2.06-.39.13-.59.21h-.08v.35a5.91 5.91 0 0 0 .15.84c0 .12.08.22.12.34a2.93 2.93 0 0 1 .49-.71 3.41 3.41 0 0 1 4-.57 3.33 3.33 0 0 1 1.9 3c-.06.15-.31.13-.39-.13A3.37 3.37 0 0 0 27 23.94a2.81 2.81 0 0 0-2.09 1.33l.3.51a3.64 3.64 0 0 0 .54.57 1.28 1.28 0 0 0 .32.24 2.77 2.77 0 0 0 .34.2 4.25 4.25 0 0 0 1.61.37h.87a8.18 8.18 0 0 0 .89-.08 8.38 8.38 0 0 0 .87-.18 4.63 4.63 0 0 0 .81-.3 2.88 2.88 0 0 0 1.21-1 1.28 1.28 0 0 0 .2-.69v-.82a4.19 4.19 0 0 0-.69-.81zm-4.43 2.54a2.31 2.31 0 0 1 1.42-.16 2.27 2.27 0 0 1 1.25.7 6.44 6.44 0 0 0-2.67-.54z" fill="#ffceaa"/><path d="M45.22 19.82a3.53 3.53 0 0 1-3.08-3.51 3.81 3.81 0 0 1 0-.59 3.54 3.54 0 0 1-5.44-2.33 3.48 3.48 0 0 1-2.32.88A3.54 3.54 0 0 1 30.91 11a3 3 0 0 1-2.4 1.22 3.1 3.1 0 0 1-.62-.07A3.5 3.5 0 0 1 28 13a3.28 3.28 0 0 1-2.09 3.05A3.27 3.27 0 0 1 23.4 19a3.31 3.31 0 0 1-1.25 2.34c0 .58-.09 1.17-.08 1.76h.75v-1l.45-.19c.26-.11.47-.18.7-.26l.69-.19a12.79 12.79 0 0 1 1.34-.31 13.25 13.25 0 0 1 1.4-.15 13.06 13.06 0 0 1 1.4 0 5.78 5.78 0 0 1 .7.08 5.55 5.55 0 0 1 .71.13 6.08 6.08 0 0 1 1.37.5 5.75 5.75 0 0 1 1.2.81 4.41 4.41 0 0 1 .95 1.14l.06.1h1.63l.06-.1a4.41 4.41 0 0 1 1-1.14 5.75 5.75 0 0 1 1.2-.81 6.08 6.08 0 0 1 1.37-.5 5.55 5.55 0 0 1 .71-.13 6 6 0 0 1 .7-.08 14.07 14.07 0 0 1 2.8.12 13.5 13.5 0 0 1 1.38.28l.68.19.2.07a3.1 3.1 0 0 1-.31-1.33 3.31 3.31 0 0 1 .01-.51zm-20.74-.72a4.16 4.16 0 0 1 5.35-1.42 25.44 25.44 0 0 0-5.35 1.42zM37.63 18a4.15 4.15 0 0 1 2.89-.64 4.2 4.2 0 0 1 2.59 1.44 25.44 25.44 0 0 0-5.48-.8zm-.14 19.85l.15 1.63.57-.28.6-.32.19-.08c.33-.19.65-.39 1-.59a18.77 18.77 0 0 0 3.94-3.52 15.38 15.38 0 0 0 2.61-4.77l.09-.27c.05-.15.09-.31.14-.46.09-.33.18-.66.26-1v-.07c.08-.32.14-.65.21-1a26.76 26.76 0 0 0 .33-2.93H46.2a3.74 3.74 0 0 1-.12.45 5.35 5.35 0 0 1-.4 1 5.41 5.41 0 0 1-.58.94 4.55 4.55 0 0 1-.8.78 2.37 2.37 0 0 1-.46.32c-.17.08-.33.2-.5.26a4.61 4.61 0 0 1-1.05.3 4.28 4.28 0 0 1-1.06.1h-1.01c-.31 0-.68-.09-1-.13s-.67-.14-1-.26a5.87 5.87 0 0 1-1-.41A3.71 3.71 0 0 1 35.67 26a2.25 2.25 0 0 1-.21-.53 1.55 1.55 0 0 1-.06-.31v-.47h-1.59v.47a1.55 1.55 0 0 1-.06.31 2.25 2.25 0 0 1-.21.53A3.71 3.71 0 0 1 32 27.52a5.87 5.87 0 0 1-1 .41c-.32.12-.66.17-1 .26s-.7.12-1 .13h-1a4.23 4.23 0 0 1-1.06-.1 4.55 4.55 0 0 1-1.06-.3 4.59 4.59 0 0 1-.49-.26 2.17 2.17 0 0 1-.47-.32 4.55 4.55 0 0 1-.8-.78 5.41 5.41 0 0 1-.58-.94 6.14 6.14 0 0 1-.4-1c-.05-.16-.09-.32-.13-.48a.41.41 0 0 1-.18 0h-.64c.78 6 3.38 12.16 9.57 15.16.09-.92.15-1.56.15-1.56zm-4.8-9.28a1.28 1.28 0 0 1 .43-.14 6.56 6.56 0 0 1 3.28.12c.26.37-.53.82-1 1.12a1.4 1.4 0 0 1-.85.37 1.44 1.44 0 0 1-.6-.18 4.38 4.38 0 0 1-1.32-.93c-.02-.13-.06-.28.06-.36zm-2 5.49a7.88 7.88 0 0 1-.54-.92c-.13-.33.32-.68.71-.77h-.2a10.39 10.39 0 0 1 3.92-1c3.08 0 3.7 1 3.7 1H38h1c.2.13.2.52.06.75s-.37.58-.62.93-1 2.93-3.34 3.12c-3.38.26-4.37-3.11-4.37-3.11zm15.7-10.99h.39a2.45 2.45 0 0 1-.38-.24 1.85 1.85 0 0 1-.01.24z" fill="#ffceaa"/><path d="M37.64 39.48l-.15-1.63h-5.57s-.06.64-.15 1.56a9.77 9.77 0 0 0 3.22.76 6.65 6.65 0 0 0 2.65-.69z" fill="#ffceaa"/><path d="M25.9 35.11c-2-2.27-3.23-6.86-3.73-10.87h-.48a.4.4 0 0 1-.4-.39v-.38a.4.4 0 0 1 .4-.4h.36a22.46 22.46 0 0 1 0-4.94c1.29-8.68 5.63-9.88 11.9-10.9s12.82 2.59 13.46 6.47a43.29 43.29 0 0 1 .28 9.49.4.4 0 0 1 .12.28v.38a.41.41 0 0 1-.21.34c-.1 1-.25 2-.43 3-.06.33-.13.65-.21 1v.07c-.08.34-.17.67-.26 1 0 .15-.09.31-.14.46l-.09.27a14.86 14.86 0 0 1-1.27 2.91 15.1 15.1 0 0 1-1.34 1.86 16.85 16.85 0 0 1-3.94 3.52c-.32.21-.64.41-1 .59l-.14.08c-.2.12-.4.22-.6.32l-.55.3v.37a14.65 14.65 0 0 0 3.9-1.29 3.44 3.44 0 0 1 2-.36 7.88 7.88 0 0 0 6.42-2 3.51 3.51 0 0 1 1.38-.78 6 6 0 0 0 4.31-5.23 3.41 3.41 0 0 1 1.15-2.29A4.49 4.49 0 0 0 58 22.62a3.39 3.39 0 0 1-.34-1.6 3.19 3.19 0 0 0-1-2.43 3.43 3.43 0 0 1-.89-1.36 3.87 3.87 0 0 0-1.93-2.16A3.45 3.45 0 0 1 52 12.91a3.84 3.84 0 0 0-2.73-2.66 3.38 3.38 0 0 1-1.55-.87 3.89 3.89 0 0 0-.8-.6 3.47 3.47 0 0 1-1.06-1 3.12 3.12 0 0 0-2.67-1.3 3.56 3.56 0 0 1-1.78-.41 3.54 3.54 0 0 0-2.76-.28 1 1 0 0 1-.81-.1 3.57 3.57 0 0 0-2.72-.4 1 1 0 0 1-.71-.09 2.86 2.86 0 0 0-2-.28c-4.89 1.46-5.74 1.42-6.51 2.82a3.92 3.92 0 0 1-2.71 1.79 4.82 4.82 0 0 0-2.89 1.85 1 1 0 0 1-.86.46 3.27 3.27 0 0 0-3.27 3.25.72.72 0 0 1-.61.7 3.24 3.24 0 0 0-2.65 2.42 1.15 1.15 0 0 1-.26.47 3.18 3.18 0 0 0-.46.63 2.26 2.26 0 0 1-1.12 1 3.26 3.26 0 0 0-1.29 5.19 2.25 2.25 0 0 1 .55 1.34 3.2 3.2 0 0 0 1 2.14 2.27 2.27 0 0 1 .67 1.31 4.46 4.46 0 0 0 2.78 3.51 2.08 2.08 0 0 1 1 .7 6 6 0 0 0 4.81 2.31 2.21 2.21 0 0 1 1.2.32 7.82 7.82 0 0 0 5 1.11 3.44 3.44 0 0 1 2 .35 15.84 15.84 0 0 0 3 1.19v-.37a16.29 16.29 0 0 1-5.89-4.3z" fill="#d5532c"/><path d="M47.5 24.22a26.76 26.76 0 0 1-.33 2.93c.18-1 .33-2 .43-3zm-25.32.02c.5 4 1.69 8.6 3.73 10.87a16.29 16.29 0 0 0 5.85 4.3c-6.2-3.01-8.76-9.19-9.58-15.17zm24.28 5.68a15.38 15.38 0 0 1-2.61 4.77 15.1 15.1 0 0 0 1.34-1.86 14.86 14.86 0 0 0 1.27-2.91zm-8.25 9.28c.2-.1.4-.2.6-.32zM22.15 21.31A3.31 3.31 0 0 0 23.4 19a3.27 3.27 0 0 0 2.52-2.88A3.28 3.28 0 0 0 28 13a3.5 3.5 0 0 0-.12-.86 3.1 3.1 0 0 0 .62.07A3 3 0 0 0 30.91 11a3.54 3.54 0 0 0 3.52 3.24 3.48 3.48 0 0 0 2.32-.88 3.54 3.54 0 0 0 5.44 2.33 3.81 3.81 0 0 0 0 .59 3.53 3.53 0 0 0 3.08 3.51 3.31 3.31 0 0 0-.06.54 3.1 3.1 0 0 0 .31 1.33 4.55 4.55 0 0 1 .5.19l.45.19v.48a2.46 2.46 0 0 1 0 .28 2.45 2.45 0 0 0 .38.24h.63a.42.42 0 0 1 .28.12 43.29 43.29 0 0 0-.28-9.49C46.84 9.79 40.28 6.19 34 7.2S23.32 9.45 22 18.13a22.46 22.46 0 0 0 0 4.94c.06-.59.12-1.18.15-1.76zm24.4 8.34c.05-.15.09-.31.14-.46-.05.15-.09.31-.14.46zm.45-1.46zM39 38.8c.32-.18.64-.38 1-.59-.4.2-.72.4-1 .59z" fill="#d5532c"/><path d="M34 29.86a1.44 1.44 0 0 0 .6.18 1.4 1.4 0 0 0 .85-.37c.43-.3 1.22-.75 1-1.12a6.56 6.56 0 0 0-3.28-.12 1.28 1.28 0 0 0-.43.14c-.12.08-.08.23 0 .36a4.38 4.38 0 0 0 1.26.93z" fill="#eda672"/><path d="M37.63 18a25.44 25.44 0 0 1 5.48.8 4.2 4.2 0 0 0-2.59-1.44 4.15 4.15 0 0 0-2.89.64zm-10.74-.63a4.23 4.23 0 0 0-2.41 1.73 25.44 25.44 0 0 1 5.35-1.42 4.22 4.22 0 0 0-2.94-.31z" fill="#d5532c"/><path d="M35.08 37.18c2.39-.19 3.34-3.12 3.34-3.12-.16.23-.33.45-.53.71a3.41 3.41 0 0 1-1.48 1.17 4.15 4.15 0 0 1-1.67.31 4.56 4.56 0 0 1-3-.91 3.4 3.4 0 0 1-.7-.79s-.17-.25-.32-.49 1 3.37 4.36 3.12z" fill="#e88567"/><path d="M39 33.13c.14-.23.14-.62-.06-.75h-1c0 .55-.11.89-.57 1.07a12.8 12.8 0 0 1-5.79 0 1 1 0 0 1-.58-1h-.1c-.39.09-.84.44-.71.77a7.88 7.88 0 0 0 .54.92h7.68c.25-.43.47-.75.59-1.01z" fill="#4c0c0a"/><path d="M31.75 35.34c0-.06.36-.93 2.16-.78s2.4.93 2.49 1.38a3.41 3.41 0 0 0 1.48-1.17c.2-.26.37-.48.53-.71h-7.68c.15.24.29.45.32.49a3.4 3.4 0 0 0 .7.79z" fill="#4c0c0a"/><path d="M31.63 33.39a12.8 12.8 0 0 0 5.79 0c.46-.18.57-.52.57-1.07h-6.94a1 1 0 0 0 .58 1.07z" fill="#fff"/><path d="M33.91 34.56c-1.8-.15-2.14.72-2.16.78a4.56 4.56 0 0 0 3 .91 4.15 4.15 0 0 0 1.67-.31c-.11-.45-.82-1.24-2.51-1.38z" fill="#b2543f"/><path d="M31 32.35h7.28s-.62-1-3.7-1a10.39 10.39 0 0 0-3.92 1H31zm0 0h-.14.15zm.08 0h6.79-6.79zm-.08 0h6.8H31z" fill="#e88567"/><path d="M27 23.94a3.37 3.37 0 0 1 3.68 2.24c.08.26.33.28.39.13a3.33 3.33 0 0 0-1.9-3 3.41 3.41 0 0 0-4 .57 2.93 2.93 0 0 0-.49.71c.05.15.09.31.15.45 0 .05.05.1.07.16a2.81 2.81 0 0 1 2.1-1.26zm-2.16 1.16h-.01l.01.01v-.01z" fill="#4c0c0a"/><path d="M27.75 25.82a6.44 6.44 0 0 1 2.67.54 2.27 2.27 0 0 0-1.25-.7 2.31 2.31 0 0 0-1.42.16z" fill="#eda672"/><path d="M44.22 25.1h.17a2.14 2.14 0 0 0 .09-.27 3.61 3.61 0 0 0-.58-.89 3.41 3.41 0 0 0-4-.57 3.31 3.31 0 0 0-1.9 3c.06.15.31.13.39-.13a3.62 3.62 0 0 1 1-1.51 3.68 3.68 0 0 1 2.63-.73 2.87 2.87 0 0 1 2.17 1.46l.09-.18z" fill="#4c0c0a"/><path d="M44.32 25.22l.07-.14h-.17z" fill="#4c0c0a"/><path d="M39.88 25.66a2.31 2.31 0 0 0-1.25.7 6.49 6.49 0 0 1 2.68-.54 2.35 2.35 0 0 0-1.43-.16z" fill="#eda672"/><path d="M22.11 23.7a1.5 1.5 0 0 0 0-.2v.2z" fill="#b53116"/><path d="M47.53 23.38a2.76 2.76 0 0 1-.75-.31h-.39a1.85 1.85 0 0 0 0-.24 3.23 3.23 0 0 1-.93-1.14l-.2-.07-.68-.19a13.5 13.5 0 0 0-1.38-.28 14.07 14.07 0 0 0-2.8-.12 6 6 0 0 0-.7.08 5.55 5.55 0 0 0-.71.13 6.08 6.08 0 0 0-1.37.5 5.75 5.75 0 0 0-1.2.81 4.41 4.41 0 0 0-1 1.14l-.06.1h-1.57l-.06-.1a4.41 4.41 0 0 0-.95-1.14 5.75 5.75 0 0 0-1.2-.81 6.08 6.08 0 0 0-1.37-.5 5.55 5.55 0 0 0-.71-.13 5.78 5.78 0 0 0-.7-.08 13.06 13.06 0 0 0-1.4 0 13.25 13.25 0 0 0-1.4.13 12.79 12.79 0 0 0-1.37.28l-.69.19c-.23.08-.44.15-.7.26l-.45.19v1h-.75v.43a1.5 1.5 0 0 1 0 .2c0 .18.05.36.07.54h.64a.41.41 0 0 0 .18 0c0 .16.08.32.13.48a6.14 6.14 0 0 0 .4 1 5.41 5.41 0 0 0 .58.94 4.55 4.55 0 0 0 .8.78 2.17 2.17 0 0 0 .47.32 4.59 4.59 0 0 0 .49.26 4.55 4.55 0 0 0 1.06.3 4.23 4.23 0 0 0 1.06.1h1c.32 0 .68-.09 1-.13s.67-.14 1-.26a5.87 5.87 0 0 0 1-.41A3.71 3.71 0 0 0 33.54 26a2.25 2.25 0 0 0 .21-.53 1.55 1.55 0 0 0 .06-.31v-.47h1.59v.47a1.55 1.55 0 0 0 .06.31 2.25 2.25 0 0 0 .21.53 3.71 3.71 0 0 0 1.57 1.52 5.87 5.87 0 0 0 1 .41c.33.12.66.17 1 .26s.7.12 1 .13h1.01a4.28 4.28 0 0 0 1.06-.1 4.61 4.61 0 0 0 1.05-.3c.17-.06.33-.18.5-.26a2.37 2.37 0 0 0 .46-.32 4.55 4.55 0 0 0 .8-.78 5.41 5.41 0 0 0 .58-.94 5.35 5.35 0 0 0 .4-1 3.74 3.74 0 0 0 .12-.45h1.3v-.65zm-14.62 1.49a1.28 1.28 0 0 1-.2.69 2.88 2.88 0 0 1-1.21 1 4.63 4.63 0 0 1-.81.3 8.38 8.38 0 0 1-.87.18 8.18 8.18 0 0 1-.89.08h-.6s-.06 0 0 0h-.27a4.25 4.25 0 0 1-1.61-.37 2.77 2.77 0 0 1-.34-.2 1.28 1.28 0 0 1-.32-.24 3.64 3.64 0 0 1-.54-.57l-.3-.51c-.08.12-.17.25-.25.39s0 0-.06 0a.09.09 0 0 0 0 .05 3 3 0 0 1-1.24-.83l1.14.15a3.61 3.61 0 0 1 .22-.44c0-.12-.09-.22-.12-.34a5.91 5.91 0 0 1-.15-.84v-.35h.08c.2-.08.39-.15.59-.21a10.47 10.47 0 0 1 1.22-.33c.41-.09.83-.15 1.24-.2s.81-.07 1.27-.07h.62c.2 0 .4 0 .6.07a5.73 5.73 0 0 1 1.16.34 4.73 4.73 0 0 1 1 .61 4.19 4.19 0 0 1 .75.77zm11.6.86a.09.09 0 0 1 0-.05h-.06l-.17-.26c-.07.13-.15.25-.23.38a3.64 3.64 0 0 1-.54.57 1.43 1.43 0 0 1-.31.24 4 4 0 0 1-.35.2 3.33 3.33 0 0 1-.77.26 3.28 3.28 0 0 1-.84.11h-.87a8.18 8.18 0 0 1-.89-.08 7.7 7.7 0 0 1-.86-.18 4.45 4.45 0 0 1-.82-.3 2.79 2.79 0 0 1-1.2-1 1.21 1.21 0 0 1-.21-.69v-.82a4.19 4.19 0 0 1 .75-.77 4.73 4.73 0 0 1 1-.61 5.73 5.73 0 0 1 1.16-.34c.2 0 .4-.06.6-.07h.62c.46 0 .83 0 1.27.07s.83.11 1.24.2a10 10 0 0 1 1.22.33c.2.06.39.13.59.21h.08a2 2 0 0 1 0 .35 5.91 5.91 0 0 1-.15.84 3.2 3.2 0 0 1-.18.52l.13.26 1.14-.15a3.05 3.05 0 0 1-1.35.78z" fill="#b53116"/><path d="M22.1 23.57v-.5h-.36a.4.4 0 0 0-.4.4v.38a.4.4 0 0 0 .4.39h.48l-.06-.54s-.06-.09-.06-.13zm25.71.28v-.38a.4.4 0 0 0-.12-.28l-.09 1a.41.41 0 0 0 .21-.34z" fill="#b53116"/><path d="M22.17 24.24c0-.18-.05-.36-.07-.54zm24.25-2.17l-.42-.19a4.55 4.55 0 0 0-.5-.19 3.23 3.23 0 0 0 .93 1.14 2.46 2.46 0 0 0 0-.28zm1.27 1.12a.42.42 0 0 0-.28-.12h-.63a2.76 2.76 0 0 0 .75.31v.84h.1zm-25.62-.12v.43c.01-.14 0-.28 0-.43zm2.74 1.99c-.06-.14-.1-.3-.15-.45a3.61 3.61 0 0 0-.22.44l.39.05-.02-.04zm-.26.67zm.05-.03h.06c.06 0 .17-.27.25-.39s-.05-.11-.07-.16c-.21.14-.2.29-.24.55zm-.28-.31a2.39 2.39 0 0 1 .12-.34l-1.14-.15a3 3 0 0 0 1.24.83c-.12-.01-.24-.21-.22-.34zm.27.36a.09.09 0 0 1 0-.05h-.05z" fill="#b53116"/><path d="M24.83 25.1l-.39-.05a2.39 2.39 0 0 0-.12.34c0 .13.1.33.22.34s0 0 .05 0c0-.26 0-.41.24-.59zm19.56-.02h.23l-.13-.26a2.14 2.14 0 0 1-.09.27zm-.16.32l.17.26h.06a1.13 1.13 0 0 0-.14-.48z" fill="#b53116"/><path d="M44.73 25.39a.32.32 0 0 1-.22.34 3.05 3.05 0 0 0 1.25-.83l-1.14.15a2.13 2.13 0 0 1 .11.34zm-.26.36z" fill="#b53116"/><path d="M44.73 25.39a2.13 2.13 0 0 0-.11-.34h-.23l-.07.14a1.13 1.13 0 0 1 .14.48.32.32 0 0 0 .27-.28z" fill="#b53116"/><path d="M33.54 53.81c-1.44-.05-2.74-.16-3.9-.31.13.38.27.76.41 1.14l4.73 10.9V53.83c-.41 0-.78 0-1.24-.02z" fill="#d8e2ef"/><path d="M28.22 48.91c.41 1.54.9 3.09 1.42 4.59 1.16.15 2.46.26 3.9.31h1.24v-6.9l-2.85 4.66z" fill="#d8e2ef"/><path d="M28.71 46.76l.92-.43 1.31-.58a3 3 0 0 0 .23-1h-1.1l-2.39 1.95z" fill="#fff"/><path d="M29.63 46.33l-.92.43 6.07.15v-2.15h-3.61a3 3 0 0 1-.23 1z" fill="#fff"/><path d="M27.69 46.73c0 .15.06.3.1.46.32-.16.63-.3.92-.43z" fill="#fff"/><path d="M31.93 51.57l2.85-4.66-6.07-.15c-.29.13-.6.27-.92.43.13.57.27 1.14.43 1.72z" fill="#fff"/><path d="M42.2 46.72h-.27l.2.16a1.22 1.22 0 0 1 .07-.16zm-7.38 18.63l.25-.46 5-11.41a36.54 36.54 0 0 1-5.33.35v11.71l.09-.21zm6.84-16.67l-.9.65c0 .91 0 1.79-.12 2.66.36-1.09.72-2.2 1.02-3.31z" fill="#d8e2ef"/><path d="M34.78 53.83a36.54 36.54 0 0 0 5.33-.35l.07-.16c.15-.44.31-.88.46-1.33.07-.87.11-1.75.12-2.66l-3.12 2.24-2.86-4.66z" fill="#d8e2ef"/><path d="M40.11 46.78l1.82-.05-2.44-2H38.1v.37a4.34 4.34 0 0 1 2.01 1.68z" fill="#fff"/><path d="M40 46.7l.13.08a4.34 4.34 0 0 0-2-1.65l.06.72c.59.26 1.18.54 1.81.85zm-1.87-1.57v-.37h-1a6.14 6.14 0 0 1 1 .37z" fill="#fff"/><path d="M34.78 46.91l5.3-.13-.08-.08a25.8 25.8 0 0 0-1.76-.85l-.06-.72a6.14 6.14 0 0 0-1-.37h-2.4v2.15zm5.35-.11c.6.33 1.19.66 1.77 1l.21-.86v-.06l-.2-.16-1.82.05zm0 0z" fill="#fff"/><path d="M40.76 49.33l.9-.65.24-.87c-.58-.35-1.17-.68-1.77-1a4.49 4.49 0 0 1 .63 2.42z" fill="#fff"/><path d="M34.78 46.91l2.86 4.66 3.12-2.24v-.11a4.49 4.49 0 0 0-.63-2.42h-.05z" fill="#fff"/><path d="M24.53 60.84c.68-1.08 1.48-2.31 1.48-2.31s-.66-.18-2.54-.8c-.34 1.15-.68 2.3-1 3.46q-.63 2.43-1.17 4.89c-.07.31-.12.62-.19.92a34.75 34.75 0 0 0 11 2.72 45 45 0 0 1-3.09-6.53c-2.9-1.02-4.93-1.66-4.49-2.35zM20.28 50.5a4.5 4.5 0 0 1 1 .44 3.14 3.14 0 0 1 .45-.42v-.22A5.28 5.28 0 0 1 23 48.36a6.35 6.35 0 0 0-4.64 2 4.66 4.66 0 0 1 1.92.14zm14.38 14.85l.16.26z" fill="#d9a155"/><path d="M29.07 63.19a45 45 0 0 0 3.09 6.53h.25a1.23 1.23 0 0 1 .5 0h1.66v-4.41c-1.95-.88-3.87-1.56-5.5-2.12zm-7.31-12.67a3.14 3.14 0 0 0-.45.42l.32.2a6.19 6.19 0 0 1 .13-.62z" fill="#d9a155"/><path d="M32.41 69.73h.5a1.23 1.23 0 0 0-.5 0z" fill="#ba823a"/><path d="M47.57 60.76c-.33-1-.69-1.93-1-2.9-2.24.7-3 .89-3 .89s.76 1.24 1.41 2.32c.54.88-2.93 1.6-7.23 3.15A44.35 44.35 0 0 1 35 69.76v.07h1.65a1.5 1.5 0 0 1 .63 0 34.57 34.57 0 0 0 12.11-3c-.11-.38-.21-.76-.32-1.13q-.69-2.55-1.5-4.94zM49 49.94a4.94 4.94 0 0 1 .82-.21 13 13 0 0 0-3.44-1.2 5.57 5.57 0 0 1 1.37 2.1 5.41 5.41 0 0 1 1.25-.69z" fill="#d9a155"/><path d="M35 69.76a44.35 44.35 0 0 0 2.71-5.54c-.88.31-1.79.67-2.71 1.06zm-.22-4.22l.19-.3z" fill="#d9a155"/><path d="M36.66 69.77l.64-.05a1.5 1.5 0 0 0-.64.05z" fill="#ba823a"/><path d="M34.62 65.33v4.51h.21v-4.25zm.38 4.5v-.07z" fill="#b0772b"/><path d="M35 65.28l-.19.3v4.24H35v-.07z" fill="#b0772b"/><path d="M17.26 59.85A4.81 4.81 0 0 1 14.85 58a5.1 5.1 0 0 1-.7-1.81 5.36 5.36 0 0 1 .06-2c-.33 1.77-.63 3.55-.89 5.32-.13.88-.22 1.76-.33 2.63a34.59 34.59 0 0 0 4.88 3.31c-.07-.48-.14-1-.17-1.54-.09-1.36-.27-2.71-.44-4.06z" fill="#d9a155"/><path d="M22.49 61.19c.3-1.16.64-2.31 1-3.46h-.16a3.58 3.58 0 0 1-.25.42 4.92 4.92 0 0 1-1.35 1.26 5.09 5.09 0 0 1-3.71.71 4.52 4.52 0 0 1-.74-.22c.17 1.35.35 2.7.43 4 0 .55.1 1.06.17 1.54A35.48 35.48 0 0 0 21.13 67c.07-.3.12-.61.19-.92q.54-2.46 1.17-4.89zm-4.22-10.72l.13-.13a4.69 4.69 0 0 0-1.89.62 5 5 0 0 0-1.44 1.31 5.25 5.25 0 0 0-.86 1.85l2.66.63a6.2 6.2 0 0 1 1.4-4.28z" fill="#d9a155"/><path d="M16.87 54.75l4.79 1.13a12.52 12.52 0 0 1-.05-4.66l-.36-.22s.05 0 .06-.06a4.5 4.5 0 0 0-1-.44 4.66 4.66 0 0 0-1.88-.16l-.13.13a6.2 6.2 0 0 0-1.43 4.28z" fill="#d9a155"/><path d="M21.31 50.94l-.06.06.36.22v-.08zm-7.16 5.21a5.1 5.1 0 0 0 .7 1.81 4.81 4.81 0 0 0 2.41 1.89 35.86 35.86 0 0 1-.39-5.1l-2.66-.63a5.36 5.36 0 0 0-.06 2.03z" fill="#d9a155"/><path d="M21.66 55.88l-4.79-1.13a35.86 35.86 0 0 0 .39 5.1 4.52 4.52 0 0 0 .74.22 5.09 5.09 0 0 0 3.71-.71 4.92 4.92 0 0 0 1.35-1.26 3.58 3.58 0 0 0 .25-.42l-.65-.21c-.46-.16-.79-.77-1-1.59zm33.68-2.75a5.2 5.2 0 0 1 .2 2A4.87 4.87 0 0 1 55 57a4.79 4.79 0 0 1-2.45 2.13v2.09a17 17 0 0 1-.56 4.2 34.68 34.68 0 0 0 5.36-3.69c-.21-1.12-.42-2.24-.66-3.36q-.69-2.62-1.35-5.24z" fill="#d9a155"/><path d="M52.51 59.13a5 5 0 0 1-.54.2 5.13 5.13 0 0 1-3.75-.45 4.83 4.83 0 0 1-1.39-1.11l-.3.09c.35 1 .71 1.93 1 2.9q.81 2.39 1.51 4.8c.11.37.21.75.32 1.13.85-.39 1.69-.81 2.51-1.27a17 17 0 0 0 .56-4.2c.04-.79.06-1.47.08-2.09zM52 51.84a7.41 7.41 0 0 1 .65 2.16l2.68-.84a5.13 5.13 0 0 0-1-1.79 4.94 4.94 0 0 0-1.53-1.2 4.7 4.7 0 0 0-3-.41 4.72 4.72 0 0 1 2.2 2.08z" fill="#d9a155"/><path d="M47.78 50.63v.07a13.06 13.06 0 0 1 .22 4.71L52.65 54a7.41 7.41 0 0 0-.65-2.16 4.72 4.72 0 0 0-2.19-2.11 4.94 4.94 0 0 0-.82.21 5.41 5.41 0 0 0-1.21.69zm4.73 8.5A4.79 4.79 0 0 0 55 57a4.87 4.87 0 0 0 .57-1.85 5.2 5.2 0 0 0-.2-2l-2.72.85a39.9 39.9 0 0 1-.14 5.13z" fill="#d9a155"/><path d="M52.65 54L48 55.41c-.18 1.21-.57 2.16-1.18 2.35a4.83 4.83 0 0 0 1.39 1.11 5.13 5.13 0 0 0 3.75.45 5 5 0 0 0 .54-.2 39.9 39.9 0 0 0 .15-5.12z" fill="#d9a155"/><path d="M24.14 49c.66-.36 1.37-.73 2.08-1.08l.39-.19-.13-.09.25-.2c0-.08.07-.15.1-.23l-.23-.54h.51a4.45 4.45 0 0 1 .38-.48c-.68-.89-3 .51-4.45 2.13a4.66 4.66 0 0 1 .7.06z" fill="#b0772b"/><path d="M26.83 47.24c0 .08-.07.15-.1.23l.15-.13zm.81-.51a.44.44 0 0 1 0-.1 1.06 1.06 0 0 0-.17-.37 4.45 4.45 0 0 0-.38.48zm2.41 7.91l-.5-1.15c-1.07-.14-2-.32-2.86-.5l8 12.36a103.63 103.63 0 0 1-4.64-10.71zm-3.62-5.42a4.9 4.9 0 0 1 .21-1.44l-.39.19c-.71.35-1.42.72-2.08 1.08l2.47 3.84a36.12 36.12 0 0 1-.21-3.67z" fill="#b0772b"/><path d="M27.26 48.23l-.62-.45a4.9 4.9 0 0 0-.21 1.44 36.12 36.12 0 0 0 .18 3.65l.08.12c.84.18 1.79.36 2.86.5zm-.66-1.53l.23.54a5.36 5.36 0 0 1 .28-.53z" fill="#b0772b"/><path d="M27.64 46.73h-.53a5.36 5.36 0 0 0-.28.53l.05.1zm2.41 7.91c-.14-.38-.28-.76-.41-1.14h-.09zm-2.79-6.41l2.29 5.26h.09c-.52-1.5-1-3-1.42-4.59zm-.53-.76l-.25.2.13.09c.07-.11.09-.21.12-.29zm.95-.77h.05z" fill="#b0772b"/><path d="M27 47.58l-.1-.24-.15.13c0 .08-.05.18-.08.27zm-.35.16z" fill="#b0772b"/><path d="M27 47.58l-.33.16.62.45zm0 0l.81-.39c0-.16-.07-.31-.1-.46h-.05l-.76.61z" fill="#b0772b"/><path d="M28.22 48.91c-.16-.58-.3-1.15-.43-1.72l-.81.39.28.65zm-6.46 1.61A17.84 17.84 0 0 1 24.14 49l-.4-.61a4.66 4.66 0 0 0-.7-.06 5.28 5.28 0 0 0-1.23 1.94c-.02.1-.03.18-.05.25zm3.12 2.01a18.15 18.15 0 0 1-2.77-1.05 5 5 0 0 1 1.15 1.33 4.86 4.86 0 0 1 .65 1.72 4.51 4.51 0 0 1-.07 1.86c-.13.44-.24.89-.37 1.33 1.88.62 2.54.8 2.54.8s-.8 1.23-1.48 2.31c-.44.69 1.59 1.33 4.54 2.35A41 41 0 0 1 26.62 53c-.62-.17-1.22-.32-1.74-.47z" fill="#b0772b"/><path d="M26.69 53h-.07a41 41 0 0 0 2.45 10.22c1.63.56 3.55 1.24 5.5 2.12v-.07.09zm-4.58-1.52a18.15 18.15 0 0 0 2.77 1.05c.52.15 1.1.3 1.74.44v-.1L24.14 49a17.84 17.84 0 0 0-2.38 1.49 6.19 6.19 0 0 0-.13.62 5.22 5.22 0 0 1 .48.37z" fill="#b0772b"/><path d="M26.62 53h.07l-.08-.12s.01.06.01.12zm7.95 12.31v-.09zM23.84 56.4a4.5 4.5 0 0 1-.53 1.28h.16c.13-.44.24-.89.37-1.33z" fill="#b0772b"/><path d="M23.84 56.39a4.51 4.51 0 0 0 .07-1.86 4.86 4.86 0 0 0-.65-1.72 5 5 0 0 0-1.15-1.33l-.5-.26a12.52 12.52 0 0 0 .05 4.66l2.18.52zm-2.21-5.25v.08l.5.26a5.22 5.22 0 0 0-.5-.34z" fill="#b0772b"/><path d="M21.66 55.88c.21.82.54 1.43 1 1.59l.65.21a4.5 4.5 0 0 0 .53-1.28zm21.12-8.46l.3.25-.6.43v.06l.79.49c.62.4 1.18.79 1.69 1.14l.88-1.37.59.11c-1.49-1.59-3.66-2.87-4.21-1.81h.9zm-3.03 10.42l3.16-4.91c-.71.17-1.51.34-2.4.48a41.24 41.24 0 0 1-.76 4.43z" fill="#b0772b"/><path d="M40.12 53.47a103.49 103.49 0 0 1-5 11.42l-.2.44h.06l4.82-7.47a41.24 41.24 0 0 0 .76-4.43zm.39-.06c.89-.14 1.69-.31 2.4-.48l2-3.14c-.51-.35-1.07-.74-1.69-1.14l-.79-.49-1.84 4.16c0 .37-.04.73-.08 1.09z" fill="#b0772b"/><path d="M40.12 53.47l.39-.06c0-.36.08-.72.11-1.09l-.44 1zm2.34-5.31v-.06zm.32-.74l.32-.72h-.9a1.22 1.22 0 0 0-.07.17zm-7.91 17.91l.2-.44-.25.46zm6.79-16.65c-.3 1.11-.65 2.22-1 3.31v.33l1.84-4.16z" fill="#b0772b"/><path d="M40.62 52.32v-.33c-.15.45-.31.89-.46 1.33zm2.46-4.65l-.3-.25-.3.68.6-.43zm-.6.43l.3-.68-.65-.53v.06l-.21.86.53.33zm-.05.04l-.53-.33-.24.87zm3.45 7.94a4.51 4.51 0 0 1-.19-1.85 5.08 5.08 0 0 1 .52-1.77 5.51 5.51 0 0 1 .5-.79 19.13 19.13 0 0 1-2.32.87c-.44.13-.94.27-1.48.4l-3.16 4.91a43.6 43.6 0 0 1-2 6.38c4.3-1.55 7.77-2.27 7.23-3.15-.65-1.08-1.41-2.32-1.41-2.32s.76-.19 3-.89c-.22-.59-.42-1.2-.65-1.78zm-.94-6.29c1 .73 1.79 1.3 2.08 1.53a5.57 5.57 0 0 1 .76-.69 5.57 5.57 0 0 0-1.37-2.1l-.59-.11z" fill="#b0772b"/><path d="M34.93 65.31v-.05c.92-.39 1.83-.75 2.71-1.06a43.6 43.6 0 0 0 2-6.38zm9.46-12.78a19.13 19.13 0 0 0 2.32-.87c.09-.12.21-.23.31-.34-.29-.23-1-.8-2.08-1.53l-2 3.14c.51-.13 1.06-.27 1.45-.4zM35 65.29zm10.88-9.21c.23.58.43 1.19.65 1.78l.3-.09v-.05a4.62 4.62 0 0 1-.95-1.64z" fill="#b0772b"/><path d="M46.71 51.66a5.51 5.51 0 0 0-.5.79 5.08 5.08 0 0 0-.52 1.77 4.51 4.51 0 0 0 .19 1.85l2.12-.66a13.06 13.06 0 0 0-.21-4.71v-.07a5.57 5.57 0 0 0-.76.69l.15.11s-.18.09-.47.23z" fill="#b0772b"/><path d="M47.17 51.43l-.17-.11c-.1.11-.22.22-.31.34.31-.14.48-.23.48-.23zm.83 3.98l-2.14.67a4.62 4.62 0 0 0 .91 1.64v.05c.68-.2 1.07-1.15 1.23-2.36z" fill="#b0772b"/></svg>