<svg xmlns="http://www.w3.org/2000/svg" viewBox="0 0 69.83 69.83"><path d="M40.26 41.1a17 17 0 0 0 3.93-3.52 18.73 18.73 0 0 1-3.93 3.52zM47.51 30c-.06.32-.13.65-.2 1 .07-.31.14-.63.2-1zM32 43.09c0-.28.06-.54.08-.79zm7.29-1.4l-.13.08zm8-10.61c-.08.34-.17.67-.26 1 .09-.33.18-.66.26-1zm-.4 1.46l-.09.27z" fill="#dff4fb"/><path d="M34.92 0A34.92 34.92 0 0 0 14 62.86a32 32 0 0 1 .47-4.86 14.08 14.08 0 0 1 .39-1.45 1.66 1.66 0 0 1 .06-.21 3.68 3.68 0 0 1 .78-1.3 4.63 4.63 0 0 1 2.09-1.46 2.48 2.48 0 0 1 .71-.08 1.58 1.58 0 0 1 .12-.15 5.1 5.1 0 0 1 3.5-2 5.75 5.75 0 0 1 1.27-.12c1.48-1.62 3.77-3 4.45-2.13a6.25 6.25 0 0 1 3.72-1.72c0-.27.07-.56.11-.88.11-.86.21-1.86.31-2.79-.74-.11-1.27 2.14-1.95 1.79s-.08-2.71-1.45-2.71c-.92 0-.17 1.59-1.63 1.67-.54 0-.29-1.77-1.37-1.81-1.26-.05-.42 1.83-1.88 1.87s-6.05-22.77-4-25.52c0 0 1.57-3.54 1.75-3.83a11.49 11.49 0 0 1 2.21-2.54 9.52 9.52 0 0 0 2.54-2c.59-1.06 1.22-1.3 3.62-2-.53-.48 1.26-.73 1.67-.82 1.79-.39 4.61-.37 10.34 2 4.64 1.94 5.77 4.81 6.77 6.46l.26.39.13.19c1 1.32 1.53 2.46 1.3 2.6A23.26 23.26 0 0 1 51.65 24c.57 2.88-2.62 20.22-3.5 20.58a1.2 1.2 0 0 1-.27.07c.21 1.13.45 2.64-.29 2.21s-.33-1.46-.08-2.2c-.65-.16-.62-1.24-2-.91-.51.13-1.08 1.56-1.62 1.54-1.21 0-1-1.54-2.13-1.46-.7.06-.66 1.47-1.29 1.79-.89.47-1.25-1.47-2.25-1.37L38 42.39l.55-.29-.57.27.08.9.38 4.38h1.39l2.44 2h.27c.55-1.06 2.72.22 4.21 1.81A12.28 12.28 0 0 1 50.93 53a4.79 4.79 0 0 1 3.06.93 5 5 0 0 1 2 3.51v.81c0 1.49.07 3 0 4.48A34.92 34.92 0 0 0 34.92 0z" fill="#dff4fb"/><path d="M35.16 68.34l.08-.09h-.06zm.25-.56a101.55 101.55 0 0 0 5.05-11.42zM28 49.49v.09l2.39-1.93h1.1a2.17 2.17 0 0 1 0-.25 6.25 6.25 0 0 0-3.72 1.72.79.79 0 0 1 .23.37zm2.39 8.04A103.63 103.63 0 0 0 35 68.26l.08.09z" fill="#fff"/><path d="M33.94 47.3a11 11 0 0 1 3.56.35h.94l-.38-4.38q-3.23 1.59-6.4 3.25c0 .32-.08.61-.11.88a10.94 10.94 0 0 1 2.39-.1zm6.51 9.06l.06-.15zm-5.33-6.56z" fill="#ffceaa"/><path d="M35.12 47.65h2.38a11 11 0 0 0-3.56-.35 10.94 10.94 0 0 0-2.39.1 2.17 2.17 0 0 0 0 .25z" fill="#ffceaa"/><path d="M38 42.37a6.65 6.65 0 0 1-2.65.69 9.82 9.82 0 0 1-3.22-.76c0 .25 0 .51-.08.79l-.05.64c-.1.93-.2 1.93-.31 2.79q3.18-1.67 6.4-3.25z" fill="#eda672"/><path d="M44.13 26.2a2.61 2.61 0 0 1 .38 1h.48a.14.14 0 0 0 0-.06 5.93 5.93 0 0 0 .16-.84v-.35h-.09l-.59-.21c-.34-.11-.68-.19-1-.27a3.57 3.57 0 0 1 .66.73zm-11.61-.03a4.73 4.73 0 0 0-1-.61 3.82 3.82 0 0 0-.51-.18 2.62 2.62 0 0 1 .85 1.78.18.18 0 0 1-.27.09 4.42 4.42 0 0 1-.68 2.58h.16a4.63 4.63 0 0 0 .81-.3 2.77 2.77 0 0 0 1.21-1 1.25 1.25 0 0 0 .2-.69v-.81a4.19 4.19 0 0 0-.77-.86zM38 27.25a.18.18 0 0 1-.27-.09 2.68 2.68 0 0 1 .67-1.59 4.9 4.9 0 0 0-1 .6 3.63 3.63 0 0 0-.75.77v.81a1.18 1.18 0 0 0 .2.69 2.77 2.77 0 0 0 1.21 1c.16.07.33.12.5.18a4.54 4.54 0 0 1-.56-2.37z" fill="#ffceaa"/><path d="M39.29 41.69c.33-.19.65-.39 1-.59a18.73 18.73 0 0 0 3.93-3.52 15.38 15.38 0 0 0 2.61-4.77l.09-.27c0-.15.09-.31.14-.46.09-.33.18-.66.26-1v-.07c.07-.32.14-.65.2-1a24.76 24.76 0 0 0 .33-2.93H47c0 .6.06 1.29-.1 1.32a4.31 4.31 0 0 1-.39-1.24c0 .11-.06.23-.1.35a6.09 6.09 0 0 1-.39 1 7 7 0 0 1-.58.94 5 5 0 0 1-.81.78 2.37 2.37 0 0 1-.46.32 3.33 3.33 0 0 1-.5.25 4.5 4.5 0 0 1-1 .31 4.28 4.28 0 0 1-1.06.1h-1.09c-.31 0-.68-.09-1-.13s-.67-.14-1-.26a6.26 6.26 0 0 1-1-.41A3.68 3.68 0 0 1 36 28.89a2.47 2.47 0 0 1-.22-.53l-.06-.31v-.47h-1.6v.47a1.55 1.55 0 0 1-.06.31 2.44 2.44 0 0 1-.21.53 3.65 3.65 0 0 1-1.57 1.52 5.77 5.77 0 0 1-1 .41c-.33.12-.67.17-1 .26s-.7.12-1 .13h-1.01a4.28 4.28 0 0 1-1.06-.1 4.36 4.36 0 0 1-1.05-.31 3.33 3.33 0 0 1-.5-.25 2.17 2.17 0 0 1-.47-.32 5.36 5.36 0 0 1-.8-.78 7 7 0 0 1-.58-.94 6.14 6.14 0 0 1-.4-1c0-.16-.09-.32-.13-.48a.35.35 0 0 1-.18.05h-.64c.78 6 3.38 12.16 9.58 15.16.09-.92.15-1.56.15-1.56h5.58l.23 1.69.57-.27.61-.33zm-6.24-10.23a1.21 1.21 0 0 1 .43-.14 6.67 6.67 0 0 1 3.27.11c.25.38-.54.83-1 1.13a1.52 1.52 0 0 1-.85.37 1.44 1.44 0 0 1-.6-.18 4.38 4.38 0 0 1-1.3-.93c0-.13-.07-.28.05-.36zM36 39a3.14 3.14 0 0 1-2.46-.16 6.45 6.45 0 0 1-2.17-1.75 2.33 2.33 0 0 0-.65.19c-.21.1-.35.85-.46.5l-.09-.65c-.08-.28 0-.51.16-.1 0 .12.23.14.37.09a7 7 0 0 1 .78-.24 5.46 5.46 0 0 1 3.5-1.3A5.34 5.34 0 0 1 38.26 37c.27.1.51.2.65.27s.33.07.38 0c.18-.4.25-.16.14.11l-.15.63c-.15.34-.21-.42-.4-.54a2.83 2.83 0 0 0-.6-.25A4.08 4.08 0 0 1 36 39z" fill="#ffceaa"/><path d="M25.41 26.2a3.83 3.83 0 0 1 .51-.62l-.55.14-.58.21h-.09v.35a4.79 4.79 0 0 0 .16.84H25a2.61 2.61 0 0 1 .41-.92z" fill="#ffceaa"/><path d="M23.16 26v-1l.44-.19c.25-.1.46-.17.7-.25s.45-.14.68-.19a12.49 12.49 0 0 1 1.37-.37 13.93 13.93 0 0 1 2.79-.12c.21 0 .48 0 .71.07s.47.09.71.14a6 6 0 0 1 1.36.5 6.09 6.09 0 0 1 1.21.81 4.84 4.84 0 0 1 .95 1.14l.05.1h1.64v-.1a4.61 4.61 0 0 1 1-1.14 5.56 5.56 0 0 1 1.23-.77 6 6 0 0 1 1.36-.5c.24-.05.47-.11.71-.14s.5-.06.71-.07a13.93 13.93 0 0 1 2.79.12 13.5 13.5 0 0 1 1.38.28c.23.05.45.12.68.19l.32.11c-.22-1-.38-1.84-.37-1.91-.28-1-.12-2.14-2-.57-.16.13.59-3.16-1.06-3.53s-1.6 1-2.1 1-1.6-2.93-3.35-3.36-1.43.88-2.32.88a3.54 3.54 0 0 1-3.52-3.24 3 3 0 0 1-2.4 1.22 3.18 3.18 0 0 1-.62-.07c.08.28-1.23 1.6-1.38 1.91-.63 1.25 0 3.19-.41 3.31s-.6-2.06-1.62-1a2.4 2.4 0 0 0-.72 1c-.33 1.11.37 2.66-.1 2.84s-1.15-2.34-1.5 1.1c0 .58-.1 1.17-.09 1.76zm16.51-5.17a4.25 4.25 0 0 1 3 0 25 25 0 0 0-5.14 2 4.18 4.18 0 0 1 2.14-2.04zM29.09 21a4.17 4.17 0 0 1 2.28 1.89 24.83 24.83 0 0 0-5.23-1.78 4.22 4.22 0 0 1 2.95-.11zm-3.43 6.08a2.61 2.61 0 0 0-.24.66.13.13 0 0 1-.05.07.15.15 0 0 1-.15 0h-.12l.06.15a4.53 4.53 0 0 0 .39.72l.33.37a3.74 3.74 0 0 1-.19-.73 4.24 4.24 0 0 1-.03-1.24zm18.54.76l-.05-.07a2.61 2.61 0 0 0-.24-.66 3.91 3.91 0 0 1 0 1.23 3.55 3.55 0 0 1-.39 1.19 1.43 1.43 0 0 0 .31-.24 3.23 3.23 0 0 0 .54-.57 4.57 4.57 0 0 0 .4-.72 2.14 2.14 0 0 0 .09-.27 2 2 0 0 1-.48.13.15.15 0 0 1-.18-.02zm-11.94 12.9s-.06.64-.15 1.56a9.82 9.82 0 0 0 3.22.76 6.65 6.65 0 0 0 2.67-.69l-.14-1.63z" fill="#ffceaa"/><path d="M34.34 32.75a1.44 1.44 0 0 0 .6.18 1.52 1.52 0 0 0 .85-.37c.42-.3 1.21-.75 1-1.13a6.67 6.67 0 0 0-3.27-.11 1.21 1.21 0 0 0-.43.14c-.12.08-.08.23 0 .36a4.38 4.38 0 0 0 1.25.93z" fill="#eda672"/><path d="M48.63 22.23c-.16.36-.32.51-.47.52 0 1.07 0 2.19-.13 3.32a.45.45 0 0 1 .12.29v.37a.38.38 0 0 1-.21.34c-.1 1-.24 2-.43 3-.06.33-.13.65-.2 1v.07c-.08.34-.17.67-.26 1-.05.15-.09.31-.14.46l-.09.27a14.28 14.28 0 0 1-1.27 2.91 14.11 14.11 0 0 1-1.34 1.86 17 17 0 0 1-3.93 3.52c-.33.21-.65.41-1 .59l-.13.08-.61.33-.55.29.23 1.84c1-.1 1.36 1.84 2.25 1.37.63-.32.59-1.73 1.29-1.79 1.09-.08.92 1.42 2.13 1.46.54 0 1.11-1.41 1.62-1.54 1.37-.33 1.34.75 2 .91a6.41 6.41 0 0 1 .25-.65c0 .18.07.4.12.64a1.2 1.2 0 0 0 .27-.07c.88-.36 4.07-17.7 3.5-20.58a23.26 23.26 0 0 0-1.33-4.44.09.09 0 0 1-.09 0c-1.73-.38-.89 1.12-1.6 2.63zM32.1 42.3a16.13 16.13 0 0 1-5.85-4.3c-2.05-2.27-3.25-6.86-3.73-10.87H22a.39.39 0 0 1-.39-.4v-.37A.39.39 0 0 1 22 26h.36a22.46 22.46 0 0 1 0-4.94c1.28-8.62 5.57-9.86 11.77-10.87a63.02 63.02 0 0 0-3.34-1 2.64 2.64 0 0 1-.95-.43c-2.4.69-3 .93-3.62 2a9.52 9.52 0 0 1-2.54 2 11.49 11.49 0 0 0-2.21 2.54c-.18.29-1.74 3.82-1.75 3.83-2.09 2.75 2.5 25.56 4 25.52s.62-1.92 1.88-1.87c1.08 0 .83 1.84 1.37 1.81 1.46-.08.71-1.67 1.63-1.67 1.37 0 .85 2.4 1.45 2.71s1.21-1.9 1.95-1.79c0-.22 0-.44.06-.64zm16.53-25.94c.09.14.17.27.26.39zM48 18.54v.6a.84.84 0 0 0 0-.6z" fill="#c1472b"/><path d="M32 43.09c0 .2 0 .42-.06.64zM47.31 31v.07zm-8.76 11.1l.61-.33zM22.5 24.2c.35-3.44 1-.91 1.5-1.1s-.23-1.73.1-2.84a2.4 2.4 0 0 1 .72-1c1-1.06 1.15 1.13 1.62 1s-.22-2.06.41-3.31c.15-.31 1.46-1.63 1.38-1.91a3.18 3.18 0 0 0 .62.07 3 3 0 0 0 2.4-1.22 3.54 3.54 0 0 0 3.52 3.24c.89 0 .58-1.31 2.32-.88s2.84 3.36 3.35 3.36.44-1.41 2.1-1 .9 3.66 1.06 3.53c1.84-1.57 1.68-.47 2 .57 0 .07.15.9.37 1.91l.38.14.44.19v.48a4.17 4.17 0 0 1 0 .52h1a.44.44 0 0 1 .27.11c.09-1.13.13-2.25.13-3.32-.45 0-.7-1.56-.19-3.32a1.21 1.21 0 0 0 .07-.29v-.6c-.42-.6-2.38.92-2.9 2-.65 1.4-1.49.1-1.11-1.82s-1.48-3.57-2.4-4.39-.53 0-.81 1.45-1.54-.06-1.23-2.14c.21-1.41-2.7-2.63-5.4-3.52-6.2 1-10.49 2.25-11.77 10.87a22.46 22.46 0 0 0 0 4.94c-.05-.55.02-1.14.05-1.72zm24.04 2.91a.44.44 0 0 1 0 .1 4.31 4.31 0 0 0 .39 1.24c.16 0 .05-.72.1-1.32h-.38zm.46 4.97c-.05.15-.09.31-.14.46.08-.15.14-.31.14-.46zm.51-2.08c.19-1 .33-2 .43-3h-.1a24.76 24.76 0 0 1-.33 3zm-7.25 11.1c-.32.2-.64.4-1 .59.35-.18.67-.38 1-.59zm5.27-5.38a14.28 14.28 0 0 0 1.27-2.91 15.38 15.38 0 0 1-2.61 4.77 14.11 14.11 0 0 0 1.34-1.86zm-23.01-8.59c.49 4 1.68 8.6 3.73 10.87a16.13 16.13 0 0 0 5.85 4.3c-6.2-3.01-8.8-9.19-9.58-15.17z" fill="#c1472b"/><path d="M39.67 20.79a4.18 4.18 0 0 0-2.18 2 25 25 0 0 1 5.14-2 4.25 4.25 0 0 0-2.96 0zM29.09 21a4.22 4.22 0 0 0-2.95.11 24.83 24.83 0 0 1 5.23 1.78A4.17 4.17 0 0 0 29.09 21z" fill="#d5532c"/><path d="M31.49 37v-.06a7 7 0 0 0-.78.24c-.14.05-.33 0-.37-.09-.14-.41-.24-.18-.16.1l.09.65c.11.35.25-.4.46-.5a2.33 2.33 0 0 1 .65-.19L31.3 37zm6.86.1s-.05.09-.07.14a2.83 2.83 0 0 1 .6.25c.19.12.25.88.4.54l.15-.63c.11-.27 0-.51-.14-.11 0 .11-.25.11-.38 0s-.38-.17-.65-.27zm-.12.13h-.13a14.43 14.43 0 0 1-3 .24 12.55 12.55 0 0 1-3.39-.36l-.29.06a6.45 6.45 0 0 0 2.17 1.75A3.14 3.14 0 0 0 36 39a4.08 4.08 0 0 0 2.27-1.8z" fill="#aa4c3f"/><path d="M31.68 37.07a.56.56 0 0 1-.19-.09h-.19l.08.12zm6.58.01s0 .08-.16.11h.18c0-.05 0-.1.07-.14zm-4.77-.43l.53-.06a11.27 11.27 0 0 1 1.54.06c.3 0 .91.13 1.49.22l-.71-.21c-.68-.45.89 0 1.92.4A5.34 5.34 0 0 0 35 35.59a5.46 5.46 0 0 0-3.5 1.3c.91-.2 2.14-.42 1.99-.24z" fill="#aa4c3f"/><path d="M31.49 37c.4-.07 1.34-.24 2-.33.15-.18-1.08 0-2 .27 0 0-.02.06 0 .06zm4.85-.34l.71.21 1.21.21c-1.03-.41-2.6-.87-1.92-.42z" fill="#aa4c3f"/><path d="M35.56 36.65a11.27 11.27 0 0 0-1.56-.06l-.53.06a.43.43 0 0 1-.15.11l-1.66.31a12.55 12.55 0 0 0 3.39.36 14.43 14.43 0 0 0 3-.24L37 36.87c-.53-.09-1.14-.19-1.44-.22z" fill="#aa4c3f"/><path d="M33.49 36.65c-.66.09-1.6.26-2 .33a.56.56 0 0 0 .19.09l1.66-.31a.43.43 0 0 0 .15-.11zm4.77.43l-1.21-.21 1.05.32c.11-.03.15-.07.16-.11z" fill="#aa4c3f"/><path d="M31.55 27.25a.34.34 0 0 1-.14-.15A2.73 2.73 0 0 0 30 25.52a3.51 3.51 0 0 0-2.55 0 3.45 3.45 0 0 0-1.82 1.54 4.24 4.24 0 0 0 0 1.23 3.74 3.74 0 0 0 .19.73 2 2 0 0 0 .21.2 1.28 1.28 0 0 0 .32.24 2.77 2.77 0 0 0 .34.2 3.33 3.33 0 0 0 .77.26 3.4 3.4 0 0 0 .84.11h.91a8.18 8.18 0 0 0 .89-.08c.24 0 .48-.08.71-.14a4.42 4.42 0 0 0 .74-2.56zm-2.22 2.18a1.3 1.3 0 0 1-1.94-.27 2.12 2.12 0 0 1-.12-2.44 1.79 1.79 0 0 1 .74-.67 1.44 1.44 0 0 1 1-.08 1.56 1.56 0 0 1 .94 1.2 2.17 2.17 0 0 1-.62 2.26z" fill="#fff"/><path d="M29.05 26a1.44 1.44 0 0 0-1 .08 1.79 1.79 0 0 0-.74.67 2.12 2.12 0 0 0 .12 2.44 1.3 1.3 0 0 0 1.94.27 2.17 2.17 0 0 0 .63-2.29 1.56 1.56 0 0 0-.95-1.17z" fill="#4c0c0a"/><path d="M29.72 25.15h-1.01l.87.15a2.43 2.43 0 0 1 1.91 1.59 1.58 1.58 0 0 1 .06.37.18.18 0 0 0 .27-.09 2.62 2.62 0 0 0-.82-1.79l-.65-.16a5.79 5.79 0 0 0-.63-.07zm-4.38 2.69h-.15a.15.15 0 0 0 .15 0zm.07-1.64a2.61 2.61 0 0 0-.38 1h.46c-.17.23-.13.38-.12.65a.13.13 0 0 0 .05-.07 2.61 2.61 0 0 1 .24-.66 1.78 1.78 0 0 1 .16-.51A3.35 3.35 0 0 1 28 25.18h-.2c-.42.05-.84.11-1.25.2-.23.05-.45.12-.67.18a3.83 3.83 0 0 0-.47.64z" fill="#eda672"/><path d="M29.58 25.29l-.87-.15h-.67a3.35 3.35 0 0 0-2.22 1.39 1.78 1.78 0 0 0-.16.51 3.45 3.45 0 0 1 1.82-1.54 3.51 3.51 0 0 1 2.55 0 2.73 2.73 0 0 1 1.38 1.58.34.34 0 0 0 .14.15 1.58 1.58 0 0 0-.06-.37 2.43 2.43 0 0 0-1.91-1.57zM25 27.38v-.19h-.1a6 6 0 0 0 .2.6h.09a.51.51 0 0 1-.19-.41zm.37.46z" fill="#eda672"/><path d="M25.49 27.16h-.46v.19a.51.51 0 0 0 .17.43h.15c.01-.24-.03-.39.14-.62z" fill="#eda672"/><path d="M43.88 27.08a3.45 3.45 0 0 0-1.82-1.54 3.51 3.51 0 0 0-2.55 0 2.73 2.73 0 0 0-1.38 1.58.26.26 0 0 1-.14.15 4.54 4.54 0 0 0 .57 2.42 2.85 2.85 0 0 0 .31.12 8.2 8.2 0 0 0 .86.18 8.6 8.6 0 0 0 .9.08h.9a3.28 3.28 0 0 0 .84-.11 3.41 3.41 0 0 0 .78-.26 2.48 2.48 0 0 0 .31-.18 3.55 3.55 0 0 0 .39-1.19 3.91 3.91 0 0 0 .03-1.25zm-1.73 2.08a1.3 1.3 0 0 1-1.94.27 2.17 2.17 0 0 1-.66-2.26 1.58 1.58 0 0 1 .94-1.2 1.39 1.39 0 0 1 1 .08 1.79 1.79 0 0 1 .74.67 2.09 2.09 0 0 1-.08 2.44z" fill="#fff"/><path d="M41.53 26.05a1.39 1.39 0 0 0-1-.08 1.58 1.58 0 0 0-.94 1.2 2.17 2.17 0 0 0 .66 2.26 1.3 1.3 0 0 0 1.94-.27 2.09 2.09 0 0 0 .12-2.44 1.79 1.79 0 0 0-.78-.67z" fill="#4c0c0a"/><path d="M38 27.25a1.58 1.58 0 0 1 .06-.37A2.43 2.43 0 0 1 40 25.29l.92-.16h-.74a5.34 5.34 0 0 0-1.77.41 2.68 2.68 0 0 0-.67 1.59.18.18 0 0 0 .26.12zm4.06-2.05l-.7-.06a3.54 3.54 0 0 1 2.36 1.43 1.78 1.78 0 0 1 .16.51 2.61 2.61 0 0 1 .24.66s0 .05.05.07c0-.27 0-.42-.12-.65h.46a2.61 2.61 0 0 0-.38-1 3.57 3.57 0 0 0-.64-.75l-.18-.05c-.41-.05-.83-.11-1.25-.16zm2.29 2.61h-.15a.15.15 0 0 0 .15 0z" fill="#eda672"/><path d="M41.36 25.14h-.48l-.92.16a2.43 2.43 0 0 0-1.91 1.59 1.58 1.58 0 0 0-.06.37.26.26 0 0 0 .14-.15 2.73 2.73 0 0 1 1.38-1.58 3.51 3.51 0 0 1 2.55 0 3.45 3.45 0 0 1 1.82 1.54 1.78 1.78 0 0 0-.16-.51 3.54 3.54 0 0 0-2.36-1.42zm3.15 2.05a1.54 1.54 0 0 1 0 .19.54.54 0 0 1-.18.43 2 2 0 0 0 .48-.13 3.57 3.57 0 0 0 .16-.46zm-.34.65z" fill="#eda672"/><path d="M44.17 27.81h.15a.54.54 0 0 0 .18-.43 1.54 1.54 0 0 0 0-.19h-.46c.18.2.14.35.13.62z" fill="#eda672"/><path d="M22.44 26.46a.59.59 0 0 0 0 .13 1.36 1.36 0 0 1 0-.2z" fill="#b53116"/><path d="M45.61 24.51c-.23-.07-.45-.14-.68-.19a13.5 13.5 0 0 0-1.38-.32 13.93 13.93 0 0 0-2.79-.12c-.21 0-.48 0-.71.07s-.47.09-.71.14a6 6 0 0 0-1.36.5 5.56 5.56 0 0 0-1.21.81 4.61 4.61 0 0 0-1 1.14v.1h-1.64l-.05-.1a4.84 4.84 0 0 0-.95-1.14 6.09 6.09 0 0 0-1.21-.81 6 6 0 0 0-1.36-.5c-.24-.05-.47-.11-.71-.14s-.5-.06-.71-.07a13.93 13.93 0 0 0-2.79.12 12.49 12.49 0 0 0-1.38.28c-.23.05-.46.12-.68.19s-.45.15-.7.25l-.44.19v1h-.75a3 3 0 0 0 0 .43 1.36 1.36 0 0 0 0 .2l.06.54h.64a.35.35 0 0 0 .18-.05c0 .16.08.32.13.48a6.14 6.14 0 0 0 .4 1 7 7 0 0 0 .58.94 5.36 5.36 0 0 0 .8.78 2.17 2.17 0 0 0 .47.32 3.33 3.33 0 0 0 .5.25 4.36 4.36 0 0 0 1.05.31 4.28 4.28 0 0 0 1.06.1h1.01c.31 0 .68-.09 1-.13s.67-.14 1-.26a5.77 5.77 0 0 0 1-.41 3.65 3.65 0 0 0 1.57-1.52 2.44 2.44 0 0 0 .21-.53 1.55 1.55 0 0 0 .06-.31v-.47h1.6v.47l.06.31a2.47 2.47 0 0 0 .22.53 3.68 3.68 0 0 0 1.56 1.52 6.26 6.26 0 0 0 1 .41c.33.12.66.17 1 .26s.7.12 1 .13h1.01a4.28 4.28 0 0 0 1.06-.1 4.5 4.5 0 0 0 1-.31 3.33 3.33 0 0 0 .5-.25 2.37 2.37 0 0 0 .46-.32 5 5 0 0 0 .81-.78 7 7 0 0 0 .58-.94 6.09 6.09 0 0 0 .39-1c0-.12.07-.24.1-.35-.19-.76-.41-1.74-.59-2.59zm-12.36 3.24a1.25 1.25 0 0 1-.2.69 2.77 2.77 0 0 1-1.21 1 4.63 4.63 0 0 1-.81.3h-.16a1.81 1.81 0 0 1-.18.21 2.4 2.4 0 0 1-1.26.63 3.91 3.91 0 0 1-2.72-.4 2.78 2.78 0 0 1-.83-1.18l-.33-.37a4.53 4.53 0 0 1-.39-.72l-.06-.15a3.34 3.34 0 0 1-1.16-.55l1-.05a4.79 4.79 0 0 1-.16-.84v-.35h.09l.58-.21.55-.14a3.82 3.82 0 0 1 3.46-1.08 3.54 3.54 0 0 1 1.59.88 3.82 3.82 0 0 1 .51.18 4.73 4.73 0 0 1 1 .61 4.19 4.19 0 0 1 .75.77zm11.58-.07a2.14 2.14 0 0 1-.09.27 4.57 4.57 0 0 1-.4.72 3.23 3.23 0 0 1-.54.57 1.43 1.43 0 0 1-.31.24 2.7 2.7 0 0 1-.62.77 4 4 0 0 1-2.73.4 2.4 2.4 0 0 1-1.29-.65 1.53 1.53 0 0 1-.29-.37c-.17-.06-.34-.11-.5-.18a2.77 2.77 0 0 1-1.21-1 1.18 1.18 0 0 1-.2-.69v-.81a3.63 3.63 0 0 1 .75-.77 4.9 4.9 0 0 1 1-.6 3.49 3.49 0 0 1 1.78-1.07 3.82 3.82 0 0 1 3.32.95c.35.08.69.16 1 .27l.59.21h.09v.35a5.93 5.93 0 0 1-.16.84.14.14 0 0 1 0 .06h.61a4.46 4.46 0 0 1-.8.49zm3.04-1.41c-.64-.16-.82.31-.86.86h.83v-.65c.04-.08.03-.15.03-.21z" fill="#b53116"/><path d="M22.44 26.46v-.07c0-.14 0-.29-.05-.43H22a.39.39 0 0 0-.39.4v.37a.39.39 0 0 0 .39.4h.49l-.06-.54a.59.59 0 0 1 .01-.13zm25.71.27v-.37a.45.45 0 0 0-.12-.29c0 .34-.05.67-.09 1a.38.38 0 0 0 .21-.34z" fill="#b53116"/><path d="M46.73 26a4.17 4.17 0 0 0 0-.52V25l-.44-.19-.38-.14c.18.85.4 1.83.59 2.59a.44.44 0 0 0 0-.1h.5c0-.55.22-1 .86-.86v.84h.1c0-.33.06-.66.09-1a.44.44 0 0 0-.27-.11zm-24.32 0c0 .14 0 .29.05.43a3 3 0 0 1-.05-.43zm.05.59l.06.54zm6.81 3.46h-.91a3.4 3.4 0 0 1-.84-.11 3.33 3.33 0 0 1-.77-.26 2.77 2.77 0 0 1-.34-.2 1.28 1.28 0 0 1-.32-.24 2 2 0 0 1-.21-.2 2.78 2.78 0 0 0 .83 1.23 3.91 3.91 0 0 0 2.72.4 2.4 2.4 0 0 0 1.26-.67 1.81 1.81 0 0 0 .18-.21c-.23.06-.47.09-.71.14a8.18 8.18 0 0 1-.89.12zm-1.43-4.85h.2l.35-.09.32.05h1.01a5.79 5.79 0 0 1 .6.07l.65.16a3.54 3.54 0 0 0-1.59-.88 3.82 3.82 0 0 0-3.46 1.08c.22-.06.44-.13.67-.18.41-.1.83-.16 1.25-.21z" fill="#b53116"/><path d="M28.39 25.09l-.35.09h.67zm-4.45 2.16a3.34 3.34 0 0 0 1.16.55 6 6 0 0 1-.2-.6zm18.43 2.69a3.28 3.28 0 0 1-.84.11h-.9a8.6 8.6 0 0 1-.9-.08 8.2 8.2 0 0 1-.86-.18 2.85 2.85 0 0 1-.31-.12 1.53 1.53 0 0 0 .29.37 2.4 2.4 0 0 0 1.26.63 4 4 0 0 0 2.73-.4 2.7 2.7 0 0 0 .62-.77 2.48 2.48 0 0 1-.31.18 3.41 3.41 0 0 1-.78.26zm-2.8-4.72a6 6 0 0 1 .61-.07h.97l.21.05.7.06c.42.05.84.11 1.25.2l.18.05a3.82 3.82 0 0 0-3.32-.95 3.49 3.49 0 0 0-1.78 1.07 5.93 5.93 0 0 1 1.18-.41zm1.58-.13h-.27.48zm3.68 2.59a4.46 4.46 0 0 0 .77-.43h-.61a3.57 3.57 0 0 1-.16.43z" fill="#b53116"/><path d="M33.88 56.7c-1.44-.05-2.73-.16-3.9-.31l.41 1.14 4.7 10.81V56.72c-.37 0-.78 0-1.21-.02z" fill="#d8e2ef"/><path d="M28.56 51.8c.41 1.54.9 3.09 1.42 4.59 1.17.15 2.46.26 3.9.31h1.24v-6.9l-2.85 4.66z" fill="#d8e2ef"/><path d="M29.05 49.64l.93-.42 1.3-.58a3 3 0 0 0 .23-1h-1.1L28 49.58z" fill="#fff"/><path d="M30 49.22l-.93.42 6.07.16v-2.15h-3.63a3 3 0 0 1-.23 1zm-2 .4c0 .15.07.3.1.46l.92-.44zm4.27 4.84l2.85-4.66-6.07-.16-.92.44c.13.57.27 1.14.43 1.72z" fill="#fff"/><path d="M42.54 49.61h-.27l.2.16c.02-.05.05-.1.07-.16zm-7.42 7.11v11.66l.05-.12.24-.46 5-11.42a35 35 0 0 1-5.29.34zM42 51.57l-.91.65c0 .91-.05 1.79-.12 2.66.39-1.09.73-2.2 1.03-3.31z" fill="#d8e2ef"/><path d="M35.12 56.72a35 35 0 0 0 5.33-.36l.07-.15c.16-.44.31-.88.46-1.33.07-.87.12-1.75.12-2.66L38 54.46l-2.88-4.66z" fill="#d8e2ef"/><path d="M40.46 49.67l1.81-.05-2.44-2h-1.39v.36a4.5 4.5 0 0 1 2.02 1.69z" fill="#fff"/><path d="M40.29 49.59l.14.08a4.5 4.5 0 0 0-2-1.66l.07.73c.62.26 1.21.54 1.79.85zM38.47 48v-.36h-.97a7.1 7.1 0 0 1 .97.36z" fill="#fff"/><path d="M35.12 49.8l5.31-.13-.14-.08c-.58-.31-1.17-.6-1.75-.85l-.07-.74a7.1 7.1 0 0 0-1-.36h-2.35v2.16zm5.35-.11c.6.32 1.2.66 1.77 1l.21-.86v-.06l-.2-.16-1.81.05zm0 0z" fill="#fff"/><path d="M41.1 52.22l.91-.65c.08-.29.16-.58.23-.87-.57-.35-1.17-.69-1.77-1a4.49 4.49 0 0 1 .63 2.42z" fill="#fff"/><path d="M35.12 49.8L38 54.46l3.12-2.24v-.11a4.49 4.49 0 0 0-.63-2.42z" fill="#fff"/><path d="M23.38 51.25a5.75 5.75 0 0 0-1.27.12 7.6 7.6 0 0 1 1.25-.1zm-4.77 2.1a1.58 1.58 0 0 0-.12.15 1.19 1.19 0 0 1 .12-.15zM35 68.24l.01.01v-.01H35zm-.3-.13l.21.32v-.23zm.64.4l.29-.46-.29.12zm-.05-.32z" fill="#d9a155"/><path d="M50.78 53h.15a12.28 12.28 0 0 0-4.18-1.54A11.93 11.93 0 0 1 50.78 53zm-32.17.35a6.59 6.59 0 0 1 3.5-2 5.1 5.1 0 0 0-3.5 2z" fill="#c98f49"/><path d="M21.92 54.27v-.17l-.35-.21a2.92 2.92 0 0 1 .5-.48v-.22a5.27 5.27 0 0 1 1.21-1.92 7.6 7.6 0 0 0-1.25.1 6.59 6.59 0 0 0-3.5 2 1.19 1.19 0 0 0-.09.15 9.68 9.68 0 0 1 3.48.75zm2.95 9.46c.68-1.08 1.48-2.31 1.48-2.31s-.42-.12-1.51-.47a17.85 17.85 0 0 1-1.11 4.67v-.06c-.1.78-.19 1.55-.28 2.32a34.76 34.76 0 0 0 7.51 1.72c-.5-1-1-2.22-1.51-3.52-2.99-1.02-5.02-1.66-4.58-2.35z" fill="#c98f49"/><path d="M34.7 68.11a54.08 54.08 0 0 0-5.29-2c.49 1.3 1 2.47 1.51 3.52a35 35 0 0 0 4 .23v-1.4zM21.6 53.89l.35.21c.05-.23.09-.46.15-.69a2.92 2.92 0 0 0-.5.48zm22.27 7.75L45.29 64c.53.89-2.94 1.61-7.24 3.16-.39 1-.79 1.86-1.18 2.67a34.83 34.83 0 0 0 9.56-1.9l-.54-6.83c-1.48.4-2.02.54-2.02.54zm4.33-7.81a6 6 0 0 1 1.92-.77 5 5 0 0 1 .66-.09 11.93 11.93 0 0 0-4-1.55 5.75 5.75 0 0 1 1.39 2.17 2 2 0 0 1 .03.24z" fill="#c98f49"/><path d="M35.63 68.05l-.29.46v1.31h1.53c.39-.81.79-1.71 1.18-2.67-.78.24-1.6.55-2.42.9z" fill="#c98f49"/><path fill="#b0772b" d="M35.01 68.25l.11.18-.03-.09-.08-.09zm.08.09l.03.09v-.05l-.03-.04zm-.09-.09h-.09v.23l.21.34v-.34z"/><path d="M34.91 68.43v1.4h.21v-1.06zm.21 0l.11-.18-.07.08-.04.1z" fill="#b0772b"/><path fill="#b0772b" d="M35.12 68.38v.05l.04-.1-.04.05zm.17-.19v.06l-.12.18v.34l.19-.3v-.34zm-.14.62v1.06h.22v-1.36z"/><path d="M56 58.22c-.2.14-2.88 2-3 3.2a.68.68 0 0 1-.19.4v3.09a34.08 34.08 0 0 0 3.27-2.21c.02-1.49 0-2.99-.08-4.48zm0-.38v-.44a1.48 1.48 0 0 1 0 .22z" fill="#d9a155"/><path d="M52.86 61.82a2 2 0 0 1-.5.38 8 8 0 0 0 .17 2.52 2.21 2.21 0 0 1 .07.3l.19-.11v-.81c.03-.86.04-1.61.07-2.28z" fill="#d9a155"/><path d="M52.36 62.2c-.53.29-1.16.54-1.13 1.18a3.72 3.72 0 0 1-.88 2.86c.77-.38 1.52-.79 2.25-1.22a2.21 2.21 0 0 0-.07-.3 8 8 0 0 1-.17-2.52z" fill="#d9a155"/><path d="M52.38 54.73c.13.3.24.58.33.85l3.29 1.8a5 5 0 0 0-2-3.51 4.79 4.79 0 0 0-3.07-.87 3.3 3.3 0 0 1 1.45 1.73z" fill="#c98f49"/><path d="M52.71 55.58c-.09-.27-.2-.55-.33-.85a5.55 5.55 0 0 1 .14.75zm-.33-.85A3.3 3.3 0 0 0 50.93 53h-.15a4.29 4.29 0 0 1 1.6 1.73z" fill="#c98f49"/><path d="M48.2 53.83a12.69 12.69 0 0 1 .28 3.17l3.43-1.86.61.33a5.55 5.55 0 0 0-.14-.75 4.29 4.29 0 0 0-1.6-1.72 5 5 0 0 0-.66.09 6 6 0 0 0-1.92.74zm7.8 3.79a1.48 1.48 0 0 0 0-.22zm.05.59v-.37.38zm-9.78 5.11c-.06-.77-.14-1.54-.23-2.31h-.15l.54 6.83v-2.16c0-.72-.1-1.56-.16-2.36z" fill="#c98f49"/><path d="M53.85 59.22c-.31.35-.6.71-.91 1 0 .47-.06 1-.08 1.56a.68.68 0 0 0 .19-.4c.1-1.18 2.78-3.06 3-3.2v-.6c-.05 1.2-1.37.7-2.2 1.64z" fill="#c98f49"/><path d="M52.44 60.73c0 .51-.06 1-.08 1.47a2 2 0 0 0 .5-.38c0-.58 0-1.09.08-1.56a4.42 4.42 0 0 1-.5.47z" fill="#c98f49"/><path d="M52.36 62.2c0-.47 0-1 .08-1.47a2.58 2.58 0 0 1-1.65.66c-1.43 0-2.32 1.07-3.3.28a5.11 5.11 0 0 1-.82-.86L46 61c.09.77.17 1.54.23 2.31s.11 1.6.14 2.4 0 1.44 0 2.16a35.43 35.43 0 0 0 3.91-1.64 3.72 3.72 0 0 0 .88-2.86c.04-.63.67-.88 1.2-1.17zM56 57.41l-3.27-1.8a7 7 0 0 1 .34 2.15z" fill="#c98f49"/><path d="M52.61 57.78l.44-.05a7 7 0 0 0-.34-2.15l-.19-.1a15.24 15.24 0 0 1 .09 2.3z" fill="#c98f49"/><path d="M52.52 55.48l-.61-.33L48.48 57a11.71 11.71 0 0 1-.11 1.23l4.24-.46a15.24 15.24 0 0 0-.09-2.29zm.42 4.78c.31-.33.6-.69.91-1 .83-.94 2.13-.44 2.15-1.6v-.21l-2.93.32c-.01.66-.07 1.46-.13 2.49z" fill="#c98f49"/><path d="M52.94 60.26c.06-1 .12-1.83.11-2.53l-.44.05c0 1-.1 2-.17 2.95a4.42 4.42 0 0 0 .5-.47z" fill="#c98f49"/><path d="M48.37 58.24c-.18 1.24-.57 2.22-1.19 2.41l-.51.16a5.11 5.11 0 0 0 .82.86c1 .79 1.87-.23 3.3-.28a2.58 2.58 0 0 0 1.65-.66c.07-1 .15-2 .17-2.95z" fill="#c98f49"/><path d="M17.28 61.1c-1-1.49-2.4-1.66-2.81-3.06a32 32 0 0 0-.47 4.82 35.43 35.43 0 0 0 3.94 2.56v-.13c-.24-1.62-.46-3.05-.66-4.19zm-2.38-4.77a1.66 1.66 0 0 0-.06.21c0-.07.05-.14.07-.2zm3.02 9.09v-.13z" fill="#d9a155"/><path d="M17.28 61.1c.2 1.14.42 2.57.63 4.19-.14-1.32-.33-2.67-.48-4l-.07-.09a.76.76 0 0 1-.08-.1z" fill="#d9a155"/><path d="M20.9 63.12c-1.47-.24-2.22-.14-3.47-1.82.15 1.32.34 2.67.48 4v.13a34.19 34.19 0 0 0 5.48 2.46c.09-.77.18-1.54.28-2.32a8.24 8.24 0 0 0-2.77-2.45z" fill="#d9a155"/><path d="M14.45 58c.11-.53.23-1 .37-1.5a14.08 14.08 0 0 0-.37 1.5zm3.12-2.82a4.58 4.58 0 0 1 .92-1.68 2.48 2.48 0 0 0-.71.08A4.63 4.63 0 0 0 15.69 55a3.68 3.68 0 0 0-.78 1.3L17 57a10.19 10.19 0 0 1 .57-1.82z" fill="#c98f49"/><path d="M18.52 53.5a4.58 4.58 0 0 0-.92 1.68 10.83 10.83 0 0 1 .92-1.68zm-.95 1.68A10.19 10.19 0 0 0 17 57l.29.09a8.27 8.27 0 0 1 .28-1.91zm6.12 10.38v.06A17.85 17.85 0 0 0 24.84 61l-.42-.13c-.27 1.52-.52 3.13-.73 4.69z" fill="#c98f49"/><path d="M22 58.7a12.57 12.57 0 0 1-.07-4.43 9.68 9.68 0 0 0-3.4-.77 10.83 10.83 0 0 0-.95 1.68 8.27 8.27 0 0 0-.33 1.93zm-4.72 2.4c-.31-1.73-.55-2.79-.55-2.79A8 8 0 0 1 17 57l-2-.68c0 .06 0 .13-.07.2-.14.47-.26 1-.37 1.5.32 1.42 1.69 1.59 2.72 3.08z" fill="#c98f49"/><path d="M17.24 57.11L17 57a8 8 0 0 0-.22 1.29s.24 1.06.55 2.79a.76.76 0 0 0 .08.11l.07.09a23.37 23.37 0 0 1-.24-4.17z" fill="#c98f49"/><path d="M23 60.35c-.49-.16-.82-.79-1-1.65l-4.75-1.59a23.37 23.37 0 0 0 .19 4.19c1.25 1.68 2 1.58 3.47 1.82a8.24 8.24 0 0 1 2.79 2.44c.21-1.59.46-3.17.73-4.74z" fill="#c98f49"/><path d="M24.48 51.92c.66-.36 1.37-.73 2.09-1.08l.38-.19-.13-.09.25-.2a2.4 2.4 0 0 1 .11-.23l-.24-.54h.51c.12-.17.25-.33.38-.48-.68-.89-3 .51-4.45 2.13a4.92 4.92 0 0 1 .71.06zm5.91 5.61l-.5-1.16c-1.07-.14-2-.31-2.86-.49l8 12.36a103.63 103.63 0 0 1-4.64-10.71z" fill="#b0772b"/><path d="M27.18 50.13a2.4 2.4 0 0 0-.11.23l.15-.13zm.82-.51v-.09a.79.79 0 0 0-.17-.37c-.13.15-.26.31-.38.48zm-1.23 2.49a5.26 5.26 0 0 1 .23-1.44l-.38.19c-.72.35-1.43.72-2.09 1.08L27 55.76a36.12 36.12 0 0 1-.23-3.65z" fill="#b0772b"/><path d="M27.6 51.12l-.6-.45a5.26 5.26 0 0 0-.21 1.44 36.12 36.12 0 0 0 .21 3.65l.08.12c.84.18 1.79.35 2.86.49zm-.66-1.53l.24.54a5.28 5.28 0 0 1 .27-.53zm2.95 6.78l.5 1.16-.39-1.14zM28 49.62h-.53a5.28 5.28 0 0 0-.27.53v.1z" fill="#b0772b"/><path d="M28.56 51.8l-1-.68 2.29 5.25h.09c-.48-1.48-.94-3.03-1.38-4.57zm-1.49-1.44l-.25.2.13.09H27a2.13 2.13 0 0 1 .07-.29zm.93-.78z" fill="#b0772b"/><path d="M27.32 50.47l-.1-.24-.15.13a2.13 2.13 0 0 0-.07.27zm-.32.16h-.05s.05.01.05 0z" fill="#b0772b"/><path d="M27.32 50.47l-.32.16.62.45zm0 0l.81-.39c0-.16-.07-.31-.1-.46H28l-.76.61z" fill="#b0772b"/><path d="M28.56 51.8c-.16-.58-.3-1.15-.43-1.72l-.81.39.28.65zm-4.08.12l-.39-.61.38.61h.01zm-.39-.61a4.92 4.92 0 0 0-.71-.06c.42.03.71.06.71.06zm2.88 4.56v-.01h-.01l.01.01zm7.94 12.26l.09.11-8-12.36h-.06l7.76 12.23.21.09zM27 55.86v-.1l-2.47-3.84zm0 0h.06l-.06-.1v.1z" fill="#b0772b"/><path d="M27 55.86q-1-.21-1.74-.45A15 15 0 0 1 22 54.1v.17a6.52 6.52 0 0 1 .59.29 5.18 5.18 0 0 1 2.43 3.14 11.21 11.21 0 0 1-.1 3.25c1.09.35 1.51.47 1.51.47s-.8 1.23-1.48 2.31c-.44.69 1.59 1.33 4.54 2.35A41.46 41.46 0 0 1 27 55.87zm-2.91-4.55h-.73a5.27 5.27 0 0 0-1.21 1.92v.22a18.3 18.3 0 0 1 2.37-1.49z" fill="#b0772b"/><path d="M29.41 66.08c1.58.54 3.42 1.2 5.29 2L27 55.87a41.46 41.46 0 0 0 2.41 10.21zM27 55.86l-2.49-3.94a18.3 18.3 0 0 0-2.37 1.49c-.06.23-.1.46-.15.69a15 15 0 0 0 3.27 1.31q.74.24 1.74.45zm7.91 12.34H35l-.09-.11zm-9.97-10.5a5.18 5.18 0 0 0-2.43-3.14 6.52 6.52 0 0 0-.59-.29A12.57 12.57 0 0 0 22 58.7l2.63.87c-.08.41-.13.83-.2 1.25l.42.13a11.21 11.21 0 0 0 .09-3.25z" fill="#b0772b"/><path d="M23 60.35l1.41.47c.07-.42.12-.84.2-1.25L22 58.7c.19.86.52 1.49 1 1.65zm17.85-4.05a41.67 41.67 0 0 1-.76 4.43l3.17-4.91c-.72.18-1.52.34-2.41.48zm2.27-5.99l.31.25-.61.43v.06l.8.49c.61.4 1.18.79 1.68 1.14l.88-1.37.59.11c-1.49-1.59-3.66-2.87-4.21-1.81h.9z" fill="#b0772b"/><path d="M40.46 56.36a101.55 101.55 0 0 1-5.05 11.42l-.2.44h.06l4.82-7.47a41.67 41.67 0 0 0 .76-4.43zm.39-.06c.89-.14 1.69-.31 2.41-.48l2-3.14c-.5-.35-1.07-.74-1.68-1.14l-.8-.49L41 55.21c-.07.37-.11.73-.15 1.09zm-.39.06l.39-.06c0-.36.08-.72.11-1.09l-.44 1zm2.34-5.31v-.06zm.32-.74l.32-.72h-.9c0 .06 0 .11-.07.17z" fill="#b0772b"/><path d="M35.21 68.22l.2-.44-.24.46zM42 51.57a90.43 90.43 0 0 1-1 3.31v.33l1.84-4.16zm-1 3.64v-.33c-.15.45-.3.89-.46 1.33zm2.43-4.65l-.31-.25-.3.68.61-.43z" fill="#b0772b"/><path d="M42.82 51l.3-.68-.65-.53v.06l-.21.86.53.33z" fill="#b0772b"/><path d="M42.77 51l-.53-.33c-.07.29-.15.58-.23.87zm3.39.31l-.88 1.37zm-6.07 9.42c0 .13-.07.26-.1.39l3.35-5.32h-.08z" fill="#b0772b"/><path d="M40.09 60.73l-4.82 7.47.05-.06.29-.12 4.39-6.9c0-.12.06-.26.09-.39zm3.25-4.93l2-3.11-2 3.14zm3.42-4.38l-.59-.11z" fill="#b0772b"/><path d="M45.71 58.52a4.62 4.62 0 0 1 1.06-3.43 5.81 5.81 0 0 1 1.43-1.26 2 2 0 0 0-.05-.24 5.75 5.75 0 0 0-1.39-2.17l-.6-.11-.86 1.38c1.34.94 2.22 1.63 2.22 1.63a16.52 16.52 0 0 1-2.78 1.1l-1.4.38L40 61.12a42.19 42.19 0 0 1-1.94 6c4.3-1.55 7.77-2.27 7.24-3.16l-1.42-2.31s.54-.14 2-.59l-.2-2.52z" fill="#b0772b"/><path d="M35.63 68.05c.82-.35 1.64-.66 2.42-.94a42.19 42.19 0 0 0 1.94-6zm9.11-12.63a16.52 16.52 0 0 0 2.78-1.1s-.88-.69-2.22-1.63l-2 3.11zm-9.4 12.71l-.05.06h.05z" fill="#b0772b"/><path d="M48.2 53.83a5.81 5.81 0 0 0-1.43 1.26 4.62 4.62 0 0 0-1.06 3.43L48.48 57a12.69 12.69 0 0 0-.28-3.17zm-2.49 4.69l-.02.01h.02v-.01zm.18 2.53L46 61c-.1-.83-.22-1.66-.35-2.48zm-.2-2.52c.13.82.25 1.65.35 2.48l.63-.2a4.43 4.43 0 0 1-1-2.28zm.02-.01l2.66-.29a11.71 11.71 0 0 0 .11-1.23z" fill="#b0772b"/><path d="M48.37 58.24l-2.66.29a4.43 4.43 0 0 0 1 2.28l.51-.16c.58-.19.97-1.17 1.15-2.41z" fill="#b0772b"/><path d="M49 16.94l-.13-.19a18 18 0 0 1 1.43 2.79c.25-.14-.23-1.28-1.3-2.6z" fill="#dff4fb"/><path d="M49 16.94l-.13-.19a18 18 0 0 1 1.43 2.79c.25-.14-.23-1.28-1.3-2.6z" fill="#9ad8e8" opacity=".69"/><path d="M32.74 7.85a2.86 2.86 0 0 1 2 .28c.22.11 2.63 0 3.43.49.24.15 5 1.78 5.59 2.61.29.39 1.85 1.77 2.09 2a14.69 14.69 0 0 1 2.81 3.13c-1-1.65-2.13-4.52-6.77-6.46-5.73-2.41-8.55-2.43-10.34-2-.41.09-2.2.34-1.67.82.77-.22 1.71-.48 2.89-.83z" fill="#dff4fb"/><path d="M32.74 7.85a2.86 2.86 0 0 1 2 .28c.22.11 2.63 0 3.43.49.24.15 5 1.78 5.59 2.61.29.39 1.85 1.77 2.09 2a14.69 14.69 0 0 1 2.81 3.13c-1-1.65-2.13-4.52-6.77-6.46-5.73-2.41-8.55-2.43-10.34-2-.41.09-2.2.34-1.67.82.77-.22 1.71-.48 2.89-.83z" fill="#9ad8e8" opacity=".69"/><path d="M30.8 9.11c.81.26 2.05.61 3.34 1h.14c6.27-1 12.83 2.59 13.47 6.46.09.54.18 1.21.24 2a.84.84 0 0 1 0 .6c.08 1.08.13 2.3.12 3.61.15 0 .31-.16.47-.52.71-1.51-.13-3 1.6-2.67a.09.09 0 0 0 .09 0 18 18 0 0 0-1.43-2.79c-.09-.12-.17-.25-.26-.39a14.69 14.69 0 0 0-2.81-3.13c-.24-.23-1.8-1.61-2.09-2-.6-.83-5.35-2.46-5.59-2.61-.8-.48-3.21-.38-3.43-.49a2.86 2.86 0 0 0-2-.28c-1.18.35-2.12.61-2.89.83a2.64 2.64 0 0 0 1.03.38z" fill="#c1472b"/><path d="M30.8 9.11c.81.26 2.05.61 3.34 1h.14c6.27-1 12.83 2.59 13.47 6.46.09.54.18 1.21.24 2a.84.84 0 0 1 0 .6c.08 1.08.13 2.3.12 3.61.15 0 .31-.16.47-.52.71-1.51-.13-3 1.6-2.67a.09.09 0 0 0 .09 0 18 18 0 0 0-1.43-2.79c-.09-.12-.17-.25-.26-.39a14.69 14.69 0 0 0-2.81-3.13c-.24-.23-1.8-1.61-2.09-2-.6-.83-5.35-2.46-5.59-2.61-.8-.48-3.21-.38-3.43-.49a2.86 2.86 0 0 0-2-.28c-1.18.35-2.12.61-2.89.83a2.64 2.64 0 0 0 1.03.38z" fill="#9ad8e8" opacity=".69"/><path d="M39.54 13.67c-.31 2.08 1 3.58 1.23 2.14s-.12-2.28.81-1.45 2.77 2.47 2.4 4.39.46 3.22 1.11 1.82c.52-1.11 2.48-2.63 2.9-2-.06-.75-.15-1.42-.24-2-.64-3.87-7.2-7.47-13.47-6.46h-.14c2.7.89 5.61 2.15 5.4 3.56z" fill="#c1472b"/><path d="M39.54 13.67c-.31 2.08 1 3.58 1.23 2.14s-.12-2.28.81-1.45 2.77 2.47 2.4 4.39.46 3.22 1.11 1.82c.52-1.11 2.48-2.63 2.9-2-.06-.75-.15-1.42-.24-2-.64-3.87-7.2-7.47-13.47-6.46h-.14c2.7.89 5.61 2.15 5.4 3.56z" fill="#9ad8e8" opacity=".69"/><path d="M48.16 22.75c0-1.31 0-2.53-.12-3.61a1.21 1.21 0 0 1-.07.29c-.51 1.76-.26 3.33.19 3.32z" fill="#c1472b"/><path d="M48.16 22.75c0-1.31 0-2.53-.12-3.61a1.21 1.21 0 0 1-.07.29c-.51 1.76-.26 3.33.19 3.32z" fill="#9ad8e8" opacity=".69"/><path d="M47.51 44.64c-.25.74-.52 1.86.08 2.2s.5-1.08.29-2.21a.78.78 0 0 1-.37.01z" fill="#dff4fb"/><path d="M47.51 44.64c-.25.74-.52 1.86.08 2.2s.5-1.08.29-2.21a.78.78 0 0 1-.37.01z" fill="#9ad8e8" opacity=".79"/><path d="M47.51 44.64a.78.78 0 0 0 .37 0c-.05-.24-.09-.46-.12-.64a6.41 6.41 0 0 0-.25.64z" fill="#c1472b"/><path d="M47.51 44.64a.78.78 0 0 0 .37 0c-.05-.24-.09-.46-.12-.64a6.41 6.41 0 0 0-.25.64z" fill="#9ad8e8" opacity=".79"/></svg>