<svg xmlns="http://www.w3.org/2000/svg" xmlns:xlink="http://www.w3.org/1999/xlink" viewBox="0 0 308.25 514.51"><defs><linearGradient id="c" x1="18.99" y1="265.48" x2="51.3" y2="265.48" gradientUnits="userSpaceOnUse"><stop offset=".01" stop-color="#d22c20"/><stop offset=".31" stop-color="#e7342e"/><stop offset=".51" stop-color="#ef3733"/><stop offset=".72" stop-color="#e6332d"/><stop offset="1" stop-color="#d22c20"/></linearGradient><linearGradient id="d" x1="-181.01" y1="265.48" x2="-148.7" y2="265.48" gradientTransform="matrix(1 0 0 -1 437.96 530.95)" gradientUnits="userSpaceOnUse"><stop offset=".01" stop-color="#d22c20"/><stop offset=".31" stop-color="#e7342e"/><stop offset=".51" stop-color="#ef3733"/><stop offset=".72" stop-color="#e6332d"/><stop offset="1" stop-color="#d22c20"/></linearGradient><linearGradient id="a" x1="49.78" y1="303.98" x2="19" y2="303.98" gradientUnits="userSpaceOnUse"><stop offset=".05" stop-color="#d3d2d2"/><stop offset=".37" stop-color="#9a9a9c"/><stop offset=".64" stop-color="#9a9a9c"/><stop offset="1" stop-color="#d1d6d5"/></linearGradient><linearGradient id="e" x1="45.65" y1="310.78" x2="23.3" y2="310.78" xlink:href="#a"/><linearGradient id="f" x1="45.65" y1="317.59" x2="23.3" y2="317.59" xlink:href="#a"/><linearGradient id="g" x1="45.65" y1="324.39" x2="23.3" y2="324.39" xlink:href="#a"/><linearGradient id="h" x1="45.65" y1="331.2" x2="23.3" y2="331.2" xlink:href="#a"/><linearGradient id="i" x1="49.78" y1="338" x2="19" y2="338" xlink:href="#a"/><linearGradient id="j" x1="45.79" y1="344.81" x2="23.44" y2="344.81" xlink:href="#a"/><linearGradient id="k" x1="45.79" y1="351.62" x2="23.44" y2="351.62" xlink:href="#a"/><linearGradient id="l" x1="45.79" y1="358.42" x2="23.44" y2="358.42" xlink:href="#a"/><linearGradient id="m" x1="45.79" y1="365.23" x2="23.44" y2="365.23" xlink:href="#a"/><linearGradient id="n" x1="49.92" y1="372.03" x2="19.14" y2="372.03" xlink:href="#a"/><linearGradient id="o" x1="45.65" y1="378.84" x2="23.3" y2="378.84" xlink:href="#a"/><linearGradient id="p" x1="45.65" y1="385.64" x2="23.3" y2="385.64" xlink:href="#a"/><linearGradient id="q" x1="45.65" y1="392.45" x2="23.3" y2="392.45" xlink:href="#a"/><linearGradient id="r" x1="45.65" y1="399.25" x2="23.3" y2="399.25" xlink:href="#a"/><linearGradient id="s" x1="49.78" y1="406.06" x2="19" y2="406.06" xlink:href="#a"/><linearGradient id="t" x1="45.65" y1="412.86" x2="23.3" y2="412.86" xlink:href="#a"/><linearGradient id="u" x1="45.65" y1="419.67" x2="23.3" y2="419.67" xlink:href="#a"/><linearGradient id="v" x1="45.65" y1="426.48" x2="23.3" y2="426.48" xlink:href="#a"/><linearGradient id="w" x1="45.65" y1="433.28" x2="23.3" y2="433.28" xlink:href="#a"/><linearGradient id="x" x1="49.78" y1="440.09" x2="19" y2="440.09" xlink:href="#a"/><linearGradient id="y" x1="49.78" y1="202.11" x2="19" y2="202.11" xlink:href="#a"/><linearGradient id="z" x1="45.65" y1="208.92" x2="23.3" y2="208.92" xlink:href="#a"/><linearGradient id="A" x1="45.65" y1="215.72" x2="23.3" y2="215.72" xlink:href="#a"/><linearGradient id="B" x1="45.65" y1="222.53" x2="23.3" y2="222.53" xlink:href="#a"/><linearGradient id="C" x1="45.65" y1="229.33" x2="23.3" y2="229.33" xlink:href="#a"/><linearGradient id="D" x1="49.78" y1="236.14" x2="19" y2="236.14" xlink:href="#a"/><linearGradient id="E" x1="45.79" y1="242.94" x2="23.44" y2="242.94" xlink:href="#a"/><linearGradient id="F" x1="45.79" y1="249.75" x2="23.44" y2="249.75" xlink:href="#a"/><linearGradient id="G" x1="45.79" y1="256.56" x2="23.44" y2="256.56" xlink:href="#a"/><linearGradient id="H" x1="45.79" y1="263.36" x2="23.44" y2="263.36" xlink:href="#a"/><linearGradient id="I" x1="49.92" y1="270.17" x2="19.14" y2="270.17" xlink:href="#a"/><linearGradient id="J" x1="45.65" y1="276.97" x2="23.3" y2="276.97" xlink:href="#a"/><linearGradient id="K" x1="45.65" y1="283.78" x2="23.3" y2="283.78" xlink:href="#a"/><linearGradient id="L" x1="45.65" y1="290.58" x2="23.3" y2="290.58" xlink:href="#a"/><linearGradient id="M" x1="45.65" y1="297.39" x2="23.3" y2="297.39" xlink:href="#a"/><linearGradient id="N" x1="49.78" y1="304.19" x2="19" y2="304.19" xlink:href="#a"/><linearGradient id="O" x1="45.65" y1="311" x2="23.3" y2="311" xlink:href="#a"/><linearGradient id="P" x1="45.65" y1="317.8" x2="23.3" y2="317.8" xlink:href="#a"/><linearGradient id="Q" x1="45.65" y1="324.61" x2="23.3" y2="324.61" xlink:href="#a"/><linearGradient id="R" x1="45.65" y1="331.42" x2="23.3" y2="331.42" xlink:href="#a"/><linearGradient id="S" x1="49.78" y1="338.22" x2="19" y2="338.22" xlink:href="#a"/><linearGradient id="T" x1="49.78" y1="100.25" x2="19" y2="100.25" xlink:href="#a"/><linearGradient id="U" x1="45.65" y1="107.05" x2="23.3" y2="107.05" xlink:href="#a"/><linearGradient id="V" x1="45.65" y1="113.86" x2="23.3" y2="113.86" xlink:href="#a"/><linearGradient id="W" x1="45.65" y1="120.66" x2="23.3" y2="120.66" xlink:href="#a"/><linearGradient id="X" x1="45.65" y1="127.47" x2="23.3" y2="127.47" xlink:href="#a"/><linearGradient id="Y" x1="49.78" y1="134.27" x2="19" y2="134.27" xlink:href="#a"/><linearGradient id="Z" x1="45.79" y1="141.08" x2="23.44" y2="141.08" xlink:href="#a"/><linearGradient id="aa" x1="45.79" y1="147.88" x2="23.44" y2="147.88" xlink:href="#a"/><linearGradient id="ab" x1="45.79" y1="154.69" x2="23.44" y2="154.69" xlink:href="#a"/><linearGradient id="ac" x1="45.79" y1="161.5" x2="23.44" y2="161.5" xlink:href="#a"/><linearGradient id="ad" x1="49.92" y1="168.3" x2="19.14" y2="168.3" xlink:href="#a"/><linearGradient id="ae" x1="45.65" y1="175.11" x2="23.3" y2="175.11" xlink:href="#a"/><linearGradient id="af" x1="45.65" y1="181.91" x2="23.3" y2="181.91" xlink:href="#a"/><linearGradient id="ag" x1="45.65" y1="188.72" x2="23.3" y2="188.72" xlink:href="#a"/><linearGradient id="ah" x1="45.65" y1="195.52" x2="23.3" y2="195.52" xlink:href="#a"/><linearGradient id="ai" x1="49.78" y1="202.33" x2="19" y2="202.33" xlink:href="#a"/><linearGradient id="aj" x1="45.65" y1="209.13" x2="23.3" y2="209.13" xlink:href="#a"/><linearGradient id="ak" x1="45.65" y1="215.94" x2="23.3" y2="215.94" xlink:href="#a"/><linearGradient id="al" x1="45.65" y1="222.75" x2="23.3" y2="222.75" xlink:href="#a"/><linearGradient id="am" x1="45.65" y1="229.55" x2="23.3" y2="229.55" xlink:href="#a"/><linearGradient id="an" x1="49.78" y1="236.36" x2="19" y2="236.36" xlink:href="#a"/><linearGradient id="ao" x1="288.78" y1="303.98" x2="258" y2="303.98" xlink:href="#a"/><linearGradient id="ap" x1="284.65" y1="310.78" x2="262.3" y2="310.78" xlink:href="#a"/><linearGradient id="aq" x1="284.65" y1="317.59" x2="262.3" y2="317.59" xlink:href="#a"/><linearGradient id="ar" x1="284.65" y1="324.39" x2="262.3" y2="324.39" xlink:href="#a"/><linearGradient id="as" x1="284.65" y1="331.2" x2="262.3" y2="331.2" xlink:href="#a"/><linearGradient id="at" x1="288.78" y1="338" x2="258" y2="338" xlink:href="#a"/><linearGradient id="au" x1="284.79" y1="344.81" x2="262.44" y2="344.81" xlink:href="#a"/><linearGradient id="av" x1="284.79" y1="351.62" x2="262.44" y2="351.62" xlink:href="#a"/><linearGradient id="aw" x1="284.79" y1="358.42" x2="262.44" y2="358.42" xlink:href="#a"/><linearGradient id="ax" x1="284.79" y1="365.23" x2="262.44" y2="365.23" xlink:href="#a"/><linearGradient id="ay" x1="288.92" y1="372.03" x2="258.14" y2="372.03" xlink:href="#a"/><linearGradient id="az" x1="284.65" y1="378.84" x2="262.3" y2="378.84" xlink:href="#a"/><linearGradient id="aA" x1="284.65" y1="385.64" x2="262.3" y2="385.64" xlink:href="#a"/><linearGradient id="aB" x1="284.65" y1="392.45" x2="262.3" y2="392.45" xlink:href="#a"/><linearGradient id="aC" x1="284.65" y1="399.25" x2="262.3" y2="399.25" xlink:href="#a"/><linearGradient id="aD" x1="288.78" y1="406.06" x2="258" y2="406.06" xlink:href="#a"/><linearGradient id="aE" x1="284.65" y1="412.86" x2="262.3" y2="412.86" xlink:href="#a"/><linearGradient id="aF" x1="284.65" y1="419.67" x2="262.3" y2="419.67" xlink:href="#a"/><linearGradient id="aG" x1="284.65" y1="426.48" x2="262.3" y2="426.48" xlink:href="#a"/><linearGradient id="aH" x1="284.65" y1="433.28" x2="262.3" y2="433.28" xlink:href="#a"/><linearGradient id="aI" x1="288.78" y1="440.09" x2="258" y2="440.09" xlink:href="#a"/><linearGradient id="aJ" x1="288.78" y1="202.11" x2="258" y2="202.11" xlink:href="#a"/><linearGradient id="aK" x1="284.65" y1="208.92" x2="262.3" y2="208.92" xlink:href="#a"/><linearGradient id="aL" x1="284.65" y1="215.72" x2="262.3" y2="215.72" xlink:href="#a"/><linearGradient id="aM" x1="284.65" y1="222.53" x2="262.3" y2="222.53" xlink:href="#a"/><linearGradient id="aN" x1="284.65" y1="229.33" x2="262.3" y2="229.33" xlink:href="#a"/><linearGradient id="aO" x1="288.78" y1="236.14" x2="258" y2="236.14" xlink:href="#a"/><linearGradient id="aP" x1="284.79" y1="242.94" x2="262.44" y2="242.94" xlink:href="#a"/><linearGradient id="aQ" x1="284.79" y1="249.75" x2="262.44" y2="249.75" xlink:href="#a"/><linearGradient id="aR" x1="284.79" y1="256.56" x2="262.44" y2="256.56" xlink:href="#a"/><linearGradient id="aS" x1="284.79" y1="263.36" x2="262.44" y2="263.36" xlink:href="#a"/><linearGradient id="aT" x1="288.92" y1="270.17" x2="258.14" y2="270.17" xlink:href="#a"/><linearGradient id="aU" x1="284.65" y1="276.97" x2="262.3" y2="276.97" xlink:href="#a"/><linearGradient id="aV" x1="284.65" y1="283.78" x2="262.3" y2="283.78" xlink:href="#a"/><linearGradient id="aW" x1="284.65" y1="290.58" x2="262.3" y2="290.58" xlink:href="#a"/><linearGradient id="aX" x1="284.65" y1="297.39" x2="262.3" y2="297.39" xlink:href="#a"/><linearGradient id="aY" x1="288.78" y1="304.19" x2="258" y2="304.19" xlink:href="#a"/><linearGradient id="aZ" x1="284.65" y1="311" x2="262.3" y2="311" xlink:href="#a"/><linearGradient id="ba" x1="284.65" y1="317.8" x2="262.3" y2="317.8" xlink:href="#a"/><linearGradient id="bb" x1="284.65" y1="324.61" x2="262.3" y2="324.61" xlink:href="#a"/><linearGradient id="bc" x1="284.65" y1="331.42" x2="262.3" y2="331.42" xlink:href="#a"/><linearGradient id="bd" x1="288.78" y1="338.22" x2="258" y2="338.22" xlink:href="#a"/><linearGradient id="be" x1="288.78" y1="100.25" x2="258" y2="100.25" xlink:href="#a"/><linearGradient id="bf" x1="284.65" y1="107.05" x2="262.3" y2="107.05" xlink:href="#a"/><linearGradient id="bg" x1="284.65" y1="113.86" x2="262.3" y2="113.86" xlink:href="#a"/><linearGradient id="bh" x1="284.65" y1="120.66" x2="262.3" y2="120.66" xlink:href="#a"/><linearGradient id="bi" x1="284.65" y1="127.47" x2="262.3" y2="127.47" xlink:href="#a"/><linearGradient id="bj" x1="288.78" y1="134.27" x2="258" y2="134.27" xlink:href="#a"/><linearGradient id="bk" x1="284.79" y1="141.08" x2="262.44" y2="141.08" xlink:href="#a"/><linearGradient id="bl" x1="284.79" y1="147.88" x2="262.44" y2="147.88" xlink:href="#a"/><linearGradient id="bm" x1="284.79" y1="154.69" x2="262.44" y2="154.69" xlink:href="#a"/><linearGradient id="bn" x1="284.79" y1="161.5" x2="262.44" y2="161.5" xlink:href="#a"/><linearGradient id="bo" x1="288.92" y1="168.3" x2="258.14" y2="168.3" xlink:href="#a"/><linearGradient id="bp" x1="284.65" y1="175.11" x2="262.3" y2="175.11" xlink:href="#a"/><linearGradient id="bq" x1="284.65" y1="181.91" x2="262.3" y2="181.91" xlink:href="#a"/><linearGradient id="br" x1="284.65" y1="188.72" x2="262.3" y2="188.72" xlink:href="#a"/><linearGradient id="bs" x1="284.65" y1="195.52" x2="262.3" y2="195.52" xlink:href="#a"/><linearGradient id="bt" x1="288.78" y1="202.33" x2="258" y2="202.33" xlink:href="#a"/><linearGradient id="bu" x1="284.65" y1="209.13" x2="262.3" y2="209.13" xlink:href="#a"/><linearGradient id="bv" x1="284.65" y1="215.94" x2="262.3" y2="215.94" xlink:href="#a"/><linearGradient id="bw" x1="284.65" y1="222.75" x2="262.3" y2="222.75" xlink:href="#a"/><linearGradient id="bx" x1="284.65" y1="229.55" x2="262.3" y2="229.55" xlink:href="#a"/><linearGradient id="by" x1="288.78" y1="236.36" x2="258" y2="236.36" xlink:href="#a"/><clipPath id="bz"><path d="M107.05 144.52v-.07c.11-.41 2-1 2.41-1.12a45.87 45.87 0 0 1 6.37-1.35c31.94-5.1 81.56-2.73 86.34.72l.19.2c-.91 5.5-59.65 8-84.18 5.08-6.38-.75-10.54-1.84-11.13-3.46z" fill="#a81a16"/></clipPath><clipPath id="bA"><path d="M100.45 143.14a22.68 22.68 0 0 1 .67-4.87l.13-.26.19-.24a18.66 18.66 0 0 1 6.08-2.43c21.33-5.35 70.23-5.89 92.05-1.91 6.44 1.28 7 2.13 8.17 2.66l.33.5a24.84 24.84 0 0 1 .86 4.87c-4.32-7.95-104.15-6.68-108.48 1.68z" fill="#d22c20"/></clipPath><clipPath id="bB"><path d="M103.83 135.82c.45-2.69 13.18-84 13.48-85.11 5.75-17.74 67-19.3 71.29-.61.23 1.2 16.64 84 16.64 84-15.76-6.47-85.56-5.5-101.41 1.72z" fill="#d22c20"/></clipPath><clipPath id="bC"><path d="M138.56 328.8s9.11 17.4 17.88 25.32c0 0 15.76-11.61 19.08-21.65l2.48.53s1.81 76.6 1.93 84.61c0 0-20.26 4.46-41.38 0 0 0-3.19-83.79-3.39-87.42z" fill="none"/></clipPath><linearGradient id="b" x1="124.47" y1="374.1" x2="147.65" y2="374.1" gradientUnits="userSpaceOnUse"><stop offset="0" stop-color="#5b413f"/><stop offset=".25" stop-color="#543734"/><stop offset=".51" stop-color="#523430"/><stop offset=".87" stop-color="#4d312d"/><stop offset="1" stop-color="#4a2f2b"/></linearGradient><linearGradient id="bD" x1="165.09" y1="374.1" x2="188.26" y2="374.1" xlink:href="#b"/><clipPath id="bE"><path fill="none" d="M136.31 327.74l9.69-1.33 1.55 69.06-6.72-47.56 3.07-5.87-4.21 1.02-3.38-15.32z"/></clipPath><clipPath id="bF"><path fill="none" d="M176.39 327.74l-10.07-1.05-1.18 68.78 6.72-47.56-3.07-5.87 4.21 1.02 3.39-15.32z"/></clipPath><clipPath id="bG"><path d="M75.94 303.55a38 38 0 0 0 .55 9.3c.18.78.32 1.57.55 2.34l.16.58c.06.19.11.39.18.58l.38 1.15c.06.19.14.38.21.57l.23.56.22.57c.08.19.17.37.25.56l.51 1.11.57 1.08c.18.37.4.71.6 1.07s.42.71.65 1 .44.69.67 1l.72 1c.24.34.5.64.76 1s.51.64.78.94.53.61.81.91l.84.87a40.06 40.06 0 0 0 3.58 3.26 46.15 46.15 0 0 0 3.84 2.72q2 1.27 4 2.36c1.37.71 2.76 1.39 4.16 2a78.33 78.33 0 0 0 8.55 3.12c1.44.44 2.88.84 4.33 1.2s2.91.7 4.37 1c2.92.6 5.85 1.07 8.8 1.44l1-16.41c-2.54 0-5.1-.15-7.63-.38q-1.91-.18-3.78-.42c-1.25-.17-2.49-.37-3.73-.6a53.4 53.4 0 0 1-13.89-4.36A26.67 26.67 0 0 1 89 316.28l-.45-.67c-.15-.23-.28-.46-.42-.69s-.15-.23-.21-.35l-.19-.36-.2-.36c-.06-.12-.13-.24-.18-.36l-.35-.75c-.06-.12-.12-.25-.17-.38l-.15-.38c-.22-.5-.38-1-.57-1.56a28 28 0 0 1-1.18-6.82z" fill="none"/></clipPath><clipPath id="bH"><path d="M227.32 286.32a124.29 124.29 0 0 1-9.93 13.05c-1.82 2.05-3.65 4.08-5.58 6-.94 1-1.93 1.94-2.9 2.91-.48.48-1 .95-1.48 1.42s-1 1-1.5 1.42l-1.51 1.39c-.5.47-1 .92-1.53 1.37-1 .92-2.07 1.81-3.1 2.71-2.1 1.77-4.22 3.51-6.38 5.2-4.32 3.37-8.77 6.59-13.31 9.59l7 14.74c4-1.52 11.87-9.38 16.07-13.48 2.1-2.05 4.14-4.15 6.16-6.28 1-1.08 2-2.14 3-3.24.48-.55 1-1.09 1.46-1.64l1.45-1.67c.48-.54.95-1.12 1.42-1.68s1-1.12 1.41-1.69c.93-1.15 1.86-2.28 2.75-3.45 1.82-2.31 3.55-4.71 5.25-7.12a133.39 133.39 0 0 0 9.11-15.22z" fill="none"/></clipPath></defs><g style="isolation:isolate"><path fill="#a2a2a2" d="M82.65 479.83h-9.89l-2.05-32.13H84.7l-2.05 32.13z"/><path fill="#bdbdbd" d="M70.71 438.79h13.98v4.46H70.71z"/><path fill="#696969" d="M70.71 443.25h13.98v4.46H70.71z"/><path fill="#a2a2a2" d="M236.79 479.83h-9.89l-2.05-32.13h13.98l-2.04 32.13z"/><path fill="#bdbdbd" d="M224.85 438.79h13.99v4.46h-13.99z"/><path fill="#696969" d="M224.85 443.25h13.99v4.46h-13.99z"/><path fill="#9e6741" d="M60.94 433.51h187.67v7.51H60.94z"/><rect x="9.76" y="111.67" width="289.5" height="8.7" rx="2.63" ry="2.63" fill="#8e8e8e"/><path d="M299.21 115.5H9.85v-1.93a2.23 2.23 0 0 1 2.44-1.93h284.62a2.12 2.12 0 0 1 2.35 1.91s-.11 1.91-.05 1.95z" fill="#a8a8a8"/><path d="M31.39 63.13l-.25-12.38s2-19 1.87-19.37S36.64 18 36.64 18l7.5-8 7.25-4.87 10.12-2.75L69 1.5l10.89 1.38 6.75 3.25 6 3.87 6.75 9 3.61 7.13 2 4.25 1.75 4.5-1.62 2.5-5.62.62-2-4-.25-3.25-2.62-5.62-3.5-5.38-5.38-5-5.12-3.12-6.88-2.25-6.62-.63-7.5 1.5-6.38 3L48.89 16l-3.38 3.88-2.75 5-2.25 5.75-1.87 19.25v14.25z" fill="#d22c20"/><path d="M42.87 67.31L42 68.37a5 5 0 0 0-1.85-3.87v-5.69C40.09 48.1 40 37 42.8 28.23c3.11-9.77 9.28-15.31 19.4-17.46a28.53 28.53 0 0 1 6-.63 28.88 28.88 0 0 1 27.7 21.15l-.68.16 1.37 5.72a3.18 3.18 0 0 0 3.1 2.45 3.06 3.06 0 0 0 .74-.09l5.41-1.29a3.19 3.19 0 0 0 2.36-3.85l-1.37-5.72-1.07.26A38.94 38.94 0 0 0 68.16 0a39.3 39.3 0 0 0-8.07.85 35.86 35.86 0 0 0-17.67 8.84 35 35 0 0 0-9.08 14.9c-3.49 10.6-3.4 23.19-3.31 34.3v5.57a5.06 5.06 0 0 0-1.9 4v4zm-5.33-8.48v4.55a5.65 5.65 0 0 0-.59 0h-4.27v-4.49c-.11-10.89-.2-23.29 3.16-33.48a32.55 32.55 0 0 1 8.39-13.81 33.35 33.35 0 0 1 16.41-8.18 36.22 36.22 0 0 1 42.53 26.12l-4.75 1.14A31.39 31.39 0 0 0 68.16 7.51a31.17 31.17 0 0 0-6.51.69c-11 2.33-18 8.62-21.35 19.23-2.93 9.19-2.84 20.48-2.76 31.4zm60.9-25l-.09-.39 6.5-1.56.13.56.62 2.6a.54.54 0 0 1-.07.43.57.57 0 0 1-.34.25L99.78 37a.56.56 0 0 1-.68-.41zm-59 37.94l-.49.63h-8.17v-4a2.44 2.44 0 0 1 1.89-2.4 2.51 2.51 0 0 1 .55-.07H37a2.2 2.2 0 0 1 .58.08 2.36 2.36 0 0 1 1.31.82 2.4 2.4 0 0 1 .56 1.54v3.32z" fill="#d22c20"/><path fill="#a81a16" d="M95.66 30.484l9.85-2.369.193.807-9.849 2.369zM29.93 58.33h10v.83h-10z"/><path fill="#d22c20" d="M15.37 81.15h38.36v375.87H15.37z"/><ellipse cx="34.56" cy="82.4" rx="19.23" ry="20.37" fill="#d22c20"/><path fill="#a81a16" d="M53.52 79.46l-37.92-.13.37-1.58h37.21l.34 1.71z"/><path fill="url(#c)" d="M18.99 79.45H51.3V451.5H18.99z"/><path d="M276.86 63.13l.25-12.38s-2-19-1.88-19.37S271.61 18 271.61 18l-7.5-8-7.25-4.87-10.13-2.75-7.5-.88-10.87 1.37-6.75 3.25-6 3.88-6.75 9-3.63 7.12-2 4.25-1.75 4.5 1.63 2.5 5.62.63 2-4 .25-3.25 2.63-5.63 3.5-5.37 5.37-5 5.13-3.13 6.87-2.25 6.63-.62 7.5 1.5 6.37 3 4.38 2.75 3.37 3.88 2.75 5 2.25 5.75 1.88 19.25v14.25z" fill="#d22c20"/><path d="M280.1 72.36v-4a5.06 5.06 0 0 0-1.9-4v-5.57c.09-11.11.18-23.7-3.31-34.3a35.24 35.24 0 0 0-9.08-14.9A35.9 35.9 0 0 0 248.15.85a38.92 38.92 0 0 0-45.63 28.08l-1.06-.26-1.37 5.72a3.19 3.19 0 0 0 2.36 3.85l5.4 1.29a3.18 3.18 0 0 0 3.85-2.36l1.37-5.72-.68-.16a28.86 28.86 0 0 1 27.7-21.15 28.53 28.53 0 0 1 6 .63c10.12 2.15 16.28 7.69 19.39 17.46 2.8 8.79 2.72 19.87 2.64 30.58v5.69a5.08 5.08 0 0 0-1.86 3.87l-.82-1.06zM268 27.43c-3.38-10.61-10.37-16.9-21.35-19.23a31.17 31.17 0 0 0-6.51-.69 31.39 31.39 0 0 0-30.26 23.17l-4.75-1.14a36.22 36.22 0 0 1 42.48-26.12A33.35 33.35 0 0 1 264 11.6a32.55 32.55 0 0 1 8.39 13.81c3.36 10.19 3.26 22.55 3.18 33.47v4.49h-4.3a5.46 5.46 0 0 0-.58 0v-4.55c.1-10.91.19-22.2-2.69-31.39zm-58.8 9.13a.57.57 0 0 1-.68.41l-5.41-1.29a.63.63 0 0 1-.35-.25.6.6 0 0 1-.06-.43l.62-2.6.13-.56 6.5 1.56-.09.39zm59.68 32.22v-.37a2.4 2.4 0 0 1 .56-1.54 2.34 2.34 0 0 1 1.3-.82 2.25 2.25 0 0 1 .58-.08H275a2.51 2.51 0 0 1 .55.07 2.46 2.46 0 0 1 1.32.81 2.39 2.39 0 0 1 .57 1.56v4h-8.15l-.49-.63z" fill="#d22c20"/><path fill="#a81a16" d="M212.392 31.288l-9.85-2.368.195-.807 9.849 2.368zM278.31 59.17h-10v-.83h10z"/><path fill="#d22c20" d="M292.87 457.03h-38.36V81.16h38.36z"/><ellipse cx="273.69" cy="82.4" rx="19.23" ry="20.37" fill="#d22c20"/><path fill="#d22c20" d="M295.99 462.68h-44.5V452h44.5z"/><path d="M239.85 482c.66-14.45 15.72-26 34.2-26s33.53 11.55 34.2 26z" fill="#d22c20"/><path fill="#a81a16" d="M295.49 462.5h-43.75v-3h43.75zM254.73 79.46l37.92-.13-.38-1.58h-37.2l-.34 1.71z"/><path transform="rotate(-180 273.105 265.475)" fill="url(#d)" d="M256.95 79.45h32.31V451.5h-32.31z"/><path fill="#d22c20" d="M12.26 452h44.5v10.68h-44.5z"/><path d="M68.4 482c-.67-14.45-15.72-26-34.2-26S.67 467.55 0 482z" fill="#d22c20"/><path fill="#a81a16" d="M12.76 459.5h43.75v3H12.76z"/><path fill="url(#a)" d="M18.76 303.23h31.85v1.49H18.76z"/><path fill="url(#e)" d="M23.13 310.04h23.13v1.49H23.13z"/><path fill="url(#f)" d="M23.13 316.84h23.13v1.49H23.13z"/><path fill="url(#g)" d="M23.13 323.65h23.13v1.49H23.13z"/><path fill="url(#h)" d="M23.13 330.45h23.13v1.49H23.13z"/><path fill="url(#i)" d="M18.76 337.26h31.85v1.49H18.76z"/><path fill="url(#j)" d="M23.27 344.06H46.4v1.49H23.27z"/><path fill="url(#k)" d="M23.27 350.87H46.4v1.49H23.27z"/><path fill="url(#l)" d="M23.27 357.67H46.4v1.49H23.27z"/><path fill="url(#m)" d="M23.27 364.48H46.4v1.49H23.27z"/><path fill="url(#n)" d="M18.91 371.29h31.85v1.49H18.91z"/><path fill="url(#o)" d="M23.13 378.09h23.13v1.49H23.13z"/><path fill="url(#p)" d="M23.13 384.9h23.13v1.49H23.13z"/><path fill="url(#q)" d="M23.13 391.7h23.13v1.49H23.13z"/><path fill="url(#r)" d="M23.13 398.51h23.13V400H23.13z"/><path fill="url(#s)" d="M18.76 405.31h31.85v1.49H18.76z"/><path fill="url(#t)" d="M23.13 412.12h23.13v1.49H23.13z"/><path fill="url(#u)" d="M23.13 418.92h23.13v1.49H23.13z"/><path fill="url(#v)" d="M23.13 425.73h23.13v1.49H23.13z"/><path fill="url(#w)" d="M23.13 432.53h23.13v1.49H23.13z"/><path fill="url(#x)" d="M18.76 439.34h31.85v1.49H18.76z"/><path fill="url(#y)" d="M18.76 201.37h31.85v1.49H18.76z"/><path fill="url(#z)" d="M23.13 208.17h23.13v1.49H23.13z"/><path fill="url(#A)" d="M23.13 214.98h23.13v1.49H23.13z"/><path fill="url(#B)" d="M23.13 221.78h23.13v1.49H23.13z"/><path fill="url(#C)" d="M23.13 228.59h23.13v1.49H23.13z"/><path fill="url(#D)" d="M18.76 235.39h31.85v1.49H18.76z"/><path fill="url(#E)" d="M23.27 242.2H46.4v1.49H23.27z"/><path fill="url(#F)" d="M23.27 249H46.4v1.49H23.27z"/><path fill="url(#G)" d="M23.27 255.81H46.4v1.49H23.27z"/><path fill="url(#H)" d="M23.27 262.61H46.4v1.49H23.27z"/><path fill="url(#I)" d="M18.91 269.42h31.85v1.49H18.91z"/><path fill="url(#J)" d="M23.13 276.23h23.13v1.49H23.13z"/><path fill="url(#K)" d="M23.13 283.03h23.13v1.49H23.13z"/><path fill="url(#L)" d="M23.13 289.84h23.13v1.49H23.13z"/><path fill="url(#M)" d="M23.13 296.64h23.13v1.49H23.13z"/><path fill="url(#N)" d="M18.76 303.45h31.85v1.49H18.76z"/><path fill="url(#O)" d="M23.13 310.25h23.13v1.49H23.13z"/><path fill="url(#P)" d="M23.13 317.06h23.13v1.49H23.13z"/><path fill="url(#Q)" d="M23.13 323.86h23.13v1.49H23.13z"/><path fill="url(#R)" d="M23.13 330.67h23.13v1.49H23.13z"/><path fill="url(#S)" d="M18.76 337.47h31.85v1.49H18.76z"/><path fill="url(#T)" d="M18.76 99.5h31.85v1.49H18.76z"/><path fill="url(#U)" d="M23.13 106.31h23.13v1.49H23.13z"/><path fill="url(#V)" d="M23.13 113.11h23.13v1.49H23.13z"/><path fill="url(#W)" d="M23.13 119.92h23.13v1.49H23.13z"/><path fill="url(#X)" d="M23.13 126.72h23.13v1.49H23.13z"/><path fill="url(#Y)" d="M18.76 133.53h31.85v1.49H18.76z"/><path fill="url(#Z)" d="M23.27 140.33H46.4v1.49H23.27z"/><path fill="url(#aa)" d="M23.27 147.14H46.4v1.49H23.27z"/><path fill="url(#ab)" d="M23.27 153.94H46.4v1.49H23.27z"/><path fill="url(#ac)" d="M23.27 160.75H46.4v1.49H23.27z"/><path fill="url(#ad)" d="M18.91 167.55h31.85v1.49H18.91z"/><path fill="url(#ae)" d="M23.13 174.36h23.13v1.49H23.13z"/><path fill="url(#af)" d="M23.13 181.17h23.13v1.49H23.13z"/><path fill="url(#ag)" d="M23.13 187.97h23.13v1.49H23.13z"/><path fill="url(#ah)" d="M23.13 194.78h23.13v1.49H23.13z"/><path fill="url(#ai)" d="M18.76 201.58h31.85v1.49H18.76z"/><path fill="url(#aj)" d="M23.13 208.39h23.13v1.49H23.13z"/><path fill="url(#ak)" d="M23.13 215.19h23.13v1.49H23.13z"/><path fill="url(#al)" d="M23.13 222h23.13v1.49H23.13z"/><path fill="url(#am)" d="M23.13 228.8h23.13v1.49H23.13z"/><path fill="url(#an)" d="M18.76 235.61h31.85v1.49H18.76z"/><path d="M42.51 448.94V95.08c0-5.13-3.56-9.33-7.9-9.33h-.53c-4.35 0-7.91 4.2-7.91 9.33v353.86z" fill="#fff"/><path fill="#9be0ff" d="M26.28 100.23H42.3v348.6H26.28z"/><path fill="#75b3c9" d="M26.21 447.88H42.6v1.13H26.21z"/><path fill="url(#ao)" d="M257.76 303.23h31.85v1.49h-31.85z"/><path fill="url(#ap)" d="M262.13 310.04h23.13v1.49h-23.13z"/><path fill="url(#aq)" d="M262.13 316.84h23.13v1.49h-23.13z"/><path fill="url(#ar)" d="M262.13 323.65h23.13v1.49h-23.13z"/><path fill="url(#as)" d="M262.13 330.45h23.13v1.49h-23.13z"/><path fill="url(#at)" d="M257.76 337.26h31.85v1.49h-31.85z"/><path fill="url(#au)" d="M262.27 344.06h23.13v1.49h-23.13z"/><path fill="url(#av)" d="M262.27 350.87h23.13v1.49h-23.13z"/><path fill="url(#aw)" d="M262.27 357.67h23.13v1.49h-23.13z"/><path fill="url(#ax)" d="M262.27 364.48h23.13v1.49h-23.13z"/><path fill="url(#ay)" d="M257.91 371.29h31.85v1.49h-31.85z"/><path fill="url(#az)" d="M262.13 378.09h23.13v1.49h-23.13z"/><path fill="url(#aA)" d="M262.13 384.9h23.13v1.49h-23.13z"/><path fill="url(#aB)" d="M262.13 391.7h23.13v1.49h-23.13z"/><path fill="url(#aC)" d="M262.13 398.51h23.13V400h-23.13z"/><path fill="url(#aD)" d="M257.76 405.31h31.85v1.49h-31.85z"/><path fill="url(#aE)" d="M262.13 412.12h23.13v1.49h-23.13z"/><path fill="url(#aF)" d="M262.13 418.92h23.13v1.49h-23.13z"/><path fill="url(#aG)" d="M262.13 425.73h23.13v1.49h-23.13z"/><path fill="url(#aH)" d="M262.13 432.53h23.13v1.49h-23.13z"/><path fill="url(#aI)" d="M257.76 439.34h31.85v1.49h-31.85z"/><path fill="url(#aJ)" d="M257.76 201.37h31.85v1.49h-31.85z"/><path fill="url(#aK)" d="M262.13 208.17h23.13v1.49h-23.13z"/><path fill="url(#aL)" d="M262.13 214.98h23.13v1.49h-23.13z"/><path fill="url(#aM)" d="M262.13 221.78h23.13v1.49h-23.13z"/><path fill="url(#aN)" d="M262.13 228.59h23.13v1.49h-23.13z"/><path fill="url(#aO)" d="M257.76 235.39h31.85v1.49h-31.85z"/><path fill="url(#aP)" d="M262.27 242.2h23.13v1.49h-23.13z"/><path fill="url(#aQ)" d="M262.27 249h23.13v1.49h-23.13z"/><path fill="url(#aR)" d="M262.27 255.81h23.13v1.49h-23.13z"/><path fill="url(#aS)" d="M262.27 262.61h23.13v1.49h-23.13z"/><path fill="url(#aT)" d="M257.91 269.42h31.85v1.49h-31.85z"/><path fill="url(#aU)" d="M262.13 276.23h23.13v1.49h-23.13z"/><path fill="url(#aV)" d="M262.13 283.03h23.13v1.49h-23.13z"/><path fill="url(#aW)" d="M262.13 289.84h23.13v1.49h-23.13z"/><path fill="url(#aX)" d="M262.13 296.64h23.13v1.49h-23.13z"/><path fill="url(#aY)" d="M257.76 303.45h31.85v1.49h-31.85z"/><path fill="url(#aZ)" d="M262.13 310.25h23.13v1.49h-23.13z"/><path fill="url(#ba)" d="M262.13 317.06h23.13v1.49h-23.13z"/><path fill="url(#bb)" d="M262.13 323.86h23.13v1.49h-23.13z"/><path fill="url(#bc)" d="M262.13 330.67h23.13v1.49h-23.13z"/><path fill="url(#bd)" d="M257.76 337.47h31.85v1.49h-31.85z"/><path fill="url(#be)" d="M257.76 99.5h31.85v1.49h-31.85z"/><path fill="url(#bf)" d="M262.13 106.31h23.13v1.49h-23.13z"/><path fill="url(#bg)" d="M262.13 113.11h23.13v1.49h-23.13z"/><path fill="url(#bh)" d="M262.13 119.92h23.13v1.49h-23.13z"/><path fill="url(#bi)" d="M262.13 126.72h23.13v1.49h-23.13z"/><path fill="url(#bj)" d="M257.76 133.53h31.85v1.49h-31.85z"/><path fill="url(#bk)" d="M262.27 140.33h23.13v1.49h-23.13z"/><path fill="url(#bl)" d="M262.27 147.14h23.13v1.49h-23.13z"/><path fill="url(#bm)" d="M262.27 153.94h23.13v1.49h-23.13z"/><path fill="url(#bn)" d="M262.27 160.75h23.13v1.49h-23.13z"/><path fill="url(#bo)" d="M257.91 167.55h31.85v1.49h-31.85z"/><path fill="url(#bp)" d="M262.13 174.36h23.13v1.49h-23.13z"/><path fill="url(#bq)" d="M262.13 181.17h23.13v1.49h-23.13z"/><path fill="url(#br)" d="M262.13 187.97h23.13v1.49h-23.13z"/><path fill="url(#bs)" d="M262.13 194.78h23.13v1.49h-23.13z"/><path fill="url(#bt)" d="M257.76 201.58h31.85v1.49h-31.85z"/><path fill="url(#bu)" d="M262.13 208.39h23.13v1.49h-23.13z"/><path fill="url(#bv)" d="M262.13 215.19h23.13v1.49h-23.13z"/><path fill="url(#bw)" d="M262.13 222h23.13v1.49h-23.13z"/><path fill="url(#bx)" d="M262.13 228.8h23.13v1.49h-23.13z"/><path fill="url(#by)" d="M257.76 235.61h31.85v1.49h-31.85z"/><path d="M281.51 448.94V95.08c0-5.13-3.56-9.33-7.9-9.33h-.53c-4.35 0-7.91 4.2-7.91 9.33v353.86z" fill="#fff"/><path fill="#9be0ff" d="M265.28 100.16h16.02v348.01h-16.02z"/><path fill="#75b3c9" d="M265.21 447.88h16.39v1.13h-16.39z"/><path d="M105.62 145.75v-.37a2.43 2.43 0 0 1 1.3-1.12l.44-.1v.11a1.93 1.93 0 0 0-.28.18v.07c3 7.39 81.15 4.58 93.25 0 1.88-.8 1.81-1.16 2.06-1.6l.45.09a1.9 1.9 0 0 1 1 .91v.18c-.26 1.39-3.64 2.18-4.93 2.52-24.4 5.65-75.38 3.49-86.29 1.67-2.19-.4-6.32-1.14-7-2.54z" fill="#e26d6d"/><path d="M107.05 144.52v-.07c.11-.41 2-1 2.41-1.12a45.87 45.87 0 0 1 6.37-1.35c31.94-5.1 81.56-2.73 86.34.72l.19.2c-.91 5.5-59.65 8-84.18 5.08-6.38-.75-10.54-1.84-11.13-3.46z" fill="#a81a16"/><g clip-path="url(#bz)" fill="#a81a16"><path d="M138.25 151.19L138 129l-40.11 14.73s30.73 11.54 40.36 7.46zm40.48-16.81l1.34 18.46s25.93-2.31 26.07-8.7-27.41-9.76-27.41-9.76z" style="mix-blend-mode:multiply" opacity=".3"/></g><path d="M101.69 145.15a.9.9 0 0 1 0-.4c.45-1.53 4.6-2.85 11.06-3.88 26.48-4.21 91.4-3.93 95 2.07l.06.2v.2l-.06.21.1.08-.31.38c-6.67 4.29-32.87 5.76-40.7 6 2.43-.17 36.2-1.57 37-5.89v-.18a1.89 1.89 0 0 0-1-.91l-.45-.09-.33-.27c-15-5.56-84.18-3.53-94.17 1.31a2.57 2.57 0 0 1-1 .33c-.75.4-1.07.61-1.3 1.12v.37c.55 1.13 3.3 1.8 5.58 2.26 2 .41 4.52.63 7.07.92-1.88-.09-4.33-.33-4.42-.33-2.6-.21-11.03-1.57-12.13-3.5z" fill="#ff433e"/><path d="M106.6 150.5s-2.85 32.73-.43 37.22 4.61 6.52 5-1.43 5.26-21.61 5.48-10.6-.87 38.54 4 40 4.61-3.46 4-15.9 2.63-28.55 2.41-19.17 2.2 18.15 4 13.26-.22-8.77 1.09-14.28 6.59-10.19 6.15 4.49-1.32 29.16 2.42 29.77 3.51-2.24 3.29-11.83 2.63-17.53 2.41-7.34-1.75 27.12 1.76 27.53 3.08-1.22 2-8.16-2-17.33-1.1-19.37 4.83-8.56 5.27 10.6 2.85 19.78 5.05 17.13-3.07-12.23-1.54-25.89 5.05-25.9 4.83-9.79-.88 24.26 2 24.67 4.83-.41 4.17-8.15-.88-26.51 1.32-25.29 1.1 11.62 2.19 18.76 3.74 10.4 4.61 4.89-3.51-18.76-2-22.63 6.8-5.91 7.24 7.34-.44 23.65 2.42 24.67 5.49-.4 4.61-8-4.39-23.45-2.2-25.89 3.52-4.29 4.62 11.82 4.39 18.76 5.48 12.85-2.63-21.82-2-23.86 5.27-7.54 6.14 14.89-2.63 29.15 4.4 28.75c3.19-.19 1.31-6.53.65-17.54s-2.43-58.51-4.85-61.36c-1.29-1.53-17.25-2.73-36.35-3.14a432.13 432.13 0 0 0-48 2.3c-12.21 1.51-10.25 2.56-10.54 8.68z" fill="#87c9d8" opacity=".85"/><path d="M109.61 151.49s1.61 49.35 4.24 53.15 5.86 7.07 5.27-6.52-3.22-39.42 1.17-42.42 5.86-5.16 6.73 4.08 5 13.87 5.57 6 5-19 5.27-4.89 9.07 29.64 9.07 18.22-3.51-17.13-2.34-22.57 13.47-15.77 13.76-4.35-4.1 46.76 1.75 47.58 7.62-7.34 5.86-15.5-2.05-29.09-1.17-33.44 8.19-6.8 7.61.82-.59 13.86 2 14.13 3.51-.27 3.22-5.43-1.17-15.5 0-15.77 13.76-2.45 13.46 2.72-5.56 31.26-1.75 34.53 6.44 3.8 6.15-4.9-.3-26.37-.59-29.09-8.64-5.85-28-6.93-49.38.25-57.28 10.58z" fill="#9ad8e8" opacity=".79"/><path d="M178.84 189.15S172.4 221 178 223.67s9.08-7.61 7-17.94-5.57-21.48-6.16-16.58zm22.83-10.34s-4.39 18.49-.87 20.4 7.31.27 5.26-9-3.51-16.02-4.39-11.4zM130 184.8s-3.51 11.14-1.17 13.59 4.68.27 3.81-5.17-2.1-11.14-2.64-8.42zm-31.37 21.47s-6.74 20.94-.88 21.21 6.44-6.25 4.68-12.78-3.51-11.14-3.8-8.43zm-3.22-28.54s-3.52 11.14-1.17 12 4.68-1.63 3.8-6.25-2.63-8.74-2.63-5.75z" fill="#9ad8e8"/><path d="M101.69 145.15a3 3 0 0 0 1.11.92l-.7-.35a2.54 2.54 0 0 1-1.65-2.58c4.33-8.36 104.16-9.64 108.48-1.68a2.22 2.22 0 0 1-.89 2.15l-.53.4.21-.46.06-.21v-.2l-.06-.2c-4.5-7.44-103.79-6.08-106.08 1.81a.9.9 0 0 0 .05.4z" fill="#f23b36"/><path d="M101.44 137.77a4.07 4.07 0 0 0-.32.5 2.14 2.14 0 0 1 .28-.68c3.1-4.61 28.1-10.35 53-10.81s49.81 4.37 53.34 9.11a3.65 3.65 0 0 1 .38.84 8.04 8.04 0 0 0-.39-.64c-1.17-.54-1.85-1.51-9.27-2.86-22.84-3.83-71.52-3.08-91.85 2.39a17.36 17.36 0 0 0-5.17 2.15z" fill="#a81a16"/><path d="M101.44 137.77a4.07 4.07 0 0 0-.32.5 2.14 2.14 0 0 1 .28-.68c6.21-9.23 99.3-11.18 106.35-1.7a3.65 3.65 0 0 1 .38.84 8.04 8.04 0 0 0-.39-.64c-1.17-.54-1.85-1.51-9.27-2.86-22.84-3.83-71.52-3.08-91.85 2.39a17.36 17.36 0 0 0-5.18 2.15z" fill="#d22c20"/><path d="M188 48.1v.16a12.76 12.76 0 0 0-2.38-3.13c-11.15-10-37-9.84-51.76-5.74-10.4 3.12-13.3 6.58-14.8 8.17a14.22 14.22 0 0 0-1.4 2.33 8.55 8.55 0 0 1 1.17-2.34c10.53-14.86 55.27-16.26 67.55-2A15.7 15.7 0 0 1 188 48.1zm-86.58 89.54l-.21.34a10.53 10.53 0 0 0-.48 2.16c0-.27.17-6.42.29-6.66h3.22c-.38 2.41-.36 2.13-.41 2.42a4.88 4.88 0 0 0-2.41 1.74zm103.82-3.5l-.49-2.36 3.13-.05h.08c.12.43 0-.23.51 6.34a7.79 7.79 0 0 0-.51-1.83l-.22-.19v-.2a8.26 8.26 0 0 0-2.5-1.71z" fill="#a81a16"/><path d="M100.45 143.14a22.68 22.68 0 0 1 .67-4.87l.13-.26.19-.24a18.66 18.66 0 0 1 6.08-2.43c21.33-5.35 70.23-5.89 92.05-1.91 6.44 1.28 7 2.13 8.17 2.66l.33.5a24.84 24.84 0 0 1 .86 4.87c-4.32-7.95-104.15-6.68-108.48 1.68z" fill="#d22c20"/><g clip-path="url(#bA)"><path fill="#a81a16" d="M124.23 139.21l1.19-9.86-29.95 7.87 1.84 12.64 26.92-10.65z"/></g><path d="M103.83 135.82c.45-2.69 13.18-84 13.48-85.11 5.75-17.74 67-19.3 71.29-.61.23 1.2 16.64 84 16.64 84-15.76-6.47-85.56-5.5-101.41 1.72z" fill="#d22c20"/><g clip-path="url(#bB)"><path d="M129.44 134s0-.66.12-1.87c23-2 52.56-1.61 68.91 1.13 7.42 1.35 8.1 2.32 9.27 2.86 0 0 .11.15.39.64-.06-.31-.39-1.72-.39-1.72-3.53-4.74-28.38-8.69-53.33-8.23a223.76 223.76 0 0 0-24.64 1.82c1.12-18.46 4.75-78.26 4.71-80.92 0-3.14 6.46-10.64 27.12-12.26s-55.08-6-55.08-6L91.78 147.69z" fill="#a81a16"/></g><path fill="#473c35" d="M250.54 483.04l5.05 5.49-8.42 5.3-4.75-7.72 8.12-3.07z"/><path d="M245.36 493l5.11 8.48 1 1.66a.63.63 0 0 0 .61.32l.74-.36 22-13.29a.66.66 0 0 0 .22-.91l-.88-1.47-.17-.25c-.51-.73-1.35-1.3-3.75-1.08h-.18l-6.72.66-1.69.16-6.41.07z" fill="#78411d"/><path d="M270.16 486.09a21.07 21.07 0 0 1-9.08 3s-5.89 1-8.14-2.75c-.38-.61.29-1.09.64-.61 3.48 2.35 16.55.41 16.55.41z" fill="#6b391d"/><path d="M250.44 501.4v.06l1 1.66a.63.63 0 0 0 .61.32.75.75 0 0 0 .29-.09l22.49-13.56a.66.66 0 0 0 .22-.91l-1-1.72z" fill="#492915"/><path d="M179.64 339s-9.24 4.37-25.89 3.85-23.32-4.56-23.32-4.56c1.82-2.06 12.73-6.57 16.38-8l1.19-.46c.51-.17 1.84-12.78 1.84-12.78h12.24l1.33 12.95c.39.14.79.3 1.18.46a78.69 78.69 0 0 1 15.05 8.54z" fill="#fcc490"/><path d="M162.55 321.13c-4.07 1.72-9.77 3.47-13.79 5.26.54-3.79 1.13-9.35 1.13-9.35h12.24z" fill="#eda672"/><path d="M135.31 285.12c-.83 5.61.9 21.51 6.28 27.48s11 8 14.7 8.18 12.29-4.82 16.51-11.87c5.09-8.51 4.64-24.69 3.59-31s-11.65-12.1-21.81-10.46-17.18 3.63-19.27 17.67z" fill="#fcc490"/><path d="M158.84 302.06c-1-.54-3.44-.49-5.3-.18a1.8 1.8 0 0 0-.7.22c-.19.14-.13.38 0 .59a7.24 7.24 0 0 0 2.14 1.5 2.33 2.33 0 0 0 1 .29 2.41 2.41 0 0 0 1.38-.59c.64-.5 1.89-1.22 1.48-1.83z" fill="#eda672"/><path d="M174.92 296.44a3.54 3.54 0 0 1 1.82-1.37 2.57 2.57 0 0 1 2.21.33A3 3 0 0 1 180 298a8.36 8.36 0 0 1-.81 2.82 8.63 8.63 0 0 1-2.4 3.59 3.16 3.16 0 0 1-4 0zm-38.29 0a3.5 3.5 0 0 0-1.82-1.37 2.58 2.58 0 0 0-2.21.33 3 3 0 0 0-1.09 2.61 8.37 8.37 0 0 0 .82 2.82 8.51 8.51 0 0 0 2.39 3.59 3.16 3.16 0 0 0 4 0z" fill="#fcc490"/><path d="M147.61 280.68a22.62 22.62 0 0 0-8.82 3.35 24.52 24.52 0 0 1 2.47 3.83 29.55 29.55 0 0 1 8.53-3.25l-.79-4-.75.85zm15.81.06a22.67 22.67 0 0 1 8.89 3.18 25.82 25.82 0 0 0-2.4 3.88 29.24 29.24 0 0 0-8.59-3.08l.71-4c.26.27.51.55.77.83z" fill="#603b22"/><path d="M134.49 290.91l2.45 26.09s7.38 6.47 9.79 6.56 18.76.83 21.35 0 7.3-5.64 7.3-6.1 2.28-28.11 2.28-28.11l-3-1.79s.9 16-1.23 16.47-35 2-35.48-.4-.87-13.4-.87-13.4z" fill="#7c5133"/><path d="M137.53 267.14a44 44 0 0 1 26.27-6.9c10.75.65 15.63 12.28 15.54 13.47-.39 5.44-2.13 26-3.33 25.16s-1-21-2.6-21.78-2 7-2.62 7.12-1.71-6.1-2.85-6.87-5.09-.29-6.24.25-1.15 7.66-1.79 7.65-.93-7-1.69-7.78-4-.19-5.93-.4c-.44 0-1.4 7.07-1.83 7-.58-.07-2-6-2.33-6.35-2.33-2.33-5.18-2.22-7.64-3.29 0 0-.08 7.18-.52 7.18s-1.59-3.26-1.59-3.26-1.52 22.75-2.23 20.51-5.09-23-4.31-27.37 3.58-5.54 5.69-4.34z" fill="#68442b"/><path d="M137.53 267.14a44 44 0 0 1 26.27-6.9c10.75.65 15.63 12.28 15.54 13.47-.39 5.44-2.13 26-3.33 25.16s-1-21-2.6-21.78-2 7-2.62 7.12-1.71-6.1-2.85-6.87-5.09-.29-6.24.25-1.15 7.66-1.79 7.65-.93-7-1.69-7.78-4-.19-5.93-.4c-.44 0-1.4 7.07-1.83 7-.58-.07-2-6-2.33-6.35-2.33-2.33-5.18-2.22-7.64-3.29 0 0-.08 7.18-.52 7.18s-1.59-3.26-1.59-3.26-1.52 22.75-2.23 20.51-5.09-23-4.31-27.37 3.58-5.54 5.69-4.34z" fill="#5b3b24"/><path d="M157.87 338.11a9.09 9.09 0 0 1-3.56.26 2.62 2.62 0 0 1-2.23-1.31 2.27 2.27 0 0 1 .57-2.18c.5-.6 1.19-1 1.69-1.56a11.13 11.13 0 0 0 1.86 3.8c.38-1.24.86-2.56 1.23-3.8a5.3 5.3 0 0 1 1.8 1.59 2 2 0 0 1 .17 2.29 2.65 2.65 0 0 1-1.53.91z" fill="#f2f2f2"/><path d="M148.94 297.18a3.74 3.74 0 0 0-4.32-.87 10.37 10.37 0 0 1 4.32.87zm13.25 0a3.84 3.84 0 0 1 2-1.14 3.79 3.79 0 0 1 2.3.27 10.37 10.37 0 0 0-4.3.87z" fill="#eda672"/><path fill="#473c35" d="M89.24 492.39l-2.15 8.01 8.92 2.31 2.5-8.49-9.27-1.83z"/><path d="M96.75 502.9c.52-2.2.87-4.15.2-2.93a1.79 1.79 0 0 1-2.49.73 18.94 18.94 0 0 0-3.46-1.24c-.5-.12-2.46.21-3-.15s-1.1-1.49-1.45-1.37c-1.31.47-11.66 8-11.66 8l-.25.2-.23 3.16-.22 2.91a9 9 0 0 0 1 .45l5 .52 3.17-.79 11.77-2.95v-.06l1.7-6.49z" fill="#6b391d"/><path d="M73.42 510l-.09.34a1.37 1.37 0 0 1 .08-.31z" fill="#e2e2de"/><path d="M87.16 498.24s.59-.53 1-.37l3.63 1.4a.63.63 0 0 1 0 1.07l-10.28 6.45c0 .25-4.44-.94-4.36-1.17z" fill="#7c4124"/><path d="M83.84 511.72a1.28 1.28 0 0 1-.56.68c-1 .66-3 1-3.82 1.48l-3.32-.88c-.37-.12-.7-.23-1-.35a9 9 0 0 1-1-.45 4 4 0 0 1-1.14-.9 2 2 0 0 1-.09-.33 4.31 4.31 0 0 1 0-2.05 5.5 5.5 0 0 1 .51-1.3 5.13 5.13 0 0 1 1.21-1.44l.25-.2a5.17 5.17 0 0 1 3.5-.82 8.18 8.18 0 0 1 1 .19 7 7 0 0 1 2.48 1.19 5 5 0 0 1 2 4.7 4.64 4.64 0 0 1-.02.48z" fill="#512915"/><path d="M89.69 510a15.36 15.36 0 0 1-5.69 1.21 15.66 15.66 0 0 1-4.13-.49l-1.66-.44-.39-.1c-3.22-.83-4.14-1.88-4.36-2.59a5.5 5.5 0 0 0-.51 1.3l-.32 1.25a1.49 1.49 0 0 0 .19.79 1.82 1.82 0 0 0 .23.33 4 4 0 0 0 1.19.92 9 9 0 0 0 1 .45c.35.13.76.26 1.17.39 1.1.35 2.23.64 2.23.64a16.71 16.71 0 0 0 10.79-.8l4.3-1.85a2.51 2.51 0 0 0 1.42-1.6v-.06l.5-1.94z" fill="#7c4124"/><path d="M156.55 415.26l.33 21.41c0 .08.08 3.45-.53 3.42-1.83-.06-22.9 0-37.76 6 0 0-5.43 10.72-8.55 16.32-3.88 7-12.28 35.07-12.28 35.07a6.87 6.87 0 0 1-2.37-.26c-.33-.08-1.4-.49-1.85-.61-.8-.22-1.57-.46-2.44-.71s-1.4-.43-1.87-.59c-1-.34-1.21-.14-1.21-.78 0 0 4.18-48.29 12.27-55.87 5.52-5.18 18.48-17.1 26.25-19.52.59-.18 0-6.39 0-6.39l22.71 2.48z" fill="#ab7348"/><path d="M155.64 430.9l-.52 9.19c-12.56-.64-35.56 4.21-36.72 6.29-1.34 2.37-7.58 14.37-9.85 19.55-3 7-10.81 31.48-10.81 31.48a3.57 3.57 0 0 0-1.88 0c3.89-21.11 11.68-46.2 15-51.75 5.01-8.55 44.78-14.76 44.78-14.76z" fill="#9e6946"/><path d="M239.69 461.87c2.14 3.43 4.19 6.88 6.19 10.35l3 5.22 1.45 2.63.73 1.33.19.35.17.34.35.68c.43.67-.9 2.31-3 3.77l-.46.31a12.37 12.37 0 0 1-3.62 1.65c-.78.17-1.34.12-1.55-.2a.39.39 0 0 1-.06-.15l-.31-.44-.2-.28-.11-.14a.15.15 0 0 0 0-.06v-.05l-.84-1.12-1.76-2.31c-1.18-1.54-2.37-3.08-3.57-4.6-2.4-3.05-4.84-6.06-7.3-9a178.11 178.11 0 0 0-3.73-4.27l-.46-.52-.47-.5-.93-1c-.32-.34-.62-.64-.93-1l-.93-.93-.22-.22-.23-.2-.44-.41-.44-.41-.11-.1h-.06l-.11-.07-.11-.07-.13-.1-.38-.24-.31-.11h-.06l-.12-.07-.46-.29c-.29-.19-.67-.39-1-.6-.18-.09-.35-.19-.53-.3l-.56-.3c-.74-.41-1.55-.82-2.33-1.22-3.24-1.62-6.69-3.18-10.19-4.68s-7.09-2.95-10.69-4.37L187.5 446l-25.64-5.87-5.44-.13-.91-23.32 27.73-3.56.88 6.76 1.36.72q2.67 1.43 5.33 2.88c1.58.86 3.17 1.73 4.75 2.61q2.91 1.62 5.82 3.28 5.27 3 10.49 6.17c3.49 2.13 7 4.33 10.43 6.74.87.62 1.74 1.22 2.62 1.89l.65.49.66.52c.45.35.88.68 1.34 1.07s.89.74 1.37 1.19l.71.65c.11.09.24.23.37.36l.38.39.37.39.18.19.13.17.54.65c.35.43.71.87 1 1.3l1 1.29c.32.43.64.85.93 1.28l.9 1.29.44.64.43.64c1.19 1.76 2.29 3.47 3.37 5.19z" fill="#ab7348"/><path d="M155.24 430.78l.1 9c8.68-.1 21.38 3.19 32.43 6.25 0 0 27.82 11.11 32.06 14.77 9.71 8.38 23.54 27.8 23.54 27.8 0 .42 1-.68 1.86-.4-8.38-33.92-52-49.2-55.87-52-5.85-4.29-34.12-5.42-34.12-5.42z" fill="#9e6946"/><path fill="#f2dcce" d="M185.2 416.33l-56.16-1.19 12.27-87.39 15.48 3.29 16.29-3.29 12.12 88.58z"/><path d="M155.63 330.44s-3.56 43.35-3.45 43.93 2.66 3.89 3.73 4c.65.09 4.5-3.07 4.91-4 .78-1.71-3.75-44-3.75-44z" fill="#473c35"/><path d="M151.62 330.68s6.6-.61 9.2 0c0 0-2.94 6-4.6 6.57 0 0-4.52-3.74-4.6-6.57z" fill="#473c35"/><path d="M138.56 328.8s9.11 17.4 17.88 25.32c0 0 15.76-11.61 19.08-21.65l2.48.53s1.81 76.6 1.93 84.61c0 0-20.26 4.46-41.38 0 0 0-3.19-83.79-3.39-87.42z" fill="#b53116"/><g clip-path="url(#bC)"><path d="M129.47 333.75s-.64 43.78 3.63 44.95 2.91-7.55 6.93-5.48 7.42 8.76 14.16 9.41 8-15.77 12.77-15.25 2.18 8.36 7.23 8.62.23-10.77 2-11.29 2 1 5.05 1 2.21-18 2.21-18l-3.85-16.14a11.85 11.85 0 0 0-4.5-1.57c-2.36-.24-32.35 1.24-36.66 1.26s-8.97 2.49-8.97 2.49z" fill="#a02a17"/></g><path d="M147.87 325.31s.83 3.36 8.84 5.15a85.33 85.33 0 0 1-7.23 7.92s-4.74-7.68-4.7-11.35zm8.84 5.15a83.27 83.27 0 0 0 6.58 8.36s2.81-7.34 3.86-11.58c0 0-2.83-1.82-3.78-2.26a12.11 12.11 0 0 1-6.66 5.48z" fill="#dbdbdb"/><path d="M144.35 327.72h-7.95a9 9 0 0 0-8.85 8.53l-3.08 83.86a.34.34 0 0 0 .34.35h2.28c6.33 0 20.55 0 20.56-20.16z" fill="url(#b)"/><path d="M168.19 327.72h8.14a9 9 0 0 1 8.85 8.53l3.08 83.86a.34.34 0 0 1-.34.35h-2.28c-6.33 0-20.55 0-20.55-20.16z" fill="url(#bD)"/><path d="M185.48 345.4l-3.1-15.22a6.72 6.72 0 0 0-4-2 43.3 43.3 0 0 0-11.26-.15v39.16c4.65.65 2 9.78 7 10s.1-13.77 3.57-14c2.57-.14 3.13 4.86 6.23 4.86s1.56-22.65 1.56-22.65zm-56.35 11.18c-.09 1.69.12 11.51 1.72 14.27s9.38 1.83 10-2.37-.29-12.17-.29-12.17-7.72.02-11.43.27z" fill="#442b28"/><path d="M145 328l-9.93.06c-4.3 0-7.1 3.64-7.1 3.64s-4 58 2.87 59.31c4.35.82 4.4-19.7 8.42-17.63a22.35 22.35 0 0 1 5.52 3.57z" fill="#442b28"/><path fill="#69423d" d="M136.31 327.74l9.69-1.33 1.55 69.06-6.72-47.56 3.07-5.87-4.21 1.02-3.38-15.32z"/><g clip-path="url(#bE)"><path d="M129.47 331.87s-2.66 56.1 1.61 57.26 6-17.38 10-15.31 4.67 6.89 11.41 7.53 6.51-15.15 11.31-14.63 2.46 6.73 7.51 7 3.11-10.36 4.92-10.88 2 1 5.05 1 2.21-18 2.21-18l-3.85-16.14-33.37-3.43c-2.36-.24-5.73 1.43-10 1.45s-6.8 4.15-6.8 4.15z" fill="#5e3a38"/></g><path fill="#69423d" d="M176.39 327.74l-10.07-1.05-1.18 68.78 6.72-47.56-3.07-5.87 4.21 1.02 3.39-15.32z"/><g clip-path="url(#bF)"><path d="M183.49 345.86l-3.85-16.14a4.18 4.18 0 0 0-3.27-2.11 95.16 95.16 0 0 0-10.1-.85l-.61 40.93a2.54 2.54 0 0 1 1.6-.41c4.79.52 2.41 9.45 7.46 9.71s-.3-13.64 1.51-14.16 2 1 5.05 1 2.21-17.97 2.21-17.97z" fill="#5e3a38"/></g><path fill="#facaa7" d="M75.08 292.18l-.05 4.97 3.86 4.06-3.81-9.03z"/><path d="M79.05 288.28a3.94 3.94 0 1 0 3.91 4 3.95 3.95 0 0 0-3.91-4z" fill="#facaa7"/><path d="M79 293.21a3.94 3.94 0 1 0 3.9 4 3.94 3.94 0 0 0-3.9-4z" fill="#facaa7"/><path d="M81.6 293.23a3.95 3.95 0 1 0 3.9 4 3.94 3.94 0 0 0-3.9-4z" fill="#facaa7"/><path d="M82.48 294.14a1.55 1.55 0 1 0 3.08 0l.06-4.06a1.55 1.55 0 1 0-3.08 0z" fill="#facaa7"/><path d="M82.44 297.38a1.56 1.56 0 1 0 2.56 1.71l2.51-3.77a1.55 1.55 0 1 0-2.51-1.71z" fill="#facaa7"/><path d="M84.74 294.36a1.55 1.55 0 1 0 2.89-1.07l-.7-1.88a1.55 1.55 0 1 0-2.93 1.07z" fill="#facaa7"/><path fill="#facaa7" d="M79.014 292.226l.039-3.94 5.03.05-.04 3.94zM75.881 304.2l.078-8.93 8.87.078-.078 8.93z"/><path d="M75.94 303.55a38 38 0 0 0 .55 9.3c.18.78.32 1.57.55 2.34l.16.58c.06.19.11.39.18.58l.38 1.15c.06.19.14.38.21.57l.23.56.22.57c.08.19.17.37.25.56l.51 1.11.57 1.08c.18.37.4.71.6 1.07s.42.71.65 1 .44.69.67 1l.72 1c.24.34.5.64.76 1s.51.64.78.94.53.61.81.91l.84.87a40.06 40.06 0 0 0 3.58 3.26 46.15 46.15 0 0 0 3.84 2.72q2 1.27 4 2.36c1.37.71 2.76 1.39 4.16 2a78.33 78.33 0 0 0 8.55 3.12c1.44.44 2.88.84 4.33 1.2s2.91.7 4.37 1c2.92.6 5.85 1.07 8.8 1.44l1-16.41c-2.54 0-5.1-.15-7.63-.38q-1.91-.18-3.78-.42c-1.25-.17-2.49-.37-3.73-.6a53.4 53.4 0 0 1-13.89-4.36A26.67 26.67 0 0 1 89 316.28l-.45-.67c-.15-.23-.28-.46-.42-.69s-.15-.23-.21-.35l-.19-.36-.2-.36c-.06-.12-.13-.24-.18-.36l-.35-.75c-.06-.12-.12-.25-.17-.38l-.15-.38c-.22-.5-.38-1-.57-1.56a28 28 0 0 1-1.18-6.82z" fill="#69423d"/><path d="M135.65 338.81a9.31 9.31 0 0 0-2.28-5.78 7.34 7.34 0 0 0-5.08-2.58 7.47 7.47 0 0 0-5.38 1.94c-1.49 1.32-.14 3-.46 5.24s1.25 3.7 2.58 5.34-.08 3.72 2.26 3.87a8 8 0 0 0 6-2.2 7.66 7.66 0 0 0 2.36-5.83z" fill="#5e3a38"/><path d="M113.15 329s.64 5 1.73 6.47a5.89 5.89 0 0 0 4.35 2.28c1.69.19 1.17 3 2.58 3.36 1.88.5 4.21 5.55 4.21 5.55l1.31.11 4.58-5.76-3.62-10.61z" fill="#5e3a38"/><g clip-path="url(#bG)"><ellipse cx="90.08" cy="334.74" rx="3.96" ry="7.79" transform="rotate(-48.21 90.078 334.74)" fill="#ab7348"/></g><path fill="#facaa7" d="M241.8 281.43l-2.61 4.23-5.42 1.38 8.03-5.61z"/><path d="M240.52 276a3.94 3.94 0 1 1-5.42 1.29 4 4 0 0 1 5.42-1.29z" fill="#facaa7"/><path d="M237.94 280.21a3.94 3.94 0 1 1-5.43 1.29 3.93 3.93 0 0 1 5.43-1.29z" fill="#facaa7"/><path d="M235.73 278.85a3.94 3.94 0 1 1-5.42 1.29 3.94 3.94 0 0 1 5.42-1.29z" fill="#facaa7"/><path d="M234.5 279.14a1.55 1.55 0 1 1-2.63-1.6l2.11-3.47a1.56 1.56 0 1 1 2.64 1.61z" fill="#facaa7"/><path d="M232.8 281.91a1.55 1.55 0 1 1-3.08.08l-.12-4.53a1.56 1.56 0 1 1 3.09-.08z" fill="#facaa7"/><path d="M232.47 278.13a1.56 1.56 0 1 1-1.88-2.45l1.6-1.22a1.55 1.55 0 1 1 1.87 2.45z" fill="#facaa7"/><path fill="#facaa7" d="M234.166 276.722l2.067-3.355 4.282 2.639-2.067 3.354zm-7.001 9.798l4.692-7.598 7.547 4.661-4.693 7.598z"/><path d="M227.32 286.32a124.29 124.29 0 0 1-9.93 13.05c-1.82 2.05-3.65 4.08-5.58 6-.94 1-1.93 1.94-2.9 2.91-.48.48-1 .95-1.48 1.42s-1 1-1.5 1.42l-1.51 1.39c-.5.47-1 .92-1.53 1.37-1 .92-2.07 1.81-3.1 2.71-2.1 1.77-4.22 3.51-6.38 5.2-4.32 3.37-8.77 6.59-13.31 9.59l7 14.67c5.68-2.77 11.87-9.31 16.07-13.41 2.1-2.05 4.14-4.15 6.16-6.28 1-1.08 2-2.14 3-3.24.48-.55 1-1.09 1.46-1.64l1.45-1.67c.48-.54.95-1.12 1.42-1.68s1-1.12 1.41-1.69c.93-1.15 1.86-2.28 2.75-3.45 1.82-2.31 3.55-4.71 5.25-7.12a133.39 133.39 0 0 0 9.11-15.22z" fill="#69423d"/><path d="M178.54 342.69a7.76 7.76 0 0 0 5.3 3.38c2.1.33 1 .31 2.89-1.1s1.29-3.38 1.52-5.48-.74-2.87-2.18-4.62 1.89-4.68-.15-4.95a7.89 7.89 0 0 0-5.82 1.5 7.78 7.78 0 0 0-3 5.18 8.91 8.91 0 0 0 1.44 6.09z" fill="#5e3a38"/><g clip-path="url(#bH)"><ellipse cx="216.82" cy="319.89" rx="7.79" ry="3.96" transform="rotate(-45 216.822 319.89)" fill="#ab7348"/></g><path d="M161.53 315.76c-1.15.86-3 1.4-5.87 1.4-3.24 0-5.12-.67-6.22-1.73-.69-.67-.66-2.28-.49-3.94.24-2.2.66-3.27 1.23-3.89a3 3 0 0 1 1.66-.92c1.44-.2 1.84.27 3.82.27s2.39-.47 3.84-.27a2.42 2.42 0 0 1 .74.24 2.4 2.4 0 0 1 .84.67 7.74 7.74 0 0 1 1.16 3.86c.22 1.85.33 3.55-.71 4.31z" fill="#4c0c0a"/><path d="M150.86 315.62a5.89 5.89 0 0 1 3.79-1.87 7.42 7.42 0 0 1 4.52.84c.54.32 1 .78.88 1.25a35.12 35.12 0 0 1-8.58.42c-.29 0-.64-.08-.72-.27s.02-.25.11-.37z" fill="#af3f3f"/><path d="M161.08 307.59a1.07 1.07 0 0 1-.25.22 4 4 0 0 1-1.48.56 29.81 29.81 0 0 1-6.53.1 6.13 6.13 0 0 1-2.42-.7 2.11 2.11 0 0 1-.22-.17 2.27 2.27 0 0 1 .47-.41l.12-.08.09-.06h.08a2.26 2.26 0 0 1 .86-.31c1.44-.2 1.84.27 3.82.27s2.39-.47 3.84-.27a2.42 2.42 0 0 1 .74.24l.11.06.19.13a2.81 2.81 0 0 1 .58.42zm.45 8.17c-1.11.9-3 1.4-5.87 1.4-3.24 0-5.18-.63-6.22-1.73a3.92 3.92 0 0 1 .32-.25l.18-.1a1.82 1.82 0 0 1 .43-.16 3.77 3.77 0 0 1 1.62.2 17.72 17.72 0 0 0 7.67 0 2 2 0 0 1 1.33 0 1.33 1.33 0 0 1 .19.14.93.93 0 0 1 .13.15 1.93 1.93 0 0 1 .22.35z" fill="#fff"/><path d="M167.81 293.44a13.46 13.46 0 0 0-3.54 1 7.15 7.15 0 0 0-2.49 2.44c-.22.38-.6.39-.7.15-.6-1.19 1.29-3.21 3.39-4.19s5.43-1.3 6-.19c.29.46-1.09.59-2.66.79z" fill="#4c0c0a"/><path d="M168.55 295.8a14 14 0 0 0-3.67-.26 7.26 7.26 0 0 0-3.17 1.45c-.34.29-.7.17-.71-.09-.16-1.33 2.3-2.59 4.61-2.79s5.55.61 5.74 1.86c.09.52-1.26.17-2.8-.17zm-25.24-2.36a13.46 13.46 0 0 1 3.54 1 7.15 7.15 0 0 1 2.49 2.44c.22.38.6.39.7.15.6-1.19-1.29-3.21-3.39-4.19s-5.43-1.3-6-.19c-.29.46 1.09.59 2.66.79z" fill="#4c0c0a"/><path d="M142.57 295.8a14.05 14.05 0 0 1 3.67-.26 7.21 7.21 0 0 1 3.17 1.45c.34.29.7.17.72-.09.15-1.33-2.31-2.59-4.62-2.79s-5.55.61-5.74 1.86c-.09.52 1.23.17 2.8-.17z" fill="#4c0c0a"/><path d="M126.35 355.23s-3 19.45-1.41 24.29 3 7.26 3.27.84-.73-15.37-.12-16.58 1.69-1.57 1.57 3.51-.85 17.07.73 15.74 1.81-3.39 1.45-9.32 2.39-8.95 2.15-6.65 1.45 4.61 1.81 1.71-4.27-12.47-5-13.17c-.39-.39-.89-1-1.85-2.11-1.19-1.4-1.65-1.69-2.36-1.63s-.24.46-.24 3.37zM169 330.61a64 64 0 0 0 0 15.39c1 9.08 3.3 18 2 20.47s-3.3 1.15-3.8-4.63-.66-16.34-1-13.86.49 11.06-1 11.55-1.32-3.79-1-9.74 2.64-19.31 3.47-20.46 1.47-1.53 1.33 1.28z" fill="#9ad8e8"/><path d="M148.64 262.06c-.82.18-4.81 1.92-.64 2.2s14.86.5 15.14 3.81 2.77 5.18 2.67 2.86-1-3.47.72-2.54 5.18 2.79 5.31 5.89 1.89 4.8 2.38 2.4 4.24-6.61 4-2.81 1.52 6.64 2.05 4.06-.68-5.12 2.09-5.51-1.66-.34-4-2.16-3.79-8.06-12.68-9.63c-8.39-1.49-12.18.37-17.04 1.43z" fill="#9ad8e8" opacity=".69"/><path d="M155.58 251.35s9.86-12 5.41-16.44-4.87 10.09-5.41 16.44z" fill="#fff"/><path d="M191.3 270.69s11 0 11.43-4.37-7.68 1.81-11.43 4.37z" fill="#9ad8e8" opacity=".79"/><path d="M139.94 250.85s-4-10.28-8.22-9.07 4.47 6.5 8.22 9.07z" fill="#fff"/><path d="M185.18 264.28s22.21-26.44 19.79-15-12 12.13-14.57 14.39c1.19 1.78 0 3.86 5.11 2.25s28.78-1.24 22.43 2-23.2 3.42-28.72 1.71-9.22-4.69-4.04-5.35z" fill="#9ad8e8" opacity=".79"/><path d="M178.12 267.93s11.31-13.49 11.86-9.22-9.25 6.96-11.86 9.22zm10.67 7.69s17.15-1.69 12.05-.08-12.05.08-12.05.08z" fill="#fff"/><path d="M171.33 248.89s10.47-24 14.93-19.25-8.17 11.64-5.26 15.61 5-2.08 12.45-8.33 21.58-12.38 14.77-5.24-22.07 16.17-25.94 21.79-11.87 11-12.82 7.23 1.87-11.81 1.87-11.81zM130 271.51c-3-1.06-11.7-4.78-22.14-3.46-5.69.72-4.56 5.88 4.52 5.21s16 .39 15.38 3.36-25.37-2.09-30.46 3.38c-3.38 3.81 1.26 6.11 8.13 3.31s17.32-4.12 20.89-2.64 9.78 3.45 7.89-2.45-4.21-6.71-4.21-6.71z" fill="#9ad8e8" opacity=".79"/><path d="M105.4 278.51s-10.73 6.67-3.73 4.82 3.73-4.82 3.73-4.82zm13.51-5.97s-9.27-4.62-13.83-2.59c-1.72 1.66 9.97 2.59 13.83 2.59zm56.51-29.48s6.21-11.87 10.84-13.42c0 0-5.45 10.36-10.84 13.42zm11.34 1.94s15.46-15 23.53-16c.53.42-21.22 15.23-23.53 16z" fill="#fff"/><path d="M171.39 250.73s-1.87 13.27 10.06.82c-.17.94-13.24 17.08-10.06-.82z" fill="#87c9d8" opacity=".85"/><path d="M198.52 259.21s-16.48 6.92-.23 5.82-31.91 6.97.23-5.82zm-19.02 21.33s32.68 14.47 11.38 9.88c-10.08-2.17-10.1-6.85-11.28-7.82-1 .63-2 .29-1.48 2.31.57 2.3-1.34 15.66-2.64 11-1-3.75.14-11.08 1.24-13.3s2.69-3.95 2.78-2.07z" fill="#9ad8e8" opacity=".79"/><path d="M182.46 283s16.55 7.27 9.73 7.28c-5.26-.04-7.91-6.14-9.73-7.28zm-5.84 4.1s-.33 9.26-.83 6a13.63 13.63 0 0 1 .83-6z" fill="#fff"/><path d="M180.9 283.9s-3.21-6.57-3.54 0c-.43 8.48-1.36-10.78 3.54 0z" fill="#87c9d8" opacity=".85"/><path d="M205.07 248.14s-12.1 5.51-6.26 7.06 14.11-9.09 6.26-7.06z" fill="#9ad8e8"/><path d="M201.26 252.4s.6-3.46 5.14-3.19c.79.79-5.14 3.19-5.14 3.19z" fill="#fff"/><path d="M196.59 253.84s.64 5 9.9-1.25c0 0-5.72 4.11-9.9 1.25zm-22.33-22.99s-8.89 9.89-2.91 9 9.3-13.99 2.91-9z" fill="#87c9d8" opacity=".85"/><path d="M172.48 236.29s-.84-3.42 3.43-5c1.02.39-3.43 5-3.43 5z" fill="#fff"/><path d="M168.77 239.47s2.58 4.34 8.57-5.1c0 0-3.6 6.06-8.57 5.1z" fill="#87c9d8" opacity=".85"/><path d="M197.83 286.87s-8.35-2-6 1.11 10.8 1.02 6-1.11z" fill="#9ad8e8"/><path d="M194.19 287.53s1.69-1.52 3.89.42c.1.69-3.89-.42-3.89-.42z" fill="#fff"/><path d="M191.25 286.41s-1.67 2.8 5.53 3.29c0 0-4.55-.18-5.53-3.29z" fill="#9ad8e8"/><path d="M220.53 288.42s-11.77-2.83-8.44 1.56 15.21 1.38 8.44-1.56z" fill="#9ad8e8" opacity=".79"/><path d="M211.09 289.18s2.37-2.15 5.48.58c.14.98-5.48-.58-5.48-.58z" fill="#fff"/><path d="M211.25 288.28s-2.34 4 7.8 4.64c0 0-6.4-.25-7.8-4.64z" fill="#87c9d8" opacity=".85"/><path d="M125.69 394.76s-6 14.53-4.26 18.4 3.68 2.52 4.07-3.48 1.36-17.82.19-14.92zm58.87 6.24s-2 14.37 2 11.83-1.16-16.35-2-11.83z" fill="#9ad8e8"/><path fill="none" d="M56.76 487.39h119.83v27.11H56.76z"/><path d="M159.1 294h-.18l-2-.62a5.08 5.08 0 0 0-2.89 0l-2 .62a.62.62 0 0 1-.78-.46.67.67 0 0 1 .43-.83l2-.61a6.1 6.1 0 0 1 3.59 0l2 .61a.69.69 0 0 1 .43.83.64.64 0 0 1-.6.46zm-21.24 2.25h-2.52a.67.67 0 1 1 0-1.34h2.36a5.32 5.32 0 0 0 .16 1.34zm35.75-1.61H176a.67.67 0 1 1 0 1.34h-2.43z" fill="#372b36"/><circle cx="145.04" cy="294.67" r="6.85" fill="none" stroke="#372b36" stroke-miterlimit="10"/><circle cx="166.13" cy="294.67" r="6.85" fill="none" stroke="#372b36" stroke-miterlimit="10"/></g></svg>