<svg xmlns="http://www.w3.org/2000/svg" xmlns:xlink="http://www.w3.org/1999/xlink" viewBox="0 0 308.25 516.46"><defs><clipPath id="c"><path d="M202.89 81.1v.08c-.12.4-2 1-2.43 1.09a47.29 47.29 0 0 1-6.38 1.26c-32 4.69-81.59 1.66-86.33-1.84l-.18-.21c1-5.48 59.74-7.19 84.23-4 6.37.86 10.52 2 11.09 3.62z" fill="#a81a16"/></clipPath><clipPath id="d"><path d="M209.48 82.57a23.88 23.88 0 0 1-.74 4.86l-.13.26-.19.23c-1.09.52-1.44 1.16-6.12 2.35-21.4 5.08-70.3 5-92.06.72-6.43-1.36-7-2.23-8.14-2.77l-.32-.5a24.25 24.25 0 0 1-.8-4.88c4.22 8 104.02 8.03 108.5-.27z" fill="#d22c20"/></clipPath><clipPath id="e"><path d="M206 89.84c-.49 2.69-14.27 83.79-14.58 84.93-6 17.67-67.22 18.43-71.3-.31L104.58 90.2c15.67 6.72 85.48 6.66 101.42-.36z" fill="#d22c20"/></clipPath><linearGradient id="f" x1="18.99" y1="265.48" x2="51.3" y2="265.48" gradientUnits="userSpaceOnUse"><stop offset=".01" stop-color="#d22c20"/><stop offset=".31" stop-color="#e7342e"/><stop offset=".51" stop-color="#ef3733"/><stop offset=".72" stop-color="#e6332d"/><stop offset="1" stop-color="#d22c20"/></linearGradient><linearGradient id="g" x1="-181.01" y1="265.48" x2="-148.7" y2="265.48" gradientTransform="matrix(1 0 0 -1 437.96 530.95)" gradientUnits="userSpaceOnUse"><stop offset=".01" stop-color="#d22c20"/><stop offset=".31" stop-color="#e7342e"/><stop offset=".51" stop-color="#ef3733"/><stop offset=".72" stop-color="#e6332d"/><stop offset="1" stop-color="#d22c20"/></linearGradient><linearGradient id="a" x1="49.78" y1="303.98" x2="19" y2="303.98" gradientUnits="userSpaceOnUse"><stop offset=".05" stop-color="#d3d2d2"/><stop offset=".37" stop-color="#9a9a9c"/><stop offset=".64" stop-color="#9a9a9c"/><stop offset="1" stop-color="#d1d6d5"/></linearGradient><linearGradient id="h" x1="45.65" y1="310.78" x2="23.3" y2="310.78" xlink:href="#a"/><linearGradient id="i" x1="45.65" y1="317.59" x2="23.3" y2="317.59" xlink:href="#a"/><linearGradient id="j" x1="45.65" y1="324.39" x2="23.3" y2="324.39" xlink:href="#a"/><linearGradient id="k" x1="45.65" y1="331.2" x2="23.3" y2="331.2" xlink:href="#a"/><linearGradient id="l" x1="49.78" y1="338" x2="19" y2="338" xlink:href="#a"/><linearGradient id="m" x1="45.79" y1="344.81" x2="23.44" y2="344.81" xlink:href="#a"/><linearGradient id="n" x1="45.79" y1="351.62" x2="23.44" y2="351.62" xlink:href="#a"/><linearGradient id="o" x1="45.79" y1="358.42" x2="23.44" y2="358.42" xlink:href="#a"/><linearGradient id="p" x1="45.79" y1="365.23" x2="23.44" y2="365.23" xlink:href="#a"/><linearGradient id="q" x1="49.92" y1="372.03" x2="19.14" y2="372.03" xlink:href="#a"/><linearGradient id="r" x1="45.65" y1="378.84" x2="23.3" y2="378.84" xlink:href="#a"/><linearGradient id="s" x1="45.65" y1="385.64" x2="23.3" y2="385.64" xlink:href="#a"/><linearGradient id="t" x1="45.65" y1="392.45" x2="23.3" y2="392.45" xlink:href="#a"/><linearGradient id="u" x1="45.65" y1="399.25" x2="23.3" y2="399.25" xlink:href="#a"/><linearGradient id="v" x1="49.78" y1="406.06" x2="19" y2="406.06" xlink:href="#a"/><linearGradient id="w" x1="45.65" y1="412.86" x2="23.3" y2="412.86" xlink:href="#a"/><linearGradient id="x" x1="45.65" y1="419.67" x2="23.3" y2="419.67" xlink:href="#a"/><linearGradient id="y" x1="45.65" y1="426.48" x2="23.3" y2="426.48" xlink:href="#a"/><linearGradient id="z" x1="45.65" y1="433.28" x2="23.3" y2="433.28" xlink:href="#a"/><linearGradient id="A" x1="49.78" y1="440.09" x2="19" y2="440.09" xlink:href="#a"/><linearGradient id="B" x1="49.78" y1="202.11" x2="19" y2="202.11" xlink:href="#a"/><linearGradient id="C" x1="45.65" y1="208.92" x2="23.3" y2="208.92" xlink:href="#a"/><linearGradient id="D" x1="45.65" y1="215.72" x2="23.3" y2="215.72" xlink:href="#a"/><linearGradient id="E" x1="45.65" y1="222.53" x2="23.3" y2="222.53" xlink:href="#a"/><linearGradient id="F" x1="45.65" y1="229.33" x2="23.3" y2="229.33" xlink:href="#a"/><linearGradient id="G" x1="49.78" y1="236.14" x2="19" y2="236.14" xlink:href="#a"/><linearGradient id="H" x1="45.79" y1="242.94" x2="23.44" y2="242.94" xlink:href="#a"/><linearGradient id="I" x1="45.79" y1="249.75" x2="23.44" y2="249.75" xlink:href="#a"/><linearGradient id="J" x1="45.79" y1="256.56" x2="23.44" y2="256.56" xlink:href="#a"/><linearGradient id="K" x1="45.79" y1="263.36" x2="23.44" y2="263.36" xlink:href="#a"/><linearGradient id="L" x1="49.92" y1="270.17" x2="19.14" y2="270.17" xlink:href="#a"/><linearGradient id="M" x1="45.65" y1="276.97" x2="23.3" y2="276.97" xlink:href="#a"/><linearGradient id="N" x1="45.65" y1="283.78" x2="23.3" y2="283.78" xlink:href="#a"/><linearGradient id="O" x1="45.65" y1="290.58" x2="23.3" y2="290.58" xlink:href="#a"/><linearGradient id="P" x1="45.65" y1="297.39" x2="23.3" y2="297.39" xlink:href="#a"/><linearGradient id="Q" x1="49.78" y1="304.19" x2="19" y2="304.19" xlink:href="#a"/><linearGradient id="R" x1="45.65" y1="311" x2="23.3" y2="311" xlink:href="#a"/><linearGradient id="S" x1="45.65" y1="317.8" x2="23.3" y2="317.8" xlink:href="#a"/><linearGradient id="T" x1="45.65" y1="324.61" x2="23.3" y2="324.61" xlink:href="#a"/><linearGradient id="U" x1="45.65" y1="331.42" x2="23.3" y2="331.42" xlink:href="#a"/><linearGradient id="V" x1="49.78" y1="338.22" x2="19" y2="338.22" xlink:href="#a"/><linearGradient id="W" x1="49.78" y1="100.25" x2="19" y2="100.25" xlink:href="#a"/><linearGradient id="X" x1="45.65" y1="107.05" x2="23.3" y2="107.05" xlink:href="#a"/><linearGradient id="Y" x1="45.65" y1="113.86" x2="23.3" y2="113.86" xlink:href="#a"/><linearGradient id="Z" x1="45.65" y1="120.66" x2="23.3" y2="120.66" xlink:href="#a"/><linearGradient id="aa" x1="45.65" y1="127.47" x2="23.3" y2="127.47" xlink:href="#a"/><linearGradient id="ab" x1="49.78" y1="134.27" x2="19" y2="134.27" xlink:href="#a"/><linearGradient id="ac" x1="45.79" y1="141.08" x2="23.44" y2="141.08" xlink:href="#a"/><linearGradient id="ad" x1="45.79" y1="147.88" x2="23.44" y2="147.88" xlink:href="#a"/><linearGradient id="ae" x1="45.79" y1="154.69" x2="23.44" y2="154.69" xlink:href="#a"/><linearGradient id="af" x1="45.79" y1="161.5" x2="23.44" y2="161.5" xlink:href="#a"/><linearGradient id="ag" x1="49.92" y1="168.3" x2="19.14" y2="168.3" xlink:href="#a"/><linearGradient id="ah" x1="45.65" y1="175.11" x2="23.3" y2="175.11" xlink:href="#a"/><linearGradient id="ai" x1="45.65" y1="181.91" x2="23.3" y2="181.91" xlink:href="#a"/><linearGradient id="aj" x1="45.65" y1="188.72" x2="23.3" y2="188.72" xlink:href="#a"/><linearGradient id="ak" x1="45.65" y1="195.52" x2="23.3" y2="195.52" xlink:href="#a"/><linearGradient id="al" x1="49.78" y1="202.33" x2="19" y2="202.33" xlink:href="#a"/><linearGradient id="am" x1="45.65" y1="209.13" x2="23.3" y2="209.13" xlink:href="#a"/><linearGradient id="an" x1="45.65" y1="215.94" x2="23.3" y2="215.94" xlink:href="#a"/><linearGradient id="ao" x1="45.65" y1="222.75" x2="23.3" y2="222.75" xlink:href="#a"/><linearGradient id="ap" x1="45.65" y1="229.55" x2="23.3" y2="229.55" xlink:href="#a"/><linearGradient id="aq" x1="49.78" y1="236.36" x2="19" y2="236.36" xlink:href="#a"/><linearGradient id="ar" x1="288.78" y1="303.98" x2="258" y2="303.98" xlink:href="#a"/><linearGradient id="as" x1="284.65" y1="310.78" x2="262.3" y2="310.78" xlink:href="#a"/><linearGradient id="at" x1="284.65" y1="317.59" x2="262.3" y2="317.59" xlink:href="#a"/><linearGradient id="au" x1="284.65" y1="324.39" x2="262.3" y2="324.39" xlink:href="#a"/><linearGradient id="av" x1="284.65" y1="331.2" x2="262.3" y2="331.2" xlink:href="#a"/><linearGradient id="aw" x1="288.78" y1="338" x2="258" y2="338" xlink:href="#a"/><linearGradient id="ax" x1="284.79" y1="344.81" x2="262.44" y2="344.81" xlink:href="#a"/><linearGradient id="ay" x1="284.79" y1="351.62" x2="262.44" y2="351.62" xlink:href="#a"/><linearGradient id="az" x1="284.79" y1="358.42" x2="262.44" y2="358.42" xlink:href="#a"/><linearGradient id="aA" x1="284.79" y1="365.23" x2="262.44" y2="365.23" xlink:href="#a"/><linearGradient id="aB" x1="288.92" y1="372.03" x2="258.14" y2="372.03" xlink:href="#a"/><linearGradient id="aC" x1="284.65" y1="378.84" x2="262.3" y2="378.84" xlink:href="#a"/><linearGradient id="aD" x1="284.65" y1="385.64" x2="262.3" y2="385.64" xlink:href="#a"/><linearGradient id="aE" x1="284.65" y1="392.45" x2="262.3" y2="392.45" xlink:href="#a"/><linearGradient id="aF" x1="284.65" y1="399.25" x2="262.3" y2="399.25" xlink:href="#a"/><linearGradient id="aG" x1="288.78" y1="406.06" x2="258" y2="406.06" xlink:href="#a"/><linearGradient id="aH" x1="284.65" y1="412.86" x2="262.3" y2="412.86" xlink:href="#a"/><linearGradient id="aI" x1="284.65" y1="419.67" x2="262.3" y2="419.67" xlink:href="#a"/><linearGradient id="aJ" x1="284.65" y1="426.48" x2="262.3" y2="426.48" xlink:href="#a"/><linearGradient id="aK" x1="284.65" y1="433.28" x2="262.3" y2="433.28" xlink:href="#a"/><linearGradient id="aL" x1="288.78" y1="440.09" x2="258" y2="440.09" xlink:href="#a"/><linearGradient id="aM" x1="288.78" y1="202.11" x2="258" y2="202.11" xlink:href="#a"/><linearGradient id="aN" x1="284.65" y1="208.92" x2="262.3" y2="208.92" xlink:href="#a"/><linearGradient id="aO" x1="284.65" y1="215.72" x2="262.3" y2="215.72" xlink:href="#a"/><linearGradient id="aP" x1="284.65" y1="222.53" x2="262.3" y2="222.53" xlink:href="#a"/><linearGradient id="aQ" x1="284.65" y1="229.33" x2="262.3" y2="229.33" xlink:href="#a"/><linearGradient id="aR" x1="288.78" y1="236.14" x2="258" y2="236.14" xlink:href="#a"/><linearGradient id="aS" x1="284.79" y1="242.94" x2="262.44" y2="242.94" xlink:href="#a"/><linearGradient id="aT" x1="284.79" y1="249.75" x2="262.44" y2="249.75" xlink:href="#a"/><linearGradient id="aU" x1="284.79" y1="256.56" x2="262.44" y2="256.56" xlink:href="#a"/><linearGradient id="aV" x1="284.79" y1="263.36" x2="262.44" y2="263.36" xlink:href="#a"/><linearGradient id="aW" x1="288.92" y1="270.17" x2="258.14" y2="270.17" xlink:href="#a"/><linearGradient id="aX" x1="284.65" y1="276.97" x2="262.3" y2="276.97" xlink:href="#a"/><linearGradient id="aY" x1="284.65" y1="283.78" x2="262.3" y2="283.78" xlink:href="#a"/><linearGradient id="aZ" x1="284.65" y1="290.58" x2="262.3" y2="290.58" xlink:href="#a"/><linearGradient id="ba" x1="284.65" y1="297.39" x2="262.3" y2="297.39" xlink:href="#a"/><linearGradient id="bb" x1="288.78" y1="304.19" x2="258" y2="304.19" xlink:href="#a"/><linearGradient id="bc" x1="284.65" y1="311" x2="262.3" y2="311" xlink:href="#a"/><linearGradient id="bd" x1="284.65" y1="317.8" x2="262.3" y2="317.8" xlink:href="#a"/><linearGradient id="be" x1="284.65" y1="324.61" x2="262.3" y2="324.61" xlink:href="#a"/><linearGradient id="bf" x1="284.65" y1="331.42" x2="262.3" y2="331.42" xlink:href="#a"/><linearGradient id="bg" x1="288.78" y1="338.22" x2="258" y2="338.22" xlink:href="#a"/><linearGradient id="bh" x1="288.78" y1="100.25" x2="258" y2="100.25" xlink:href="#a"/><linearGradient id="bi" x1="284.65" y1="107.05" x2="262.3" y2="107.05" xlink:href="#a"/><linearGradient id="bj" x1="284.65" y1="113.86" x2="262.3" y2="113.86" xlink:href="#a"/><linearGradient id="bk" x1="284.65" y1="120.66" x2="262.3" y2="120.66" xlink:href="#a"/><linearGradient id="bl" x1="284.65" y1="127.47" x2="262.3" y2="127.47" xlink:href="#a"/><linearGradient id="bm" x1="288.78" y1="134.27" x2="258" y2="134.27" xlink:href="#a"/><linearGradient id="bn" x1="284.79" y1="141.08" x2="262.44" y2="141.08" xlink:href="#a"/><linearGradient id="bo" x1="284.79" y1="147.88" x2="262.44" y2="147.88" xlink:href="#a"/><linearGradient id="bp" x1="284.79" y1="154.69" x2="262.44" y2="154.69" xlink:href="#a"/><linearGradient id="bq" x1="284.79" y1="161.5" x2="262.44" y2="161.5" xlink:href="#a"/><linearGradient id="br" x1="288.92" y1="168.3" x2="258.14" y2="168.3" xlink:href="#a"/><linearGradient id="bs" x1="284.65" y1="175.11" x2="262.3" y2="175.11" xlink:href="#a"/><linearGradient id="bt" x1="284.65" y1="181.91" x2="262.3" y2="181.91" xlink:href="#a"/><linearGradient id="bu" x1="284.65" y1="188.72" x2="262.3" y2="188.72" xlink:href="#a"/><linearGradient id="bv" x1="284.65" y1="195.52" x2="262.3" y2="195.52" xlink:href="#a"/><linearGradient id="bw" x1="288.78" y1="202.33" x2="258" y2="202.33" xlink:href="#a"/><linearGradient id="bx" x1="284.65" y1="209.13" x2="262.3" y2="209.13" xlink:href="#a"/><linearGradient id="by" x1="284.65" y1="215.94" x2="262.3" y2="215.94" xlink:href="#a"/><linearGradient id="bz" x1="284.65" y1="222.75" x2="262.3" y2="222.75" xlink:href="#a"/><linearGradient id="bA" x1="284.65" y1="229.55" x2="262.3" y2="229.55" xlink:href="#a"/><linearGradient id="bB" x1="288.78" y1="236.36" x2="258" y2="236.36" xlink:href="#a"/><linearGradient id="b" x1="124.66" y1="374.43" x2="147.94" y2="374.43" gradientUnits="userSpaceOnUse"><stop offset="0" stop-color="#5b413f"/><stop offset=".25" stop-color="#543734"/><stop offset=".51" stop-color="#523430"/><stop offset=".87" stop-color="#4d312d"/><stop offset="1" stop-color="#4a2f2b"/></linearGradient><linearGradient id="bC" x1="165.46" y1="374.43" x2="188.74" y2="374.43" xlink:href="#b"/><clipPath id="bD"><path d="M123.11 406.27l-.2-.85v-5.78l.06-1c.16-2.69.47-5.42.85-8.16s.85-5.47 1.38-8.2 1.09-5.45 1.73-8.17 1.31-5.41 2-8.1 1.5-5.35 2.31-8 1.69-5.28 2.6-7.89 1.88-5.17 2.89-7.71l-15.56-5.07c-.8 2.88-1.52 5.76-2.2 8.64s-1.27 5.77-1.83 8.66-1.06 5.79-1.51 8.69-.85 5.81-1.21 8.73-.64 5.84-.88 8.78-.41 5.88-.5 8.85-.1 6 .05 9l.06 1.15c0 .38.06.77.09 1.16s0 .77.1 1.17l.13 1.18v.6l.09.61c.06.4.11.8.2 1.23l.12.62.06.32v.32l.32 1.31z" fill="none"/></clipPath><clipPath id="bE"><path d="M189.67 404.78l.18-.82v-5.78l-.06-1c-.16-2.69-.47-5.43-.85-8.16s-.85-5.47-1.37-8.2-1.1-5.46-1.74-8.17-1.31-5.42-2-8.1-1.49-5.36-2.31-8-1.69-5.28-2.6-7.88-1.88-5.18-2.89-7.71l15.56-5.08q1.2 4.32 2.2 8.64c.67 2.89 1.27 5.77 1.83 8.67s1.06 5.79 1.52 8.69.85 5.81 1.2 8.72.64 5.84.88 8.78.41 5.88.5 8.85.1 6-.05 9l-.06 1.15c0 .39-.06.78-.09 1.16s0 .77-.1 1.17l-.13 1.19v.29l-.05.31-.08.6c-.06.41-.12.81-.21 1.23l-.12.63-.06.31v.32l-.32 1.31z" fill="none"/></clipPath></defs><g style="isolation:isolate"><path fill="#a2a2a2" d="M82.65 479.83h-9.89l-2.05-32.13H84.7l-2.05 32.13z"/><path fill="#bdbdbd" d="M70.71 438.79h13.98v4.46H70.71z"/><path fill="#696969" d="M70.71 443.25h13.98v4.46H70.71z"/><path fill="#a2a2a2" d="M236.79 479.83h-9.89l-2.05-32.13h13.98l-2.04 32.13z"/><path fill="#bdbdbd" d="M224.85 438.79h13.99v4.46h-13.99z"/><path fill="#696969" d="M224.85 443.25h13.99v4.46h-13.99z"/><path fill="#9e6741" d="M60.94 433.51h187.67v7.51H60.94z"/><rect x="9.76" y="111.67" width="289.5" height="8.7" rx="2.63" ry="2.63" fill="#8e8e8e"/><path d="M299.21 115.5H9.85v-1.93a2.23 2.23 0 0 1 2.44-1.93h284.62a2.12 2.12 0 0 1 2.35 1.91s-.11 1.91-.05 1.95z" fill="#a8a8a8"/><path d="M204.34 79.89v.37a2.44 2.44 0 0 1-1.32 1.1l-.44.1v-.11l.28-.17v-.08c-2.9-7.42-81.09-5.63-93.24-1.19-1.89.77-1.83 1.13-2.08 1.57l-.45-.1a1.87 1.87 0 0 1-.94-.92v-.19c.27-1.38 3.66-2.13 5-2.45 24.47-5.34 75.42-2.51 86.31-.55 2.09.42 6.21 1.22 6.88 2.62z" fill="#e26d6d"/><path d="M202.89 81.1v.08c-.12.4-2 1-2.43 1.09a47.29 47.29 0 0 1-6.38 1.26c-32 4.69-81.59 1.66-86.33-1.84l-.18-.21c1-5.48 59.74-7.19 84.23-4 6.37.86 10.52 2 11.09 3.62z" fill="#a81a16"/><g clip-path="url(#c)" fill="#a81a16"><path d="M171.78 74v22.25L212 82s-30.54-11.93-40.22-8zm-40.69 16.31L130 71.83s-26 2-26.18 8.36 27.27 10.12 27.27 10.12z" style="mix-blend-mode:multiply" opacity=".3"/></g><path d="M100.76 42.57s.32.52.88 1.5 1.36 2.42 2.36 4.27a156.9 156.9 0 0 1 12.32 39.18 32.52 32.52 0 0 0 1.33 3.38 26.2 26.2 0 0 0 1.66 3.1c.51 1 1 2 1.52 3 2 4 3.58 8.16 3.56 13.21.07 1.05.16 2.11.28 3.16a36.84 36.84 0 0 0 1.14 6.17c1 2.59 4.46 6 4.8 3.45.13-1.35.27-2.7.4-4l.39-4a87.94 87.94 0 0 0 .25-12.45c-.07-1.37-.18-2.74-.32-4.09a100.49 100.49 0 0 0-2.22-11c-.31-1.2-.64-2.4-1-3.59-.46-1.36-.91-2.73-1.37-4.09s-.92-2.74-1.39-4.1c-4-11.33-9.16-22.12-16.24-30.69-.54-.78-1.08-1.57-1.58-2.39s-1-1.66-1.44-2.53c-.61-1.11-1.18-2-1.78-3q-1.65-2.4-3.43-4.85M209 38.69s-.31.56-.86 1.62-1.34 2.62-2.24 4.62a183.39 183.39 0 0 0-12 42.4 38.38 38.38 0 0 1-1.3 3.65 29.58 29.58 0 0 1-1.66 3.39c-.5 1.08-1 2.16-1.48 3.25-1.92 4.34-3.49 8.82-3.47 14.28q-.1 1.72-.27 3.42a45 45 0 0 1-1.11 6.68c-1 2.8-4.35 6.54-4.68 3.74l-.39-4.38c-.13-1.46-.26-2.92-.38-4.38a104.81 104.81 0 0 1-.24-13.48c.07-1.48.17-3 .31-4.42a117 117 0 0 1 2.16-11.87c.3-1.3.63-2.59 1-3.88.45-1.47.9-3 1.34-4.43s.9-3 1.36-4.43c3.9-12.26 8.92-23.94 15.82-33.21.53-.84 1-1.7 1.54-2.58s1-1.8 1.4-2.75c.59-1.19 1.14-2.15 1.73-3.18 1.07-1.73 2.19-3.49 3.34-5.26" fill="#9be0ff" opacity=".26"/><path d="M208.26 80.54a.9.9 0 0 1 .05.4c-.47 1.53-4.64 2.8-11.11 3.74-26.54 3.86-91.44 2.74-95-3.31l-.06-.2V81l.06-.2-.1-.09.31-.37c6.73-4.21 32.95-5.34 40.78-5.43-2.42.09-36.19 1.09-37.04 5.38v.19a1.87 1.87 0 0 0 .94.92l.45.1.33.26c14.93 5.76 84.12 4.63 94.17-.08a2.83 2.83 0 0 1 1-.32c.75-.38 1.08-.59 1.32-1.1v-.37c-.54-1.14-3.27-1.84-5.55-2.33-2-.43-4.51-.69-7.06-1 1.88.12 4.33.38 4.42.39 2.6.18 11.01 1.65 12.09 3.59z" fill="#ff433e"/><path d="M208.26 80.54a3.06 3.06 0 0 0-1.1-.93l.69.36a2.56 2.56 0 0 1 1.63 2.6c-4.44 8.3-104.28 8.28-108.5.27a2.24 2.24 0 0 1 .92-2.14l.53-.39-.21.46-.06.2v.2l.06.2c4.4 7.5 103.7 7.43 106.1-.43a.9.9 0 0 0-.06-.4z" fill="#f23b36"/><path d="M208.42 87.92a5.08 5.08 0 0 0 .32-.49 2.42 2.42 0 0 1-.28.68c-3.17 4.57-28.24 10-53.16 10.12s-49.75-5-53.21-9.81a3.77 3.77 0 0 1-.37-.84 7 7 0 0 0 .38.64c1.16.55 1.83 1.53 9.24 3 22.78 4.12 71.47 4 91.87-1.2a17.37 17.37 0 0 0 5.21-2.1z" fill="#a81a16"/><path d="M208.42 87.92a5.08 5.08 0 0 0 .32-.49 2.42 2.42 0 0 1-.28.68c-6.34 9.15-99.45 9.88-106.37.31a3.77 3.77 0 0 1-.37-.84 7 7 0 0 0 .38.64c1.16.55 1.83 1.53 9.24 3 22.78 4.12 71.47 4 91.87-1.2a17.37 17.37 0 0 0 5.21-2.1z" fill="#d22c20"/><path d="M120.73 176.46v-.16a12.63 12.63 0 0 0 2.35 3.16c11 10.18 36.81 10.32 51.67 6.42 10.45-3 13.39-6.41 14.91-8a13.69 13.69 0 0 0 1.43-2.32 8.69 8.69 0 0 1-1.19 2.33c-10.73 14.72-55.48 15.54-67.58 1.16a15.3 15.3 0 0 1-1.59-2.59zm87.7-88.4l.22-.34a10.09 10.09 0 0 0 .5-2.15c0 .26-.25 6.41-.37 6.65h-3.22c.41-2.4.39-2.12.44-2.42a4.81 4.81 0 0 0 2.43-1.74zM104.58 90.2s.45 2.36.46 2.37h-3.21c-.12-.44-.06.23-.43-6.35a7.27 7.27 0 0 0 .49 1.83l.21.2v.2a8.16 8.16 0 0 0 2.48 1.75z" fill="#a81a16"/><path d="M209.48 82.57a23.88 23.88 0 0 1-.74 4.86l-.13.26-.19.23c-1.09.52-1.44 1.16-6.12 2.35-21.4 5.08-70.3 5-92.06.72-6.43-1.36-7-2.23-8.14-2.77l-.32-.5a24.25 24.25 0 0 1-.8-4.88c4.22 8 104.02 8.03 108.5-.27z" fill="#d22c20"/><g clip-path="url(#d)"><path fill="#a81a16" d="M185.64 86.19l-1.32 9.84 30.06-7.48-1.68-12.66-27.06 10.3z"/></g><path d="M206 89.84c-.49 2.69-14.27 83.79-14.58 84.93-6 17.67-67.22 18.43-71.3-.31L104.58 90.2c15.67 6.72 85.48 6.66 101.42-.36z" fill="#d22c20"/><g clip-path="url(#e)"><path d="M180.36 91.36l-.14 1.87c-23 1.71-52.57.93-68.88-2-7.41-1.46-8.08-2.44-9.24-3a7 7 0 0 1-.38-.64c.06.31.37 1.72.37 1.72 3.46 4.79 28.26 9.06 53.21 8.93a226.43 226.43 0 0 0 24.7-1.51c-1.37 18.44-5.77 78.19-5.77 80.85 0 3.14-6.6 10.55-27.28 11.91s55 6.7 55 6.7L218.2 78.13z" fill="#a81a16"/></g><path d="M31.39 63.13l-.25-12.38s2-19 1.87-19.37S36.64 18 36.64 18l7.5-8 7.25-4.87 10.12-2.75L69 1.5l10.89 1.38 6.75 3.25 6 3.87 6.75 9 3.61 7.13 2 4.25 1.75 4.5-1.62 2.5-5.62.62-2-4-.25-3.25-2.62-5.62-3.5-5.38-5.38-5-5.12-3.12-6.88-2.25-6.62-.63-7.5 1.5-6.38 3L48.89 16l-3.38 3.88-2.75 5-2.25 5.75-1.87 19.25v14.25z" fill="#d22c20"/><path d="M42.87 67.31L42 68.37a5 5 0 0 0-1.85-3.87v-5.69C40.09 48.1 40 37 42.8 28.23c3.11-9.77 9.28-15.31 19.4-17.46a28.53 28.53 0 0 1 6-.63 28.88 28.88 0 0 1 27.7 21.15l-.68.16 1.37 5.72a3.18 3.18 0 0 0 3.1 2.45 3.06 3.06 0 0 0 .74-.09l5.41-1.29a3.19 3.19 0 0 0 2.36-3.85l-1.37-5.72-1.07.26A38.94 38.94 0 0 0 68.16 0a39.3 39.3 0 0 0-8.07.85 35.86 35.86 0 0 0-17.67 8.84 35 35 0 0 0-9.08 14.9c-3.49 10.6-3.4 23.19-3.31 34.3v5.57a5.06 5.06 0 0 0-1.9 4v4zm-5.33-8.48v4.55a5.65 5.65 0 0 0-.59 0h-4.27v-4.49c-.11-10.89-.2-23.29 3.16-33.48a32.55 32.55 0 0 1 8.39-13.81 33.35 33.35 0 0 1 16.41-8.18 36.22 36.22 0 0 1 42.53 26.12l-4.75 1.14A31.39 31.39 0 0 0 68.16 7.51a31.17 31.17 0 0 0-6.51.69c-11 2.33-18 8.62-21.35 19.23-2.93 9.19-2.84 20.48-2.76 31.4zm60.9-25l-.09-.39 6.5-1.56.13.56.62 2.6a.54.54 0 0 1-.07.43.57.57 0 0 1-.34.25L99.78 37a.56.56 0 0 1-.68-.41zm-59 37.94l-.49.63h-8.17v-4a2.44 2.44 0 0 1 1.89-2.4 2.51 2.51 0 0 1 .55-.07H37a2.2 2.2 0 0 1 .58.08 2.36 2.36 0 0 1 1.31.82 2.4 2.4 0 0 1 .56 1.54v3.32z" fill="#d22c20"/><path fill="#a81a16" d="M95.66 30.484l9.85-2.369.193.807-9.849 2.369zM29.93 58.33h10v.83h-10z"/><path fill="#d22c20" d="M15.37 81.15h38.36v375.87H15.37z"/><ellipse cx="34.56" cy="82.4" rx="19.23" ry="20.37" fill="#d22c20"/><path fill="#a81a16" d="M53.52 79.46l-37.92-.13.37-1.58h37.21l.34 1.71z"/><path fill="url(#f)" d="M18.99 79.45H51.3V451.5H18.99z"/><path d="M276.86 63.13l.25-12.38s-2-19-1.88-19.37S271.61 18 271.61 18l-7.5-8-7.25-4.87-10.13-2.75-7.5-.88-10.87 1.37-6.75 3.25-6 3.88-6.75 9-3.63 7.12-2 4.25-1.75 4.5 1.63 2.5 5.62.63 2-4 .25-3.25 2.63-5.63 3.5-5.37 5.37-5 5.13-3.13 6.87-2.25 6.63-.62 7.5 1.5 6.37 3 4.38 2.75 3.37 3.88 2.75 5 2.25 5.75 1.88 19.25v14.25z" fill="#d22c20"/><path d="M280.1 72.36v-4a5.06 5.06 0 0 0-1.9-4v-5.57c.09-11.11.18-23.7-3.31-34.3a35.24 35.24 0 0 0-9.08-14.9A35.9 35.9 0 0 0 248.15.85a38.92 38.92 0 0 0-45.63 28.08l-1.06-.26-1.37 5.72a3.19 3.19 0 0 0 2.36 3.85l5.4 1.29a3.18 3.18 0 0 0 3.85-2.36l1.37-5.72-.68-.16a28.86 28.86 0 0 1 27.7-21.15 28.53 28.53 0 0 1 6 .63c10.12 2.15 16.28 7.69 19.39 17.46 2.8 8.79 2.72 19.87 2.64 30.58v5.69a5.08 5.08 0 0 0-1.86 3.87l-.82-1.06zM268 27.43c-3.38-10.61-10.37-16.9-21.35-19.23a31.17 31.17 0 0 0-6.51-.69 31.39 31.39 0 0 0-30.26 23.17l-4.75-1.14a36.22 36.22 0 0 1 42.48-26.12A33.35 33.35 0 0 1 264 11.6a32.55 32.55 0 0 1 8.39 13.81c3.36 10.19 3.26 22.55 3.18 33.47v4.49h-4.3a5.46 5.46 0 0 0-.58 0v-4.55c.1-10.91.19-22.2-2.69-31.39zm-58.8 9.13a.57.57 0 0 1-.68.41l-5.41-1.29a.63.63 0 0 1-.35-.25.6.6 0 0 1-.06-.43l.62-2.6.13-.56 6.5 1.56-.09.39zm59.68 32.22v-.37a2.4 2.4 0 0 1 .56-1.54 2.34 2.34 0 0 1 1.3-.82 2.25 2.25 0 0 1 .58-.08H275a2.51 2.51 0 0 1 .55.07 2.46 2.46 0 0 1 1.32.81 2.39 2.39 0 0 1 .57 1.56v4h-8.15l-.49-.63z" fill="#d22c20"/><path fill="#a81a16" d="M212.392 31.288l-9.85-2.368.195-.807 9.849 2.368zM278.31 59.17h-10v-.83h10z"/><path fill="#d22c20" d="M292.87 457.03h-38.36V81.16h38.36z"/><ellipse cx="273.69" cy="82.4" rx="19.23" ry="20.37" fill="#d22c20"/><path fill="#d22c20" d="M295.99 462.68h-44.5V452h44.5z"/><path d="M239.85 482c.66-14.45 15.72-26 34.2-26s33.53 11.55 34.2 26z" fill="#d22c20"/><path fill="#a81a16" d="M295.49 462.5h-43.75v-3h43.75zM254.73 79.46l37.92-.13-.38-1.58h-37.2l-.34 1.71z"/><path transform="rotate(-180 273.105 265.475)" fill="url(#g)" d="M256.95 79.45h32.31V451.5h-32.31z"/><path fill="#d22c20" d="M12.26 452h44.5v10.68h-44.5z"/><path d="M68.4 482c-.67-14.45-15.72-26-34.2-26S.67 467.55 0 482z" fill="#d22c20"/><path fill="#a81a16" d="M12.76 459.5h43.75v3H12.76z"/><path fill="url(#a)" d="M18.76 303.23h31.85v1.49H18.76z"/><path fill="url(#h)" d="M23.13 310.04h23.13v1.49H23.13z"/><path fill="url(#i)" d="M23.13 316.84h23.13v1.49H23.13z"/><path fill="url(#j)" d="M23.13 323.65h23.13v1.49H23.13z"/><path fill="url(#k)" d="M23.13 330.45h23.13v1.49H23.13z"/><path fill="url(#l)" d="M18.76 337.26h31.85v1.49H18.76z"/><path fill="url(#m)" d="M23.27 344.06H46.4v1.49H23.27z"/><path fill="url(#n)" d="M23.27 350.87H46.4v1.49H23.27z"/><path fill="url(#o)" d="M23.27 357.67H46.4v1.49H23.27z"/><path fill="url(#p)" d="M23.27 364.48H46.4v1.49H23.27z"/><path fill="url(#q)" d="M18.91 371.29h31.85v1.49H18.91z"/><path fill="url(#r)" d="M23.13 378.09h23.13v1.49H23.13z"/><path fill="url(#s)" d="M23.13 384.9h23.13v1.49H23.13z"/><path fill="url(#t)" d="M23.13 391.7h23.13v1.49H23.13z"/><path fill="url(#u)" d="M23.13 398.51h23.13V400H23.13z"/><path fill="url(#v)" d="M18.76 405.31h31.85v1.49H18.76z"/><path fill="url(#w)" d="M23.13 412.12h23.13v1.49H23.13z"/><path fill="url(#x)" d="M23.13 418.92h23.13v1.49H23.13z"/><path fill="url(#y)" d="M23.13 425.73h23.13v1.49H23.13z"/><path fill="url(#z)" d="M23.13 432.53h23.13v1.49H23.13z"/><path fill="url(#A)" d="M18.76 439.34h31.85v1.49H18.76z"/><path fill="url(#B)" d="M18.76 201.37h31.85v1.49H18.76z"/><path fill="url(#C)" d="M23.13 208.17h23.13v1.49H23.13z"/><path fill="url(#D)" d="M23.13 214.98h23.13v1.49H23.13z"/><path fill="url(#E)" d="M23.13 221.78h23.13v1.49H23.13z"/><path fill="url(#F)" d="M23.13 228.59h23.13v1.49H23.13z"/><path fill="url(#G)" d="M18.76 235.39h31.85v1.49H18.76z"/><path fill="url(#H)" d="M23.27 242.2H46.4v1.49H23.27z"/><path fill="url(#I)" d="M23.27 249H46.4v1.49H23.27z"/><path fill="url(#J)" d="M23.27 255.81H46.4v1.49H23.27z"/><path fill="url(#K)" d="M23.27 262.61H46.4v1.49H23.27z"/><path fill="url(#L)" d="M18.91 269.42h31.85v1.49H18.91z"/><path fill="url(#M)" d="M23.13 276.23h23.13v1.49H23.13z"/><path fill="url(#N)" d="M23.13 283.03h23.13v1.49H23.13z"/><path fill="url(#O)" d="M23.13 289.84h23.13v1.49H23.13z"/><path fill="url(#P)" d="M23.13 296.64h23.13v1.49H23.13z"/><path fill="url(#Q)" d="M18.76 303.45h31.85v1.49H18.76z"/><path fill="url(#R)" d="M23.13 310.25h23.13v1.49H23.13z"/><path fill="url(#S)" d="M23.13 317.06h23.13v1.49H23.13z"/><path fill="url(#T)" d="M23.13 323.86h23.13v1.49H23.13z"/><path fill="url(#U)" d="M23.13 330.67h23.13v1.49H23.13z"/><path fill="url(#V)" d="M18.76 337.47h31.85v1.49H18.76z"/><path fill="url(#W)" d="M18.76 99.5h31.85v1.49H18.76z"/><path fill="url(#X)" d="M23.13 106.31h23.13v1.49H23.13z"/><path fill="url(#Y)" d="M23.13 113.11h23.13v1.49H23.13z"/><path fill="url(#Z)" d="M23.13 119.92h23.13v1.49H23.13z"/><path fill="url(#aa)" d="M23.13 126.72h23.13v1.49H23.13z"/><path fill="url(#ab)" d="M18.76 133.53h31.85v1.49H18.76z"/><path fill="url(#ac)" d="M23.27 140.33H46.4v1.49H23.27z"/><path fill="url(#ad)" d="M23.27 147.14H46.4v1.49H23.27z"/><path fill="url(#ae)" d="M23.27 153.94H46.4v1.49H23.27z"/><path fill="url(#af)" d="M23.27 160.75H46.4v1.49H23.27z"/><path fill="url(#ag)" d="M18.91 167.55h31.85v1.49H18.91z"/><path fill="url(#ah)" d="M23.13 174.36h23.13v1.49H23.13z"/><path fill="url(#ai)" d="M23.13 181.17h23.13v1.49H23.13z"/><path fill="url(#aj)" d="M23.13 187.97h23.13v1.49H23.13z"/><path fill="url(#ak)" d="M23.13 194.78h23.13v1.49H23.13z"/><path fill="url(#al)" d="M18.76 201.58h31.85v1.49H18.76z"/><path fill="url(#am)" d="M23.13 208.39h23.13v1.49H23.13z"/><path fill="url(#an)" d="M23.13 215.19h23.13v1.49H23.13z"/><path fill="url(#ao)" d="M23.13 222h23.13v1.49H23.13z"/><path fill="url(#ap)" d="M23.13 228.8h23.13v1.49H23.13z"/><path fill="url(#aq)" d="M18.76 235.61h31.85v1.49H18.76z"/><path d="M42.51 448.94V95.08c0-5.13-3.56-9.33-7.9-9.33h-.53c-4.35 0-7.91 4.2-7.91 9.33v353.86z" fill="#fff"/><path fill="#9be0ff" d="M26.28 167.95H42.3v280.88H26.28z"/><path fill="#75b3c9" d="M26.21 447.88H42.6v1.13H26.21z"/><path fill="url(#ar)" d="M257.76 303.23h31.85v1.49h-31.85z"/><path fill="url(#as)" d="M262.13 310.04h23.13v1.49h-23.13z"/><path fill="url(#at)" d="M262.13 316.84h23.13v1.49h-23.13z"/><path fill="url(#au)" d="M262.13 323.65h23.13v1.49h-23.13z"/><path fill="url(#av)" d="M262.13 330.45h23.13v1.49h-23.13z"/><path fill="url(#aw)" d="M257.76 337.26h31.85v1.49h-31.85z"/><path fill="url(#ax)" d="M262.27 344.06h23.13v1.49h-23.13z"/><path fill="url(#ay)" d="M262.27 350.87h23.13v1.49h-23.13z"/><path fill="url(#az)" d="M262.27 357.67h23.13v1.49h-23.13z"/><path fill="url(#aA)" d="M262.27 364.48h23.13v1.49h-23.13z"/><path fill="url(#aB)" d="M257.91 371.29h31.85v1.49h-31.85z"/><path fill="url(#aC)" d="M262.13 378.09h23.13v1.49h-23.13z"/><path fill="url(#aD)" d="M262.13 384.9h23.13v1.49h-23.13z"/><path fill="url(#aE)" d="M262.13 391.7h23.13v1.49h-23.13z"/><path fill="url(#aF)" d="M262.13 398.51h23.13V400h-23.13z"/><path fill="url(#aG)" d="M257.76 405.31h31.85v1.49h-31.85z"/><path fill="url(#aH)" d="M262.13 412.12h23.13v1.49h-23.13z"/><path fill="url(#aI)" d="M262.13 418.92h23.13v1.49h-23.13z"/><path fill="url(#aJ)" d="M262.13 425.73h23.13v1.49h-23.13z"/><path fill="url(#aK)" d="M262.13 432.53h23.13v1.49h-23.13z"/><path fill="url(#aL)" d="M257.76 439.34h31.85v1.49h-31.85z"/><path fill="url(#aM)" d="M257.76 201.37h31.85v1.49h-31.85z"/><path fill="url(#aN)" d="M262.13 208.17h23.13v1.49h-23.13z"/><path fill="url(#aO)" d="M262.13 214.98h23.13v1.49h-23.13z"/><path fill="url(#aP)" d="M262.13 221.78h23.13v1.49h-23.13z"/><path fill="url(#aQ)" d="M262.13 228.59h23.13v1.49h-23.13z"/><path fill="url(#aR)" d="M257.76 235.39h31.85v1.49h-31.85z"/><path fill="url(#aS)" d="M262.27 242.2h23.13v1.49h-23.13z"/><path fill="url(#aT)" d="M262.27 249h23.13v1.49h-23.13z"/><path fill="url(#aU)" d="M262.27 255.81h23.13v1.49h-23.13z"/><path fill="url(#aV)" d="M262.27 262.61h23.13v1.49h-23.13z"/><path fill="url(#aW)" d="M257.91 269.42h31.85v1.49h-31.85z"/><path fill="url(#aX)" d="M262.13 276.23h23.13v1.49h-23.13z"/><path fill="url(#aY)" d="M262.13 283.03h23.13v1.49h-23.13z"/><path fill="url(#aZ)" d="M262.13 289.84h23.13v1.49h-23.13z"/><path fill="url(#ba)" d="M262.13 296.64h23.13v1.49h-23.13z"/><path fill="url(#bb)" d="M257.76 303.45h31.85v1.49h-31.85z"/><path fill="url(#bc)" d="M262.13 310.25h23.13v1.49h-23.13z"/><path fill="url(#bd)" d="M262.13 317.06h23.13v1.49h-23.13z"/><path fill="url(#be)" d="M262.13 323.86h23.13v1.49h-23.13z"/><path fill="url(#bf)" d="M262.13 330.67h23.13v1.49h-23.13z"/><path fill="url(#bg)" d="M257.76 337.47h31.85v1.49h-31.85z"/><path fill="url(#bh)" d="M257.76 99.5h31.85v1.49h-31.85z"/><path fill="url(#bi)" d="M262.13 106.31h23.13v1.49h-23.13z"/><path fill="url(#bj)" d="M262.13 113.11h23.13v1.49h-23.13z"/><path fill="url(#bk)" d="M262.13 119.92h23.13v1.49h-23.13z"/><path fill="url(#bl)" d="M262.13 126.72h23.13v1.49h-23.13z"/><path fill="url(#bm)" d="M257.76 133.53h31.85v1.49h-31.85z"/><path fill="url(#bn)" d="M262.27 140.33h23.13v1.49h-23.13z"/><path fill="url(#bo)" d="M262.27 147.14h23.13v1.49h-23.13z"/><path fill="url(#bp)" d="M262.27 153.94h23.13v1.49h-23.13z"/><path fill="url(#bq)" d="M262.27 160.75h23.13v1.49h-23.13z"/><path fill="url(#br)" d="M257.91 167.55h31.85v1.49h-31.85z"/><path fill="url(#bs)" d="M262.13 174.36h23.13v1.49h-23.13z"/><path fill="url(#bt)" d="M262.13 181.17h23.13v1.49h-23.13z"/><path fill="url(#bu)" d="M262.13 187.97h23.13v1.49h-23.13z"/><path fill="url(#bv)" d="M262.13 194.78h23.13v1.49h-23.13z"/><path fill="url(#bw)" d="M257.76 201.58h31.85v1.49h-31.85z"/><path fill="url(#bx)" d="M262.13 208.39h23.13v1.49h-23.13z"/><path fill="url(#by)" d="M262.13 215.19h23.13v1.49h-23.13z"/><path fill="url(#bz)" d="M262.13 222h23.13v1.49h-23.13z"/><path fill="url(#bA)" d="M262.13 228.8h23.13v1.49h-23.13z"/><path fill="url(#bB)" d="M257.76 235.61h31.85v1.49h-31.85z"/><path d="M281.51 448.94V95.08c0-5.13-3.56-9.33-7.9-9.33h-.53c-4.35 0-7.91 4.2-7.91 9.33v353.86z" fill="#fff"/><path fill="#9be0ff" d="M265.28 168.44h16.02v279.73h-16.02z"/><path fill="#75b3c9" d="M265.21 447.88h16.39v1.13h-16.39z"/><path d="M179.37 338.79s-9.19 4.35-25.73 3.83-23.19-4.53-23.19-4.53c1.81-2.06 12.65-6.54 16.29-8l1.17-.46c.51-.17 1.84-12.71 1.84-12.71h12.17l1.31 12.87c.4.14.79.3 1.18.46a78.25 78.25 0 0 1 14.96 8.54z" fill="#fcc490"/><path d="M162.38 321c-4 1.71-9.71 3.45-13.71 5.23.54-3.77 1.13-9.3 1.13-9.3H162z" fill="#eda672"/><path d="M135.3 285.2c-.83 5.58.89 21.38 6.24 27.33s10.91 8 14.62 8.13 12.21-4.8 16.41-11.81c5.06-8.46 4.61-24.54 3.57-30.78s-11.58-12-21.68-10.4-17.08 3.57-19.16 17.53z" fill="#fcc490"/><path d="M174.69 296.45a3.4 3.4 0 0 1 1.8-1.36 2.59 2.59 0 0 1 2.2.33 3 3 0 0 1 1.08 2.59 8.24 8.24 0 0 1-.81 2.81 8.48 8.48 0 0 1-2.38 3.56 3.12 3.12 0 0 1-4 0zm-38.08 0a3.46 3.46 0 0 0-1.81-1.36 2.6 2.6 0 0 0-2.2.33 3 3 0 0 0-1.08 2.59 8.24 8.24 0 0 0 .81 2.81 8.58 8.58 0 0 0 2.38 3.56 3.14 3.14 0 0 0 4 0z" fill="#fcc490"/><path d="M158.85 302.06c-1-.53-3.39-.48-5.24-.18a1.76 1.76 0 0 0-.68.22c-.2.13-.13.37 0 .58a7 7 0 0 0 2.11 1.48 2.49 2.49 0 0 0 1 .29 2.42 2.42 0 0 0 1.36-.59c.6-.49 1.86-1.2 1.45-1.8z" fill="#eda672"/><path d="M137.51 267.33s13.57-9.44 28.91-8.87 14.46 8.54 14.38 9.73c-.39 5.41-3.82 23.25-5 30.68l-2.58-21.65s-22 2-32.73-2.64c0 0 1.6 5.85 1.16 5.85a21.22 21.22 0 0 1-3.26-1.95l-2.22 20.39s-5.06-22.9-4.28-27.21 3.52-5.53 5.62-4.33z" fill="#7c5133"/><path d="M146.78 278.63a22.58 22.58 0 0 0-8 5 24.88 24.88 0 0 1 3.15 3.26 29.43 29.43 0 0 1 7.7-4.8l-1.54-3.77-.57 1zm17.3-.01a22.48 22.48 0 0 1 7.95 5 24.83 24.83 0 0 0-3.15 3.25 29.31 29.31 0 0 0-7.69-4.83l1.56-3.76.56 1z" fill="#603b22"/><path d="M134.48 291l2.43 26s7.35 6.43 9.74 6.53 18.65.82 21.23 0 7.25-5.61 7.25-6.07 2.28-27.95 2.28-27.95l-3-1.77s.89 15.94-1.23 16.37-34.82 2-35.27-.4-.87-13.32-.87-13.32z" fill="#7c5133"/><path d="M147.15 291.3c2.14.47 3.2 1.44 2.86 4.9a3.47 3.47 0 0 1-.57 1.84 6.34 6.34 0 0 1-1.62 1c-1.39.72-3.35 1.54-4.8.7a4.69 4.69 0 0 1-2.17-3.53 4.59 4.59 0 0 1 .22-2.82c.77-1.46 2.56-2 4.16-2.4z" fill="#fff"/><path d="M144.45 296.93a2.12 2.12 0 0 1-.11-2.28 1.62 1.62 0 0 1 .66-.65 1.18 1.18 0 0 1 .9-.08 1.44 1.44 0 0 1 .81 1.13 2.12 2.12 0 0 1-.57 2.11 1.15 1.15 0 0 1-.92.28 1.22 1.22 0 0 1-.77-.51z" fill="#4c0c0a"/><path d="M140.41 295.28a5.11 5.11 0 0 1 3.34-3.57 5.74 5.74 0 0 1 4.14 0 4.46 4.46 0 0 1 2.23 2.55c.16.41.61.35.66.1a5 5 0 0 0-4-4.3 6.19 6.19 0 0 0-6.42 2.75 3.91 3.91 0 0 0-.64 1.92c.04.68.6.93.69.55z" fill="#d39766"/><path d="M164 291.3c-2.14.47-3.2 1.44-2.86 4.9a3.47 3.47 0 0 0 .57 1.84 6.34 6.34 0 0 0 1.62 1c1.39.72 3.35 1.54 4.8.7a4.65 4.65 0 0 0 2.16-3.53 4.51 4.51 0 0 0-.21-2.82c-.77-1.46-2.56-2-4.16-2.4z" fill="#fff"/><path d="M166.65 296.92a2.08 2.08 0 0 0 .11-2.26 1.63 1.63 0 0 0-.63-.62 1.15 1.15 0 0 0-.89-.08 1.44 1.44 0 0 0-.81 1.12 2.12 2.12 0 0 0 .57 2.08 1.1 1.1 0 0 0 .9.28 1.18 1.18 0 0 0 .75-.52z" fill="#4c0c0a"/><path d="M170.7 295.28a5.11 5.11 0 0 0-3.34-3.57 5.74 5.74 0 0 0-4.14 0 4.46 4.46 0 0 0-2.23 2.55c-.16.41-.61.35-.66.1a5 5 0 0 1 4-4.3 6.19 6.19 0 0 1 6.42 2.75 3.91 3.91 0 0 1 .64 1.92c-.05.68-.6.93-.69.55z" fill="#d39766"/><path d="M150 309.91c-.09 0-.19 0-.22.07a16 16 0 0 0-.07 2.35.68.68 0 0 1 .29.06 10.25 10.25 0 0 0 6.72 1.71 11.44 11.44 0 0 0 5.8-2 2.69 2.69 0 0 1 .3-.17 5.83 5.83 0 0 0-.31-2.4z" fill="#4c0c0a"/><path d="M150 312.39c1.1 1 3.09 1.83 6.72 1.71 3-.09 4.8-.93 5.8-2 .14-.67 0-1.15-.42-1.32.51-.25.57-.66.37-1.24l-12.55.4c0 .57-.08 1 .62 1.14-.72.16-.6 1.16-.54 1.31z" fill="#fff"/><path d="M149.67 312.34a3.54 3.54 0 0 0-.78 0 .71.71 0 0 0-.55.32 1.91 1.91 0 0 0-.07.28.28.28 0 0 1-.18.2.25.25 0 0 1-.24-.11.84.84 0 0 1-.08-.27l-.07-.39a.73.73 0 0 1 0-.33.22.22 0 0 1 .26-.14c.12.05.15.25.28.27a.26.26 0 0 0 .21-.1 2.87 2.87 0 0 0 .71-1c.07-.19.18-.37.27-.56a3 3 0 0 0 .16-.31 1.47 1.47 0 0 0 .14-.28l-.06 2.42zm13.12-.42a4 4 0 0 1 .78 0 .66.66 0 0 1 .56.28 2.15 2.15 0 0 1 .1.27.29.29 0 0 0 .19.2.25.25 0 0 0 .23-.14.76.76 0 0 0 .06-.26v-.4a.61.61 0 0 0 0-.33.21.21 0 0 0-.27-.12c-.12.06-.13.26-.27.28s-.14 0-.2-.08a2.79 2.79 0 0 1-.78-.93 4.29 4.29 0 0 0-.31-.55c-.06-.09-.11-.19-.17-.29a1.12 1.12 0 0 1-.16-.28c.1.78.17 1.56.24 2.35z" fill="#4c0c0a"/><path fill="#473c35" d="M131.38 493.64l-.07 7.84h8.7l.28-8.36-8.91.52z"/><path d="M140.74 501.47c-.05-2.13-.19-4-.51-2.72s-1.5 1.32-2.11 1.26a17.48 17.48 0 0 0-3.43-.32c-.49 0-2.2.77-2.81.57s-1.36-1.1-1.66-.9c-1.08.74-8.76 10.09-8.76 10.09l-.19.23.53 2.94.49 2.72a9.63 9.63 0 0 0 1 .18l4.66-.7 2.72-1.48 10.06-5.48v-6.4z" fill="#6b391d"/><path d="M121.09 513.53v.33a1.47 1.47 0 0 1 0-.31z" fill="#e2e2de"/><path d="M130.86 499.48s.41-.61.83-.57l3.65.42a.59.59 0 0 1 .3 1l-7.88 8.35a13.54 13.54 0 0 1-4.26 0z" fill="#7c4124"/><path d="M131 512.6a1.13 1.13 0 0 1-.35.75c-.76.85-2.52 1.62-3.15 2.26h-3.23c-.37 0-.7 0-1-.08a9.63 9.63 0 0 1-1-.18 4 4 0 0 1-1.31-.56 2.54 2.54 0 0 1-.16-.28 4.16 4.16 0 0 1-.48-1.88 5.66 5.66 0 0 1 .16-1.31 4.57 4.57 0 0 1 .77-1.6l.19-.23a4.8 4.8 0 0 1 3-1.58 6.86 6.86 0 0 1 3.55.43 4.71 4.71 0 0 1 3 3.81 3.91 3.91 0 0 1 .01.45z" fill="#512915"/><path d="M136 509.62a14.35 14.35 0 0 1-5 2.49 14.82 14.82 0 0 1-3.88.52h-2c-3.14 0-4.23-.74-4.6-1.34a5.66 5.66 0 0 0-.16 1.31v1.22a1.3 1.3 0 0 0 .35.68 2.49 2.49 0 0 0 .29.25 4 4 0 0 0 1.31.56 9.63 9.63 0 0 0 1 .18l1.16.08c1.09 0 2.19.06 2.19.06a15.81 15.81 0 0 0 9.68-3.29l3.5-2.72a2.31 2.31 0 0 0 .91-1.79.13.13 0 0 0 0-.06v-1.9z" fill="#7c4124"/><path fill="#473c35" d="M180.16 494.62l-.26 7.83-8.7-.36.07-8.36 8.89.89z"/><path d="M170.43 502.27c0-2.13.19-4 .51-2.72s1.5 1.32 2.11 1.25a17.4 17.4 0 0 1 3.43-.32c.49 0 2.2.78 2.81.58s1.36-1.11 1.65-.91c1.09.74 8.77 10.09 8.77 10.09l.19.24-.53 2.95-.49 2.71a7.55 7.55 0 0 1-1 .18l-4.67-.7-2.71-1.47-10.07-5.48v-6.4z" fill="#6b391d"/><path d="M190.08 514.33v.33a.73.73 0 0 0 0-.31z" fill="#e2e2de"/><path d="M180.3 500.28s-.41-.62-.82-.58l-3.66.42a.59.59 0 0 0-.29 1l7.88 8.34a13.48 13.48 0 0 0 4.25 0z" fill="#7c4124"/><path d="M180.15 513.4a1.18 1.18 0 0 0 .35.75c.76.84 2.52 1.62 3.15 2.25h3.23a9.44 9.44 0 0 0 1-.08 7.55 7.55 0 0 0 1-.18 3.78 3.78 0 0 0 1.31-.56l.16-.27a4.23 4.23 0 0 0 .48-1.88 5.05 5.05 0 0 0-.17-1.31 4.68 4.68 0 0 0-.76-1.61l-.19-.24a4.81 4.81 0 0 0-3-1.57 5.4 5.4 0 0 0-1-.08 6.48 6.48 0 0 0-2.55.5 4.77 4.77 0 0 0-3 3.81c0 .13-.01.3-.01.47z" fill="#512915"/><path d="M175.21 510.42a14.5 14.5 0 0 0 8.85 3h2c3.14 0 4.23-.73 4.59-1.33a5.05 5.05 0 0 1 .17 1.31v1.22a1.23 1.23 0 0 1-.36.67 1.38 1.38 0 0 1-.28.25 3.78 3.78 0 0 1-1.31.56 7.55 7.55 0 0 1-1 .18c-.35 0-.75.06-1.16.08-1.09.06-2.2.06-2.2.06a15.8 15.8 0 0 1-9.67-3.29l-3.5-2.71a2.37 2.37 0 0 1-.92-1.79v-2z" fill="#7c4124"/><path d="M155.78 413.25l.31 20.22c0 .08-.14 5.76-.2 5.76-6.26.17-17.71 0-26.35-1.75a84.66 84.66 0 0 0 1.46 13.61c1.35 6.12 10.27 44.78 10.27 44.78h-.05c0 .41-.59.54-1.47.82a8.37 8.37 0 0 1-1.09.32 15 15 0 0 1-2.56.07c-.83 0-1.79.05-2.48 0a22.42 22.42 0 0 1-3.28-.33s-28.5-64-22.55-72.68c4-5.76 12.31-6.55 19.27-5.36.58.1-.49-5.49-.49-5.49h29.18z" fill="#ab7348"/><path d="M156 430.33l-.14 9a146 146 0 0 1-26.35-1.89s-.1 7.75 1.39 13.11 10.44 45.35 10.44 45.35h-.05c0 .41-.62.54-1.49.82-3.42-13.64-17.64-56.32-17.24-61.06.53-5.57 33.44-5.33 33.44-5.33z" fill="#9e6946"/><path d="M155.8 413.25v20.28s-.07 5.68 0 5.67c1.89-.15 6.26.4 25.72-1.79a16.65 16.65 0 0 1-.2 10.8c-2.12 5.82-11 47.66-11 47.66h.05c0 .41.54.79 1.41 1.07a8.55 8.55 0 0 0 1 .25 14.29 14.29 0 0 0 2.65.23 14.81 14.81 0 0 0 2.31-.17c1.67-.25 3.26-.45 3.25-.47l.43-1.26s28.28-62.79 22.33-71.42c-4-5.76-12.32-6.55-19.27-5.36-.58.1.48-5.49.48-5.49H155.8z" fill="#ab7348"/><path d="M155.91 430.24l-.27 9.06c8.64-.1 4.22-.5 26.47-1.89 0 0 .09 7.75-1.39 13.11s-10.44 45.35-10.44 45.35h.05c0 .41.54.79 1.41 1.07 3.41-13.64 17.72-56.57 17.32-61.31-.57-5.54-33.15-5.39-33.15-5.39z" fill="#9e6946"/><path d="M168 328v3.24a14.83 14.83 0 0 1-.23 1.82 14.42 14.42 0 0 1-.63 2.26c-.05.14-.1.28-.16.42s0 .07 0 .11-.08.19-.13.29a.31.31 0 0 1-.06.13 2.36 2.36 0 0 1-.12.28l-.06.12-.18.37-.17.31-.15.27a2.53 2.53 0 0 1-.13.22 1 1 0 0 1-.1.17 2.39 2.39 0 0 1-.13.21l-.15.23a6 6 0 0 1-.36.52l-.13.18-.12.17-.29.37-.12.16c-.35.43-.71.83-1.09 1.22l-.22.23-.17.17c-.29.28-.58.55-.88.8l-.24.22c-.67.56-1.34 1.06-2 1.5l-.24.17c-.63.42-1.24.78-1.78 1.09l-.3.16-.29.15-.19.1c-.49.25-.9.44-1.21.58l-.38.16h-.06l-.13.05h-.09l-.44-.18-.22-.1h-.07c-.46-.21-1.07-.51-1.78-.91l-.33-.19c-.37-.22-.77-.46-1.18-.73a23.82 23.82 0 0 1-2.36-1.75l-.21-.18c-.38-.33-.76-.68-1.13-1.06-.11-.1-.22-.22-.32-.33l-.15-.15c-.37-.4-.73-.81-1.07-1.25l-.2-.27-.14-.18-.29-.41-.15-.23-.13-.2c-.06-.08-.11-.17-.17-.26s-.1-.16-.14-.24a1.4 1.4 0 0 0-.1-.16l-.22-.41a2.53 2.53 0 0 1-.12-.23 1.24 1.24 0 0 0-.1-.2l-.09-.19-.12-.27c-.05-.09-.08-.18-.12-.27l-.06-.12-.12-.29c0-.12-.09-.25-.14-.37a15.73 15.73 0 0 1-.63-2.27 14.83 14.83 0 0 1-.23-1.82V328H168z" fill="#facaa7"/><path d="M167.15 335.35c-2.89 7.9-11.81 11.22-11.81 11.22s-8.91-3.31-11.81-11.21a50.34 50.34 0 0 0 23.62 0z" fill="#fff"/><path fill="#ededed" d="M185.67 416.86l-56.42-1.2 12.32-87.8 15.56 3.31 16.36-3.31 12.18 89z"/><path d="M156 330.57s-3.58 43.55-3.47 44.13 2.67 3.91 3.74 4.06c.66.09 4.52-3.08 4.94-4 .78-1.72-3.77-44.2-3.77-44.2z" fill="#473c35"/><path d="M151.93 330.81s6.64-.61 9.25 0c0 0-3 6-4.63 6.6 0 0-4.55-3.76-4.62-6.6z" fill="#473c35"/><path d="M148.17 325.42s.83 3.38 8.88 5.17a86.12 86.12 0 0 1-7.27 8s-4.75-7.72-4.72-11.41zm8.88 5.17a82.1 82.1 0 0 0 6.61 8.4s2.82-7.38 3.88-11.63c0 0-2.84-1.83-3.81-2.28a12.13 12.13 0 0 1-6.68 5.51z" fill="#dbdbdb"/><path d="M138.81 328.92s9.15 17.48 18 25.44c0 0 15.83-11.66 19.16-21.75l2.5.57s1.82 76.95 1.94 85c0 0-20.35 4.48-41.57 0 0 0-3.2-84.18-3.4-87.82z" fill="#b53116"/><path d="M144.63 327.84h-8a9 9 0 0 0-8.89 8.57l-3.09 84.24a.35.35 0 0 0 .34.36h2.29c6.37 0 20.65 0 20.65-20.26z" fill="url(#b)"/><path d="M168.58 327.84h8.18a9 9 0 0 1 8.89 8.57l3.09 84.24a.34.34 0 0 1-.34.36h-2.28c-6.37 0-20.65 0-20.66-20.26z" fill="url(#bC)"/><path d="M129.34 356.83c-.09 1.69.12 11.57 1.73 14.33s9.42 1.84 10-2.38-.28-12.22-.28-12.22-7.72.02-11.45.27z" fill="#442b28"/><path fill="#69423d" d="M136.55 327.86l9.74-1.34 1.56 69.38-6.76-47.78 3.09-5.9-4.23 1.02-3.4-15.38zm40.27 0l-10.11-1.06-1.19 69.1 6.75-47.78-3.09-5.9 4.23 1.02 3.41-15.38z"/><path fill="#facaa7" d="M115.64 418.54l-1.01-3.6 3-5.5 5.87-1.65 2.72 9.7-10.58 1.05z"/><path d="M120.09 418.06a4.42 4.42 0 1 1 3.06-5.45 4.42 4.42 0 0 1-3.06 5.45z" fill="#facaa7"/><path d="M121.08 421.6a4.41 4.41 0 1 1 3.06-5.44 4.41 4.41 0 0 1-3.06 5.44z" fill="#facaa7"/><path d="M122.89 417.27a4.41 4.41 0 1 1 3.06-5.44 4.42 4.42 0 0 1-3.06 5.44z" fill="#facaa7"/><path fill="#facaa7" d="M114.148 407.163l8.5-2.393 2.408 8.558-8.5 2.392z"/><path d="M125.82 415.86c-1.86-2.17-2.9-4.35-2.31-4.85s2.58.86 4.44 3 2.89 4.35 2.31 4.86-2.59-.87-4.44-3.01z" fill="#facaa7"/><path d="M124.79 419.73c-1.14-4.08-1.5-7.57-.79-7.77s2.22 3 3.36 7.05 1.5 7.57.8 7.77-2.22-2.97-3.37-7.05z" fill="#facaa7"/><path d="M122.52 421.51c-1.18-4.24-1.58-7.87-.87-8.06s2.25 3.1 3.44 7.34l.16.55c1.19 4.24 1.58 7.87.87 8.07s-2.25-3.11-3.44-7.35z" fill="#facaa7"/><path d="M119.88 421.94c-1.15-4.08-1.5-7.58-.8-7.78s2.22 3 3.36 7.06 1.5 7.57.8 7.77-2.24-2.99-3.36-7.05z" fill="#facaa7"/><path d="M116.7 420.48c-1-3.6-1.26-6.71-.55-6.91s2.11 2.59 3.12 6.19 1.25 6.71.55 6.9-2.11-2.58-3.12-6.18z" fill="#facaa7"/><path d="M122.5 403.76c-.77.31.24 1.48.58 2.5s.66 2.27.66 2.27l-8.64 2.09-.93-3.31z" fill="#ededed"/><path d="M123.11 406.27l-.2-.85v-5.78l.06-1c.16-2.69.47-5.42.85-8.16s.85-5.47 1.38-8.2 1.09-5.45 1.73-8.17 1.31-5.41 2-8.1 1.5-5.35 2.31-8 1.69-5.28 2.6-7.89 1.88-5.17 2.89-7.71l-15.56-5.07c-.8 2.88-1.52 5.76-2.2 8.64s-1.27 5.77-1.83 8.66-1.06 5.79-1.51 8.69-.85 5.81-1.21 8.73-.64 5.84-.88 8.78-.41 5.88-.5 8.85-.1 6 .05 9l.06 1.15c0 .38.06.77.09 1.16s0 .77.1 1.17l.13 1.18v.6l.09.61c.06.4.11.8.2 1.23l.12.62.06.32v.32l.32 1.31z" fill="#69423d"/><path d="M131.62 332.21a7.86 7.86 0 0 0-6.26.25 8.3 8.3 0 0 0-2.55 2 8.41 8.41 0 0 0-2 6.27 8.28 8.28 0 0 0 .91 3.07 7.91 7.91 0 0 0 4.89 3.91 8.43 8.43 0 0 0 8.6-2.55 7.86 7.86 0 0 0 1.88-5.76 8.07 8.07 0 0 0-.82-2.92 8.57 8.57 0 0 0-4.65-4.27z" fill="#69423d"/><g clip-path="url(#bD)"><ellipse cx="113.63" cy="381.66" rx="7.81" ry="3.97" transform="rotate(-87.2 113.627 381.662)" fill="#ab7348"/></g><path fill="#facaa7" d="M197.12 417.09l1.01-3.6-3-5.51-5.87-1.65-2.72 9.7 10.58 1.06z"/><path d="M192.67 416.6a4.41 4.41 0 1 0-3.06-5.44 4.42 4.42 0 0 0 3.06 5.44z" fill="#facaa7"/><path d="M191.68 420.15a4.42 4.42 0 1 0-3.06-5.45 4.4 4.4 0 0 0 3.06 5.45z" fill="#facaa7"/><path d="M189.88 415.82a4.42 4.42 0 1 0-3.06-5.45 4.41 4.41 0 0 0 3.06 5.45z" fill="#facaa7"/><path fill="#facaa7" d="M187.716 411.86l2.409-8.558 8.5 2.393-2.41 8.557z"/><path d="M186.94 414.41c1.86-2.17 2.9-4.36 2.31-4.86s-2.58.86-4.44 3-2.89 4.36-2.31 4.86 2.59-.83 4.44-3z" fill="#facaa7"/><path d="M188 418.27c1.14-4.07 1.5-7.57.79-7.77s-2.22 3-3.36 7.05-1.5 7.58-.79 7.77 2.18-2.97 3.36-7.05z" fill="#facaa7"/><path d="M190.24 420.05c1.19-4.24 1.58-7.86.87-8.06s-2.25 3.11-3.44 7.34l-.16.56c-1.18 4.23-1.58 7.86-.87 8.06s2.25-3.11 3.44-7.34z" fill="#facaa7"/><path d="M192.89 420.48c1.14-4.08 1.5-7.57.79-7.77s-2.22 3-3.36 7.05-1.5 7.57-.8 7.77 2.22-2.97 3.37-7.05z" fill="#facaa7"/><path d="M196.06 419c1-3.6 1.26-6.71.55-6.91s-2.1 2.59-3.11 6.19-1.26 6.71-.56 6.91 2.11-2.57 3.12-6.19z" fill="#facaa7"/><path d="M190.29 402.16c.76.3-.27 1.67-.6 2.68s-.65 2.08-.65 2.08l8.65 2.09.92-3.3z" fill="#ededed"/><path d="M189.67 404.78l.18-.82v-5.78l-.06-1c-.16-2.69-.47-5.43-.85-8.16s-.85-5.47-1.37-8.2-1.1-5.46-1.74-8.17-1.31-5.42-2-8.1-1.49-5.36-2.31-8-1.69-5.28-2.6-7.88-1.88-5.18-2.89-7.71l15.56-5.08q1.2 4.32 2.2 8.64c.67 2.89 1.27 5.77 1.83 8.67s1.06 5.79 1.52 8.69.85 5.81 1.2 8.72.64 5.84.88 8.78.41 5.88.5 8.85.1 6-.05 9l-.06 1.15c0 .39-.06.78-.09 1.16s0 .77-.1 1.17l-.13 1.19v.29l-.05.31-.08.6c-.06.41-.12.81-.21 1.23l-.12.63-.06.31v.32l-.32 1.31z" fill="#69423d"/><path d="M181.14 330.76a7.82 7.82 0 0 1 6.26.25A8 8 0 0 1 190 333a8.3 8.3 0 0 1 1.67 2.93 8.57 8.57 0 0 1 .38 3.34 8 8 0 0 1-.91 3.06 7.88 7.88 0 0 1-4.89 3.91 8.4 8.4 0 0 1-6.2-.66 8 8 0 0 1-2.39-1.89 7.54 7.54 0 0 1-1.53-2.69 7.73 7.73 0 0 1-.36-3.07 8.35 8.35 0 0 1 .83-2.92 8.53 8.53 0 0 1 4.54-4.25z" fill="#69423d"/><g clip-path="url(#bE)"><ellipse cx="199.44" cy="380.07" rx="3.97" ry="7.81" transform="rotate(-2.73 199.626 380.575)" fill="#ab7348"/></g><path d="M159.1 294h-.18l-2-.62a5.08 5.08 0 0 0-2.89 0l-2 .62a.62.62 0 0 1-.78-.46.67.67 0 0 1 .43-.83l2-.61a6.1 6.1 0 0 1 3.59 0l2 .61a.69.69 0 0 1 .43.83.64.64 0 0 1-.6.46zm-21.24 2.25h-2.52a.67.67 0 1 1 0-1.34h2.36a5.32 5.32 0 0 0 .16 1.34zm35.75-1.61H176a.67.67 0 1 1 0 1.34h-2.43z" fill="#372b36"/><circle cx="145.04" cy="294.67" r="6.85" fill="none" stroke="#372b36" stroke-miterlimit="10"/><circle cx="166.13" cy="294.67" r="6.85" fill="none" stroke="#372b36" stroke-miterlimit="10"/></g></svg>