<svg xmlns="http://www.w3.org/2000/svg" xmlns:xlink="http://www.w3.org/1999/xlink" viewBox="0 0 332.11 848.17"><defs><linearGradient id="b" x1="-182.75" y1="288.95" x2="-148.36" y2="288.95" gradientTransform="matrix(1 0 0 -1 460.49 577.9)" gradientUnits="userSpaceOnUse"><stop offset=".01" stop-color="#d22c20"/><stop offset=".31" stop-color="#e7342e"/><stop offset=".51" stop-color="#ef3733"/><stop offset=".72" stop-color="#e6332d"/><stop offset="1" stop-color="#d22c20"/></linearGradient><linearGradient id="a" x1="311.62" y1="329.93" x2="278.86" y2="329.93" gradientUnits="userSpaceOnUse"><stop offset=".05" stop-color="#d3d2d2"/><stop offset=".37" stop-color="#9a9a9c"/><stop offset=".64" stop-color="#9a9a9c"/><stop offset="1" stop-color="#d1d6d5"/></linearGradient><linearGradient id="d" x1="307.23" y1="337.17" x2="283.44" y2="337.17" xlink:href="#a"/><linearGradient id="e" x1="307.23" y1="344.42" x2="283.44" y2="344.42" xlink:href="#a"/><linearGradient id="f" x1="307.23" y1="351.66" x2="283.44" y2="351.66" xlink:href="#a"/><linearGradient id="g" x1="307.23" y1="358.9" x2="283.44" y2="358.9" xlink:href="#a"/><linearGradient id="h" x1="311.62" y1="366.15" x2="278.86" y2="366.15" xlink:href="#a"/><linearGradient id="i" x1="307.38" y1="373.39" x2="283.59" y2="373.39" xlink:href="#a"/><linearGradient id="j" x1="307.38" y1="380.63" x2="283.59" y2="380.63" xlink:href="#a"/><linearGradient id="k" x1="307.38" y1="387.88" x2="283.59" y2="387.88" xlink:href="#a"/><linearGradient id="l" x1="307.38" y1="395.12" x2="283.59" y2="395.12" xlink:href="#a"/><linearGradient id="m" x1="311.78" y1="402.37" x2="279.01" y2="402.37" xlink:href="#a"/><linearGradient id="n" x1="307.23" y1="409.61" x2="283.44" y2="409.61" xlink:href="#a"/><linearGradient id="o" x1="307.23" y1="416.85" x2="283.44" y2="416.85" xlink:href="#a"/><linearGradient id="p" x1="307.23" y1="424.1" x2="283.44" y2="424.1" xlink:href="#a"/><linearGradient id="q" x1="307.23" y1="431.34" x2="283.44" y2="431.34" xlink:href="#a"/><linearGradient id="r" x1="311.62" y1="438.58" x2="278.86" y2="438.58" xlink:href="#a"/><linearGradient id="s" x1="307.23" y1="445.83" x2="283.44" y2="445.83" xlink:href="#a"/><linearGradient id="t" x1="307.23" y1="453.07" x2="283.44" y2="453.07" xlink:href="#a"/><linearGradient id="u" x1="307.23" y1="460.31" x2="283.44" y2="460.31" xlink:href="#a"/><linearGradient id="v" x1="307.23" y1="467.56" x2="283.44" y2="467.56" xlink:href="#a"/><linearGradient id="w" x1="311.62" y1="474.8" x2="278.86" y2="474.8" xlink:href="#a"/><linearGradient id="x" x1="311.62" y1="221.51" x2="278.86" y2="221.51" xlink:href="#a"/><linearGradient id="y" x1="307.23" y1="228.75" x2="283.44" y2="228.75" xlink:href="#a"/><linearGradient id="z" x1="307.23" y1="235.99" x2="283.44" y2="235.99" xlink:href="#a"/><linearGradient id="A" x1="307.23" y1="243.24" x2="283.44" y2="243.24" xlink:href="#a"/><linearGradient id="B" x1="307.23" y1="250.48" x2="283.44" y2="250.48" xlink:href="#a"/><linearGradient id="C" x1="311.62" y1="257.73" x2="278.86" y2="257.73" xlink:href="#a"/><linearGradient id="D" x1="307.38" y1="264.97" x2="283.59" y2="264.97" xlink:href="#a"/><linearGradient id="E" x1="307.38" y1="272.21" x2="283.59" y2="272.21" xlink:href="#a"/><linearGradient id="F" x1="307.38" y1="279.46" x2="283.59" y2="279.46" xlink:href="#a"/><linearGradient id="G" x1="307.38" y1="286.7" x2="283.59" y2="286.7" xlink:href="#a"/><linearGradient id="H" x1="311.78" y1="293.94" x2="279.01" y2="293.94" xlink:href="#a"/><linearGradient id="I" x1="307.23" y1="301.19" x2="283.44" y2="301.19" xlink:href="#a"/><linearGradient id="J" x1="307.23" y1="308.43" x2="283.44" y2="308.43" xlink:href="#a"/><linearGradient id="K" x1="307.23" y1="315.67" x2="283.44" y2="315.67" xlink:href="#a"/><linearGradient id="L" x1="307.23" y1="322.92" x2="283.44" y2="322.92" xlink:href="#a"/><linearGradient id="M" x1="311.62" y1="330.16" x2="278.86" y2="330.16" xlink:href="#a"/><linearGradient id="N" x1="307.23" y1="337.4" x2="283.44" y2="337.4" xlink:href="#a"/><linearGradient id="O" x1="307.23" y1="344.65" x2="283.44" y2="344.65" xlink:href="#a"/><linearGradient id="P" x1="307.23" y1="351.89" x2="283.44" y2="351.89" xlink:href="#a"/><linearGradient id="Q" x1="307.23" y1="359.13" x2="283.44" y2="359.13" xlink:href="#a"/><linearGradient id="R" x1="311.62" y1="366.38" x2="278.86" y2="366.38" xlink:href="#a"/><linearGradient id="S" x1="311.62" y1="113.09" x2="278.86" y2="113.09" xlink:href="#a"/><linearGradient id="T" x1="307.23" y1="120.33" x2="283.44" y2="120.33" xlink:href="#a"/><linearGradient id="U" x1="307.23" y1="127.57" x2="283.44" y2="127.57" xlink:href="#a"/><linearGradient id="V" x1="307.23" y1="134.82" x2="283.44" y2="134.82" xlink:href="#a"/><linearGradient id="W" x1="307.23" y1="142.06" x2="283.44" y2="142.06" xlink:href="#a"/><linearGradient id="X" x1="311.62" y1="149.3" x2="278.86" y2="149.3" xlink:href="#a"/><linearGradient id="Y" x1="307.38" y1="156.55" x2="283.59" y2="156.55" xlink:href="#a"/><linearGradient id="Z" x1="307.38" y1="163.79" x2="283.59" y2="163.79" xlink:href="#a"/><linearGradient id="aa" x1="307.38" y1="171.03" x2="283.59" y2="171.03" xlink:href="#a"/><linearGradient id="ab" x1="307.38" y1="178.28" x2="283.59" y2="178.28" xlink:href="#a"/><linearGradient id="ac" x1="311.78" y1="185.52" x2="279.01" y2="185.52" xlink:href="#a"/><linearGradient id="ad" x1="307.23" y1="192.76" x2="283.44" y2="192.76" xlink:href="#a"/><linearGradient id="ae" x1="307.23" y1="200.01" x2="283.44" y2="200.01" xlink:href="#a"/><linearGradient id="af" x1="307.23" y1="207.25" x2="283.44" y2="207.25" xlink:href="#a"/><linearGradient id="ag" x1="307.23" y1="214.49" x2="283.44" y2="214.49" xlink:href="#a"/><linearGradient id="ah" x1="311.62" y1="221.74" x2="278.86" y2="221.74" xlink:href="#a"/><linearGradient id="ai" x1="307.23" y1="228.98" x2="283.44" y2="228.98" xlink:href="#a"/><linearGradient id="aj" x1="307.23" y1="236.23" x2="283.44" y2="236.23" xlink:href="#a"/><linearGradient id="ak" x1="307.23" y1="243.47" x2="283.44" y2="243.47" xlink:href="#a"/><linearGradient id="al" x1="307.23" y1="250.71" x2="283.44" y2="250.71" xlink:href="#a"/><linearGradient id="am" x1="311.62" y1="257.96" x2="278.86" y2="257.96" xlink:href="#a"/><clipPath id="an"><path fill="none" d="M286.53 112.37h17.37v371.86h-17.37z"/></clipPath><linearGradient id="c" x1="275.18" y1="486.08" x2="315.97" y2="486.08" gradientUnits="userSpaceOnUse"><stop offset=".01" stop-color="#d22c20"/><stop offset=".26" stop-color="#e2322b"/><stop offset=".51" stop-color="#ef3733"/><stop offset="1" stop-color="#d22c20"/></linearGradient><linearGradient id="ao" x1="-368.75" y1="288.95" x2="-334.36" y2="288.95" gradientTransform="translate(392.71)" xlink:href="#b"/><linearGradient id="ap" x1="497.62" y1="329.93" x2="464.86" y2="329.93" gradientTransform="matrix(-1 0 0 1 522.09 0)" xlink:href="#a"/><linearGradient id="aq" x1="493.23" y1="337.17" x2="469.44" y2="337.17" gradientTransform="matrix(-1 0 0 1 522.09 0)" xlink:href="#a"/><linearGradient id="ar" x1="493.23" y1="344.42" x2="469.44" y2="344.42" gradientTransform="matrix(-1 0 0 1 522.09 0)" xlink:href="#a"/><linearGradient id="as" x1="493.23" y1="351.66" x2="469.44" y2="351.66" gradientTransform="matrix(-1 0 0 1 522.09 0)" xlink:href="#a"/><linearGradient id="at" x1="493.23" y1="358.9" x2="469.44" y2="358.9" gradientTransform="matrix(-1 0 0 1 522.09 0)" xlink:href="#a"/><linearGradient id="au" x1="497.62" y1="366.15" x2="464.86" y2="366.15" gradientTransform="matrix(-1 0 0 1 522.09 0)" xlink:href="#a"/><linearGradient id="av" x1="493.38" y1="373.39" x2="469.59" y2="373.39" gradientTransform="matrix(-1 0 0 1 522.09 0)" xlink:href="#a"/><linearGradient id="aw" x1="493.38" y1="380.63" x2="469.59" y2="380.63" gradientTransform="matrix(-1 0 0 1 522.09 0)" xlink:href="#a"/><linearGradient id="ax" x1="493.38" y1="387.88" x2="469.59" y2="387.88" gradientTransform="matrix(-1 0 0 1 522.09 0)" xlink:href="#a"/><linearGradient id="ay" x1="493.38" y1="395.12" x2="469.59" y2="395.12" gradientTransform="matrix(-1 0 0 1 522.09 0)" xlink:href="#a"/><linearGradient id="az" x1="497.78" y1="402.37" x2="465.01" y2="402.37" gradientTransform="matrix(-1 0 0 1 522.09 0)" xlink:href="#a"/><linearGradient id="aA" x1="493.23" y1="409.61" x2="469.44" y2="409.61" gradientTransform="matrix(-1 0 0 1 522.09 0)" xlink:href="#a"/><linearGradient id="aB" x1="493.23" y1="416.85" x2="469.44" y2="416.85" gradientTransform="matrix(-1 0 0 1 522.09 0)" xlink:href="#a"/><linearGradient id="aC" x1="493.23" y1="424.1" x2="469.44" y2="424.1" gradientTransform="matrix(-1 0 0 1 522.09 0)" xlink:href="#a"/><linearGradient id="aD" x1="493.23" y1="431.34" x2="469.44" y2="431.34" gradientTransform="matrix(-1 0 0 1 522.09 0)" xlink:href="#a"/><linearGradient id="aE" x1="497.62" y1="438.58" x2="464.86" y2="438.58" gradientTransform="matrix(-1 0 0 1 522.09 0)" xlink:href="#a"/><linearGradient id="aF" x1="493.23" y1="445.83" x2="469.44" y2="445.83" gradientTransform="matrix(-1 0 0 1 522.09 0)" xlink:href="#a"/><linearGradient id="aG" x1="493.23" y1="453.07" x2="469.44" y2="453.07" gradientTransform="matrix(-1 0 0 1 522.09 0)" xlink:href="#a"/><linearGradient id="aH" x1="493.23" y1="460.31" x2="469.44" y2="460.31" gradientTransform="matrix(-1 0 0 1 522.09 0)" xlink:href="#a"/><linearGradient id="aI" x1="493.23" y1="467.56" x2="469.44" y2="467.56" gradientTransform="matrix(-1 0 0 1 522.09 0)" xlink:href="#a"/><linearGradient id="aJ" x1="497.62" y1="474.8" x2="464.86" y2="474.8" gradientTransform="matrix(-1 0 0 1 522.09 0)" xlink:href="#a"/><linearGradient id="aK" x1="497.62" y1="221.51" x2="464.86" y2="221.51" gradientTransform="matrix(-1 0 0 1 522.09 0)" xlink:href="#a"/><linearGradient id="aL" x1="493.23" y1="228.75" x2="469.44" y2="228.75" gradientTransform="matrix(-1 0 0 1 522.09 0)" xlink:href="#a"/><linearGradient id="aM" x1="493.23" y1="235.99" x2="469.44" y2="235.99" gradientTransform="matrix(-1 0 0 1 522.09 0)" xlink:href="#a"/><linearGradient id="aN" x1="493.23" y1="243.24" x2="469.44" y2="243.24" gradientTransform="matrix(-1 0 0 1 522.09 0)" xlink:href="#a"/><linearGradient id="aO" x1="493.23" y1="250.48" x2="469.44" y2="250.48" gradientTransform="matrix(-1 0 0 1 522.09 0)" xlink:href="#a"/><linearGradient id="aP" x1="497.62" y1="257.73" x2="464.86" y2="257.73" gradientTransform="matrix(-1 0 0 1 522.09 0)" xlink:href="#a"/><linearGradient id="aQ" x1="493.38" y1="264.97" x2="469.59" y2="264.97" gradientTransform="matrix(-1 0 0 1 522.09 0)" xlink:href="#a"/><linearGradient id="aR" x1="493.38" y1="272.21" x2="469.59" y2="272.21" gradientTransform="matrix(-1 0 0 1 522.09 0)" xlink:href="#a"/><linearGradient id="aS" x1="493.38" y1="279.46" x2="469.59" y2="279.46" gradientTransform="matrix(-1 0 0 1 522.09 0)" xlink:href="#a"/><linearGradient id="aT" x1="493.38" y1="286.7" x2="469.59" y2="286.7" gradientTransform="matrix(-1 0 0 1 522.09 0)" xlink:href="#a"/><linearGradient id="aU" x1="497.78" y1="293.94" x2="465.01" y2="293.94" gradientTransform="matrix(-1 0 0 1 522.09 0)" xlink:href="#a"/><linearGradient id="aV" x1="493.23" y1="301.19" x2="469.44" y2="301.19" gradientTransform="matrix(-1 0 0 1 522.09 0)" xlink:href="#a"/><linearGradient id="aW" x1="493.23" y1="308.43" x2="469.44" y2="308.43" gradientTransform="matrix(-1 0 0 1 522.09 0)" xlink:href="#a"/><linearGradient id="aX" x1="493.23" y1="315.67" x2="469.44" y2="315.67" gradientTransform="matrix(-1 0 0 1 522.09 0)" xlink:href="#a"/><linearGradient id="aY" x1="493.23" y1="322.92" x2="469.44" y2="322.92" gradientTransform="matrix(-1 0 0 1 522.09 0)" xlink:href="#a"/><linearGradient id="aZ" x1="497.62" y1="330.16" x2="464.86" y2="330.16" gradientTransform="matrix(-1 0 0 1 522.09 0)" xlink:href="#a"/><linearGradient id="ba" x1="493.23" y1="337.4" x2="469.44" y2="337.4" gradientTransform="matrix(-1 0 0 1 522.09 0)" xlink:href="#a"/><linearGradient id="bb" x1="493.23" y1="344.65" x2="469.44" y2="344.65" gradientTransform="matrix(-1 0 0 1 522.09 0)" xlink:href="#a"/><linearGradient id="bc" x1="493.23" y1="351.89" x2="469.44" y2="351.89" gradientTransform="matrix(-1 0 0 1 522.09 0)" xlink:href="#a"/><linearGradient id="bd" x1="493.23" y1="359.13" x2="469.44" y2="359.13" gradientTransform="matrix(-1 0 0 1 522.09 0)" xlink:href="#a"/><linearGradient id="be" x1="497.62" y1="366.38" x2="464.86" y2="366.38" gradientTransform="matrix(-1 0 0 1 522.09 0)" xlink:href="#a"/><linearGradient id="bf" x1="497.62" y1="113.09" x2="464.86" y2="113.09" gradientTransform="matrix(-1 0 0 1 522.09 0)" xlink:href="#a"/><linearGradient id="bg" x1="493.23" y1="120.33" x2="469.44" y2="120.33" gradientTransform="matrix(-1 0 0 1 522.09 0)" xlink:href="#a"/><linearGradient id="bh" x1="493.23" y1="127.57" x2="469.44" y2="127.57" gradientTransform="matrix(-1 0 0 1 522.09 0)" xlink:href="#a"/><linearGradient id="bi" x1="493.23" y1="134.82" x2="469.44" y2="134.82" gradientTransform="matrix(-1 0 0 1 522.09 0)" xlink:href="#a"/><linearGradient id="bj" x1="493.23" y1="142.06" x2="469.44" y2="142.06" gradientTransform="matrix(-1 0 0 1 522.09 0)" xlink:href="#a"/><linearGradient id="bk" x1="497.62" y1="149.3" x2="464.86" y2="149.3" gradientTransform="matrix(-1 0 0 1 522.09 0)" xlink:href="#a"/><linearGradient id="bl" x1="493.38" y1="156.55" x2="469.59" y2="156.55" gradientTransform="matrix(-1 0 0 1 522.09 0)" xlink:href="#a"/><linearGradient id="bm" x1="493.38" y1="163.79" x2="469.59" y2="163.79" gradientTransform="matrix(-1 0 0 1 522.09 0)" xlink:href="#a"/><linearGradient id="bn" x1="493.38" y1="171.03" x2="469.59" y2="171.03" gradientTransform="matrix(-1 0 0 1 522.09 0)" xlink:href="#a"/><linearGradient id="bo" x1="493.38" y1="178.28" x2="469.59" y2="178.28" gradientTransform="matrix(-1 0 0 1 522.09 0)" xlink:href="#a"/><linearGradient id="bp" x1="497.78" y1="185.52" x2="465.01" y2="185.52" gradientTransform="matrix(-1 0 0 1 522.09 0)" xlink:href="#a"/><linearGradient id="bq" x1="493.23" y1="192.76" x2="469.44" y2="192.76" gradientTransform="matrix(-1 0 0 1 522.09 0)" xlink:href="#a"/><linearGradient id="br" x1="493.23" y1="200.01" x2="469.44" y2="200.01" gradientTransform="matrix(-1 0 0 1 522.09 0)" xlink:href="#a"/><linearGradient id="bs" x1="493.23" y1="207.25" x2="469.44" y2="207.25" gradientTransform="matrix(-1 0 0 1 522.09 0)" xlink:href="#a"/><linearGradient id="bt" x1="493.23" y1="214.49" x2="469.44" y2="214.49" gradientTransform="matrix(-1 0 0 1 522.09 0)" xlink:href="#a"/><linearGradient id="bu" x1="497.62" y1="221.74" x2="464.86" y2="221.74" gradientTransform="matrix(-1 0 0 1 522.09 0)" xlink:href="#a"/><linearGradient id="bv" x1="493.23" y1="228.98" x2="469.44" y2="228.98" gradientTransform="matrix(-1 0 0 1 522.09 0)" xlink:href="#a"/><linearGradient id="bw" x1="493.23" y1="236.23" x2="469.44" y2="236.23" gradientTransform="matrix(-1 0 0 1 522.09 0)" xlink:href="#a"/><linearGradient id="bx" x1="493.23" y1="243.47" x2="469.44" y2="243.47" gradientTransform="matrix(-1 0 0 1 522.09 0)" xlink:href="#a"/><linearGradient id="by" x1="493.23" y1="250.71" x2="469.44" y2="250.71" gradientTransform="matrix(-1 0 0 1 522.09 0)" xlink:href="#a"/><linearGradient id="bz" x1="497.62" y1="257.96" x2="464.86" y2="257.96" gradientTransform="matrix(-1 0 0 1 522.09 0)" xlink:href="#a"/><clipPath id="bA"><path transform="rotate(-180 40.885 298.3)" fill="none" d="M32.2 112.37h17.37v371.86H32.2z"/></clipPath><linearGradient id="bB" x1="461.18" y1="486.08" x2="501.97" y2="486.08" gradientTransform="matrix(1 0 0 -1 -441.06 972.17)" xlink:href="#c"/><clipPath id="bC"><path d="M126.37 157.36v-.07c.1-.35 1.77-.91 2.13-1a40.63 40.63 0 0 1 5.61-1.19c28.17-4.5 71.92-2.41 76.14.63l.16.18c-.8 4.85-52.59 7-74.22 4.48-5.64-.65-9.3-1.6-9.82-3.03z" fill="#a81a16"/></clipPath><clipPath id="bD"><path d="M120.54 156.14a20.53 20.53 0 0 1 .59-4.29l.12-.23.16-.21a16 16 0 0 1 5.37-2.14c18.81-4.73 61.93-5.2 81.16-1.69 5.69 1.12 6.2 1.88 7.21 2.35l.29.44a22 22 0 0 1 .76 4.29c-3.81-7.01-91.84-5.89-95.66 1.48z" fill="#d22c20"/></clipPath><clipPath id="bE"><path d="M123.52 149.69c.4-2.38 11.63-74 11.89-75 5.07-15.65 59.05-17 62.86-.54.21 1.05 14.67 74.11 14.67 74.11-13.89-5.8-75.44-4.94-89.42 1.43z" fill="#d22c20"/></clipPath></defs><g style="isolation:isolate"><path fill="#a2a2a2" d="M98.24 519.65H85.33l-2.66-55.58h18.23l-2.66 55.58z"/><path fill="#bdbdbd" d="M82.67 448.64h18.24v7.71H82.67z"/><path fill="#696969" d="M82.67 456.36h18.24v7.71H82.67z"/><path fill="#a2a2a2" d="M250.9 519.65H238l-2.68-55.58h18.24l-2.66 55.58z"/><path fill="#bdbdbd" d="M235.32 448.64h18.24v7.71h-18.24z"/><path fill="#696969" d="M235.32 456.36h18.24v7.71h-18.24z"/><path fill="#9e6741" d="M71 439.51h194v12.99H71z"/><rect x="14.65" y="125.24" width="308.13" height="9.26" rx="2.8" ry="2.8" fill="#8e8e8e"/><path d="M322.73 129.32h-308v-2.06a2.37 2.37 0 0 1 2.59-2h303a2.28 2.28 0 0 1 2.51 2s-.16 2.02-.1 2.06z" fill="#a8a8a8"/><path d="M258.24 0h-24.17a42.15 42.15 0 0 0-42 42v.08h10.38a31.78 31.78 0 0 1 31.67-30.92h24.13a31.78 31.78 0 0 1 31.69 31.69v32.01h10.37V42a42.15 42.15 0 0 0-42.07-42z" fill="#d22c20"/><path fill="#d22c20" d="M192.47 42.43l-.76 5.6 2.54 2.4 6.56-.83 1.19-5.09-.61-3.77.16-.78h-8.56l-.52 2.47z"/><path d="M203.21 40h-3.08c0 .34-.06.67-.07 1h-5.72v-1h-3.08v1H190v6.88a3.72 3.72 0 0 0 3.73 3.73h6.5a3.71 3.71 0 0 0 3.77-3.77V41h-.82c-.03-.37.01-.7.03-1zm-2.32 4.56v3.33a.66.66 0 0 1-.66.66h-6.5a.69.69 0 0 1-.47-.19.66.66 0 0 1-.19-.46v-3.85h7.82z" fill="#d22c20"/><path fill="#a81a16" d="M203.15 40.99h-11.84v-.97h11.84zm97.34 28.38h-10.64v-.89h10.64z"/><path fill="#d22c20" d="M315.98 492.83h-40.83V92.76h40.83z"/><ellipse cx="295.56" cy="94.09" rx="20.46" ry="21.68" fill="#d22c20"/><path fill="#a81a16" d="M275.39 90.96l40.35-.13-.39-1.69h-39.61l-.35 1.82z"/><path transform="rotate(-180 294.94 288.95)" fill="url(#b)" d="M277.75 90.95h34.39v395.99h-34.39z"/><path fill="url(#a)" d="M278.61 329.14h33.91v1.59h-33.91z"/><path fill="url(#d)" d="M283.26 336.38h24.62v1.59h-24.62z"/><path fill="url(#e)" d="M283.26 343.62h24.62v1.59h-24.62z"/><path fill="url(#f)" d="M283.26 350.87h24.62v1.59h-24.62z"/><path fill="url(#g)" d="M283.26 358.11h24.62v1.59h-24.62z"/><path fill="url(#h)" d="M278.61 365.35h33.91v1.59h-33.91z"/><path fill="url(#i)" d="M283.41 372.6h24.62v1.59h-24.62z"/><path fill="url(#j)" d="M283.41 379.84h24.62v1.59h-24.62z"/><path fill="url(#k)" d="M283.41 387.08h24.62v1.59h-24.62z"/><path fill="url(#l)" d="M283.41 394.33h24.62v1.59h-24.62z"/><path fill="url(#m)" d="M278.77 401.57h33.91v1.59h-33.91z"/><path fill="url(#n)" d="M283.26 408.81h24.62v1.59h-24.62z"/><path fill="url(#o)" d="M283.26 416.06h24.62v1.59h-24.62z"/><path fill="url(#p)" d="M283.26 423.3h24.62v1.59h-24.62z"/><path fill="url(#q)" d="M283.26 430.54h24.62v1.59h-24.62z"/><path fill="url(#r)" d="M278.61 437.79h33.91v1.59h-33.91z"/><path fill="url(#s)" d="M283.26 445.03h24.62v1.59h-24.62z"/><path fill="url(#t)" d="M283.26 452.28h24.62v1.59h-24.62z"/><path fill="url(#u)" d="M283.26 459.52h24.62v1.59h-24.62z"/><path fill="url(#v)" d="M283.26 466.76h24.62v1.59h-24.62z"/><path fill="url(#w)" d="M278.61 474.01h33.91v1.59h-33.91z"/><path fill="url(#x)" d="M278.61 220.71h33.91v1.59h-33.91z"/><path fill="url(#y)" d="M283.26 227.96h24.62v1.59h-24.62z"/><path fill="url(#z)" d="M283.26 235.2h24.62v1.59h-24.62z"/><path fill="url(#A)" d="M283.26 242.44h24.62v1.59h-24.62z"/><path fill="url(#B)" d="M283.26 249.69h24.62v1.59h-24.62z"/><path fill="url(#C)" d="M278.61 256.93h33.91v1.59h-33.91z"/><path fill="url(#D)" d="M283.41 264.17h24.62v1.59h-24.62z"/><path fill="url(#E)" d="M283.41 271.42h24.62v1.59h-24.62z"/><path fill="url(#F)" d="M283.41 278.66h24.62v1.59h-24.62z"/><path fill="url(#G)" d="M283.41 285.9h24.62v1.59h-24.62z"/><path fill="url(#H)" d="M278.77 293.15h33.91v1.59h-33.91z"/><path fill="url(#I)" d="M283.26 300.39h24.62v1.59h-24.62z"/><path fill="url(#J)" d="M283.26 307.64h24.62v1.59h-24.62z"/><path fill="url(#K)" d="M283.26 314.88h24.62v1.59h-24.62z"/><path fill="url(#L)" d="M283.26 322.12h24.62v1.59h-24.62z"/><path fill="url(#M)" d="M278.61 329.37h33.91v1.59h-33.91z"/><path fill="url(#N)" d="M283.26 336.61h24.62v1.59h-24.62z"/><path fill="url(#O)" d="M283.26 343.85h24.62v1.59h-24.62z"/><path fill="url(#P)" d="M283.26 351.1h24.62v1.59h-24.62z"/><path fill="url(#Q)" d="M283.26 358.34h24.62v1.59h-24.62z"/><path fill="url(#R)" d="M278.61 365.58h33.91v1.59h-33.91z"/><path fill="url(#S)" d="M278.61 112.29h33.91v1.59h-33.91z"/><path fill="url(#T)" d="M283.26 119.53h24.62v1.59h-24.62z"/><path fill="url(#U)" d="M283.26 126.78h24.62v1.59h-24.62z"/><path fill="url(#V)" d="M283.26 134.02h24.62v1.59h-24.62z"/><path fill="url(#W)" d="M283.26 141.26h24.62v1.59h-24.62z"/><path fill="url(#X)" d="M278.61 148.51h33.91v1.59h-33.91z"/><path fill="url(#Y)" d="M283.41 155.75h24.62v1.59h-24.62z"/><path fill="url(#Z)" d="M283.41 163h24.62v1.59h-24.62z"/><path fill="url(#aa)" d="M283.41 170.24h24.62v1.59h-24.62z"/><path fill="url(#ab)" d="M283.41 177.48h24.62v1.59h-24.62z"/><path fill="url(#ac)" d="M278.77 184.73h33.91v1.59h-33.91z"/><path fill="url(#ad)" d="M283.26 191.97h24.62v1.59h-24.62z"/><path fill="url(#ae)" d="M283.26 199.21h24.62v1.59h-24.62z"/><path fill="url(#af)" d="M283.26 206.46h24.62v1.59h-24.62z"/><path fill="url(#ag)" d="M283.26 213.7h24.62v1.59h-24.62z"/><path fill="url(#ah)" d="M278.61 220.94h33.91v1.59h-33.91z"/><path fill="url(#ai)" d="M283.26 228.19h24.62v1.59h-24.62z"/><path fill="url(#aj)" d="M283.26 235.43h24.62v1.59h-24.62z"/><path fill="url(#ak)" d="M283.26 242.67h24.62v1.59h-24.62z"/><path fill="url(#al)" d="M283.26 249.92h24.62v1.59h-24.62z"/><path fill="url(#am)" d="M278.61 257.16h33.91v1.59h-33.91z"/><path d="M303.89 484.22V107.58c0-5.46-3.79-9.92-8.42-9.92h-.56c-4.63 0-8.41 4.46-8.41 9.92v376.64z" fill="#9be0ff"/><g clip-path="url(#an)"><path fill="#fff" d="M286.45 113.99h17.57V484.4h-17.57z"/><path d="M291.89 487.75V116.38h6.22v371.37h-6.24.02z" fill="#8e8e8e"/><path d="M294.63 116.38v371.26h-1.39c-.76 0-1.38-1.4-1.38-3.12V116.38zm-8.12-2.88h17.39v2.07h-17.39z" fill="#a8a8a8"/><path fill="#8e8e8e" d="M286.5 115.54h17.38v2.07H286.5z"/></g><path fill="#d22c20" d="M319.29 498.85h-47.36v-11.37h47.36z"/><path d="M259.3 519.5c.71-15.38 16.73-27.67 36.4-27.67s35.69 12.29 36.41 27.67z" fill="#d22c20"/><path fill="#a81a16" d="M318.76 498.66h-46.57v-3.19h46.57z"/><path fill="url(#c)" d="M275.18 484.33h40.79v3.5h-40.79z"/><path d="M77.85 0H102a42.15 42.15 0 0 1 42 42v.08h-10.32A31.79 31.79 0 0 0 102 11.19H77.87a31.79 31.79 0 0 0-31.69 31.69v31.98H35.83V42A42.15 42.15 0 0 1 77.85 0z" fill="#d22c20"/><path fill="#d22c20" d="M143.62 42.43l.76 5.6-2.53 2.4-6.57-.83-1.18-5.09.6-3.77-.16-.78h8.57l.51 2.47z"/><path d="M133 41h-.82v6.87a3.72 3.72 0 0 0 2.82 3.61 3.63 3.63 0 0 0 .87.1h6.5a3.74 3.74 0 0 0 3.74-3.73V41h-1.28c0-.34 0-.68-.05-1h-3.08c0 .34 0 .68.05 1H136c0-.34 0-.67-.07-1h-3.09c.07.3.16.63.16 1zm2.25 3.08H143v3.81a.66.66 0 0 1-.19.46.67.67 0 0 1-.47.19h-6.5a.65.65 0 0 1-.65-.66v-3.8z" fill="#d22c20"/><path fill="#a81a16" d="M132.95 40.02h11.84v.97h-11.84zM35.61 68.47h10.64v.89H35.61z"/><path fill="#d22c20" d="M20.11 92.76h40.83v400.07H20.11z"/><ellipse cx="40.53" cy="94.09" rx="20.46" ry="21.68" fill="#d22c20"/><path fill="#a81a16" d="M60.71 90.96l-40.36-.13.4-1.69h39.6l.36 1.82z"/><path fill="url(#ao)" d="M23.96 90.95h34.39v395.99H23.96z"/><path fill="url(#ap)" d="M23.58 329.14h33.91v1.59H23.58z"/><path fill="url(#aq)" d="M28.22 336.38h24.62v1.59H28.22z"/><path fill="url(#ar)" d="M28.22 343.62h24.62v1.59H28.22z"/><path fill="url(#as)" d="M28.22 350.87h24.62v1.59H28.22z"/><path fill="url(#at)" d="M28.22 358.11h24.62v1.59H28.22z"/><path fill="url(#au)" d="M23.58 365.35h33.91v1.59H23.58z"/><path fill="url(#av)" d="M28.07 372.6h24.62v1.59H28.07z"/><path fill="url(#aw)" d="M28.07 379.84h24.62v1.59H28.07z"/><path fill="url(#ax)" d="M28.07 387.08h24.62v1.59H28.07z"/><path fill="url(#ay)" d="M28.07 394.33h24.62v1.59H28.07z"/><path fill="url(#az)" d="M23.42 401.57h33.91v1.59H23.42z"/><path fill="url(#aA)" d="M28.22 408.81h24.62v1.59H28.22z"/><path fill="url(#aB)" d="M28.22 416.06h24.62v1.59H28.22z"/><path fill="url(#aC)" d="M28.22 423.3h24.62v1.59H28.22z"/><path fill="url(#aD)" d="M28.22 430.54h24.62v1.59H28.22z"/><path fill="url(#aE)" d="M23.58 437.79h33.91v1.59H23.58z"/><path fill="url(#aF)" d="M28.22 445.03h24.62v1.59H28.22z"/><path fill="url(#aG)" d="M28.22 452.28h24.62v1.59H28.22z"/><path fill="url(#aH)" d="M28.22 459.52h24.62v1.59H28.22z"/><path fill="url(#aI)" d="M28.22 466.76h24.62v1.59H28.22z"/><path fill="url(#aJ)" d="M23.58 474.01h33.91v1.59H23.58z"/><path fill="url(#aK)" d="M23.58 220.71h33.91v1.59H23.58z"/><path fill="url(#aL)" d="M28.22 227.96h24.62v1.59H28.22z"/><path fill="url(#aM)" d="M28.22 235.2h24.62v1.59H28.22z"/><path fill="url(#aN)" d="M28.22 242.44h24.62v1.59H28.22z"/><path fill="url(#aO)" d="M28.22 249.69h24.62v1.59H28.22z"/><path fill="url(#aP)" d="M23.58 256.93h33.91v1.59H23.58z"/><path fill="url(#aQ)" d="M28.07 264.17h24.62v1.59H28.07z"/><path fill="url(#aR)" d="M28.07 271.42h24.62v1.59H28.07z"/><path fill="url(#aS)" d="M28.07 278.66h24.62v1.59H28.07z"/><path fill="url(#aT)" d="M28.07 285.9h24.62v1.59H28.07z"/><path fill="url(#aU)" d="M23.42 293.15h33.91v1.59H23.42z"/><path fill="url(#aV)" d="M28.22 300.39h24.62v1.59H28.22z"/><path fill="url(#aW)" d="M28.22 307.64h24.62v1.59H28.22z"/><path fill="url(#aX)" d="M28.22 314.88h24.62v1.59H28.22z"/><path fill="url(#aY)" d="M28.22 322.12h24.62v1.59H28.22z"/><path fill="url(#aZ)" d="M23.58 329.37h33.91v1.59H23.58z"/><path fill="url(#ba)" d="M28.22 336.61h24.62v1.59H28.22z"/><path fill="url(#bb)" d="M28.22 343.85h24.62v1.59H28.22z"/><path fill="url(#bc)" d="M28.22 351.1h24.62v1.59H28.22z"/><path fill="url(#bd)" d="M28.22 358.34h24.62v1.59H28.22z"/><path fill="url(#be)" d="M23.58 365.58h33.91v1.59H23.58z"/><path fill="url(#bf)" d="M23.58 112.29h33.91v1.59H23.58z"/><path fill="url(#bg)" d="M28.22 119.53h24.62v1.59H28.22z"/><path fill="url(#bh)" d="M28.22 126.78h24.62v1.59H28.22z"/><path fill="url(#bi)" d="M28.22 134.02h24.62v1.59H28.22z"/><path fill="url(#bj)" d="M28.22 141.26h24.62v1.59H28.22z"/><path fill="url(#bk)" d="M23.58 148.51h33.91v1.59H23.58z"/><path fill="url(#bl)" d="M28.07 155.75h24.62v1.59H28.07z"/><path fill="url(#bm)" d="M28.07 163h24.62v1.59H28.07z"/><path fill="url(#bn)" d="M28.07 170.24h24.62v1.59H28.07z"/><path fill="url(#bo)" d="M28.07 177.48h24.62v1.59H28.07z"/><path fill="url(#bp)" d="M23.42 184.73h33.91v1.59H23.42z"/><path fill="url(#bq)" d="M28.22 191.97h24.62v1.59H28.22z"/><path fill="url(#br)" d="M28.22 199.21h24.62v1.59H28.22z"/><path fill="url(#bs)" d="M28.22 206.46h24.62v1.59H28.22z"/><path fill="url(#bt)" d="M28.22 213.7h24.62v1.59H28.22z"/><path fill="url(#bu)" d="M23.58 220.94h33.91v1.59H23.58z"/><path fill="url(#bv)" d="M28.22 228.19h24.62v1.59H28.22z"/><path fill="url(#bw)" d="M28.22 235.43h24.62v1.59H28.22z"/><path fill="url(#bx)" d="M28.22 242.67h24.62v1.59H28.22z"/><path fill="url(#by)" d="M28.22 249.92h24.62v1.59H28.22z"/><path fill="url(#bz)" d="M23.58 257.16h33.91v1.59H23.58z"/><path d="M32.2 484.22V107.58c0-5.46 3.79-9.92 8.42-9.92h.56c4.63 0 8.42 4.46 8.42 9.92v376.64z" fill="#9be0ff"/><g clip-path="url(#bA)"><path fill="#fff" d="M49.64 483.4H32.07V112.99h17.57z"/><path d="M37.97 486.75V115.37h6.22v371.38h-6.24.02z" fill="#8e8e8e"/><path d="M41.46 115.38v371.26h1.39c.77 0 1.39-1.4 1.39-3.12V115.38zm8.13-.81H32.2v-2.07h17.39z" fill="#a8a8a8"/><path fill="#8e8e8e" d="M49.59 116.62H32.21v-2.07h17.38z"/></g><path fill="#d22c20" d="M16.8 487.48h47.36v11.37H16.8z"/><path d="M76.79 519.5c-.71-15.38-16.73-27.67-36.4-27.67S4.7 504.12 4 519.5z" fill="#d22c20"/><path fill="#a81a16" d="M17.33 495.46H63.9v3.19H17.33z"/><path transform="rotate(-180 40.52 486.085)" fill="url(#bB)" d="M20.12 484.33h40.79v3.5H20.12z"/><path d="M125.1 158.44v-.32c.23-.51.61-.7 1.15-1l.38-.09v.1l-.25.15v.07c2.63 6.51 71.55 4 82.22 0 1.66-.7 1.6-1 1.81-1.41l.39.08a1.64 1.64 0 0 1 .84.8v.16c-.22 1.22-3.21 1.93-4.35 2.22-21.51 5-66.46 3.08-76.09 1.48-1.85-.35-5.5-1.01-6.1-2.24z" fill="#e26d6d"/><path d="M126.37 157.36v-.07c.1-.35 1.77-.91 2.13-1a40.63 40.63 0 0 1 5.61-1.19c28.17-4.5 71.92-2.41 76.14.63l.16.18c-.8 4.85-52.59 7-74.22 4.48-5.64-.65-9.3-1.6-9.82-3.03z" fill="#a81a16"/><g clip-path="url(#bC)" fill="#a81a16"><path d="M153.87 163.24l-.25-19.59-35.33 13s27.09 10.19 35.58 6.59zm35.7-14.82l1.18 16.28s22.87-2 23-7.67-24.18-8.61-24.18-8.61z" style="mix-blend-mode:multiply" opacity=".3"/></g><path d="M121.64 157.92a.75.75 0 0 1 0-.36c.39-1.35 4.06-2.52 9.75-3.42 23.35-3.71 80.6-3.46 83.79 1.83l.05.17v.18l-.05.18.09.07-.27.34c-5.89 3.78-29 5.08-35.89 5.25 2.14-.16 31.92-1.39 32.61-5.2v-.16a1.64 1.64 0 0 0-.84-.8l-.39-.08-.3-.23c-13.23-4.91-74.22-3.12-83 1.15a2.55 2.55 0 0 1-.84.29c-.66.35-.95.54-1.15 1v.32c.49 1 2.91 1.59 4.92 2 1.75.35 4 .55 6.24.81-1.66-.09-3.82-.29-3.9-.3-2.46-.15-9.85-1.35-10.82-3.04z" fill="#ff433e"/><path d="M126 162.63s-2.51 28.86-.38 32.82 4.07 5.75 4.46-1.26 4.64-19.06 4.84-9.35-.78 34 3.48 35.24 4.07-3.05 3.49-14 2.32-25.17 2.13-16.9 1.93 16 3.48 11.68-.19-7.73 1-12.58 5.81-9 5.42 4-1.16 25.72 2.13 26.25 3.1-2 2.9-10.42 2.33-15.47 2.13-6.48-1.55 23.92 1.55 24.28 2.71-1.08 1.74-7.2-1.74-15.28-1-17.08 4.25-7.55 4.64 9.35 2.52 17.44 4.45 15.11-2.71-10.79-1.35-22.84 4.45-22.83 4.26-8.63-.78 21.4 1.74 21.76 4.26-.36 3.68-7.2-.78-23.37 1.16-22.29 1 10.25 1.94 16.54 3.29 9.17 4.06 4.32-3.1-16.55-1.74-20 6-5.22 6.39 6.47-.39 20.86 2.13 21.76 4.84-.36 4.06-7-3.87-20.67-1.93-22.83 3.1-3.78 4.07 10.43 3.87 16.54 4.83 11.33-2.32-19.24-1.74-21 4.65-6.65 5.42 13.13-2.32 25.71 3.87 25.35c2.82-.17 1.17-5.76.58-15.47s-2.14-51.59-4.27-54.11c-1.14-1.35-15.21-2.4-32.06-2.76a378.81 378.81 0 0 0-42.31 2c-10.76 1.26-9.03 2.19-9.25 7.58z" fill="#87c9d8" opacity=".85"/><path d="M128.62 163.5s1.38 43.5 3.74 46.87 5.16 6.24 4.65-5.75-2.84-34.76 1-37.4 5.16-4.55 5.94 3.6 4.38 12.22 4.9 5.27 4.39-16.78 4.65-4.31 8 26.13 8 16.06-3.1-15.11-2.07-19.9 11.91-13.94 12.17-3.84-3.62 41.24 1.54 42 6.72-6.47 5.17-13.67-1.81-25.65-1-29.48 7.22-6 6.71.71-.52 12.23 1.8 12.47 3.1-.24 2.84-4.79-1-13.67 0-13.91 12.14-2.16 11.88 2.4-4.91 27.57-1.55 30.45 5.68 3.35 5.42-4.32-.26-23.25-.52-25.65-7.61-5.16-24.65-6.12-43.65.2-50.62 9.31z" fill="#9ad8e8" opacity=".79"/><path d="M189.66 196.71s-5.67 28-.77 30.44 8-6.71 6.2-15.82-4.91-18.94-5.43-14.62zm20.14-9.11s-3.87 16.3-.77 18 6.45.24 4.64-7.91-3.1-14.17-3.87-10.09zm-63.24 5.27s-3.1 9.83-1 12 4.13.24 3.36-4.56-1.85-9.83-2.36-7.44zm-27.62 18.94s-5.94 18.46-.78 18.7 5.68-5.51 4.13-11.27-3.1-9.83-3.35-7.43zm-2.84-25.17s-3.1 9.83-1 10.55 4.13-1.44 3.36-5.52-2.36-7.67-2.36-5.03z" fill="#9ad8e8"/><path d="M121.64 157.92a2.65 2.65 0 0 0 1 .8l-.61-.3a2.26 2.26 0 0 1-1.46-2.28c3.82-7.37 91.85-8.5 95.66-1.48a2 2 0 0 1-.79 1.89l-.46.36.18-.41.05-.18v-.18l-.05-.17c-4-6.57-91.52-5.37-93.54 1.59a.75.75 0 0 0 .02.36z" fill="#f23b36"/><path d="M121.41 151.41a3.52 3.52 0 0 0-.28.44 1.92 1.92 0 0 1 .25-.6c2.74-4.07 24.78-9.13 46.75-9.54s43.92 3.86 47 8a3.21 3.21 0 0 1 .33.74 5.43 5.43 0 0 0-.34-.56c-1-.48-1.63-1.33-8.18-2.53-20.13-3.38-63.06-2.71-81 2.11a15.13 15.13 0 0 0-4.53 1.94z" fill="#a81a16"/><path d="M121.41 151.41a3.52 3.52 0 0 0-.28.44 1.92 1.92 0 0 1 .25-.6c5.48-8.14 87.56-9.86 93.78-1.5a3.21 3.21 0 0 1 .33.74 5.43 5.43 0 0 0-.34-.56c-1-.48-1.63-1.33-8.18-2.53-20.13-3.38-63.06-2.71-81 2.11a15.13 15.13 0 0 0-4.56 1.9z" fill="#d22c20"/><path d="M197.71 72.34v.14a11 11 0 0 0-2.1-2.76C185.77 60.87 163 61 150 64.65c-9.18 2.76-11.73 5.81-13.05 7.21a12 12 0 0 0-1.24 2.06 7.74 7.74 0 0 1 1-2.07c9.29-13.1 48.74-14.34 59.57-1.79a13.52 13.52 0 0 1 1.43 2.28zm-76.31 78.95l-.19.3a9.11 9.11 0 0 0-.42 1.9c0-.23.15-5.65.25-5.86h2.84c-.33 2.12-.31 1.88-.36 2.14a4.32 4.32 0 0 0-2.12 1.52zm91.54-3.08s-.43-2.07-.43-2.09h2.83c.11.39 0-.2.45 5.59a6.72 6.72 0 0 0-.45-1.6l-.19-.17v-.18a7.17 7.17 0 0 0-2.21-1.55z" fill="#a81a16"/><path d="M120.54 156.14a20.53 20.53 0 0 1 .59-4.29l.12-.23.16-.21a16 16 0 0 1 5.37-2.14c18.81-4.73 61.93-5.2 81.16-1.69 5.69 1.12 6.2 1.88 7.21 2.35l.29.44a22 22 0 0 1 .76 4.29c-3.81-7.01-91.84-5.89-95.66 1.48z" fill="#d22c20"/><g clip-path="url(#bD)"><path fill="#a81a16" d="M141.51 152.67l1.05-8.68-26.41 6.94 1.63 11.14 23.73-9.4z"/></g><path d="M123.52 149.69c.4-2.38 11.63-74 11.89-75 5.07-15.65 59.05-17 62.86-.54.21 1.05 14.67 74.11 14.67 74.11-13.89-5.8-75.44-4.94-89.42 1.43z" fill="#d22c20"/><g clip-path="url(#bE)"><path d="M146.11 148.06s0-.59.1-1.66c20.24-1.76 46.35-1.42 60.76 1 6.55 1.2 7.15 2 8.18 2.53a5.43 5.43 0 0 1 .34.56c-.05-.27-.34-1.52-.34-1.52-3.11-4.18-25-7.66-47-7.26a199.51 199.51 0 0 0-21.73 1.61c1-16.27 4.18-69 4.15-71.35 0-2.78 5.7-9.38 23.92-10.82s-48.57-5.28-48.57-5.28l-13 104.29z" fill="#a81a16"/></g><path fill="none" d="M0 474.17h112.67v374H0z"/><path d="M164 370.67c-2.84-4.63-8.78-16-8.78-30.26 0-7.8 10.24-6.87 10.24-6.87s10.24-.93 10.24 6.87c0 14.24-5.93 25.63-8.77 30.26-.88 1.45-1.45 2.25-1.45 2.25s-.58-.8-1.48-2.25z" fill="#fff"/><path d="M184.9 343.58a22.71 22.71 0 0 1-4 1.56 46.85 46.85 0 0 1-15.5 1.84 50.25 50.25 0 0 1-12.4-1.84 19 19 0 0 1-5.18-2.18c.79-1 4-2.81 7.1-4.36 1.81-.9 3.59-1.73 4.87-2.31l1.87-.83a12.78 12.78 0 0 0 .54-3c.41-3.35.86-8.26.86-8.26h8l.31 3.61.69 7.82c.83.37 1.67.78 2.51 1.22 1.66.87 3.27 1.85 4.72 2.79a70.86 70.86 0 0 1 5.61 3.94z" fill="#ffceaa"/><path d="M171.38 327.78q-4.59 2.28-9.14 4.65c.41-3.35.86-8.26.86-8.26h8z" fill="#eda672"/><path d="M149 296c-.73 5 .8 19 5.54 24.27s9.69 7.09 13 7.22 10.85-4.26 14.57-10.48c4.5-7.52 4.1-21.8 3.18-27.34S175 279 166 280.42s-15.19 3.17-17 15.58z" fill="#ffceaa"/><path d="M169.51 310.88c-.91-.48-3-.44-4.68-.16a1.45 1.45 0 0 0-.61.19c-.17.12-.11.33 0 .52a6.34 6.34 0 0 0 1.89 1.32 2 2 0 0 0 .86.26 2.16 2.16 0 0 0 1.22-.52c.56-.44 1.69-1.08 1.32-1.61z" fill="#eda672"/><path d="M145.2 293.14s2.23-5.06 2.5-5.48a16.59 16.59 0 0 1 3.15-3.63c1.67-1.16 3.13-1.94 3.63-2.83 1.11-2 2.32-1.94 9.31-4a4.11 4.11 0 0 1 2.81.4c.32.17 3.75 0 4.9.71.35.2 7.13 2.53 8 3.72.41.56 2.64 2.53 3 2.86.62.61 6.19 4.53 8.33 15.36.82 4.12-3.74 28.9-5 29.41-2 .84-1.31-1.78-3.75-1.19-.74.18-1.54 2.23-2.32 2.21-1.73-.06-1.49-2.21-3-2.09-1 .08-.95 2.1-1.84 2.56-1.28.66-1.79-2.1-3.22-2l-.33-2.64c9.69-4.82 13.79-12.42 14.11-22.75v-.27c-1.94-.49-.93 3-1.38 3.11-.26.05-2-7.95-1.93-8.2-.39-1.49-.17-3.05-2.8-.82-.22.19.85-4.51-1.52-5s-2.28 1.47-3 1.47-2.29-4.19-4.78-4.8-2 1.26-3.32 1.26a5 5 0 0 1-5-4.64 4.27 4.27 0 0 1-3.44 1.75 4.32 4.32 0 0 1-.88-.1c.11.4-1.75 2.28-2 2.73-.89 1.78.08 4.56-.58 4.73s-.86-2.94-2.32-1.43a3.56 3.56 0 0 0-1 1.39c-.46 1.58.54 3.79-.13 4.06s-1.65-3.35-2.15 1.57a20.38 20.38 0 0 0-.09 3.23c1 8.84 4.62 18.16 13.81 22.62l-.17 2.05c-1.07-.19-1.82 3.06-2.8 2.56s-.12-3.87-2.08-3.87c-1.31 0-.24 2.27-2.32 2.39-.78 0-.42-2.53-2-2.59-1.79-.07-.59 2.62-2.68 2.67s-8.71-32.56-5.72-36.49z" fill="#c1472b"/><path d="M177.79 304.45a12 12 0 0 0-3.2.9 6.44 6.44 0 0 0-2.24 2.2c-.2.34-.55.35-.64.14-.54-1.08 1.17-2.91 3.06-3.78s4.9-1.18 5.45-.18c.23.41-1.02.53-2.43.72z" fill="#4c0c0a"/><path d="M178.45 306.58a11.74 11.74 0 0 0-3.31-.24 6.51 6.51 0 0 0-2.86 1.31c-.3.25-.63.15-.64-.09-.14-1.2 2.08-2.33 4.16-2.51s5 .55 5.18 1.67c.08.47-1.14.16-2.53-.14zm-22.76-2.13a12 12 0 0 1 3.19.9 6.39 6.39 0 0 1 2.25 2.2c.19.34.54.35.63.14.54-1.08-1.16-2.91-3.06-3.78s-4.89-1.18-5.44-.18c-.26.41 1.01.53 2.43.72z" fill="#4c0c0a"/><path d="M155 306.58a11.74 11.74 0 0 1 3.31-.24 6.41 6.41 0 0 1 2.86 1.31c.3.25.63.15.64-.09.15-1.2-2.08-2.33-4.16-2.51s-5 .55-5.18 1.67c-.05.47 1.16.16 2.53-.14z" fill="#4c0c0a"/><path d="M177.94 298.66a35.71 35.71 0 0 0-6.25-4.83 5.92 5.92 0 0 1 6.25 4.83zm-23.68.13a35.36 35.36 0 0 1 6.26-4.82 5.94 5.94 0 0 0-6.26 4.82z" fill="#d5532c"/><path d="M162.63 317.38s.41-1.73 1.34-2.2a6.54 6.54 0 0 1 6 .12 3.56 3.56 0 0 1 1.11 2.11zm-.39 3.8s0 2 .85 2.78 1.74 1.15 3.77 1.18a5.85 5.85 0 0 0 3.89-1.07c.76-.76.76-3.1.76-3.1z" fill="#aa4c3f"/><path d="M170.93 322.84a6 6 0 0 1-4 1.12c-2.23 0-3.51-.54-4.27-1.39-.47-.53-.45-1.82-.33-3.15a6 6 0 0 1 .84-3.12 2.11 2.11 0 0 1 .46-.44 1.59 1.59 0 0 1 .67-.29c1-.16 1.27.21 2.63.21s1.64-.37 2.63-.21a1.65 1.65 0 0 1 .51.18 1.7 1.7 0 0 1 .57.54 6.83 6.83 0 0 1 .8 3.09c.12 1.49.2 2.84-.51 3.46z" fill="#4c0c0a"/><path d="M163.61 322.73a3.77 3.77 0 0 1 2.6-1.5 4.52 4.52 0 0 1 3.1.67c.37.26.69.62.6 1a20.68 20.68 0 0 1-5.88.34c-.2 0-.44-.07-.5-.22a.32.32 0 0 1 .08-.29z" fill="#b2543f"/><path d="M170.61 316.29a.58.58 0 0 1-.17.18 2.43 2.43 0 0 1-1 .44 16.87 16.87 0 0 1-4.44.09 3.69 3.69 0 0 1-1.66-.57.64.64 0 0 1-.15-.13 1.68 1.68 0 0 1 .32-.33l.08-.06.06-.05h.05a1.4 1.4 0 0 1 .58-.24c1-.16 1.27.21 2.63.21s1.64-.37 2.63-.21a1.65 1.65 0 0 1 .51.18l.08.05.14.1a1.87 1.87 0 0 1 .34.34zm.32 6.55c-.76.72-2 1.12-4 1.12-2.23 0-3.55-.5-4.27-1.39a2.09 2.09 0 0 1 .22-.2.57.57 0 0 1 .13-.08.69.69 0 0 1 .29-.12 2.15 2.15 0 0 1 1.11.16 10.42 10.42 0 0 0 5.26 0 1.19 1.19 0 0 1 .91 0l.14.11a.5.5 0 0 1 .08.12 2.69 2.69 0 0 1 .13.28z" fill="#fff"/><path d="M185.24 303.06h-1.46v-1.43l-.64-.28a12.2 12.2 0 0 0-1-.36l-1-.28a19.33 19.33 0 0 0-6-.56l-1 .1c-.34 0-.68.13-1 .19a9.06 9.06 0 0 0-1.94.72 8.06 8.06 0 0 0-1.73 1.16 6.59 6.59 0 0 0-1.36 1.63l-.07.14h-2.34l-.08-.14a6.56 6.56 0 0 0-1.35-1.63 8.06 8.06 0 0 0-1.73-1.16 9.06 9.06 0 0 0-1.94-.72c-.34-.06-.68-.16-1-.19l-1-.1a19.66 19.66 0 0 0-6 .56l-1 .28c-.33.11-.63.21-1 .36l-.64.28v1.43h-1.62a.56.56 0 0 0-.56.56v.54a.56.56 0 0 0 .56.56h1.62a.59.59 0 0 0 .26-.07q.07.35.18.69a9.26 9.26 0 0 0 .57 1.43 8.51 8.51 0 0 0 .83 1.34 7.17 7.17 0 0 0 1.15 1.12 3.34 3.34 0 0 0 .66.45 6.85 6.85 0 0 0 .71.37 7.44 7.44 0 0 0 1.51.44 6.47 6.47 0 0 0 1.51.13h.76l.68-.05c.45 0 1-.13 1.45-.2a10.23 10.23 0 0 0 1.42-.37 8.35 8.35 0 0 0 1.39-.58 5.43 5.43 0 0 0 2.24-2.17 3.65 3.65 0 0 0 .3-.76 2 2 0 0 0 .08-.44v-.67h2.28v.62a2.85 2.85 0 0 0 .09.44 3.65 3.65 0 0 0 .3.76 5.43 5.43 0 0 0 2.24 2.17 8.35 8.35 0 0 0 1.39.58 10.23 10.23 0 0 0 1.42.37c.48.07 1 .18 1.45.2l.68.05h.76a6.47 6.47 0 0 0 1.51-.13 7.44 7.44 0 0 0 1.51-.44 6.85 6.85 0 0 0 .71-.37 3.66 3.66 0 0 0 .66-.45 7.17 7.17 0 0 0 1.15-1.12 8.51 8.51 0 0 0 .83-1.34 8.32 8.32 0 0 0 .56-1.43c.07-.21.13-.43.18-.64h1.73a.56.56 0 0 0 .56-.56v-.54a.56.56 0 0 0-.43-.49zm-20.73 2.56a1.72 1.72 0 0 1-.29 1 4 4 0 0 1-1.72 1.5 7.26 7.26 0 0 1-1.16.42 12.39 12.39 0 0 1-1.24.27c-.43 0-.8.1-1.27.11h-1.3a5.26 5.26 0 0 1-1.2-.16 4.47 4.47 0 0 1-1.1-.38 2.6 2.6 0 0 1-.49-.28 2.19 2.19 0 0 1-.46-.34 5.45 5.45 0 0 1-.77-.82 7.17 7.17 0 0 1-.56-1 6.29 6.29 0 0 1-.39-1.13 8.17 8.17 0 0 1-.22-1.2v-.5l.12-.05.84-.3a17.16 17.16 0 0 1 1.74-.47 17.38 17.38 0 0 1 1.78-.29 17.64 17.64 0 0 1 1.8-.09 6.51 6.51 0 0 1 .89 0 6.3 6.3 0 0 1 .86.1 7.9 7.9 0 0 1 1.66.48 7.1 7.1 0 0 1 1.48.87 5.3 5.3 0 0 1 1.07 1.1zm17-2.05a8.17 8.17 0 0 1-.22 1.2 7 7 0 0 1-.95 2.15 5 5 0 0 1-.78.82 1.9 1.9 0 0 1-.45.34 2.6 2.6 0 0 1-.49.28 4.47 4.47 0 0 1-1.1.38 5.26 5.26 0 0 1-1.2.16h-1.3c-.47 0-.84-.08-1.27-.11a12.39 12.39 0 0 1-1.24-.27 7.26 7.26 0 0 1-1.16-.42 4 4 0 0 1-1.73-1.5 1.8 1.8 0 0 1-.29-1v-1.17a5.3 5.3 0 0 1 1.07-1.1 7.1 7.1 0 0 1 1.48-.87 7.9 7.9 0 0 1 1.66-.48 6.3 6.3 0 0 1 .86-.1 6.45 6.45 0 0 1 .89 0 17.64 17.64 0 0 1 1.8.09 17.38 17.38 0 0 1 1.78.29 17.16 17.16 0 0 1 1.74.47l.84.3.12.05c0 .16-.01.33-.03.49z" fill="#b53116"/><path d="M137.13 384.14l-.28.26a1.18 1.18 0 0 1 .28-.26z" style="mix-blend-mode:multiply" fill="#754559" opacity=".4"/><path d="M138.53 413c-1.91 5.36-2.2 14.08-2.2 14.08.18 3.76 2.44 11.52 12.2 13.66L147 429.9a57.8 57.8 0 0 1 16.79-2.5l.36 12.68c.76 0 5.78-.51 7-.45l.53-11.88c3.84-.18 12.11-.42 16 1.52 0 0-1.43 10.45-1.49 10.51l3.69-.12a12.68 12.68 0 0 0 9.05-12.44s-.24-8.75-3.1-14.59c-1.12-2.3-.59-1.57-3.69-9.05-6.06-3.73-12.92-6.28-24.88-6.28s-18.81 3.05-24.89 7.35c-2.9 7.09-1.94 2.98-3.84 8.35z" fill="#3b2d3c"/><path d="M189 428.87c0 1.9-10.05 2.32-22.15 2.32s-21.48.83-21.48-1.07 9.65-3.68 21.75-3.68S189 427 189 428.87z" fill="#2c222d"/><path d="M171.87 491.46l-.9-31 .66-52.73a6.34 6.34 0 0 1 6.42-6.26c3.51 0 10.61 4.25 10.73 10.09a150.36 150.36 0 0 1-1.91 23c-1.19 7.38-8.12 50.37-7.86 57.16a12.82 12.82 0 0 1-7.14-.26zm-8.1 0l.46-31-.65-52.73a6.44 6.44 0 0 0-6.38-6.42c-3.5 0-10.63 1.79-12.6 5 0 0 .36 4.64 1.07 14.65.58 8 8.2 53 8.22 53 .65 6.25 3.27 10.65 2.62 17.33 0 .05 2.56 1.24 7.26.17z" fill="#ffceaa"/><path d="M187.89 427.22l-.42 3c-2.68-.74-12.62-1.19-16.14-.89l-.17-3.45zm-41.32 2.08l.23 1.94c2.68-.75 13.58-2 17.09-1.72v-3.14z" fill="#7f5d41"/><path d="M138.53 413c-1.91 5.36-2.2 14.08-2.2 14.08.18 3.76 2.44 11.52 12.2 13.66L147 429.9a58.32 58.32 0 0 1 16.88-2.21h7.33c3.84-.18 12.55-.36 16.43 1.58 0 0-1.43 10.45-1.49 10.51l3.69-.12a12.68 12.68 0 0 0 9.05-12.44s-.24-8.75-3.1-14.59c-1.12-2.3-.59-1.57-3.69-9.05-6.06-3.73-12.92-6.28-24.88-6.28s-18.81 3.05-24.89 7.35c-2.86 7.09-1.9 2.98-3.8 8.35z" fill="#3b2d3c"/><path fill="#d8e2ef" d="M167.19 337.12v26.61l-11.69-26.91 11.69.3z"/><path fill="#fff" d="M167.19 334.04v3.08l-4.08 6.65-7.78-5.57 5.13-4.16h6.73z"/><path fill="#d8e2ef" d="M167.19 337.12v26.61l11.88-26.91-11.88.3z"/><path fill="#fff" d="M167.19 334.04v3.08l4.08 6.65 7.78-5.57-5.13-4.16h-6.73z"/><path d="M167.19 363.73V407s.77 8.77-.08 8.77-28.58-3-28.58-3 10-22.06 9.47-28.89-1-11.52-1-11.52-3.74-3-4.24-11.07c-.43-7-2.86-15.28.82-19.11a8.83 8.83 0 0 1 7.83-2.92z" fill="#d9a155"/><path d="M147.89 371.08s3.28 2.07 8.83 1.46 8.34-2.41 7.79-2.76-5.66.91-10.41.35-9.75-1.82-6.21.95z" fill="#ba823a"/><path d="M167.19 363.73V407s.13 8.68.36 8.68c.86 0 28.3-2.91 28.3-2.91s-8.41-22-8.29-28.8c.09-5 .18-11.52.18-11.52s4.73-6.79 4.73-14.91 1.08-9.5-.62-13.4-8.89-4.88-8.89-4.88z" fill="#d9a155"/><path d="M186.5 371.08s-3.29 2.07-8.84 1.46-8.34-2.41-7.79-2.76 5.66.91 10.41.35 9.72-1.82 6.22.95z" fill="#ba823a"/><path d="M143.59 342.2a14.39 14.39 0 0 0-2.68 7.08 119.46 119.46 0 0 1 2.17 14.53c.14 1.6 1.52 7.19 3.93 8.53l.58 6.92s2.49 7.17 5.23 6.94 2.74-8 5.48-8.34-.72 3.93 2.62 4.05 1-8.93 4.59-9 .53 14.7 5.41 14.23 1.43-8.46 4.28-9.29 1.43 5.6 4.05 5.24.84-7.5 3.58-7.62 4.73 8.51 4.73 8.51.12-11.45.18-11.52c2.68-3.39 5.23-11.44 4.33-14s.82-10.46-.22-14.27-8.89-4.88-8.89-4.88l-15.73 25-15.81-25s-5.27-.74-7.83 2.89z" fill="#c98f49"/><path fill="#b0772b" d="M167.19 363.67v36.73l-.31.34v-37.43l.31.36zm0 0v36.73l.31.34v-37.43l-.31.36z"/><path d="M146.57 427.93l21-1-.38-24.44a65.73 65.73 0 0 0-10-1.2c-3.5 0-11.08 1.44-12.6 5s-1.52 5.09-.8 15.09c.12 1.62 2.21 2.77 2.78 6.55z" fill="#3b2d3c"/><path d="M187.47 426.86c.78-6.31 3-11.37 1.52-16.08-2.59-8.39-7.43-9.27-10.94-9.31a97.37 97.37 0 0 0-10.85 1l.18 23.1zm-13.41 65.07a13.09 13.09 0 0 0 3.84 0z" fill="#3b2d3c"/><path fill="#facaa7" d="M92.66 305.42l-.04 4.48 3.48 3.66-3.44-8.14z"/><path d="M96.25 301.9a3.56 3.56 0 1 0 3.52 3.59 3.55 3.55 0 0 0-3.52-3.59z" fill="#facaa7"/><path d="M96.2 306.35a3.56 3.56 0 1 0 3.52 3.59 3.55 3.55 0 0 0-3.52-3.59z" fill="#facaa7"/><path d="M98.54 306.37a3.56 3.56 0 1 0 3.52 3.59 3.56 3.56 0 0 0-3.52-3.59z" fill="#facaa7"/><path d="M99.33 307.18a1.41 1.41 0 1 0 2.79.05v-3.66a1.4 1.4 0 1 0-2.78-.05z" fill="#facaa7"/><path d="M99.3 310.11a1.41 1.41 0 1 0 2.32 1.55l2.27-3.41a1.4 1.4 0 1 0-2.32-1.54z" fill="#facaa7"/><path d="M101.37 307.39a1.4 1.4 0 1 0 2.61-1l-.63-1.7a1.4 1.4 0 1 0-2.61 1z" fill="#facaa7"/><path fill="#facaa7" d="M96.21 305.47l.036-3.56 4.54.045-.035 3.56zm-2.827 10.784l.07-8.06 8 .07-.07 8.06z"/><path d="M93.44 315.68a33.58 33.58 0 0 0 .5 8.39c.15.7.29 1.41.49 2.1l.15.53c0 .17.1.35.16.52l.34 1 .19.51.2.51.21.51c.07.17.15.34.22.5.15.34.3.67.46 1l.51 1c.17.33.37.64.55 1s.37.64.58.95l.61.92.65.89c.21.3.45.58.68.87s.46.57.7.84l.73.82.76.79a36.77 36.77 0 0 0 3.24 2.89 40.11 40.11 0 0 0 3.48 2.49c1.19.76 2.41 1.48 3.64 2.13s2.49 1.25 3.76 1.8a69.28 69.28 0 0 0 7.71 2.82 90.674 90.674 0 0 0 7.84 1.98c2.64.54 5.28 1 7.95 1.3l.91-14.8c-2.3 0-4.61-.14-6.89-.35-1.14-.1-2.28-.23-3.41-.38s-2.25-.33-3.36-.53a48.39 48.39 0 0 1-12.53-3.94 24 24 0 0 1-9.28-7.56l-.42-.61c-.13-.2-.25-.41-.38-.62l-.19-.32-.17-.32-.17-.33a3.24 3.24 0 0 1-.17-.32l-.31-.67a2.17 2.17 0 0 1-.15-.35l-.14-.34c-.2-.46-.34-.94-.51-1.41a25 25 0 0 1-1.07-6.15z" fill="#d9a155"/><path d="M147.29 347.47a8.48 8.48 0 0 0-2-5.21 6.66 6.66 0 0 0-4.58-2.32 6.73 6.73 0 0 0-4.86 1.74c-1.35 1.2-.13 2.7-.41 4.73s1.12 3.34 2.32 4.82-.07 3.36 2 3.49a7.2 7.2 0 0 0 5.44-2 6.86 6.86 0 0 0 2.09-5.25z" fill="#c98f49"/><path d="M127 338.66s.57 4.49 1.56 5.83a5.26 5.26 0 0 0 3.93 2.05c1.51.18 1 2.7 2.32 3 1.69.45 3.79 5 3.79 5l1.19.11 4.13-5.2-3.26-9.57z" fill="#c98f49"/><path fill="#facaa7" d="M244.34 300.13l-2.35 3.82-4.9 1.24 7.25-5.06z"/><path d="M243.18 295.25a3.55 3.55 0 1 1-4.89 1.16 3.55 3.55 0 0 1 4.89-1.16z" fill="#facaa7"/><path d="M240.85 299a3.55 3.55 0 1 1-4.89 1.16 3.55 3.55 0 0 1 4.89-1.16z" fill="#facaa7"/><path d="M238.86 297.8A3.56 3.56 0 1 1 234 299a3.55 3.55 0 0 1 4.86-1.2z" fill="#facaa7"/><path d="M237.76 298.07a1.4 1.4 0 1 1-2.38-1.45l1.91-3.12a1.4 1.4 0 1 1 2.37 1.44z" fill="#facaa7"/><path d="M236.22 300.56a1.4 1.4 0 1 1-2.78.08l-.1-4.09a1.4 1.4 0 1 1 2.78-.08z" fill="#facaa7"/><path d="M235.92 297.16a1.5 1.5 0 0 1-2.1-.15 1.49 1.49 0 0 1 .41-2.06l1.44-1.1a1.4 1.4 0 1 1 1.69 2.21z" fill="#facaa7"/><path fill="#facaa7" d="M237.458 295.886l1.867-3.031 3.865 2.382-1.867 3.03zm-6.313 8.831l4.235-6.858 6.807 4.204-4.236 6.858z"/><path d="M231.27 304.54a110.89 110.89 0 0 1-9 11.77c-1.64 1.85-3.29 3.68-5 5.45-.85.89-1.74 1.75-2.61 2.62-.44.44-.9.86-1.34 1.29s-.89.86-1.35 1.27l-1.37 1.26c-.45.42-.92.82-1.38 1.24-.91.83-1.86 1.63-2.8 2.44-1.89 1.59-3.8 3.16-5.75 4.69-3.89 3-7.9 5.95-12 8.65l6.33 13.23c5.12-2.5 10.71-8.4 14.49-12.1q2.83-2.78 5.56-5.66c.9-1 1.8-1.93 2.68-2.93.44-.49.89-1 1.32-1.48l1.31-1.49c.44-.5.86-1 1.28-1.52s.86-1 1.27-1.53c.84-1 1.68-2.05 2.49-3.11 1.64-2.08 3.19-4.24 4.72-6.42a120.15 120.15 0 0 0 8.23-13.73z" fill="#d9a155"/><path d="M192.14 361.62a18.86 18.86 0 0 0 .29-2.45 12.59 12.59 0 0 0 4.68-1.9c1.15-1.89-.15-4.28-.67-6.22s-1.65-2.28-3.53-3.32 2.65-6.24.75-5.77-6.16 3.06-7.21 4.79a7.38 7.38 0 0 0-.84 5.6c.45 1.88 4.77 8.04 6.53 9.27z" fill="#c98f49"/><path d="M149.88 352.2c3.58 1.19 4.77 1.52 4.77 1.52s-1.14 1.76-2.11 3.31 6.65 2.88 14.54 6.46c0 0-7.4-14.29-10.07-26.82-.65-3.06-7.49 2.15-8.35 5.29-1.01 3.67-.72 9.6 1.22 10.24zm34.54.43c-3.56 1.11-4.74 1.41-4.74 1.41s1.1 1.76 2 3.3-6.62 2.73-14.46 6.13c0 0 7.55-14 10.41-26.29.69-3 7.35 2.25 8.14 5.36.96 3.64.57 9.46-1.35 10.09z" fill="#b0772b"/><path d="M190 439.45l3.17-4.91a40.82 40.82 0 0 0 5.6-5.24s-.95 4.41-3.09 6.67a16.47 16.47 0 0 1-5.68 3.48zm-44.56.36l-3.1-4.56a53.88 53.88 0 0 1-5.67-5.59s1 4.4 3.09 6.67a16.47 16.47 0 0 0 5.68 3.48z" fill="#2c222d"/><path d="M163.85 491.27s1.65 8.76 1.65 11.18.25 8-.22 8.42-2.35.37-5.17.37h-5.73s-1.26-.13-1.66-2.83a9.8 9.8 0 0 1 .15-3.33c1.2-6.05 3.39-12.9 3.39-12.9z" fill="#b53116"/><path d="M156.55 490.84c-.39 3.31-1.9 8.6-2.2 10.84-.34 2.58 1.37 2.48 1.37 2.48h7.6c2.26 0 .88-10.44.45-13.32z" fill="#ffceaa"/><path d="M171.77 491.67s-1.62 8.67-1.62 11.07-.26 7.87.21 8.33 2.33.36 5.12.36h5.67s1.25-.13 1.64-2.8a9.9 9.9 0 0 0-.14-3.3c-1.2-6-3.37-12.76-3.37-12.76z" fill="#b53116"/><path d="M179 491.24h-7.14c-.43 2.85-1.8 13.18.44 13.18h7.52s1.69.11 1.36-2.45c-.3-2.22-1.79-7.45-2.18-10.73z" fill="#ffceaa"/><path d="M143 365.4c.73 4.53 1.45-.09 1.16-4.1-.15-2.05-.45-4.7.06-4.93s.6 3.06 1.05 3.06c.89 0 1.06-2.62 1-3.48 0-1.1.11-14.74-1.07-15.34 0 0-.63.27-.85.4-.52.31-4.26 6.74-1.35 24.39zm45.56 7.14a57 57 0 0 0 0 13.82c.89 8.17 3 16.2 1.78 18.43s-3 1-3.42-4.16-.59-14.72-.89-12.49.45 10-.89 10.41-1.19-3.42-.9-8.77 2.38-17.39 3.13-18.43 1.34-1.35 1.19 1.19z" fill="#9ad8e8"/><path d="M162.05 277.3c-.74.17-4.61.69-1 1.8s12.93 3.53 12.48 6.5 1.35 5.11 1.75 3-.17-3.25 1.15-2.07 4 3.52 3.43 6.26.65 4.6 1.58 2.61 5.09-4.91 4.12-1.63-.06 6.14.94 4-.19-4.29 2.28-3.8c.6.12-.08-1.67-1.72-3.75s-2.74-6.9-10.23-10c-8.21-3.43-12.23-3.47-14.78-2.92z" fill="#9ad8e8" opacity=".69"/><path d="M167.45 276.91s8.89-10.84 4.88-14.81-4.39 9.05-4.88 14.81z" fill="#fff"/><path d="M200 302.17s9.92 0 10.3-3.94-6.95 1.64-10.3 3.94z" fill="#9ad8e8" opacity=".79"/><path d="M153.37 276.46s-3.56-9.26-7.4-8.17 4.03 5.86 7.4 8.17z" fill="#fff"/><path d="M194.11 288.55s20-23.81 17.83-13.55-10.78 10.92-13.13 13c1.07 1.6 0 3.47 4.6 2s25.92-1.11 20.2 1.78-20.88 3.08-25.86 1.54-8.34-4.17-3.64-4.77z" fill="#9ad8e8" opacity=".79"/><path d="M198.1 286.84s10.19-12.15 10.67-8.3-8.32 6.27-10.67 8.3zm8.54 5.86s15.44-1.52 10.85-.07-10.85.07-10.85.07z" fill="#fff"/><path d="M206.13 284s-14.85 6.22-.21 5.24-28.74 6.24.21-5.24zm-63.69 11.07c-2.72-1-10.53-4.32-19.93-3.12-5.13.65-4.11 5.29 4.07 4.69s14.37.35 13.84 3-22.82-1.88-27.41 3c-3 3.43 1.13 5.51 7.33 3s15.6-3.71 18.8-2.38 8.82 3.11 7.11-2.2-3.81-5.99-3.81-5.99z" fill="#9ad8e8" opacity=".79"/><path d="M122.27 301.37s-9.67 6-3.36 4.33 3.36-4.33 3.36-4.33zm12.16-5.37s-8.34-4.16-12.45-2.33c-1.55 1.49 9.02 2.33 12.45 2.33z" fill="#fff"/><path d="M185.92 271s9.43-21.61 13.44-17.34-7.36 10.49-4.73 14.06 4.54-1.88 11.21-7.5 19.43-11.15 13.3-4.72-19.88 14.5-23.36 19.57-10.69 9.88-11.55 6.51 1.69-10.58 1.69-10.58z" fill="#9ad8e8" opacity=".79"/><path d="M189.6 265.7s5.6-10.69 9.76-12.09c0 0-4.9 9.31-9.76 12.09zm10.21 1.75S213.74 254 221 253c.48.41-19.1 13.75-21.19 14.45z" fill="#fff"/><path d="M186 272.6s-1.68 12 9.06.74c-.18.85-11.95 15.38-9.06-.74z" fill="#87c9d8" opacity=".85"/><path d="M191.32 303.37s29.42 13 10.25 8.9c-9.09-2-9.1-6.17-10.17-7-.91.57-1.78.27-1.33 2.09.51 2.07-1.2 14.1-2.37 9.87-.94-3.37.12-10 1.12-12s2.41-3.55 2.5-1.86z" fill="#9ad8e8" opacity=".79"/><path d="M194 305.55s14.89 6.54 8.76 6.55c-4.76.01-7.14-5.48-8.76-6.55zm-5.28 3.73s-.29 8.34-.74 5.44a12.27 12.27 0 0 1 .74-5.44z" fill="#fff"/><path d="M192.57 306.4s-2.89-5.92-3.18 0c-.39 7.6-1.25-9.71 3.18 0z" fill="#87c9d8" opacity=".85"/><path d="M219.41 278.27s-10.9 5-5.64 6.36 12.7-8.18 5.64-6.36z" fill="#9ad8e8"/><path d="M216 282.12s.54-3.12 4.63-2.88c.69.68-4.63 2.88-4.63 2.88z" fill="#fff"/><path d="M212.42 283.08s.57 4.5 8.9-1.13c0 .05-5.15 3.7-8.9 1.13zm-28.14-24.63s-8 8.91-2.62 8.08 8.34-12.53 2.62-8.08z" fill="#87c9d8" opacity=".85"/><path d="M182.67 263.35s-.75-3.08 3.1-4.49c.92.33-3.1 4.49-3.1 4.49z" fill="#fff"/><path d="M179.33 266.21s2.33 3.91 7.72-4.59c0 0-3.24 5.45-7.72 4.59z" fill="#87c9d8" opacity=".85"/><path d="M213.89 305.15s-7.52-1.8-5.4 1 9.72.85 5.4-1z" fill="#9ad8e8"/><path d="M210.61 305.75s1.52-1.38 3.5.37c.1.63-3.5-.37-3.5-.37z" fill="#fff"/><path d="M208 304.73s-1.5 2.52 5 3c-.06-.03-4.15-.19-5-3z" fill="#9ad8e8"/><path d="M226 310.29s-10.6-2.55-7.61 1.41 13.61 1.24 7.61-1.41z" fill="#9ad8e8" opacity=".79"/><path d="M217.45 311s2.13-1.93 4.93.53c.13.85-4.93-.53-4.93-.53z" fill="#fff"/><path d="M217.59 310.17s-2.11 3.55 7 4.18c.02 0-5.74-.23-7-4.18z" fill="#87c9d8" opacity=".85"/><path d="M140.24 408.34s-5.56 9.87-4.65 12.79 2.41 2.12 3.21-2.14 2.52-12.63 1.44-10.65zm44.54-67.52s.05 8 2 6.27-1.89-8.79-2-6.27z" fill="#9ad8e8"/></g></svg>