<svg xmlns="http://www.w3.org/2000/svg" xmlns:xlink="http://www.w3.org/1999/xlink" viewBox="0 0 332.11 848.17"><defs><clipPath id="d"><path d="M210.87 101.44v.06c-.1.36-1.77.89-2.14 1a38.89 38.89 0 0 1-5.63 1.11c-28.22 4.14-71.94 1.48-76.12-1.62l-.16-.18c.87-4.83 52.68-6.34 74.28-3.51 5.61.7 9.27 1.7 9.77 3.14z" fill="#a81a16"/></clipPath><linearGradient id="b" x1="-182.75" y1="288.95" x2="-148.36" y2="288.95" gradientTransform="matrix(1 0 0 -1 460.49 577.9)" gradientUnits="userSpaceOnUse"><stop offset=".01" stop-color="#d22c20"/><stop offset=".31" stop-color="#e7342e"/><stop offset=".51" stop-color="#ef3733"/><stop offset=".72" stop-color="#e6332d"/><stop offset="1" stop-color="#d22c20"/></linearGradient><linearGradient id="a" x1="311.62" y1="329.93" x2="278.86" y2="329.93" gradientUnits="userSpaceOnUse"><stop offset=".05" stop-color="#d3d2d2"/><stop offset=".37" stop-color="#9a9a9c"/><stop offset=".64" stop-color="#9a9a9c"/><stop offset="1" stop-color="#d1d6d5"/></linearGradient><linearGradient id="e" x1="307.23" y1="337.17" x2="283.44" y2="337.17" xlink:href="#a"/><linearGradient id="f" x1="307.23" y1="344.42" x2="283.44" y2="344.42" xlink:href="#a"/><linearGradient id="g" x1="307.23" y1="351.66" x2="283.44" y2="351.66" xlink:href="#a"/><linearGradient id="h" x1="307.23" y1="358.9" x2="283.44" y2="358.9" xlink:href="#a"/><linearGradient id="i" x1="311.62" y1="366.15" x2="278.86" y2="366.15" xlink:href="#a"/><linearGradient id="j" x1="307.38" y1="373.39" x2="283.59" y2="373.39" xlink:href="#a"/><linearGradient id="k" x1="307.38" y1="380.63" x2="283.59" y2="380.63" xlink:href="#a"/><linearGradient id="l" x1="307.38" y1="387.88" x2="283.59" y2="387.88" xlink:href="#a"/><linearGradient id="m" x1="307.38" y1="395.12" x2="283.59" y2="395.12" xlink:href="#a"/><linearGradient id="n" x1="311.78" y1="402.37" x2="279.01" y2="402.37" xlink:href="#a"/><linearGradient id="o" x1="307.23" y1="409.61" x2="283.44" y2="409.61" xlink:href="#a"/><linearGradient id="p" x1="307.23" y1="416.85" x2="283.44" y2="416.85" xlink:href="#a"/><linearGradient id="q" x1="307.23" y1="424.1" x2="283.44" y2="424.1" xlink:href="#a"/><linearGradient id="r" x1="307.23" y1="431.34" x2="283.44" y2="431.34" xlink:href="#a"/><linearGradient id="s" x1="311.62" y1="438.58" x2="278.86" y2="438.58" xlink:href="#a"/><linearGradient id="t" x1="307.23" y1="445.83" x2="283.44" y2="445.83" xlink:href="#a"/><linearGradient id="u" x1="307.23" y1="453.07" x2="283.44" y2="453.07" xlink:href="#a"/><linearGradient id="v" x1="307.23" y1="460.31" x2="283.44" y2="460.31" xlink:href="#a"/><linearGradient id="w" x1="307.23" y1="467.56" x2="283.44" y2="467.56" xlink:href="#a"/><linearGradient id="x" x1="311.62" y1="474.8" x2="278.86" y2="474.8" xlink:href="#a"/><linearGradient id="y" x1="311.62" y1="221.51" x2="278.86" y2="221.51" xlink:href="#a"/><linearGradient id="z" x1="307.23" y1="228.75" x2="283.44" y2="228.75" xlink:href="#a"/><linearGradient id="A" x1="307.23" y1="235.99" x2="283.44" y2="235.99" xlink:href="#a"/><linearGradient id="B" x1="307.23" y1="243.24" x2="283.44" y2="243.24" xlink:href="#a"/><linearGradient id="C" x1="307.23" y1="250.48" x2="283.44" y2="250.48" xlink:href="#a"/><linearGradient id="D" x1="311.62" y1="257.73" x2="278.86" y2="257.73" xlink:href="#a"/><linearGradient id="E" x1="307.38" y1="264.97" x2="283.59" y2="264.97" xlink:href="#a"/><linearGradient id="F" x1="307.38" y1="272.21" x2="283.59" y2="272.21" xlink:href="#a"/><linearGradient id="G" x1="307.38" y1="279.46" x2="283.59" y2="279.46" xlink:href="#a"/><linearGradient id="H" x1="307.38" y1="286.7" x2="283.59" y2="286.7" xlink:href="#a"/><linearGradient id="I" x1="311.78" y1="293.94" x2="279.01" y2="293.94" xlink:href="#a"/><linearGradient id="J" x1="307.23" y1="301.19" x2="283.44" y2="301.19" xlink:href="#a"/><linearGradient id="K" x1="307.23" y1="308.43" x2="283.44" y2="308.43" xlink:href="#a"/><linearGradient id="L" x1="307.23" y1="315.67" x2="283.44" y2="315.67" xlink:href="#a"/><linearGradient id="M" x1="307.23" y1="322.92" x2="283.44" y2="322.92" xlink:href="#a"/><linearGradient id="N" x1="311.62" y1="330.16" x2="278.86" y2="330.16" xlink:href="#a"/><linearGradient id="O" x1="307.23" y1="337.4" x2="283.44" y2="337.4" xlink:href="#a"/><linearGradient id="P" x1="307.23" y1="344.65" x2="283.44" y2="344.65" xlink:href="#a"/><linearGradient id="Q" x1="307.23" y1="351.89" x2="283.44" y2="351.89" xlink:href="#a"/><linearGradient id="R" x1="307.23" y1="359.13" x2="283.44" y2="359.13" xlink:href="#a"/><linearGradient id="S" x1="311.62" y1="366.38" x2="278.86" y2="366.38" xlink:href="#a"/><linearGradient id="T" x1="311.62" y1="113.09" x2="278.86" y2="113.09" xlink:href="#a"/><linearGradient id="U" x1="307.23" y1="120.33" x2="283.44" y2="120.33" xlink:href="#a"/><linearGradient id="V" x1="307.23" y1="127.57" x2="283.44" y2="127.57" xlink:href="#a"/><linearGradient id="W" x1="307.23" y1="134.82" x2="283.44" y2="134.82" xlink:href="#a"/><linearGradient id="X" x1="307.23" y1="142.06" x2="283.44" y2="142.06" xlink:href="#a"/><linearGradient id="Y" x1="311.62" y1="149.3" x2="278.86" y2="149.3" xlink:href="#a"/><linearGradient id="Z" x1="307.38" y1="156.55" x2="283.59" y2="156.55" xlink:href="#a"/><linearGradient id="aa" x1="307.38" y1="163.79" x2="283.59" y2="163.79" xlink:href="#a"/><linearGradient id="ab" x1="307.38" y1="171.03" x2="283.59" y2="171.03" xlink:href="#a"/><linearGradient id="ac" x1="307.38" y1="178.28" x2="283.59" y2="178.28" xlink:href="#a"/><linearGradient id="ad" x1="311.78" y1="185.52" x2="279.01" y2="185.52" xlink:href="#a"/><linearGradient id="ae" x1="307.23" y1="192.76" x2="283.44" y2="192.76" xlink:href="#a"/><linearGradient id="af" x1="307.23" y1="200.01" x2="283.44" y2="200.01" xlink:href="#a"/><linearGradient id="ag" x1="307.23" y1="207.25" x2="283.44" y2="207.25" xlink:href="#a"/><linearGradient id="ah" x1="307.23" y1="214.49" x2="283.44" y2="214.49" xlink:href="#a"/><linearGradient id="ai" x1="311.62" y1="221.74" x2="278.86" y2="221.74" xlink:href="#a"/><linearGradient id="aj" x1="307.23" y1="228.98" x2="283.44" y2="228.98" xlink:href="#a"/><linearGradient id="ak" x1="307.23" y1="236.23" x2="283.44" y2="236.23" xlink:href="#a"/><linearGradient id="al" x1="307.23" y1="243.47" x2="283.44" y2="243.47" xlink:href="#a"/><linearGradient id="am" x1="307.23" y1="250.71" x2="283.44" y2="250.71" xlink:href="#a"/><linearGradient id="an" x1="311.62" y1="257.96" x2="278.86" y2="257.96" xlink:href="#a"/><clipPath id="ao"><path fill="none" d="M286.53 112.37h17.37v371.86h-17.37z"/></clipPath><linearGradient id="c" x1="275.18" y1="486.08" x2="315.97" y2="486.08" gradientUnits="userSpaceOnUse"><stop offset=".01" stop-color="#d22c20"/><stop offset=".26" stop-color="#e2322b"/><stop offset=".51" stop-color="#ef3733"/><stop offset="1" stop-color="#d22c20"/></linearGradient><linearGradient id="ap" x1="-368.75" y1="288.95" x2="-334.36" y2="288.95" gradientTransform="translate(392.71)" xlink:href="#b"/><linearGradient id="aq" x1="497.62" y1="329.93" x2="464.86" y2="329.93" gradientTransform="matrix(-1 0 0 1 522.09 0)" xlink:href="#a"/><linearGradient id="ar" x1="493.23" y1="337.17" x2="469.44" y2="337.17" gradientTransform="matrix(-1 0 0 1 522.09 0)" xlink:href="#a"/><linearGradient id="as" x1="493.23" y1="344.42" x2="469.44" y2="344.42" gradientTransform="matrix(-1 0 0 1 522.09 0)" xlink:href="#a"/><linearGradient id="at" x1="493.23" y1="351.66" x2="469.44" y2="351.66" gradientTransform="matrix(-1 0 0 1 522.09 0)" xlink:href="#a"/><linearGradient id="au" x1="493.23" y1="358.9" x2="469.44" y2="358.9" gradientTransform="matrix(-1 0 0 1 522.09 0)" xlink:href="#a"/><linearGradient id="av" x1="497.62" y1="366.15" x2="464.86" y2="366.15" gradientTransform="matrix(-1 0 0 1 522.09 0)" xlink:href="#a"/><linearGradient id="aw" x1="493.38" y1="373.39" x2="469.59" y2="373.39" gradientTransform="matrix(-1 0 0 1 522.09 0)" xlink:href="#a"/><linearGradient id="ax" x1="493.38" y1="380.63" x2="469.59" y2="380.63" gradientTransform="matrix(-1 0 0 1 522.09 0)" xlink:href="#a"/><linearGradient id="ay" x1="493.38" y1="387.88" x2="469.59" y2="387.88" gradientTransform="matrix(-1 0 0 1 522.09 0)" xlink:href="#a"/><linearGradient id="az" x1="493.38" y1="395.12" x2="469.59" y2="395.12" gradientTransform="matrix(-1 0 0 1 522.09 0)" xlink:href="#a"/><linearGradient id="aA" x1="497.78" y1="402.37" x2="465.01" y2="402.37" gradientTransform="matrix(-1 0 0 1 522.09 0)" xlink:href="#a"/><linearGradient id="aB" x1="493.23" y1="409.61" x2="469.44" y2="409.61" gradientTransform="matrix(-1 0 0 1 522.09 0)" xlink:href="#a"/><linearGradient id="aC" x1="493.23" y1="416.85" x2="469.44" y2="416.85" gradientTransform="matrix(-1 0 0 1 522.09 0)" xlink:href="#a"/><linearGradient id="aD" x1="493.23" y1="424.1" x2="469.44" y2="424.1" gradientTransform="matrix(-1 0 0 1 522.09 0)" xlink:href="#a"/><linearGradient id="aE" x1="493.23" y1="431.34" x2="469.44" y2="431.34" gradientTransform="matrix(-1 0 0 1 522.09 0)" xlink:href="#a"/><linearGradient id="aF" x1="497.62" y1="438.58" x2="464.86" y2="438.58" gradientTransform="matrix(-1 0 0 1 522.09 0)" xlink:href="#a"/><linearGradient id="aG" x1="493.23" y1="445.83" x2="469.44" y2="445.83" gradientTransform="matrix(-1 0 0 1 522.09 0)" xlink:href="#a"/><linearGradient id="aH" x1="493.23" y1="453.07" x2="469.44" y2="453.07" gradientTransform="matrix(-1 0 0 1 522.09 0)" xlink:href="#a"/><linearGradient id="aI" x1="493.23" y1="460.31" x2="469.44" y2="460.31" gradientTransform="matrix(-1 0 0 1 522.09 0)" xlink:href="#a"/><linearGradient id="aJ" x1="493.23" y1="467.56" x2="469.44" y2="467.56" gradientTransform="matrix(-1 0 0 1 522.09 0)" xlink:href="#a"/><linearGradient id="aK" x1="497.62" y1="474.8" x2="464.86" y2="474.8" gradientTransform="matrix(-1 0 0 1 522.09 0)" xlink:href="#a"/><linearGradient id="aL" x1="497.62" y1="221.51" x2="464.86" y2="221.51" gradientTransform="matrix(-1 0 0 1 522.09 0)" xlink:href="#a"/><linearGradient id="aM" x1="493.23" y1="228.75" x2="469.44" y2="228.75" gradientTransform="matrix(-1 0 0 1 522.09 0)" xlink:href="#a"/><linearGradient id="aN" x1="493.23" y1="235.99" x2="469.44" y2="235.99" gradientTransform="matrix(-1 0 0 1 522.09 0)" xlink:href="#a"/><linearGradient id="aO" x1="493.23" y1="243.24" x2="469.44" y2="243.24" gradientTransform="matrix(-1 0 0 1 522.09 0)" xlink:href="#a"/><linearGradient id="aP" x1="493.23" y1="250.48" x2="469.44" y2="250.48" gradientTransform="matrix(-1 0 0 1 522.09 0)" xlink:href="#a"/><linearGradient id="aQ" x1="497.62" y1="257.73" x2="464.86" y2="257.73" gradientTransform="matrix(-1 0 0 1 522.09 0)" xlink:href="#a"/><linearGradient id="aR" x1="493.38" y1="264.97" x2="469.59" y2="264.97" gradientTransform="matrix(-1 0 0 1 522.09 0)" xlink:href="#a"/><linearGradient id="aS" x1="493.38" y1="272.21" x2="469.59" y2="272.21" gradientTransform="matrix(-1 0 0 1 522.09 0)" xlink:href="#a"/><linearGradient id="aT" x1="493.38" y1="279.46" x2="469.59" y2="279.46" gradientTransform="matrix(-1 0 0 1 522.09 0)" xlink:href="#a"/><linearGradient id="aU" x1="493.38" y1="286.7" x2="469.59" y2="286.7" gradientTransform="matrix(-1 0 0 1 522.09 0)" xlink:href="#a"/><linearGradient id="aV" x1="497.78" y1="293.94" x2="465.01" y2="293.94" gradientTransform="matrix(-1 0 0 1 522.09 0)" xlink:href="#a"/><linearGradient id="aW" x1="493.23" y1="301.19" x2="469.44" y2="301.19" gradientTransform="matrix(-1 0 0 1 522.09 0)" xlink:href="#a"/><linearGradient id="aX" x1="493.23" y1="308.43" x2="469.44" y2="308.43" gradientTransform="matrix(-1 0 0 1 522.09 0)" xlink:href="#a"/><linearGradient id="aY" x1="493.23" y1="315.67" x2="469.44" y2="315.67" gradientTransform="matrix(-1 0 0 1 522.09 0)" xlink:href="#a"/><linearGradient id="aZ" x1="493.23" y1="322.92" x2="469.44" y2="322.92" gradientTransform="matrix(-1 0 0 1 522.09 0)" xlink:href="#a"/><linearGradient id="ba" x1="497.62" y1="330.16" x2="464.86" y2="330.16" gradientTransform="matrix(-1 0 0 1 522.09 0)" xlink:href="#a"/><linearGradient id="bb" x1="493.23" y1="337.4" x2="469.44" y2="337.4" gradientTransform="matrix(-1 0 0 1 522.09 0)" xlink:href="#a"/><linearGradient id="bc" x1="493.23" y1="344.65" x2="469.44" y2="344.65" gradientTransform="matrix(-1 0 0 1 522.09 0)" xlink:href="#a"/><linearGradient id="bd" x1="493.23" y1="351.89" x2="469.44" y2="351.89" gradientTransform="matrix(-1 0 0 1 522.09 0)" xlink:href="#a"/><linearGradient id="be" x1="493.23" y1="359.13" x2="469.44" y2="359.13" gradientTransform="matrix(-1 0 0 1 522.09 0)" xlink:href="#a"/><linearGradient id="bf" x1="497.62" y1="366.38" x2="464.86" y2="366.38" gradientTransform="matrix(-1 0 0 1 522.09 0)" xlink:href="#a"/><linearGradient id="bg" x1="497.62" y1="113.09" x2="464.86" y2="113.09" gradientTransform="matrix(-1 0 0 1 522.09 0)" xlink:href="#a"/><linearGradient id="bh" x1="493.23" y1="120.33" x2="469.44" y2="120.33" gradientTransform="matrix(-1 0 0 1 522.09 0)" xlink:href="#a"/><linearGradient id="bi" x1="493.23" y1="127.57" x2="469.44" y2="127.57" gradientTransform="matrix(-1 0 0 1 522.09 0)" xlink:href="#a"/><linearGradient id="bj" x1="493.23" y1="134.82" x2="469.44" y2="134.82" gradientTransform="matrix(-1 0 0 1 522.09 0)" xlink:href="#a"/><linearGradient id="bk" x1="493.23" y1="142.06" x2="469.44" y2="142.06" gradientTransform="matrix(-1 0 0 1 522.09 0)" xlink:href="#a"/><linearGradient id="bl" x1="497.62" y1="149.3" x2="464.86" y2="149.3" gradientTransform="matrix(-1 0 0 1 522.09 0)" xlink:href="#a"/><linearGradient id="bm" x1="493.38" y1="156.55" x2="469.59" y2="156.55" gradientTransform="matrix(-1 0 0 1 522.09 0)" xlink:href="#a"/><linearGradient id="bn" x1="493.38" y1="163.79" x2="469.59" y2="163.79" gradientTransform="matrix(-1 0 0 1 522.09 0)" xlink:href="#a"/><linearGradient id="bo" x1="493.38" y1="171.03" x2="469.59" y2="171.03" gradientTransform="matrix(-1 0 0 1 522.09 0)" xlink:href="#a"/><linearGradient id="bp" x1="493.38" y1="178.28" x2="469.59" y2="178.28" gradientTransform="matrix(-1 0 0 1 522.09 0)" xlink:href="#a"/><linearGradient id="bq" x1="497.78" y1="185.52" x2="465.01" y2="185.52" gradientTransform="matrix(-1 0 0 1 522.09 0)" xlink:href="#a"/><linearGradient id="br" x1="493.23" y1="192.76" x2="469.44" y2="192.76" gradientTransform="matrix(-1 0 0 1 522.09 0)" xlink:href="#a"/><linearGradient id="bs" x1="493.23" y1="200.01" x2="469.44" y2="200.01" gradientTransform="matrix(-1 0 0 1 522.09 0)" xlink:href="#a"/><linearGradient id="bt" x1="493.23" y1="207.25" x2="469.44" y2="207.25" gradientTransform="matrix(-1 0 0 1 522.09 0)" xlink:href="#a"/><linearGradient id="bu" x1="493.23" y1="214.49" x2="469.44" y2="214.49" gradientTransform="matrix(-1 0 0 1 522.09 0)" xlink:href="#a"/><linearGradient id="bv" x1="497.62" y1="221.74" x2="464.86" y2="221.74" gradientTransform="matrix(-1 0 0 1 522.09 0)" xlink:href="#a"/><linearGradient id="bw" x1="493.23" y1="228.98" x2="469.44" y2="228.98" gradientTransform="matrix(-1 0 0 1 522.09 0)" xlink:href="#a"/><linearGradient id="bx" x1="493.23" y1="236.23" x2="469.44" y2="236.23" gradientTransform="matrix(-1 0 0 1 522.09 0)" xlink:href="#a"/><linearGradient id="by" x1="493.23" y1="243.47" x2="469.44" y2="243.47" gradientTransform="matrix(-1 0 0 1 522.09 0)" xlink:href="#a"/><linearGradient id="bz" x1="493.23" y1="250.71" x2="469.44" y2="250.71" gradientTransform="matrix(-1 0 0 1 522.09 0)" xlink:href="#a"/><linearGradient id="bA" x1="497.62" y1="257.96" x2="464.86" y2="257.96" gradientTransform="matrix(-1 0 0 1 522.09 0)" xlink:href="#a"/><clipPath id="bB"><path transform="rotate(-180 40.885 298.3)" fill="none" d="M32.2 112.37h17.37v371.86H32.2z"/></clipPath><linearGradient id="bC" x1="461.18" y1="486.08" x2="501.97" y2="486.08" gradientTransform="matrix(1 0 0 -1 -441.06 972.17)" xlink:href="#c"/></defs><g style="isolation:isolate"><path fill="#a2a2a2" d="M98.24 519.65H85.33l-2.66-55.58h18.23l-2.66 55.58z"/><path fill="#bdbdbd" d="M82.67 448.64h18.24v7.71H82.67z"/><path fill="#696969" d="M82.67 456.36h18.24v7.71H82.67z"/><path fill="#a2a2a2" d="M250.9 519.65H238l-2.68-55.58h18.24l-2.66 55.58z"/><path fill="#bdbdbd" d="M235.32 448.64h18.24v7.71h-18.24z"/><path fill="#696969" d="M235.32 456.36h18.24v7.71h-18.24z"/><path fill="#9e6741" d="M71 439.51h194v12.99H71z"/><rect x="14.65" y="125.24" width="308.13" height="9.26" rx="2.8" ry="2.8" fill="#8e8e8e"/><path d="M322.73 129.32h-308v-2.06a2.37 2.37 0 0 1 2.59-2h303a2.28 2.28 0 0 1 2.51 2s-.16 2.02-.1 2.06z" fill="#a8a8a8"/><path d="M212.15 100.37v.32a2.14 2.14 0 0 1-1.17 1l-.38.08v-.09l.24-.16v-.06c-2.55-6.55-71.5-5-82.21-1.06-1.67.69-1.61 1-1.84 1.39l-.39-.08a1.66 1.66 0 0 1-.84-.81v-.16c.24-1.22 3.23-1.89 4.37-2.17 21.58-4.7 66.51-2.21 76.11-.48 1.89.34 5.52 1.04 6.11 2.28z" fill="#e26d6d"/><path d="M210.87 101.44v.06c-.1.36-1.77.89-2.14 1a38.89 38.89 0 0 1-5.63 1.11c-28.22 4.14-71.94 1.48-76.12-1.62l-.16-.18c.87-4.83 52.68-6.34 74.28-3.51 5.61.7 9.27 1.7 9.77 3.14z" fill="#a81a16"/><g clip-path="url(#d)" fill="#a81a16"><path d="M183.44 95.2v19.59l35.5-12.55S192 91.71 183.44 95.2zm-35.88 14.36l-1-16.3S123.7 95 123.5 100.63s24.06 8.93 24.06 8.93z" style="mix-blend-mode:multiply" opacity=".3"/></g><path d="M258.24 0h-24.17a42.15 42.15 0 0 0-42 42v.08h10.38a31.78 31.78 0 0 1 31.67-30.92h24.13a31.78 31.78 0 0 1 31.69 31.69v32.01h10.37V42a42.15 42.15 0 0 0-42.07-42z" fill="#d22c20"/><path fill="#d22c20" d="M192.47 42.43l-.76 5.6 2.54 2.4 6.56-.83 1.19-5.09-.61-3.77.16-.78h-8.56l-.52 2.47z"/><path d="M203.21 40h-3.08c0 .34-.06.67-.07 1h-5.72v-1h-3.08v1H190v6.88a3.72 3.72 0 0 0 3.73 3.73h6.5a3.71 3.71 0 0 0 3.77-3.77V41h-.82c-.03-.37.01-.7.03-1zm-2.32 4.56v3.33a.66.66 0 0 1-.66.66h-6.5a.69.69 0 0 1-.47-.19.66.66 0 0 1-.19-.46v-3.85h7.82z" fill="#d22c20"/><path fill="#a81a16" d="M203.15 40.99h-11.84v-.97h11.84zm97.34 28.38h-10.64v-.89h10.64z"/><path fill="#d22c20" d="M315.98 492.83h-40.83V92.76h40.83z"/><ellipse cx="295.56" cy="94.09" rx="20.46" ry="21.68" fill="#d22c20"/><path fill="#a81a16" d="M275.39 90.96l40.35-.13-.39-1.69h-39.61l-.35 1.82z"/><path transform="rotate(-180 294.94 288.95)" fill="url(#b)" d="M277.75 90.95h34.39v395.99h-34.39z"/><path fill="url(#a)" d="M278.61 329.14h33.91v1.59h-33.91z"/><path fill="url(#e)" d="M283.26 336.38h24.62v1.59h-24.62z"/><path fill="url(#f)" d="M283.26 343.62h24.62v1.59h-24.62z"/><path fill="url(#g)" d="M283.26 350.87h24.62v1.59h-24.62z"/><path fill="url(#h)" d="M283.26 358.11h24.62v1.59h-24.62z"/><path fill="url(#i)" d="M278.61 365.35h33.91v1.59h-33.91z"/><path fill="url(#j)" d="M283.41 372.6h24.62v1.59h-24.62z"/><path fill="url(#k)" d="M283.41 379.84h24.62v1.59h-24.62z"/><path fill="url(#l)" d="M283.41 387.08h24.62v1.59h-24.62z"/><path fill="url(#m)" d="M283.41 394.33h24.62v1.59h-24.62z"/><path fill="url(#n)" d="M278.77 401.57h33.91v1.59h-33.91z"/><path fill="url(#o)" d="M283.26 408.81h24.62v1.59h-24.62z"/><path fill="url(#p)" d="M283.26 416.06h24.62v1.59h-24.62z"/><path fill="url(#q)" d="M283.26 423.3h24.62v1.59h-24.62z"/><path fill="url(#r)" d="M283.26 430.54h24.62v1.59h-24.62z"/><path fill="url(#s)" d="M278.61 437.79h33.91v1.59h-33.91z"/><path fill="url(#t)" d="M283.26 445.03h24.62v1.59h-24.62z"/><path fill="url(#u)" d="M283.26 452.28h24.62v1.59h-24.62z"/><path fill="url(#v)" d="M283.26 459.52h24.62v1.59h-24.62z"/><path fill="url(#w)" d="M283.26 466.76h24.62v1.59h-24.62z"/><path fill="url(#x)" d="M278.61 474.01h33.91v1.59h-33.91z"/><path fill="url(#y)" d="M278.61 220.71h33.91v1.59h-33.91z"/><path fill="url(#z)" d="M283.26 227.96h24.62v1.59h-24.62z"/><path fill="url(#A)" d="M283.26 235.2h24.62v1.59h-24.62z"/><path fill="url(#B)" d="M283.26 242.44h24.62v1.59h-24.62z"/><path fill="url(#C)" d="M283.26 249.69h24.62v1.59h-24.62z"/><path fill="url(#D)" d="M278.61 256.93h33.91v1.59h-33.91z"/><path fill="url(#E)" d="M283.41 264.17h24.62v1.59h-24.62z"/><path fill="url(#F)" d="M283.41 271.42h24.62v1.59h-24.62z"/><path fill="url(#G)" d="M283.41 278.66h24.62v1.59h-24.62z"/><path fill="url(#H)" d="M283.41 285.9h24.62v1.59h-24.62z"/><path fill="url(#I)" d="M278.77 293.15h33.91v1.59h-33.91z"/><path fill="url(#J)" d="M283.26 300.39h24.62v1.59h-24.62z"/><path fill="url(#K)" d="M283.26 307.64h24.62v1.59h-24.62z"/><path fill="url(#L)" d="M283.26 314.88h24.62v1.59h-24.62z"/><path fill="url(#M)" d="M283.26 322.12h24.62v1.59h-24.62z"/><path fill="url(#N)" d="M278.61 329.37h33.91v1.59h-33.91z"/><path fill="url(#O)" d="M283.26 336.61h24.62v1.59h-24.62z"/><path fill="url(#P)" d="M283.26 343.85h24.62v1.59h-24.62z"/><path fill="url(#Q)" d="M283.26 351.1h24.62v1.59h-24.62z"/><path fill="url(#R)" d="M283.26 358.34h24.62v1.59h-24.62z"/><path fill="url(#S)" d="M278.61 365.58h33.91v1.59h-33.91z"/><path fill="url(#T)" d="M278.61 112.29h33.91v1.59h-33.91z"/><path fill="url(#U)" d="M283.26 119.53h24.62v1.59h-24.62z"/><path fill="url(#V)" d="M283.26 126.78h24.62v1.59h-24.62z"/><path fill="url(#W)" d="M283.26 134.02h24.62v1.59h-24.62z"/><path fill="url(#X)" d="M283.26 141.26h24.62v1.59h-24.62z"/><path fill="url(#Y)" d="M278.61 148.51h33.91v1.59h-33.91z"/><path fill="url(#Z)" d="M283.41 155.75h24.62v1.59h-24.62z"/><path fill="url(#aa)" d="M283.41 163h24.62v1.59h-24.62z"/><path fill="url(#ab)" d="M283.41 170.24h24.62v1.59h-24.62z"/><path fill="url(#ac)" d="M283.41 177.48h24.62v1.59h-24.62z"/><path fill="url(#ad)" d="M278.77 184.73h33.91v1.59h-33.91z"/><path fill="url(#ae)" d="M283.26 191.97h24.62v1.59h-24.62z"/><path fill="url(#af)" d="M283.26 199.21h24.62v1.59h-24.62z"/><path fill="url(#ag)" d="M283.26 206.46h24.62v1.59h-24.62z"/><path fill="url(#ah)" d="M283.26 213.7h24.62v1.59h-24.62z"/><path fill="url(#ai)" d="M278.61 220.94h33.91v1.59h-33.91z"/><path fill="url(#aj)" d="M283.26 228.19h24.62v1.59h-24.62z"/><path fill="url(#ak)" d="M283.26 235.43h24.62v1.59h-24.62z"/><path fill="url(#al)" d="M283.26 242.67h24.62v1.59h-24.62z"/><path fill="url(#am)" d="M283.26 249.92h24.62v1.59h-24.62z"/><path fill="url(#an)" d="M278.61 257.16h33.91v1.59h-33.91z"/><path d="M303.89 484.22V107.58c0-5.46-3.79-9.92-8.42-9.92h-.56c-4.63 0-8.41 4.46-8.41 9.92v376.64z" fill="#9be0ff"/><g clip-path="url(#ao)"><path fill="#fff" d="M286.45 149.99h17.57V520.4h-17.57z"/><path d="M291.89 523.75V152.38h6.22v371.37h-6.24.02z" fill="#8e8e8e"/><path d="M294.63 152.38v371.26h-1.39c-.76 0-1.38-1.4-1.38-3.12V152.38zm-8.12-2.88h17.39v2.07h-17.39z" fill="#a8a8a8"/><path fill="#8e8e8e" d="M286.5 151.54h17.38v2.07H286.5z"/></g><path fill="#d22c20" d="M319.29 498.85h-47.36v-11.37h47.36z"/><path d="M259.3 519.5c.71-15.38 16.73-27.67 36.4-27.67s35.69 12.29 36.41 27.67z" fill="#d22c20"/><path fill="#a81a16" d="M318.76 498.66h-46.57v-3.19h46.57z"/><path fill="url(#c)" d="M275.18 484.33h40.79v3.5h-40.79z"/><path d="M77.85 0H102a42.15 42.15 0 0 1 42 42v.08h-10.32A31.79 31.79 0 0 0 102 11.19H77.87a31.79 31.79 0 0 0-31.69 31.69v31.98H35.83V42A42.15 42.15 0 0 1 77.85 0z" fill="#d22c20"/><path fill="#d22c20" d="M143.62 42.43l.76 5.6-2.53 2.4-6.57-.83-1.18-5.09.6-3.77-.16-.78h8.57l.51 2.47z"/><path d="M133 41h-.82v6.87a3.72 3.72 0 0 0 2.82 3.61 3.63 3.63 0 0 0 .87.1h6.5a3.74 3.74 0 0 0 3.74-3.73V41h-1.28c0-.34 0-.68-.05-1h-3.08c0 .34 0 .68.05 1H136c0-.34 0-.67-.07-1h-3.09c.07.3.16.63.16 1zm2.25 3.08H143v3.81a.66.66 0 0 1-.19.46.67.67 0 0 1-.47.19h-6.5a.65.65 0 0 1-.65-.66v-3.8z" fill="#d22c20"/><path fill="#a81a16" d="M132.95 40.02h11.84v.97h-11.84zM35.61 68.47h10.64v.89H35.61z"/><path fill="#d22c20" d="M20.11 92.76h40.83v400.07H20.11z"/><ellipse cx="40.53" cy="94.09" rx="20.46" ry="21.68" fill="#d22c20"/><path fill="#a81a16" d="M60.71 90.96l-40.36-.13.4-1.69h39.6l.36 1.82z"/><path fill="url(#ap)" d="M23.96 90.95h34.39v395.99H23.96z"/><path fill="url(#aq)" d="M23.58 329.14h33.91v1.59H23.58z"/><path fill="url(#ar)" d="M28.22 336.38h24.62v1.59H28.22z"/><path fill="url(#as)" d="M28.22 343.62h24.62v1.59H28.22z"/><path fill="url(#at)" d="M28.22 350.87h24.62v1.59H28.22z"/><path fill="url(#au)" d="M28.22 358.11h24.62v1.59H28.22z"/><path fill="url(#av)" d="M23.58 365.35h33.91v1.59H23.58z"/><path fill="url(#aw)" d="M28.07 372.6h24.62v1.59H28.07z"/><path fill="url(#ax)" d="M28.07 379.84h24.62v1.59H28.07z"/><path fill="url(#ay)" d="M28.07 387.08h24.62v1.59H28.07z"/><path fill="url(#az)" d="M28.07 394.33h24.62v1.59H28.07z"/><path fill="url(#aA)" d="M23.42 401.57h33.91v1.59H23.42z"/><path fill="url(#aB)" d="M28.22 408.81h24.62v1.59H28.22z"/><path fill="url(#aC)" d="M28.22 416.06h24.62v1.59H28.22z"/><path fill="url(#aD)" d="M28.22 423.3h24.62v1.59H28.22z"/><path fill="url(#aE)" d="M28.22 430.54h24.62v1.59H28.22z"/><path fill="url(#aF)" d="M23.58 437.79h33.91v1.59H23.58z"/><path fill="url(#aG)" d="M28.22 445.03h24.62v1.59H28.22z"/><path fill="url(#aH)" d="M28.22 452.28h24.62v1.59H28.22z"/><path fill="url(#aI)" d="M28.22 459.52h24.62v1.59H28.22z"/><path fill="url(#aJ)" d="M28.22 466.76h24.62v1.59H28.22z"/><path fill="url(#aK)" d="M23.58 474.01h33.91v1.59H23.58z"/><path fill="url(#aL)" d="M23.58 220.71h33.91v1.59H23.58z"/><path fill="url(#aM)" d="M28.22 227.96h24.62v1.59H28.22z"/><path fill="url(#aN)" d="M28.22 235.2h24.62v1.59H28.22z"/><path fill="url(#aO)" d="M28.22 242.44h24.62v1.59H28.22z"/><path fill="url(#aP)" d="M28.22 249.69h24.62v1.59H28.22z"/><path fill="url(#aQ)" d="M23.58 256.93h33.91v1.59H23.58z"/><path fill="url(#aR)" d="M28.07 264.17h24.62v1.59H28.07z"/><path fill="url(#aS)" d="M28.07 271.42h24.62v1.59H28.07z"/><path fill="url(#aT)" d="M28.07 278.66h24.62v1.59H28.07z"/><path fill="url(#aU)" d="M28.07 285.9h24.62v1.59H28.07z"/><path fill="url(#aV)" d="M23.42 293.15h33.91v1.59H23.42z"/><path fill="url(#aW)" d="M28.22 300.39h24.62v1.59H28.22z"/><path fill="url(#aX)" d="M28.22 307.64h24.62v1.59H28.22z"/><path fill="url(#aY)" d="M28.22 314.88h24.62v1.59H28.22z"/><path fill="url(#aZ)" d="M28.22 322.12h24.62v1.59H28.22z"/><path fill="url(#ba)" d="M23.58 329.37h33.91v1.59H23.58z"/><path fill="url(#bb)" d="M28.22 336.61h24.62v1.59H28.22z"/><path fill="url(#bc)" d="M28.22 343.85h24.62v1.59H28.22z"/><path fill="url(#bd)" d="M28.22 351.1h24.62v1.59H28.22z"/><path fill="url(#be)" d="M28.22 358.34h24.62v1.59H28.22z"/><path fill="url(#bf)" d="M23.58 365.58h33.91v1.59H23.58z"/><path fill="url(#bg)" d="M23.58 112.29h33.91v1.59H23.58z"/><path fill="url(#bh)" d="M28.22 119.53h24.62v1.59H28.22z"/><path fill="url(#bi)" d="M28.22 126.78h24.62v1.59H28.22z"/><path fill="url(#bj)" d="M28.22 134.02h24.62v1.59H28.22z"/><path fill="url(#bk)" d="M28.22 141.26h24.62v1.59H28.22z"/><path fill="url(#bl)" d="M23.58 148.51h33.91v1.59H23.58z"/><path fill="url(#bm)" d="M28.07 155.75h24.62v1.59H28.07z"/><path fill="url(#bn)" d="M28.07 163h24.62v1.59H28.07z"/><path fill="url(#bo)" d="M28.07 170.24h24.62v1.59H28.07z"/><path fill="url(#bp)" d="M28.07 177.48h24.62v1.59H28.07z"/><path fill="url(#bq)" d="M23.42 184.73h33.91v1.59H23.42z"/><path fill="url(#br)" d="M28.22 191.97h24.62v1.59H28.22z"/><path fill="url(#bs)" d="M28.22 199.21h24.62v1.59H28.22z"/><path fill="url(#bt)" d="M28.22 206.46h24.62v1.59H28.22z"/><path fill="url(#bu)" d="M28.22 213.7h24.62v1.59H28.22z"/><path fill="url(#bv)" d="M23.58 220.94h33.91v1.59H23.58z"/><path fill="url(#bw)" d="M28.22 228.19h24.62v1.59H28.22z"/><path fill="url(#bx)" d="M28.22 235.43h24.62v1.59H28.22z"/><path fill="url(#by)" d="M28.22 242.67h24.62v1.59H28.22z"/><path fill="url(#bz)" d="M28.22 249.92h24.62v1.59H28.22z"/><path fill="url(#bA)" d="M23.58 257.16h33.91v1.59H23.58z"/><path d="M32.2 484.22V107.58c0-5.46 3.79-9.92 8.42-9.92h.56c4.63 0 8.42 4.46 8.42 9.92v376.64z" fill="#9be0ff"/><g clip-path="url(#bB)"><path fill="#fff" d="M49.64 519.4H32.07V148.99h17.57z"/><path d="M37.97 522.75V151.37h6.22v371.38h-6.24.02z" fill="#8e8e8e"/><path d="M41.46 151.38v371.26h1.39c.77 0 1.39-1.4 1.39-3.12V151.38zm8.13-.81H32.2v-2.07h17.39z" fill="#a8a8a8"/><path fill="#8e8e8e" d="M49.59 152.62H32.21v-2.07h17.38z"/></g><path fill="#d22c20" d="M16.8 487.48h47.36v11.37H16.8z"/><path d="M76.79 519.5c-.71-15.38-16.73-27.67-36.4-27.67S4.7 504.12 4 519.5z" fill="#d22c20"/><path fill="#a81a16" d="M17.33 495.46H63.9v3.19H17.33z"/><path transform="rotate(-180 40.52 486.085)" fill="url(#bC)" d="M20.12 484.33h40.79v3.5H20.12z"/><path fill="none" d="M0 474.17h112.67v374H0z"/><path d="M163.92 370.65a59.69 59.69 0 0 1-8.76-30.21c0-7.79 10.22-6.86 10.22-6.86s10.22-.93 10.22 6.86a59.69 59.69 0 0 1-8.76 30.21c-.87 1.45-1.45 2.25-1.45 2.25s-.6-.8-1.47-2.25z" fill="#fff"/><path d="M184.76 343.6a23.19 23.19 0 0 1-4 1.57A47.11 47.11 0 0 1 165.3 347a49.57 49.57 0 0 1-12.3-1.84 19.26 19.26 0 0 1-5.17-2.17c.78-1.05 4-2.81 7.09-4.36 1.8-.9 3.58-1.73 4.86-2.31 1.06-.48 1.78-.79 1.87-.82a12.78 12.78 0 0 0 .54-3c.4-3.34.85-8.24.85-8.24h8l.31 3.6.68 7.8c.84.37 1.68.79 2.51 1.23 1.66.87 3.27 1.85 4.71 2.78a83.03 83.03 0 0 1 5.51 3.93z" fill="#ffceaa"/><path d="M171.26 327.83q-4.59 2.28-9.12 4.64c.4-3.34.85-8.24.85-8.24h8z" fill="#eda672"/><path d="M148.88 296.09c-.74 5 .79 19 5.53 24.23s9.67 7.08 13 7.21 10.82-4.25 14.54-10.47c4.49-7.5 4.1-21.76 3.17-27.29s-10.27-10.67-19.22-9.22-15.18 3.16-17.02 15.54z" fill="#ffceaa"/><path d="M169.4 311c-.92-.47-3-.43-4.68-.16a1.63 1.63 0 0 0-.61.2c-.17.12-.11.33 0 .51a6.54 6.54 0 0 0 1.89 1.33 1.61 1.61 0 0 0 2.07-.27c.56-.48 1.69-1.12 1.33-1.61z" fill="#eda672"/><path d="M133.19 299.22a3.18 3.18 0 0 0 1.59-1.39 4.58 4.58 0 0 1 .67-.9 1.58 1.58 0 0 0 .37-.67 4.62 4.62 0 0 1 3.78-3.45 1 1 0 0 0 .86-1 4.68 4.68 0 0 1 4.67-4.63h.05a1.39 1.39 0 0 0 1.22-.66 6.85 6.85 0 0 1 4.12-2.64c1.59 0 3.37-1.67 3.87-2.55 1.11-2 2.32-1.94 9.29-4a4.11 4.11 0 0 1 2.81.39 1.39 1.39 0 0 0 1 .13 5.07 5.07 0 0 1 3.87.58 1.41 1.41 0 0 0 1.15.14 5.09 5.09 0 0 1 3.94.39 4.82 4.82 0 0 0 2.55.59 4.47 4.47 0 0 1 3.8 1.85 4.75 4.75 0 0 0 1.52 1.37 5.69 5.69 0 0 1 1.14.86 4.94 4.94 0 0 0 2.21 1.25 5.47 5.47 0 0 1 3.89 3.79 4.9 4.9 0 0 0 2.58 3.08 5.48 5.48 0 0 1 2.75 3.08 5 5 0 0 0 1.28 1.94 4.55 4.55 0 0 1 1.45 3.47 5.05 5.05 0 0 0 .49 2.29 6.37 6.37 0 0 1-1.52 7.51 5 5 0 0 0-1.64 3.27 8.57 8.57 0 0 1-6.14 7.46 5 5 0 0 0-2 1.1 11.22 11.22 0 0 1-9.16 2.91 4.92 4.92 0 0 0-2.9.5 21.09 21.09 0 0 1-5.57 1.85v-.53c9.68-4.82 13.76-12.41 14.09-22.72v-.27a4.45 4.45 0 0 1-3.38-4.31 4.79 4.79 0 0 1 .07-.77 5.05 5.05 0 0 1-4.39-5 4.82 4.82 0 0 1 .08-.86 5 5 0 0 1-7.76-3.31 5 5 0 0 1-8.34-3.38 4.26 4.26 0 0 1-3.43 1.74 4.31 4.31 0 0 1-.88-.09 4.44 4.44 0 0 1 .18 1.22 4.66 4.66 0 0 1-3 4.35 4.65 4.65 0 0 1-3.6 4.12 4.64 4.64 0 0 1-1.77 3.33 20.42 20.42 0 0 0-.08 3.23c1 8.82 4.61 18.13 13.78 22.58v.54a22.45 22.45 0 0 1-4.25-1.7 5 5 0 0 0-2.81-.5 11.26 11.26 0 0 1-7.18-1.57 3.15 3.15 0 0 0-1.71-.47 8.49 8.49 0 0 1-6.86-3.29 3.21 3.21 0 0 0-1.35-1 6.33 6.33 0 0 1-4-5 3.22 3.22 0 0 0-1-1.87 4.58 4.58 0 0 1-1.42-3.05 3.23 3.23 0 0 0-.79-1.91 4.66 4.66 0 0 1 1.78-7.39z" fill="#d5532c"/><path d="M158.87 302.06c1.87.41 2.8 1.26 2.5 4.3a2.92 2.92 0 0 1-.5 1.61 5.36 5.36 0 0 1-1.41.87c-1.22.63-3 1.36-4.22.62a4.1 4.1 0 0 1-1.9-3.1 4 4 0 0 1 .19-2.48c.68-1.28 2.24-1.75 3.65-2.1z" fill="#fff"/><path d="M156.49 307a1.86 1.86 0 0 1-.09-2 1.35 1.35 0 0 1 .56-.55 1 1 0 0 1 .79-.07 1.26 1.26 0 0 1 .71 1 1.88 1.88 0 0 1-.5 1.85 1 1 0 0 1-.8.25 1.11 1.11 0 0 1-.67-.48z" fill="#4c0c0a"/><path d="M153 305.55a4.5 4.5 0 0 1 2.93-3.13 5 5 0 0 1 3.63 0 3.93 3.93 0 0 1 2 2.24c.14.36.53.31.58.09a4.38 4.38 0 0 0-3.47-3.77 5.43 5.43 0 0 0-5.64 2.4 3.52 3.52 0 0 0-.56 1.69c-.09.59.4.82.53.48z" fill="#eda672"/><path d="M153.05 304.73l-2.2.12a4.16 4.16 0 0 0 2 .84c.03-.42-.05-.63.2-.96z" fill="#eda672"/><path d="M173.61 302.06c-1.87.41-2.8 1.26-2.5 4.3a2.92 2.92 0 0 0 .5 1.61 5.36 5.36 0 0 0 1.41.87c1.23.63 2.95 1.36 4.22.62a4.1 4.1 0 0 0 1.9-3.1 4 4 0 0 0-.19-2.48c-.68-1.28-2.24-1.75-3.65-2.1z" fill="#fff"/><path d="M176 307a1.84 1.84 0 0 0 .09-2 1.39 1.39 0 0 0-.55-.55 1 1 0 0 0-.78-.07 1.28 1.28 0 0 0-.71 1 1.85 1.85 0 0 0 .49 1.83 1 1 0 0 0 .8.25 1.08 1.08 0 0 0 .66-.46z" fill="#4c0c0a"/><path d="M179.53 305.55a4.5 4.5 0 0 0-2.93-3.13 5 5 0 0 0-3.63 0 3.93 3.93 0 0 0-2 2.24c-.14.36-.53.31-.58.09a4.38 4.38 0 0 1 3.48-3.77 5.42 5.42 0 0 1 5.63 2.4 3.52 3.52 0 0 1 .56 1.69c.04.59-.45.82-.53.48z" fill="#eda672"/><path d="M179.43 304.73l2.2.12a4.16 4.16 0 0 1-2 .84c-.03-.42.05-.63-.2-.96z" fill="#eda672"/><path d="M177.81 298.76a35.59 35.59 0 0 0-6.24-4.82 5.92 5.92 0 0 1 6.24 4.82zm-23.65.13a35.49 35.49 0 0 1 6.25-4.81 5.94 5.94 0 0 0-4 1.21 6 6 0 0 0-2.25 3.6z" fill="#d5532c"/><path d="M162.53 317.44s.4-1.72 1.33-2.18a6.5 6.5 0 0 1 6 .11 3.57 3.57 0 0 1 1.1 2.1zm-.4 3.8s0 2 .85 2.77 1.74 1.15 3.76 1.19a5.9 5.9 0 0 0 3.89-1.07c.76-.76.76-3.1.76-3.1z" fill="#aa4c3f"/><path d="M170.81 322.9a6 6 0 0 1-4 1.11c-2.23 0-3.51-.53-4.26-1.38-.48-.53-.46-1.82-.34-3.15a6 6 0 0 1 .84-3.11 1.94 1.94 0 0 1 .47-.44 1.49 1.49 0 0 1 .67-.29c1-.16 1.26.21 2.62.21s1.63-.37 2.63-.21a1.61 1.61 0 0 1 .5.18 1.7 1.7 0 0 1 .57.54 6.79 6.79 0 0 1 .8 3.09c.13 1.48.21 2.83-.5 3.45z" fill="#4c0c0a"/><path d="M163.5 322.79a3.8 3.8 0 0 1 2.6-1.5 4.49 4.49 0 0 1 3.09.67c.37.26.69.62.6 1a20.61 20.61 0 0 1-5.87.33c-.2 0-.44-.06-.5-.21a.32.32 0 0 1 .08-.29z" fill="#b2543f"/><path d="M170.49 316.36a.58.58 0 0 1-.17.18 2.43 2.43 0 0 1-1 .44 17.67 17.67 0 0 1-4.47.09 3.69 3.69 0 0 1-1.66-.57 1 1 0 0 1-.15-.13 2 2 0 0 1 .32-.33l.09-.06.06-.05h.05a1.38 1.38 0 0 1 .59-.24c1-.16 1.26.21 2.62.21s1.63-.37 2.63-.21a1.61 1.61 0 0 1 .5.18l.08.05.13.1a1.87 1.87 0 0 1 .38.34zm.32 6.54c-.76.71-2 1.11-4 1.11-2.23 0-3.55-.5-4.26-1.38a2 2 0 0 1 .21-.2.57.57 0 0 1 .13-.08.74.74 0 0 1 .29-.12 2.15 2.15 0 0 1 1.11.16 10.38 10.38 0 0 0 5.25 0 1.19 1.19 0 0 1 .91 0l.14.11a.5.5 0 0 1 .08.12 2.69 2.69 0 0 1 .14.28z" fill="#fff"/><path d="M185.1 303.15h-1.46v-1.43l-.64-.28a8 8 0 0 0-1-.36c-.33-.11-.65-.2-1-.28a16.57 16.57 0 0 0-2-.39 19 19 0 0 0-4-.17 9.32 9.32 0 0 0-1 .1 9 9 0 0 0-1 .19 9.11 9.11 0 0 0-2 .71 8.25 8.25 0 0 0-1.72 1.16 6.56 6.56 0 0 0-1.35 1.63l-.08.13h-2.33l-.08-.13a6.56 6.56 0 0 0-1.35-1.63 8.25 8.25 0 0 0-1.72-1.16 9.11 9.11 0 0 0-1.95-.71 8.56 8.56 0 0 0-1-.19 9.32 9.32 0 0 0-1-.1 19.5 19.5 0 0 0-5.95.56c-.33.08-.65.17-1 .28a8 8 0 0 0-1 .36l-.64.28v1.43h-1.43a.57.57 0 0 0-.57.56v.54a.57.57 0 0 0 .57.56h1.6a.59.59 0 0 0 .26-.07 5.91 5.91 0 0 0 .19.69 9 9 0 0 0 .56 1.43 8.42 8.42 0 0 0 .83 1.33 7.55 7.55 0 0 0 1.14 1.12 3.41 3.41 0 0 0 .67.45 6.85 6.85 0 0 0 .71.37 6.74 6.74 0 0 0 1.5.43 6.49 6.49 0 0 0 1.51.14h.8l.68-.05c.44 0 1-.13 1.44-.2a12 12 0 0 0 1.43-.37 8.25 8.25 0 0 0 1.38-.58 5.33 5.33 0 0 0 2.23-2.16 4 4 0 0 0 .31-.77c0-.14.06-.28.08-.44v-.66H168v.66c0 .16 0 .3.08.44a4 4 0 0 0 .31.77 5.33 5.33 0 0 0 2.23 2.16 8.25 8.25 0 0 0 1.38.58 12 12 0 0 0 1.43.37c.47.07 1 .17 1.44.2l.68.05h.76a6.49 6.49 0 0 0 1.51-.14 6.74 6.74 0 0 0 1.5-.43 5.29 5.29 0 0 0 .71-.37 3.41 3.41 0 0 0 .67-.45 7.11 7.11 0 0 0 1.14-1.12 8.42 8.42 0 0 0 .83-1.33 9 9 0 0 0 .56-1.43c.07-.21.13-.43.18-.64h1.73a.56.56 0 0 0 .56-.56v-.54a.56.56 0 0 0-.6-.54zm-20.7 2.55a1.73 1.73 0 0 1-.29 1 3.88 3.88 0 0 1-1.72 1.49 6.4 6.4 0 0 1-1.16.42 10 10 0 0 1-1.23.27c-.43 0-.81.11-1.27.11h-1.3a5.26 5.26 0 0 1-1.2-.16 5.08 5.08 0 0 1-1.1-.37 4.85 4.85 0 0 1-.49-.29 2.09 2.09 0 0 1-.45-.33 4.68 4.68 0 0 1-.77-.83 7.05 7.05 0 0 1-.56-1 6.29 6.29 0 0 1-.39-1.13 8.17 8.17 0 0 1-.22-1.2v-.5l.12-.05q.4-.17.84-.3a16.3 16.3 0 0 1 1.73-.47 17.8 17.8 0 0 1 1.78-.28 15.15 15.15 0 0 1 1.8-.1 8.63 8.63 0 0 1 .89 0 8.39 8.39 0 0 1 .86.1 7.29 7.29 0 0 1 1.65.49 6.43 6.43 0 0 1 1.48.86 5.3 5.3 0 0 1 1.07 1.1zm17-2a7 7 0 0 1-.22 1.2 6.29 6.29 0 0 1-.39 1.13 6.2 6.2 0 0 1-.56 1 4.68 4.68 0 0 1-.77.83 2.09 2.09 0 0 1-.45.33 4.85 4.85 0 0 1-.49.29 5.08 5.08 0 0 1-1.1.37 5.26 5.26 0 0 1-1.2.16h-1.29c-.47 0-.85-.08-1.28-.11a10 10 0 0 1-1.23-.27 6.4 6.4 0 0 1-1.16-.42 3.88 3.88 0 0 1-1.72-1.49 1.73 1.73 0 0 1-.29-1v-1.16a5.3 5.3 0 0 1 1.07-1.1 6.43 6.43 0 0 1 1.48-.86 7.29 7.29 0 0 1 1.65-.49 8.39 8.39 0 0 1 .86-.1 8.63 8.63 0 0 1 .89 0 15.15 15.15 0 0 1 1.8.1 17.8 17.8 0 0 1 1.78.28 16.3 16.3 0 0 1 1.73.47q.44.13.84.3l.13.05c-.05.12-.06.29-.08.45z" fill="#b53116"/><path d="M137.06 384.1l-.28.26a1.18 1.18 0 0 1 .28-.26z" style="mix-blend-mode:multiply" fill="#754559" opacity=".4"/><path d="M171 506.62a8.84 8.84 0 0 0 .76-1.85H179l3.07 6.09 3.23 5.85 1.91 2.2-1.49.72-9.2-.85z" fill="#ffceaa"/><path d="M171.31 512.09l2.2 14.08h2.12l.41-7.58s-1-4.7-1.65-5.38-3.08-1.12-3.08-1.12z" fill="#59150c"/><path d="M171.51 506.62s2.1.91 3.34 4.58 2.24 7.58 5.29 7.58h6.67a6 6 0 0 1-2-2.38c-.57-1.44-2.77-5.54-2.77-5.54s3.39 5.82 4.29 6.63 3.63 1.57 4 2.91 1.67 5.77-3 5.77H178a3.22 3.22 0 0 1-1.86-2.48c-.43-2-1.57-7.15-2.57-9s-2.1-1.43-2.77-3.67-.21-5.02.71-4.4z" fill="#b53116"/><path d="M164.66 506.36a9.41 9.41 0 0 1-.76-1.85h-7.19l-3.07 6.09-3.23 5.85-1.91 2.2 1.49.72 9.2-.86z" fill="#ffceaa"/><path d="M164.38 511.83l-2.21 14.08h-2.12l-.41-7.58s1-4.7 1.65-5.38 3.09-1.12 3.09-1.12z" fill="#59150c"/><path d="M164.17 506.36s-2.09.9-3.33 4.57-2.24 7.58-5.3 7.58h-6.67a5.87 5.87 0 0 0 2-2.38c.58-1.43 2.77-5.53 2.77-5.53s-3.39 5.81-4.29 6.62-3.62 1.58-4 2.91-1.66 5.78 3 5.78h9.34a3.25 3.25 0 0 0 1.86-2.49c.43-2 1.57-7.15 2.58-9s2.09-1.43 2.76-3.67.2-5.04-.72-4.39z" fill="#b53116"/><path d="M188.84 451.58c0 1.9-10 2.32-22.11 2.32s-21.45.82-21.45-1.07 9.63-3.67 21.71-3.67 21.85.53 21.85 2.42z" fill="#2c222d"/><path d="M171.83 504.87l-.89-30.95.65-52.64A6.34 6.34 0 0 1 178 415c3.5 0 10.58 4.25 10.7 10.08a149.77 149.77 0 0 1-1.9 22.94c-1.19 7.37-8.11 50.29-7.85 57.06a12.84 12.84 0 0 1-7.12-.21zm-8.08 0l.46-30.95-.65-52.64a6.44 6.44 0 0 0-6.37-6.42c-3.5 0-10.62 1.8-12.58 5 0 0 .35 4.63 1.07 14.62.57 8 8.18 52.89 8.2 53 .65 6.24 3.27 10.63 2.62 17.3 0-.03 2.55 1.16 7.25.09z" fill="#ffceaa"/><path d="M187.74 450.65l-.42 3c-2.67-.75-12.6-1.19-16.11-.89l-.17-3.45zm-41.25 2.07l.23 1.94c2.68-.75 13.56-2 17.06-1.72v-3.13z" fill="#7f5d41"/><path d="M138.46 412.9c-1.9 5.35-2.2 14.06-2.2 14.06.18 3.75 2.2 8.41 8.5 12.69l.48 13.31c5.35-1.66 18.53-2.32 22.59-2.37 4.65-.07 15.21 0 20.92 1.07l.95-12.13a12.66 12.66 0 0 0 9-12.42s-.23-8.74-3.09-14.57c-1.12-2.3-.59-1.56-3.68-9-6.05-3.73-12.91-6.27-24.85-6.27-12.09 0-18.77 3-24.84 7.34-2.84 7.05-1.88 2.94-3.78 8.29z" fill="#3b2d3c"/><path fill="#d8e2ef" d="M167.08 337.15v26.57l-11.68-26.87 11.68.3z"/><path fill="#fff" d="M167.08 334.08v3.07L163 343.8l-7.77-5.57 5.13-4.15h6.72z"/><path fill="#d8e2ef" d="M167.08 337.15v26.57l11.86-26.87-11.86.3z"/><path fill="#fff" d="M167.08 334.08v3.07l4.07 6.65 7.77-5.57-5.13-4.15h-6.71z"/><path d="M167.08 363.72v43.22s.76 8.75-.09 8.75-28.52-3-28.52-3 10-22 9.44-28.84l-1-11.5s-3.74-3-4.24-11.05c-.42-7-2.85-15.25.82-19.09a8.82 8.82 0 0 1 7.82-2.91z" fill="#d9a155"/><path d="M147.8 371.06a14.55 14.55 0 0 0 8.82 1.46c5.53-.6 8.33-2.41 7.78-2.76s-5.65.91-10.4.35-9.72-1.81-6.2.95z" fill="#ba823a"/><path d="M167.08 363.72v43.22s.12 8.67.36 8.67c.85 0 28.25-2.91 28.25-2.91s-8.4-21.91-8.28-28.75c.09-5 .18-11.5.18-11.5s4.73-6.78 4.73-14.89 1.07-9.48-.63-13.37-8.87-4.88-8.87-4.88z" fill="#d9a155"/><path d="M186.35 371.06s-3.28 2.07-8.82 1.46-8.33-2.41-7.78-2.76 5.66.91 10.4.35 9.73-1.81 6.2.95z" fill="#ba823a"/><path fill="#b0772b" d="M167.08 363.81v51.53l-.31.47v-52.5l.31.5zm0 0v51.53l.3.47v-52.5l-.3.5z"/><path fill="#ffceaa" d="M133.26 417.5l-.87-3.11 2.59-4.75 5.08-1.42 2.34 8.37-9.14.91z"/><path d="M137.11 417.08a3.81 3.81 0 1 1 2.64-4.7 3.82 3.82 0 0 1-2.64 4.7z" fill="#ffceaa"/><path d="M138 420.15a3.82 3.82 0 1 1 2.64-4.71 3.82 3.82 0 0 1-2.64 4.71z" fill="#ffceaa"/><path d="M139.52 416.41a3.82 3.82 0 1 1 2.65-4.71 3.81 3.81 0 0 1-2.65 4.71z" fill="#ffceaa"/><path fill="#ffceaa" d="M131.966 407.686l7.345-2.067 2.08 7.393-7.344 2.067z"/><path d="M142.06 415.19c-1.61-1.87-2.51-3.76-2-4.2s2.23.75 3.84 2.62 2.5 3.76 2 4.2-2.24-.75-3.84-2.62z" fill="#ffceaa"/><path d="M141.17 418.53c-1-3.52-1.29-6.54-.68-6.71s1.91 2.57 2.9 6.09 1.29 6.54.69 6.71-1.92-2.57-2.91-6.09z" fill="#ffceaa"/><path d="M139.28 420.3c-1.06-3.79-1.44-7-.83-7.2s2 2.79 3.05 6.58 1.43 7 .82 7.21-1.98-2.79-3.04-6.59z" fill="#ffceaa"/><path d="M136.92 420.43c-1-3.52-1.29-6.54-.68-6.71s1.91 2.57 2.9 6.09 1.3 6.54.69 6.71-1.92-2.52-2.91-6.09z" fill="#ffceaa"/><path d="M134.18 419.17c-.87-3.11-1.09-5.79-.48-6s1.83 2.23 2.7 5.34 1.08 5.8.47 6-1.82-2.23-2.69-5.34z" fill="#ffceaa"/><path d="M139.19 404.74c-.66.26.21 1.28.5 2.15s.57 2 .57 2l-7.46 1.8-.8-2.89z" fill="#ededed"/><path d="M139.72 406.9l-.17-.73v-4.99l.05-.87c.14-2.32.4-4.68.74-7s.73-4.73 1.18-7.09.95-4.71 1.5-7.05 1.13-4.68 1.76-7 1.29-4.62 2-6.91 1.45-4.56 2.24-6.81 1.62-4.47 2.5-6.66L138 347.37q-1 3.72-1.9 7.46c-.58 2.49-1.1 5-1.58 7.48s-.91 5-1.31 7.51-.73 5-1 7.53-.56 5-.76 7.59-.36 5.08-.43 7.64-.09 5.15 0 7.79v1c0 .33.05.67.08 1s0 .66.09 1l.11 1v.52l.07.52c0 .35.1.7.18 1.06l.1.54v.55l.28 1.13z" fill="#d9a155"/><path d="M147.07 342.94a6.73 6.73 0 0 0-5.41.22 7 7 0 0 0-2.2 1.68 7.26 7.26 0 0 0-1.77 5.42 7 7 0 0 0 .78 2.64 6.84 6.84 0 0 0 4.22 3.38 7.24 7.24 0 0 0 5.36-.57 6.86 6.86 0 0 0 2.07-1.63 6.63 6.63 0 0 0 1.32-2.33 6.72 6.72 0 0 0 .31-2.65 7 7 0 0 0-.71-2.52 7.4 7.4 0 0 0-3.97-3.64z" fill="#d9a155"/><path fill="#ffceaa" d="M200.55 418.13l.88-3.11-2.6-4.75-5.07-1.43-2.35 8.38 9.14.91z"/><path d="M196.71 417.71a3.81 3.81 0 1 0-2.65-4.7 3.81 3.81 0 0 0 2.65 4.7z" fill="#ffceaa"/><path d="M195.85 420.77a3.81 3.81 0 1 0-2.64-4.7 3.81 3.81 0 0 0 2.64 4.7z" fill="#ffceaa"/><path d="M194.29 417a3.81 3.81 0 1 0-2.64-4.7 3.82 3.82 0 0 0 2.64 4.7z" fill="#ffceaa"/><path fill="#ffceaa" d="M192.41 413.621l2.082-7.392 7.344 2.067-2.08 7.393z"/><path d="M191.76 415.82c1.6-1.88 2.5-3.76 2-4.2s-2.24.75-3.84 2.62-2.5 3.76-2 4.2 2.24-.75 3.84-2.62z" fill="#ffceaa"/><path d="M192.64 419.16c1-3.53 1.3-6.55.69-6.72s-1.92 2.57-2.9 6.09-1.3 6.55-.69 6.72 1.92-2.57 2.9-6.09zm1.9 1.77c1.06-3.79 1.43-7 .82-7.2s-2 2.79-3 6.58-1.43 7-.82 7.2 1.93-2.79 3-6.58z" fill="#ffceaa"/><path d="M196.89 421.06c1-3.52 1.3-6.54.69-6.71s-1.92 2.57-2.91 6.09-1.29 6.54-.68 6.71 1.91-2.57 2.9-6.09z" fill="#ffceaa"/><path d="M199.63 419.8c.88-3.11 1.09-5.79.48-6s-1.82 2.23-2.69 5.34-1.09 5.79-.48 6 1.82-2.23 2.69-5.34z" fill="#ffceaa"/><path d="M194.65 405.23c.66.27-.23 1.45-.52 2.32s-.56 1.8-.56 1.8l7.47 1.8.8-2.85z" fill="#ededed"/><path d="M194.12 407.5l.15-.7v-5.86c-.14-2.32-.41-4.68-.74-7s-.73-4.73-1.19-7.09-.94-4.71-1.49-7.05-1.13-4.68-1.76-7-1.3-4.63-2-6.92-1.46-4.56-2.25-6.8-1.62-4.47-2.49-6.66l13.47-4.42q1 3.72 1.9 7.46c.57 2.49 1.09 5 1.58 7.48s.91 5 1.31 7.5.73 5 1 7.54.55 5 .76 7.58.35 5.09.43 7.65.09 5.15 0 7.79l-.06 1c0 .33-.05.67-.07 1s0 .66-.09 1l-.11 1v.52l-.08.52c0 .35-.09.69-.17 1.06l-.1.54-.06.27v.28l-.28 1.13z" fill="#d9a155"/><path d="M186.75 343.57a6.77 6.77 0 0 1 5.41.21 7 7 0 0 1 2.2 1.69 7.42 7.42 0 0 1 1.44 2.53 7.53 7.53 0 0 1 .33 2.88 7.09 7.09 0 0 1-.79 2.65 6.86 6.86 0 0 1-4.22 3.38 7.35 7.35 0 0 1-5.36-.57 7.47 7.47 0 0 1-2.07-1.63 6.76 6.76 0 0 1-1.31-2.33 6.54 6.54 0 0 1-.31-2.65 7.1 7.1 0 0 1 .71-2.53 7.35 7.35 0 0 1 3.97-3.63z" fill="#d9a155"/><path d="M149.79 352.21c3.58 1.19 4.77 1.52 4.77 1.52s-1.14 1.76-2.11 3.3 6.64 2.87 14.51 6.46c0 0-7.38-14.27-10.05-26.78-.65-3.06-7.48 2.14-8.34 5.27-1 3.67-.71 9.59 1.22 10.23zm34.49.43c-3.55 1.11-4.73 1.41-4.73 1.41s1.09 1.76 2 3.3-6.6 2.72-14.44 6.11c0 0 7.54-13.95 10.39-26.25.7-3 7.35 2.25 8.14 5.36.95 3.63.56 9.43-1.36 10.07z" fill="#b0772b"/><path d="M189.86 439.32l3.17-4.9a41.25 41.25 0 0 0 5.59-5.23s-1 4.4-3.09 6.65a16.38 16.38 0 0 1-5.67 3.48zm-44.5.36l-3.09-4.55a54.93 54.93 0 0 1-5.67-5.59s1 4.4 3.09 6.66a16.38 16.38 0 0 0 5.67 3.48z" fill="#2c222d"/></g></svg>